<svg width="332" height="346" viewBox="0 0 332 346" fill="none" xmlns="http://www.w3.org/2000/svg">
<g filter="url(#filter0_d)">
<rect width="320" height="333" fill="url(#paint0_linear)"/>
<path d="M165.02 179.891H105.449L92.0703 217H72.7344L127.031 74.8125H143.438L197.832 217H178.594L165.02 179.891ZM111.113 164.461H159.453L135.234 97.957L111.113 164.461ZM233.77 217H215.703V67H233.77V217Z" fill="white"/>
<path d="M35.2388 55H31.606V30.918L24.3208 33.5938V30.3125L34.6724 26.4258H35.2388V55ZM51.0786 39.0234H53.7935C55.4992 38.9974 56.8403 38.5482 57.8169 37.6758C58.7935 36.8034 59.2817 35.625 59.2817 34.1406C59.2817 30.8073 57.6216 29.1406 54.3013 29.1406C52.7388 29.1406 51.4888 29.5898 50.5513 30.4883C49.6268 31.3737 49.1646 32.5521 49.1646 34.0234H45.5513C45.5513 31.7708 46.3716 29.9023 48.0122 28.418C49.6659 26.9206 51.7622 26.1719 54.3013 26.1719C56.9836 26.1719 59.0864 26.8815 60.6099 28.3008C62.1333 29.7201 62.895 31.6927 62.895 34.2188C62.895 35.4557 62.4914 36.6536 61.6841 37.8125C60.8898 38.9714 59.8026 39.8372 58.4224 40.4102C59.9849 40.9049 61.1893 41.7253 62.0356 42.8711C62.895 44.0169 63.3247 45.4167 63.3247 47.0703C63.3247 49.6224 62.4914 51.6471 60.8247 53.1445C59.158 54.6419 56.9901 55.3906 54.3208 55.3906C51.6515 55.3906 49.4771 54.668 47.7974 53.2227C46.1307 51.7773 45.2974 49.8698 45.2974 47.5H48.9302C48.9302 48.9974 49.4185 50.1953 50.395 51.0938C51.3716 51.9922 52.6802 52.4414 54.3208 52.4414C56.0656 52.4414 57.4002 51.9857 58.3247 51.0742C59.2492 50.1628 59.7114 48.8542 59.7114 47.1484C59.7114 45.4948 59.2036 44.2253 58.188 43.3398C57.1724 42.4544 55.7075 41.9987 53.7935 41.9727H51.0786V39.0234ZM68.7349 53.1055C68.7349 52.4805 68.9172 51.9596 69.2817 51.543C69.6593 51.1263 70.2192 50.918 70.9614 50.918C71.7036 50.918 72.2635 51.1263 72.6411 51.543C73.0317 51.9596 73.2271 52.4805 73.2271 53.1055C73.2271 53.7044 73.0317 54.2057 72.6411 54.6094C72.2635 55.013 71.7036 55.2148 70.9614 55.2148C70.2192 55.2148 69.6593 55.013 69.2817 54.6094C68.9172 54.2057 68.7349 53.7044 68.7349 53.1055Z" fill="white"/>
<path d="M63.7549 263.723H48.8623L45.5176 273H40.6836L54.2578 237.453H58.3594L71.958 273H67.1484L63.7549 263.723ZM50.2783 259.865H62.3633L56.3086 243.239L50.2783 259.865ZM80.9424 273H76.4258V235.5H80.9424V273ZM104.502 270.388C102.744 272.455 100.164 273.488 96.7627 273.488C93.9469 273.488 91.7985 272.674 90.3174 271.047C88.8525 269.403 88.112 266.978 88.0957 263.771V246.584H92.6123V263.649C92.6123 267.653 94.2399 269.655 97.4951 269.655C100.946 269.655 103.241 268.369 104.38 265.798V246.584H108.896V273H104.6L104.502 270.388ZM120.029 246.584L120.151 249.514C122.088 247.235 124.701 246.096 127.988 246.096C131.683 246.096 134.198 247.512 135.532 250.344C136.411 249.074 137.55 248.049 138.95 247.268C140.366 246.486 142.035 246.096 143.955 246.096C149.749 246.096 152.695 249.164 152.793 255.3V273H148.276V255.568C148.276 253.68 147.845 252.272 146.982 251.345C146.12 250.401 144.671 249.929 142.637 249.929C140.96 249.929 139.569 250.433 138.462 251.442C137.355 252.435 136.712 253.778 136.533 255.471V273H131.992V255.69C131.992 251.849 130.112 249.929 126.353 249.929C123.39 249.929 121.364 251.19 120.273 253.713V273H115.757V246.584H120.029ZM164.536 273H160.02V246.584H164.536V273ZM159.653 239.577C159.653 238.845 159.873 238.226 160.312 237.722C160.768 237.217 161.436 236.965 162.314 236.965C163.193 236.965 163.861 237.217 164.316 237.722C164.772 238.226 165 238.845 165 239.577C165 240.31 164.772 240.92 164.316 241.408C163.861 241.896 163.193 242.141 162.314 242.141C161.436 242.141 160.768 241.896 160.312 241.408C159.873 240.92 159.653 240.31 159.653 239.577ZM176.06 246.584L176.206 249.904C178.224 247.365 180.861 246.096 184.116 246.096C189.699 246.096 192.515 249.245 192.563 255.544V273H188.047V255.52C188.031 253.615 187.591 252.207 186.729 251.296C185.882 250.384 184.556 249.929 182.749 249.929C181.284 249.929 179.998 250.319 178.892 251.101C177.785 251.882 176.922 252.907 176.304 254.177V273H171.787V246.584H176.06ZM204.282 273H199.766V246.584H204.282V273ZM199.399 239.577C199.399 238.845 199.619 238.226 200.059 237.722C200.514 237.217 201.182 236.965 202.061 236.965C202.939 236.965 203.607 237.217 204.062 237.722C204.518 238.226 204.746 238.845 204.746 239.577C204.746 240.31 204.518 240.92 204.062 241.408C203.607 241.896 202.939 242.141 202.061 242.141C201.182 242.141 200.514 241.896 200.059 241.408C199.619 240.92 199.399 240.31 199.399 239.577ZM227.842 270.388C226.084 272.455 223.504 273.488 220.103 273.488C217.287 273.488 215.138 272.674 213.657 271.047C212.192 269.403 211.452 266.978 211.436 263.771V246.584H215.952V263.649C215.952 267.653 217.58 269.655 220.835 269.655C224.285 269.655 226.58 268.369 227.72 265.798V246.584H232.236V273H227.939L227.842 270.388ZM243.369 246.584L243.491 249.514C245.428 247.235 248.04 246.096 251.328 246.096C255.023 246.096 257.537 247.512 258.872 250.344C259.751 249.074 260.89 248.049 262.29 247.268C263.706 246.486 265.374 246.096 267.295 246.096C273.089 246.096 276.035 249.164 276.133 255.3V273H271.616V255.568C271.616 253.68 271.185 252.272 270.322 251.345C269.46 250.401 268.011 249.929 265.977 249.929C264.3 249.929 262.909 250.433 261.802 251.442C260.695 252.435 260.052 253.778 259.873 255.471V273H255.332V255.69C255.332 251.849 253.452 249.929 249.692 249.929C246.73 249.929 244.704 251.19 243.613 253.713V273H239.097V246.584H243.369Z" fill="white"/>
<path d="M128.747 313H114.772V311.052L122.155 302.849C123.249 301.608 124.001 300.603 124.411 299.831C124.831 299.05 125.041 298.244 125.041 297.414C125.041 296.301 124.704 295.388 124.03 294.675C123.356 293.962 122.458 293.605 121.335 293.605C119.987 293.605 118.938 293.991 118.186 294.763C117.443 295.524 117.072 296.589 117.072 297.956H114.362C114.362 295.993 114.992 294.406 116.252 293.195C117.521 291.984 119.216 291.379 121.335 291.379C123.317 291.379 124.885 291.901 126.037 292.946C127.189 293.981 127.766 295.363 127.766 297.092C127.766 299.191 126.428 301.691 123.752 304.592L118.039 310.788H128.747V313ZM142.253 291.657V293.957H141.755C139.646 293.996 137.966 294.621 136.716 295.832C135.466 297.043 134.743 298.747 134.548 300.944C135.671 299.655 137.204 299.011 139.147 299.011C141.003 299.011 142.482 299.665 143.586 300.974C144.699 302.282 145.256 303.972 145.256 306.042C145.256 308.239 144.655 309.997 143.454 311.315C142.263 312.634 140.661 313.293 138.649 313.293C136.608 313.293 134.953 312.512 133.684 310.949C132.414 309.377 131.779 307.355 131.779 304.885V303.845C131.779 299.919 132.614 296.921 134.284 294.851C135.964 292.771 138.459 291.706 141.77 291.657H142.253ZM138.693 301.267C137.766 301.267 136.911 301.545 136.13 302.102C135.349 302.658 134.807 303.356 134.504 304.196V305.192C134.504 306.95 134.899 308.366 135.69 309.44C136.481 310.515 137.468 311.052 138.649 311.052C139.87 311.052 140.827 310.603 141.521 309.704C142.224 308.806 142.575 307.629 142.575 306.174C142.575 304.709 142.219 303.527 141.506 302.629C140.803 301.721 139.865 301.267 138.693 301.267ZM148.801 311.579C148.801 311.11 148.938 310.72 149.211 310.407C149.494 310.095 149.914 309.938 150.471 309.938C151.027 309.938 151.447 310.095 151.73 310.407C152.023 310.72 152.17 311.11 152.17 311.579C152.17 312.028 152.023 312.404 151.73 312.707C151.447 313.01 151.027 313.161 150.471 313.161C149.914 313.161 149.494 313.01 149.211 312.707C148.938 312.404 148.801 312.028 148.801 311.579ZM166.76 303.625C166.193 304.299 165.515 304.841 164.724 305.251C163.942 305.661 163.083 305.866 162.146 305.866C160.915 305.866 159.841 305.563 158.923 304.958C158.015 304.353 157.312 303.503 156.813 302.409C156.315 301.306 156.066 300.09 156.066 298.762C156.066 297.336 156.335 296.052 156.872 294.909C157.419 293.767 158.19 292.893 159.187 292.287C160.183 291.682 161.345 291.379 162.673 291.379C164.782 291.379 166.442 292.17 167.653 293.752C168.874 295.324 169.484 297.473 169.484 300.197V300.988C169.484 305.139 168.664 308.171 167.023 310.085C165.383 311.989 162.907 312.966 159.597 313.015H159.069V310.729H159.641C161.877 310.69 163.596 310.109 164.797 308.986C165.998 307.854 166.652 306.066 166.76 303.625ZM162.585 303.625C163.493 303.625 164.328 303.347 165.09 302.79C165.861 302.233 166.423 301.545 166.774 300.725V299.641C166.774 297.863 166.389 296.418 165.617 295.305C164.846 294.191 163.869 293.635 162.688 293.635C161.496 293.635 160.539 294.094 159.816 295.012C159.094 295.92 158.732 297.121 158.732 298.615C158.732 300.07 159.079 301.271 159.772 302.219C160.476 303.156 161.413 303.625 162.585 303.625ZM186.154 297.238C186.154 298.303 185.871 299.25 185.305 300.08C184.748 300.91 183.991 301.56 183.034 302.028C184.147 302.507 185.026 303.205 185.671 304.123C186.325 305.041 186.652 306.081 186.652 307.243C186.652 309.089 186.027 310.559 184.777 311.652C183.537 312.746 181.901 313.293 179.87 313.293C177.819 313.293 176.174 312.746 174.934 311.652C173.703 310.549 173.088 309.079 173.088 307.243C173.088 306.091 173.4 305.051 174.025 304.123C174.66 303.195 175.534 302.492 176.647 302.014C175.7 301.545 174.953 300.896 174.406 300.065C173.859 299.235 173.586 298.293 173.586 297.238C173.586 295.441 174.162 294.016 175.314 292.961C176.467 291.906 177.985 291.379 179.87 291.379C181.745 291.379 183.259 291.906 184.411 292.961C185.573 294.016 186.154 295.441 186.154 297.238ZM183.942 307.185C183.942 305.993 183.562 305.021 182.8 304.27C182.048 303.518 181.062 303.142 179.841 303.142C178.62 303.142 177.639 303.513 176.896 304.255C176.164 304.997 175.798 305.974 175.798 307.185C175.798 308.396 176.154 309.348 176.867 310.041C177.59 310.734 178.591 311.081 179.87 311.081C181.14 311.081 182.136 310.734 182.858 310.041C183.581 309.338 183.942 308.386 183.942 307.185ZM179.87 293.605C178.806 293.605 177.941 293.938 177.277 294.602C176.623 295.256 176.296 296.149 176.296 297.282C176.296 298.366 176.618 299.245 177.263 299.919C177.917 300.583 178.786 300.915 179.87 300.915C180.954 300.915 181.818 300.583 182.463 299.919C183.117 299.245 183.444 298.366 183.444 297.282C183.444 296.198 183.107 295.314 182.434 294.631C181.76 293.947 180.905 293.605 179.87 293.605ZM204.04 313H190.065V311.052L197.448 302.849C198.542 301.608 199.294 300.603 199.704 299.831C200.124 299.05 200.334 298.244 200.334 297.414C200.334 296.301 199.997 295.388 199.323 294.675C198.649 293.962 197.751 293.605 196.628 293.605C195.28 293.605 194.23 293.991 193.479 294.763C192.736 295.524 192.365 296.589 192.365 297.956H189.655C189.655 295.993 190.285 294.406 191.545 293.195C192.814 291.984 194.509 291.379 196.628 291.379C198.61 291.379 200.178 291.901 201.33 292.946C202.482 293.981 203.059 295.363 203.059 297.092C203.059 299.191 201.721 301.691 199.045 304.592L193.332 310.788H204.04V313Z" fill="white"/>
</g>
<defs>
<filter id="filter0_d" x="0" y="0" width="332" height="346" filterUnits="userSpaceOnUse" color-interpolation-filters="sRGB">
<feFlood flood-opacity="0" result="BackgroundImageFix"/>
<feColorMatrix in="SourceAlpha" type="matrix" values="0 0 0 0 0 0 0 0 0 0 0 0 0 0 0 0 0 0 127 0" result="hardAlpha"/>
<feOffset dx="8" dy="9"/>
<feGaussianBlur stdDeviation="2"/>
<feComposite in2="hardAlpha" operator="out"/>
<feColorMatrix type="matrix" values="0 0 0 0 0 0 0 0 0 0 0 0 0 0 0 0 0 0 0.25 0"/>
<feBlend mode="normal" in2="BackgroundImageFix" result="effect1_dropShadow"/>
<feBlend mode="normal" in="SourceGraphic" in2="effect1_dropShadow" result="shape"/>
</filter>
<linearGradient id="paint0_linear" x1="160" y1="0" x2="160" y2="333" gradientUnits="userSpaceOnUse">
<stop stop-color="#007E58"/>
<stop offset="1" stop-color="#2F4D7A" stop-opacity="0.95"/>
</linearGradient>
</defs>
</svg>
