<svg width="332" height="346" viewBox="0 0 332 346" fill="none" xmlns="http://www.w3.org/2000/svg">
<g filter="url(#filter0_d_44:26)">
<rect width="320" height="333" fill="url(#paint0_linear_44:26)"/>
<path d="M37.2114 42.5C36.4562 43.3984 35.5513 44.1211 34.4966 44.668C33.4549 45.2148 32.3091 45.4883 31.0591 45.4883C29.4185 45.4883 27.9862 45.0846 26.7622 44.2773C25.5513 43.4701 24.6138 42.3372 23.9497 40.8789C23.2856 39.4076 22.9536 37.7865 22.9536 36.0156C22.9536 34.1146 23.3117 32.4023 24.0278 30.8789C24.757 29.3555 25.7856 28.1901 27.1138 27.3828C28.4419 26.5755 29.9914 26.1719 31.7622 26.1719C34.5747 26.1719 36.7882 27.2266 38.4028 29.3359C40.0304 31.4323 40.8442 34.2969 40.8442 37.9297V38.9844C40.8442 44.5182 39.7505 48.5612 37.563 51.1133C35.3755 53.6523 32.0747 54.9544 27.6606 55.0195H26.9575V51.9727H27.7192C30.701 51.9206 32.9927 51.1458 34.5942 49.6484C36.1958 48.138 37.0682 45.7552 37.2114 42.5ZM31.645 42.5C32.856 42.5 33.9692 42.1289 34.9849 41.3867C36.0135 40.6445 36.7622 39.7266 37.231 38.6328V37.1875C37.231 34.8177 36.7166 32.8906 35.688 31.4062C34.6593 29.9219 33.3573 29.1797 31.7817 29.1797C30.1932 29.1797 28.9172 29.7917 27.9536 31.0156C26.9901 32.2266 26.5083 33.8281 26.5083 35.8203C26.5083 37.7604 26.9705 39.362 27.895 40.625C28.8325 41.875 30.0825 42.5 31.645 42.5ZM47.4849 40.7422L48.9302 26.5625H63.5005V29.9023H51.9966L51.1372 37.6562C52.5304 36.8359 54.1125 36.4258 55.8833 36.4258C58.4744 36.4258 60.5317 37.2852 62.0552 39.0039C63.5786 40.7096 64.3403 43.0208 64.3403 45.9375C64.3403 48.8672 63.5461 51.1784 61.9575 52.8711C60.382 54.5508 58.175 55.3906 55.3364 55.3906C52.8234 55.3906 50.7726 54.694 49.1841 53.3008C47.5955 51.9076 46.6906 49.9805 46.4692 47.5195H49.8872C50.1086 49.1471 50.688 50.3776 51.6255 51.2109C52.563 52.0312 53.8 52.4414 55.3364 52.4414C57.0161 52.4414 58.3312 51.8685 59.2817 50.7227C60.2453 49.5768 60.7271 47.9948 60.7271 45.9766C60.7271 44.0755 60.2062 42.5521 59.1646 41.4062C58.1359 40.2474 56.7622 39.668 55.0435 39.668C53.4679 39.668 52.231 40.013 51.3325 40.7031L50.3755 41.4844L47.4849 40.7422ZM68.7349 53.1055C68.7349 52.4805 68.9172 51.9596 69.2817 51.543C69.6593 51.1263 70.2192 50.918 70.9614 50.918C71.7036 50.918 72.2635 51.1263 72.6411 51.543C73.0317 51.9596 73.2271 52.4805 73.2271 53.1055C73.2271 53.7044 73.0317 54.2057 72.6411 54.6094C72.2635 55.013 71.7036 55.2148 70.9614 55.2148C70.2192 55.2148 69.6593 55.013 69.2817 54.6094C68.9172 54.2057 68.7349 53.7044 68.7349 53.1055Z" fill="white"/>
<path d="M102.02 179.891H42.4492L29.0703 217H9.73438L64.0312 74.8125H80.4375L134.832 217H115.594L102.02 179.891ZM48.1133 164.461H96.4531L72.2344 97.957L48.1133 164.461ZM168.133 111.336L168.621 123.055C176.368 113.94 186.818 109.383 199.969 109.383C214.747 109.383 224.806 115.047 230.145 126.375C233.66 121.297 238.217 117.195 243.816 114.07C249.48 110.945 256.154 109.383 263.836 109.383C287.013 109.383 298.797 121.655 299.188 146.199V217H281.121V147.273C281.121 139.721 279.396 134.09 275.945 130.379C272.495 126.603 266.701 124.715 258.562 124.715C251.857 124.715 246.29 126.733 241.863 130.77C237.436 134.741 234.865 140.112 234.148 146.883V217H215.984V147.762C215.984 132.397 208.465 124.715 193.426 124.715C181.577 124.715 173.471 129.76 169.109 139.852V217H151.043V111.336H168.133Z" fill="white"/>
<path d="M62.7549 263.723H47.8623L44.5176 273H39.6836L53.2578 237.453H57.3594L70.958 273H66.1484L62.7549 263.723ZM49.2783 259.865H61.3633L55.3086 243.239L49.2783 259.865ZM79.2832 246.584L79.4053 249.514C81.3421 247.235 83.9544 246.096 87.2422 246.096C90.9368 246.096 93.4515 247.512 94.7861 250.344C95.665 249.074 96.8044 248.049 98.2041 247.268C99.6201 246.486 101.288 246.096 103.209 246.096C109.003 246.096 111.949 249.164 112.047 255.3V273H107.53V255.568C107.53 253.68 107.099 252.272 106.236 251.345C105.374 250.401 103.925 249.929 101.891 249.929C100.214 249.929 98.8226 250.433 97.7158 251.442C96.609 252.435 95.9661 253.778 95.7871 255.471V273H91.2461V255.69C91.2461 251.849 89.3662 249.929 85.6064 249.929C82.6442 249.929 80.6178 251.19 79.5273 253.713V273H75.0107V246.584H79.2832ZM129.845 273.488C126.264 273.488 123.351 272.316 121.104 269.973C118.858 267.613 117.735 264.463 117.735 260.524V259.694C117.735 257.074 118.232 254.738 119.225 252.688C120.234 250.62 121.633 249.009 123.424 247.854C125.23 246.682 127.184 246.096 129.283 246.096C132.717 246.096 135.387 247.227 137.291 249.489C139.195 251.752 140.147 254.991 140.147 259.206V261.086H122.252C122.317 263.69 123.074 265.798 124.522 267.409C125.987 269.004 127.843 269.802 130.089 269.802C131.684 269.802 133.035 269.476 134.142 268.825C135.248 268.174 136.217 267.312 137.047 266.237L139.806 268.386C137.592 271.787 134.272 273.488 129.845 273.488ZM129.283 249.807C127.46 249.807 125.93 250.474 124.693 251.809C123.456 253.127 122.691 254.982 122.398 257.375H135.631V257.033C135.501 254.738 134.882 252.964 133.775 251.711C132.669 250.441 131.171 249.807 129.283 249.807ZM158.165 250.637C157.481 250.523 156.741 250.466 155.943 250.466C152.981 250.466 150.971 251.727 149.913 254.25V273H145.396V246.584H149.791L149.864 249.636C151.345 247.276 153.445 246.096 156.163 246.096C157.042 246.096 157.709 246.21 158.165 246.438V250.637ZM167.247 273H162.73V246.584H167.247V273ZM162.364 239.577C162.364 238.845 162.584 238.226 163.023 237.722C163.479 237.217 164.146 236.965 165.025 236.965C165.904 236.965 166.572 237.217 167.027 237.722C167.483 238.226 167.711 238.845 167.711 239.577C167.711 240.31 167.483 240.92 167.027 241.408C166.572 241.896 165.904 242.141 165.025 242.141C164.146 242.141 163.479 241.896 163.023 241.408C162.584 240.92 162.364 240.31 162.364 239.577ZM185.094 269.802C186.705 269.802 188.113 269.313 189.317 268.337C190.522 267.36 191.189 266.14 191.319 264.675H195.592C195.51 266.188 194.99 267.629 194.029 268.996C193.069 270.363 191.783 271.454 190.172 272.268C188.577 273.081 186.884 273.488 185.094 273.488C181.497 273.488 178.632 272.292 176.5 269.899C174.384 267.491 173.326 264.203 173.326 260.036V259.279C173.326 256.708 173.798 254.421 174.742 252.419C175.686 250.417 177.037 248.863 178.795 247.756C180.569 246.649 182.66 246.096 185.069 246.096C188.032 246.096 190.489 246.983 192.442 248.757C194.412 250.531 195.462 252.834 195.592 255.666H191.319C191.189 253.957 190.538 252.557 189.366 251.467C188.211 250.36 186.778 249.807 185.069 249.807C182.774 249.807 180.992 250.637 179.723 252.297C178.469 253.941 177.843 256.325 177.843 259.45V260.305C177.843 263.348 178.469 265.692 179.723 267.336C180.976 268.98 182.766 269.802 185.094 269.802ZM205.577 273H201.061V246.584H205.577V273ZM200.694 239.577C200.694 238.845 200.914 238.226 201.354 237.722C201.809 237.217 202.477 236.965 203.355 236.965C204.234 236.965 204.902 237.217 205.357 237.722C205.813 238.226 206.041 238.845 206.041 239.577C206.041 240.31 205.813 240.92 205.357 241.408C204.902 241.896 204.234 242.141 203.355 242.141C202.477 242.141 201.809 241.896 201.354 241.408C200.914 240.92 200.694 240.31 200.694 239.577ZM229.137 270.388C227.379 272.455 224.799 273.488 221.397 273.488C218.582 273.488 216.433 272.674 214.952 271.047C213.487 269.403 212.747 266.978 212.73 263.771V246.584H217.247V263.649C217.247 267.653 218.875 269.655 222.13 269.655C225.58 269.655 227.875 268.369 229.015 265.798V246.584H233.531V273H229.234L229.137 270.388ZM244.664 246.584L244.786 249.514C246.723 247.235 249.335 246.096 252.623 246.096C256.318 246.096 258.832 247.512 260.167 250.344C261.046 249.074 262.185 248.049 263.585 247.268C265.001 246.486 266.669 246.096 268.59 246.096C274.384 246.096 277.33 249.164 277.428 255.3V273H272.911V255.568C272.911 253.68 272.48 252.272 271.617 251.345C270.755 250.401 269.306 249.929 267.271 249.929C265.595 249.929 264.203 250.433 263.097 251.442C261.99 252.435 261.347 253.778 261.168 255.471V273H256.627V255.69C256.627 251.849 254.747 249.929 250.987 249.929C248.025 249.929 245.999 251.19 244.908 253.713V273H240.392V246.584H244.664Z" fill="white"/>
<path d="M150.747 313H136.772V311.052L144.155 302.849C145.249 301.608 146.001 300.603 146.411 299.831C146.831 299.05 147.041 298.244 147.041 297.414C147.041 296.301 146.704 295.388 146.03 294.675C145.356 293.962 144.458 293.605 143.335 293.605C141.987 293.605 140.938 293.991 140.186 294.763C139.443 295.524 139.072 296.589 139.072 297.956H136.362C136.362 295.993 136.992 294.406 138.252 293.195C139.521 291.984 141.216 291.379 143.335 291.379C145.317 291.379 146.885 291.901 148.037 292.946C149.189 293.981 149.766 295.363 149.766 297.092C149.766 299.191 148.428 301.691 145.752 304.592L140.039 310.788H150.747V313ZM165.059 305.837H168.018V308.049H165.059V313H162.334V308.049H152.622V306.452L162.173 291.672H165.059V305.837ZM155.698 305.837H162.334V295.378L162.012 295.964L155.698 305.837ZM174.404 301.018H176.44C177.72 300.998 178.726 300.661 179.458 300.007C180.19 299.353 180.557 298.469 180.557 297.355C180.557 294.855 179.312 293.605 176.821 293.605C175.649 293.605 174.712 293.942 174.009 294.616C173.315 295.28 172.969 296.164 172.969 297.268H170.259C170.259 295.578 170.874 294.177 172.104 293.063C173.345 291.94 174.917 291.379 176.821 291.379C178.833 291.379 180.41 291.911 181.553 292.976C182.695 294.04 183.267 295.52 183.267 297.414C183.267 298.342 182.964 299.24 182.358 300.109C181.763 300.979 180.947 301.628 179.912 302.058C181.084 302.429 181.987 303.044 182.622 303.903C183.267 304.763 183.589 305.812 183.589 307.053C183.589 308.967 182.964 310.485 181.714 311.608C180.464 312.731 178.838 313.293 176.836 313.293C174.834 313.293 173.203 312.751 171.943 311.667C170.693 310.583 170.068 309.152 170.068 307.375H172.793C172.793 308.498 173.159 309.396 173.892 310.07C174.624 310.744 175.605 311.081 176.836 311.081C178.145 311.081 179.146 310.739 179.839 310.056C180.532 309.372 180.879 308.391 180.879 307.111C180.879 305.871 180.498 304.919 179.736 304.255C178.975 303.591 177.876 303.249 176.44 303.229H174.404V301.018Z" fill="white"/>
</g>
<defs>
<filter id="filter0_d_44:26" x="0" y="0" width="332" height="346" filterUnits="userSpaceOnUse" color-interpolation-filters="sRGB">
<feFlood flood-opacity="0" result="BackgroundImageFix"/>
<feColorMatrix in="SourceAlpha" type="matrix" values="0 0 0 0 0 0 0 0 0 0 0 0 0 0 0 0 0 0 127 0" result="hardAlpha"/>
<feOffset dx="8" dy="9"/>
<feGaussianBlur stdDeviation="2"/>
<feComposite in2="hardAlpha" operator="out"/>
<feColorMatrix type="matrix" values="0 0 0 0 0 0 0 0 0 0 0 0 0 0 0 0 0 0 0.25 0"/>
<feBlend mode="normal" in2="BackgroundImageFix" result="effect1_dropShadow_44:26"/>
<feBlend mode="normal" in="SourceGraphic" in2="effect1_dropShadow_44:26" result="shape"/>
</filter>
<linearGradient id="paint0_linear_44:26" x1="160" y1="0" x2="160" y2="333" gradientUnits="userSpaceOnUse">
<stop stop-color="#007E58"/>
<stop offset="1" stop-color="#2F4D7A" stop-opacity="0.95"/>
</linearGradient>
</defs>
</svg>
