<svg width="332" height="346" viewBox="0 0 332 346" fill="none" xmlns="http://www.w3.org/2000/svg">
<g filter="url(#filter0_d_26:8)">
<rect width="320" height="333" fill="url(#paint0_linear_26:8)"/>
<path d="M25.0234 40.7422L26.4688 26.5625H41.0391V29.9023H29.5352L28.6758 37.6562C30.069 36.8359 31.651 36.4258 33.4219 36.4258C36.013 36.4258 38.0703 37.2852 39.5938 39.0039C41.1172 40.7096 41.8789 43.0208 41.8789 45.9375C41.8789 48.8672 41.0846 51.1784 39.4961 52.8711C37.9206 54.5508 35.7135 55.3906 32.875 55.3906C30.362 55.3906 28.3112 54.694 26.7227 53.3008C25.1341 51.9076 24.2292 49.9805 24.0078 47.5195H27.4258C27.6471 49.1471 28.2266 50.3776 29.1641 51.2109C30.1016 52.0312 31.3385 52.4414 32.875 52.4414C34.5547 52.4414 35.8698 51.8685 36.8203 50.7227C37.7839 49.5768 38.2656 47.9948 38.2656 45.9766C38.2656 44.0755 37.7448 42.5521 36.7031 41.4062C35.6745 40.2474 34.3008 39.668 32.582 39.668C31.0065 39.668 29.7695 40.013 28.8711 40.7031L27.9141 41.4844L25.0234 40.7422ZM57.6992 55H54.0664V30.918L46.7812 33.5938V30.3125L57.1328 26.4258H57.6992V55ZM68.7344 53.1055C68.7344 52.4805 68.9167 51.9596 69.2812 51.543C69.6589 51.1263 70.2188 50.918 70.9609 50.918C71.7031 50.918 72.263 51.1263 72.6406 51.543C73.0312 51.9596 73.2266 52.4805 73.2266 53.1055C73.2266 53.7044 73.0312 54.2057 72.6406 54.6094C72.263 55.013 71.7031 55.2148 70.9609 55.2148C70.2188 55.2148 69.6589 55.013 69.2812 54.6094C68.9167 54.2057 68.7344 53.7044 68.7344 53.1055Z" fill="white"/>
<path d="M102.398 153.621C86.3177 148.999 74.599 143.335 67.2422 136.629C59.9505 129.858 56.3047 121.525 56.3047 111.629C56.3047 100.431 60.7643 91.1862 69.6836 83.8945C78.668 76.5378 90.3216 72.8594 104.645 72.8594C114.41 72.8594 123.102 74.7474 130.719 78.5234C138.401 82.2995 144.326 87.5078 148.492 94.1484C152.724 100.789 154.84 108.048 154.84 115.926H135.992C135.992 107.332 133.258 100.594 127.789 95.7109C122.32 90.763 114.605 88.2891 104.645 88.2891C95.3997 88.2891 88.1732 90.3398 82.9648 94.4414C77.8216 98.4779 75.25 104.109 75.25 111.336C75.25 117.13 77.6914 122.046 82.5742 126.082C87.5221 130.053 95.888 133.699 107.672 137.02C119.521 140.34 128.766 144.018 135.406 148.055C142.112 152.026 147.06 156.681 150.25 162.02C153.505 167.358 155.133 173.641 155.133 180.867C155.133 192.391 150.641 201.635 141.656 208.602C132.672 215.503 120.66 218.953 105.621 218.953C95.8555 218.953 86.7409 217.098 78.2773 213.387C69.8138 209.611 63.2708 204.467 58.6484 197.957C54.0911 191.447 51.8125 184.057 51.8125 175.789H70.6602C70.6602 184.383 73.8177 191.186 80.1328 196.199C86.513 201.147 95.0091 203.621 105.621 203.621C115.517 203.621 123.102 201.603 128.375 197.566C133.648 193.53 136.285 188.029 136.285 181.062C136.285 174.096 133.844 168.725 128.961 164.949C124.078 161.108 115.224 157.332 102.398 153.621ZM265.875 165.34C265.875 181.486 262.164 194.474 254.742 204.305C247.32 214.07 237.359 218.953 224.859 218.953C211.513 218.953 201.194 214.233 193.902 204.793L193.023 217H176.422V67H194.488V122.957C201.78 113.908 211.839 109.383 224.664 109.383C237.49 109.383 247.548 114.233 254.84 123.934C262.197 133.634 265.875 146.915 265.875 163.777V165.34ZM247.809 163.289C247.809 150.984 245.432 141.479 240.68 134.773C235.927 128.068 229.091 124.715 220.172 124.715C208.258 124.715 199.697 130.249 194.488 141.316V187.02C200.022 198.087 208.648 203.621 220.367 203.621C229.026 203.621 235.764 200.268 240.582 193.562C245.4 186.857 247.809 176.766 247.809 163.289Z" fill="white"/>
<path d="M77.7549 263.723H62.8623L59.5176 273H54.6836L68.2578 237.453H72.3594L85.958 273H81.1484L77.7549 263.723ZM64.2783 259.865H76.3633L70.3086 243.239L64.2783 259.865ZM94.3076 246.584L94.4541 249.904C96.4723 247.365 99.109 246.096 102.364 246.096C107.947 246.096 110.763 249.245 110.812 255.544V273H106.295V255.52C106.279 253.615 105.839 252.207 104.977 251.296C104.13 250.384 102.804 249.929 100.997 249.929C99.5322 249.929 98.2464 250.319 97.1396 251.101C96.0329 251.882 95.1702 252.907 94.5518 254.177V273H90.0352V246.584H94.3076ZM123.751 240.188V246.584H128.683V250.075H123.751V266.457C123.751 267.515 123.971 268.312 124.41 268.85C124.85 269.37 125.598 269.631 126.656 269.631C127.177 269.631 127.893 269.533 128.805 269.338V273C127.617 273.326 126.461 273.488 125.338 273.488C123.32 273.488 121.798 272.878 120.772 271.657C119.747 270.437 119.234 268.703 119.234 266.457V250.075H114.425V246.584H119.234V240.188H123.751ZM138.888 273H134.371V246.584H138.888V273ZM134.005 239.577C134.005 238.845 134.225 238.226 134.664 237.722C135.12 237.217 135.787 236.965 136.666 236.965C137.545 236.965 138.212 237.217 138.668 237.722C139.124 238.226 139.352 238.845 139.352 239.577C139.352 240.31 139.124 240.92 138.668 241.408C138.212 241.896 137.545 242.141 136.666 242.141C135.787 242.141 135.12 241.896 134.664 241.408C134.225 240.92 134.005 240.31 134.005 239.577ZM150.387 246.584L150.509 249.514C152.446 247.235 155.058 246.096 158.346 246.096C162.04 246.096 164.555 247.512 165.89 250.344C166.769 249.074 167.908 248.049 169.308 247.268C170.724 246.486 172.392 246.096 174.312 246.096C180.107 246.096 183.053 249.164 183.15 255.3V273H178.634V255.568C178.634 253.68 178.202 252.272 177.34 251.345C176.477 250.401 175.029 249.929 172.994 249.929C171.318 249.929 169.926 250.433 168.819 251.442C167.713 252.435 167.07 253.778 166.891 255.471V273H162.35V255.69C162.35 251.849 160.47 249.929 156.71 249.929C153.748 249.929 151.721 251.19 150.631 253.713V273H146.114V246.584H150.387ZM188.79 259.548C188.79 256.96 189.295 254.632 190.304 252.565C191.329 250.498 192.745 248.903 194.552 247.78C196.375 246.657 198.45 246.096 200.777 246.096C204.374 246.096 207.28 247.341 209.493 249.831C211.723 252.321 212.838 255.633 212.838 259.768V260.085C212.838 262.657 212.341 264.968 211.349 267.019C210.372 269.053 208.964 270.64 207.125 271.779C205.302 272.919 203.202 273.488 200.826 273.488C197.245 273.488 194.34 272.243 192.11 269.753C189.897 267.263 188.79 263.967 188.79 259.865V259.548ZM193.331 260.085C193.331 263.015 194.007 265.367 195.357 267.141C196.725 268.915 198.548 269.802 200.826 269.802C203.121 269.802 204.944 268.907 206.295 267.116C207.646 265.31 208.321 262.787 208.321 259.548C208.321 256.651 207.63 254.307 206.246 252.517C204.879 250.71 203.056 249.807 200.777 249.807C198.548 249.807 196.749 250.694 195.382 252.468C194.015 254.242 193.331 256.781 193.331 260.085ZM222.774 246.584L222.921 249.904C224.939 247.365 227.576 246.096 230.831 246.096C236.414 246.096 239.229 249.245 239.278 255.544V273H234.762V255.52C234.745 253.615 234.306 252.207 233.443 251.296C232.597 250.384 231.271 249.929 229.464 249.929C227.999 249.929 226.713 250.319 225.606 251.101C224.5 251.882 223.637 252.907 223.019 254.177V273H218.502V246.584H222.774ZM254.732 266.384L260.885 246.584H265.719L255.099 277.077C253.455 281.472 250.842 283.669 247.262 283.669L246.407 283.596L244.723 283.278V279.616L245.943 279.714C247.473 279.714 248.661 279.405 249.508 278.786C250.37 278.168 251.078 277.036 251.632 275.393L252.633 272.707L243.209 246.584H248.141L254.732 266.384Z" fill="white"/>
<path d="M123.679 313H120.954V294.938L115.49 296.945V294.484L123.254 291.569H123.679V313ZM145.593 313H131.618V311.052L139.001 302.849C140.095 301.608 140.847 300.603 141.257 299.831C141.677 299.05 141.887 298.244 141.887 297.414C141.887 296.301 141.55 295.388 140.876 294.675C140.202 293.962 139.304 293.605 138.181 293.605C136.833 293.605 135.783 293.991 135.031 294.763C134.289 295.524 133.918 296.589 133.918 297.956H131.208C131.208 295.993 131.838 294.406 133.098 293.195C134.367 291.984 136.062 291.379 138.181 291.379C140.163 291.379 141.73 291.901 142.883 292.946C144.035 293.981 144.611 295.363 144.611 297.092C144.611 299.191 143.273 301.691 140.598 304.592L134.885 310.788H145.593V313ZM157.37 313H154.646V294.938L149.182 296.945V294.484L156.945 291.569H157.37V313ZM165.646 311.579C165.646 311.11 165.783 310.72 166.057 310.407C166.34 310.095 166.76 309.938 167.316 309.938C167.873 309.938 168.293 310.095 168.576 310.407C168.869 310.72 169.016 311.11 169.016 311.579C169.016 312.028 168.869 312.404 168.576 312.707C168.293 313.01 167.873 313.161 167.316 313.161C166.76 313.161 166.34 313.01 166.057 312.707C165.783 312.404 165.646 312.028 165.646 311.579ZM186.989 293.195L178.156 313H175.314L184.118 293.898H172.575V291.672H186.989V293.195ZM200.7 291.657V293.957H200.202C198.093 293.996 196.413 294.621 195.163 295.832C193.913 297.043 193.19 298.747 192.995 300.944C194.118 299.655 195.651 299.011 197.595 299.011C199.45 299.011 200.93 299.665 202.033 300.974C203.146 302.282 203.703 303.972 203.703 306.042C203.703 308.239 203.103 309.997 201.901 311.315C200.71 312.634 199.108 313.293 197.097 313.293C195.056 313.293 193.4 312.512 192.131 310.949C190.861 309.377 190.227 307.355 190.227 304.885V303.845C190.227 299.919 191.062 296.921 192.731 294.851C194.411 292.771 196.906 291.706 200.217 291.657H200.7ZM197.141 301.267C196.213 301.267 195.358 301.545 194.577 302.102C193.796 302.658 193.254 303.356 192.951 304.196V305.192C192.951 306.95 193.347 308.366 194.138 309.44C194.929 310.515 195.915 311.052 197.097 311.052C198.317 311.052 199.274 310.603 199.968 309.704C200.671 308.806 201.022 307.629 201.022 306.174C201.022 304.709 200.666 303.527 199.953 302.629C199.25 301.721 198.312 301.267 197.141 301.267Z" fill="white"/>
</g>
<defs>
<filter id="filter0_d_26:8" x="0" y="0" width="332" height="346" filterUnits="userSpaceOnUse" color-interpolation-filters="sRGB">
<feFlood flood-opacity="0" result="BackgroundImageFix"/>
<feColorMatrix in="SourceAlpha" type="matrix" values="0 0 0 0 0 0 0 0 0 0 0 0 0 0 0 0 0 0 127 0" result="hardAlpha"/>
<feOffset dx="8" dy="9"/>
<feGaussianBlur stdDeviation="2"/>
<feComposite in2="hardAlpha" operator="out"/>
<feColorMatrix type="matrix" values="0 0 0 0 0 0 0 0 0 0 0 0 0 0 0 0 0 0 0.25 0"/>
<feBlend mode="normal" in2="BackgroundImageFix" result="effect1_dropShadow_26:8"/>
<feBlend mode="normal" in="SourceGraphic" in2="effect1_dropShadow_26:8" result="shape"/>
</filter>
<linearGradient id="paint0_linear_26:8" x1="160" y1="0" x2="160" y2="333" gradientUnits="userSpaceOnUse">
<stop stop-color="#007E58"/>
<stop offset="1" stop-color="#2F4D7A" stop-opacity="0.95"/>
</linearGradient>
</defs>
</svg>
