<svg width="332" height="346" viewBox="0 0 332 346" fill="none" xmlns="http://www.w3.org/2000/svg">
<g filter="url(#filter0_d)">
<rect width="320" height="333" fill="url(#paint0_linear)"/>
<path d="M156.02 179.891H96.4492L83.0703 217H63.7344L118.031 74.8125H134.438L188.832 217H169.594L156.02 179.891ZM102.113 164.461H150.453L126.234 97.957L102.113 164.461ZM256.215 127.547C253.48 127.091 250.518 126.863 247.328 126.863C235.479 126.863 227.439 131.909 223.207 142V217H205.141V111.336H222.719L223.012 123.543C228.936 114.103 237.335 109.383 248.207 109.383C251.723 109.383 254.392 109.839 256.215 110.75V127.547Z" fill="white"/>
<path d="M35.2388 55H31.606V30.918L24.3208 33.5938V30.3125L34.6724 26.4258H35.2388V55ZM63.0708 33.9844C63.0708 35.4036 62.6932 36.6667 61.938 37.7734C61.1958 38.8802 60.1867 39.7461 58.9106 40.3711C60.395 41.0091 61.5669 41.9401 62.4263 43.1641C63.2987 44.388 63.7349 45.7747 63.7349 47.3242C63.7349 49.7852 62.9015 51.7448 61.2349 53.2031C59.5812 54.6615 57.4002 55.3906 54.6919 55.3906C51.9575 55.3906 49.7635 54.6615 48.1099 53.2031C46.4692 51.7318 45.6489 49.7721 45.6489 47.3242C45.6489 45.7878 46.0656 44.401 46.8989 43.1641C47.7453 41.9271 48.9106 40.9896 50.395 40.3516C49.132 39.7266 48.1359 38.8607 47.4067 37.7539C46.6776 36.6471 46.313 35.3906 46.313 33.9844C46.313 31.5885 47.0812 29.6875 48.6177 28.2812C50.1541 26.875 52.1789 26.1719 54.6919 26.1719C57.1919 26.1719 59.2101 26.875 60.7466 28.2812C62.2961 29.6875 63.0708 31.5885 63.0708 33.9844ZM60.1216 47.2461C60.1216 45.6576 59.6138 44.362 58.5981 43.3594C57.5955 42.3568 56.2804 41.8555 54.6528 41.8555C53.0252 41.8555 51.7166 42.3503 50.7271 43.3398C49.7505 44.3294 49.2622 45.6315 49.2622 47.2461C49.2622 48.8607 49.7375 50.1302 50.688 51.0547C51.6515 51.9792 52.9862 52.4414 54.6919 52.4414C56.3846 52.4414 57.7127 51.9792 58.6763 51.0547C59.6398 50.1172 60.1216 48.8477 60.1216 47.2461ZM54.6919 29.1406C53.2726 29.1406 52.1203 29.5833 51.2349 30.4688C50.3625 31.3411 49.9263 32.5326 49.9263 34.043C49.9263 35.4883 50.356 36.6602 51.2153 37.5586C52.0877 38.444 53.2466 38.8867 54.6919 38.8867C56.1372 38.8867 57.2896 38.444 58.1489 37.5586C59.0213 36.6602 59.4575 35.4883 59.4575 34.043C59.4575 32.5977 59.0083 31.4193 58.1099 30.5078C57.2114 29.5964 56.0721 29.1406 54.6919 29.1406ZM68.7349 53.1055C68.7349 52.4805 68.9172 51.9596 69.2817 51.543C69.6593 51.1263 70.2192 50.918 70.9614 50.918C71.7036 50.918 72.2635 51.1263 72.6411 51.543C73.0317 51.9596 73.2271 52.4805 73.2271 53.1055C73.2271 53.7044 73.0317 54.2057 72.6411 54.6094C72.2635 55.013 71.7036 55.2148 70.9614 55.2148C70.2192 55.2148 69.6593 55.013 69.2817 54.6094C68.9172 54.2057 68.7349 53.7044 68.7349 53.1055Z" fill="white"/>
<path d="M116.755 263.723H101.862L98.5176 273H93.6836L107.258 237.453H111.359L124.958 273H120.148L116.755 263.723ZM103.278 259.865H115.363L109.309 243.239L103.278 259.865ZM141.804 250.637C141.12 250.523 140.38 250.466 139.582 250.466C136.62 250.466 134.61 251.727 133.552 254.25V273H129.035V246.584H133.43L133.503 249.636C134.984 247.276 137.084 246.096 139.802 246.096C140.681 246.096 141.348 246.21 141.804 246.438V250.637ZM144.416 259.572C144.416 255.454 145.368 252.183 147.272 249.758C149.177 247.316 151.7 246.096 154.841 246.096C158.063 246.096 160.578 247.235 162.385 249.514L162.604 246.584H166.73V272.365C166.73 275.783 165.713 278.477 163.679 280.446C161.66 282.416 158.942 283.4 155.524 283.4C153.62 283.4 151.757 282.993 149.934 282.18C148.111 281.366 146.719 280.251 145.759 278.835L148.103 276.125C150.039 278.518 152.408 279.714 155.207 279.714C157.404 279.714 159.113 279.095 160.334 277.858C161.571 276.621 162.189 274.88 162.189 272.634V270.363C160.383 272.447 157.917 273.488 154.792 273.488C151.7 273.488 149.193 272.243 147.272 269.753C145.368 267.263 144.416 263.869 144.416 259.572ZM148.957 260.085C148.957 263.063 149.567 265.407 150.788 267.116C152.009 268.809 153.718 269.655 155.915 269.655C158.763 269.655 160.855 268.361 162.189 265.773V253.713C160.806 251.19 158.731 249.929 155.964 249.929C153.767 249.929 152.049 250.783 150.812 252.492C149.576 254.201 148.957 256.732 148.957 260.085ZM172.37 259.548C172.37 256.96 172.875 254.632 173.884 252.565C174.909 250.498 176.325 248.903 178.132 247.78C179.955 246.657 182.03 246.096 184.357 246.096C187.954 246.096 190.86 247.341 193.073 249.831C195.303 252.321 196.418 255.633 196.418 259.768V260.085C196.418 262.657 195.922 264.968 194.929 267.019C193.952 269.053 192.544 270.64 190.705 271.779C188.882 272.919 186.783 273.488 184.406 273.488C180.826 273.488 177.92 272.243 175.69 269.753C173.477 267.263 172.37 263.967 172.37 259.865V259.548ZM176.911 260.085C176.911 263.015 177.587 265.367 178.938 267.141C180.305 268.915 182.128 269.802 184.406 269.802C186.701 269.802 188.524 268.907 189.875 267.116C191.226 265.31 191.901 262.787 191.901 259.548C191.901 256.651 191.21 254.307 189.826 252.517C188.459 250.71 186.636 249.807 184.357 249.807C182.128 249.807 180.329 250.694 178.962 252.468C177.595 254.242 176.911 256.781 176.911 260.085ZM206.354 246.584L206.501 249.904C208.519 247.365 211.156 246.096 214.411 246.096C219.994 246.096 222.81 249.245 222.858 255.544V273H218.342V255.52C218.326 253.615 217.886 252.207 217.023 251.296C216.177 250.384 214.851 249.929 213.044 249.929C211.579 249.929 210.293 250.319 209.187 251.101C208.08 251.882 207.217 252.907 206.599 254.177V273H202.082V246.584H206.354Z" fill="white"/>
<path d="M118.713 301.018H120.749C122.028 300.998 123.034 300.661 123.767 300.007C124.499 299.353 124.865 298.469 124.865 297.355C124.865 294.855 123.62 293.605 121.13 293.605C119.958 293.605 119.021 293.942 118.317 294.616C117.624 295.28 117.277 296.164 117.277 297.268H114.567C114.567 295.578 115.183 294.177 116.413 293.063C117.653 291.94 119.226 291.379 121.13 291.379C123.142 291.379 124.719 291.911 125.861 292.976C127.004 294.04 127.575 295.52 127.575 297.414C127.575 298.342 127.272 299.24 126.667 300.109C126.071 300.979 125.256 301.628 124.221 302.058C125.393 302.429 126.296 303.044 126.931 303.903C127.575 304.763 127.897 305.812 127.897 307.053C127.897 308.967 127.272 310.485 126.022 311.608C124.772 312.731 123.146 313.293 121.145 313.293C119.143 313.293 117.512 312.751 116.252 311.667C115.002 310.583 114.377 309.152 114.377 307.375H117.102C117.102 308.498 117.468 309.396 118.2 310.07C118.933 310.744 119.914 311.081 121.145 311.081C122.453 311.081 123.454 310.739 124.147 310.056C124.841 309.372 125.188 308.391 125.188 307.111C125.188 305.871 124.807 304.919 124.045 304.255C123.283 303.591 122.185 303.249 120.749 303.229H118.713V301.018ZM142.004 303.625C141.438 304.299 140.759 304.841 139.968 305.251C139.187 305.661 138.327 305.866 137.39 305.866C136.159 305.866 135.085 305.563 134.167 304.958C133.259 304.353 132.556 303.503 132.058 302.409C131.56 301.306 131.311 300.09 131.311 298.762C131.311 297.336 131.579 296.052 132.116 294.909C132.663 293.767 133.435 292.893 134.431 292.287C135.427 291.682 136.589 291.379 137.917 291.379C140.026 291.379 141.687 292.17 142.897 293.752C144.118 295.324 144.729 297.473 144.729 300.197V300.988C144.729 305.139 143.908 308.171 142.268 310.085C140.627 311.989 138.151 312.966 134.841 313.015H134.313V310.729H134.885C137.121 310.69 138.84 310.109 140.041 308.986C141.242 307.854 141.896 306.066 142.004 303.625ZM137.829 303.625C138.737 303.625 139.572 303.347 140.334 302.79C141.105 302.233 141.667 301.545 142.019 300.725V299.641C142.019 297.863 141.633 296.418 140.861 295.305C140.09 294.191 139.113 293.635 137.932 293.635C136.74 293.635 135.783 294.094 135.061 295.012C134.338 295.92 133.977 297.121 133.977 298.615C133.977 300.07 134.323 301.271 135.017 302.219C135.72 303.156 136.657 303.625 137.829 303.625ZM148.801 311.579C148.801 311.11 148.938 310.72 149.211 310.407C149.494 310.095 149.914 309.938 150.471 309.938C151.027 309.938 151.447 310.095 151.73 310.407C152.023 310.72 152.17 311.11 152.17 311.579C152.17 312.028 152.023 312.404 151.73 312.707C151.447 313.01 151.027 313.161 150.471 313.161C149.914 313.161 149.494 313.01 149.211 312.707C148.938 312.404 148.801 312.028 148.801 311.579ZM166.76 303.625C166.193 304.299 165.515 304.841 164.724 305.251C163.942 305.661 163.083 305.866 162.146 305.866C160.915 305.866 159.841 305.563 158.923 304.958C158.015 304.353 157.312 303.503 156.813 302.409C156.315 301.306 156.066 300.09 156.066 298.762C156.066 297.336 156.335 296.052 156.872 294.909C157.419 293.767 158.19 292.893 159.187 292.287C160.183 291.682 161.345 291.379 162.673 291.379C164.782 291.379 166.442 292.17 167.653 293.752C168.874 295.324 169.484 297.473 169.484 300.197V300.988C169.484 305.139 168.664 308.171 167.023 310.085C165.383 311.989 162.907 312.966 159.597 313.015H159.069V310.729H159.641C161.877 310.69 163.596 310.109 164.797 308.986C165.998 307.854 166.652 306.066 166.76 303.625ZM162.585 303.625C163.493 303.625 164.328 303.347 165.09 302.79C165.861 302.233 166.423 301.545 166.774 300.725V299.641C166.774 297.863 166.389 296.418 165.617 295.305C164.846 294.191 163.869 293.635 162.688 293.635C161.496 293.635 160.539 294.094 159.816 295.012C159.094 295.92 158.732 297.121 158.732 298.615C158.732 300.07 159.079 301.271 159.772 302.219C160.476 303.156 161.413 303.625 162.585 303.625ZM184.66 305.837H187.619V308.049H184.66V313H181.936V308.049H172.224V306.452L181.774 291.672H184.66V305.837ZM175.3 305.837H181.936V295.378L181.613 295.964L175.3 305.837ZM203 297.238C203 298.303 202.717 299.25 202.15 300.08C201.594 300.91 200.837 301.56 199.88 302.028C200.993 302.507 201.872 303.205 202.517 304.123C203.171 305.041 203.498 306.081 203.498 307.243C203.498 309.089 202.873 310.559 201.623 311.652C200.383 312.746 198.747 313.293 196.716 313.293C194.665 313.293 193.02 312.746 191.779 311.652C190.549 310.549 189.934 309.079 189.934 307.243C189.934 306.091 190.246 305.051 190.871 304.123C191.506 303.195 192.38 302.492 193.493 302.014C192.546 301.545 191.799 300.896 191.252 300.065C190.705 299.235 190.432 298.293 190.432 297.238C190.432 295.441 191.008 294.016 192.16 292.961C193.312 291.906 194.831 291.379 196.716 291.379C198.591 291.379 200.104 291.906 201.257 292.961C202.419 294.016 203 295.441 203 297.238ZM200.788 307.185C200.788 305.993 200.407 305.021 199.646 304.27C198.894 303.518 197.907 303.142 196.687 303.142C195.466 303.142 194.484 303.513 193.742 304.255C193.01 304.997 192.644 305.974 192.644 307.185C192.644 308.396 193 309.348 193.713 310.041C194.436 310.734 195.437 311.081 196.716 311.081C197.985 311.081 198.981 310.734 199.704 310.041C200.427 309.338 200.788 308.386 200.788 307.185ZM196.716 293.605C195.651 293.605 194.787 293.938 194.123 294.602C193.469 295.256 193.142 296.149 193.142 297.282C193.142 298.366 193.464 299.245 194.108 299.919C194.763 300.583 195.632 300.915 196.716 300.915C197.8 300.915 198.664 300.583 199.309 299.919C199.963 299.245 200.29 298.366 200.29 297.282C200.29 296.198 199.953 295.314 199.279 294.631C198.605 293.947 197.751 293.605 196.716 293.605Z" fill="white"/>
</g>
<defs>
<filter id="filter0_d" x="0" y="0" width="332" height="346" filterUnits="userSpaceOnUse" color-interpolation-filters="sRGB">
<feFlood flood-opacity="0" result="BackgroundImageFix"/>
<feColorMatrix in="SourceAlpha" type="matrix" values="0 0 0 0 0 0 0 0 0 0 0 0 0 0 0 0 0 0 127 0" result="hardAlpha"/>
<feOffset dx="8" dy="9"/>
<feGaussianBlur stdDeviation="2"/>
<feComposite in2="hardAlpha" operator="out"/>
<feColorMatrix type="matrix" values="0 0 0 0 0 0 0 0 0 0 0 0 0 0 0 0 0 0 0.25 0"/>
<feBlend mode="normal" in2="BackgroundImageFix" result="effect1_dropShadow"/>
<feBlend mode="normal" in="SourceGraphic" in2="effect1_dropShadow" result="shape"/>
</filter>
<linearGradient id="paint0_linear" x1="160" y1="0" x2="160" y2="333" gradientUnits="userSpaceOnUse">
<stop stop-color="#007E58"/>
<stop offset="1" stop-color="#2F4D7A" stop-opacity="0.95"/>
</linearGradient>
</defs>
</svg>
