<svg width="332" height="346" viewBox="0 0 332 346" fill="none" xmlns="http://www.w3.org/2000/svg">
<g filter="url(#filter0_d_41:32)">
<rect width="320" height="333" fill="url(#paint0_linear_41:32)"/>
<path d="M40.6094 33.9844C40.6094 35.4036 40.2318 36.6667 39.4766 37.7734C38.7344 38.8802 37.7253 39.7461 36.4492 40.3711C37.9336 41.0091 39.1055 41.9401 39.9648 43.1641C40.8372 44.388 41.2734 45.7747 41.2734 47.3242C41.2734 49.7852 40.4401 51.7448 38.7734 53.2031C37.1198 54.6615 34.9388 55.3906 32.2305 55.3906C29.4961 55.3906 27.3021 54.6615 25.6484 53.2031C24.0078 51.7318 23.1875 49.7721 23.1875 47.3242C23.1875 45.7878 23.6042 44.401 24.4375 43.1641C25.2839 41.9271 26.4492 40.9896 27.9336 40.3516C26.6706 39.7266 25.6745 38.8607 24.9453 37.7539C24.2161 36.6471 23.8516 35.3906 23.8516 33.9844C23.8516 31.5885 24.6198 29.6875 26.1562 28.2812C27.6927 26.875 29.7174 26.1719 32.2305 26.1719C34.7305 26.1719 36.7487 26.875 38.2852 28.2812C39.8346 29.6875 40.6094 31.5885 40.6094 33.9844ZM37.6602 47.2461C37.6602 45.6576 37.1523 44.362 36.1367 43.3594C35.1341 42.3568 33.819 41.8555 32.1914 41.8555C30.5638 41.8555 29.2552 42.3503 28.2656 43.3398C27.2891 44.3294 26.8008 45.6315 26.8008 47.2461C26.8008 48.8607 27.276 50.1302 28.2266 51.0547C29.1901 51.9792 30.5247 52.4414 32.2305 52.4414C33.9232 52.4414 35.2513 51.9792 36.2148 51.0547C37.1784 50.1172 37.6602 48.8477 37.6602 47.2461ZM32.2305 29.1406C30.8112 29.1406 29.6589 29.5833 28.7734 30.4688C27.901 31.3411 27.4648 32.5326 27.4648 34.043C27.4648 35.4883 27.8945 36.6602 28.7539 37.5586C29.6263 38.444 30.7852 38.8867 32.2305 38.8867C33.6758 38.8867 34.8281 38.444 35.6875 37.5586C36.5599 36.6602 36.9961 35.4883 36.9961 34.043C36.9961 32.5977 36.5469 31.4193 35.6484 30.5078C34.75 29.5964 33.6107 29.1406 32.2305 29.1406ZM47.4844 40.7422L48.9297 26.5625H63.5V29.9023H51.9961L51.1367 37.6562C52.5299 36.8359 54.112 36.4258 55.8828 36.4258C58.474 36.4258 60.5312 37.2852 62.0547 39.0039C63.5781 40.7096 64.3398 43.0208 64.3398 45.9375C64.3398 48.8672 63.5456 51.1784 61.957 52.8711C60.3815 54.5508 58.1745 55.3906 55.3359 55.3906C52.8229 55.3906 50.7721 54.694 49.1836 53.3008C47.5951 51.9076 46.6901 49.9805 46.4688 47.5195H49.8867C50.1081 49.1471 50.6875 50.3776 51.625 51.2109C52.5625 52.0312 53.7995 52.4414 55.3359 52.4414C57.0156 52.4414 58.3307 51.8685 59.2812 50.7227C60.2448 49.5768 60.7266 47.9948 60.7266 45.9766C60.7266 44.0755 60.2057 42.5521 59.1641 41.4062C58.1354 40.2474 56.7617 39.668 55.043 39.668C53.4674 39.668 52.2305 40.013 51.332 40.7031L50.375 41.4844L47.4844 40.7422ZM68.7344 53.1055C68.7344 52.4805 68.9167 51.9596 69.2812 51.543C69.6589 51.1263 70.2188 50.918 70.9609 50.918C71.7031 50.918 72.263 51.1263 72.6406 51.543C73.0312 51.9596 73.2266 52.4805 73.2266 53.1055C73.2266 53.7044 73.0312 54.2057 72.6406 54.6094C72.263 55.013 71.7031 55.2148 70.9609 55.2148C70.2188 55.2148 69.6589 55.013 69.2812 54.6094C68.9167 54.2057 68.7344 53.7044 68.7344 53.1055Z" fill="white"/>
<path d="M158.02 179.891H98.4492L85.0703 217H65.7344L120.031 74.8125H136.438L190.832 217H171.594L158.02 179.891ZM104.113 164.461H152.453L128.234 97.957L104.113 164.461ZM229.895 85.75V111.336H249.621V125.301H229.895V190.828C229.895 195.06 230.773 198.25 232.531 200.398C234.289 202.482 237.284 203.523 241.516 203.523C243.599 203.523 246.464 203.133 250.109 202.352V217C245.357 218.302 240.734 218.953 236.242 218.953C228.169 218.953 222.082 216.512 217.98 211.629C213.879 206.746 211.828 199.812 211.828 190.828V125.301H192.59V111.336H211.828V85.75H229.895Z" fill="white"/>
<path d="M90.7549 263.723H75.8623L72.5176 273H67.6836L81.2578 237.453H85.3594L98.958 273H94.1484L90.7549 263.723ZM77.2783 259.865H89.3633L83.3086 243.239L77.2783 259.865ZM118.416 265.993C118.416 264.772 117.952 263.828 117.024 263.161C116.113 262.478 114.51 261.892 112.215 261.403C109.936 260.915 108.121 260.329 106.771 259.646C105.436 258.962 104.443 258.148 103.792 257.204C103.157 256.26 102.84 255.137 102.84 253.835C102.84 251.67 103.751 249.839 105.574 248.342C107.413 246.844 109.757 246.096 112.605 246.096C115.6 246.096 118.025 246.869 119.881 248.415C121.753 249.961 122.688 251.939 122.688 254.348H118.147C118.147 253.111 117.618 252.045 116.561 251.149C115.519 250.254 114.201 249.807 112.605 249.807C110.962 249.807 109.676 250.165 108.748 250.881C107.82 251.597 107.356 252.533 107.356 253.688C107.356 254.779 107.788 255.601 108.65 256.154C109.513 256.708 111.067 257.237 113.313 257.741C115.576 258.246 117.407 258.848 118.807 259.548C120.206 260.248 121.24 261.094 121.907 262.087C122.591 263.063 122.933 264.26 122.933 265.676C122.933 268.036 121.989 269.932 120.101 271.364C118.213 272.78 115.763 273.488 112.752 273.488C110.636 273.488 108.764 273.114 107.137 272.365C105.509 271.617 104.231 270.575 103.304 269.24C102.392 267.889 101.937 266.433 101.937 264.87H106.453C106.535 266.384 107.137 267.588 108.26 268.483C109.399 269.362 110.896 269.802 112.752 269.802C114.461 269.802 115.828 269.46 116.854 268.776C117.895 268.076 118.416 267.149 118.416 265.993ZM134.944 240.188V246.584H139.876V250.075H134.944V266.457C134.944 267.515 135.164 268.312 135.604 268.85C136.043 269.37 136.792 269.631 137.85 269.631C138.37 269.631 139.087 269.533 139.998 269.338V273C138.81 273.326 137.654 273.488 136.531 273.488C134.513 273.488 132.991 272.878 131.966 271.657C130.94 270.437 130.428 268.703 130.428 266.457V250.075H125.618V246.584H130.428V240.188H134.944ZM161.482 273C161.222 272.479 161.01 271.551 160.848 270.217C158.748 272.398 156.242 273.488 153.328 273.488C150.724 273.488 148.584 272.756 146.907 271.291C145.247 269.81 144.417 267.938 144.417 265.676C144.417 262.925 145.459 260.793 147.542 259.279C149.642 257.749 152.588 256.984 156.38 256.984H160.774V254.909C160.774 253.33 160.302 252.077 159.358 251.149C158.414 250.205 157.023 249.733 155.184 249.733C153.572 249.733 152.221 250.14 151.131 250.954C150.04 251.768 149.495 252.753 149.495 253.908H144.954C144.954 252.59 145.418 251.32 146.346 250.1C147.29 248.863 148.559 247.886 150.154 247.17C151.766 246.454 153.532 246.096 155.452 246.096C158.496 246.096 160.88 246.861 162.605 248.391C164.331 249.904 165.226 251.996 165.291 254.665V266.823C165.291 269.248 165.6 271.177 166.219 272.609V273H161.482ZM153.987 269.558C155.403 269.558 156.746 269.191 158.016 268.459C159.285 267.727 160.205 266.774 160.774 265.603V260.183H157.234C151.701 260.183 148.934 261.802 148.934 265.041C148.934 266.457 149.406 267.564 150.35 268.361C151.294 269.159 152.506 269.558 153.987 269.558ZM178.499 240.188V246.584H183.431V250.075H178.499V266.457C178.499 267.515 178.719 268.312 179.158 268.85C179.598 269.37 180.346 269.631 181.404 269.631C181.925 269.631 182.641 269.533 183.553 269.338V273C182.365 273.326 181.209 273.488 180.086 273.488C178.068 273.488 176.546 272.878 175.521 271.657C174.495 270.437 173.982 268.703 173.982 266.457V250.075H169.173V246.584H173.982V240.188H178.499ZM193.636 273H189.119V246.584H193.636V273ZM188.753 239.577C188.753 238.845 188.973 238.226 189.412 237.722C189.868 237.217 190.535 236.965 191.414 236.965C192.293 236.965 192.96 237.217 193.416 237.722C193.872 238.226 194.1 238.845 194.1 239.577C194.1 240.31 193.872 240.92 193.416 241.408C192.96 241.896 192.293 242.141 191.414 242.141C190.535 242.141 189.868 241.896 189.412 241.408C188.973 240.92 188.753 240.31 188.753 239.577ZM205.159 246.584L205.306 249.904C207.324 247.365 209.961 246.096 213.216 246.096C218.799 246.096 221.614 249.245 221.663 255.544V273H217.146V255.52C217.13 253.615 216.691 252.207 215.828 251.296C214.982 250.384 213.655 249.929 211.849 249.929C210.384 249.929 209.098 250.319 207.991 251.101C206.884 251.882 206.022 252.907 205.403 254.177V273H200.887V246.584H205.159ZM239.437 273.488C235.856 273.488 232.942 272.316 230.696 269.973C228.45 267.613 227.327 264.463 227.327 260.524V259.694C227.327 257.074 227.824 254.738 228.816 252.688C229.826 250.62 231.225 249.009 233.016 247.854C234.822 246.682 236.775 246.096 238.875 246.096C242.309 246.096 244.979 247.227 246.883 249.489C248.787 251.752 249.739 254.991 249.739 259.206V261.086H231.844C231.909 263.69 232.666 265.798 234.114 267.409C235.579 269.004 237.435 269.802 239.681 269.802C241.276 269.802 242.627 269.476 243.733 268.825C244.84 268.174 245.809 267.312 246.639 266.237L249.397 268.386C247.184 271.787 243.864 273.488 239.437 273.488ZM238.875 249.807C237.052 249.807 235.522 250.474 234.285 251.809C233.048 253.127 232.283 254.982 231.99 257.375H245.223V257.033C245.092 254.738 244.474 252.964 243.367 251.711C242.26 250.441 240.763 249.807 238.875 249.807Z" fill="white"/>
<path d="M149.747 313H135.772V311.052L143.155 302.849C144.249 301.608 145.001 300.603 145.411 299.831C145.831 299.05 146.041 298.244 146.041 297.414C146.041 296.301 145.704 295.388 145.03 294.675C144.356 293.962 143.458 293.605 142.335 293.605C140.987 293.605 139.938 293.991 139.186 294.763C138.443 295.524 138.072 296.589 138.072 297.956H135.362C135.362 295.993 135.992 294.406 137.252 293.195C138.521 291.984 140.216 291.379 142.335 291.379C144.317 291.379 145.885 291.901 147.037 292.946C148.189 293.981 148.766 295.363 148.766 297.092C148.766 299.191 147.428 301.691 144.752 304.592L139.039 310.788H149.747V313ZM161.524 313H158.8V294.938L153.336 296.945V294.484L161.1 291.569H161.524V313ZM182.838 303.903C182.838 307.077 182.296 309.436 181.212 310.979C180.128 312.521 178.434 313.293 176.129 313.293C173.854 313.293 172.169 312.541 171.075 311.037C169.981 309.523 169.415 307.268 169.376 304.27V300.651C169.376 297.517 169.918 295.188 171.002 293.664C172.086 292.141 173.785 291.379 176.1 291.379C178.395 291.379 180.084 292.116 181.168 293.591C182.252 295.056 182.809 297.321 182.838 300.388V303.903ZM180.128 300.197C180.128 297.902 179.806 296.232 179.161 295.188C178.517 294.133 177.496 293.605 176.1 293.605C174.713 293.605 173.702 294.128 173.067 295.173C172.433 296.218 172.105 297.824 172.086 299.992V304.328C172.086 306.633 172.418 308.337 173.082 309.44C173.756 310.534 174.771 311.081 176.129 311.081C177.467 311.081 178.458 310.563 179.103 309.528C179.757 308.493 180.099 306.862 180.128 304.636V300.197Z" fill="white"/>
</g>
<defs>
<filter id="filter0_d_41:32" x="0" y="0" width="332" height="346" filterUnits="userSpaceOnUse" color-interpolation-filters="sRGB">
<feFlood flood-opacity="0" result="BackgroundImageFix"/>
<feColorMatrix in="SourceAlpha" type="matrix" values="0 0 0 0 0 0 0 0 0 0 0 0 0 0 0 0 0 0 127 0" result="hardAlpha"/>
<feOffset dx="8" dy="9"/>
<feGaussianBlur stdDeviation="2"/>
<feComposite in2="hardAlpha" operator="out"/>
<feColorMatrix type="matrix" values="0 0 0 0 0 0 0 0 0 0 0 0 0 0 0 0 0 0 0.25 0"/>
<feBlend mode="normal" in2="BackgroundImageFix" result="effect1_dropShadow_41:32"/>
<feBlend mode="normal" in="SourceGraphic" in2="effect1_dropShadow_41:32" result="shape"/>
</filter>
<linearGradient id="paint0_linear_41:32" x1="160" y1="0" x2="160" y2="333" gradientUnits="userSpaceOnUse">
<stop stop-color="#007E58"/>
<stop offset="1" stop-color="#2F4D7A" stop-opacity="0.95"/>
</linearGradient>
</defs>
</svg>
