<svg width="332" height="346" viewBox="0 0 332 346" fill="none" xmlns="http://www.w3.org/2000/svg">
<g filter="url(#filter0_d_26:38)">
<rect width="320" height="333" fill="url(#paint0_linear_26:38)"/>
<path d="M25.0234 40.7422L26.4688 26.5625H41.0391V29.9023H29.5352L28.6758 37.6562C30.069 36.8359 31.651 36.4258 33.4219 36.4258C36.013 36.4258 38.0703 37.2852 39.5938 39.0039C41.1172 40.7096 41.8789 43.0208 41.8789 45.9375C41.8789 48.8672 41.0846 51.1784 39.4961 52.8711C37.9206 54.5508 35.7135 55.3906 32.875 55.3906C30.362 55.3906 28.3112 54.694 26.7227 53.3008C25.1341 51.9076 24.2292 49.9805 24.0078 47.5195H27.4258C27.6471 49.1471 28.2266 50.3776 29.1641 51.2109C30.1016 52.0312 31.3385 52.4414 32.875 52.4414C34.5547 52.4414 35.8698 51.8685 36.8203 50.7227C37.7839 49.5768 38.2656 47.9948 38.2656 45.9766C38.2656 44.0755 37.7448 42.5521 36.7031 41.4062C35.6745 40.2474 34.3008 39.668 32.582 39.668C31.0065 39.668 29.7695 40.013 28.8711 40.7031L27.9141 41.4844L25.0234 40.7422ZM60.0039 26.543V29.6094H59.3398C56.5273 29.6615 54.2878 30.4948 52.6211 32.1094C50.9544 33.724 49.9909 35.9961 49.7305 38.9258C51.2279 37.207 53.2721 36.3477 55.8633 36.3477C58.3372 36.3477 60.3099 37.2201 61.7812 38.9648C63.2656 40.7096 64.0078 42.9622 64.0078 45.7227C64.0078 48.6523 63.207 50.9961 61.6055 52.7539C60.0169 54.5117 57.8815 55.3906 55.1992 55.3906C52.4779 55.3906 50.2708 54.349 48.5781 52.2656C46.8854 50.1693 46.0391 47.474 46.0391 44.1797V42.793C46.0391 37.5586 47.1523 33.5612 49.3789 30.8008C51.6185 28.0273 54.9453 26.6081 59.3594 26.543H60.0039ZM55.2578 39.3555C54.0208 39.3555 52.8815 39.7266 51.8398 40.4688C50.7982 41.2109 50.0755 42.1419 49.6719 43.2617V44.5898C49.6719 46.9336 50.1992 48.8216 51.2539 50.2539C52.3086 51.6862 53.6237 52.4023 55.1992 52.4023C56.8268 52.4023 58.1029 51.8034 59.0273 50.6055C59.9648 49.4076 60.4336 47.8385 60.4336 45.8984C60.4336 43.9453 59.9583 42.3698 59.0078 41.1719C58.0703 39.9609 56.8203 39.3555 55.2578 39.3555ZM68.7344 53.1055C68.7344 52.4805 68.9167 51.9596 69.2812 51.543C69.6589 51.1263 70.2188 50.918 70.9609 50.918C71.7031 50.918 72.263 51.1263 72.6406 51.543C73.0312 51.9596 73.2266 52.4805 73.2266 53.1055C73.2266 53.7044 73.0312 54.2057 72.6406 54.6094C72.263 55.013 71.7031 55.2148 70.9609 55.2148C70.2188 55.2148 69.6589 55.013 69.2812 54.6094C68.9167 54.2057 68.7344 53.7044 68.7344 53.1055Z" fill="white"/>
<path d="M59.5039 217V74.8125H105.988C121.418 74.8125 133.007 78.0026 140.754 84.3828C148.566 90.763 152.473 100.203 152.473 112.703C152.473 119.344 150.585 125.236 146.809 130.379C143.033 135.457 137.889 139.396 131.379 142.195C139.061 144.344 145.116 148.445 149.543 154.5C154.035 160.49 156.281 167.651 156.281 175.984C156.281 188.745 152.147 198.771 143.879 206.062C135.611 213.354 123.924 217 108.82 217H59.5039ZM78.2539 150.496V201.668H109.211C117.935 201.668 124.803 199.422 129.816 194.93C134.895 190.372 137.434 184.122 137.434 176.18C137.434 159.057 128.124 150.496 109.504 150.496H78.2539ZM78.2539 135.457H106.574C114.777 135.457 121.32 133.406 126.203 129.305C131.151 125.203 133.625 119.637 133.625 112.605C133.625 104.793 131.346 99.1289 126.789 95.6133C122.232 92.0326 115.298 90.2422 105.988 90.2422H78.2539V135.457ZM246.516 217C245.474 214.917 244.628 211.206 243.977 205.867C235.578 214.591 225.552 218.953 213.898 218.953C203.482 218.953 194.921 216.023 188.215 210.164C181.574 204.24 178.254 196.753 178.254 187.703C178.254 176.701 182.421 168.172 190.754 162.117C199.152 155.997 210.936 152.938 226.105 152.938H243.684V144.637C243.684 138.322 241.796 133.309 238.02 129.598C234.243 125.822 228.677 123.934 221.32 123.934C214.875 123.934 209.471 125.561 205.109 128.816C200.747 132.072 198.566 136.01 198.566 140.633H180.402C180.402 135.359 182.258 130.281 185.969 125.398C189.745 120.451 194.823 116.544 201.203 113.68C207.648 110.815 214.712 109.383 222.395 109.383C234.569 109.383 244.107 112.443 251.008 118.562C257.909 124.617 261.49 132.983 261.75 143.66V192.293C261.75 201.993 262.987 209.708 265.461 215.438V217H246.516ZM216.535 203.23C222.199 203.23 227.57 201.766 232.648 198.836C237.727 195.906 241.405 192.098 243.684 187.41V165.73H229.523C207.388 165.73 196.32 172.208 196.32 185.164C196.32 190.828 198.208 195.255 201.984 198.445C205.76 201.635 210.611 203.23 216.535 203.23Z" fill="white"/>
<path d="M85.126 273V237.453H96.7471C100.604 237.453 103.502 238.251 105.438 239.846C107.392 241.441 108.368 243.801 108.368 246.926C108.368 248.586 107.896 250.059 106.952 251.345C106.008 252.614 104.722 253.599 103.095 254.299C105.015 254.836 106.529 255.861 107.636 257.375C108.759 258.872 109.32 260.663 109.32 262.746C109.32 265.936 108.287 268.443 106.22 270.266C104.153 272.089 101.231 273 97.4551 273H85.126ZM89.8135 256.374V269.167H97.5527C99.7337 269.167 101.451 268.605 102.704 267.482C103.974 266.343 104.608 264.781 104.608 262.795C104.608 258.514 102.281 256.374 97.626 256.374H89.8135ZM89.8135 252.614H96.8936C98.9443 252.614 100.58 252.102 101.801 251.076C103.038 250.051 103.656 248.659 103.656 246.901C103.656 244.948 103.087 243.532 101.947 242.653C100.808 241.758 99.0745 241.311 96.7471 241.311H89.8135V252.614ZM131.879 273C131.618 272.479 131.407 271.551 131.244 270.217C129.145 272.398 126.638 273.488 123.725 273.488C121.12 273.488 118.98 272.756 117.304 271.291C115.644 269.81 114.813 267.938 114.813 265.676C114.813 262.925 115.855 260.793 117.938 259.279C120.038 257.749 122.984 256.984 126.776 256.984H131.171V254.909C131.171 253.33 130.699 252.077 129.755 251.149C128.811 250.205 127.419 249.733 125.58 249.733C123.969 249.733 122.618 250.14 121.527 250.954C120.437 251.768 119.892 252.753 119.892 253.908H115.351C115.351 252.59 115.814 251.32 116.742 250.1C117.686 248.863 118.956 247.886 120.551 247.17C122.162 246.454 123.928 246.096 125.849 246.096C128.892 246.096 131.277 246.861 133.002 248.391C134.727 249.904 135.622 251.996 135.688 254.665V266.823C135.688 269.248 135.997 271.177 136.615 272.609V273H131.879ZM124.384 269.558C125.8 269.558 127.143 269.191 128.412 268.459C129.682 267.727 130.601 266.774 131.171 265.603V260.183H127.631C122.097 260.183 119.33 261.802 119.33 265.041C119.33 266.457 119.802 267.564 120.746 268.361C121.69 269.159 122.903 269.558 124.384 269.558ZM155.536 250.637C154.853 250.523 154.112 250.466 153.314 250.466C150.352 250.466 148.342 251.727 147.284 254.25V273H142.768V246.584H147.162L147.235 249.636C148.716 247.276 150.816 246.096 153.534 246.096C154.413 246.096 155.08 246.21 155.536 246.438V250.637ZM164.618 273H160.102V246.584H164.618V273ZM159.735 239.577C159.735 238.845 159.955 238.226 160.395 237.722C160.85 237.217 161.518 236.965 162.396 236.965C163.275 236.965 163.943 237.217 164.398 237.722C164.854 238.226 165.082 238.845 165.082 239.577C165.082 240.31 164.854 240.92 164.398 241.408C163.943 241.896 163.275 242.141 162.396 242.141C161.518 242.141 160.85 241.896 160.395 241.408C159.955 240.92 159.735 240.31 159.735 239.577ZM188.178 270.388C186.42 272.455 183.84 273.488 180.438 273.488C177.623 273.488 175.474 272.674 173.993 271.047C172.528 269.403 171.788 266.978 171.771 263.771V246.584H176.288V263.649C176.288 267.653 177.916 269.655 181.171 269.655C184.621 269.655 186.916 268.369 188.056 265.798V246.584H192.572V273H188.275L188.178 270.388ZM203.705 246.584L203.827 249.514C205.764 247.235 208.376 246.096 211.664 246.096C215.359 246.096 217.873 247.512 219.208 250.344C220.087 249.074 221.226 248.049 222.626 247.268C224.042 246.486 225.71 246.096 227.631 246.096C233.425 246.096 236.371 249.164 236.469 255.3V273H231.952V255.568C231.952 253.68 231.521 252.272 230.658 251.345C229.796 250.401 228.347 249.929 226.312 249.929C224.636 249.929 223.244 250.433 222.138 251.442C221.031 252.435 220.388 253.778 220.209 255.471V273H215.668V255.69C215.668 251.849 213.788 249.929 210.028 249.929C207.066 249.929 205.04 251.19 203.949 253.713V273H199.433V246.584H203.705Z" fill="white"/>
<path d="M123.679 313H120.954V294.938L115.49 296.945V294.484L123.254 291.569H123.679V313ZM135.559 301.018H137.595C138.874 300.998 139.88 300.661 140.612 300.007C141.345 299.353 141.711 298.469 141.711 297.355C141.711 294.855 140.466 293.605 137.976 293.605C136.804 293.605 135.866 293.942 135.163 294.616C134.47 295.28 134.123 296.164 134.123 297.268H131.413C131.413 295.578 132.028 294.177 133.259 293.063C134.499 291.94 136.071 291.379 137.976 291.379C139.987 291.379 141.564 291.911 142.707 292.976C143.85 294.04 144.421 295.52 144.421 297.414C144.421 298.342 144.118 299.24 143.513 300.109C142.917 300.979 142.102 301.628 141.066 302.058C142.238 302.429 143.142 303.044 143.776 303.903C144.421 304.763 144.743 305.812 144.743 307.053C144.743 308.967 144.118 310.485 142.868 311.608C141.618 312.731 139.992 313.293 137.99 313.293C135.988 313.293 134.357 312.751 133.098 311.667C131.848 310.583 131.223 309.152 131.223 307.375H133.947C133.947 308.498 134.313 309.396 135.046 310.07C135.778 310.744 136.76 311.081 137.99 311.081C139.299 311.081 140.3 310.739 140.993 310.056C141.687 309.372 142.033 308.391 142.033 307.111C142.033 305.871 141.652 304.919 140.891 304.255C140.129 303.591 139.03 303.249 137.595 303.229H135.559V301.018ZM162.233 293.195L153.4 313H150.559L159.362 293.898H147.819V291.672H162.233V293.195ZM165.646 311.579C165.646 311.11 165.783 310.72 166.057 310.407C166.34 310.095 166.76 309.938 167.316 309.938C167.873 309.938 168.293 310.095 168.576 310.407C168.869 310.72 169.016 311.11 169.016 311.579C169.016 312.028 168.869 312.404 168.576 312.707C168.293 313.01 167.873 313.161 167.316 313.161C166.76 313.161 166.34 313.01 166.057 312.707C165.783 312.404 165.646 312.028 165.646 311.579ZM177.16 301.018H179.196C180.476 300.998 181.481 300.661 182.214 300.007C182.946 299.353 183.312 298.469 183.312 297.355C183.312 294.855 182.067 293.605 179.577 293.605C178.405 293.605 177.468 293.942 176.765 294.616C176.071 295.28 175.725 296.164 175.725 297.268H173.015C173.015 295.578 173.63 294.177 174.86 293.063C176.101 291.94 177.673 291.379 179.577 291.379C181.589 291.379 183.166 291.911 184.309 292.976C185.451 294.04 186.022 295.52 186.022 297.414C186.022 298.342 185.72 299.24 185.114 300.109C184.519 300.979 183.703 301.628 182.668 302.058C183.84 302.429 184.743 303.044 185.378 303.903C186.022 304.763 186.345 305.812 186.345 307.053C186.345 308.967 185.72 310.485 184.47 311.608C183.22 312.731 181.594 313.293 179.592 313.293C177.59 313.293 175.959 312.751 174.699 311.667C173.449 310.583 172.824 309.152 172.824 307.375H175.549C175.549 308.498 175.915 309.396 176.647 310.07C177.38 310.744 178.361 311.081 179.592 311.081C180.9 311.081 181.901 310.739 182.595 310.056C183.288 309.372 183.635 308.391 183.635 307.111C183.635 305.871 183.254 304.919 182.492 304.255C181.73 303.591 180.632 303.249 179.196 303.229H177.16V301.018ZM194.006 301.018H196.042C197.321 300.998 198.327 300.661 199.06 300.007C199.792 299.353 200.158 298.469 200.158 297.355C200.158 294.855 198.913 293.605 196.423 293.605C195.251 293.605 194.313 293.942 193.61 294.616C192.917 295.28 192.57 296.164 192.57 297.268H189.86C189.86 295.578 190.476 294.177 191.706 293.063C192.946 291.94 194.519 291.379 196.423 291.379C198.435 291.379 200.012 291.911 201.154 292.976C202.297 294.04 202.868 295.52 202.868 297.414C202.868 298.342 202.565 299.24 201.96 300.109C201.364 300.979 200.549 301.628 199.514 302.058C200.686 302.429 201.589 303.044 202.224 303.903C202.868 304.763 203.19 305.812 203.19 307.053C203.19 308.967 202.565 310.485 201.315 311.608C200.065 312.731 198.439 313.293 196.438 313.293C194.436 313.293 192.805 312.751 191.545 311.667C190.295 310.583 189.67 309.152 189.67 307.375H192.395C192.395 308.498 192.761 309.396 193.493 310.07C194.226 310.744 195.207 311.081 196.438 311.081C197.746 311.081 198.747 310.739 199.44 310.056C200.134 309.372 200.48 308.391 200.48 307.111C200.48 305.871 200.1 304.919 199.338 304.255C198.576 303.591 197.478 303.249 196.042 303.229H194.006V301.018Z" fill="white"/>
</g>
<defs>
<filter id="filter0_d_26:38" x="0" y="0" width="332" height="346" filterUnits="userSpaceOnUse" color-interpolation-filters="sRGB">
<feFlood flood-opacity="0" result="BackgroundImageFix"/>
<feColorMatrix in="SourceAlpha" type="matrix" values="0 0 0 0 0 0 0 0 0 0 0 0 0 0 0 0 0 0 127 0" result="hardAlpha"/>
<feOffset dx="8" dy="9"/>
<feGaussianBlur stdDeviation="2"/>
<feComposite in2="hardAlpha" operator="out"/>
<feColorMatrix type="matrix" values="0 0 0 0 0 0 0 0 0 0 0 0 0 0 0 0 0 0 0.25 0"/>
<feBlend mode="normal" in2="BackgroundImageFix" result="effect1_dropShadow_26:38"/>
<feBlend mode="normal" in="SourceGraphic" in2="effect1_dropShadow_26:38" result="shape"/>
</filter>
<linearGradient id="paint0_linear_26:38" x1="160" y1="0" x2="160" y2="333" gradientUnits="userSpaceOnUse">
<stop stop-color="#007E58"/>
<stop offset="1" stop-color="#2F4D7A" stop-opacity="0.95"/>
</linearGradient>
</defs>
</svg>
