<svg width="332" height="346" viewBox="0 0 332 346" fill="none" xmlns="http://www.w3.org/2000/svg">
<g filter="url(#filter0_d)">
<rect width="320" height="333" fill="url(#paint0_linear)"/>
<path d="M61.5039 217V74.8125H107.988C123.418 74.8125 135.007 78.0026 142.754 84.3828C150.566 90.763 154.473 100.203 154.473 112.703C154.473 119.344 152.585 125.236 148.809 130.379C145.033 135.457 139.889 139.396 133.379 142.195C141.061 144.344 147.116 148.445 151.543 154.5C156.035 160.49 158.281 167.651 158.281 175.984C158.281 188.745 154.147 198.771 145.879 206.062C137.611 213.354 125.924 217 110.82 217H61.5039ZM80.2539 150.496V201.668H111.211C119.935 201.668 126.803 199.422 131.816 194.93C136.895 190.372 139.434 184.122 139.434 176.18C139.434 159.057 130.124 150.496 111.504 150.496H80.2539ZM80.2539 135.457H108.574C116.777 135.457 123.32 133.406 128.203 129.305C133.151 125.203 135.625 119.637 135.625 112.605C135.625 104.793 133.346 99.1289 128.789 95.6133C124.232 92.0326 117.298 90.2422 107.988 90.2422H80.2539V135.457ZM227.129 218.953C212.806 218.953 201.152 214.266 192.168 204.891C183.184 195.451 178.691 182.853 178.691 167.098V163.777C178.691 153.296 180.677 143.953 184.648 135.75C188.685 127.482 194.284 121.036 201.445 116.414C208.672 111.727 216.484 109.383 224.883 109.383C238.62 109.383 249.297 113.908 256.914 122.957C264.531 132.007 268.34 144.962 268.34 161.824V169.344H196.758C197.018 179.76 200.046 188.191 205.84 194.637C211.699 201.017 219.121 204.207 228.105 204.207C234.486 204.207 239.889 202.905 244.316 200.301C248.743 197.697 252.617 194.246 255.938 189.949L266.973 198.543C258.118 212.15 244.837 218.953 227.129 218.953ZM224.883 124.227C217.591 124.227 211.471 126.896 206.523 132.234C201.576 137.508 198.516 144.93 197.344 154.5H250.273V153.133C249.753 143.953 247.279 136.857 242.852 131.844C238.424 126.766 232.435 124.227 224.883 124.227Z" fill="white"/>
<path d="M38.6177 45.4492H42.563V48.3984H38.6177V55H34.9849V48.3984H22.0356V46.2695L34.77 26.5625H38.6177V45.4492ZM26.1372 45.4492H34.9849V31.5039L34.5552 32.2852L26.1372 45.4492ZM46.2739 53.1055C46.2739 52.4805 46.4562 51.9596 46.8208 51.543C47.1984 51.1263 47.7583 50.918 48.5005 50.918C49.2427 50.918 49.8026 51.1263 50.1802 51.543C50.5708 51.9596 50.7661 52.4805 50.7661 53.1055C50.7661 53.7044 50.5708 54.2057 50.1802 54.6094C49.8026 55.013 49.2427 55.2148 48.5005 55.2148C47.7583 55.2148 47.1984 55.013 46.8208 54.6094C46.4562 54.2057 46.2739 53.7044 46.2739 53.1055Z" fill="white"/>
<path d="M61.126 273V237.453H72.7471C76.6045 237.453 79.5016 238.251 81.4385 239.846C83.3916 241.441 84.3682 243.801 84.3682 246.926C84.3682 248.586 83.8962 250.059 82.9521 251.345C82.0081 252.614 80.7223 253.599 79.0947 254.299C81.0153 254.836 82.529 255.861 83.6357 257.375C84.7588 258.872 85.3203 260.663 85.3203 262.746C85.3203 265.936 84.2868 268.443 82.2197 270.266C80.1527 272.089 77.2311 273 73.4551 273H61.126ZM65.8135 256.374V269.167H73.5527C75.7337 269.167 77.4508 268.605 78.7041 267.482C79.9736 266.343 80.6084 264.781 80.6084 262.795C80.6084 258.514 78.2809 256.374 73.626 256.374H65.8135ZM65.8135 252.614H72.8936C74.9443 252.614 76.5801 252.102 77.8008 251.076C79.0378 250.051 79.6562 248.659 79.6562 246.901C79.6562 244.948 79.0866 243.532 77.9473 242.653C76.8079 241.758 75.0745 241.311 72.7471 241.311H65.8135V252.614ZM102.532 273.488C98.9515 273.488 96.0381 272.316 93.792 269.973C91.5459 267.613 90.4229 264.463 90.4229 260.524V259.694C90.4229 257.074 90.9193 254.738 91.9121 252.688C92.9212 250.62 94.321 249.009 96.1113 247.854C97.918 246.682 99.8711 246.096 101.971 246.096C105.405 246.096 108.074 247.227 109.979 249.489C111.883 251.752 112.835 254.991 112.835 259.206V261.086H94.9395C95.0046 263.69 95.7614 265.798 97.21 267.409C98.6748 269.004 100.53 269.802 102.776 269.802C104.371 269.802 105.722 269.476 106.829 268.825C107.936 268.174 108.904 267.312 109.734 266.237L112.493 268.386C110.28 271.787 106.959 273.488 102.532 273.488ZM101.971 249.807C100.148 249.807 98.6178 250.474 97.3809 251.809C96.1439 253.127 95.3789 254.982 95.0859 257.375H108.318V257.033C108.188 254.738 107.57 252.964 106.463 251.711C105.356 250.441 103.859 249.807 101.971 249.807ZM130.853 250.637C130.169 250.523 129.428 250.466 128.631 250.466C125.669 250.466 123.659 251.727 122.601 254.25V273H118.084V246.584H122.479L122.552 249.636C124.033 247.276 126.132 246.096 128.851 246.096C129.729 246.096 130.397 246.21 130.853 246.438V250.637ZM144.109 266.384L150.262 246.584H155.096L144.476 277.077C142.832 281.472 140.219 283.669 136.639 283.669L135.784 283.596L134.1 283.278V279.616L135.32 279.714C136.85 279.714 138.038 279.405 138.885 278.786C139.747 278.168 140.455 277.036 141.009 275.393L142.01 272.707L132.586 246.584H137.518L144.109 266.384ZM164.056 273H159.539V235.5H164.056V273ZM176.214 273H171.697V235.5H176.214V273ZM188.372 273H183.855V246.584H188.372V273ZM183.489 239.577C183.489 238.845 183.709 238.226 184.148 237.722C184.604 237.217 185.271 236.965 186.15 236.965C187.029 236.965 187.697 237.217 188.152 237.722C188.608 238.226 188.836 238.845 188.836 239.577C188.836 240.31 188.608 240.92 188.152 241.408C187.697 241.896 187.029 242.141 186.15 242.141C185.271 242.141 184.604 241.896 184.148 241.408C183.709 240.92 183.489 240.31 183.489 239.577ZM211.932 270.388C210.174 272.455 207.594 273.488 204.192 273.488C201.377 273.488 199.228 272.674 197.747 271.047C196.282 269.403 195.542 266.978 195.525 263.771V246.584H200.042V263.649C200.042 267.653 201.67 269.655 204.925 269.655C208.375 269.655 210.67 268.369 211.81 265.798V246.584H216.326V273H212.029L211.932 270.388ZM227.459 246.584L227.581 249.514C229.518 247.235 232.13 246.096 235.418 246.096C239.113 246.096 241.627 247.512 242.962 250.344C243.841 249.074 244.98 248.049 246.38 247.268C247.796 246.486 249.464 246.096 251.385 246.096C257.179 246.096 260.125 249.164 260.223 255.3V273H255.706V255.568C255.706 253.68 255.275 252.272 254.412 251.345C253.549 250.401 252.101 249.929 250.066 249.929C248.39 249.929 246.998 250.433 245.892 251.442C244.785 252.435 244.142 253.778 243.963 255.471V273H239.422V255.69C239.422 251.849 237.542 249.929 233.782 249.929C230.82 249.929 228.794 251.19 227.703 253.713V273H223.187V246.584H227.459Z" fill="white"/>
<path d="M134.158 303.625C133.592 304.299 132.913 304.841 132.122 305.251C131.341 305.661 130.481 305.866 129.544 305.866C128.313 305.866 127.239 305.563 126.321 304.958C125.413 304.353 124.71 303.503 124.212 302.409C123.714 301.306 123.465 300.09 123.465 298.762C123.465 297.336 123.733 296.052 124.271 294.909C124.817 293.767 125.589 292.893 126.585 292.287C127.581 291.682 128.743 291.379 130.071 291.379C132.181 291.379 133.841 292.17 135.052 293.752C136.272 295.324 136.883 297.473 136.883 300.197V300.988C136.883 305.139 136.062 308.171 134.422 310.085C132.781 311.989 130.306 312.966 126.995 313.015H126.468V310.729H127.039C129.275 310.69 130.994 310.109 132.195 308.986C133.396 307.854 134.051 306.066 134.158 303.625ZM129.983 303.625C130.892 303.625 131.727 303.347 132.488 302.79C133.26 302.233 133.821 301.545 134.173 300.725V299.641C134.173 297.863 133.787 296.418 133.016 295.305C132.244 294.191 131.268 293.635 130.086 293.635C128.895 293.635 127.938 294.094 127.215 295.012C126.492 295.92 126.131 297.121 126.131 298.615C126.131 300.07 126.478 301.271 127.171 302.219C127.874 303.156 128.812 303.625 129.983 303.625ZM140.955 311.579C140.955 311.11 141.092 310.72 141.365 310.407C141.648 310.095 142.068 309.938 142.625 309.938C143.182 309.938 143.602 310.095 143.885 310.407C144.178 310.72 144.324 311.11 144.324 311.579C144.324 312.028 144.178 312.404 143.885 312.707C143.602 313.01 143.182 313.161 142.625 313.161C142.068 313.161 141.648 313.01 141.365 312.707C141.092 312.404 140.955 312.028 140.955 311.579ZM161.902 303.903C161.902 307.077 161.36 309.436 160.276 310.979C159.192 312.521 157.498 313.293 155.193 313.293C152.918 313.293 151.233 312.541 150.14 311.037C149.046 309.523 148.479 307.268 148.44 304.27V300.651C148.44 297.517 148.982 295.188 150.066 293.664C151.15 292.141 152.85 291.379 155.164 291.379C157.459 291.379 159.148 292.116 160.232 293.591C161.316 295.056 161.873 297.321 161.902 300.388V303.903ZM159.192 300.197C159.192 297.902 158.87 296.232 158.226 295.188C157.581 294.133 156.561 293.605 155.164 293.605C153.777 293.605 152.767 294.128 152.132 295.173C151.497 296.218 151.17 297.824 151.15 299.992V304.328C151.15 306.633 151.482 308.337 152.146 309.44C152.82 310.534 153.836 311.081 155.193 311.081C156.531 311.081 157.522 310.563 158.167 309.528C158.821 308.493 159.163 306.862 159.192 304.636V300.197ZM174.28 313H171.556V294.938L166.092 296.945V294.484L173.855 291.569H174.28V313ZM196.194 313H182.22V311.052L189.603 302.849C190.696 301.608 191.448 300.603 191.858 299.831C192.278 299.05 192.488 298.244 192.488 297.414C192.488 296.301 192.151 295.388 191.478 294.675C190.804 293.962 189.905 293.605 188.782 293.605C187.435 293.605 186.385 293.991 185.633 294.763C184.891 295.524 184.52 296.589 184.52 297.956H181.81C181.81 295.993 182.439 294.406 183.699 293.195C184.969 291.984 186.663 291.379 188.782 291.379C190.765 291.379 192.332 291.901 193.484 292.946C194.637 293.981 195.213 295.363 195.213 297.092C195.213 299.191 193.875 301.691 191.199 304.592L185.486 310.788H196.194V313Z" fill="white"/>
</g>
<defs>
<filter id="filter0_d" x="0" y="0" width="332" height="346" filterUnits="userSpaceOnUse" color-interpolation-filters="sRGB">
<feFlood flood-opacity="0" result="BackgroundImageFix"/>
<feColorMatrix in="SourceAlpha" type="matrix" values="0 0 0 0 0 0 0 0 0 0 0 0 0 0 0 0 0 0 127 0" result="hardAlpha"/>
<feOffset dx="8" dy="9"/>
<feGaussianBlur stdDeviation="2"/>
<feComposite in2="hardAlpha" operator="out"/>
<feColorMatrix type="matrix" values="0 0 0 0 0 0 0 0 0 0 0 0 0 0 0 0 0 0 0.25 0"/>
<feBlend mode="normal" in2="BackgroundImageFix" result="effect1_dropShadow"/>
<feBlend mode="normal" in="SourceGraphic" in2="effect1_dropShadow" result="shape"/>
</filter>
<linearGradient id="paint0_linear" x1="160" y1="0" x2="160" y2="333" gradientUnits="userSpaceOnUse">
<stop stop-color="#007E58"/>
<stop offset="1" stop-color="#2F4D7A" stop-opacity="0.95"/>
</linearGradient>
</defs>
</svg>
