<svg width="332" height="346" viewBox="0 0 332 346" fill="none" xmlns="http://www.w3.org/2000/svg">
<g filter="url(#filter0_d_41:20)">
<rect width="320" height="333" fill="url(#paint0_linear_41:20)"/>
<path d="M40.6094 33.9844C40.6094 35.4036 40.2318 36.6667 39.4766 37.7734C38.7344 38.8802 37.7253 39.7461 36.4492 40.3711C37.9336 41.0091 39.1055 41.9401 39.9648 43.1641C40.8372 44.388 41.2734 45.7747 41.2734 47.3242C41.2734 49.7852 40.4401 51.7448 38.7734 53.2031C37.1198 54.6615 34.9388 55.3906 32.2305 55.3906C29.4961 55.3906 27.3021 54.6615 25.6484 53.2031C24.0078 51.7318 23.1875 49.7721 23.1875 47.3242C23.1875 45.7878 23.6042 44.401 24.4375 43.1641C25.2839 41.9271 26.4492 40.9896 27.9336 40.3516C26.6706 39.7266 25.6745 38.8607 24.9453 37.7539C24.2161 36.6471 23.8516 35.3906 23.8516 33.9844C23.8516 31.5885 24.6198 29.6875 26.1562 28.2812C27.6927 26.875 29.7174 26.1719 32.2305 26.1719C34.7305 26.1719 36.7487 26.875 38.2852 28.2812C39.8346 29.6875 40.6094 31.5885 40.6094 33.9844ZM37.6602 47.2461C37.6602 45.6576 37.1523 44.362 36.1367 43.3594C35.1341 42.3568 33.819 41.8555 32.1914 41.8555C30.5638 41.8555 29.2552 42.3503 28.2656 43.3398C27.2891 44.3294 26.8008 45.6315 26.8008 47.2461C26.8008 48.8607 27.276 50.1302 28.2266 51.0547C29.1901 51.9792 30.5247 52.4414 32.2305 52.4414C33.9232 52.4414 35.2513 51.9792 36.2148 51.0547C37.1784 50.1172 37.6602 48.8477 37.6602 47.2461ZM32.2305 29.1406C30.8112 29.1406 29.6589 29.5833 28.7734 30.4688C27.901 31.3411 27.4648 32.5326 27.4648 34.043C27.4648 35.4883 27.8945 36.6602 28.7539 37.5586C29.6263 38.444 30.7852 38.8867 32.2305 38.8867C33.6758 38.8867 34.8281 38.444 35.6875 37.5586C36.5599 36.6602 36.9961 35.4883 36.9961 34.043C36.9961 32.5977 36.5469 31.4193 35.6484 30.5078C34.75 29.5964 33.6107 29.1406 32.2305 29.1406ZM51.0781 39.0234H53.793C55.4987 38.9974 56.8398 38.5482 57.8164 37.6758C58.793 36.8034 59.2812 35.625 59.2812 34.1406C59.2812 30.8073 57.6211 29.1406 54.3008 29.1406C52.7383 29.1406 51.4883 29.5898 50.5508 30.4883C49.6263 31.3737 49.1641 32.5521 49.1641 34.0234H45.5508C45.5508 31.7708 46.3711 29.9023 48.0117 28.418C49.6654 26.9206 51.7617 26.1719 54.3008 26.1719C56.9831 26.1719 59.0859 26.8815 60.6094 28.3008C62.1328 29.7201 62.8945 31.6927 62.8945 34.2188C62.8945 35.4557 62.4909 36.6536 61.6836 37.8125C60.8893 38.9714 59.8021 39.8372 58.4219 40.4102C59.9844 40.9049 61.1888 41.7253 62.0352 42.8711C62.8945 44.0169 63.3242 45.4167 63.3242 47.0703C63.3242 49.6224 62.4909 51.6471 60.8242 53.1445C59.1576 54.6419 56.9896 55.3906 54.3203 55.3906C51.651 55.3906 49.4766 54.668 47.7969 53.2227C46.1302 51.7773 45.2969 49.8698 45.2969 47.5H48.9297C48.9297 48.9974 49.418 50.1953 50.3945 51.0938C51.3711 51.9922 52.6797 52.4414 54.3203 52.4414C56.0651 52.4414 57.3997 51.9857 58.3242 51.0742C59.2487 50.1628 59.7109 48.8542 59.7109 47.1484C59.7109 45.4948 59.2031 44.2253 58.1875 43.3398C57.1719 42.4544 55.707 41.9987 53.793 41.9727H51.0781V39.0234ZM68.7344 53.1055C68.7344 52.4805 68.9167 51.9596 69.2812 51.543C69.6589 51.1263 70.2188 50.918 70.9609 50.918C71.7031 50.918 72.263 51.1263 72.6406 51.543C73.0312 51.9596 73.2266 52.4805 73.2266 53.1055C73.2266 53.7044 73.0312 54.2057 72.6406 54.6094C72.263 55.013 71.7031 55.2148 70.9609 55.2148C70.2188 55.2148 69.6589 55.013 69.2812 54.6094C68.9167 54.2057 68.7344 53.7044 68.7344 53.1055Z" fill="white"/>
<path d="M89.5039 217V74.8125H135.988C151.418 74.8125 163.007 78.0026 170.754 84.3828C178.566 90.763 182.473 100.203 182.473 112.703C182.473 119.344 180.585 125.236 176.809 130.379C173.033 135.457 167.889 139.396 161.379 142.195C169.061 144.344 175.116 148.445 179.543 154.5C184.035 160.49 186.281 167.651 186.281 175.984C186.281 188.745 182.147 198.771 173.879 206.062C165.611 213.354 153.924 217 138.82 217H89.5039ZM108.254 150.496V201.668H139.211C147.935 201.668 154.803 199.422 159.816 194.93C164.895 190.372 167.434 184.122 167.434 176.18C167.434 159.057 158.124 150.496 139.504 150.496H108.254ZM108.254 135.457H136.574C144.777 135.457 151.32 133.406 156.203 129.305C161.151 125.203 163.625 119.637 163.625 112.605C163.625 104.793 161.346 99.1289 156.789 95.6133C152.232 92.0326 145.298 90.2422 135.988 90.2422H108.254V135.457ZM230.91 217H212.844V111.336H230.91V217ZM211.379 83.3086C211.379 80.3789 212.258 77.9049 214.016 75.8867C215.839 73.8685 218.508 72.8594 222.023 72.8594C225.539 72.8594 228.208 73.8685 230.031 75.8867C231.854 77.9049 232.766 80.3789 232.766 83.3086C232.766 86.2383 231.854 88.6797 230.031 90.6328C228.208 92.5859 225.539 93.5625 222.023 93.5625C218.508 93.5625 215.839 92.5859 214.016 90.6328C212.258 88.6797 211.379 86.2383 211.379 83.3086Z" fill="white"/>
<path d="M72.126 273V237.453H83.7471C87.6045 237.453 90.5016 238.251 92.4385 239.846C94.3916 241.441 95.3682 243.801 95.3682 246.926C95.3682 248.586 94.8962 250.059 93.9521 251.345C93.0081 252.614 91.7223 253.599 90.0947 254.299C92.0153 254.836 93.529 255.861 94.6357 257.375C95.7588 258.872 96.3203 260.663 96.3203 262.746C96.3203 265.936 95.2868 268.443 93.2197 270.266C91.1527 272.089 88.2311 273 84.4551 273H72.126ZM76.8135 256.374V269.167H84.5527C86.7337 269.167 88.4508 268.605 89.7041 267.482C90.9736 266.343 91.6084 264.781 91.6084 262.795C91.6084 258.514 89.2809 256.374 84.626 256.374H76.8135ZM76.8135 252.614H83.8936C85.9443 252.614 87.5801 252.102 88.8008 251.076C90.0378 250.051 90.6562 248.659 90.6562 246.901C90.6562 244.948 90.0866 243.532 88.9473 242.653C87.8079 241.758 86.0745 241.311 83.7471 241.311H76.8135V252.614ZM107.478 273H102.961V246.584H107.478V273ZM102.595 239.577C102.595 238.845 102.814 238.226 103.254 237.722C103.71 237.217 104.377 236.965 105.256 236.965C106.135 236.965 106.802 237.217 107.258 237.722C107.714 238.226 107.941 238.845 107.941 239.577C107.941 240.31 107.714 240.92 107.258 241.408C106.802 241.896 106.135 242.141 105.256 242.141C104.377 242.141 103.71 241.896 103.254 241.408C102.814 240.92 102.595 240.31 102.595 239.577ZM130.109 265.993C130.109 264.772 129.646 263.828 128.718 263.161C127.806 262.478 126.203 261.892 123.908 261.403C121.63 260.915 119.815 260.329 118.464 259.646C117.129 258.962 116.136 258.148 115.485 257.204C114.851 256.26 114.533 255.137 114.533 253.835C114.533 251.67 115.445 249.839 117.268 248.342C119.107 246.844 121.451 246.096 124.299 246.096C127.294 246.096 129.719 246.869 131.574 248.415C133.446 249.961 134.382 251.939 134.382 254.348H129.841C129.841 253.111 129.312 252.045 128.254 251.149C127.212 250.254 125.894 249.807 124.299 249.807C122.655 249.807 121.369 250.165 120.441 250.881C119.514 251.597 119.05 252.533 119.05 253.688C119.05 254.779 119.481 255.601 120.344 256.154C121.206 256.708 122.761 257.237 125.007 257.741C127.269 258.246 129.1 258.848 130.5 259.548C131.9 260.248 132.933 261.094 133.601 262.087C134.284 263.063 134.626 264.26 134.626 265.676C134.626 268.036 133.682 269.932 131.794 271.364C129.906 272.78 127.456 273.488 124.445 273.488C122.329 273.488 120.458 273.114 118.83 272.365C117.202 271.617 115.925 270.575 114.997 269.24C114.086 267.889 113.63 266.433 113.63 264.87H118.146C118.228 266.384 118.83 267.588 119.953 268.483C121.092 269.362 122.59 269.802 124.445 269.802C126.154 269.802 127.521 269.46 128.547 268.776C129.589 268.076 130.109 267.149 130.109 265.993ZM144.758 246.584L144.88 249.514C146.817 247.235 149.429 246.096 152.717 246.096C156.411 246.096 158.926 247.512 160.261 250.344C161.14 249.074 162.279 248.049 163.679 247.268C165.095 246.486 166.763 246.096 168.684 246.096C174.478 246.096 177.424 249.164 177.521 255.3V273H173.005V255.568C173.005 253.68 172.574 252.272 171.711 251.345C170.848 250.401 169.4 249.929 167.365 249.929C165.689 249.929 164.297 250.433 163.19 251.442C162.084 252.435 161.441 253.778 161.262 255.471V273H156.721V255.69C156.721 251.849 154.841 249.929 151.081 249.929C148.119 249.929 146.092 251.19 145.002 253.713V273H140.485V246.584H144.758ZM200.666 270.388C198.908 272.455 196.328 273.488 192.927 273.488C190.111 273.488 187.963 272.674 186.481 271.047C185.017 269.403 184.276 266.978 184.26 263.771V246.584H188.776V263.649C188.776 267.653 190.404 269.655 193.659 269.655C197.11 269.655 199.405 268.369 200.544 265.798V246.584H205.061V273H200.764L200.666 270.388ZM218.073 240.188V246.584H223.005V250.075H218.073V266.457C218.073 267.515 218.293 268.312 218.732 268.85C219.172 269.37 219.921 269.631 220.979 269.631C221.499 269.631 222.215 269.533 223.127 269.338V273C221.939 273.326 220.783 273.488 219.66 273.488C217.642 273.488 216.12 272.878 215.095 271.657C214.069 270.437 213.557 268.703 213.557 266.457V250.075H208.747V246.584H213.557V240.188H218.073ZM232.819 249.782C234.821 247.325 237.425 246.096 240.632 246.096C246.215 246.096 249.03 249.245 249.079 255.544V273H244.562V255.52C244.546 253.615 244.107 252.207 243.244 251.296C242.398 250.384 241.071 249.929 239.265 249.929C237.8 249.929 236.514 250.319 235.407 251.101C234.3 251.882 233.438 252.907 232.819 254.177V273H228.303V235.5H232.819V249.782Z" fill="white"/>
<path d="M129.747 313H115.772V311.052L123.155 302.849C124.249 301.608 125.001 300.603 125.411 299.831C125.831 299.05 126.041 298.244 126.041 297.414C126.041 296.301 125.704 295.388 125.03 294.675C124.356 293.962 123.458 293.605 122.335 293.605C120.987 293.605 119.938 293.991 119.186 294.763C118.443 295.524 118.072 296.589 118.072 297.956H115.362C115.362 295.993 115.992 294.406 117.252 293.195C118.521 291.984 120.216 291.379 122.335 291.379C124.317 291.379 125.885 291.901 127.037 292.946C128.189 293.981 128.766 295.363 128.766 297.092C128.766 299.191 127.428 301.691 124.752 304.592L119.039 310.788H129.747V313ZM145.992 303.903C145.992 307.077 145.45 309.436 144.366 310.979C143.282 312.521 141.588 313.293 139.283 313.293C137.008 313.293 135.323 312.541 134.229 311.037C133.136 309.523 132.569 307.268 132.53 304.27V300.651C132.53 297.517 133.072 295.188 134.156 293.664C135.24 292.141 136.939 291.379 139.254 291.379C141.549 291.379 143.238 292.116 144.322 293.591C145.406 295.056 145.963 297.321 145.992 300.388V303.903ZM143.282 300.197C143.282 297.902 142.96 296.232 142.315 295.188C141.671 294.133 140.65 293.605 139.254 293.605C137.867 293.605 136.856 294.128 136.222 295.173C135.587 296.218 135.26 297.824 135.24 299.992V304.328C135.24 306.633 135.572 308.337 136.236 309.44C136.91 310.534 137.926 311.081 139.283 311.081C140.621 311.081 141.612 310.563 142.257 309.528C142.911 308.493 143.253 306.862 143.282 304.636V300.197ZM162.398 297.238C162.398 298.303 162.115 299.25 161.549 300.08C160.992 300.91 160.235 301.56 159.278 302.028C160.392 302.507 161.271 303.205 161.915 304.123C162.569 305.041 162.896 306.081 162.896 307.243C162.896 309.089 162.271 310.559 161.021 311.652C159.781 312.746 158.146 313.293 156.114 313.293C154.063 313.293 152.418 312.746 151.178 311.652C149.947 310.549 149.332 309.079 149.332 307.243C149.332 306.091 149.645 305.051 150.27 304.123C150.904 303.195 151.778 302.492 152.892 302.014C151.944 301.545 151.197 300.896 150.65 300.065C150.104 299.235 149.83 298.293 149.83 297.238C149.83 295.441 150.406 294.016 151.559 292.961C152.711 291.906 154.229 291.379 156.114 291.379C157.989 291.379 159.503 291.906 160.655 292.961C161.817 294.016 162.398 295.441 162.398 297.238ZM160.187 307.185C160.187 305.993 159.806 305.021 159.044 304.27C158.292 303.518 157.306 303.142 156.085 303.142C154.864 303.142 153.883 303.513 153.141 304.255C152.408 304.997 152.042 305.974 152.042 307.185C152.042 308.396 152.398 309.348 153.111 310.041C153.834 310.734 154.835 311.081 156.114 311.081C157.384 311.081 158.38 310.734 159.103 310.041C159.825 309.338 160.187 308.386 160.187 307.185ZM156.114 293.605C155.05 293.605 154.186 293.938 153.521 294.602C152.867 295.256 152.54 296.149 152.54 297.282C152.54 298.366 152.862 299.245 153.507 299.919C154.161 300.583 155.03 300.915 156.114 300.915C157.198 300.915 158.062 300.583 158.707 299.919C159.361 299.245 159.688 298.366 159.688 297.282C159.688 296.198 159.352 295.314 158.678 294.631C158.004 293.947 157.149 293.605 156.114 293.605ZM166.646 311.579C166.646 311.11 166.783 310.72 167.057 310.407C167.34 310.095 167.76 309.938 168.316 309.938C168.873 309.938 169.293 310.095 169.576 310.407C169.869 310.72 170.016 311.11 170.016 311.579C170.016 312.028 169.869 312.404 169.576 312.707C169.293 313.01 168.873 313.161 168.316 313.161C167.76 313.161 167.34 313.01 167.057 312.707C166.783 312.404 166.646 312.028 166.646 311.579ZM184.605 303.625C184.039 304.299 183.36 304.841 182.569 305.251C181.788 305.661 180.929 305.866 179.991 305.866C178.761 305.866 177.687 305.563 176.769 304.958C175.86 304.353 175.157 303.503 174.659 302.409C174.161 301.306 173.912 300.09 173.912 298.762C173.912 297.336 174.181 296.052 174.718 294.909C175.265 293.767 176.036 292.893 177.032 292.287C178.028 291.682 179.19 291.379 180.519 291.379C182.628 291.379 184.288 292.17 185.499 293.752C186.72 295.324 187.33 297.473 187.33 300.197V300.988C187.33 305.139 186.51 308.171 184.869 310.085C183.229 311.989 180.753 312.966 177.442 313.015H176.915V310.729H177.486C179.723 310.69 181.441 310.109 182.643 308.986C183.844 307.854 184.498 306.066 184.605 303.625ZM180.431 303.625C181.339 303.625 182.174 303.347 182.936 302.79C183.707 302.233 184.269 301.545 184.62 300.725V299.641C184.62 297.863 184.234 296.418 183.463 295.305C182.691 294.191 181.715 293.635 180.533 293.635C179.342 293.635 178.385 294.094 177.662 295.012C176.939 295.92 176.578 297.121 176.578 298.615C176.578 300.07 176.925 301.271 177.618 302.219C178.321 303.156 179.259 303.625 180.431 303.625ZM204 297.238C204 298.303 203.717 299.25 203.15 300.08C202.594 300.91 201.837 301.56 200.88 302.028C201.993 302.507 202.872 303.205 203.517 304.123C204.171 305.041 204.498 306.081 204.498 307.243C204.498 309.089 203.873 310.559 202.623 311.652C201.383 312.746 199.747 313.293 197.716 313.293C195.665 313.293 194.02 312.746 192.779 311.652C191.549 310.549 190.934 309.079 190.934 307.243C190.934 306.091 191.246 305.051 191.871 304.123C192.506 303.195 193.38 302.492 194.493 302.014C193.546 301.545 192.799 300.896 192.252 300.065C191.705 299.235 191.432 298.293 191.432 297.238C191.432 295.441 192.008 294.016 193.16 292.961C194.312 291.906 195.831 291.379 197.716 291.379C199.591 291.379 201.104 291.906 202.257 292.961C203.419 294.016 204 295.441 204 297.238ZM201.788 307.185C201.788 305.993 201.407 305.021 200.646 304.27C199.894 303.518 198.907 303.142 197.687 303.142C196.466 303.142 195.484 303.513 194.742 304.255C194.01 304.997 193.644 305.974 193.644 307.185C193.644 308.396 194 309.348 194.713 310.041C195.436 310.734 196.437 311.081 197.716 311.081C198.985 311.081 199.981 310.734 200.704 310.041C201.427 309.338 201.788 308.386 201.788 307.185ZM197.716 293.605C196.651 293.605 195.787 293.938 195.123 294.602C194.469 295.256 194.142 296.149 194.142 297.282C194.142 298.366 194.464 299.245 195.108 299.919C195.763 300.583 196.632 300.915 197.716 300.915C198.8 300.915 199.664 300.583 200.309 299.919C200.963 299.245 201.29 298.366 201.29 297.282C201.29 296.198 200.953 295.314 200.279 294.631C199.605 293.947 198.751 293.605 197.716 293.605Z" fill="white"/>
</g>
<defs>
<filter id="filter0_d_41:20" x="0" y="0" width="332" height="346" filterUnits="userSpaceOnUse" color-interpolation-filters="sRGB">
<feFlood flood-opacity="0" result="BackgroundImageFix"/>
<feColorMatrix in="SourceAlpha" type="matrix" values="0 0 0 0 0 0 0 0 0 0 0 0 0 0 0 0 0 0 127 0" result="hardAlpha"/>
<feOffset dx="8" dy="9"/>
<feGaussianBlur stdDeviation="2"/>
<feComposite in2="hardAlpha" operator="out"/>
<feColorMatrix type="matrix" values="0 0 0 0 0 0 0 0 0 0 0 0 0 0 0 0 0 0 0.25 0"/>
<feBlend mode="normal" in2="BackgroundImageFix" result="effect1_dropShadow_41:20"/>
<feBlend mode="normal" in="SourceGraphic" in2="effect1_dropShadow_41:20" result="shape"/>
</filter>
<linearGradient id="paint0_linear_41:20" x1="160" y1="0" x2="160" y2="333" gradientUnits="userSpaceOnUse">
<stop stop-color="#007E58"/>
<stop offset="1" stop-color="#2F4D7A" stop-opacity="0.95"/>
</linearGradient>
</defs>
</svg>
