<svg width="332" height="346" viewBox="0 0 332 346" fill="none" xmlns="http://www.w3.org/2000/svg">
<g filter="url(#filter0_d)">
<rect width="320" height="333" fill="url(#paint0_linear)"/>
<path d="M114.504 217V74.8125H160.988C176.418 74.8125 188.007 78.0026 195.754 84.3828C203.566 90.763 207.473 100.203 207.473 112.703C207.473 119.344 205.585 125.236 201.809 130.379C198.033 135.457 192.889 139.396 186.379 142.195C194.061 144.344 200.116 148.445 204.543 154.5C209.035 160.49 211.281 167.651 211.281 175.984C211.281 188.745 207.147 198.771 198.879 206.062C190.611 213.354 178.924 217 163.82 217H114.504ZM133.254 150.496V201.668H164.211C172.935 201.668 179.803 199.422 184.816 194.93C189.895 190.372 192.434 184.122 192.434 176.18C192.434 159.057 183.124 150.496 164.504 150.496H133.254ZM133.254 135.457H161.574C169.777 135.457 176.32 133.406 181.203 129.305C186.151 125.203 188.625 119.637 188.625 112.605C188.625 104.793 186.346 99.1289 181.789 95.6133C177.232 92.0326 170.298 90.2422 160.988 90.2422H133.254V135.457Z" fill="white"/>
<path d="M25.0239 40.7422L26.4692 26.5625H41.0396V29.9023H29.5356L28.6763 37.6562C30.0695 36.8359 31.6515 36.4258 33.4224 36.4258C36.0135 36.4258 38.0708 37.2852 39.5942 39.0039C41.1177 40.7096 41.8794 43.0208 41.8794 45.9375C41.8794 48.8672 41.0851 51.1784 39.4966 52.8711C37.9211 54.5508 35.714 55.3906 32.8755 55.3906C30.3625 55.3906 28.3117 54.694 26.7231 53.3008C25.1346 51.9076 24.2297 49.9805 24.0083 47.5195H27.4263C27.6476 49.1471 28.2271 50.3776 29.1646 51.2109C30.1021 52.0312 31.339 52.4414 32.8755 52.4414C34.5552 52.4414 35.8703 51.8685 36.8208 50.7227C37.7843 49.5768 38.2661 47.9948 38.2661 45.9766C38.2661 44.0755 37.7453 42.5521 36.7036 41.4062C35.675 40.2474 34.3013 39.668 32.5825 39.668C31.007 39.668 29.77 40.013 28.8716 40.7031L27.9146 41.4844L25.0239 40.7422ZM46.2739 53.1055C46.2739 52.4805 46.4562 51.9596 46.8208 51.543C47.1984 51.1263 47.7583 50.918 48.5005 50.918C49.2427 50.918 49.8026 51.1263 50.1802 51.543C50.5708 51.9596 50.7661 52.4805 50.7661 53.1055C50.7661 53.7044 50.5708 54.2057 50.1802 54.6094C49.8026 55.013 49.2427 55.2148 48.5005 55.2148C47.7583 55.2148 47.1984 55.013 46.8208 54.6094C46.4562 54.2057 46.2739 53.7044 46.2739 53.1055Z" fill="white"/>
<path d="M98.126 273V237.453H109.747C113.604 237.453 116.502 238.251 118.438 239.846C120.392 241.441 121.368 243.801 121.368 246.926C121.368 248.586 120.896 250.059 119.952 251.345C119.008 252.614 117.722 253.599 116.095 254.299C118.015 254.836 119.529 255.861 120.636 257.375C121.759 258.872 122.32 260.663 122.32 262.746C122.32 265.936 121.287 268.443 119.22 270.266C117.153 272.089 114.231 273 110.455 273H98.126ZM102.813 256.374V269.167H110.553C112.734 269.167 114.451 268.605 115.704 267.482C116.974 266.343 117.608 264.781 117.608 262.795C117.608 258.514 115.281 256.374 110.626 256.374H102.813ZM102.813 252.614H109.894C111.944 252.614 113.58 252.102 114.801 251.076C116.038 250.051 116.656 248.659 116.656 246.901C116.656 244.948 116.087 243.532 114.947 242.653C113.808 241.758 112.075 241.311 109.747 241.311H102.813V252.614ZM127.374 259.548C127.374 256.96 127.879 254.632 128.888 252.565C129.913 250.498 131.329 248.903 133.136 247.78C134.959 246.657 137.034 246.096 139.361 246.096C142.958 246.096 145.864 247.341 148.077 249.831C150.307 252.321 151.422 255.633 151.422 259.768V260.085C151.422 262.657 150.925 264.968 149.933 267.019C148.956 269.053 147.548 270.64 145.709 271.779C143.886 272.919 141.786 273.488 139.41 273.488C135.829 273.488 132.924 272.243 130.694 269.753C128.481 267.263 127.374 263.967 127.374 259.865V259.548ZM131.915 260.085C131.915 263.015 132.59 265.367 133.941 267.141C135.309 268.915 137.132 269.802 139.41 269.802C141.705 269.802 143.528 268.907 144.879 267.116C146.23 265.31 146.905 262.787 146.905 259.548C146.905 256.651 146.214 254.307 144.83 252.517C143.463 250.71 141.64 249.807 139.361 249.807C137.132 249.807 135.333 250.694 133.966 252.468C132.599 254.242 131.915 256.781 131.915 260.085ZM169.854 250.637C169.171 250.523 168.43 250.466 167.633 250.466C164.671 250.466 162.66 251.727 161.603 254.25V273H157.086V246.584H161.48L161.554 249.636C163.035 247.276 165.134 246.096 167.853 246.096C168.731 246.096 169.399 246.21 169.854 246.438V250.637ZM172.345 259.548C172.345 256.96 172.849 254.632 173.858 252.565C174.884 250.498 176.3 248.903 178.106 247.78C179.929 246.657 182.005 246.096 184.332 246.096C187.929 246.096 190.834 247.341 193.048 249.831C195.278 252.321 196.393 255.633 196.393 259.768V260.085C196.393 262.657 195.896 264.968 194.903 267.019C193.927 269.053 192.519 270.64 190.68 271.779C188.857 272.919 186.757 273.488 184.381 273.488C180.8 273.488 177.895 272.243 175.665 269.753C173.451 267.263 172.345 263.967 172.345 259.865V259.548ZM176.886 260.085C176.886 263.015 177.561 265.367 178.912 267.141C180.279 268.915 182.102 269.802 184.381 269.802C186.676 269.802 188.499 268.907 189.85 267.116C191.201 265.31 191.876 262.787 191.876 259.548C191.876 256.651 191.184 254.307 189.801 252.517C188.434 250.71 186.611 249.807 184.332 249.807C182.102 249.807 180.304 250.694 178.937 252.468C177.569 254.242 176.886 256.781 176.886 260.085ZM206.329 246.584L206.476 249.904C208.494 247.365 211.131 246.096 214.386 246.096C219.968 246.096 222.784 249.245 222.833 255.544V273H218.316V255.52C218.3 253.615 217.861 252.207 216.998 251.296C216.152 250.384 214.825 249.929 213.019 249.929C211.554 249.929 210.268 250.319 209.161 251.101C208.054 251.882 207.192 252.907 206.573 254.177V273H202.057V246.584H206.329Z" fill="white"/>
<path d="M123.679 313H120.954V294.938L115.49 296.945V294.484L123.254 291.569H123.679V313ZM144.992 303.903C144.992 307.077 144.45 309.436 143.366 310.979C142.282 312.521 140.588 313.293 138.283 313.293C136.008 313.293 134.323 312.541 133.229 311.037C132.136 309.523 131.569 307.268 131.53 304.27V300.651C131.53 297.517 132.072 295.188 133.156 293.664C134.24 292.141 135.939 291.379 138.254 291.379C140.549 291.379 142.238 292.116 143.322 293.591C144.406 295.056 144.963 297.321 144.992 300.388V303.903ZM142.282 300.197C142.282 297.902 141.96 296.232 141.315 295.188C140.671 294.133 139.65 293.605 138.254 293.605C136.867 293.605 135.856 294.128 135.222 295.173C134.587 296.218 134.26 297.824 134.24 299.992V304.328C134.24 306.633 134.572 308.337 135.236 309.44C135.91 310.534 136.926 311.081 138.283 311.081C139.621 311.081 140.612 310.563 141.257 309.528C141.911 308.493 142.253 306.862 142.282 304.636V300.197ZM148.801 311.579C148.801 311.11 148.938 310.72 149.211 310.407C149.494 310.095 149.914 309.938 150.471 309.938C151.027 309.938 151.447 310.095 151.73 310.407C152.023 310.72 152.17 311.11 152.17 311.579C152.17 312.028 152.023 312.404 151.73 312.707C151.447 313.01 151.027 313.161 150.471 313.161C149.914 313.161 149.494 313.01 149.211 312.707C148.938 312.404 148.801 312.028 148.801 311.579ZM169.309 297.238C169.309 298.303 169.025 299.25 168.459 300.08C167.902 300.91 167.146 301.56 166.188 302.028C167.302 302.507 168.181 303.205 168.825 304.123C169.479 305.041 169.807 306.081 169.807 307.243C169.807 309.089 169.182 310.559 167.932 311.652C166.691 312.746 165.056 313.293 163.024 313.293C160.974 313.293 159.328 312.746 158.088 311.652C156.857 310.549 156.242 309.079 156.242 307.243C156.242 306.091 156.555 305.051 157.18 304.123C157.814 303.195 158.688 302.492 159.802 302.014C158.854 301.545 158.107 300.896 157.561 300.065C157.014 299.235 156.74 298.293 156.74 297.238C156.74 295.441 157.316 294.016 158.469 292.961C159.621 291.906 161.14 291.379 163.024 291.379C164.899 291.379 166.413 291.906 167.565 292.961C168.728 294.016 169.309 295.441 169.309 297.238ZM167.097 307.185C167.097 305.993 166.716 305.021 165.954 304.27C165.202 303.518 164.216 303.142 162.995 303.142C161.774 303.142 160.793 303.513 160.051 304.255C159.318 304.997 158.952 305.974 158.952 307.185C158.952 308.396 159.309 309.348 160.021 310.041C160.744 310.734 161.745 311.081 163.024 311.081C164.294 311.081 165.29 310.734 166.013 310.041C166.735 309.338 167.097 308.386 167.097 307.185ZM163.024 293.605C161.96 293.605 161.096 293.938 160.432 294.602C159.777 295.256 159.45 296.149 159.45 297.282C159.45 298.366 159.772 299.245 160.417 299.919C161.071 300.583 161.94 300.915 163.024 300.915C164.108 300.915 164.973 300.583 165.617 299.919C166.271 299.245 166.599 298.366 166.599 297.282C166.599 296.198 166.262 295.314 165.588 294.631C164.914 293.947 164.06 293.605 163.024 293.605ZM182.126 313H179.401V294.938L173.938 296.945V294.484L181.701 291.569H182.126V313ZM198.972 313H196.247V294.938L190.783 296.945V294.484L198.547 291.569H198.972V313Z" fill="white"/>
</g>
<defs>
<filter id="filter0_d" x="0" y="0" width="332" height="346" filterUnits="userSpaceOnUse" color-interpolation-filters="sRGB">
<feFlood flood-opacity="0" result="BackgroundImageFix"/>
<feColorMatrix in="SourceAlpha" type="matrix" values="0 0 0 0 0 0 0 0 0 0 0 0 0 0 0 0 0 0 127 0" result="hardAlpha"/>
<feOffset dx="8" dy="9"/>
<feGaussianBlur stdDeviation="2"/>
<feComposite in2="hardAlpha" operator="out"/>
<feColorMatrix type="matrix" values="0 0 0 0 0 0 0 0 0 0 0 0 0 0 0 0 0 0 0.25 0"/>
<feBlend mode="normal" in2="BackgroundImageFix" result="effect1_dropShadow"/>
<feBlend mode="normal" in="SourceGraphic" in2="effect1_dropShadow" result="shape"/>
</filter>
<linearGradient id="paint0_linear" x1="160" y1="0" x2="160" y2="333" gradientUnits="userSpaceOnUse">
<stop stop-color="#007E58"/>
<stop offset="1" stop-color="#2F4D7A" stop-opacity="0.95"/>
</linearGradient>
</defs>
</svg>
