<svg width="332" height="346" viewBox="0 0 332 346" fill="none" xmlns="http://www.w3.org/2000/svg">
<g filter="url(#filter0_d_26:32)">
<rect width="320" height="333" fill="url(#paint0_linear_26:32)"/>
<path d="M25.0234 40.7422L26.4688 26.5625H41.0391V29.9023H29.5352L28.6758 37.6562C30.069 36.8359 31.651 36.4258 33.4219 36.4258C36.013 36.4258 38.0703 37.2852 39.5938 39.0039C41.1172 40.7096 41.8789 43.0208 41.8789 45.9375C41.8789 48.8672 41.0846 51.1784 39.4961 52.8711C37.9206 54.5508 35.7135 55.3906 32.875 55.3906C30.362 55.3906 28.3112 54.694 26.7227 53.3008C25.1341 51.9076 24.2292 49.9805 24.0078 47.5195H27.4258C27.6471 49.1471 28.2266 50.3776 29.1641 51.2109C30.1016 52.0312 31.3385 52.4414 32.875 52.4414C34.5547 52.4414 35.8698 51.8685 36.8203 50.7227C37.7839 49.5768 38.2656 47.9948 38.2656 45.9766C38.2656 44.0755 37.7448 42.5521 36.7031 41.4062C35.6745 40.2474 34.3008 39.668 32.582 39.668C31.0065 39.668 29.7695 40.013 28.8711 40.7031L27.9141 41.4844L25.0234 40.7422ZM47.4844 40.7422L48.9297 26.5625H63.5V29.9023H51.9961L51.1367 37.6562C52.5299 36.8359 54.112 36.4258 55.8828 36.4258C58.474 36.4258 60.5312 37.2852 62.0547 39.0039C63.5781 40.7096 64.3398 43.0208 64.3398 45.9375C64.3398 48.8672 63.5456 51.1784 61.957 52.8711C60.3815 54.5508 58.1745 55.3906 55.3359 55.3906C52.8229 55.3906 50.7721 54.694 49.1836 53.3008C47.5951 51.9076 46.6901 49.9805 46.4688 47.5195H49.8867C50.1081 49.1471 50.6875 50.3776 51.625 51.2109C52.5625 52.0312 53.7995 52.4414 55.3359 52.4414C57.0156 52.4414 58.3307 51.8685 59.2812 50.7227C60.2448 49.5768 60.7266 47.9948 60.7266 45.9766C60.7266 44.0755 60.2057 42.5521 59.1641 41.4062C58.1354 40.2474 56.7617 39.668 55.043 39.668C53.4674 39.668 52.2305 40.013 51.332 40.7031L50.375 41.4844L47.4844 40.7422ZM68.7344 53.1055C68.7344 52.4805 68.9167 51.9596 69.2812 51.543C69.6589 51.1263 70.2188 50.918 70.9609 50.918C71.7031 50.918 72.263 51.1263 72.6406 51.543C73.0312 51.9596 73.2266 52.4805 73.2266 53.1055C73.2266 53.7044 73.0312 54.2057 72.6406 54.6094C72.263 55.013 71.7031 55.2148 70.9609 55.2148C70.2188 55.2148 69.6589 55.013 69.2812 54.6094C68.9167 54.2057 68.7344 53.7044 68.7344 53.1055Z" fill="white"/>
<path d="M164.094 171.883C162.336 186.922 156.77 198.543 147.395 206.746C138.085 214.884 125.682 218.953 110.188 218.953C93.3906 218.953 79.9141 212.931 69.7578 200.887C59.6667 188.842 54.6211 172.729 54.6211 152.547V138.875C54.6211 125.659 56.9648 114.038 61.6523 104.012C66.4049 93.9857 73.1107 86.3034 81.7695 80.9648C90.4284 75.5612 100.454 72.8594 111.848 72.8594C126.952 72.8594 139.061 77.0911 148.176 85.5547C157.29 93.9531 162.596 105.607 164.094 120.516H145.246C143.618 109.188 140.07 100.984 134.602 95.9062C129.198 90.8281 121.613 88.2891 111.848 88.2891C99.8685 88.2891 90.4609 92.7161 83.625 101.57C76.8542 110.424 73.4688 123.022 73.4688 139.363V153.133C73.4688 168.562 76.6914 180.835 83.1367 189.949C89.582 199.064 98.599 203.621 110.188 203.621C120.604 203.621 128.579 201.277 134.113 196.59C139.712 191.837 143.423 183.602 145.246 171.883H164.094ZM248.469 188.973C248.469 184.09 246.613 180.314 242.902 177.645C239.257 174.91 232.844 172.566 223.664 170.613C214.549 168.66 207.29 166.316 201.887 163.582C196.548 160.848 192.577 157.592 189.973 153.816C187.434 150.04 186.164 145.548 186.164 140.34C186.164 131.681 189.81 124.357 197.102 118.367C204.458 112.378 213.833 109.383 225.227 109.383C237.206 109.383 246.906 112.475 254.328 118.66C261.815 124.845 265.559 132.755 265.559 142.391H247.395C247.395 137.443 245.279 133.178 241.047 129.598C236.88 126.017 231.607 124.227 225.227 124.227C218.651 124.227 213.508 125.659 209.797 128.523C206.086 131.388 204.23 135.132 204.23 139.754C204.23 144.116 205.956 147.404 209.406 149.617C212.857 151.831 219.074 153.947 228.059 155.965C237.108 157.983 244.432 160.392 250.031 163.191C255.63 165.991 259.764 169.376 262.434 173.348C265.168 177.254 266.535 182.039 266.535 187.703C266.535 197.143 262.759 204.728 255.207 210.457C247.655 216.121 237.857 218.953 225.812 218.953C217.349 218.953 209.862 217.456 203.352 214.461C196.841 211.466 191.73 207.299 188.02 201.961C184.374 196.557 182.551 190.73 182.551 184.48H200.617C200.943 190.535 203.352 195.353 207.844 198.934C212.401 202.449 218.391 204.207 225.812 204.207C232.648 204.207 238.117 202.84 242.219 200.105C246.385 197.306 248.469 193.595 248.469 188.973Z" fill="white"/>
<path d="M92.2734 261.721C91.834 265.48 90.4424 268.386 88.0986 270.437C85.7712 272.471 82.6706 273.488 78.7969 273.488C74.5977 273.488 71.2285 271.983 68.6895 268.972C66.1667 265.961 64.9053 261.932 64.9053 256.887V253.469C64.9053 250.165 65.4912 247.259 66.6631 244.753C67.8512 242.246 69.5277 240.326 71.6924 238.991C73.8571 237.64 76.3636 236.965 79.2119 236.965C82.988 236.965 86.0153 238.023 88.2939 240.139C90.5726 242.238 91.8991 245.152 92.2734 248.879H87.5615C87.1546 246.047 86.2676 243.996 84.9004 242.727C83.5495 241.457 81.6533 240.822 79.2119 240.822C76.2171 240.822 73.8652 241.929 72.1562 244.143C70.4635 246.356 69.6172 249.506 69.6172 253.591V257.033C69.6172 260.891 70.4229 263.959 72.0342 266.237C73.6455 268.516 75.8997 269.655 78.7969 269.655C81.401 269.655 83.3949 269.069 84.7783 267.897C86.1781 266.709 87.1058 264.65 87.5615 261.721H92.2734ZM114.295 273C114.035 272.479 113.823 271.551 113.66 270.217C111.561 272.398 109.054 273.488 106.141 273.488C103.536 273.488 101.396 272.756 99.7197 271.291C98.0596 269.81 97.2295 267.938 97.2295 265.676C97.2295 262.925 98.2712 260.793 100.354 259.279C102.454 257.749 105.4 256.984 109.192 256.984H113.587V254.909C113.587 253.33 113.115 252.077 112.171 251.149C111.227 250.205 109.835 249.733 107.996 249.733C106.385 249.733 105.034 250.14 103.943 250.954C102.853 251.768 102.308 252.753 102.308 253.908H97.7666C97.7666 252.59 98.2305 251.32 99.1582 250.1C100.102 248.863 101.372 247.886 102.967 247.17C104.578 246.454 106.344 246.096 108.265 246.096C111.308 246.096 113.693 246.861 115.418 248.391C117.143 249.904 118.038 251.996 118.104 254.665V266.823C118.104 269.248 118.413 271.177 119.031 272.609V273H114.295ZM106.8 269.558C108.216 269.558 109.559 269.191 110.828 268.459C112.098 267.727 113.017 266.774 113.587 265.603V260.183H110.047C104.513 260.183 101.746 261.802 101.746 265.041C101.746 266.457 102.218 267.564 103.162 268.361C104.106 269.159 105.319 269.558 106.8 269.558ZM136.146 273.488C132.565 273.488 129.651 272.316 127.405 269.973C125.159 267.613 124.036 264.463 124.036 260.524V259.694C124.036 257.074 124.533 254.738 125.525 252.688C126.535 250.62 127.934 249.009 129.725 247.854C131.531 246.682 133.484 246.096 135.584 246.096C139.018 246.096 141.688 247.227 143.592 249.489C145.496 251.752 146.448 254.991 146.448 259.206V261.086H128.553C128.618 263.69 129.375 265.798 130.823 267.409C132.288 269.004 134.144 269.802 136.39 269.802C137.985 269.802 139.336 269.476 140.442 268.825C141.549 268.174 142.518 267.312 143.348 266.237L146.106 268.386C143.893 271.787 140.573 273.488 136.146 273.488ZM135.584 249.807C133.761 249.807 132.231 250.474 130.994 251.809C129.757 253.127 128.992 254.982 128.699 257.375H141.932V257.033C141.801 254.738 141.183 252.964 140.076 251.711C138.969 250.441 137.472 249.807 135.584 249.807ZM167.078 265.993C167.078 264.772 166.614 263.828 165.687 263.161C164.775 262.478 163.172 261.892 160.877 261.403C158.598 260.915 156.784 260.329 155.433 259.646C154.098 258.962 153.105 258.148 152.454 257.204C151.819 256.26 151.502 255.137 151.502 253.835C151.502 251.67 152.413 249.839 154.236 248.342C156.076 246.844 158.419 246.096 161.268 246.096C164.262 246.096 166.688 246.869 168.543 248.415C170.415 249.961 171.351 251.939 171.351 254.348H166.81C166.81 253.111 166.281 252.045 165.223 251.149C164.181 250.254 162.863 249.807 161.268 249.807C159.624 249.807 158.338 250.165 157.41 250.881C156.482 251.597 156.019 252.533 156.019 253.688C156.019 254.779 156.45 255.601 157.312 256.154C158.175 256.708 159.729 257.237 161.976 257.741C164.238 258.246 166.069 258.848 167.469 259.548C168.868 260.248 169.902 261.094 170.569 262.087C171.253 263.063 171.595 264.26 171.595 265.676C171.595 268.036 170.651 269.932 168.763 271.364C166.875 272.78 164.425 273.488 161.414 273.488C159.298 273.488 157.426 273.114 155.799 272.365C154.171 271.617 152.894 270.575 151.966 269.24C151.054 267.889 150.599 266.433 150.599 264.87H155.115C155.197 266.384 155.799 267.588 156.922 268.483C158.061 269.362 159.559 269.802 161.414 269.802C163.123 269.802 164.49 269.46 165.516 268.776C166.557 268.076 167.078 267.149 167.078 265.993ZM182.386 273H177.869V246.584H182.386V273ZM177.503 239.577C177.503 238.845 177.723 238.226 178.162 237.722C178.618 237.217 179.285 236.965 180.164 236.965C181.043 236.965 181.71 237.217 182.166 237.722C182.622 238.226 182.85 238.845 182.85 239.577C182.85 240.31 182.622 240.92 182.166 241.408C181.71 241.896 181.043 242.141 180.164 242.141C179.285 242.141 178.618 241.896 178.162 241.408C177.723 240.92 177.503 240.31 177.503 239.577ZM205.945 270.388C204.188 272.455 201.608 273.488 198.206 273.488C195.39 273.488 193.242 272.674 191.761 271.047C190.296 269.403 189.555 266.978 189.539 263.771V246.584H194.056V263.649C194.056 267.653 195.683 269.655 198.938 269.655C202.389 269.655 204.684 268.369 205.823 265.798V246.584H210.34V273H206.043L205.945 270.388ZM221.473 246.584L221.595 249.514C223.532 247.235 226.144 246.096 229.432 246.096C233.126 246.096 235.641 247.512 236.976 250.344C237.854 249.074 238.994 248.049 240.394 247.268C241.81 246.486 243.478 246.096 245.398 246.096C251.193 246.096 254.139 249.164 254.236 255.3V273H249.72V255.568C249.72 253.68 249.288 252.272 248.426 251.345C247.563 250.401 246.115 249.929 244.08 249.929C242.404 249.929 241.012 250.433 239.905 251.442C238.799 252.435 238.156 253.778 237.977 255.471V273H233.436V255.69C233.436 251.849 231.556 249.929 227.796 249.929C224.834 249.929 222.807 251.19 221.717 253.713V273H217.2V246.584H221.473Z" fill="white"/>
<path d="M123.679 313H120.954V294.938L115.49 296.945V294.484L123.254 291.569H123.679V313ZM135.559 301.018H137.595C138.874 300.998 139.88 300.661 140.612 300.007C141.345 299.353 141.711 298.469 141.711 297.355C141.711 294.855 140.466 293.605 137.976 293.605C136.804 293.605 135.866 293.942 135.163 294.616C134.47 295.28 134.123 296.164 134.123 297.268H131.413C131.413 295.578 132.028 294.177 133.259 293.063C134.499 291.94 136.071 291.379 137.976 291.379C139.987 291.379 141.564 291.911 142.707 292.976C143.85 294.04 144.421 295.52 144.421 297.414C144.421 298.342 144.118 299.24 143.513 300.109C142.917 300.979 142.102 301.628 141.066 302.058C142.238 302.429 143.142 303.044 143.776 303.903C144.421 304.763 144.743 305.812 144.743 307.053C144.743 308.967 144.118 310.485 142.868 311.608C141.618 312.731 139.992 313.293 137.99 313.293C135.988 313.293 134.357 312.751 133.098 311.667C131.848 310.583 131.223 309.152 131.223 307.375H133.947C133.947 308.498 134.313 309.396 135.046 310.07C135.778 310.744 136.76 311.081 137.99 311.081C139.299 311.081 140.3 310.739 140.993 310.056C141.687 309.372 142.033 308.391 142.033 307.111C142.033 305.871 141.652 304.919 140.891 304.255C140.129 303.591 139.03 303.249 137.595 303.229H135.559V301.018ZM162.438 313H148.464V311.052L155.847 302.849C156.94 301.608 157.692 300.603 158.103 299.831C158.522 299.05 158.732 298.244 158.732 297.414C158.732 296.301 158.396 295.388 157.722 294.675C157.048 293.962 156.149 293.605 155.026 293.605C153.679 293.605 152.629 293.991 151.877 294.763C151.135 295.524 150.764 296.589 150.764 297.956H148.054C148.054 295.993 148.684 294.406 149.943 293.195C151.213 291.984 152.907 291.379 155.026 291.379C157.009 291.379 158.576 291.901 159.729 292.946C160.881 293.981 161.457 295.363 161.457 297.092C161.457 299.191 160.119 301.691 157.443 304.592L151.73 310.788H162.438V313ZM165.646 311.579C165.646 311.11 165.783 310.72 166.057 310.407C166.34 310.095 166.76 309.938 167.316 309.938C167.873 309.938 168.293 310.095 168.576 310.407C168.869 310.72 169.016 311.11 169.016 311.579C169.016 312.028 168.869 312.404 168.576 312.707C168.293 313.01 167.873 313.161 167.316 313.161C166.76 313.161 166.34 313.01 166.057 312.707C165.783 312.404 165.646 312.028 165.646 311.579ZM183.605 303.625C183.039 304.299 182.36 304.841 181.569 305.251C180.788 305.661 179.929 305.866 178.991 305.866C177.761 305.866 176.687 305.563 175.769 304.958C174.86 304.353 174.157 303.503 173.659 302.409C173.161 301.306 172.912 300.09 172.912 298.762C172.912 297.336 173.181 296.052 173.718 294.909C174.265 293.767 175.036 292.893 176.032 292.287C177.028 291.682 178.19 291.379 179.519 291.379C181.628 291.379 183.288 292.17 184.499 293.752C185.72 295.324 186.33 297.473 186.33 300.197V300.988C186.33 305.139 185.51 308.171 183.869 310.085C182.229 311.989 179.753 312.966 176.442 313.015H175.915V310.729H176.486C178.723 310.69 180.441 310.109 181.643 308.986C182.844 307.854 183.498 306.066 183.605 303.625ZM179.431 303.625C180.339 303.625 181.174 303.347 181.936 302.79C182.707 302.233 183.269 301.545 183.62 300.725V299.641C183.62 297.863 183.234 296.418 182.463 295.305C181.691 294.191 180.715 293.635 179.533 293.635C178.342 293.635 177.385 294.094 176.662 295.012C175.939 295.92 175.578 297.121 175.578 298.615C175.578 300.07 175.925 301.271 176.618 302.219C177.321 303.156 178.259 303.625 179.431 303.625ZM198.972 313H196.247V294.938L190.783 296.945V294.484L198.547 291.569H198.972V313Z" fill="white"/>
</g>
<defs>
<filter id="filter0_d_26:32" x="0" y="0" width="332" height="346" filterUnits="userSpaceOnUse" color-interpolation-filters="sRGB">
<feFlood flood-opacity="0" result="BackgroundImageFix"/>
<feColorMatrix in="SourceAlpha" type="matrix" values="0 0 0 0 0 0 0 0 0 0 0 0 0 0 0 0 0 0 127 0" result="hardAlpha"/>
<feOffset dx="8" dy="9"/>
<feGaussianBlur stdDeviation="2"/>
<feComposite in2="hardAlpha" operator="out"/>
<feColorMatrix type="matrix" values="0 0 0 0 0 0 0 0 0 0 0 0 0 0 0 0 0 0 0.25 0"/>
<feBlend mode="normal" in2="BackgroundImageFix" result="effect1_dropShadow_26:32"/>
<feBlend mode="normal" in="SourceGraphic" in2="effect1_dropShadow_26:32" result="shape"/>
</filter>
<linearGradient id="paint0_linear_26:32" x1="160" y1="0" x2="160" y2="333" gradientUnits="userSpaceOnUse">
<stop stop-color="#007E58"/>
<stop offset="1" stop-color="#2F4D7A" stop-opacity="0.95"/>
</linearGradient>
</defs>
</svg>
