<svg width="332" height="346" viewBox="0 0 332 346" fill="none" xmlns="http://www.w3.org/2000/svg">
<g filter="url(#filter0_d)">
<rect width="320" height="333" fill="url(#paint0_linear)"/>
<path d="M161.094 171.883C159.336 186.922 153.77 198.543 144.395 206.746C135.085 214.884 122.682 218.953 107.188 218.953C90.3906 218.953 76.9141 212.931 66.7578 200.887C56.6667 188.842 51.6211 172.729 51.6211 152.547V138.875C51.6211 125.659 53.9648 114.038 58.6523 104.012C63.4049 93.9857 70.1107 86.3034 78.7695 80.9648C87.4284 75.5612 97.4544 72.8594 108.848 72.8594C123.952 72.8594 136.061 77.0911 145.176 85.5547C154.29 93.9531 159.596 105.607 161.094 120.516H142.246C140.618 109.188 137.07 100.984 131.602 95.9062C126.198 90.8281 118.613 88.2891 108.848 88.2891C96.8685 88.2891 87.4609 92.7161 80.625 101.57C73.8542 110.424 70.4688 123.022 70.4688 139.363V153.133C70.4688 168.562 73.6914 180.835 80.1367 189.949C86.582 199.064 95.599 203.621 107.188 203.621C117.604 203.621 125.579 201.277 131.113 196.59C136.712 191.837 140.423 183.602 142.246 171.883H161.094ZM249.18 217C248.138 214.917 247.292 211.206 246.641 205.867C238.242 214.591 228.216 218.953 216.562 218.953C206.146 218.953 197.585 216.023 190.879 210.164C184.238 204.24 180.918 196.753 180.918 187.703C180.918 176.701 185.085 168.172 193.418 162.117C201.816 155.997 213.6 152.938 228.77 152.938H246.348V144.637C246.348 138.322 244.46 133.309 240.684 129.598C236.908 125.822 231.341 123.934 223.984 123.934C217.539 123.934 212.135 125.561 207.773 128.816C203.411 132.072 201.23 136.01 201.23 140.633H183.066C183.066 135.359 184.922 130.281 188.633 125.398C192.409 120.451 197.487 116.544 203.867 113.68C210.312 110.815 217.376 109.383 225.059 109.383C237.233 109.383 246.771 112.443 253.672 118.562C260.573 124.617 264.154 132.983 264.414 143.66V192.293C264.414 201.993 265.651 209.708 268.125 215.438V217H249.18ZM219.199 203.23C224.863 203.23 230.234 201.766 235.312 198.836C240.391 195.906 244.069 192.098 246.348 187.41V165.73H232.188C210.052 165.73 198.984 172.208 198.984 185.164C198.984 190.828 200.872 195.255 204.648 198.445C208.424 201.635 213.275 203.23 219.199 203.23Z" fill="white"/>
<path d="M41.9961 55H23.3633V52.4023L33.207 41.4648C34.6654 39.8112 35.668 38.4701 36.2148 37.4414C36.7747 36.3997 37.0547 35.3255 37.0547 34.2188C37.0547 32.7344 36.6055 31.5169 35.707 30.5664C34.8086 29.6159 33.6107 29.1406 32.1133 29.1406C30.3164 29.1406 28.9167 29.6549 27.9141 30.6836C26.9245 31.6992 26.4297 33.1185 26.4297 34.9414H22.8164C22.8164 32.3242 23.6562 30.2083 25.3359 28.5938C27.0286 26.9792 29.2878 26.1719 32.1133 26.1719C34.7565 26.1719 36.8464 26.8685 38.3828 28.2617C39.9193 29.6419 40.6875 31.4844 40.6875 33.7891C40.6875 36.5885 38.9036 39.9219 35.3359 43.7891L27.7188 52.0508H41.9961V55ZM63.6562 42.8711C63.6562 47.1029 62.9336 50.2474 61.4883 52.3047C60.043 54.362 57.7839 55.3906 54.7109 55.3906C51.6771 55.3906 49.431 54.388 47.9727 52.3828C46.5143 50.3646 45.7591 47.3568 45.707 43.3594V38.5352C45.707 34.3555 46.4297 31.25 47.875 29.2188C49.3203 27.1875 51.5859 26.1719 54.6719 26.1719C57.7318 26.1719 59.9844 27.1549 61.4297 29.1211C62.875 31.0742 63.6172 34.0951 63.6562 38.1836V42.8711ZM60.043 37.9297C60.043 34.8698 59.6133 32.6432 58.7539 31.25C57.8945 29.8438 56.5339 29.1406 54.6719 29.1406C52.8229 29.1406 51.4753 29.8372 50.6289 31.2305C49.7826 32.6237 49.3464 34.7656 49.3203 37.6562V43.4375C49.3203 46.5104 49.763 48.7826 50.6484 50.2539C51.5469 51.7122 52.901 52.4414 54.7109 52.4414C56.4948 52.4414 57.8164 51.7513 58.6758 50.3711C59.5482 48.9909 60.0039 46.8164 60.043 43.8477V37.9297ZM68.7344 53.1055C68.7344 52.4805 68.9167 51.9596 69.2812 51.543C69.6589 51.1263 70.2188 50.918 70.9609 50.918C71.7031 50.918 72.263 51.1263 72.6406 51.543C73.0312 51.9596 73.2266 52.4805 73.2266 53.1055C73.2266 53.7044 73.0312 54.2057 72.6406 54.6094C72.263 55.013 71.7031 55.2148 70.9609 55.2148C70.2188 55.2148 69.6589 55.013 69.2812 54.6094C68.9167 54.2057 68.7344 53.7044 68.7344 53.1055Z" fill="white"/>
<path d="M99.2734 261.721C98.834 265.48 97.4424 268.386 95.0986 270.437C92.7712 272.471 89.6706 273.488 85.7969 273.488C81.5977 273.488 78.2285 271.983 75.6895 268.972C73.1667 265.961 71.9053 261.932 71.9053 256.887V253.469C71.9053 250.165 72.4912 247.259 73.6631 244.753C74.8512 242.246 76.5277 240.326 78.6924 238.991C80.8571 237.64 83.3636 236.965 86.2119 236.965C89.988 236.965 93.0153 238.023 95.2939 240.139C97.5726 242.238 98.8991 245.152 99.2734 248.879H94.5615C94.1546 246.047 93.2676 243.996 91.9004 242.727C90.5495 241.457 88.6533 240.822 86.2119 240.822C83.2171 240.822 80.8652 241.929 79.1562 244.143C77.4635 246.356 76.6172 249.506 76.6172 253.591V257.033C76.6172 260.891 77.4229 263.959 79.0342 266.237C80.6455 268.516 82.8997 269.655 85.7969 269.655C88.401 269.655 90.3949 269.069 91.7783 267.897C93.1781 266.709 94.1058 264.65 94.5615 261.721H99.2734ZM121.295 273C121.035 272.479 120.823 271.551 120.66 270.217C118.561 272.398 116.054 273.488 113.141 273.488C110.536 273.488 108.396 272.756 106.72 271.291C105.06 269.81 104.229 267.938 104.229 265.676C104.229 262.925 105.271 260.793 107.354 259.279C109.454 257.749 112.4 256.984 116.192 256.984H120.587V254.909C120.587 253.33 120.115 252.077 119.171 251.149C118.227 250.205 116.835 249.733 114.996 249.733C113.385 249.733 112.034 250.14 110.943 250.954C109.853 251.768 109.308 252.753 109.308 253.908H104.767C104.767 252.59 105.23 251.32 106.158 250.1C107.102 248.863 108.372 247.886 109.967 247.17C111.578 246.454 113.344 246.096 115.265 246.096C118.308 246.096 120.693 246.861 122.418 248.391C124.143 249.904 125.038 251.996 125.104 254.665V266.823C125.104 269.248 125.413 271.177 126.031 272.609V273H121.295ZM113.8 269.558C115.216 269.558 116.559 269.191 117.828 268.459C119.098 267.727 120.017 266.774 120.587 265.603V260.183H117.047C111.513 260.183 108.746 261.802 108.746 265.041C108.746 266.457 109.218 267.564 110.162 268.361C111.106 269.159 112.319 269.558 113.8 269.558ZM137.091 273H132.574V235.5H137.091V273ZM154.938 269.802C156.549 269.802 157.957 269.313 159.161 268.337C160.366 267.36 161.033 266.14 161.163 264.675H165.436C165.354 266.188 164.833 267.629 163.873 268.996C162.913 270.363 161.627 271.454 160.016 272.268C158.421 273.081 156.728 273.488 154.938 273.488C151.34 273.488 148.476 272.292 146.344 269.899C144.228 267.491 143.17 264.203 143.17 260.036V259.279C143.17 256.708 143.642 254.421 144.586 252.419C145.53 250.417 146.881 248.863 148.639 247.756C150.413 246.649 152.504 246.096 154.913 246.096C157.875 246.096 160.333 246.983 162.286 248.757C164.256 250.531 165.305 252.834 165.436 255.666H161.163C161.033 253.957 160.382 252.557 159.21 251.467C158.054 250.36 156.622 249.807 154.913 249.807C152.618 249.807 150.836 250.637 149.566 252.297C148.313 253.941 147.687 256.325 147.687 259.45V260.305C147.687 263.348 148.313 265.692 149.566 267.336C150.82 268.98 152.61 269.802 154.938 269.802ZM175.421 273H170.904V246.584H175.421V273ZM170.538 239.577C170.538 238.845 170.758 238.226 171.197 237.722C171.653 237.217 172.32 236.965 173.199 236.965C174.078 236.965 174.745 237.217 175.201 237.722C175.657 238.226 175.885 238.845 175.885 239.577C175.885 240.31 175.657 240.92 175.201 241.408C174.745 241.896 174.078 242.141 173.199 242.141C172.32 242.141 171.653 241.896 171.197 241.408C170.758 240.92 170.538 240.31 170.538 239.577ZM198.98 270.388C197.223 272.455 194.643 273.488 191.241 273.488C188.425 273.488 186.277 272.674 184.796 271.047C183.331 269.403 182.59 266.978 182.574 263.771V246.584H187.091V263.649C187.091 267.653 188.718 269.655 191.974 269.655C195.424 269.655 197.719 268.369 198.858 265.798V246.584H203.375V273H199.078L198.98 270.388ZM214.508 246.584L214.63 249.514C216.567 247.235 219.179 246.096 222.467 246.096C226.161 246.096 228.676 247.512 230.011 250.344C230.89 249.074 232.029 248.049 233.429 247.268C234.845 246.486 236.513 246.096 238.434 246.096C244.228 246.096 247.174 249.164 247.271 255.3V273H242.755V255.568C242.755 253.68 242.324 252.272 241.461 251.345C240.598 250.401 239.15 249.929 237.115 249.929C235.439 249.929 234.047 250.433 232.94 251.442C231.834 252.435 231.191 253.778 231.012 255.471V273H226.471V255.69C226.471 251.849 224.591 249.929 220.831 249.929C217.869 249.929 215.842 251.19 214.752 253.713V273H210.235V246.584H214.508Z" fill="white"/>
<path d="M126.213 305.837H129.172V308.049H126.213V313H123.488V308.049H113.776V306.452L123.327 291.672H126.213V305.837ZM116.853 305.837H123.488V295.378L123.166 295.964L116.853 305.837ZM144.992 303.903C144.992 307.077 144.45 309.436 143.366 310.979C142.282 312.521 140.588 313.293 138.283 313.293C136.008 313.293 134.323 312.541 133.229 311.037C132.136 309.523 131.569 307.268 131.53 304.27V300.651C131.53 297.517 132.072 295.188 133.156 293.664C134.24 292.141 135.939 291.379 138.254 291.379C140.549 291.379 142.238 292.116 143.322 293.591C144.406 295.056 144.963 297.321 144.992 300.388V303.903ZM142.282 300.197C142.282 297.902 141.96 296.232 141.315 295.188C140.671 294.133 139.65 293.605 138.254 293.605C136.867 293.605 135.856 294.128 135.222 295.173C134.587 296.218 134.26 297.824 134.24 299.992V304.328C134.24 306.633 134.572 308.337 135.236 309.44C135.91 310.534 136.926 311.081 138.283 311.081C139.621 311.081 140.612 310.563 141.257 309.528C141.911 308.493 142.253 306.862 142.282 304.636V300.197ZM148.801 311.579C148.801 311.11 148.938 310.72 149.211 310.407C149.494 310.095 149.914 309.938 150.471 309.938C151.027 309.938 151.447 310.095 151.73 310.407C152.023 310.72 152.17 311.11 152.17 311.579C152.17 312.028 152.023 312.404 151.73 312.707C151.447 313.01 151.027 313.161 150.471 313.161C149.914 313.161 149.494 313.01 149.211 312.707C148.938 312.404 148.801 312.028 148.801 311.579ZM169.748 303.903C169.748 307.077 169.206 309.436 168.122 310.979C167.038 312.521 165.344 313.293 163.039 313.293C160.764 313.293 159.079 312.541 157.985 311.037C156.892 309.523 156.325 307.268 156.286 304.27V300.651C156.286 297.517 156.828 295.188 157.912 293.664C158.996 292.141 160.695 291.379 163.01 291.379C165.305 291.379 166.994 292.116 168.078 293.591C169.162 295.056 169.719 297.321 169.748 300.388V303.903ZM167.038 300.197C167.038 297.902 166.716 296.232 166.071 295.188C165.427 294.133 164.406 293.605 163.01 293.605C161.623 293.605 160.612 294.128 159.978 295.173C159.343 296.218 159.016 297.824 158.996 299.992V304.328C158.996 306.633 159.328 308.337 159.992 309.44C160.666 310.534 161.682 311.081 163.039 311.081C164.377 311.081 165.368 310.563 166.013 309.528C166.667 308.493 167.009 306.862 167.038 304.636V300.197ZM186.989 293.195L178.156 313H175.314L184.118 293.898H172.575V291.672H186.989V293.195ZM203 297.238C203 298.303 202.717 299.25 202.15 300.08C201.594 300.91 200.837 301.56 199.88 302.028C200.993 302.507 201.872 303.205 202.517 304.123C203.171 305.041 203.498 306.081 203.498 307.243C203.498 309.089 202.873 310.559 201.623 311.652C200.383 312.746 198.747 313.293 196.716 313.293C194.665 313.293 193.02 312.746 191.779 311.652C190.549 310.549 189.934 309.079 189.934 307.243C189.934 306.091 190.246 305.051 190.871 304.123C191.506 303.195 192.38 302.492 193.493 302.014C192.546 301.545 191.799 300.896 191.252 300.065C190.705 299.235 190.432 298.293 190.432 297.238C190.432 295.441 191.008 294.016 192.16 292.961C193.312 291.906 194.831 291.379 196.716 291.379C198.591 291.379 200.104 291.906 201.257 292.961C202.419 294.016 203 295.441 203 297.238ZM200.788 307.185C200.788 305.993 200.407 305.021 199.646 304.27C198.894 303.518 197.907 303.142 196.687 303.142C195.466 303.142 194.484 303.513 193.742 304.255C193.01 304.997 192.644 305.974 192.644 307.185C192.644 308.396 193 309.348 193.713 310.041C194.436 310.734 195.437 311.081 196.716 311.081C197.985 311.081 198.981 310.734 199.704 310.041C200.427 309.338 200.788 308.386 200.788 307.185ZM196.716 293.605C195.651 293.605 194.787 293.938 194.123 294.602C193.469 295.256 193.142 296.149 193.142 297.282C193.142 298.366 193.464 299.245 194.108 299.919C194.763 300.583 195.632 300.915 196.716 300.915C197.8 300.915 198.664 300.583 199.309 299.919C199.963 299.245 200.29 298.366 200.29 297.282C200.29 296.198 199.953 295.314 199.279 294.631C198.605 293.947 197.751 293.605 196.716 293.605Z" fill="white"/>
</g>
<defs>
<filter id="filter0_d" x="0" y="0" width="332" height="346" filterUnits="userSpaceOnUse" color-interpolation-filters="sRGB">
<feFlood flood-opacity="0" result="BackgroundImageFix"/>
<feColorMatrix in="SourceAlpha" type="matrix" values="0 0 0 0 0 0 0 0 0 0 0 0 0 0 0 0 0 0 127 0" result="hardAlpha"/>
<feOffset dx="8" dy="9"/>
<feGaussianBlur stdDeviation="2"/>
<feComposite in2="hardAlpha" operator="out"/>
<feColorMatrix type="matrix" values="0 0 0 0 0 0 0 0 0 0 0 0 0 0 0 0 0 0 0.25 0"/>
<feBlend mode="normal" in2="BackgroundImageFix" result="effect1_dropShadow"/>
<feBlend mode="normal" in="SourceGraphic" in2="effect1_dropShadow" result="shape"/>
</filter>
<linearGradient id="paint0_linear" x1="160" y1="0" x2="160" y2="333" gradientUnits="userSpaceOnUse">
<stop stop-color="#007E58"/>
<stop offset="1" stop-color="#2F4D7A" stop-opacity="0.95"/>
</linearGradient>
</defs>
</svg>
