<svg width="332" height="346" viewBox="0 0 332 346" fill="none" xmlns="http://www.w3.org/2000/svg">
<g filter="url(#filter0_d)">
<rect width="320" height="333" fill="url(#paint0_linear)"/>
<path d="M216.094 171.883C214.336 186.922 208.77 198.543 199.395 206.746C190.085 214.884 177.682 218.953 162.188 218.953C145.391 218.953 131.914 212.931 121.758 200.887C111.667 188.842 106.621 172.729 106.621 152.547V138.875C106.621 125.659 108.965 114.038 113.652 104.012C118.405 93.9857 125.111 86.3034 133.77 80.9648C142.428 75.5612 152.454 72.8594 163.848 72.8594C178.952 72.8594 191.061 77.0911 200.176 85.5547C209.29 93.9531 214.596 105.607 216.094 120.516H197.246C195.618 109.188 192.07 100.984 186.602 95.9062C181.198 90.8281 173.613 88.2891 163.848 88.2891C151.868 88.2891 142.461 92.7161 135.625 101.57C128.854 110.424 125.469 123.022 125.469 139.363V153.133C125.469 168.562 128.691 180.835 135.137 189.949C141.582 199.064 150.599 203.621 162.188 203.621C172.604 203.621 180.579 201.277 186.113 196.59C191.712 191.837 195.423 183.602 197.246 171.883H216.094Z" fill="white"/>
<path d="M37.5435 26.543V29.6094H36.8794C34.0669 29.6615 31.8273 30.4948 30.1606 32.1094C28.494 33.724 27.5304 35.9961 27.27 38.9258C28.7674 37.207 30.8117 36.3477 33.4028 36.3477C35.8768 36.3477 37.8494 37.2201 39.3208 38.9648C40.8052 40.7096 41.5474 42.9622 41.5474 45.7227C41.5474 48.6523 40.7466 50.9961 39.145 52.7539C37.5565 54.5117 35.4211 55.3906 32.7388 55.3906C30.0174 55.3906 27.8104 54.349 26.1177 52.2656C24.425 50.1693 23.5786 47.474 23.5786 44.1797V42.793C23.5786 37.5586 24.6919 33.5612 26.9185 30.8008C29.158 28.0273 32.4849 26.6081 36.8989 26.543H37.5435ZM32.7974 39.3555C31.5604 39.3555 30.4211 39.7266 29.3794 40.4688C28.3377 41.2109 27.6151 42.1419 27.2114 43.2617V44.5898C27.2114 46.9336 27.7388 48.8216 28.7935 50.2539C29.8481 51.6862 31.1632 52.4023 32.7388 52.4023C34.3664 52.4023 35.6424 51.8034 36.5669 50.6055C37.5044 49.4076 37.9731 47.8385 37.9731 45.8984C37.9731 43.9453 37.4979 42.3698 36.5474 41.1719C35.6099 39.9609 34.3599 39.3555 32.7974 39.3555ZM46.2739 53.1055C46.2739 52.4805 46.4562 51.9596 46.8208 51.543C47.1984 51.1263 47.7583 50.918 48.5005 50.918C49.2427 50.918 49.8026 51.1263 50.1802 51.543C50.5708 51.9596 50.7661 52.4805 50.7661 53.1055C50.7661 53.7044 50.5708 54.2057 50.1802 54.6094C49.8026 55.013 49.2427 55.2148 48.5005 55.2148C47.7583 55.2148 47.1984 55.013 46.8208 54.6094C46.4562 54.2057 46.2739 53.7044 46.2739 53.1055Z" fill="white"/>
<path d="M109.273 261.721C108.834 265.48 107.442 268.386 105.099 270.437C102.771 272.471 99.6706 273.488 95.7969 273.488C91.5977 273.488 88.2285 271.983 85.6895 268.972C83.1667 265.961 81.9053 261.932 81.9053 256.887V253.469C81.9053 250.165 82.4912 247.259 83.6631 244.753C84.8512 242.246 86.5277 240.326 88.6924 238.991C90.8571 237.64 93.3636 236.965 96.2119 236.965C99.988 236.965 103.015 238.023 105.294 240.139C107.573 242.238 108.899 245.152 109.273 248.879H104.562C104.155 246.047 103.268 243.996 101.9 242.727C100.549 241.457 98.6533 240.822 96.2119 240.822C93.2171 240.822 90.8652 241.929 89.1562 244.143C87.4635 246.356 86.6172 249.506 86.6172 253.591V257.033C86.6172 260.891 87.4229 263.959 89.0342 266.237C90.6455 268.516 92.8997 269.655 95.7969 269.655C98.401 269.655 100.395 269.069 101.778 267.897C103.178 266.709 104.106 264.65 104.562 261.721H109.273ZM131.295 273C131.035 272.479 130.823 271.551 130.66 270.217C128.561 272.398 126.054 273.488 123.141 273.488C120.536 273.488 118.396 272.756 116.72 271.291C115.06 269.81 114.229 267.938 114.229 265.676C114.229 262.925 115.271 260.793 117.354 259.279C119.454 257.749 122.4 256.984 126.192 256.984H130.587V254.909C130.587 253.33 130.115 252.077 129.171 251.149C128.227 250.205 126.835 249.733 124.996 249.733C123.385 249.733 122.034 250.14 120.943 250.954C119.853 251.768 119.308 252.753 119.308 253.908H114.767C114.767 252.59 115.23 251.32 116.158 250.1C117.102 248.863 118.372 247.886 119.967 247.17C121.578 246.454 123.344 246.096 125.265 246.096C128.308 246.096 130.693 246.861 132.418 248.391C134.143 249.904 135.038 251.996 135.104 254.665V266.823C135.104 269.248 135.413 271.177 136.031 272.609V273H131.295ZM123.8 269.558C125.216 269.558 126.559 269.191 127.828 268.459C129.098 267.727 130.017 266.774 130.587 265.603V260.183H127.047C121.513 260.183 118.746 261.802 118.746 265.041C118.746 266.457 119.218 267.564 120.162 268.361C121.106 269.159 122.319 269.558 123.8 269.558ZM154.952 250.637C154.269 250.523 153.528 250.466 152.73 250.466C149.768 250.466 147.758 251.727 146.7 254.25V273H142.184V246.584H146.578L146.651 249.636C148.132 247.276 150.232 246.096 152.95 246.096C153.829 246.096 154.496 246.21 154.952 246.438V250.637ZM181.49 260.085C181.49 264.121 180.562 267.368 178.707 269.826C176.852 272.268 174.361 273.488 171.236 273.488C167.9 273.488 165.32 272.308 163.497 269.948L163.277 273H159.127V235.5H163.644V249.489C165.466 247.227 167.981 246.096 171.188 246.096C174.394 246.096 176.909 247.308 178.731 249.733C180.571 252.159 181.49 255.479 181.49 259.694V260.085ZM176.974 259.572C176.974 256.496 176.38 254.12 175.191 252.443C174.003 250.767 172.294 249.929 170.064 249.929C167.086 249.929 164.946 251.312 163.644 254.079V265.505C165.027 268.272 167.184 269.655 170.113 269.655C172.278 269.655 173.963 268.817 175.167 267.141C176.371 265.464 176.974 262.941 176.974 259.572ZM186.007 259.548C186.007 256.96 186.511 254.632 187.521 252.565C188.546 250.498 189.962 248.903 191.769 247.78C193.591 246.657 195.667 246.096 197.994 246.096C201.591 246.096 204.496 247.341 206.71 249.831C208.94 252.321 210.055 255.633 210.055 259.768V260.085C210.055 262.657 209.558 264.968 208.565 267.019C207.589 269.053 206.181 270.64 204.342 271.779C202.519 272.919 200.419 273.488 198.043 273.488C194.462 273.488 191.557 272.243 189.327 269.753C187.114 267.263 186.007 263.967 186.007 259.865V259.548ZM190.548 260.085C190.548 263.015 191.223 265.367 192.574 267.141C193.941 268.915 195.764 269.802 198.043 269.802C200.338 269.802 202.161 268.907 203.512 267.116C204.863 265.31 205.538 262.787 205.538 259.548C205.538 256.651 204.846 254.307 203.463 252.517C202.096 250.71 200.273 249.807 197.994 249.807C195.764 249.807 193.966 250.694 192.599 252.468C191.231 254.242 190.548 256.781 190.548 260.085ZM219.991 246.584L220.138 249.904C222.156 247.365 224.793 246.096 228.048 246.096C233.631 246.096 236.446 249.245 236.495 255.544V273H231.979V255.52C231.962 253.615 231.523 252.207 230.66 251.296C229.814 250.384 228.487 249.929 226.681 249.929C225.216 249.929 223.93 250.319 222.823 251.101C221.716 251.882 220.854 252.907 220.235 254.177V273H215.719V246.584H219.991Z" fill="white"/>
<path d="M116.679 313H113.954V294.938L108.49 296.945V294.484L116.254 291.569H116.679V313ZM138.593 313H124.618V311.052L132.001 302.849C133.095 301.608 133.847 300.603 134.257 299.831C134.677 299.05 134.887 298.244 134.887 297.414C134.887 296.301 134.55 295.388 133.876 294.675C133.202 293.962 132.304 293.605 131.181 293.605C129.833 293.605 128.783 293.991 128.031 294.763C127.289 295.524 126.918 296.589 126.918 297.956H124.208C124.208 295.993 124.838 294.406 126.098 293.195C127.367 291.984 129.062 291.379 131.181 291.379C133.163 291.379 134.73 291.901 135.883 292.946C137.035 293.981 137.611 295.363 137.611 297.092C137.611 299.191 136.273 301.691 133.598 304.592L127.885 310.788H138.593V313ZM141.801 311.579C141.801 311.11 141.938 310.72 142.211 310.407C142.494 310.095 142.914 309.938 143.471 309.938C144.027 309.938 144.447 310.095 144.73 310.407C145.023 310.72 145.17 311.11 145.17 311.579C145.17 312.028 145.023 312.404 144.73 312.707C144.447 313.01 144.027 313.161 143.471 313.161C142.914 313.161 142.494 313.01 142.211 312.707C141.938 312.404 141.801 312.028 141.801 311.579ZM162.748 303.903C162.748 307.077 162.206 309.436 161.122 310.979C160.038 312.521 158.344 313.293 156.039 313.293C153.764 313.293 152.079 312.541 150.985 311.037C149.892 309.523 149.325 307.268 149.286 304.27V300.651C149.286 297.517 149.828 295.188 150.912 293.664C151.996 292.141 153.695 291.379 156.01 291.379C158.305 291.379 159.994 292.116 161.078 293.591C162.162 295.056 162.719 297.321 162.748 300.388V303.903ZM160.038 300.197C160.038 297.902 159.716 296.232 159.071 295.188C158.427 294.133 157.406 293.605 156.01 293.605C154.623 293.605 153.612 294.128 152.978 295.173C152.343 296.218 152.016 297.824 151.996 299.992V304.328C151.996 306.633 152.328 308.337 152.992 309.44C153.666 310.534 154.682 311.081 156.039 311.081C157.377 311.081 158.368 310.563 159.013 309.528C159.667 308.493 160.009 306.862 160.038 304.636V300.197ZM175.126 313H172.401V294.938L166.938 296.945V294.484L174.701 291.569H175.126V313ZM196.439 303.903C196.439 307.077 195.897 309.436 194.813 310.979C193.729 312.521 192.035 313.293 189.73 313.293C187.455 313.293 185.771 312.541 184.677 311.037C183.583 309.523 183.017 307.268 182.978 304.27V300.651C182.978 297.517 183.52 295.188 184.604 293.664C185.688 292.141 187.387 291.379 189.701 291.379C191.996 291.379 193.686 292.116 194.77 293.591C195.854 295.056 196.41 297.321 196.439 300.388V303.903ZM193.729 300.197C193.729 297.902 193.407 296.232 192.763 295.188C192.118 294.133 191.098 293.605 189.701 293.605C188.314 293.605 187.304 294.128 186.669 295.173C186.034 296.218 185.707 297.824 185.688 299.992V304.328C185.688 306.633 186.02 308.337 186.684 309.44C187.357 310.534 188.373 311.081 189.73 311.081C191.068 311.081 192.06 310.563 192.704 309.528C193.358 308.493 193.7 306.862 193.729 304.636V300.197ZM213.681 293.195L204.848 313H202.006L210.81 293.898H199.267V291.672H213.681V293.195Z" fill="white"/>
</g>
<defs>
<filter id="filter0_d" x="0" y="0" width="332" height="346" filterUnits="userSpaceOnUse" color-interpolation-filters="sRGB">
<feFlood flood-opacity="0" result="BackgroundImageFix"/>
<feColorMatrix in="SourceAlpha" type="matrix" values="0 0 0 0 0 0 0 0 0 0 0 0 0 0 0 0 0 0 127 0" result="hardAlpha"/>
<feOffset dx="8" dy="9"/>
<feGaussianBlur stdDeviation="2"/>
<feComposite in2="hardAlpha" operator="out"/>
<feColorMatrix type="matrix" values="0 0 0 0 0 0 0 0 0 0 0 0 0 0 0 0 0 0 0.25 0"/>
<feBlend mode="normal" in2="BackgroundImageFix" result="effect1_dropShadow"/>
<feBlend mode="normal" in="SourceGraphic" in2="effect1_dropShadow" result="shape"/>
</filter>
<linearGradient id="paint0_linear" x1="160" y1="0" x2="160" y2="333" gradientUnits="userSpaceOnUse">
<stop stop-color="#007E58"/>
<stop offset="1" stop-color="#2F4D7A" stop-opacity="0.95"/>
</linearGradient>
</defs>
</svg>
