<svg width="332" height="346" viewBox="0 0 332 346" fill="none" xmlns="http://www.w3.org/2000/svg">
<g filter="url(#filter0_d)">
<rect width="320" height="333" fill="url(#paint0_linear)"/>
<path d="M191.094 171.883C189.336 186.922 183.77 198.543 174.395 206.746C165.085 214.884 152.682 218.953 137.188 218.953C120.391 218.953 106.914 212.931 96.7578 200.887C86.6667 188.842 81.6211 172.729 81.6211 152.547V138.875C81.6211 125.659 83.9648 114.038 88.6523 104.012C93.4049 93.9857 100.111 86.3034 108.77 80.9648C117.428 75.5612 127.454 72.8594 138.848 72.8594C153.952 72.8594 166.061 77.0911 175.176 85.5547C184.29 93.9531 189.596 105.607 191.094 120.516H172.246C170.618 109.188 167.07 100.984 161.602 95.9062C156.198 90.8281 148.613 88.2891 138.848 88.2891C126.868 88.2891 117.461 92.7161 110.625 101.57C103.854 110.424 100.469 123.022 100.469 139.363V153.133C100.469 168.562 103.691 180.835 110.137 189.949C116.582 199.064 125.599 203.621 137.188 203.621C147.604 203.621 155.579 201.277 161.113 196.59C166.712 191.837 170.423 183.602 172.246 171.883H191.094ZM233.574 217H215.508V67H233.574V217Z" fill="white"/>
<path d="M35.2388 55H31.606V30.918L24.3208 33.5938V30.3125L34.6724 26.4258H35.2388V55ZM64.1841 28.5938L52.4067 55H48.6177L60.356 29.5312H44.9653V26.5625H64.1841V28.5938ZM68.7349 53.1055C68.7349 52.4805 68.9172 51.9596 69.2817 51.543C69.6593 51.1263 70.2192 50.918 70.9614 50.918C71.7036 50.918 72.2635 51.1263 72.6411 51.543C73.0317 51.9596 73.2271 52.4805 73.2271 53.1055C73.2271 53.7044 73.0317 54.2057 72.6411 54.6094C72.2635 55.013 71.7036 55.2148 70.9614 55.2148C70.2192 55.2148 69.6593 55.013 69.2817 54.6094C68.9172 54.2057 68.7349 53.7044 68.7349 53.1055Z" fill="white"/>
<path d="M98.2734 261.721C97.834 265.48 96.4424 268.386 94.0986 270.437C91.7712 272.471 88.6706 273.488 84.7969 273.488C80.5977 273.488 77.2285 271.983 74.6895 268.972C72.1667 265.961 70.9053 261.932 70.9053 256.887V253.469C70.9053 250.165 71.4912 247.259 72.6631 244.753C73.8512 242.246 75.5277 240.326 77.6924 238.991C79.8571 237.64 82.3636 236.965 85.2119 236.965C88.988 236.965 92.0153 238.023 94.2939 240.139C96.5726 242.238 97.8991 245.152 98.2734 248.879H93.5615C93.1546 246.047 92.2676 243.996 90.9004 242.727C89.5495 241.457 87.6533 240.822 85.2119 240.822C82.2171 240.822 79.8652 241.929 78.1562 244.143C76.4635 246.356 75.6172 249.506 75.6172 253.591V257.033C75.6172 260.891 76.4229 263.959 78.0342 266.237C79.6455 268.516 81.8997 269.655 84.7969 269.655C87.401 269.655 89.3949 269.069 90.7783 267.897C92.1781 266.709 93.1058 264.65 93.5615 261.721H98.2734ZM108.503 249.782C110.505 247.325 113.109 246.096 116.315 246.096C121.898 246.096 124.714 249.245 124.763 255.544V273H120.246V255.52C120.23 253.615 119.79 252.207 118.928 251.296C118.081 250.384 116.755 249.929 114.948 249.929C113.483 249.929 112.198 250.319 111.091 251.101C109.984 251.882 109.121 252.907 108.503 254.177V273H103.986V235.5H108.503V249.782ZM136.433 273H131.916V235.5H136.433V273ZM142.487 259.548C142.487 256.96 142.992 254.632 144.001 252.565C145.026 250.498 146.442 248.903 148.249 247.78C150.072 246.657 152.147 246.096 154.475 246.096C158.072 246.096 160.977 247.341 163.19 249.831C165.42 252.321 166.535 255.633 166.535 259.768V260.085C166.535 262.657 166.039 264.968 165.046 267.019C164.069 269.053 162.661 270.64 160.822 271.779C158.999 272.919 156.9 273.488 154.523 273.488C150.943 273.488 148.037 272.243 145.808 269.753C143.594 267.263 142.487 263.967 142.487 259.865V259.548ZM147.028 260.085C147.028 263.015 147.704 265.367 149.055 267.141C150.422 268.915 152.245 269.802 154.523 269.802C156.818 269.802 158.641 268.907 159.992 267.116C161.343 265.31 162.019 262.787 162.019 259.548C162.019 256.651 161.327 254.307 159.943 252.517C158.576 250.71 156.753 249.807 154.475 249.807C152.245 249.807 150.446 250.694 149.079 252.468C147.712 254.242 147.028 256.781 147.028 260.085ZM184.968 250.637C184.284 250.523 183.544 250.466 182.746 250.466C179.784 250.466 177.774 251.727 176.716 254.25V273H172.199V246.584H176.594L176.667 249.636C178.148 247.276 180.248 246.096 182.966 246.096C183.845 246.096 184.512 246.21 184.968 246.438V250.637ZM194.05 273H189.533V246.584H194.05V273ZM189.167 239.577C189.167 238.845 189.387 238.226 189.826 237.722C190.282 237.217 190.949 236.965 191.828 236.965C192.707 236.965 193.374 237.217 193.83 237.722C194.286 238.226 194.514 238.845 194.514 239.577C194.514 240.31 194.286 240.92 193.83 241.408C193.374 241.896 192.707 242.141 191.828 242.141C190.949 242.141 190.282 241.896 189.826 241.408C189.387 240.92 189.167 240.31 189.167 239.577ZM205.573 246.584L205.72 249.904C207.738 247.365 210.375 246.096 213.63 246.096C219.213 246.096 222.028 249.245 222.077 255.544V273H217.561V255.52C217.544 253.615 217.105 252.207 216.242 251.296C215.396 250.384 214.069 249.929 212.263 249.929C210.798 249.929 209.512 250.319 208.405 251.101C207.299 251.882 206.436 252.907 205.817 254.177V273H201.301V246.584H205.573ZM239.851 273.488C236.27 273.488 233.356 272.316 231.11 269.973C228.864 267.613 227.741 264.463 227.741 260.524V259.694C227.741 257.074 228.238 254.738 229.23 252.688C230.24 250.62 231.639 249.009 233.43 247.854C235.236 246.682 237.189 246.096 239.289 246.096C242.723 246.096 245.393 247.227 247.297 249.489C249.201 251.752 250.153 254.991 250.153 259.206V261.086H232.258C232.323 263.69 233.08 265.798 234.528 267.409C235.993 269.004 237.849 269.802 240.095 269.802C241.69 269.802 243.041 269.476 244.147 268.825C245.254 268.174 246.223 267.312 247.053 266.237L249.812 268.386C247.598 271.787 244.278 273.488 239.851 273.488ZM239.289 249.807C237.466 249.807 235.936 250.474 234.699 251.809C233.462 253.127 232.697 254.982 232.404 257.375H245.637V257.033C245.507 254.738 244.888 252.964 243.781 251.711C242.674 250.441 241.177 249.807 239.289 249.807Z" fill="white"/>
<path d="M127.713 301.018H129.749C131.028 300.998 132.034 300.661 132.767 300.007C133.499 299.353 133.865 298.469 133.865 297.355C133.865 294.855 132.62 293.605 130.13 293.605C128.958 293.605 128.021 293.942 127.317 294.616C126.624 295.28 126.277 296.164 126.277 297.268H123.567C123.567 295.578 124.183 294.177 125.413 293.063C126.653 291.94 128.226 291.379 130.13 291.379C132.142 291.379 133.719 291.911 134.861 292.976C136.004 294.04 136.575 295.52 136.575 297.414C136.575 298.342 136.272 299.24 135.667 300.109C135.071 300.979 134.256 301.628 133.221 302.058C134.393 302.429 135.296 303.044 135.931 303.903C136.575 304.763 136.897 305.812 136.897 307.053C136.897 308.967 136.272 310.485 135.022 311.608C133.772 312.731 132.146 313.293 130.145 313.293C128.143 313.293 126.512 312.751 125.252 311.667C124.002 310.583 123.377 309.152 123.377 307.375H126.102C126.102 308.498 126.468 309.396 127.2 310.07C127.933 310.744 128.914 311.081 130.145 311.081C131.453 311.081 132.454 310.739 133.147 310.056C133.841 309.372 134.188 308.391 134.188 307.111C134.188 305.871 133.807 304.919 133.045 304.255C132.283 303.591 131.185 303.249 129.749 303.229H127.713V301.018ZM141.863 302.307L142.947 291.672H153.875V294.177H145.247L144.603 299.992C145.647 299.377 146.834 299.069 148.162 299.069C150.105 299.069 151.648 299.714 152.791 301.003C153.934 302.282 154.505 304.016 154.505 306.203C154.505 308.4 153.909 310.134 152.718 311.403C151.536 312.663 149.881 313.293 147.752 313.293C145.867 313.293 144.329 312.771 143.138 311.726C141.946 310.681 141.268 309.235 141.102 307.39H143.665C143.831 308.61 144.266 309.533 144.969 310.158C145.672 310.773 146.6 311.081 147.752 311.081C149.012 311.081 149.998 310.651 150.711 309.792C151.434 308.933 151.795 307.746 151.795 306.232C151.795 304.807 151.404 303.664 150.623 302.805C149.852 301.936 148.821 301.501 147.532 301.501C146.351 301.501 145.423 301.76 144.749 302.277L144.031 302.863L141.863 302.307ZM157.801 311.579C157.801 311.11 157.938 310.72 158.211 310.407C158.494 310.095 158.914 309.938 159.471 309.938C160.027 309.938 160.447 310.095 160.73 310.407C161.023 310.72 161.17 311.11 161.17 311.579C161.17 312.028 161.023 312.404 160.73 312.707C160.447 313.01 160.027 313.161 159.471 313.161C158.914 313.161 158.494 313.01 158.211 312.707C157.938 312.404 157.801 312.028 157.801 311.579ZM176.814 305.837H179.773V308.049H176.814V313H174.09V308.049H164.378V306.452L173.929 291.672H176.814V305.837ZM167.454 305.837H174.09V295.378L173.768 295.964L167.454 305.837ZM183.465 302.307L184.549 291.672H195.477V294.177H186.849L186.204 299.992C187.249 299.377 188.436 299.069 189.764 299.069C191.707 299.069 193.25 299.714 194.393 301.003C195.535 302.282 196.106 304.016 196.106 306.203C196.106 308.4 195.511 310.134 194.319 311.403C193.138 312.663 191.482 313.293 189.354 313.293C187.469 313.293 185.931 312.771 184.739 311.726C183.548 310.681 182.869 309.235 182.703 307.39H185.267C185.433 308.61 185.867 309.533 186.57 310.158C187.273 310.773 188.201 311.081 189.354 311.081C190.613 311.081 191.6 310.651 192.312 309.792C193.035 308.933 193.396 307.746 193.396 306.232C193.396 304.807 193.006 303.664 192.225 302.805C191.453 301.936 190.423 301.501 189.134 301.501C187.952 301.501 187.024 301.76 186.351 302.277L185.633 302.863L183.465 302.307Z" fill="white"/>
</g>
<defs>
<filter id="filter0_d" x="0" y="0" width="332" height="346" filterUnits="userSpaceOnUse" color-interpolation-filters="sRGB">
<feFlood flood-opacity="0" result="BackgroundImageFix"/>
<feColorMatrix in="SourceAlpha" type="matrix" values="0 0 0 0 0 0 0 0 0 0 0 0 0 0 0 0 0 0 127 0" result="hardAlpha"/>
<feOffset dx="8" dy="9"/>
<feGaussianBlur stdDeviation="2"/>
<feComposite in2="hardAlpha" operator="out"/>
<feColorMatrix type="matrix" values="0 0 0 0 0 0 0 0 0 0 0 0 0 0 0 0 0 0 0.25 0"/>
<feBlend mode="normal" in2="BackgroundImageFix" result="effect1_dropShadow"/>
<feBlend mode="normal" in="SourceGraphic" in2="effect1_dropShadow" result="shape"/>
</filter>
<linearGradient id="paint0_linear" x1="160" y1="0" x2="160" y2="333" gradientUnits="userSpaceOnUse">
<stop stop-color="#007E58"/>
<stop offset="1" stop-color="#2F4D7A" stop-opacity="0.95"/>
</linearGradient>
</defs>
</svg>
