<svg width="332" height="346" viewBox="0 0 332 346" fill="none" xmlns="http://www.w3.org/2000/svg">
<g filter="url(#filter0_d)">
<rect width="320" height="333" fill="url(#paint0_linear)"/>
<path d="M182.094 171.883C180.336 186.922 174.77 198.543 165.395 206.746C156.085 214.884 143.682 218.953 128.188 218.953C111.391 218.953 97.9141 212.931 87.7578 200.887C77.6667 188.842 72.6211 172.729 72.6211 152.547V138.875C72.6211 125.659 74.9648 114.038 79.6523 104.012C84.4049 93.9857 91.1107 86.3034 99.7695 80.9648C108.428 75.5612 118.454 72.8594 129.848 72.8594C144.952 72.8594 157.061 77.0911 166.176 85.5547C175.29 93.9531 180.596 105.607 182.094 120.516H163.246C161.618 109.188 158.07 100.984 152.602 95.9062C147.198 90.8281 139.613 88.2891 129.848 88.2891C117.868 88.2891 108.461 92.7161 101.625 101.57C94.8542 110.424 91.4688 123.022 91.4688 139.363V153.133C91.4688 168.562 94.6914 180.835 101.137 189.949C107.582 199.064 116.599 203.621 128.188 203.621C138.604 203.621 146.579 201.277 152.113 196.59C157.712 191.837 161.423 183.602 163.246 171.883H182.094ZM256.02 127.547C253.285 127.091 250.323 126.863 247.133 126.863C235.284 126.863 227.243 131.909 223.012 142V217H204.945V111.336H222.523L222.816 123.543C228.741 114.103 237.139 109.383 248.012 109.383C251.527 109.383 254.197 109.839 256.02 110.75V127.547Z" fill="white"/>
<path d="M41.9961 55H23.3633V52.4023L33.207 41.4648C34.6654 39.8112 35.668 38.4701 36.2148 37.4414C36.7747 36.3997 37.0547 35.3255 37.0547 34.2188C37.0547 32.7344 36.6055 31.5169 35.707 30.5664C34.8086 29.6159 33.6107 29.1406 32.1133 29.1406C30.3164 29.1406 28.9167 29.6549 27.9141 30.6836C26.9245 31.6992 26.4297 33.1185 26.4297 34.9414H22.8164C22.8164 32.3242 23.6562 30.2083 25.3359 28.5938C27.0286 26.9792 29.2878 26.1719 32.1133 26.1719C34.7565 26.1719 36.8464 26.8685 38.3828 28.2617C39.9193 29.6419 40.6875 31.4844 40.6875 33.7891C40.6875 36.5885 38.9036 39.9219 35.3359 43.7891L27.7188 52.0508H41.9961V55ZM61.0781 45.4492H65.0234V48.3984H61.0781V55H57.4453V48.3984H44.4961V46.2695L57.2305 26.5625H61.0781V45.4492ZM48.5977 45.4492H57.4453V31.5039L57.0156 32.2852L48.5977 45.4492ZM68.7344 53.1055C68.7344 52.4805 68.9167 51.9596 69.2812 51.543C69.6589 51.1263 70.2188 50.918 70.9609 50.918C71.7031 50.918 72.263 51.1263 72.6406 51.543C73.0312 51.9596 73.2266 52.4805 73.2266 53.1055C73.2266 53.7044 73.0312 54.2057 72.6406 54.6094C72.263 55.013 71.7031 55.2148 70.9609 55.2148C70.2188 55.2148 69.6589 55.013 69.2812 54.6094C68.9167 54.2057 68.7344 53.7044 68.7344 53.1055Z" fill="white"/>
<path d="M74.2734 261.721C73.834 265.48 72.4424 268.386 70.0986 270.437C67.7712 272.471 64.6706 273.488 60.7969 273.488C56.5977 273.488 53.2285 271.983 50.6895 268.972C48.1667 265.961 46.9053 261.932 46.9053 256.887V253.469C46.9053 250.165 47.4912 247.259 48.6631 244.753C49.8512 242.246 51.5277 240.326 53.6924 238.991C55.8571 237.64 58.3636 236.965 61.2119 236.965C64.988 236.965 68.0153 238.023 70.2939 240.139C72.5726 242.238 73.8991 245.152 74.2734 248.879H69.5615C69.1546 246.047 68.2676 243.996 66.9004 242.727C65.5495 241.457 63.6533 240.822 61.2119 240.822C58.2171 240.822 55.8652 241.929 54.1562 244.143C52.4635 246.356 51.6172 249.506 51.6172 253.591V257.033C51.6172 260.891 52.4229 263.959 54.0342 266.237C55.6455 268.516 57.8997 269.655 60.7969 269.655C63.401 269.655 65.3949 269.069 66.7783 267.897C68.1781 266.709 69.1058 264.65 69.5615 261.721H74.2734ZM84.5029 249.782C86.5049 247.325 89.109 246.096 92.3154 246.096C97.8981 246.096 100.714 249.245 100.763 255.544V273H96.2461V255.52C96.2298 253.615 95.7904 252.207 94.9277 251.296C94.0814 250.384 92.7549 249.929 90.9482 249.929C89.4834 249.929 88.1976 250.319 87.0908 251.101C85.984 251.882 85.1214 252.907 84.5029 254.177V273H79.9863V235.5H84.5029V249.782ZM120.294 250.637C119.61 250.523 118.87 250.466 118.072 250.466C115.11 250.466 113.1 251.727 112.042 254.25V273H107.525V246.584H111.92L111.993 249.636C113.474 247.276 115.574 246.096 118.292 246.096C119.171 246.096 119.838 246.21 120.294 246.438V250.637ZM122.784 259.548C122.784 256.96 123.289 254.632 124.298 252.565C125.323 250.498 126.739 248.903 128.546 247.78C130.369 246.657 132.444 246.096 134.771 246.096C138.368 246.096 141.274 247.341 143.487 249.831C145.717 252.321 146.832 255.633 146.832 259.768V260.085C146.832 262.657 146.336 264.968 145.343 267.019C144.366 269.053 142.958 270.64 141.119 271.779C139.296 272.919 137.197 273.488 134.82 273.488C131.24 273.488 128.334 272.243 126.104 269.753C123.891 267.263 122.784 263.967 122.784 259.865V259.548ZM127.325 260.085C127.325 263.015 128.001 265.367 129.352 267.141C130.719 268.915 132.542 269.802 134.82 269.802C137.115 269.802 138.938 268.907 140.289 267.116C141.64 265.31 142.315 262.787 142.315 259.548C142.315 256.651 141.624 254.307 140.24 252.517C138.873 250.71 137.05 249.807 134.771 249.807C132.542 249.807 130.743 250.694 129.376 252.468C128.009 254.242 127.325 256.781 127.325 260.085ZM156.744 246.584L156.866 249.514C158.803 247.235 161.415 246.096 164.703 246.096C168.398 246.096 170.912 247.512 172.247 250.344C173.126 249.074 174.265 248.049 175.665 247.268C177.081 246.486 178.749 246.096 180.67 246.096C186.464 246.096 189.41 249.164 189.508 255.3V273H184.991V255.568C184.991 253.68 184.56 252.272 183.697 251.345C182.835 250.401 181.386 249.929 179.352 249.929C177.675 249.929 176.284 250.433 175.177 251.442C174.07 252.435 173.427 253.778 173.248 255.471V273H168.707V255.69C168.707 251.849 166.827 249.929 163.067 249.929C160.105 249.929 158.079 251.19 156.988 253.713V273H152.472V246.584H156.744ZM201.251 273H196.734V246.584H201.251V273ZM196.368 239.577C196.368 238.845 196.588 238.226 197.027 237.722C197.483 237.217 198.15 236.965 199.029 236.965C199.908 236.965 200.576 237.217 201.031 237.722C201.487 238.226 201.715 238.845 201.715 239.577C201.715 240.31 201.487 240.92 201.031 241.408C200.576 241.896 199.908 242.141 199.029 242.141C198.15 242.141 197.483 241.896 197.027 241.408C196.588 240.92 196.368 240.31 196.368 239.577ZM224.811 270.388C223.053 272.455 220.473 273.488 217.071 273.488C214.256 273.488 212.107 272.674 210.626 271.047C209.161 269.403 208.421 266.978 208.404 263.771V246.584H212.921V263.649C212.921 267.653 214.549 269.655 217.804 269.655C221.254 269.655 223.549 268.369 224.688 265.798V246.584H229.205V273H224.908L224.811 270.388ZM240.338 246.584L240.46 249.514C242.397 247.235 245.009 246.096 248.297 246.096C251.992 246.096 254.506 247.512 255.841 250.344C256.72 249.074 257.859 248.049 259.259 247.268C260.675 246.486 262.343 246.096 264.264 246.096C270.058 246.096 273.004 249.164 273.102 255.3V273H268.585V255.568C268.585 253.68 268.154 252.272 267.291 251.345C266.428 250.401 264.98 249.929 262.945 249.929C261.269 249.929 259.877 250.433 258.771 251.442C257.664 252.435 257.021 253.778 256.842 255.471V273H252.301V255.69C252.301 251.849 250.421 249.929 246.661 249.929C243.699 249.929 241.673 251.19 240.582 253.713V273H236.065V246.584H240.338Z" fill="white"/>
<path d="M116.018 302.307L117.102 291.672H128.029V294.177H119.401L118.757 299.992C119.802 299.377 120.988 299.069 122.316 299.069C124.26 299.069 125.803 299.714 126.945 301.003C128.088 302.282 128.659 304.016 128.659 306.203C128.659 308.4 128.063 310.134 126.872 311.403C125.69 312.663 124.035 313.293 121.906 313.293C120.021 313.293 118.483 312.771 117.292 311.726C116.101 310.681 115.422 309.235 115.256 307.39H117.819C117.985 308.61 118.42 309.533 119.123 310.158C119.826 310.773 120.754 311.081 121.906 311.081C123.166 311.081 124.152 310.651 124.865 309.792C125.588 308.933 125.949 307.746 125.949 306.232C125.949 304.807 125.559 303.664 124.777 302.805C124.006 301.936 122.976 301.501 121.687 301.501C120.505 301.501 119.577 301.76 118.903 302.277L118.186 302.863L116.018 302.307ZM140.524 313H137.8V294.938L132.336 296.945V294.484L140.1 291.569H140.524V313ZM148.801 311.579C148.801 311.11 148.938 310.72 149.211 310.407C149.494 310.095 149.914 309.938 150.471 309.938C151.027 309.938 151.447 310.095 151.73 310.407C152.023 310.72 152.17 311.11 152.17 311.579C152.17 312.028 152.023 312.404 151.73 312.707C151.447 313.01 151.027 313.161 150.471 313.161C149.914 313.161 149.494 313.01 149.211 312.707C148.938 312.404 148.801 312.028 148.801 311.579ZM166.76 303.625C166.193 304.299 165.515 304.841 164.724 305.251C163.942 305.661 163.083 305.866 162.146 305.866C160.915 305.866 159.841 305.563 158.923 304.958C158.015 304.353 157.312 303.503 156.813 302.409C156.315 301.306 156.066 300.09 156.066 298.762C156.066 297.336 156.335 296.052 156.872 294.909C157.419 293.767 158.19 292.893 159.187 292.287C160.183 291.682 161.345 291.379 162.673 291.379C164.782 291.379 166.442 292.17 167.653 293.752C168.874 295.324 169.484 297.473 169.484 300.197V300.988C169.484 305.139 168.664 308.171 167.023 310.085C165.383 311.989 162.907 312.966 159.597 313.015H159.069V310.729H159.641C161.877 310.69 163.596 310.109 164.797 308.986C165.998 307.854 166.652 306.066 166.76 303.625ZM162.585 303.625C163.493 303.625 164.328 303.347 165.09 302.79C165.861 302.233 166.423 301.545 166.774 300.725V299.641C166.774 297.863 166.389 296.418 165.617 295.305C164.846 294.191 163.869 293.635 162.688 293.635C161.496 293.635 160.539 294.094 159.816 295.012C159.094 295.92 158.732 297.121 158.732 298.615C158.732 300.07 159.079 301.271 159.772 302.219C160.476 303.156 161.413 303.625 162.585 303.625ZM183.605 303.625C183.039 304.299 182.36 304.841 181.569 305.251C180.788 305.661 179.929 305.866 178.991 305.866C177.761 305.866 176.687 305.563 175.769 304.958C174.86 304.353 174.157 303.503 173.659 302.409C173.161 301.306 172.912 300.09 172.912 298.762C172.912 297.336 173.181 296.052 173.718 294.909C174.265 293.767 175.036 292.893 176.032 292.287C177.028 291.682 178.19 291.379 179.519 291.379C181.628 291.379 183.288 292.17 184.499 293.752C185.72 295.324 186.33 297.473 186.33 300.197V300.988C186.33 305.139 185.51 308.171 183.869 310.085C182.229 311.989 179.753 312.966 176.442 313.015H175.915V310.729H176.486C178.723 310.69 180.441 310.109 181.643 308.986C182.844 307.854 183.498 306.066 183.605 303.625ZM179.431 303.625C180.339 303.625 181.174 303.347 181.936 302.79C182.707 302.233 183.269 301.545 183.62 300.725V299.641C183.62 297.863 183.234 296.418 182.463 295.305C181.691 294.191 180.715 293.635 179.533 293.635C178.342 293.635 177.385 294.094 176.662 295.012C175.939 295.92 175.578 297.121 175.578 298.615C175.578 300.07 175.925 301.271 176.618 302.219C177.321 303.156 178.259 303.625 179.431 303.625ZM200.7 291.657V293.957H200.202C198.093 293.996 196.413 294.621 195.163 295.832C193.913 297.043 193.19 298.747 192.995 300.944C194.118 299.655 195.651 299.011 197.595 299.011C199.45 299.011 200.93 299.665 202.033 300.974C203.146 302.282 203.703 303.972 203.703 306.042C203.703 308.239 203.103 309.997 201.901 311.315C200.71 312.634 199.108 313.293 197.097 313.293C195.056 313.293 193.4 312.512 192.131 310.949C190.861 309.377 190.227 307.355 190.227 304.885V303.845C190.227 299.919 191.062 296.921 192.731 294.851C194.411 292.771 196.906 291.706 200.217 291.657H200.7ZM197.141 301.267C196.213 301.267 195.358 301.545 194.577 302.102C193.796 302.658 193.254 303.356 192.951 304.196V305.192C192.951 306.95 193.347 308.366 194.138 309.44C194.929 310.515 195.915 311.052 197.097 311.052C198.317 311.052 199.274 310.603 199.968 309.704C200.671 308.806 201.022 307.629 201.022 306.174C201.022 304.709 200.666 303.527 199.953 302.629C199.25 301.721 198.312 301.267 197.141 301.267Z" fill="white"/>
</g>
<defs>
<filter id="filter0_d" x="0" y="0" width="332" height="346" filterUnits="userSpaceOnUse" color-interpolation-filters="sRGB">
<feFlood flood-opacity="0" result="BackgroundImageFix"/>
<feColorMatrix in="SourceAlpha" type="matrix" values="0 0 0 0 0 0 0 0 0 0 0 0 0 0 0 0 0 0 127 0" result="hardAlpha"/>
<feOffset dx="8" dy="9"/>
<feGaussianBlur stdDeviation="2"/>
<feComposite in2="hardAlpha" operator="out"/>
<feColorMatrix type="matrix" values="0 0 0 0 0 0 0 0 0 0 0 0 0 0 0 0 0 0 0.25 0"/>
<feBlend mode="normal" in2="BackgroundImageFix" result="effect1_dropShadow"/>
<feBlend mode="normal" in="SourceGraphic" in2="effect1_dropShadow" result="shape"/>
</filter>
<linearGradient id="paint0_linear" x1="160" y1="0" x2="160" y2="333" gradientUnits="userSpaceOnUse">
<stop stop-color="#007E58"/>
<stop offset="1" stop-color="#2F4D7A" stop-opacity="0.95"/>
</linearGradient>
</defs>
</svg>
