<svg width="332" height="346" viewBox="0 0 332 346" fill="none" xmlns="http://www.w3.org/2000/svg">
<g filter="url(#filter0_d_17:26)">
<rect width="320" height="333" fill="url(#paint0_linear_17:26)"/>
<path d="M160.094 171.883C158.336 186.922 152.77 198.543 143.395 206.746C134.085 214.884 121.682 218.953 106.188 218.953C89.3906 218.953 75.9141 212.931 65.7578 200.887C55.6667 188.842 50.6211 172.729 50.6211 152.547V138.875C50.6211 125.659 52.9648 114.038 57.6523 104.012C62.4049 93.9857 69.1107 86.3034 77.7695 80.9648C86.4284 75.5612 96.4544 72.8594 107.848 72.8594C122.952 72.8594 135.061 77.0911 144.176 85.5547C153.29 93.9531 158.596 105.607 160.094 120.516H141.246C139.618 109.188 136.07 100.984 130.602 95.9062C125.198 90.8281 117.613 88.2891 107.848 88.2891C95.8685 88.2891 86.4609 92.7161 79.625 101.57C72.8542 110.424 69.4688 123.022 69.4688 139.363V153.133C69.4688 168.562 72.6914 180.835 79.1367 189.949C85.582 199.064 94.599 203.621 106.188 203.621C116.604 203.621 124.579 201.277 130.113 196.59C135.712 191.837 139.423 183.602 141.246 171.883H160.094ZM248.18 206.551C241.148 214.819 230.829 218.953 217.223 218.953C205.96 218.953 197.366 215.698 191.441 209.188C185.582 202.612 182.62 192.911 182.555 180.086V111.336H200.621V179.598C200.621 195.613 207.132 203.621 220.152 203.621C233.954 203.621 243.134 198.478 247.691 188.191V111.336H265.758V217H248.57L248.18 206.551Z" fill="white"/>
<path d="M41.9961 55H23.3633V52.4023L33.207 41.4648C34.6654 39.8112 35.668 38.4701 36.2148 37.4414C36.7747 36.3997 37.0547 35.3255 37.0547 34.2188C37.0547 32.7344 36.6055 31.5169 35.707 30.5664C34.8086 29.6159 33.6107 29.1406 32.1133 29.1406C30.3164 29.1406 28.9167 29.6549 27.9141 30.6836C26.9245 31.6992 26.4297 33.1185 26.4297 34.9414H22.8164C22.8164 32.3242 23.6562 30.2083 25.3359 28.5938C27.0286 26.9792 29.2878 26.1719 32.1133 26.1719C34.7565 26.1719 36.8464 26.8685 38.3828 28.2617C39.9193 29.6419 40.6875 31.4844 40.6875 33.7891C40.6875 36.5885 38.9036 39.9219 35.3359 43.7891L27.7188 52.0508H41.9961V55ZM59.6719 42.5C58.9167 43.3984 58.0117 44.1211 56.957 44.668C55.9154 45.2148 54.7695 45.4883 53.5195 45.4883C51.8789 45.4883 50.4466 45.0846 49.2227 44.2773C48.0117 43.4701 47.0742 42.3372 46.4102 40.8789C45.7461 39.4076 45.4141 37.7865 45.4141 36.0156C45.4141 34.1146 45.7721 32.4023 46.4883 30.8789C47.2174 29.3555 48.2461 28.1901 49.5742 27.3828C50.9023 26.5755 52.4518 26.1719 54.2227 26.1719C57.0352 26.1719 59.2487 27.2266 60.8633 29.3359C62.4909 31.4323 63.3047 34.2969 63.3047 37.9297V38.9844C63.3047 44.5182 62.2109 48.5612 60.0234 51.1133C57.8359 53.6523 54.5352 54.9544 50.1211 55.0195H49.418V51.9727H50.1797C53.1615 51.9206 55.4531 51.1458 57.0547 49.6484C58.6562 48.138 59.5286 45.7552 59.6719 42.5ZM54.1055 42.5C55.3164 42.5 56.4297 42.1289 57.4453 41.3867C58.474 40.6445 59.2227 39.7266 59.6914 38.6328V37.1875C59.6914 34.8177 59.1771 32.8906 58.1484 31.4062C57.1198 29.9219 55.8177 29.1797 54.2422 29.1797C52.6536 29.1797 51.3776 29.7917 50.4141 31.0156C49.4505 32.2266 48.9688 33.8281 48.9688 35.8203C48.9688 37.7604 49.431 39.362 50.3555 40.625C51.293 41.875 52.543 42.5 54.1055 42.5ZM68.7344 53.1055C68.7344 52.4805 68.9167 51.9596 69.2812 51.543C69.6589 51.1263 70.2188 50.918 70.9609 50.918C71.7031 50.918 72.263 51.1263 72.6406 51.543C73.0312 51.9596 73.2266 52.4805 73.2266 53.1055C73.2266 53.7044 73.0312 54.2057 72.6406 54.6094C72.263 55.013 71.7031 55.2148 70.9609 55.2148C70.2188 55.2148 69.6589 55.013 69.2812 54.6094C68.9167 54.2057 68.7344 53.7044 68.7344 53.1055Z" fill="white"/>
<path d="M109.273 261.721C108.834 265.48 107.442 268.386 105.099 270.437C102.771 272.471 99.6706 273.488 95.7969 273.488C91.5977 273.488 88.2285 271.983 85.6895 268.972C83.1667 265.961 81.9053 261.932 81.9053 256.887V253.469C81.9053 250.165 82.4912 247.259 83.6631 244.753C84.8512 242.246 86.5277 240.326 88.6924 238.991C90.8571 237.64 93.3636 236.965 96.2119 236.965C99.988 236.965 103.015 238.023 105.294 240.139C107.573 242.238 108.899 245.152 109.273 248.879H104.562C104.155 246.047 103.268 243.996 101.9 242.727C100.549 241.457 98.6533 240.822 96.2119 240.822C93.2171 240.822 90.8652 241.929 89.1562 244.143C87.4635 246.356 86.6172 249.506 86.6172 253.591V257.033C86.6172 260.891 87.4229 263.959 89.0342 266.237C90.6455 268.516 92.8997 269.655 95.7969 269.655C98.401 269.655 100.395 269.069 101.778 267.897C103.178 266.709 104.106 264.65 104.562 261.721H109.273ZM113.79 259.548C113.79 256.96 114.295 254.632 115.304 252.565C116.329 250.498 117.745 248.903 119.552 247.78C121.375 246.657 123.45 246.096 125.777 246.096C129.374 246.096 132.28 247.341 134.493 249.831C136.723 252.321 137.838 255.633 137.838 259.768V260.085C137.838 262.657 137.341 264.968 136.349 267.019C135.372 269.053 133.964 270.64 132.125 271.779C130.302 272.919 128.202 273.488 125.826 273.488C122.245 273.488 119.34 272.243 117.11 269.753C114.897 267.263 113.79 263.967 113.79 259.865V259.548ZM118.331 260.085C118.331 263.015 119.007 265.367 120.357 267.141C121.725 268.915 123.548 269.802 125.826 269.802C128.121 269.802 129.944 268.907 131.295 267.116C132.646 265.31 133.321 262.787 133.321 259.548C133.321 256.651 132.63 254.307 131.246 252.517C129.879 250.71 128.056 249.807 125.777 249.807C123.548 249.807 121.749 250.694 120.382 252.468C119.015 254.242 118.331 256.781 118.331 260.085ZM165.816 260.085C165.816 264.105 164.897 267.344 163.058 269.802C161.218 272.259 158.728 273.488 155.587 273.488C152.381 273.488 149.858 272.471 148.019 270.437V283.156H143.502V246.584H147.628L147.848 249.514C149.687 247.235 152.242 246.096 155.514 246.096C158.688 246.096 161.194 247.292 163.033 249.685C164.889 252.077 165.816 255.406 165.816 259.67V260.085ZM161.3 259.572C161.3 256.594 160.665 254.242 159.396 252.517C158.126 250.791 156.384 249.929 154.171 249.929C151.437 249.929 149.386 251.141 148.019 253.566V266.188C149.369 268.597 151.437 269.802 154.22 269.802C156.384 269.802 158.102 268.947 159.371 267.238C160.657 265.513 161.3 262.958 161.3 259.572ZM193.893 260.085C193.893 264.105 192.973 267.344 191.134 269.802C189.295 272.259 186.804 273.488 183.663 273.488C180.457 273.488 177.934 272.471 176.095 270.437V283.156H171.578V246.584H175.704L175.924 249.514C177.763 247.235 180.318 246.096 183.59 246.096C186.764 246.096 189.27 247.292 191.109 249.685C192.965 252.077 193.893 255.406 193.893 259.67V260.085ZM189.376 259.572C189.376 256.594 188.741 254.242 187.472 252.517C186.202 250.791 184.461 249.929 182.247 249.929C179.513 249.929 177.462 251.141 176.095 253.566V266.188C177.446 268.597 179.513 269.802 182.296 269.802C184.461 269.802 186.178 268.947 187.447 267.238C188.733 265.513 189.376 262.958 189.376 259.572ZM210.616 273.488C207.035 273.488 204.122 272.316 201.876 269.973C199.63 267.613 198.507 264.463 198.507 260.524V259.694C198.507 257.074 199.003 254.738 199.996 252.688C201.005 250.62 202.405 249.009 204.195 247.854C206.002 246.682 207.955 246.096 210.055 246.096C213.489 246.096 216.158 247.227 218.062 249.489C219.967 251.752 220.919 254.991 220.919 259.206V261.086H203.023C203.089 263.69 203.845 265.798 205.294 267.409C206.759 269.004 208.614 269.802 210.86 269.802C212.455 269.802 213.806 269.476 214.913 268.825C216.02 268.174 216.988 267.312 217.818 266.237L220.577 268.386C218.364 271.787 215.043 273.488 210.616 273.488ZM210.055 249.807C208.232 249.807 206.702 250.474 205.465 251.809C204.228 253.127 203.463 254.982 203.17 257.375H216.402V257.033C216.272 254.738 215.654 252.964 214.547 251.711C213.44 250.441 211.943 249.807 210.055 249.807ZM238.937 250.637C238.253 250.523 237.512 250.466 236.715 250.466C233.753 250.466 231.743 251.727 230.685 254.25V273H226.168V246.584H230.562L230.636 249.636C232.117 247.276 234.216 246.096 236.935 246.096C237.813 246.096 238.481 246.21 238.937 246.438V250.637Z" fill="white"/>
<path d="M125.407 291.657V293.957H124.909C122.8 293.996 121.12 294.621 119.87 295.832C118.62 297.043 117.897 298.747 117.702 300.944C118.825 299.655 120.358 299.011 122.302 299.011C124.157 299.011 125.637 299.665 126.74 300.974C127.854 302.282 128.41 303.972 128.41 306.042C128.41 308.239 127.81 309.997 126.608 311.315C125.417 312.634 123.815 313.293 121.804 313.293C119.763 313.293 118.107 312.512 116.838 310.949C115.568 309.377 114.934 307.355 114.934 304.885V303.845C114.934 299.919 115.769 296.921 117.438 294.851C119.118 292.771 121.613 291.706 124.924 291.657H125.407ZM121.848 301.267C120.92 301.267 120.065 301.545 119.284 302.102C118.503 302.658 117.961 303.356 117.658 304.196V305.192C117.658 306.95 118.054 308.366 118.845 309.44C119.636 310.515 120.622 311.052 121.804 311.052C123.024 311.052 123.981 310.603 124.675 309.704C125.378 308.806 125.729 307.629 125.729 306.174C125.729 304.709 125.373 303.527 124.66 302.629C123.957 301.721 123.02 301.267 121.848 301.267ZM135.559 301.018H137.595C138.874 300.998 139.88 300.661 140.612 300.007C141.345 299.353 141.711 298.469 141.711 297.355C141.711 294.855 140.466 293.605 137.976 293.605C136.804 293.605 135.866 293.942 135.163 294.616C134.47 295.28 134.123 296.164 134.123 297.268H131.413C131.413 295.578 132.028 294.177 133.259 293.063C134.499 291.94 136.071 291.379 137.976 291.379C139.987 291.379 141.564 291.911 142.707 292.976C143.85 294.04 144.421 295.52 144.421 297.414C144.421 298.342 144.118 299.24 143.513 300.109C142.917 300.979 142.102 301.628 141.066 302.058C142.238 302.429 143.142 303.044 143.776 303.903C144.421 304.763 144.743 305.812 144.743 307.053C144.743 308.967 144.118 310.485 142.868 311.608C141.618 312.731 139.992 313.293 137.99 313.293C135.988 313.293 134.357 312.751 133.098 311.667C131.848 310.583 131.223 309.152 131.223 307.375H133.947C133.947 308.498 134.313 309.396 135.046 310.07C135.778 310.744 136.76 311.081 137.99 311.081C139.299 311.081 140.3 310.739 140.993 310.056C141.687 309.372 142.033 308.391 142.033 307.111C142.033 305.871 141.652 304.919 140.891 304.255C140.129 303.591 139.03 303.249 137.595 303.229H135.559V301.018ZM148.801 311.579C148.801 311.11 148.938 310.72 149.211 310.407C149.494 310.095 149.914 309.938 150.471 309.938C151.027 309.938 151.447 310.095 151.73 310.407C152.023 310.72 152.17 311.11 152.17 311.579C152.17 312.028 152.023 312.404 151.73 312.707C151.447 313.01 151.027 313.161 150.471 313.161C149.914 313.161 149.494 313.01 149.211 312.707C148.938 312.404 148.801 312.028 148.801 311.579ZM157.619 302.307L158.703 291.672H169.631V294.177H161.003L160.358 299.992C161.403 299.377 162.59 299.069 163.918 299.069C165.861 299.069 167.404 299.714 168.547 301.003C169.689 302.282 170.261 304.016 170.261 306.203C170.261 308.4 169.665 310.134 168.474 311.403C167.292 312.663 165.637 313.293 163.508 313.293C161.623 313.293 160.085 312.771 158.894 311.726C157.702 310.681 157.023 309.235 156.857 307.39H159.421C159.587 308.61 160.021 309.533 160.725 310.158C161.428 310.773 162.355 311.081 163.508 311.081C164.768 311.081 165.754 310.651 166.467 309.792C167.189 308.933 167.551 307.746 167.551 306.232C167.551 304.807 167.16 303.664 166.379 302.805C165.607 301.936 164.577 301.501 163.288 301.501C162.106 301.501 161.179 301.76 160.505 302.277L159.787 302.863L157.619 302.307ZM184.66 305.837H187.619V308.049H184.66V313H181.936V308.049H172.224V306.452L181.774 291.672H184.66V305.837ZM175.3 305.837H181.936V295.378L181.613 295.964L175.3 305.837ZM200.7 291.657V293.957H200.202C198.093 293.996 196.413 294.621 195.163 295.832C193.913 297.043 193.19 298.747 192.995 300.944C194.118 299.655 195.651 299.011 197.595 299.011C199.45 299.011 200.93 299.665 202.033 300.974C203.146 302.282 203.703 303.972 203.703 306.042C203.703 308.239 203.103 309.997 201.901 311.315C200.71 312.634 199.108 313.293 197.097 313.293C195.056 313.293 193.4 312.512 192.131 310.949C190.861 309.377 190.227 307.355 190.227 304.885V303.845C190.227 299.919 191.062 296.921 192.731 294.851C194.411 292.771 196.906 291.706 200.217 291.657H200.7ZM197.141 301.267C196.213 301.267 195.358 301.545 194.577 302.102C193.796 302.658 193.254 303.356 192.951 304.196V305.192C192.951 306.95 193.347 308.366 194.138 309.44C194.929 310.515 195.915 311.052 197.097 311.052C198.317 311.052 199.274 310.603 199.968 309.704C200.671 308.806 201.022 307.629 201.022 306.174C201.022 304.709 200.666 303.527 199.953 302.629C199.25 301.721 198.312 301.267 197.141 301.267Z" fill="white"/>
</g>
<defs>
<filter id="filter0_d_17:26" x="0" y="0" width="332" height="346" filterUnits="userSpaceOnUse" color-interpolation-filters="sRGB">
<feFlood flood-opacity="0" result="BackgroundImageFix"/>
<feColorMatrix in="SourceAlpha" type="matrix" values="0 0 0 0 0 0 0 0 0 0 0 0 0 0 0 0 0 0 127 0" result="hardAlpha"/>
<feOffset dx="8" dy="9"/>
<feGaussianBlur stdDeviation="2"/>
<feComposite in2="hardAlpha" operator="out"/>
<feColorMatrix type="matrix" values="0 0 0 0 0 0 0 0 0 0 0 0 0 0 0 0 0 0 0.25 0"/>
<feBlend mode="normal" in2="BackgroundImageFix" result="effect1_dropShadow_17:26"/>
<feBlend mode="normal" in="SourceGraphic" in2="effect1_dropShadow_17:26" result="shape"/>
</filter>
<linearGradient id="paint0_linear_17:26" x1="160" y1="0" x2="160" y2="333" gradientUnits="userSpaceOnUse">
<stop stop-color="#007E58"/>
<stop offset="1" stop-color="#2F4D7A" stop-opacity="0.95"/>
</linearGradient>
</defs>
</svg>
