<svg width="332" height="346" viewBox="0 0 332 346" fill="none" xmlns="http://www.w3.org/2000/svg">
<g filter="url(#filter0_d_45:26)">
<rect width="320" height="333" fill="url(#paint0_linear_45:26)"/>
<path d="M35.2383 55H31.6055V30.918L24.3203 33.5938V30.3125L34.6719 26.4258H35.2383V55ZM57.6992 55H54.0664V30.918L46.7812 33.5938V30.3125L57.1328 26.4258H57.6992V55ZM86.1172 42.8711C86.1172 47.1029 85.3945 50.2474 83.9492 52.3047C82.5039 54.362 80.2448 55.3906 77.1719 55.3906C74.138 55.3906 71.8919 54.388 70.4336 52.3828C68.9753 50.3646 68.2201 47.3568 68.168 43.3594V38.5352C68.168 34.3555 68.8906 31.25 70.3359 29.2188C71.7812 27.1875 74.0469 26.1719 77.1328 26.1719C80.1927 26.1719 82.4453 27.1549 83.8906 29.1211C85.3359 31.0742 86.0781 34.0951 86.1172 38.1836V42.8711ZM82.5039 37.9297C82.5039 34.8698 82.0742 32.6432 81.2148 31.25C80.3555 29.8438 78.9948 29.1406 77.1328 29.1406C75.2839 29.1406 73.9362 29.8372 73.0898 31.2305C72.2435 32.6237 71.8073 34.7656 71.7812 37.6562V43.4375C71.7812 46.5104 72.224 48.7826 73.1094 50.2539C74.0078 51.7122 75.362 52.4414 77.1719 52.4414C78.9557 52.4414 80.2773 51.7513 81.1367 50.3711C82.0091 48.9909 82.4648 46.8164 82.5039 43.8477V37.9297ZM91.1953 53.1055C91.1953 52.4805 91.3776 51.9596 91.7422 51.543C92.1198 51.1263 92.6797 50.918 93.4219 50.918C94.1641 50.918 94.724 51.1263 95.1016 51.543C95.4922 51.9596 95.6875 52.4805 95.6875 53.1055C95.6875 53.7044 95.4922 54.2057 95.1016 54.6094C94.724 55.013 94.1641 55.2148 93.4219 55.2148C92.6797 55.2148 92.1198 55.013 91.7422 54.6094C91.3776 54.2057 91.1953 53.7044 91.1953 53.1055Z" fill="white"/>
<path d="M59.5039 217V74.8125H99.6406C112.01 74.8125 122.948 77.5469 132.453 83.0156C141.958 88.4844 149.283 96.2643 154.426 106.355C159.634 116.447 162.271 128.035 162.336 141.121V150.203C162.336 163.615 159.732 175.366 154.523 185.457C149.38 195.548 141.991 203.296 132.355 208.699C122.785 214.103 111.62 216.87 98.8594 217H59.5039ZM78.2539 90.2422V201.668H97.9805C112.434 201.668 123.664 197.176 131.672 188.191C139.745 179.207 143.781 166.414 143.781 149.812V141.512C143.781 125.366 139.973 112.833 132.355 103.914C124.803 94.9297 114.061 90.3724 100.129 90.2422H78.2539ZM249.445 188.973C249.445 184.09 247.59 180.314 243.879 177.645C240.233 174.91 233.82 172.566 224.641 170.613C215.526 168.66 208.267 166.316 202.863 163.582C197.525 160.848 193.553 157.592 190.949 153.816C188.41 150.04 187.141 145.548 187.141 140.34C187.141 131.681 190.786 124.357 198.078 118.367C205.435 112.378 214.81 109.383 226.203 109.383C238.182 109.383 247.883 112.475 255.305 118.66C262.792 124.845 266.535 132.755 266.535 142.391H248.371C248.371 137.443 246.255 133.178 242.023 129.598C237.857 126.017 232.583 124.227 226.203 124.227C219.628 124.227 214.484 125.659 210.773 128.523C207.062 131.388 205.207 135.132 205.207 139.754C205.207 144.116 206.932 147.404 210.383 149.617C213.833 151.831 220.051 153.947 229.035 155.965C238.085 157.983 245.409 160.392 251.008 163.191C256.607 165.991 260.741 169.376 263.41 173.348C266.145 177.254 267.512 182.039 267.512 187.703C267.512 197.143 263.736 204.728 256.184 210.457C248.632 216.121 238.833 218.953 226.789 218.953C218.326 218.953 210.839 217.456 204.328 214.461C197.818 211.466 192.707 207.299 188.996 201.961C185.35 196.557 183.527 190.73 183.527 184.48H201.594C201.919 190.535 204.328 195.353 208.82 198.934C213.378 202.449 219.367 204.207 226.789 204.207C233.625 204.207 239.094 202.84 243.195 200.105C247.362 197.306 249.445 193.595 249.445 188.973Z" fill="white"/>
<path d="M7.12598 273V237.453H17.1602C20.2526 237.453 22.987 238.137 25.3633 239.504C27.7396 240.871 29.5706 242.816 30.8564 245.339C32.1585 247.862 32.8177 250.759 32.834 254.03V256.301C32.834 259.654 32.1829 262.591 30.8809 265.114C29.5951 267.637 27.7477 269.574 25.3389 270.925C22.9463 272.276 20.1549 272.967 16.9648 273H7.12598ZM11.8135 241.311V269.167H16.7451C20.3584 269.167 23.166 268.044 25.168 265.798C27.1862 263.552 28.1953 260.354 28.1953 256.203V254.128C28.1953 250.091 27.2432 246.958 25.3389 244.729C23.4508 242.482 20.7653 241.343 17.2822 241.311H11.8135ZM55.5391 273C55.2786 272.479 55.0671 271.551 54.9043 270.217C52.8047 272.398 50.2982 273.488 47.3848 273.488C44.7806 273.488 42.6403 272.756 40.9639 271.291C39.3037 269.81 38.4736 267.938 38.4736 265.676C38.4736 262.925 39.5153 260.793 41.5986 259.279C43.6982 257.749 46.6442 256.984 50.4365 256.984H54.8311V254.909C54.8311 253.33 54.359 252.077 53.415 251.149C52.471 250.205 51.0794 249.733 49.2402 249.733C47.6289 249.733 46.278 250.14 45.1875 250.954C44.097 251.768 43.5518 252.753 43.5518 253.908H39.0107C39.0107 252.59 39.4746 251.32 40.4023 250.1C41.3464 248.863 42.6159 247.886 44.2109 247.17C45.8223 246.454 47.5882 246.096 49.5088 246.096C52.5524 246.096 54.9368 246.861 56.6621 248.391C58.3874 249.904 59.2826 251.996 59.3477 254.665V266.823C59.3477 269.248 59.6569 271.177 60.2754 272.609V273H55.5391ZM48.0439 269.558C49.46 269.558 50.8027 269.191 52.0723 268.459C53.3418 267.727 54.2614 266.774 54.8311 265.603V260.183H51.291C45.7572 260.183 42.9902 261.802 42.9902 265.041C42.9902 266.457 43.4622 267.564 44.4062 268.361C45.3503 269.159 46.5628 269.558 48.0439 269.558ZM79.1963 250.637C78.5127 250.523 77.7721 250.466 76.9746 250.466C74.0124 250.466 72.0023 251.727 70.9443 254.25V273H66.4277V246.584H70.8223L70.8955 249.636C72.3766 247.276 74.4762 246.096 77.1943 246.096C78.0732 246.096 78.7406 246.21 79.1963 246.438V250.637ZM87.6191 246.584L87.7412 249.514C89.6781 247.235 92.2904 246.096 95.5781 246.096C99.2728 246.096 101.787 247.512 103.122 250.344C104.001 249.074 105.14 248.049 106.54 247.268C107.956 246.486 109.624 246.096 111.545 246.096C117.339 246.096 120.285 249.164 120.383 255.3V273H115.866V255.568C115.866 253.68 115.435 252.272 114.572 251.345C113.71 250.401 112.261 249.929 110.227 249.929C108.55 249.929 107.159 250.433 106.052 251.442C104.945 252.435 104.302 253.778 104.123 255.471V273H99.582V255.69C99.582 251.849 97.7021 249.929 93.9424 249.929C90.9801 249.929 88.9538 251.19 87.8633 253.713V273H83.3467V246.584H87.6191ZM142.6 265.993C142.6 264.772 142.136 263.828 141.208 263.161C140.297 262.478 138.693 261.892 136.398 261.403C134.12 260.915 132.305 260.329 130.954 259.646C129.619 258.962 128.627 258.148 127.976 257.204C127.341 256.26 127.023 255.137 127.023 253.835C127.023 251.67 127.935 249.839 129.758 248.342C131.597 246.844 133.941 246.096 136.789 246.096C139.784 246.096 142.209 246.869 144.064 248.415C145.936 249.961 146.872 251.939 146.872 254.348H142.331C142.331 253.111 141.802 252.045 140.744 251.149C139.702 250.254 138.384 249.807 136.789 249.807C135.145 249.807 133.859 250.165 132.932 250.881C132.004 251.597 131.54 252.533 131.54 253.688C131.54 254.779 131.971 255.601 132.834 256.154C133.697 256.708 135.251 257.237 137.497 257.741C139.759 258.246 141.59 258.848 142.99 259.548C144.39 260.248 145.424 261.094 146.091 262.087C146.774 263.063 147.116 264.26 147.116 265.676C147.116 268.036 146.172 269.932 144.284 271.364C142.396 272.78 139.947 273.488 136.936 273.488C134.82 273.488 132.948 273.114 131.32 272.365C129.693 271.617 128.415 270.575 127.487 269.24C126.576 267.889 126.12 266.433 126.12 264.87H130.637C130.718 266.384 131.32 267.588 132.443 268.483C133.583 269.362 135.08 269.802 136.936 269.802C138.645 269.802 140.012 269.46 141.037 268.776C142.079 268.076 142.6 267.149 142.6 265.993ZM159.128 240.188V246.584H164.06V250.075H159.128V266.457C159.128 267.515 159.348 268.312 159.787 268.85C160.227 269.37 160.975 269.631 162.033 269.631C162.554 269.631 163.27 269.533 164.182 269.338V273C162.993 273.326 161.838 273.488 160.715 273.488C158.697 273.488 157.175 272.878 156.149 271.657C155.124 270.437 154.611 268.703 154.611 266.457V250.075H149.802V246.584H154.611V240.188H159.128ZM185.666 273C185.406 272.479 185.194 271.551 185.031 270.217C182.932 272.398 180.425 273.488 177.512 273.488C174.908 273.488 172.767 272.756 171.091 271.291C169.431 269.81 168.601 267.938 168.601 265.676C168.601 262.925 169.642 260.793 171.726 259.279C173.825 257.749 176.771 256.984 180.563 256.984H184.958V254.909C184.958 253.33 184.486 252.077 183.542 251.149C182.598 250.205 181.206 249.733 179.367 249.733C177.756 249.733 176.405 250.14 175.314 250.954C174.224 251.768 173.679 252.753 173.679 253.908H169.138C169.138 252.59 169.602 251.32 170.529 250.1C171.473 248.863 172.743 247.886 174.338 247.17C175.949 246.454 177.715 246.096 179.636 246.096C182.679 246.096 185.064 246.861 186.789 248.391C188.514 249.904 189.41 251.996 189.475 254.665V266.823C189.475 269.248 189.784 271.177 190.402 272.609V273H185.666ZM178.171 269.558C179.587 269.558 180.93 269.191 182.199 268.459C183.469 267.727 184.388 266.774 184.958 265.603V260.183H181.418C175.884 260.183 173.117 261.802 173.117 265.041C173.117 266.457 173.589 267.564 174.533 268.361C175.477 269.159 176.69 269.558 178.171 269.558ZM195.456 259.572C195.456 255.52 196.416 252.264 198.337 249.807C200.257 247.333 202.772 246.096 205.881 246.096C208.973 246.096 211.423 247.154 213.229 249.27V235.5H217.746V273H213.596L213.376 270.168C211.569 272.382 209.055 273.488 205.832 273.488C202.772 273.488 200.274 272.235 198.337 269.729C196.416 267.222 195.456 263.951 195.456 259.914V259.572ZM199.973 260.085C199.973 263.08 200.591 265.424 201.828 267.116C203.065 268.809 204.774 269.655 206.955 269.655C209.82 269.655 211.911 268.369 213.229 265.798V253.664C211.879 251.174 209.803 249.929 207.004 249.929C204.79 249.929 203.065 250.783 201.828 252.492C200.591 254.201 199.973 256.732 199.973 260.085ZM230.905 240.188V246.584H235.837V250.075H230.905V266.457C230.905 267.515 231.125 268.312 231.564 268.85C232.004 269.37 232.753 269.631 233.811 269.631C234.331 269.631 235.048 269.533 235.959 269.338V273C234.771 273.326 233.615 273.488 232.492 273.488C230.474 273.488 228.952 272.878 227.927 271.657C226.901 270.437 226.389 268.703 226.389 266.457V250.075H221.579V246.584H226.389V240.188H230.905ZM246.042 273H241.525V246.584H246.042V273ZM241.159 239.577C241.159 238.845 241.379 238.226 241.818 237.722C242.274 237.217 242.941 236.965 243.82 236.965C244.699 236.965 245.367 237.217 245.822 237.722C246.278 238.226 246.506 238.845 246.506 239.577C246.506 240.31 246.278 240.92 245.822 241.408C245.367 241.896 244.699 242.141 243.82 242.141C242.941 242.141 242.274 241.896 241.818 241.408C241.379 240.92 241.159 240.31 241.159 239.577ZM269.602 270.388C267.844 272.455 265.264 273.488 261.862 273.488C259.047 273.488 256.898 272.674 255.417 271.047C253.952 269.403 253.212 266.978 253.195 263.771V246.584H257.712V263.649C257.712 267.653 259.34 269.655 262.595 269.655C266.045 269.655 268.34 268.369 269.479 265.798V246.584H273.996V273H269.699L269.602 270.388ZM285.129 246.584L285.251 249.514C287.188 247.235 289.8 246.096 293.088 246.096C296.783 246.096 299.297 247.512 300.632 250.344C301.511 249.074 302.65 248.049 304.05 247.268C305.466 246.486 307.134 246.096 309.055 246.096C314.849 246.096 317.795 249.164 317.893 255.3V273H313.376V255.568C313.376 253.68 312.945 252.272 312.082 251.345C311.219 250.401 309.771 249.929 307.736 249.929C306.06 249.929 304.668 250.433 303.562 251.442C302.455 252.435 301.812 253.778 301.633 255.471V273H297.092V255.69C297.092 251.849 295.212 249.929 291.452 249.929C288.49 249.929 286.464 251.19 285.373 253.713V273H280.856V246.584H285.129Z" fill="white"/>
<path d="M150.747 313H136.772V311.052L144.155 302.849C145.249 301.608 146.001 300.603 146.411 299.831C146.831 299.05 147.041 298.244 147.041 297.414C147.041 296.301 146.704 295.388 146.03 294.675C145.356 293.962 144.458 293.605 143.335 293.605C141.987 293.605 140.938 293.991 140.186 294.763C139.443 295.524 139.072 296.589 139.072 297.956H136.362C136.362 295.993 136.992 294.406 138.252 293.195C139.521 291.984 141.216 291.379 143.335 291.379C145.317 291.379 146.885 291.901 148.037 292.946C149.189 293.981 149.766 295.363 149.766 297.092C149.766 299.191 148.428 301.691 145.752 304.592L140.039 310.788H150.747V313ZM167.388 293.195L158.555 313H155.713L164.517 293.898H152.974V291.672H167.388V293.195ZM179.37 313H176.646V294.938L171.182 296.945V294.484L178.945 291.569H179.37V313Z" fill="white"/>
</g>
<defs>
<filter id="filter0_d_45:26" x="0" y="0" width="332" height="346" filterUnits="userSpaceOnUse" color-interpolation-filters="sRGB">
<feFlood flood-opacity="0" result="BackgroundImageFix"/>
<feColorMatrix in="SourceAlpha" type="matrix" values="0 0 0 0 0 0 0 0 0 0 0 0 0 0 0 0 0 0 127 0" result="hardAlpha"/>
<feOffset dx="8" dy="9"/>
<feGaussianBlur stdDeviation="2"/>
<feComposite in2="hardAlpha" operator="out"/>
<feColorMatrix type="matrix" values="0 0 0 0 0 0 0 0 0 0 0 0 0 0 0 0 0 0 0.25 0"/>
<feBlend mode="normal" in2="BackgroundImageFix" result="effect1_dropShadow_45:26"/>
<feBlend mode="normal" in="SourceGraphic" in2="effect1_dropShadow_45:26" result="shape"/>
</filter>
<linearGradient id="paint0_linear_45:26" x1="160" y1="0" x2="160" y2="333" gradientUnits="userSpaceOnUse">
<stop stop-color="#007E58"/>
<stop offset="1" stop-color="#2F4D7A" stop-opacity="0.95"/>
</linearGradient>
</defs>
</svg>
