<svg width="332" height="346" viewBox="0 0 332 346" fill="none" xmlns="http://www.w3.org/2000/svg">
<g filter="url(#filter0_d)">
<rect width="320" height="333" fill="url(#paint0_linear)"/>
<path d="M198.922 154.207H139.254V217H120.504V74.8125H208.59V90.2422H139.254V138.875H198.922V154.207Z" fill="white"/>
<path d="M37.2114 42.5C36.4562 43.3984 35.5513 44.1211 34.4966 44.668C33.4549 45.2148 32.3091 45.4883 31.0591 45.4883C29.4185 45.4883 27.9862 45.0846 26.7622 44.2773C25.5513 43.4701 24.6138 42.3372 23.9497 40.8789C23.2856 39.4076 22.9536 37.7865 22.9536 36.0156C22.9536 34.1146 23.3117 32.4023 24.0278 30.8789C24.757 29.3555 25.7856 28.1901 27.1138 27.3828C28.4419 26.5755 29.9914 26.1719 31.7622 26.1719C34.5747 26.1719 36.7882 27.2266 38.4028 29.3359C40.0304 31.4323 40.8442 34.2969 40.8442 37.9297V38.9844C40.8442 44.5182 39.7505 48.5612 37.563 51.1133C35.3755 53.6523 32.0747 54.9544 27.6606 55.0195H26.9575V51.9727H27.7192C30.701 51.9206 32.9927 51.1458 34.5942 49.6484C36.1958 48.138 37.0682 45.7552 37.2114 42.5ZM31.645 42.5C32.856 42.5 33.9692 42.1289 34.9849 41.3867C36.0135 40.6445 36.7622 39.7266 37.231 38.6328V37.1875C37.231 34.8177 36.7166 32.8906 35.688 31.4062C34.6593 29.9219 33.3573 29.1797 31.7817 29.1797C30.1932 29.1797 28.9172 29.7917 27.9536 31.0156C26.9901 32.2266 26.5083 33.8281 26.5083 35.8203C26.5083 37.7604 26.9705 39.362 27.895 40.625C28.8325 41.875 30.0825 42.5 31.645 42.5ZM46.2739 53.1055C46.2739 52.4805 46.4562 51.9596 46.8208 51.543C47.1984 51.1263 47.7583 50.918 48.5005 50.918C49.2427 50.918 49.8026 51.1263 50.1802 51.543C50.5708 51.9596 50.7661 52.4805 50.7661 53.1055C50.7661 53.7044 50.5708 54.2057 50.1802 54.6094C49.8026 55.013 49.2427 55.2148 48.5005 55.2148C47.7583 55.2148 47.1984 55.013 46.8208 54.6094C46.4562 54.2057 46.2739 53.7044 46.2739 53.1055Z" fill="white"/>
<path d="M93.7305 257.302H78.8135V273H74.126V237.453H96.1475V241.311H78.8135V253.469H93.7305V257.302ZM105.962 273H101.445V235.5H105.962V273ZM129.521 270.388C127.764 272.455 125.184 273.488 121.782 273.488C118.966 273.488 116.818 272.674 115.337 271.047C113.872 269.403 113.132 266.978 113.115 263.771V246.584H117.632V263.649C117.632 267.653 119.259 269.655 122.515 269.655C125.965 269.655 128.26 268.369 129.399 265.798V246.584H133.916V273H129.619L129.521 270.388ZM139.604 259.548C139.604 256.96 140.109 254.632 141.118 252.565C142.144 250.498 143.56 248.903 145.366 247.78C147.189 246.657 149.264 246.096 151.592 246.096C155.189 246.096 158.094 247.341 160.308 249.831C162.537 252.321 163.652 255.633 163.652 259.768V260.085C163.652 262.657 163.156 264.968 162.163 267.019C161.187 269.053 159.779 270.64 157.939 271.779C156.117 272.919 154.017 273.488 151.641 273.488C148.06 273.488 145.155 272.243 142.925 269.753C140.711 267.263 139.604 263.967 139.604 259.865V259.548ZM144.146 260.085C144.146 263.015 144.821 265.367 146.172 267.141C147.539 268.915 149.362 269.802 151.641 269.802C153.936 269.802 155.758 268.907 157.109 267.116C158.46 265.31 159.136 262.787 159.136 259.548C159.136 256.651 158.444 254.307 157.061 252.517C155.693 250.71 153.87 249.807 151.592 249.807C149.362 249.807 147.563 250.694 146.196 252.468C144.829 254.242 144.146 256.781 144.146 260.085ZM182.085 250.637C181.401 250.523 180.661 250.466 179.863 250.466C176.901 250.466 174.891 251.727 173.833 254.25V273H169.316V246.584H173.711L173.784 249.636C175.265 247.276 177.365 246.096 180.083 246.096C180.962 246.096 181.629 246.21 182.085 246.438V250.637ZM191.167 273H186.65V246.584H191.167V273ZM186.284 239.577C186.284 238.845 186.504 238.226 186.943 237.722C187.399 237.217 188.066 236.965 188.945 236.965C189.824 236.965 190.492 237.217 190.947 237.722C191.403 238.226 191.631 238.845 191.631 239.577C191.631 240.31 191.403 240.92 190.947 241.408C190.492 241.896 189.824 242.141 188.945 242.141C188.066 242.141 187.399 241.896 186.943 241.408C186.504 240.92 186.284 240.31 186.284 239.577ZM202.69 246.584L202.837 249.904C204.855 247.365 207.492 246.096 210.747 246.096C216.33 246.096 219.146 249.245 219.194 255.544V273H214.678V255.52C214.661 253.615 214.222 252.207 213.359 251.296C212.513 250.384 211.187 249.929 209.38 249.929C207.915 249.929 206.629 250.319 205.522 251.101C204.416 251.882 203.553 252.907 202.935 254.177V273H198.418V246.584H202.69ZM236.968 273.488C233.387 273.488 230.474 272.316 228.228 269.973C225.981 267.613 224.858 264.463 224.858 260.524V259.694C224.858 257.074 225.355 254.738 226.348 252.688C227.357 250.62 228.757 249.009 230.547 247.854C232.354 246.682 234.307 246.096 236.406 246.096C239.84 246.096 242.51 247.227 244.414 249.489C246.318 251.752 247.271 254.991 247.271 259.206V261.086H229.375C229.44 263.69 230.197 265.798 231.646 267.409C233.11 269.004 234.966 269.802 237.212 269.802C238.807 269.802 240.158 269.476 241.265 268.825C242.371 268.174 243.34 267.312 244.17 266.237L246.929 268.386C244.715 271.787 241.395 273.488 236.968 273.488ZM236.406 249.807C234.583 249.807 233.053 250.474 231.816 251.809C230.579 253.127 229.814 254.982 229.521 257.375H242.754V257.033C242.624 254.738 242.005 252.964 240.898 251.711C239.792 250.441 238.294 249.807 236.406 249.807Z" fill="white"/>
<path d="M123.679 313H120.954V294.938L115.49 296.945V294.484L123.254 291.569H123.679V313ZM144.553 297.238C144.553 298.303 144.27 299.25 143.703 300.08C143.146 300.91 142.39 301.56 141.433 302.028C142.546 302.507 143.425 303.205 144.069 304.123C144.724 305.041 145.051 306.081 145.051 307.243C145.051 309.089 144.426 310.559 143.176 311.652C141.936 312.746 140.3 313.293 138.269 313.293C136.218 313.293 134.572 312.746 133.332 311.652C132.102 310.549 131.486 309.079 131.486 307.243C131.486 306.091 131.799 305.051 132.424 304.123C133.059 303.195 133.933 302.492 135.046 302.014C134.099 301.545 133.352 300.896 132.805 300.065C132.258 299.235 131.984 298.293 131.984 297.238C131.984 295.441 132.561 294.016 133.713 292.961C134.865 291.906 136.384 291.379 138.269 291.379C140.144 291.379 141.657 291.906 142.81 292.961C143.972 294.016 144.553 295.441 144.553 297.238ZM142.341 307.185C142.341 305.993 141.96 305.021 141.198 304.27C140.446 303.518 139.46 303.142 138.239 303.142C137.019 303.142 136.037 303.513 135.295 304.255C134.562 304.997 134.196 305.974 134.196 307.185C134.196 308.396 134.553 309.348 135.266 310.041C135.988 310.734 136.989 311.081 138.269 311.081C139.538 311.081 140.534 310.734 141.257 310.041C141.979 309.338 142.341 308.386 142.341 307.185ZM138.269 293.605C137.204 293.605 136.34 293.938 135.676 294.602C135.021 295.256 134.694 296.149 134.694 297.282C134.694 298.366 135.017 299.245 135.661 299.919C136.315 300.583 137.185 300.915 138.269 300.915C139.353 300.915 140.217 300.583 140.861 299.919C141.516 299.245 141.843 298.366 141.843 297.282C141.843 296.198 141.506 295.314 140.832 294.631C140.158 293.947 139.304 293.605 138.269 293.605ZM148.801 311.579C148.801 311.11 148.938 310.72 149.211 310.407C149.494 310.095 149.914 309.938 150.471 309.938C151.027 309.938 151.447 310.095 151.73 310.407C152.023 310.72 152.17 311.11 152.17 311.579C152.17 312.028 152.023 312.404 151.73 312.707C151.447 313.01 151.027 313.161 150.471 313.161C149.914 313.161 149.494 313.01 149.211 312.707C148.938 312.404 148.801 312.028 148.801 311.579ZM166.76 303.625C166.193 304.299 165.515 304.841 164.724 305.251C163.942 305.661 163.083 305.866 162.146 305.866C160.915 305.866 159.841 305.563 158.923 304.958C158.015 304.353 157.312 303.503 156.813 302.409C156.315 301.306 156.066 300.09 156.066 298.762C156.066 297.336 156.335 296.052 156.872 294.909C157.419 293.767 158.19 292.893 159.187 292.287C160.183 291.682 161.345 291.379 162.673 291.379C164.782 291.379 166.442 292.17 167.653 293.752C168.874 295.324 169.484 297.473 169.484 300.197V300.988C169.484 305.139 168.664 308.171 167.023 310.085C165.383 311.989 162.907 312.966 159.597 313.015H159.069V310.729H159.641C161.877 310.69 163.596 310.109 164.797 308.986C165.998 307.854 166.652 306.066 166.76 303.625ZM162.585 303.625C163.493 303.625 164.328 303.347 165.09 302.79C165.861 302.233 166.423 301.545 166.774 300.725V299.641C166.774 297.863 166.389 296.418 165.617 295.305C164.846 294.191 163.869 293.635 162.688 293.635C161.496 293.635 160.539 294.094 159.816 295.012C159.094 295.92 158.732 297.121 158.732 298.615C158.732 300.07 159.079 301.271 159.772 302.219C160.476 303.156 161.413 303.625 162.585 303.625ZM183.605 303.625C183.039 304.299 182.36 304.841 181.569 305.251C180.788 305.661 179.929 305.866 178.991 305.866C177.761 305.866 176.687 305.563 175.769 304.958C174.86 304.353 174.157 303.503 173.659 302.409C173.161 301.306 172.912 300.09 172.912 298.762C172.912 297.336 173.181 296.052 173.718 294.909C174.265 293.767 175.036 292.893 176.032 292.287C177.028 291.682 178.19 291.379 179.519 291.379C181.628 291.379 183.288 292.17 184.499 293.752C185.72 295.324 186.33 297.473 186.33 300.197V300.988C186.33 305.139 185.51 308.171 183.869 310.085C182.229 311.989 179.753 312.966 176.442 313.015H175.915V310.729H176.486C178.723 310.69 180.441 310.109 181.643 308.986C182.844 307.854 183.498 306.066 183.605 303.625ZM179.431 303.625C180.339 303.625 181.174 303.347 181.936 302.79C182.707 302.233 183.269 301.545 183.62 300.725V299.641C183.62 297.863 183.234 296.418 182.463 295.305C181.691 294.191 180.715 293.635 179.533 293.635C178.342 293.635 177.385 294.094 176.662 295.012C175.939 295.92 175.578 297.121 175.578 298.615C175.578 300.07 175.925 301.271 176.618 302.219C177.321 303.156 178.259 303.625 179.431 303.625ZM203 297.238C203 298.303 202.717 299.25 202.15 300.08C201.594 300.91 200.837 301.56 199.88 302.028C200.993 302.507 201.872 303.205 202.517 304.123C203.171 305.041 203.498 306.081 203.498 307.243C203.498 309.089 202.873 310.559 201.623 311.652C200.383 312.746 198.747 313.293 196.716 313.293C194.665 313.293 193.02 312.746 191.779 311.652C190.549 310.549 189.934 309.079 189.934 307.243C189.934 306.091 190.246 305.051 190.871 304.123C191.506 303.195 192.38 302.492 193.493 302.014C192.546 301.545 191.799 300.896 191.252 300.065C190.705 299.235 190.432 298.293 190.432 297.238C190.432 295.441 191.008 294.016 192.16 292.961C193.312 291.906 194.831 291.379 196.716 291.379C198.591 291.379 200.104 291.906 201.257 292.961C202.419 294.016 203 295.441 203 297.238ZM200.788 307.185C200.788 305.993 200.407 305.021 199.646 304.27C198.894 303.518 197.907 303.142 196.687 303.142C195.466 303.142 194.484 303.513 193.742 304.255C193.01 304.997 192.644 305.974 192.644 307.185C192.644 308.396 193 309.348 193.713 310.041C194.436 310.734 195.437 311.081 196.716 311.081C197.985 311.081 198.981 310.734 199.704 310.041C200.427 309.338 200.788 308.386 200.788 307.185ZM196.716 293.605C195.651 293.605 194.787 293.938 194.123 294.602C193.469 295.256 193.142 296.149 193.142 297.282C193.142 298.366 193.464 299.245 194.108 299.919C194.763 300.583 195.632 300.915 196.716 300.915C197.8 300.915 198.664 300.583 199.309 299.919C199.963 299.245 200.29 298.366 200.29 297.282C200.29 296.198 199.953 295.314 199.279 294.631C198.605 293.947 197.751 293.605 196.716 293.605Z" fill="white"/>
</g>
<defs>
<filter id="filter0_d" x="0" y="0" width="332" height="346" filterUnits="userSpaceOnUse" color-interpolation-filters="sRGB">
<feFlood flood-opacity="0" result="BackgroundImageFix"/>
<feColorMatrix in="SourceAlpha" type="matrix" values="0 0 0 0 0 0 0 0 0 0 0 0 0 0 0 0 0 0 127 0" result="hardAlpha"/>
<feOffset dx="8" dy="9"/>
<feGaussianBlur stdDeviation="2"/>
<feComposite in2="hardAlpha" operator="out"/>
<feColorMatrix type="matrix" values="0 0 0 0 0 0 0 0 0 0 0 0 0 0 0 0 0 0 0.25 0"/>
<feBlend mode="normal" in2="BackgroundImageFix" result="effect1_dropShadow"/>
<feBlend mode="normal" in="SourceGraphic" in2="effect1_dropShadow" result="shape"/>
</filter>
<linearGradient id="paint0_linear" x1="160" y1="0" x2="160" y2="333" gradientUnits="userSpaceOnUse">
<stop stop-color="#007E58"/>
<stop offset="1" stop-color="#2F4D7A" stop-opacity="0.95"/>
</linearGradient>
</defs>
</svg>
