<svg width="332" height="346" viewBox="0 0 332 346" fill="none" xmlns="http://www.w3.org/2000/svg">
<g filter="url(#filter0_d_41:44)">
<rect width="320" height="333" fill="url(#paint0_linear_41:44)"/>
<path d="M40.6099 33.9844C40.6099 35.4036 40.2323 36.6667 39.4771 37.7734C38.7349 38.8802 37.7257 39.7461 36.4497 40.3711C37.9341 41.0091 39.106 41.9401 39.9653 43.1641C40.8377 44.388 41.2739 45.7747 41.2739 47.3242C41.2739 49.7852 40.4406 51.7448 38.7739 53.2031C37.1203 54.6615 34.9393 55.3906 32.231 55.3906C29.4966 55.3906 27.3026 54.6615 25.6489 53.2031C24.0083 51.7318 23.188 49.7721 23.188 47.3242C23.188 45.7878 23.6047 44.401 24.438 43.1641C25.2843 41.9271 26.4497 40.9896 27.9341 40.3516C26.6711 39.7266 25.675 38.8607 24.9458 37.7539C24.2166 36.6471 23.8521 35.3906 23.8521 33.9844C23.8521 31.5885 24.6203 29.6875 26.1567 28.2812C27.6932 26.875 29.7179 26.1719 32.231 26.1719C34.731 26.1719 36.7492 26.875 38.2856 28.2812C39.8351 29.6875 40.6099 31.5885 40.6099 33.9844ZM37.6606 47.2461C37.6606 45.6576 37.1528 44.362 36.1372 43.3594C35.1346 42.3568 33.8195 41.8555 32.1919 41.8555C30.5643 41.8555 29.2557 42.3503 28.2661 43.3398C27.2896 44.3294 26.8013 45.6315 26.8013 47.2461C26.8013 48.8607 27.2765 50.1302 28.2271 51.0547C29.1906 51.9792 30.5252 52.4414 32.231 52.4414C33.9237 52.4414 35.2518 51.9792 36.2153 51.0547C37.1789 50.1172 37.6606 48.8477 37.6606 47.2461ZM32.231 29.1406C30.8117 29.1406 29.6593 29.5833 28.7739 30.4688C27.9015 31.3411 27.4653 32.5326 27.4653 34.043C27.4653 35.4883 27.895 36.6602 28.7544 37.5586C29.6268 38.444 30.7856 38.8867 32.231 38.8867C33.6763 38.8867 34.8286 38.444 35.688 37.5586C36.5604 36.6602 36.9966 35.4883 36.9966 34.043C36.9966 32.5977 36.5474 31.4193 35.6489 30.5078C34.7505 29.5964 33.6112 29.1406 32.231 29.1406ZM64.1841 28.5938L52.4067 55H48.6177L60.356 29.5312H44.9653V26.5625H64.1841V28.5938ZM68.7349 53.1055C68.7349 52.4805 68.9172 51.9596 69.2817 51.543C69.6593 51.1263 70.2192 50.918 70.9614 50.918C71.7036 50.918 72.2635 51.1263 72.6411 51.543C73.0317 51.9596 73.2271 52.4805 73.2271 53.1055C73.2271 53.7044 73.0317 54.2057 72.6411 54.6094C72.2635 55.013 71.7036 55.2148 70.9614 55.2148C70.2192 55.2148 69.6593 55.013 69.2817 54.6094C68.9172 54.2057 68.7349 53.7044 68.7349 53.1055Z" fill="white"/>
<path d="M166.922 154.207H107.254V217H88.5039V74.8125H176.59V90.2422H107.254V138.875H166.922V154.207ZM244.754 127.547C242.02 127.091 239.057 126.863 235.867 126.863C224.018 126.863 215.978 131.909 211.746 142V217H193.68V111.336H211.258L211.551 123.543C217.475 114.103 225.874 109.383 236.746 109.383C240.262 109.383 242.931 109.839 244.754 110.75V127.547Z" fill="white"/>
<path d="M79.7305 257.302H64.8135V273H60.126V237.453H82.1475V241.311H64.8135V253.469H79.7305V257.302ZM99.1885 250.637C98.5049 250.523 97.7643 250.466 96.9668 250.466C94.0046 250.466 91.9945 251.727 90.9365 254.25V273H86.4199V246.584H90.8145L90.8877 249.636C92.3688 247.276 94.4684 246.096 97.1865 246.096C98.0654 246.096 98.7327 246.21 99.1885 246.438V250.637ZM118.695 273C118.435 272.479 118.223 271.551 118.061 270.217C115.961 272.398 113.454 273.488 110.541 273.488C107.937 273.488 105.797 272.756 104.12 271.291C102.46 269.81 101.63 267.938 101.63 265.676C101.63 262.925 102.672 260.793 104.755 259.279C106.854 257.749 109.8 256.984 113.593 256.984H117.987V254.909C117.987 253.33 117.515 252.077 116.571 251.149C115.627 250.205 114.236 249.733 112.396 249.733C110.785 249.733 109.434 250.14 108.344 250.954C107.253 251.768 106.708 252.753 106.708 253.908H102.167C102.167 252.59 102.631 251.32 103.559 250.1C104.503 248.863 105.772 247.886 107.367 247.17C108.979 246.454 110.744 246.096 112.665 246.096C115.709 246.096 118.093 246.861 119.818 248.391C121.544 249.904 122.439 251.996 122.504 254.665V266.823C122.504 269.248 122.813 271.177 123.432 272.609V273H118.695ZM111.2 269.558C112.616 269.558 113.959 269.191 115.229 268.459C116.498 267.727 117.418 266.774 117.987 265.603V260.183H114.447C108.913 260.183 106.146 261.802 106.146 265.041C106.146 266.457 106.618 267.564 107.562 268.361C108.507 269.159 109.719 269.558 111.2 269.558ZM133.856 246.584L134.003 249.904C136.021 247.365 138.658 246.096 141.913 246.096C147.496 246.096 150.312 249.245 150.36 255.544V273H145.844V255.52C145.827 253.615 145.388 252.207 144.525 251.296C143.679 250.384 142.353 249.929 140.546 249.929C139.081 249.929 137.795 250.319 136.688 251.101C135.582 251.882 134.719 252.907 134.101 254.177V273H129.584V246.584H133.856ZM167.768 269.802C169.379 269.802 170.787 269.313 171.991 268.337C173.196 267.36 173.863 266.14 173.993 264.675H178.266C178.184 266.188 177.663 267.629 176.703 268.996C175.743 270.363 174.457 271.454 172.846 272.268C171.251 273.081 169.558 273.488 167.768 273.488C164.171 273.488 161.306 272.292 159.174 269.899C157.058 267.491 156 264.203 156 260.036V259.279C156 256.708 156.472 254.421 157.416 252.419C158.36 250.417 159.711 248.863 161.469 247.756C163.243 246.649 165.334 246.096 167.743 246.096C170.705 246.096 173.163 246.983 175.116 248.757C177.086 250.531 178.135 252.834 178.266 255.666H173.993C173.863 253.957 173.212 252.557 172.04 251.467C170.884 250.36 169.452 249.807 167.743 249.807C165.448 249.807 163.666 250.637 162.396 252.297C161.143 253.941 160.517 256.325 160.517 259.45V260.305C160.517 263.348 161.143 265.692 162.396 267.336C163.65 268.98 165.44 269.802 167.768 269.802ZM188.251 273H183.734V246.584H188.251V273ZM183.368 239.577C183.368 238.845 183.588 238.226 184.027 237.722C184.483 237.217 185.15 236.965 186.029 236.965C186.908 236.965 187.576 237.217 188.031 237.722C188.487 238.226 188.715 238.845 188.715 239.577C188.715 240.31 188.487 240.92 188.031 241.408C187.576 241.896 186.908 242.141 186.029 242.141C185.15 242.141 184.483 241.896 184.027 241.408C183.588 240.92 183.368 240.31 183.368 239.577ZM211.811 270.388C210.053 272.455 207.473 273.488 204.071 273.488C201.256 273.488 199.107 272.674 197.626 271.047C196.161 269.403 195.421 266.978 195.404 263.771V246.584H199.921V263.649C199.921 267.653 201.549 269.655 204.804 269.655C208.254 269.655 210.549 268.369 211.688 265.798V246.584H216.205V273H211.908L211.811 270.388ZM227.338 246.584L227.46 249.514C229.397 247.235 232.009 246.096 235.297 246.096C238.992 246.096 241.506 247.512 242.841 250.344C243.72 249.074 244.859 248.049 246.259 247.268C247.675 246.486 249.343 246.096 251.264 246.096C257.058 246.096 260.004 249.164 260.102 255.3V273H255.585V255.568C255.585 253.68 255.154 252.272 254.291 251.345C253.428 250.401 251.98 249.929 249.945 249.929C248.269 249.929 246.877 250.433 245.771 251.442C244.664 252.435 244.021 253.778 243.842 255.471V273H239.301V255.69C239.301 251.849 237.421 249.929 233.661 249.929C230.699 249.929 228.673 251.19 227.582 253.713V273H223.065V246.584H227.338Z" fill="white"/>
<path d="M149.747 313H135.772V311.052L143.155 302.849C144.249 301.608 145.001 300.603 145.411 299.831C145.831 299.05 146.041 298.244 146.041 297.414C146.041 296.301 145.704 295.388 145.03 294.675C144.356 293.962 143.458 293.605 142.335 293.605C140.987 293.605 139.938 293.991 139.186 294.763C138.443 295.524 138.072 296.589 138.072 297.956H135.362C135.362 295.993 135.992 294.406 137.252 293.195C138.521 291.984 140.216 291.379 142.335 291.379C144.317 291.379 145.885 291.901 147.037 292.946C148.189 293.981 148.766 295.363 148.766 297.092C148.766 299.191 147.428 301.691 144.752 304.592L139.039 310.788H149.747V313ZM166.593 313H152.618V311.052L160.001 302.849C161.095 301.608 161.847 300.603 162.257 299.831C162.677 299.05 162.887 298.244 162.887 297.414C162.887 296.301 162.55 295.388 161.876 294.675C161.202 293.962 160.304 293.605 159.181 293.605C157.833 293.605 156.783 293.991 156.031 294.763C155.289 295.524 154.918 296.589 154.918 297.956H152.208C152.208 295.993 152.838 294.406 154.098 293.195C155.367 291.984 157.062 291.379 159.181 291.379C161.163 291.379 162.73 291.901 163.883 292.946C165.035 293.981 165.611 295.363 165.611 297.092C165.611 299.191 164.273 301.691 161.598 304.592L155.885 310.788H166.593V313ZM173.404 301.018H175.44C176.72 300.998 177.726 300.661 178.458 300.007C179.19 299.353 179.557 298.469 179.557 297.355C179.557 294.855 178.312 293.605 175.821 293.605C174.649 293.605 173.712 293.942 173.009 294.616C172.315 295.28 171.969 296.164 171.969 297.268H169.259C169.259 295.578 169.874 294.177 171.104 293.063C172.345 291.94 173.917 291.379 175.821 291.379C177.833 291.379 179.41 291.911 180.553 292.976C181.695 294.04 182.267 295.52 182.267 297.414C182.267 298.342 181.964 299.24 181.358 300.109C180.763 300.979 179.947 301.628 178.912 302.058C180.084 302.429 180.987 303.044 181.622 303.903C182.267 304.763 182.589 305.812 182.589 307.053C182.589 308.967 181.964 310.485 180.714 311.608C179.464 312.731 177.838 313.293 175.836 313.293C173.834 313.293 172.203 312.751 170.943 311.667C169.693 310.583 169.068 309.152 169.068 307.375H171.793C171.793 308.498 172.159 309.396 172.892 310.07C173.624 310.744 174.605 311.081 175.836 311.081C177.145 311.081 178.146 310.739 178.839 310.056C179.532 309.372 179.879 308.391 179.879 307.111C179.879 305.871 179.498 304.919 178.736 304.255C177.975 303.591 176.876 303.249 175.44 303.229H173.404V301.018Z" fill="white"/>
</g>
<defs>
<filter id="filter0_d_41:44" x="0" y="0" width="332" height="346" filterUnits="userSpaceOnUse" color-interpolation-filters="sRGB">
<feFlood flood-opacity="0" result="BackgroundImageFix"/>
<feColorMatrix in="SourceAlpha" type="matrix" values="0 0 0 0 0 0 0 0 0 0 0 0 0 0 0 0 0 0 127 0" result="hardAlpha"/>
<feOffset dx="8" dy="9"/>
<feGaussianBlur stdDeviation="2"/>
<feComposite in2="hardAlpha" operator="out"/>
<feColorMatrix type="matrix" values="0 0 0 0 0 0 0 0 0 0 0 0 0 0 0 0 0 0 0.25 0"/>
<feBlend mode="normal" in2="BackgroundImageFix" result="effect1_dropShadow_41:44"/>
<feBlend mode="normal" in="SourceGraphic" in2="effect1_dropShadow_41:44" result="shape"/>
</filter>
<linearGradient id="paint0_linear_41:44" x1="160" y1="0" x2="160" y2="333" gradientUnits="userSpaceOnUse">
<stop stop-color="#007E58"/>
<stop offset="1" stop-color="#2F4D7A" stop-opacity="0.95"/>
</linearGradient>
</defs>
</svg>
