<svg width="332" height="346" viewBox="0 0 332 346" fill="none" xmlns="http://www.w3.org/2000/svg">
<g filter="url(#filter0_d_31:27)">
<rect width="320" height="333" fill="url(#paint0_linear_31:27)"/>
<path d="M37.5435 26.543V29.6094H36.8794C34.0669 29.6615 31.8273 30.4948 30.1606 32.1094C28.494 33.724 27.5304 35.9961 27.27 38.9258C28.7674 37.207 30.8117 36.3477 33.4028 36.3477C35.8768 36.3477 37.8494 37.2201 39.3208 38.9648C40.8052 40.7096 41.5474 42.9622 41.5474 45.7227C41.5474 48.6523 40.7466 50.9961 39.145 52.7539C37.5565 54.5117 35.4211 55.3906 32.7388 55.3906C30.0174 55.3906 27.8104 54.349 26.1177 52.2656C24.425 50.1693 23.5786 47.474 23.5786 44.1797V42.793C23.5786 37.5586 24.6919 33.5612 26.9185 30.8008C29.158 28.0273 32.4849 26.6081 36.8989 26.543H37.5435ZM32.7974 39.3555C31.5604 39.3555 30.4211 39.7266 29.3794 40.4688C28.3377 41.2109 27.6151 42.1419 27.2114 43.2617V44.5898C27.2114 46.9336 27.7388 48.8216 28.7935 50.2539C29.8481 51.6862 31.1632 52.4023 32.7388 52.4023C34.3664 52.4023 35.6424 51.8034 36.5669 50.6055C37.5044 49.4076 37.9731 47.8385 37.9731 45.8984C37.9731 43.9453 37.4979 42.3698 36.5474 41.1719C35.6099 39.9609 34.3599 39.3555 32.7974 39.3555ZM61.0786 45.4492H65.0239V48.3984H61.0786V55H57.4458V48.3984H44.4966V46.2695L57.231 26.5625H61.0786V45.4492ZM48.5981 45.4492H57.4458V31.5039L57.0161 32.2852L48.5981 45.4492ZM68.7349 53.1055C68.7349 52.4805 68.9172 51.9596 69.2817 51.543C69.6593 51.1263 70.2192 50.918 70.9614 50.918C71.7036 50.918 72.2635 51.1263 72.6411 51.543C73.0317 51.9596 73.2271 52.4805 73.2271 53.1055C73.2271 53.7044 73.0317 54.2057 72.6411 54.6094C72.2635 55.013 71.7036 55.2148 70.9614 55.2148C70.2192 55.2148 69.6593 55.013 69.2817 54.6094C68.9172 54.2057 68.7349 53.7044 68.7349 53.1055Z" fill="white"/>
<path d="M156.484 198.348C151.667 205.249 144.928 210.424 136.27 213.875C127.676 217.26 117.65 218.953 106.191 218.953C94.6029 218.953 84.3164 216.251 75.332 210.848C66.3477 205.379 59.3815 197.632 54.4336 187.605C49.5508 177.579 47.0443 165.958 46.9141 152.742V140.34C46.9141 118.921 51.8945 102.319 61.8555 90.5352C71.8815 78.7513 85.944 72.8594 104.043 72.8594C118.887 72.8594 130.833 76.668 139.883 84.2852C148.932 91.8372 154.466 102.579 156.484 116.512H137.734C134.219 97.6966 123.021 88.2891 104.141 88.2891C91.5755 88.2891 82.0378 92.7161 75.5273 101.57C69.082 110.359 65.8268 123.12 65.7617 139.852V151.473C65.7617 167.423 69.4076 180.118 76.6992 189.559C83.9909 198.934 93.8542 203.621 106.289 203.621C113.32 203.621 119.473 202.84 124.746 201.277C130.02 199.715 134.382 197.078 137.832 193.367V161.434H104.922V146.199H156.484V198.348ZM180.605 163.289C180.605 147.078 184.447 134.057 192.129 124.227C199.811 114.331 209.87 109.383 222.305 109.383C234.674 109.383 244.473 113.615 251.699 122.078V67H269.766V217H253.164L252.285 205.672C245.059 214.526 235 218.953 222.109 218.953C209.87 218.953 199.876 213.94 192.129 203.914C184.447 193.888 180.605 180.802 180.605 164.656V163.289ZM198.672 165.34C198.672 177.319 201.146 186.694 206.094 193.465C211.042 200.236 217.878 203.621 226.602 203.621C238.06 203.621 246.426 198.478 251.699 188.191V139.656C246.296 129.695 237.995 124.715 226.797 124.715C217.943 124.715 211.042 128.133 206.094 134.969C201.146 141.805 198.672 151.928 198.672 165.34Z" fill="white"/>
<path d="M63.3711 268.337C62.1667 270.062 60.4821 271.356 58.3174 272.219C56.1689 273.065 53.6624 273.488 50.7979 273.488C47.9007 273.488 45.3291 272.813 43.083 271.462C40.8369 270.095 39.0954 268.158 37.8584 265.651C36.6377 263.145 36.0111 260.24 35.9785 256.936V253.835C35.9785 248.48 37.2236 244.33 39.7139 241.384C42.2204 238.438 45.736 236.965 50.2607 236.965C53.9717 236.965 56.9583 237.917 59.2207 239.821C61.4831 241.709 62.8665 244.395 63.3711 247.878H58.6836C57.8047 243.174 55.0052 240.822 50.2852 240.822C47.1439 240.822 44.7594 241.929 43.1318 244.143C41.5205 246.34 40.7067 249.53 40.6904 253.713V256.618C40.6904 260.606 41.6019 263.78 43.4248 266.14C45.2477 268.483 47.7135 269.655 50.8223 269.655C52.5801 269.655 54.1182 269.46 55.4365 269.069C56.7549 268.679 57.8454 268.02 58.708 267.092V259.108H50.4805V255.3H63.3711V268.337ZM86.8086 273C86.5482 272.479 86.3366 271.551 86.1738 270.217C84.0742 272.398 81.5677 273.488 78.6543 273.488C76.0501 273.488 73.9098 272.756 72.2334 271.291C70.5732 269.81 69.7432 267.938 69.7432 265.676C69.7432 262.925 70.7848 260.793 72.8682 259.279C74.9678 257.749 77.9137 256.984 81.7061 256.984H86.1006V254.909C86.1006 253.33 85.6286 252.077 84.6846 251.149C83.7406 250.205 82.349 249.733 80.5098 249.733C78.8984 249.733 77.5475 250.14 76.457 250.954C75.3665 251.768 74.8213 252.753 74.8213 253.908H70.2803C70.2803 252.59 70.7441 251.32 71.6719 250.1C72.6159 248.863 73.8854 247.886 75.4805 247.17C77.0918 246.454 78.8577 246.096 80.7783 246.096C83.8219 246.096 86.2064 246.861 87.9316 248.391C89.6569 249.904 90.5521 251.996 90.6172 254.665V266.823C90.6172 269.248 90.9264 271.177 91.5449 272.609V273H86.8086ZM79.3135 269.558C80.7295 269.558 82.0723 269.191 83.3418 268.459C84.6113 267.727 85.5309 266.774 86.1006 265.603V260.183H82.5605C77.0267 260.183 74.2598 261.802 74.2598 265.041C74.2598 266.457 74.7318 267.564 75.6758 268.361C76.6198 269.159 77.8324 269.558 79.3135 269.558ZM96.5986 259.572C96.5986 255.52 97.5589 252.264 99.4795 249.807C101.4 247.333 103.915 246.096 107.023 246.096C110.116 246.096 112.565 247.154 114.372 249.27V235.5H118.889V273H114.738L114.519 270.168C112.712 272.382 110.197 273.488 106.975 273.488C103.915 273.488 101.416 272.235 99.4795 269.729C97.5589 267.222 96.5986 263.951 96.5986 259.914V259.572ZM101.115 260.085C101.115 263.08 101.734 265.424 102.971 267.116C104.208 268.809 105.917 269.655 108.098 269.655C110.962 269.655 113.054 268.369 114.372 265.798V253.664C113.021 251.174 110.946 249.929 108.146 249.929C105.933 249.929 104.208 250.783 102.971 252.492C101.734 254.201 101.115 256.732 101.115 260.085ZM124.724 259.548C124.724 256.96 125.228 254.632 126.237 252.565C127.263 250.498 128.679 248.903 130.485 247.78C132.308 246.657 134.383 246.096 136.711 246.096C140.308 246.096 143.213 247.341 145.427 249.831C147.657 252.321 148.771 255.633 148.771 259.768V260.085C148.771 262.657 148.275 264.968 147.282 267.019C146.306 269.053 144.898 270.64 143.059 271.779C141.236 272.919 139.136 273.488 136.76 273.488C133.179 273.488 130.274 272.243 128.044 269.753C125.83 267.263 124.724 263.967 124.724 259.865V259.548ZM129.265 260.085C129.265 263.015 129.94 265.367 131.291 267.141C132.658 268.915 134.481 269.802 136.76 269.802C139.055 269.802 140.878 268.907 142.229 267.116C143.579 265.31 144.255 262.787 144.255 259.548C144.255 256.651 143.563 254.307 142.18 252.517C140.812 250.71 138.99 249.807 136.711 249.807C134.481 249.807 132.683 250.694 131.315 252.468C129.948 254.242 129.265 256.781 129.265 260.085ZM159.343 273H154.826V235.5H159.343V273ZM171.501 273H166.984V246.584H171.501V273ZM166.618 239.577C166.618 238.845 166.838 238.226 167.277 237.722C167.733 237.217 168.4 236.965 169.279 236.965C170.158 236.965 170.826 237.217 171.281 237.722C171.737 238.226 171.965 238.845 171.965 239.577C171.965 240.31 171.737 240.92 171.281 241.408C170.826 241.896 170.158 242.141 169.279 242.141C168.4 242.141 167.733 241.896 167.277 241.408C166.838 240.92 166.618 240.31 166.618 239.577ZM183.024 246.584L183.171 249.904C185.189 247.365 187.826 246.096 191.081 246.096C196.664 246.096 199.479 249.245 199.528 255.544V273H195.012V255.52C194.995 253.615 194.556 252.207 193.693 251.296C192.847 250.384 191.521 249.929 189.714 249.929C188.249 249.929 186.963 250.319 185.856 251.101C184.75 251.882 183.887 252.907 183.269 254.177V273H178.752V246.584H183.024ZM211.247 273H206.73V246.584H211.247V273ZM206.364 239.577C206.364 238.845 206.584 238.226 207.023 237.722C207.479 237.217 208.146 236.965 209.025 236.965C209.904 236.965 210.572 237.217 211.027 237.722C211.483 238.226 211.711 238.845 211.711 239.577C211.711 240.31 211.483 240.92 211.027 241.408C210.572 241.896 209.904 242.141 209.025 242.141C208.146 242.141 207.479 241.896 207.023 241.408C206.584 240.92 206.364 240.31 206.364 239.577ZM234.807 270.388C233.049 272.455 230.469 273.488 227.067 273.488C224.252 273.488 222.103 272.674 220.622 271.047C219.157 269.403 218.417 266.978 218.4 263.771V246.584H222.917V263.649C222.917 267.653 224.545 269.655 227.8 269.655C231.25 269.655 233.545 268.369 234.685 265.798V246.584H239.201V273H234.904L234.807 270.388ZM250.334 246.584L250.456 249.514C252.393 247.235 255.005 246.096 258.293 246.096C261.988 246.096 264.502 247.512 265.837 250.344C266.716 249.074 267.855 248.049 269.255 247.268C270.671 246.486 272.339 246.096 274.26 246.096C280.054 246.096 283 249.164 283.098 255.3V273H278.581V255.568C278.581 253.68 278.15 252.272 277.287 251.345C276.424 250.401 274.976 249.929 272.941 249.929C271.265 249.929 269.873 250.433 268.767 251.442C267.66 252.435 267.017 253.778 266.838 255.471V273H262.297V255.69C262.297 251.849 260.417 249.929 256.657 249.929C253.695 249.929 251.669 251.19 250.578 253.713V273H246.062V246.584H250.334Z" fill="white"/>
<path d="M124.679 313H121.954V294.938L116.49 296.945V294.484L124.254 291.569H124.679V313ZM133.863 302.307L134.947 291.672H145.875V294.177H137.247L136.603 299.992C137.647 299.377 138.834 299.069 140.162 299.069C142.105 299.069 143.648 299.714 144.791 301.003C145.934 302.282 146.505 304.016 146.505 306.203C146.505 308.4 145.909 310.134 144.718 311.403C143.536 312.663 141.881 313.293 139.752 313.293C137.867 313.293 136.329 312.771 135.138 311.726C133.946 310.681 133.268 309.235 133.102 307.39H135.665C135.831 308.61 136.266 309.533 136.969 310.158C137.672 310.773 138.6 311.081 139.752 311.081C141.012 311.081 141.998 310.651 142.711 309.792C143.434 308.933 143.795 307.746 143.795 306.232C143.795 304.807 143.404 303.664 142.623 302.805C141.852 301.936 140.821 301.501 139.532 301.501C138.351 301.501 137.423 301.76 136.749 302.277L136.031 302.863L133.863 302.307ZM163.233 293.195L154.4 313H151.559L160.362 293.898H148.819V291.672H163.233V293.195ZM166.646 311.579C166.646 311.11 166.783 310.72 167.057 310.407C167.34 310.095 167.76 309.938 168.316 309.938C168.873 309.938 169.293 310.095 169.576 310.407C169.869 310.72 170.016 311.11 170.016 311.579C170.016 312.028 169.869 312.404 169.576 312.707C169.293 313.01 168.873 313.161 168.316 313.161C167.76 313.161 167.34 313.01 167.057 312.707C166.783 312.404 166.646 312.028 166.646 311.579ZM188.194 313H174.22V311.052L181.603 302.849C182.696 301.608 183.448 300.603 183.858 299.831C184.278 299.05 184.488 298.244 184.488 297.414C184.488 296.301 184.151 295.388 183.478 294.675C182.804 293.962 181.905 293.605 180.782 293.605C179.435 293.605 178.385 293.991 177.633 294.763C176.891 295.524 176.52 296.589 176.52 297.956H173.81C173.81 295.993 174.439 294.406 175.699 293.195C176.969 291.984 178.663 291.379 180.782 291.379C182.765 291.379 184.332 291.901 185.484 292.946C186.637 293.981 187.213 295.363 187.213 297.092C187.213 299.191 185.875 301.691 183.199 304.592L177.486 310.788H188.194V313ZM192.311 302.307L193.395 291.672H204.322V294.177H195.694L195.05 299.992C196.095 299.377 197.281 299.069 198.609 299.069C200.553 299.069 202.096 299.714 203.238 301.003C204.381 302.282 204.952 304.016 204.952 306.203C204.952 308.4 204.356 310.134 203.165 311.403C201.983 312.663 200.328 313.293 198.199 313.293C196.314 313.293 194.776 312.771 193.585 311.726C192.394 310.681 191.715 309.235 191.549 307.39H194.112C194.278 308.61 194.713 309.533 195.416 310.158C196.119 310.773 197.047 311.081 198.199 311.081C199.459 311.081 200.445 310.651 201.158 309.792C201.881 308.933 202.242 307.746 202.242 306.232C202.242 304.807 201.852 303.664 201.07 302.805C200.299 301.936 199.269 301.501 197.979 301.501C196.798 301.501 195.87 301.76 195.196 302.277L194.479 302.863L192.311 302.307Z" fill="white"/>
</g>
<defs>
<filter id="filter0_d_31:27" x="0" y="0" width="332" height="346" filterUnits="userSpaceOnUse" color-interpolation-filters="sRGB">
<feFlood flood-opacity="0" result="BackgroundImageFix"/>
<feColorMatrix in="SourceAlpha" type="matrix" values="0 0 0 0 0 0 0 0 0 0 0 0 0 0 0 0 0 0 127 0" result="hardAlpha"/>
<feOffset dx="8" dy="9"/>
<feGaussianBlur stdDeviation="2"/>
<feComposite in2="hardAlpha" operator="out"/>
<feColorMatrix type="matrix" values="0 0 0 0 0 0 0 0 0 0 0 0 0 0 0 0 0 0 0.25 0"/>
<feBlend mode="normal" in2="BackgroundImageFix" result="effect1_dropShadow_31:27"/>
<feBlend mode="normal" in="SourceGraphic" in2="effect1_dropShadow_31:27" result="shape"/>
</filter>
<linearGradient id="paint0_linear_31:27" x1="160" y1="0" x2="160" y2="333" gradientUnits="userSpaceOnUse">
<stop stop-color="#007E58"/>
<stop offset="1" stop-color="#2F4D7A" stop-opacity="0.95"/>
</linearGradient>
</defs>
</svg>
