<svg width="332" height="346" viewBox="0 0 332 346" fill="none" xmlns="http://www.w3.org/2000/svg">
<g filter="url(#filter0_d_23:14)">
<rect width="320" height="333" fill="url(#paint0_linear_23:14)"/>
<path d="M28.6177 39.0234H31.3325C33.0382 38.9974 34.3794 38.5482 35.356 37.6758C36.3325 36.8034 36.8208 35.625 36.8208 34.1406C36.8208 30.8073 35.1606 29.1406 31.8403 29.1406C30.2778 29.1406 29.0278 29.5898 28.0903 30.4883C27.1659 31.3737 26.7036 32.5521 26.7036 34.0234H23.0903C23.0903 31.7708 23.9106 29.9023 25.5513 28.418C27.2049 26.9206 29.3013 26.1719 31.8403 26.1719C34.5226 26.1719 36.6255 26.8815 38.1489 28.3008C39.6724 29.7201 40.4341 31.6927 40.4341 34.2188C40.4341 35.4557 40.0304 36.6536 39.2231 37.8125C38.4289 38.9714 37.3416 39.8372 35.9614 40.4102C37.5239 40.9049 38.7284 41.7253 39.5747 42.8711C40.4341 44.0169 40.8638 45.4167 40.8638 47.0703C40.8638 49.6224 40.0304 51.6471 38.3638 53.1445C36.6971 54.6419 34.5291 55.3906 31.8599 55.3906C29.1906 55.3906 27.0161 54.668 25.3364 53.2227C23.6698 51.7773 22.8364 49.8698 22.8364 47.5H26.4692C26.4692 48.9974 26.9575 50.1953 27.9341 51.0938C28.9106 51.9922 30.2192 52.4414 31.8599 52.4414C33.6047 52.4414 34.9393 51.9857 35.8638 51.0742C36.7882 50.1628 37.2505 48.8542 37.2505 47.1484C37.2505 45.4948 36.7427 44.2253 35.7271 43.3398C34.7114 42.4544 33.2466 41.9987 31.3325 41.9727H28.6177V39.0234ZM64.4575 55H45.8247V52.4023L55.6685 41.4648C57.1268 39.8112 58.1294 38.4701 58.6763 37.4414C59.2362 36.3997 59.5161 35.3255 59.5161 34.2188C59.5161 32.7344 59.0669 31.5169 58.1685 30.5664C57.27 29.6159 56.0721 29.1406 54.5747 29.1406C52.7778 29.1406 51.3781 29.6549 50.3755 30.6836C49.3859 31.6992 48.8911 33.1185 48.8911 34.9414H45.2778C45.2778 32.3242 46.1177 30.2083 47.7974 28.5938C49.4901 26.9792 51.7492 26.1719 54.5747 26.1719C57.2179 26.1719 59.3078 26.8685 60.8442 28.2617C62.3807 29.6419 63.1489 31.4844 63.1489 33.7891C63.1489 36.5885 61.3651 39.9219 57.7974 43.7891L50.1802 52.0508H64.4575V55ZM68.7349 53.1055C68.7349 52.4805 68.9172 51.9596 69.2817 51.543C69.6593 51.1263 70.2192 50.918 70.9614 50.918C71.7036 50.918 72.2635 51.1263 72.6411 51.543C73.0317 51.9596 73.2271 52.4805 73.2271 53.1055C73.2271 53.7044 73.0317 54.2057 72.6411 54.6094C72.2635 55.013 71.7036 55.2148 70.9614 55.2148C70.2192 55.2148 69.6593 55.013 69.2817 54.6094C68.9172 54.2057 68.7349 53.7044 68.7349 53.1055Z" fill="white"/>
<path d="M160.484 198.348C155.667 205.249 148.928 210.424 140.27 213.875C131.676 217.26 121.65 218.953 110.191 218.953C98.6029 218.953 88.3164 216.251 79.332 210.848C70.3477 205.379 63.3815 197.632 58.4336 187.605C53.5508 177.579 51.0443 165.958 50.9141 152.742V140.34C50.9141 118.921 55.8945 102.319 65.8555 90.5352C75.8815 78.7513 89.944 72.8594 108.043 72.8594C122.887 72.8594 134.833 76.668 143.883 84.2852C152.932 91.8372 158.466 102.579 160.484 116.512H141.734C138.219 97.6966 127.021 88.2891 108.141 88.2891C95.5755 88.2891 86.0378 92.7161 79.5273 101.57C73.082 110.359 69.8268 123.12 69.7617 139.852V151.473C69.7617 167.423 73.4076 180.118 80.6992 189.559C87.9909 198.934 97.8542 203.621 110.289 203.621C117.32 203.621 123.473 202.84 128.746 201.277C134.02 199.715 138.382 197.078 141.832 193.367V161.434H108.922V146.199H160.484V198.348ZM232.848 218.953C218.525 218.953 206.871 214.266 197.887 204.891C188.902 195.451 184.41 182.853 184.41 167.098V163.777C184.41 153.296 186.396 143.953 190.367 135.75C194.404 127.482 200.003 121.036 207.164 116.414C214.391 111.727 222.203 109.383 230.602 109.383C244.339 109.383 255.016 113.908 262.633 122.957C270.25 132.007 274.059 144.962 274.059 161.824V169.344H202.477C202.737 179.76 205.764 188.191 211.559 194.637C217.418 201.017 224.84 204.207 233.824 204.207C240.204 204.207 245.608 202.905 250.035 200.301C254.462 197.697 258.336 194.246 261.656 189.949L272.691 198.543C263.837 212.15 250.556 218.953 232.848 218.953ZM230.602 124.227C223.31 124.227 217.19 126.896 212.242 132.234C207.294 137.508 204.234 144.93 203.062 154.5H255.992V153.133C255.471 143.953 252.997 136.857 248.57 131.844C244.143 126.766 238.154 124.227 230.602 124.227Z" fill="white"/>
<path d="M60.3711 268.337C59.1667 270.062 57.4821 271.356 55.3174 272.219C53.1689 273.065 50.6624 273.488 47.7979 273.488C44.9007 273.488 42.3291 272.813 40.083 271.462C37.8369 270.095 36.0954 268.158 34.8584 265.651C33.6377 263.145 33.0111 260.24 32.9785 256.936V253.835C32.9785 248.48 34.2236 244.33 36.7139 241.384C39.2204 238.438 42.736 236.965 47.2607 236.965C50.9717 236.965 53.9583 237.917 56.2207 239.821C58.4831 241.709 59.8665 244.395 60.3711 247.878H55.6836C54.8047 243.174 52.0052 240.822 47.2852 240.822C44.1439 240.822 41.7594 241.929 40.1318 244.143C38.5205 246.34 37.7067 249.53 37.6904 253.713V256.618C37.6904 260.606 38.6019 263.78 40.4248 266.14C42.2477 268.483 44.7135 269.655 47.8223 269.655C49.5801 269.655 51.1182 269.46 52.4365 269.069C53.7549 268.679 54.8454 268.02 55.708 267.092V259.108H47.4805V255.3H60.3711V268.337ZM78.4619 273.488C74.8812 273.488 71.9678 272.316 69.7217 269.973C67.4756 267.613 66.3525 264.463 66.3525 260.524V259.694C66.3525 257.074 66.849 254.738 67.8418 252.688C68.8509 250.62 70.2507 249.009 72.041 247.854C73.8477 246.682 75.8008 246.096 77.9004 246.096C81.3346 246.096 84.0039 247.227 85.9082 249.489C87.8125 251.752 88.7646 254.991 88.7646 259.206V261.086H70.8691C70.9342 263.69 71.6911 265.798 73.1396 267.409C74.6045 269.004 76.46 269.802 78.7061 269.802C80.3011 269.802 81.652 269.476 82.7588 268.825C83.8656 268.174 84.834 267.312 85.6641 266.237L88.4229 268.386C86.2093 271.787 82.889 273.488 78.4619 273.488ZM77.9004 249.807C76.0775 249.807 74.5475 250.474 73.3105 251.809C72.0736 253.127 71.3086 254.982 71.0156 257.375H84.248V257.033C84.1178 254.738 83.4993 252.964 82.3926 251.711C81.2858 250.441 79.7884 249.807 77.9004 249.807ZM106.782 250.637C106.099 250.523 105.358 250.466 104.561 250.466C101.598 250.466 99.5882 251.727 98.5303 254.25V273H94.0137V246.584H98.4082L98.4814 249.636C99.9626 247.276 102.062 246.096 104.78 246.096C105.659 246.096 106.326 246.21 106.782 246.438V250.637ZM115.205 246.584L115.327 249.514C117.264 247.235 119.876 246.096 123.164 246.096C126.859 246.096 129.373 247.512 130.708 250.344C131.587 249.074 132.726 248.049 134.126 247.268C135.542 246.486 137.21 246.096 139.131 246.096C144.925 246.096 147.871 249.164 147.969 255.3V273H143.452V255.568C143.452 253.68 143.021 252.272 142.158 251.345C141.296 250.401 139.847 249.929 137.812 249.929C136.136 249.929 134.744 250.433 133.638 251.442C132.531 252.435 131.888 253.778 131.709 255.471V273H127.168V255.69C127.168 251.849 125.288 249.929 121.528 249.929C118.566 249.929 116.54 251.19 115.449 253.713V273H110.933V246.584H115.205ZM171.113 273C170.853 272.479 170.641 271.551 170.479 270.217C168.379 272.398 165.872 273.488 162.959 273.488C160.355 273.488 158.215 272.756 156.538 271.291C154.878 269.81 154.048 267.938 154.048 265.676C154.048 262.925 155.09 260.793 157.173 259.279C159.272 257.749 162.218 256.984 166.011 256.984H170.405V254.909C170.405 253.33 169.933 252.077 168.989 251.149C168.045 250.205 166.654 249.733 164.814 249.733C163.203 249.733 161.852 250.14 160.762 250.954C159.671 251.768 159.126 252.753 159.126 253.908H154.585C154.585 252.59 155.049 251.32 155.977 250.1C156.921 248.863 158.19 247.886 159.785 247.17C161.396 246.454 163.162 246.096 165.083 246.096C168.127 246.096 170.511 246.861 172.236 248.391C173.962 249.904 174.857 251.996 174.922 254.665V266.823C174.922 269.248 175.231 271.177 175.85 272.609V273H171.113ZM163.618 269.558C165.034 269.558 166.377 269.191 167.646 268.459C168.916 267.727 169.836 266.774 170.405 265.603V260.183H166.865C161.331 260.183 158.564 261.802 158.564 265.041C158.564 266.457 159.036 267.564 159.98 268.361C160.924 269.159 162.137 269.558 163.618 269.558ZM186.274 246.584L186.421 249.904C188.439 247.365 191.076 246.096 194.331 246.096C199.914 246.096 202.729 249.245 202.778 255.544V273H198.262V255.52C198.245 253.615 197.806 252.207 196.943 251.296C196.097 250.384 194.771 249.929 192.964 249.929C191.499 249.929 190.213 250.319 189.106 251.101C188 251.882 187.137 252.907 186.519 254.177V273H182.002V246.584H186.274ZM214.497 273H209.98V246.584H214.497V273ZM209.614 239.577C209.614 238.845 209.834 238.226 210.273 237.722C210.729 237.217 211.396 236.965 212.275 236.965C213.154 236.965 213.822 237.217 214.277 237.722C214.733 238.226 214.961 238.845 214.961 239.577C214.961 240.31 214.733 240.92 214.277 241.408C213.822 241.896 213.154 242.141 212.275 242.141C211.396 242.141 210.729 241.896 210.273 241.408C209.834 240.92 209.614 240.31 209.614 239.577ZM238.057 270.388C236.299 272.455 233.719 273.488 230.317 273.488C227.502 273.488 225.353 272.674 223.872 271.047C222.407 269.403 221.667 266.978 221.65 263.771V246.584H226.167V263.649C226.167 267.653 227.795 269.655 231.05 269.655C234.5 269.655 236.795 268.369 237.935 265.798V246.584H242.451V273H238.154L238.057 270.388ZM253.584 246.584L253.706 249.514C255.643 247.235 258.255 246.096 261.543 246.096C265.238 246.096 267.752 247.512 269.087 250.344C269.966 249.074 271.105 248.049 272.505 247.268C273.921 246.486 275.589 246.096 277.51 246.096C283.304 246.096 286.25 249.164 286.348 255.3V273H281.831V255.568C281.831 253.68 281.4 252.272 280.537 251.345C279.674 250.401 278.226 249.929 276.191 249.929C274.515 249.929 273.123 250.433 272.017 251.442C270.91 252.435 270.267 253.778 270.088 255.471V273H265.547V255.69C265.547 251.849 263.667 249.929 259.907 249.929C256.945 249.929 254.919 251.19 253.828 253.713V273H249.312V246.584H253.584Z" fill="white"/>
<path d="M128.542 293.195L119.709 313H116.867L125.671 293.898H114.128V291.672H128.542V293.195ZM145.593 313H131.618V311.052L139.001 302.849C140.095 301.608 140.847 300.603 141.257 299.831C141.677 299.05 141.887 298.244 141.887 297.414C141.887 296.301 141.55 295.388 140.876 294.675C140.202 293.962 139.304 293.605 138.181 293.605C136.833 293.605 135.783 293.991 135.031 294.763C134.289 295.524 133.918 296.589 133.918 297.956H131.208C131.208 295.993 131.838 294.406 133.098 293.195C134.367 291.984 136.062 291.379 138.181 291.379C140.163 291.379 141.73 291.901 142.883 292.946C144.035 293.981 144.611 295.363 144.611 297.092C144.611 299.191 143.273 301.691 140.598 304.592L134.885 310.788H145.593V313ZM148.801 311.579C148.801 311.11 148.938 310.72 149.211 310.407C149.494 310.095 149.914 309.938 150.471 309.938C151.027 309.938 151.447 310.095 151.73 310.407C152.023 310.72 152.17 311.11 152.17 311.579C152.17 312.028 152.023 312.404 151.73 312.707C151.447 313.01 151.027 313.161 150.471 313.161C149.914 313.161 149.494 313.01 149.211 312.707C148.938 312.404 148.801 312.028 148.801 311.579ZM167.009 291.657V293.957H166.511C164.401 293.996 162.722 294.621 161.472 295.832C160.222 297.043 159.499 298.747 159.304 300.944C160.427 299.655 161.96 299.011 163.903 299.011C165.759 299.011 167.238 299.665 168.342 300.974C169.455 302.282 170.012 303.972 170.012 306.042C170.012 308.239 169.411 309.997 168.21 311.315C167.019 312.634 165.417 313.293 163.405 313.293C161.364 313.293 159.709 312.512 158.439 310.949C157.17 309.377 156.535 307.355 156.535 304.885V303.845C156.535 299.919 157.37 296.921 159.04 294.851C160.72 292.771 163.215 291.706 166.525 291.657H167.009ZM163.449 301.267C162.521 301.267 161.667 301.545 160.886 302.102C160.104 302.658 159.562 303.356 159.26 304.196V305.192C159.26 306.95 159.655 308.366 160.446 309.44C161.237 310.515 162.224 311.052 163.405 311.052C164.626 311.052 165.583 310.603 166.276 309.704C166.979 308.806 167.331 307.629 167.331 306.174C167.331 304.709 166.975 303.527 166.262 302.629C165.559 301.721 164.621 301.267 163.449 301.267ZM177.16 301.018H179.196C180.476 300.998 181.481 300.661 182.214 300.007C182.946 299.353 183.312 298.469 183.312 297.355C183.312 294.855 182.067 293.605 179.577 293.605C178.405 293.605 177.468 293.942 176.765 294.616C176.071 295.28 175.725 296.164 175.725 297.268H173.015C173.015 295.578 173.63 294.177 174.86 293.063C176.101 291.94 177.673 291.379 179.577 291.379C181.589 291.379 183.166 291.911 184.309 292.976C185.451 294.04 186.022 295.52 186.022 297.414C186.022 298.342 185.72 299.24 185.114 300.109C184.519 300.979 183.703 301.628 182.668 302.058C183.84 302.429 184.743 303.044 185.378 303.903C186.022 304.763 186.345 305.812 186.345 307.053C186.345 308.967 185.72 310.485 184.47 311.608C183.22 312.731 181.594 313.293 179.592 313.293C177.59 313.293 175.959 312.751 174.699 311.667C173.449 310.583 172.824 309.152 172.824 307.375H175.549C175.549 308.498 175.915 309.396 176.647 310.07C177.38 310.744 178.361 311.081 179.592 311.081C180.9 311.081 181.901 310.739 182.595 310.056C183.288 309.372 183.635 308.391 183.635 307.111C183.635 305.871 183.254 304.919 182.492 304.255C181.73 303.591 180.632 303.249 179.196 303.229H177.16V301.018ZM203.439 303.903C203.439 307.077 202.897 309.436 201.813 310.979C200.729 312.521 199.035 313.293 196.73 313.293C194.455 313.293 192.771 312.541 191.677 311.037C190.583 309.523 190.017 307.268 189.978 304.27V300.651C189.978 297.517 190.52 295.188 191.604 293.664C192.688 292.141 194.387 291.379 196.701 291.379C198.996 291.379 200.686 292.116 201.77 293.591C202.854 295.056 203.41 297.321 203.439 300.388V303.903ZM200.729 300.197C200.729 297.902 200.407 296.232 199.763 295.188C199.118 294.133 198.098 293.605 196.701 293.605C195.314 293.605 194.304 294.128 193.669 295.173C193.034 296.218 192.707 297.824 192.688 299.992V304.328C192.688 306.633 193.02 308.337 193.684 309.44C194.357 310.534 195.373 311.081 196.73 311.081C198.068 311.081 199.06 310.563 199.704 309.528C200.358 308.493 200.7 306.862 200.729 304.636V300.197Z" fill="white"/>
</g>
<defs>
<filter id="filter0_d_23:14" x="0" y="0" width="332" height="346" filterUnits="userSpaceOnUse" color-interpolation-filters="sRGB">
<feFlood flood-opacity="0" result="BackgroundImageFix"/>
<feColorMatrix in="SourceAlpha" type="matrix" values="0 0 0 0 0 0 0 0 0 0 0 0 0 0 0 0 0 0 127 0" result="hardAlpha"/>
<feOffset dx="8" dy="9"/>
<feGaussianBlur stdDeviation="2"/>
<feComposite in2="hardAlpha" operator="out"/>
<feColorMatrix type="matrix" values="0 0 0 0 0 0 0 0 0 0 0 0 0 0 0 0 0 0 0.25 0"/>
<feBlend mode="normal" in2="BackgroundImageFix" result="effect1_dropShadow_23:14"/>
<feBlend mode="normal" in="SourceGraphic" in2="effect1_dropShadow_23:14" result="shape"/>
</filter>
<linearGradient id="paint0_linear_23:14" x1="160" y1="0" x2="160" y2="333" gradientUnits="userSpaceOnUse">
<stop stop-color="#007E58"/>
<stop offset="1" stop-color="#2F4D7A" stop-opacity="0.95"/>
</linearGradient>
</defs>
</svg>
