<svg width="332" height="346" viewBox="0 0 332 346" fill="none" xmlns="http://www.w3.org/2000/svg">
<g filter="url(#filter0_d_40:56)">
<rect width="320" height="333" fill="url(#paint0_linear_40:56)"/>
<path d="M41.7227 28.5938L29.9453 55H26.1562L37.8945 29.5312H22.5039V26.5625H41.7227V28.5938ZM59.6719 42.5C58.9167 43.3984 58.0117 44.1211 56.957 44.668C55.9154 45.2148 54.7695 45.4883 53.5195 45.4883C51.8789 45.4883 50.4466 45.0846 49.2227 44.2773C48.0117 43.4701 47.0742 42.3372 46.4102 40.8789C45.7461 39.4076 45.4141 37.7865 45.4141 36.0156C45.4141 34.1146 45.7721 32.4023 46.4883 30.8789C47.2174 29.3555 48.2461 28.1901 49.5742 27.3828C50.9023 26.5755 52.4518 26.1719 54.2227 26.1719C57.0352 26.1719 59.2487 27.2266 60.8633 29.3359C62.4909 31.4323 63.3047 34.2969 63.3047 37.9297V38.9844C63.3047 44.5182 62.2109 48.5612 60.0234 51.1133C57.8359 53.6523 54.5352 54.9544 50.1211 55.0195H49.418V51.9727H50.1797C53.1615 51.9206 55.4531 51.1458 57.0547 49.6484C58.6562 48.138 59.5286 45.7552 59.6719 42.5ZM54.1055 42.5C55.3164 42.5 56.4297 42.1289 57.4453 41.3867C58.474 40.6445 59.2227 39.7266 59.6914 38.6328V37.1875C59.6914 34.8177 59.1771 32.8906 58.1484 31.4062C57.1198 29.9219 55.8177 29.1797 54.2422 29.1797C52.6536 29.1797 51.3776 29.7917 50.4141 31.0156C49.4505 32.2266 48.9688 33.8281 48.9688 35.8203C48.9688 37.7604 49.431 39.362 50.3555 40.625C51.293 41.875 52.543 42.5 54.1055 42.5ZM68.7344 53.1055C68.7344 52.4805 68.9167 51.9596 69.2812 51.543C69.6589 51.1263 70.2188 50.918 70.9609 50.918C71.7031 50.918 72.263 51.1263 72.6406 51.543C73.0312 51.9596 73.2266 52.4805 73.2266 53.1055C73.2266 53.7044 73.0312 54.2057 72.6406 54.6094C72.263 55.013 71.7031 55.2148 70.9609 55.2148C70.2188 55.2148 69.6589 55.013 69.2812 54.6094C68.9167 54.2057 68.7344 53.7044 68.7344 53.1055Z" fill="white"/>
<path d="M135.02 179.891H75.4492L62.0703 217H42.7344L97.0312 74.8125H113.438L167.832 217H148.594L135.02 179.891ZM81.1133 164.461H129.453L105.234 97.957L81.1133 164.461ZM248.203 206.551C241.172 214.819 230.853 218.953 217.246 218.953C205.983 218.953 197.389 215.698 191.465 209.188C185.605 202.612 182.643 192.911 182.578 180.086V111.336H200.645V179.598C200.645 195.613 207.155 203.621 220.176 203.621C233.978 203.621 243.158 198.478 247.715 188.191V111.336H265.781V217H248.594L248.203 206.551Z" fill="white"/>
<path d="M138.371 268.337C137.167 270.062 135.482 271.356 133.317 272.219C131.169 273.065 128.662 273.488 125.798 273.488C122.901 273.488 120.329 272.813 118.083 271.462C115.837 270.095 114.095 268.158 112.858 265.651C111.638 263.145 111.011 260.24 110.979 256.936V253.835C110.979 248.48 112.224 244.33 114.714 241.384C117.22 238.438 120.736 236.965 125.261 236.965C128.972 236.965 131.958 237.917 134.221 239.821C136.483 241.709 137.867 244.395 138.371 247.878H133.684C132.805 243.174 130.005 240.822 125.285 240.822C122.144 240.822 119.759 241.929 118.132 244.143C116.521 246.34 115.707 249.53 115.69 253.713V256.618C115.69 260.606 116.602 263.78 118.425 266.14C120.248 268.483 122.714 269.655 125.822 269.655C127.58 269.655 129.118 269.46 130.437 269.069C131.755 268.679 132.845 268.02 133.708 267.092V259.108H125.48V255.3H138.371V268.337ZM144.304 259.548C144.304 256.96 144.808 254.632 145.817 252.565C146.843 250.498 148.259 248.903 150.065 247.78C151.888 246.657 153.964 246.096 156.291 246.096C159.888 246.096 162.793 247.341 165.007 249.831C167.237 252.321 168.352 255.633 168.352 259.768V260.085C168.352 262.657 167.855 264.968 166.862 267.019C165.886 269.053 164.478 270.64 162.639 271.779C160.816 272.919 158.716 273.488 156.34 273.488C152.759 273.488 149.854 272.243 147.624 269.753C145.41 267.263 144.304 263.967 144.304 259.865V259.548ZM148.845 260.085C148.845 263.015 149.52 265.367 150.871 267.141C152.238 268.915 154.061 269.802 156.34 269.802C158.635 269.802 160.458 268.907 161.809 267.116C163.16 265.31 163.835 262.787 163.835 259.548C163.835 256.651 163.143 254.307 161.76 252.517C160.393 250.71 158.57 249.807 156.291 249.807C154.061 249.807 152.263 250.694 150.896 252.468C149.528 254.242 148.845 256.781 148.845 260.085ZM178.923 273H174.406V235.5H178.923V273ZM185.075 259.572C185.075 255.52 186.035 252.264 187.956 249.807C189.877 247.333 192.391 246.096 195.5 246.096C198.592 246.096 201.042 247.154 202.849 249.27V235.5H207.365V273H203.215L202.995 270.168C201.188 272.382 198.674 273.488 195.451 273.488C192.391 273.488 189.893 272.235 187.956 269.729C186.035 267.222 185.075 263.951 185.075 259.914V259.572ZM189.592 260.085C189.592 263.08 190.21 265.424 191.447 267.116C192.684 268.809 194.393 269.655 196.574 269.655C199.439 269.655 201.53 268.369 202.849 265.798V253.664C201.498 251.174 199.423 249.929 196.623 249.929C194.41 249.929 192.684 250.783 191.447 252.492C190.21 254.201 189.592 256.732 189.592 260.085Z" fill="white"/>
<path d="M124.679 313H121.954V294.938L116.49 296.945V294.484L124.254 291.569H124.679V313ZM143.004 303.625C142.438 304.299 141.759 304.841 140.968 305.251C140.187 305.661 139.327 305.866 138.39 305.866C137.159 305.866 136.085 305.563 135.167 304.958C134.259 304.353 133.556 303.503 133.058 302.409C132.56 301.306 132.311 300.09 132.311 298.762C132.311 297.336 132.579 296.052 133.116 294.909C133.663 293.767 134.435 292.893 135.431 292.287C136.427 291.682 137.589 291.379 138.917 291.379C141.026 291.379 142.687 292.17 143.897 293.752C145.118 295.324 145.729 297.473 145.729 300.197V300.988C145.729 305.139 144.908 308.171 143.268 310.085C141.627 311.989 139.151 312.966 135.841 313.015H135.313V310.729H135.885C138.121 310.69 139.84 310.109 141.041 308.986C142.242 307.854 142.896 306.066 143.004 303.625ZM138.829 303.625C139.737 303.625 140.572 303.347 141.334 302.79C142.105 302.233 142.667 301.545 143.019 300.725V299.641C143.019 297.863 142.633 296.418 141.861 295.305C141.09 294.191 140.113 293.635 138.932 293.635C137.74 293.635 136.783 294.094 136.061 295.012C135.338 295.92 134.977 297.121 134.977 298.615C134.977 300.07 135.323 301.271 136.017 302.219C136.72 303.156 137.657 303.625 138.829 303.625ZM160.099 291.657V293.957H159.601C157.491 293.996 155.812 294.621 154.562 295.832C153.312 297.043 152.589 298.747 152.394 300.944C153.517 299.655 155.05 299.011 156.993 299.011C158.849 299.011 160.328 299.665 161.432 300.974C162.545 302.282 163.102 303.972 163.102 306.042C163.102 308.239 162.501 309.997 161.3 311.315C160.108 312.634 158.507 313.293 156.495 313.293C154.454 313.293 152.799 312.512 151.529 310.949C150.26 309.377 149.625 307.355 149.625 304.885V303.845C149.625 299.919 150.46 296.921 152.13 294.851C153.81 292.771 156.305 291.706 159.615 291.657H160.099ZM156.539 301.267C155.611 301.267 154.757 301.545 153.976 302.102C153.194 302.658 152.652 303.356 152.35 304.196V305.192C152.35 306.95 152.745 308.366 153.536 309.44C154.327 310.515 155.313 311.052 156.495 311.052C157.716 311.052 158.673 310.603 159.366 309.704C160.069 308.806 160.421 307.629 160.421 306.174C160.421 304.709 160.064 303.527 159.352 302.629C158.648 301.721 157.711 301.267 156.539 301.267ZM166.646 311.579C166.646 311.11 166.783 310.72 167.057 310.407C167.34 310.095 167.76 309.938 168.316 309.938C168.873 309.938 169.293 310.095 169.576 310.407C169.869 310.72 170.016 311.11 170.016 311.579C170.016 312.028 169.869 312.404 169.576 312.707C169.293 313.01 168.873 313.161 168.316 313.161C167.76 313.161 167.34 313.01 167.057 312.707C166.783 312.404 166.646 312.028 166.646 311.579ZM184.605 303.625C184.039 304.299 183.36 304.841 182.569 305.251C181.788 305.661 180.929 305.866 179.991 305.866C178.761 305.866 177.687 305.563 176.769 304.958C175.86 304.353 175.157 303.503 174.659 302.409C174.161 301.306 173.912 300.09 173.912 298.762C173.912 297.336 174.181 296.052 174.718 294.909C175.265 293.767 176.036 292.893 177.032 292.287C178.028 291.682 179.19 291.379 180.519 291.379C182.628 291.379 184.288 292.17 185.499 293.752C186.72 295.324 187.33 297.473 187.33 300.197V300.988C187.33 305.139 186.51 308.171 184.869 310.085C183.229 311.989 180.753 312.966 177.442 313.015H176.915V310.729H177.486C179.723 310.69 181.441 310.109 182.643 308.986C183.844 307.854 184.498 306.066 184.605 303.625ZM180.431 303.625C181.339 303.625 182.174 303.347 182.936 302.79C183.707 302.233 184.269 301.545 184.62 300.725V299.641C184.62 297.863 184.234 296.418 183.463 295.305C182.691 294.191 181.715 293.635 180.533 293.635C179.342 293.635 178.385 294.094 177.662 295.012C176.939 295.92 176.578 297.121 176.578 298.615C176.578 300.07 176.925 301.271 177.618 302.219C178.321 303.156 179.259 303.625 180.431 303.625ZM204.835 293.195L196.002 313H193.16L201.964 293.898H190.421V291.672H204.835V293.195Z" fill="white"/>
</g>
<defs>
<filter id="filter0_d_40:56" x="0" y="0" width="332" height="346" filterUnits="userSpaceOnUse" color-interpolation-filters="sRGB">
<feFlood flood-opacity="0" result="BackgroundImageFix"/>
<feColorMatrix in="SourceAlpha" type="matrix" values="0 0 0 0 0 0 0 0 0 0 0 0 0 0 0 0 0 0 127 0" result="hardAlpha"/>
<feOffset dx="8" dy="9"/>
<feGaussianBlur stdDeviation="2"/>
<feComposite in2="hardAlpha" operator="out"/>
<feColorMatrix type="matrix" values="0 0 0 0 0 0 0 0 0 0 0 0 0 0 0 0 0 0 0.25 0"/>
<feBlend mode="normal" in2="BackgroundImageFix" result="effect1_dropShadow_40:56"/>
<feBlend mode="normal" in="SourceGraphic" in2="effect1_dropShadow_40:56" result="shape"/>
</filter>
<linearGradient id="paint0_linear_40:56" x1="160" y1="0" x2="160" y2="333" gradientUnits="userSpaceOnUse">
<stop stop-color="#007E58"/>
<stop offset="1" stop-color="#2F4D7A" stop-opacity="0.95"/>
</linearGradient>
</defs>
</svg>
