<svg width="332" height="346" viewBox="0 0 332 346" fill="none" xmlns="http://www.w3.org/2000/svg">
<g filter="url(#filter0_d)">
<rect width="320" height="333" fill="url(#paint0_linear)"/>
<path d="M35.2387 55H31.6059V30.918L24.3207 33.5938V30.3125L34.6723 26.4258H35.2387V55ZM46.2739 53.1055C46.2739 52.4805 46.4562 51.9596 46.8207 51.543C47.1983 51.1263 47.7582 50.918 48.5004 50.918C49.2426 50.918 49.8025 51.1263 50.1801 51.543C50.5707 51.9596 50.7661 52.4805 50.7661 53.1055C50.7661 53.7044 50.5707 54.2057 50.1801 54.6094C49.8025 55.013 49.2426 55.2148 48.5004 55.2148C47.7582 55.2148 47.1983 55.013 46.8207 54.6094C46.4562 54.2057 46.2739 53.7044 46.2739 53.1055Z" fill="white"/>
<path d="M213.781 217H194.934V151.277H123.254V217H104.504V74.8125H123.254V135.945H194.934V74.8125H213.781V217Z" fill="white"/>
<path d="M83.4453 273H78.7334V256.569H60.8135V273H56.126V237.453H60.8135V252.736H78.7334V237.453H83.4453V273ZM99.7051 266.384L105.857 246.584H110.691L100.071 277.077C98.4274 281.472 95.8151 283.669 92.2344 283.669L91.3799 283.596L89.6953 283.278V279.616L90.916 279.714C92.446 279.714 93.6341 279.405 94.4805 278.786C95.3431 278.168 96.0511 277.036 96.6045 275.393L97.6055 272.707L88.1816 246.584H93.1133L99.7051 266.384ZM113.304 259.572C113.304 255.52 114.264 252.264 116.185 249.807C118.105 247.333 120.62 246.096 123.729 246.096C126.821 246.096 129.271 247.154 131.077 249.27V235.5H135.594V273H131.443L131.224 270.168C129.417 272.382 126.902 273.488 123.68 273.488C120.62 273.488 118.121 272.235 116.185 269.729C114.264 267.222 113.304 263.951 113.304 259.914V259.572ZM117.82 260.085C117.82 263.08 118.439 265.424 119.676 267.116C120.913 268.809 122.622 269.655 124.803 269.655C127.667 269.655 129.759 268.369 131.077 265.798V253.664C129.726 251.174 127.651 249.929 124.852 249.929C122.638 249.929 120.913 250.783 119.676 252.492C118.439 254.201 117.82 256.732 117.82 260.085ZM155.394 250.637C154.71 250.523 153.969 250.466 153.172 250.466C150.21 250.466 148.2 251.727 147.142 254.25V273H142.625V246.584H147.02L147.093 249.636C148.574 247.276 150.674 246.096 153.392 246.096C154.271 246.096 154.938 246.21 155.394 246.438V250.637ZM157.884 259.548C157.884 256.96 158.388 254.632 159.397 252.565C160.423 250.498 161.839 248.903 163.646 247.78C165.468 246.657 167.544 246.096 169.871 246.096C173.468 246.096 176.373 247.341 178.587 249.831C180.817 252.321 181.932 255.633 181.932 259.768V260.085C181.932 262.657 181.435 264.968 180.442 267.019C179.466 269.053 178.058 270.64 176.219 271.779C174.396 272.919 172.296 273.488 169.92 273.488C166.339 273.488 163.434 272.243 161.204 269.753C158.991 267.263 157.884 263.967 157.884 259.865V259.548ZM162.425 260.085C162.425 263.015 163.1 265.367 164.451 267.141C165.818 268.915 167.641 269.802 169.92 269.802C172.215 269.802 174.038 268.907 175.389 267.116C176.74 265.31 177.415 262.787 177.415 259.548C177.415 256.651 176.723 254.307 175.34 252.517C173.973 250.71 172.15 249.807 169.871 249.807C167.641 249.807 165.843 250.694 164.476 252.468C163.108 254.242 162.425 256.781 162.425 260.085ZM186.521 259.572C186.521 255.454 187.474 252.183 189.378 249.758C191.282 247.316 193.805 246.096 196.946 246.096C200.169 246.096 202.684 247.235 204.49 249.514L204.71 246.584H208.836V272.365C208.836 275.783 207.819 278.477 205.784 280.446C203.766 282.416 201.048 283.4 197.63 283.4C195.726 283.4 193.862 282.993 192.039 282.18C190.216 281.366 188.825 280.251 187.864 278.835L190.208 276.125C192.145 278.518 194.513 279.714 197.312 279.714C199.51 279.714 201.219 279.095 202.439 277.858C203.676 276.621 204.295 274.88 204.295 272.634V270.363C202.488 272.447 200.022 273.488 196.897 273.488C193.805 273.488 191.299 272.243 189.378 269.753C187.474 267.263 186.521 263.869 186.521 259.572ZM191.062 260.085C191.062 263.063 191.673 265.407 192.894 267.116C194.114 268.809 195.823 269.655 198.021 269.655C200.869 269.655 202.96 268.361 204.295 265.773V253.713C202.911 251.19 200.836 249.929 198.069 249.929C195.872 249.929 194.155 250.783 192.918 252.492C191.681 254.201 191.062 256.732 191.062 260.085ZM226.634 273.488C223.053 273.488 220.14 272.316 217.894 269.973C215.647 267.613 214.524 264.463 214.524 260.524V259.694C214.524 257.074 215.021 254.738 216.014 252.688C217.023 250.62 218.423 249.009 220.213 247.854C222.02 246.682 223.973 246.096 226.072 246.096C229.507 246.096 232.176 247.227 234.08 249.489C235.984 251.752 236.937 254.991 236.937 259.206V261.086H219.041C219.106 263.69 219.863 265.798 221.312 267.409C222.776 269.004 224.632 269.802 226.878 269.802C228.473 269.802 229.824 269.476 230.931 268.825C232.037 268.174 233.006 267.312 233.836 266.237L236.595 268.386C234.381 271.787 231.061 273.488 226.634 273.488ZM226.072 249.807C224.249 249.807 222.719 250.474 221.482 251.809C220.245 253.127 219.48 254.982 219.188 257.375H232.42V257.033C232.29 254.738 231.671 252.964 230.564 251.711C229.458 250.441 227.96 249.807 226.072 249.807ZM246.458 246.584L246.604 249.904C248.623 247.365 251.259 246.096 254.515 246.096C260.097 246.096 262.913 249.245 262.962 255.544V273H258.445V255.52C258.429 253.615 257.99 252.207 257.127 251.296C256.281 250.384 254.954 249.929 253.147 249.929C251.683 249.929 250.397 250.319 249.29 251.101C248.183 251.882 247.321 252.907 246.702 254.177V273H242.186V246.584H246.458Z" fill="white"/>
<path d="M132.679 313H129.954V294.938L124.49 296.945V294.484L132.254 291.569H132.679V313ZM140.955 311.579C140.955 311.11 141.092 310.72 141.365 310.407C141.648 310.095 142.068 309.938 142.625 309.938C143.182 309.938 143.602 310.095 143.885 310.407C144.178 310.72 144.324 311.11 144.324 311.579C144.324 312.028 144.178 312.404 143.885 312.707C143.602 313.01 143.182 313.161 142.625 313.161C142.068 313.161 141.648 313.01 141.365 312.707C141.092 312.404 140.955 312.028 140.955 311.579ZM161.902 303.903C161.902 307.077 161.36 309.436 160.276 310.979C159.192 312.521 157.498 313.293 155.193 313.293C152.918 313.293 151.233 312.541 150.14 311.037C149.046 309.523 148.479 307.268 148.44 304.27V300.651C148.44 297.517 148.982 295.188 150.066 293.664C151.15 292.141 152.85 291.379 155.164 291.379C157.459 291.379 159.148 292.116 160.232 293.591C161.316 295.056 161.873 297.321 161.902 300.388V303.903ZM159.192 300.197C159.192 297.902 158.87 296.232 158.226 295.188C157.581 294.133 156.561 293.605 155.164 293.605C153.777 293.605 152.767 294.128 152.132 295.173C151.497 296.218 151.17 297.824 151.15 299.992V304.328C151.15 306.633 151.482 308.337 152.146 309.44C152.82 310.534 153.836 311.081 155.193 311.081C156.531 311.081 157.522 310.563 158.167 309.528C158.821 308.493 159.163 306.862 159.192 304.636V300.197ZM178.748 303.903C178.748 307.077 178.206 309.436 177.122 310.979C176.038 312.521 174.344 313.293 172.039 313.293C169.764 313.293 168.079 312.541 166.985 311.037C165.892 309.523 165.325 307.268 165.286 304.27V300.651C165.286 297.517 165.828 295.188 166.912 293.664C167.996 292.141 169.695 291.379 172.01 291.379C174.305 291.379 175.994 292.116 177.078 293.591C178.162 295.056 178.719 297.321 178.748 300.388V303.903ZM176.038 300.197C176.038 297.902 175.716 296.232 175.071 295.188C174.427 294.133 173.406 293.605 172.01 293.605C170.623 293.605 169.612 294.128 168.978 295.173C168.343 296.218 168.016 297.824 167.996 299.992V304.328C167.996 306.633 168.328 308.337 168.992 309.44C169.666 310.534 170.682 311.081 172.039 311.081C173.377 311.081 174.368 310.563 175.013 309.528C175.667 308.493 176.009 306.862 176.038 304.636V300.197ZM195.154 297.238C195.154 298.303 194.871 299.25 194.305 300.08C193.748 300.91 192.991 301.56 192.034 302.028C193.147 302.507 194.026 303.205 194.671 304.123C195.325 305.041 195.652 306.081 195.652 307.243C195.652 309.089 195.027 310.559 193.777 311.652C192.537 312.746 190.901 313.293 188.87 313.293C186.819 313.293 185.174 312.746 183.934 311.652C182.703 310.549 182.088 309.079 182.088 307.243C182.088 306.091 182.4 305.051 183.025 304.123C183.66 303.195 184.534 302.492 185.647 302.014C184.7 301.545 183.953 300.896 183.406 300.065C182.859 299.235 182.586 298.293 182.586 297.238C182.586 295.441 183.162 294.016 184.314 292.961C185.467 291.906 186.985 291.379 188.87 291.379C190.745 291.379 192.259 291.906 193.411 292.961C194.573 294.016 195.154 295.441 195.154 297.238ZM192.942 307.185C192.942 305.993 192.562 305.021 191.8 304.27C191.048 303.518 190.062 303.142 188.841 303.142C187.62 303.142 186.639 303.513 185.896 304.255C185.164 304.997 184.798 305.974 184.798 307.185C184.798 308.396 185.154 309.348 185.867 310.041C186.59 310.734 187.591 311.081 188.87 311.081C190.14 311.081 191.136 310.734 191.858 310.041C192.581 309.338 192.942 308.386 192.942 307.185ZM188.87 293.605C187.806 293.605 186.941 293.938 186.277 294.602C185.623 295.256 185.296 296.149 185.296 297.282C185.296 298.366 185.618 299.245 186.263 299.919C186.917 300.583 187.786 300.915 188.87 300.915C189.954 300.915 190.818 300.583 191.463 299.919C192.117 299.245 192.444 298.366 192.444 297.282C192.444 296.198 192.107 295.314 191.434 294.631C190.76 293.947 189.905 293.605 188.87 293.605Z" fill="white"/>
</g>
<defs>
<filter id="filter0_d" x="0" y="0" width="332" height="346" filterUnits="userSpaceOnUse" color-interpolation-filters="sRGB">
<feFlood flood-opacity="0" result="BackgroundImageFix"/>
<feColorMatrix in="SourceAlpha" type="matrix" values="0 0 0 0 0 0 0 0 0 0 0 0 0 0 0 0 0 0 127 0" result="hardAlpha"/>
<feOffset dx="8" dy="9"/>
<feGaussianBlur stdDeviation="2"/>
<feComposite in2="hardAlpha" operator="out"/>
<feColorMatrix type="matrix" values="0 0 0 0 0 0 0 0 0 0 0 0 0 0 0 0 0 0 0.25 0"/>
<feBlend mode="normal" in2="BackgroundImageFix" result="effect1_dropShadow"/>
<feBlend mode="normal" in="SourceGraphic" in2="effect1_dropShadow" result="shape"/>
</filter>
<linearGradient id="paint0_linear" x1="160" y1="0" x2="160" y2="333" gradientUnits="userSpaceOnUse">
<stop stop-color="#007E58"/>
<stop offset="1" stop-color="#2F4D7A" stop-opacity="0.95"/>
</linearGradient>
</defs>
</svg>
