<svg width="332" height="346" viewBox="0 0 332 346" fill="none" xmlns="http://www.w3.org/2000/svg">
<g filter="url(#filter0_d)">
<rect width="320" height="333" fill="url(#paint0_linear)"/>
<path d="M161.781 217H142.934V151.277H71.2539V217H52.5039V74.8125H71.2539V135.945H142.934V74.8125H161.781V217ZM236.098 218.953C221.775 218.953 210.121 214.266 201.137 204.891C192.152 195.451 187.66 182.853 187.66 167.098V163.777C187.66 153.296 189.646 143.953 193.617 135.75C197.654 127.482 203.253 121.036 210.414 116.414C217.641 111.727 225.453 109.383 233.852 109.383C247.589 109.383 258.266 113.908 265.883 122.957C273.5 132.007 277.309 144.962 277.309 161.824V169.344H205.727C205.987 179.76 209.014 188.191 214.809 194.637C220.668 201.017 228.09 204.207 237.074 204.207C243.454 204.207 248.858 202.905 253.285 200.301C257.712 197.697 261.586 194.246 264.906 189.949L275.941 198.543C267.087 212.15 253.806 218.953 236.098 218.953ZM233.852 124.227C226.56 124.227 220.44 126.896 215.492 132.234C210.544 137.508 207.484 144.93 206.312 154.5H259.242V153.133C258.721 143.953 256.247 136.857 251.82 131.844C247.393 126.766 241.404 124.227 233.852 124.227Z" fill="white"/>
<path d="M41.9965 55H23.3637V52.4023L33.2075 41.4648C34.6658 39.8112 35.6684 38.4701 36.2153 37.4414C36.7752 36.3997 37.0551 35.3255 37.0551 34.2188C37.0551 32.7344 36.6059 31.5169 35.7075 30.5664C34.809 29.6159 33.6111 29.1406 32.1137 29.1406C30.3168 29.1406 28.9171 29.6549 27.9145 30.6836C26.9249 31.6992 26.4301 33.1185 26.4301 34.9414H22.8168C22.8168 32.3242 23.6567 30.2083 25.3364 28.5938C27.0291 26.9792 29.2882 26.1719 32.1137 26.1719C34.7569 26.1719 36.8468 26.8685 38.3832 28.2617C39.9197 29.6419 40.6879 31.4844 40.6879 33.7891C40.6879 36.5885 38.9041 39.9219 35.3364 43.7891L27.7192 52.0508H41.9965V55ZM46.2739 53.1055C46.2739 52.4805 46.4562 51.9596 46.8207 51.543C47.1983 51.1263 47.7582 50.918 48.5004 50.918C49.2426 50.918 49.8025 51.1263 50.1801 51.543C50.5707 51.9596 50.7661 52.4805 50.7661 53.1055C50.7661 53.7044 50.5707 54.2057 50.1801 54.6094C49.8025 55.013 49.2426 55.2148 48.5004 55.2148C47.7582 55.2148 47.1983 55.013 46.8207 54.6094C46.4562 54.2057 46.2739 53.7044 46.2739 53.1055Z" fill="white"/>
<path d="M112.445 273H107.733V256.569H89.8135V273H85.126V237.453H89.8135V252.736H107.733V237.453H112.445V273ZM131.024 273.488C127.444 273.488 124.53 272.316 122.284 269.973C120.038 267.613 118.915 264.463 118.915 260.524V259.694C118.915 257.074 119.411 254.738 120.404 252.688C121.413 250.62 122.813 249.009 124.604 247.854C126.41 246.682 128.363 246.096 130.463 246.096C133.897 246.096 136.566 247.227 138.471 249.489C140.375 251.752 141.327 254.991 141.327 259.206V261.086H123.432C123.497 263.69 124.254 265.798 125.702 267.409C127.167 269.004 129.022 269.802 131.269 269.802C132.864 269.802 134.215 269.476 135.321 268.825C136.428 268.174 137.396 267.312 138.227 266.237L140.985 268.386C138.772 271.787 135.451 273.488 131.024 273.488ZM130.463 249.807C128.64 249.807 127.11 250.474 125.873 251.809C124.636 253.127 123.871 254.982 123.578 257.375H136.811V257.033C136.68 254.738 136.062 252.964 134.955 251.711C133.848 250.441 132.351 249.807 130.463 249.807ZM151.483 273H146.967V235.5H151.483V273ZM163.642 273H159.125V246.584H163.642V273ZM158.759 239.577C158.759 238.845 158.979 238.226 159.418 237.722C159.874 237.217 160.541 236.965 161.42 236.965C162.299 236.965 162.966 237.217 163.422 237.722C163.878 238.226 164.105 238.845 164.105 239.577C164.105 240.31 163.878 240.92 163.422 241.408C162.966 241.896 162.299 242.141 161.42 242.141C160.541 242.141 159.874 241.896 159.418 241.408C158.979 240.92 158.759 240.31 158.759 239.577ZM187.201 270.388C185.443 272.455 182.864 273.488 179.462 273.488C176.646 273.488 174.498 272.674 173.017 271.047C171.552 269.403 170.811 266.978 170.795 263.771V246.584H175.312V263.649C175.312 267.653 176.939 269.655 180.194 269.655C183.645 269.655 185.94 268.369 187.079 265.798V246.584H191.596V273H187.299L187.201 270.388ZM202.729 246.584L202.851 249.514C204.787 247.235 207.4 246.096 210.688 246.096C214.382 246.096 216.897 247.512 218.231 250.344C219.11 249.074 220.25 248.049 221.649 247.268C223.065 246.486 224.734 246.096 226.654 246.096C232.449 246.096 235.395 249.164 235.492 255.3V273H230.976V255.568C230.976 253.68 230.544 252.272 229.682 251.345C228.819 250.401 227.37 249.929 225.336 249.929C223.66 249.929 222.268 250.433 221.161 251.442C220.054 252.435 219.411 253.778 219.232 255.471V273H214.691V255.69C214.691 251.849 212.812 249.929 209.052 249.929C206.09 249.929 204.063 251.19 202.973 253.713V273H198.456V246.584H202.729Z" fill="white"/>
<path d="M135.213 305.837H138.172V308.049H135.213V313H132.488V308.049H122.776V306.452L132.327 291.672H135.213V305.837ZM125.853 305.837H132.488V295.378L132.166 295.964L125.853 305.837ZM140.955 311.579C140.955 311.11 141.092 310.72 141.365 310.407C141.648 310.095 142.068 309.938 142.625 309.938C143.182 309.938 143.602 310.095 143.885 310.407C144.178 310.72 144.324 311.11 144.324 311.579C144.324 312.028 144.178 312.404 143.885 312.707C143.602 313.01 143.182 313.161 142.625 313.161C142.068 313.161 141.648 313.01 141.365 312.707C141.092 312.404 140.955 312.028 140.955 311.579ZM161.902 303.903C161.902 307.077 161.36 309.436 160.276 310.979C159.192 312.521 157.498 313.293 155.193 313.293C152.918 313.293 151.233 312.541 150.14 311.037C149.046 309.523 148.479 307.268 148.44 304.27V300.651C148.44 297.517 148.982 295.188 150.066 293.664C151.15 292.141 152.85 291.379 155.164 291.379C157.459 291.379 159.148 292.116 160.232 293.591C161.316 295.056 161.873 297.321 161.902 300.388V303.903ZM159.192 300.197C159.192 297.902 158.87 296.232 158.226 295.188C157.581 294.133 156.561 293.605 155.164 293.605C153.777 293.605 152.767 294.128 152.132 295.173C151.497 296.218 151.17 297.824 151.15 299.992V304.328C151.15 306.633 151.482 308.337 152.146 309.44C152.82 310.534 153.836 311.081 155.193 311.081C156.531 311.081 157.522 310.563 158.167 309.528C158.821 308.493 159.163 306.862 159.192 304.636V300.197ZM178.748 303.903C178.748 307.077 178.206 309.436 177.122 310.979C176.038 312.521 174.344 313.293 172.039 313.293C169.764 313.293 168.079 312.541 166.985 311.037C165.892 309.523 165.325 307.268 165.286 304.27V300.651C165.286 297.517 165.828 295.188 166.912 293.664C167.996 292.141 169.695 291.379 172.01 291.379C174.305 291.379 175.994 292.116 177.078 293.591C178.162 295.056 178.719 297.321 178.748 300.388V303.903ZM176.038 300.197C176.038 297.902 175.716 296.232 175.071 295.188C174.427 294.133 173.406 293.605 172.01 293.605C170.623 293.605 169.612 294.128 168.978 295.173C168.343 296.218 168.016 297.824 167.996 299.992V304.328C167.996 306.633 168.328 308.337 168.992 309.44C169.666 310.534 170.682 311.081 172.039 311.081C173.377 311.081 174.368 310.563 175.013 309.528C175.667 308.493 176.009 306.862 176.038 304.636V300.197ZM186.16 301.018H188.196C189.476 300.998 190.481 300.661 191.214 300.007C191.946 299.353 192.312 298.469 192.312 297.355C192.312 294.855 191.067 293.605 188.577 293.605C187.405 293.605 186.468 293.942 185.765 294.616C185.071 295.28 184.725 296.164 184.725 297.268H182.015C182.015 295.578 182.63 294.177 183.86 293.063C185.101 291.94 186.673 291.379 188.577 291.379C190.589 291.379 192.166 291.911 193.309 292.976C194.451 294.04 195.022 295.52 195.022 297.414C195.022 298.342 194.72 299.24 194.114 300.109C193.519 300.979 192.703 301.628 191.668 302.058C192.84 302.429 193.743 303.044 194.378 303.903C195.022 304.763 195.345 305.812 195.345 307.053C195.345 308.967 194.72 310.485 193.47 311.608C192.22 312.731 190.594 313.293 188.592 313.293C186.59 313.293 184.959 312.751 183.699 311.667C182.449 310.583 181.824 309.152 181.824 307.375H184.549C184.549 308.498 184.915 309.396 185.647 310.07C186.38 310.744 187.361 311.081 188.592 311.081C189.9 311.081 190.901 310.739 191.595 310.056C192.288 309.372 192.635 308.391 192.635 307.111C192.635 305.871 192.254 304.919 191.492 304.255C190.73 303.591 189.632 303.249 188.196 303.229H186.16V301.018Z" fill="white"/>
</g>
<defs>
<filter id="filter0_d" x="0" y="0" width="332" height="346" filterUnits="userSpaceOnUse" color-interpolation-filters="sRGB">
<feFlood flood-opacity="0" result="BackgroundImageFix"/>
<feColorMatrix in="SourceAlpha" type="matrix" values="0 0 0 0 0 0 0 0 0 0 0 0 0 0 0 0 0 0 127 0" result="hardAlpha"/>
<feOffset dx="8" dy="9"/>
<feGaussianBlur stdDeviation="2"/>
<feComposite in2="hardAlpha" operator="out"/>
<feColorMatrix type="matrix" values="0 0 0 0 0 0 0 0 0 0 0 0 0 0 0 0 0 0 0.25 0"/>
<feBlend mode="normal" in2="BackgroundImageFix" result="effect1_dropShadow"/>
<feBlend mode="normal" in="SourceGraphic" in2="effect1_dropShadow" result="shape"/>
</filter>
<linearGradient id="paint0_linear" x1="160" y1="0" x2="160" y2="333" gradientUnits="userSpaceOnUse">
<stop stop-color="#007E58"/>
<stop offset="1" stop-color="#2F4D7A" stop-opacity="0.95"/>
</linearGradient>
</defs>
</svg>
