<svg width="332" height="346" viewBox="0 0 332 346" fill="none" xmlns="http://www.w3.org/2000/svg">
<g filter="url(#filter0_d_34:45)">
<rect width="320" height="333" fill="url(#paint0_linear_34:45)"/>
<path d="M37.5435 26.543V29.6094H36.8794C34.0669 29.6615 31.8273 30.4948 30.1606 32.1094C28.494 33.724 27.5304 35.9961 27.27 38.9258C28.7674 37.207 30.8117 36.3477 33.4028 36.3477C35.8768 36.3477 37.8494 37.2201 39.3208 38.9648C40.8052 40.7096 41.5474 42.9622 41.5474 45.7227C41.5474 48.6523 40.7466 50.9961 39.145 52.7539C37.5565 54.5117 35.4211 55.3906 32.7388 55.3906C30.0174 55.3906 27.8104 54.349 26.1177 52.2656C24.425 50.1693 23.5786 47.474 23.5786 44.1797V42.793C23.5786 37.5586 24.6919 33.5612 26.9185 30.8008C29.158 28.0273 32.4849 26.6081 36.8989 26.543H37.5435ZM32.7974 39.3555C31.5604 39.3555 30.4211 39.7266 29.3794 40.4688C28.3377 41.2109 27.6151 42.1419 27.2114 43.2617V44.5898C27.2114 46.9336 27.7388 48.8216 28.7935 50.2539C29.8481 51.6862 31.1632 52.4023 32.7388 52.4023C34.3664 52.4023 35.6424 51.8034 36.5669 50.6055C37.5044 49.4076 37.9731 47.8385 37.9731 45.8984C37.9731 43.9453 37.4979 42.3698 36.5474 41.1719C35.6099 39.9609 34.3599 39.3555 32.7974 39.3555ZM64.1841 28.5938L52.4067 55H48.6177L60.356 29.5312H44.9653V26.5625H64.1841V28.5938ZM68.7349 53.1055C68.7349 52.4805 68.9172 51.9596 69.2817 51.543C69.6593 51.1263 70.2192 50.918 70.9614 50.918C71.7036 50.918 72.2635 51.1263 72.6411 51.543C73.0317 51.9596 73.2271 52.4805 73.2271 53.1055C73.2271 53.7044 73.0317 54.2057 72.6411 54.6094C72.2635 55.013 71.7036 55.2148 70.9614 55.2148C70.2192 55.2148 69.6593 55.013 69.2817 54.6094C68.9172 54.2057 68.7349 53.7044 68.7349 53.1055Z" fill="white"/>
<path d="M156.781 217H137.934V151.277H66.2539V217H47.5039V74.8125H66.2539V135.945H137.934V74.8125H156.781V217ZM182.465 163.191C182.465 152.84 184.483 143.53 188.52 135.262C192.621 126.993 198.285 120.613 205.512 116.121C212.803 111.629 221.104 109.383 230.414 109.383C244.802 109.383 256.423 114.363 265.277 124.324C274.197 134.285 278.656 147.534 278.656 164.07V165.34C278.656 175.626 276.671 184.871 272.699 193.074C268.793 201.212 263.161 207.56 255.805 212.117C248.513 216.674 240.115 218.953 230.609 218.953C216.286 218.953 204.665 213.973 195.746 204.012C186.892 194.051 182.465 180.867 182.465 164.461V163.191ZM200.629 165.34C200.629 177.059 203.331 186.466 208.734 193.562C214.203 200.659 221.495 204.207 230.609 204.207C239.789 204.207 247.081 200.626 252.484 193.465C257.888 186.238 260.59 176.147 260.59 163.191C260.59 151.603 257.823 142.228 252.289 135.066C246.82 127.84 239.529 124.227 230.414 124.227C221.495 124.227 214.301 127.775 208.832 134.871C203.363 141.967 200.629 152.124 200.629 165.34Z" fill="white"/>
<path d="M89.4453 273H84.7334V256.569H66.8135V273H62.126V237.453H66.8135V252.736H84.7334V237.453H89.4453V273ZM95.8662 259.548C95.8662 256.96 96.3708 254.632 97.3799 252.565C98.4053 250.498 99.8213 248.903 101.628 247.78C103.451 246.657 105.526 246.096 107.854 246.096C111.451 246.096 114.356 247.341 116.569 249.831C118.799 252.321 119.914 255.633 119.914 259.768V260.085C119.914 262.657 119.418 264.968 118.425 267.019C117.448 269.053 116.04 270.64 114.201 271.779C112.378 272.919 110.279 273.488 107.902 273.488C104.322 273.488 101.416 272.243 99.1865 269.753C96.973 267.263 95.8662 263.967 95.8662 259.865V259.548ZM100.407 260.085C100.407 263.015 101.083 265.367 102.434 267.141C103.801 268.915 105.624 269.802 107.902 269.802C110.197 269.802 112.02 268.907 113.371 267.116C114.722 265.31 115.397 262.787 115.397 259.548C115.397 256.651 114.706 254.307 113.322 252.517C111.955 250.71 110.132 249.807 107.854 249.807C105.624 249.807 103.825 250.694 102.458 252.468C101.091 254.242 100.407 256.781 100.407 260.085ZM130.485 273H125.969V235.5H130.485V273ZM141.984 246.584L142.106 249.514C144.043 247.235 146.656 246.096 149.943 246.096C153.638 246.096 156.153 247.512 157.487 250.344C158.366 249.074 159.506 248.049 160.905 247.268C162.321 246.486 163.99 246.096 165.91 246.096C171.704 246.096 174.65 249.164 174.748 255.3V273H170.231V255.568C170.231 253.68 169.8 252.272 168.938 251.345C168.075 250.401 166.626 249.929 164.592 249.929C162.915 249.929 161.524 250.433 160.417 251.442C159.31 252.435 158.667 253.778 158.488 255.471V273H153.947V255.69C153.947 251.849 152.067 249.929 148.308 249.929C145.345 249.929 143.319 251.19 142.229 253.713V273H137.712V246.584H141.984ZM186.491 273H181.975V246.584H186.491V273ZM181.608 239.577C181.608 238.845 181.828 238.226 182.268 237.722C182.723 237.217 183.391 236.965 184.27 236.965C185.148 236.965 185.816 237.217 186.271 237.722C186.727 238.226 186.955 238.845 186.955 239.577C186.955 240.31 186.727 240.92 186.271 241.408C185.816 241.896 185.148 242.141 184.27 242.141C183.391 242.141 182.723 241.896 182.268 241.408C181.828 240.92 181.608 240.31 181.608 239.577ZM210.051 270.388C208.293 272.455 205.713 273.488 202.312 273.488C199.496 273.488 197.347 272.674 195.866 271.047C194.401 269.403 193.661 266.978 193.645 263.771V246.584H198.161V263.649C198.161 267.653 199.789 269.655 203.044 269.655C206.494 269.655 208.789 268.369 209.929 265.798V246.584H214.445V273H210.148L210.051 270.388ZM225.578 246.584L225.7 249.514C227.637 247.235 230.249 246.096 233.537 246.096C237.232 246.096 239.746 247.512 241.081 250.344C241.96 249.074 243.099 248.049 244.499 247.268C245.915 246.486 247.583 246.096 249.504 246.096C255.298 246.096 258.244 249.164 258.342 255.3V273H253.825V255.568C253.825 253.68 253.394 252.272 252.531 251.345C251.669 250.401 250.22 249.929 248.186 249.929C246.509 249.929 245.118 250.433 244.011 251.442C242.904 252.435 242.261 253.778 242.082 255.471V273H237.541V255.69C237.541 251.849 235.661 249.929 231.901 249.929C228.939 249.929 226.913 251.19 225.822 253.713V273H221.306V246.584H225.578Z" fill="white"/>
<path d="M124.679 313H121.954V294.938L116.49 296.945V294.484L124.254 291.569H124.679V313ZM143.253 291.657V293.957H142.755C140.646 293.996 138.966 294.621 137.716 295.832C136.466 297.043 135.743 298.747 135.548 300.944C136.671 299.655 138.204 299.011 140.147 299.011C142.003 299.011 143.482 299.665 144.586 300.974C145.699 302.282 146.256 303.972 146.256 306.042C146.256 308.239 145.655 309.997 144.454 311.315C143.263 312.634 141.661 313.293 139.649 313.293C137.608 313.293 135.953 312.512 134.684 310.949C133.414 309.377 132.779 307.355 132.779 304.885V303.845C132.779 299.919 133.614 296.921 135.284 294.851C136.964 292.771 139.459 291.706 142.77 291.657H143.253ZM139.693 301.267C138.766 301.267 137.911 301.545 137.13 302.102C136.349 302.658 135.807 303.356 135.504 304.196V305.192C135.504 306.95 135.899 308.366 136.69 309.44C137.481 310.515 138.468 311.052 139.649 311.052C140.87 311.052 141.827 310.603 142.521 309.704C143.224 308.806 143.575 307.629 143.575 306.174C143.575 304.709 143.219 303.527 142.506 302.629C141.803 301.721 140.865 301.267 139.693 301.267ZM160.904 305.837H163.863V308.049H160.904V313H158.18V308.049H148.468V306.452L158.019 291.672H160.904V305.837ZM151.544 305.837H158.18V295.378L157.857 295.964L151.544 305.837ZM166.646 311.579C166.646 311.11 166.783 310.72 167.057 310.407C167.34 310.095 167.76 309.938 168.316 309.938C168.873 309.938 169.293 310.095 169.576 310.407C169.869 310.72 170.016 311.11 170.016 311.579C170.016 312.028 169.869 312.404 169.576 312.707C169.293 313.01 168.873 313.161 168.316 313.161C167.76 313.161 167.34 313.01 167.057 312.707C166.783 312.404 166.646 312.028 166.646 311.579ZM184.605 303.625C184.039 304.299 183.36 304.841 182.569 305.251C181.788 305.661 180.929 305.866 179.991 305.866C178.761 305.866 177.687 305.563 176.769 304.958C175.86 304.353 175.157 303.503 174.659 302.409C174.161 301.306 173.912 300.09 173.912 298.762C173.912 297.336 174.181 296.052 174.718 294.909C175.265 293.767 176.036 292.893 177.032 292.287C178.028 291.682 179.19 291.379 180.519 291.379C182.628 291.379 184.288 292.17 185.499 293.752C186.72 295.324 187.33 297.473 187.33 300.197V300.988C187.33 305.139 186.51 308.171 184.869 310.085C183.229 311.989 180.753 312.966 177.442 313.015H176.915V310.729H177.486C179.723 310.69 181.441 310.109 182.643 308.986C183.844 307.854 184.498 306.066 184.605 303.625ZM180.431 303.625C181.339 303.625 182.174 303.347 182.936 302.79C183.707 302.233 184.269 301.545 184.62 300.725V299.641C184.62 297.863 184.234 296.418 183.463 295.305C182.691 294.191 181.715 293.635 180.533 293.635C179.342 293.635 178.385 294.094 177.662 295.012C176.939 295.92 176.578 297.121 176.578 298.615C176.578 300.07 176.925 301.271 177.618 302.219C178.321 303.156 179.259 303.625 180.431 303.625ZM195.006 301.018H197.042C198.321 300.998 199.327 300.661 200.06 300.007C200.792 299.353 201.158 298.469 201.158 297.355C201.158 294.855 199.913 293.605 197.423 293.605C196.251 293.605 195.313 293.942 194.61 294.616C193.917 295.28 193.57 296.164 193.57 297.268H190.86C190.86 295.578 191.476 294.177 192.706 293.063C193.946 291.94 195.519 291.379 197.423 291.379C199.435 291.379 201.012 291.911 202.154 292.976C203.297 294.04 203.868 295.52 203.868 297.414C203.868 298.342 203.565 299.24 202.96 300.109C202.364 300.979 201.549 301.628 200.514 302.058C201.686 302.429 202.589 303.044 203.224 303.903C203.868 304.763 204.19 305.812 204.19 307.053C204.19 308.967 203.565 310.485 202.315 311.608C201.065 312.731 199.439 313.293 197.438 313.293C195.436 313.293 193.805 312.751 192.545 311.667C191.295 310.583 190.67 309.152 190.67 307.375H193.395C193.395 308.498 193.761 309.396 194.493 310.07C195.226 310.744 196.207 311.081 197.438 311.081C198.746 311.081 199.747 310.739 200.44 310.056C201.134 309.372 201.48 308.391 201.48 307.111C201.48 305.871 201.1 304.919 200.338 304.255C199.576 303.591 198.478 303.249 197.042 303.229H195.006V301.018Z" fill="white"/>
</g>
<defs>
<filter id="filter0_d_34:45" x="0" y="0" width="332" height="346" filterUnits="userSpaceOnUse" color-interpolation-filters="sRGB">
<feFlood flood-opacity="0" result="BackgroundImageFix"/>
<feColorMatrix in="SourceAlpha" type="matrix" values="0 0 0 0 0 0 0 0 0 0 0 0 0 0 0 0 0 0 127 0" result="hardAlpha"/>
<feOffset dx="8" dy="9"/>
<feGaussianBlur stdDeviation="2"/>
<feComposite in2="hardAlpha" operator="out"/>
<feColorMatrix type="matrix" values="0 0 0 0 0 0 0 0 0 0 0 0 0 0 0 0 0 0 0.25 0"/>
<feBlend mode="normal" in2="BackgroundImageFix" result="effect1_dropShadow_34:45"/>
<feBlend mode="normal" in="SourceGraphic" in2="effect1_dropShadow_34:45" result="shape"/>
</filter>
<linearGradient id="paint0_linear_34:45" x1="160" y1="0" x2="160" y2="333" gradientUnits="userSpaceOnUse">
<stop stop-color="#007E58"/>
<stop offset="1" stop-color="#2F4D7A" stop-opacity="0.95"/>
</linearGradient>
</defs>
</svg>
