<svg width="332" height="346" viewBox="0 0 332 346" fill="none" xmlns="http://www.w3.org/2000/svg">
<g filter="url(#filter0_d_26:20)">
<rect width="320" height="333" fill="url(#paint0_linear_26:20)"/>
<path d="M25.0234 40.7422L26.4688 26.5625H41.0391V29.9023H29.5352L28.6758 37.6562C30.069 36.8359 31.651 36.4258 33.4219 36.4258C36.013 36.4258 38.0703 37.2852 39.5938 39.0039C41.1172 40.7096 41.8789 43.0208 41.8789 45.9375C41.8789 48.8672 41.0846 51.1784 39.4961 52.8711C37.9206 54.5508 35.7135 55.3906 32.875 55.3906C30.362 55.3906 28.3112 54.694 26.7227 53.3008C25.1341 51.9076 24.2292 49.9805 24.0078 47.5195H27.4258C27.6471 49.1471 28.2266 50.3776 29.1641 51.2109C30.1016 52.0312 31.3385 52.4414 32.875 52.4414C34.5547 52.4414 35.8698 51.8685 36.8203 50.7227C37.7839 49.5768 38.2656 47.9948 38.2656 45.9766C38.2656 44.0755 37.7448 42.5521 36.7031 41.4062C35.6745 40.2474 34.3008 39.668 32.582 39.668C31.0065 39.668 29.7695 40.013 28.8711 40.7031L27.9141 41.4844L25.0234 40.7422ZM51.0781 39.0234H53.793C55.4987 38.9974 56.8398 38.5482 57.8164 37.6758C58.793 36.8034 59.2812 35.625 59.2812 34.1406C59.2812 30.8073 57.6211 29.1406 54.3008 29.1406C52.7383 29.1406 51.4883 29.5898 50.5508 30.4883C49.6263 31.3737 49.1641 32.5521 49.1641 34.0234H45.5508C45.5508 31.7708 46.3711 29.9023 48.0117 28.418C49.6654 26.9206 51.7617 26.1719 54.3008 26.1719C56.9831 26.1719 59.0859 26.8815 60.6094 28.3008C62.1328 29.7201 62.8945 31.6927 62.8945 34.2188C62.8945 35.4557 62.4909 36.6536 61.6836 37.8125C60.8893 38.9714 59.8021 39.8372 58.4219 40.4102C59.9844 40.9049 61.1888 41.7253 62.0352 42.8711C62.8945 44.0169 63.3242 45.4167 63.3242 47.0703C63.3242 49.6224 62.4909 51.6471 60.8242 53.1445C59.1576 54.6419 56.9896 55.3906 54.3203 55.3906C51.651 55.3906 49.4766 54.668 47.7969 53.2227C46.1302 51.7773 45.2969 49.8698 45.2969 47.5H48.9297C48.9297 48.9974 49.418 50.1953 50.3945 51.0938C51.3711 51.9922 52.6797 52.4414 54.3203 52.4414C56.0651 52.4414 57.3997 51.9857 58.3242 51.0742C59.2487 50.1628 59.7109 48.8542 59.7109 47.1484C59.7109 45.4948 59.2031 44.2253 58.1875 43.3398C57.1719 42.4544 55.707 41.9987 53.793 41.9727H51.0781V39.0234ZM68.7344 53.1055C68.7344 52.4805 68.9167 51.9596 69.2812 51.543C69.6589 51.1263 70.2188 50.918 70.9609 50.918C71.7031 50.918 72.263 51.1263 72.6406 51.543C73.0312 51.9596 73.2266 52.4805 73.2266 53.1055C73.2266 53.7044 73.0312 54.2057 72.6406 54.6094C72.263 55.013 71.7031 55.2148 70.9609 55.2148C70.2188 55.2148 69.6589 55.013 69.2812 54.6094C68.9167 54.2057 68.7344 53.7044 68.7344 53.1055Z" fill="white"/>
<path d="M168.621 217H149.871V74.8125H168.621V217Z" fill="white"/>
<path d="M100.155 273H95.4678V237.453H100.155V273ZM106.845 259.548C106.845 256.96 107.349 254.632 108.358 252.565C109.384 250.498 110.8 248.903 112.606 247.78C114.429 246.657 116.505 246.096 118.832 246.096C122.429 246.096 125.334 247.341 127.548 249.831C129.778 252.321 130.893 255.633 130.893 259.768V260.085C130.893 262.657 130.396 264.968 129.403 267.019C128.427 269.053 127.019 270.64 125.18 271.779C123.357 272.919 121.257 273.488 118.881 273.488C115.3 273.488 112.395 272.243 110.165 269.753C107.951 267.263 106.845 263.967 106.845 259.865V259.548ZM111.386 260.085C111.386 263.015 112.061 265.367 113.412 267.141C114.779 268.915 116.602 269.802 118.881 269.802C121.176 269.802 122.999 268.907 124.35 267.116C125.701 265.31 126.376 262.787 126.376 259.548C126.376 256.651 125.684 254.307 124.301 252.517C122.934 250.71 121.111 249.807 118.832 249.807C116.602 249.807 114.804 250.694 113.437 252.468C112.069 254.242 111.386 256.781 111.386 260.085ZM135.458 259.572C135.458 255.52 136.418 252.264 138.339 249.807C140.259 247.333 142.774 246.096 145.883 246.096C148.975 246.096 151.425 247.154 153.231 249.27V235.5H157.748V273H153.598L153.378 270.168C151.571 272.382 149.057 273.488 145.834 273.488C142.774 273.488 140.276 272.235 138.339 269.729C136.418 267.222 135.458 263.951 135.458 259.914V259.572ZM139.975 260.085C139.975 263.08 140.593 265.424 141.83 267.116C143.067 268.809 144.776 269.655 146.957 269.655C149.822 269.655 151.913 268.369 153.231 265.798V253.664C151.881 251.174 149.805 249.929 147.006 249.929C144.792 249.929 143.067 250.783 141.83 252.492C140.593 254.201 139.975 256.732 139.975 260.085ZM169.687 273H165.17V246.584H169.687V273ZM164.804 239.577C164.804 238.845 165.023 238.226 165.463 237.722C165.919 237.217 166.586 236.965 167.465 236.965C168.344 236.965 169.011 237.217 169.467 237.722C169.923 238.226 170.15 238.845 170.15 239.577C170.15 240.31 169.923 240.92 169.467 241.408C169.011 241.896 168.344 242.141 167.465 242.141C166.586 242.141 165.919 241.896 165.463 241.408C165.023 240.92 164.804 240.31 164.804 239.577ZM181.21 246.584L181.356 249.904C183.375 247.365 186.011 246.096 189.267 246.096C194.849 246.096 197.665 249.245 197.714 255.544V273H193.197V255.52C193.181 253.615 192.742 252.207 191.879 251.296C191.033 250.384 189.706 249.929 187.899 249.929C186.435 249.929 185.149 250.319 184.042 251.101C182.935 251.882 182.073 252.907 181.454 254.177V273H176.938V246.584H181.21ZM215.487 273.488C211.907 273.488 208.993 272.316 206.747 269.973C204.501 267.613 203.378 264.463 203.378 260.524V259.694C203.378 257.074 203.874 254.738 204.867 252.688C205.876 250.62 207.276 249.009 209.066 247.854C210.873 246.682 212.826 246.096 214.926 246.096C218.36 246.096 221.029 247.227 222.934 249.489C224.838 251.752 225.79 254.991 225.79 259.206V261.086H207.895C207.96 263.69 208.716 265.798 210.165 267.409C211.63 269.004 213.485 269.802 215.731 269.802C217.326 269.802 218.677 269.476 219.784 268.825C220.891 268.174 221.859 267.312 222.689 266.237L225.448 268.386C223.235 271.787 219.914 273.488 215.487 273.488ZM214.926 249.807C213.103 249.807 211.573 250.474 210.336 251.809C209.099 253.127 208.334 254.982 208.041 257.375H221.273V257.033C221.143 254.738 220.525 252.964 219.418 251.711C218.311 250.441 216.814 249.807 214.926 249.807Z" fill="white"/>
<path d="M123.679 313H120.954V294.938L115.49 296.945V294.484L123.254 291.569H123.679V313ZM145.593 313H131.618V311.052L139.001 302.849C140.095 301.608 140.847 300.603 141.257 299.831C141.677 299.05 141.887 298.244 141.887 297.414C141.887 296.301 141.55 295.388 140.876 294.675C140.202 293.962 139.304 293.605 138.181 293.605C136.833 293.605 135.783 293.991 135.031 294.763C134.289 295.524 133.918 296.589 133.918 297.956H131.208C131.208 295.993 131.838 294.406 133.098 293.195C134.367 291.984 136.062 291.379 138.181 291.379C140.163 291.379 141.73 291.901 142.883 292.946C144.035 293.981 144.611 295.363 144.611 297.092C144.611 299.191 143.273 301.691 140.598 304.592L134.885 310.788H145.593V313ZM159.099 291.657V293.957H158.601C156.491 293.996 154.812 294.621 153.562 295.832C152.312 297.043 151.589 298.747 151.394 300.944C152.517 299.655 154.05 299.011 155.993 299.011C157.849 299.011 159.328 299.665 160.432 300.974C161.545 302.282 162.102 303.972 162.102 306.042C162.102 308.239 161.501 309.997 160.3 311.315C159.108 312.634 157.507 313.293 155.495 313.293C153.454 313.293 151.799 312.512 150.529 310.949C149.26 309.377 148.625 307.355 148.625 304.885V303.845C148.625 299.919 149.46 296.921 151.13 294.851C152.81 292.771 155.305 291.706 158.615 291.657H159.099ZM155.539 301.267C154.611 301.267 153.757 301.545 152.976 302.102C152.194 302.658 151.652 303.356 151.35 304.196V305.192C151.35 306.95 151.745 308.366 152.536 309.44C153.327 310.515 154.313 311.052 155.495 311.052C156.716 311.052 157.673 310.603 158.366 309.704C159.069 308.806 159.421 307.629 159.421 306.174C159.421 304.709 159.064 303.527 158.352 302.629C157.648 301.721 156.711 301.267 155.539 301.267ZM165.646 311.579C165.646 311.11 165.783 310.72 166.057 310.407C166.34 310.095 166.76 309.938 167.316 309.938C167.873 309.938 168.293 310.095 168.576 310.407C168.869 310.72 169.016 311.11 169.016 311.579C169.016 312.028 168.869 312.404 168.576 312.707C168.293 313.01 167.873 313.161 167.316 313.161C166.76 313.161 166.34 313.01 166.057 312.707C165.783 312.404 165.646 312.028 165.646 311.579ZM183.605 303.625C183.039 304.299 182.36 304.841 181.569 305.251C180.788 305.661 179.929 305.866 178.991 305.866C177.761 305.866 176.687 305.563 175.769 304.958C174.86 304.353 174.157 303.503 173.659 302.409C173.161 301.306 172.912 300.09 172.912 298.762C172.912 297.336 173.181 296.052 173.718 294.909C174.265 293.767 175.036 292.893 176.032 292.287C177.028 291.682 178.19 291.379 179.519 291.379C181.628 291.379 183.288 292.17 184.499 293.752C185.72 295.324 186.33 297.473 186.33 300.197V300.988C186.33 305.139 185.51 308.171 183.869 310.085C182.229 311.989 179.753 312.966 176.442 313.015H175.915V310.729H176.486C178.723 310.69 180.441 310.109 181.643 308.986C182.844 307.854 183.498 306.066 183.605 303.625ZM179.431 303.625C180.339 303.625 181.174 303.347 181.936 302.79C182.707 302.233 183.269 301.545 183.62 300.725V299.641C183.62 297.863 183.234 296.418 182.463 295.305C181.691 294.191 180.715 293.635 179.533 293.635C178.342 293.635 177.385 294.094 176.662 295.012C175.939 295.92 175.578 297.121 175.578 298.615C175.578 300.07 175.925 301.271 176.618 302.219C177.321 303.156 178.259 303.625 179.431 303.625ZM203.439 303.903C203.439 307.077 202.897 309.436 201.813 310.979C200.729 312.521 199.035 313.293 196.73 313.293C194.455 313.293 192.771 312.541 191.677 311.037C190.583 309.523 190.017 307.268 189.978 304.27V300.651C189.978 297.517 190.52 295.188 191.604 293.664C192.688 292.141 194.387 291.379 196.701 291.379C198.996 291.379 200.686 292.116 201.77 293.591C202.854 295.056 203.41 297.321 203.439 300.388V303.903ZM200.729 300.197C200.729 297.902 200.407 296.232 199.763 295.188C199.118 294.133 198.098 293.605 196.701 293.605C195.314 293.605 194.304 294.128 193.669 295.173C193.034 296.218 192.707 297.824 192.688 299.992V304.328C192.688 306.633 193.02 308.337 193.684 309.44C194.357 310.534 195.373 311.081 196.73 311.081C198.068 311.081 199.06 310.563 199.704 309.528C200.358 308.493 200.7 306.862 200.729 304.636V300.197Z" fill="white"/>
</g>
<defs>
<filter id="filter0_d_26:20" x="0" y="0" width="332" height="346" filterUnits="userSpaceOnUse" color-interpolation-filters="sRGB">
<feFlood flood-opacity="0" result="BackgroundImageFix"/>
<feColorMatrix in="SourceAlpha" type="matrix" values="0 0 0 0 0 0 0 0 0 0 0 0 0 0 0 0 0 0 127 0" result="hardAlpha"/>
<feOffset dx="8" dy="9"/>
<feGaussianBlur stdDeviation="2"/>
<feComposite in2="hardAlpha" operator="out"/>
<feColorMatrix type="matrix" values="0 0 0 0 0 0 0 0 0 0 0 0 0 0 0 0 0 0 0.25 0"/>
<feBlend mode="normal" in2="BackgroundImageFix" result="effect1_dropShadow_26:20"/>
<feBlend mode="normal" in="SourceGraphic" in2="effect1_dropShadow_26:20" result="shape"/>
</filter>
<linearGradient id="paint0_linear_26:20" x1="160" y1="0" x2="160" y2="333" gradientUnits="userSpaceOnUse">
<stop stop-color="#007E58"/>
<stop offset="1" stop-color="#2F4D7A" stop-opacity="0.95"/>
</linearGradient>
</defs>
</svg>
