<svg width="332" height="346" viewBox="0 0 332 346" fill="none" xmlns="http://www.w3.org/2000/svg">
<g filter="url(#filter0_d_40:44)">
<rect width="320" height="333" fill="url(#paint0_linear_40:44)"/>
<path d="M41.7227 28.5938L29.9453 55H26.1562L37.8945 29.5312H22.5039V26.5625H41.7227V28.5938ZM64.1836 28.5938L52.4062 55H48.6172L60.3555 29.5312H44.9648V26.5625H64.1836V28.5938ZM68.7344 53.1055C68.7344 52.4805 68.9167 51.9596 69.2812 51.543C69.6589 51.1263 70.2188 50.918 70.9609 50.918C71.7031 50.918 72.263 51.1263 72.6406 51.543C73.0312 51.9596 73.2266 52.4805 73.2266 53.1055C73.2266 53.7044 73.0312 54.2057 72.6406 54.6094C72.263 55.013 71.7031 55.2148 70.9609 55.2148C70.2188 55.2148 69.6589 55.013 69.2812 54.6094C68.9167 54.2057 68.7344 53.7044 68.7344 53.1055Z" fill="white"/>
<path d="M134.621 217H115.871V74.8125H134.621V217ZM217.238 127.547C214.504 127.091 211.542 126.863 208.352 126.863C196.503 126.863 188.462 131.909 184.23 142V217H166.164V111.336H183.742L184.035 123.543C189.96 114.103 198.358 109.383 209.23 109.383C212.746 109.383 215.415 109.839 217.238 110.75V127.547Z" fill="white"/>
<path d="M92.1553 273H87.4678V237.453H92.1553V273ZM112.81 250.637C112.126 250.523 111.385 250.466 110.588 250.466C107.626 250.466 105.616 251.727 104.558 254.25V273H100.041V246.584H104.436L104.509 249.636C105.99 247.276 108.09 246.096 110.808 246.096C111.687 246.096 112.354 246.21 112.81 246.438V250.637ZM121.892 273H117.375V246.584H121.892V273ZM117.009 239.577C117.009 238.845 117.229 238.226 117.668 237.722C118.124 237.217 118.791 236.965 119.67 236.965C120.549 236.965 121.216 237.217 121.672 237.722C122.128 238.226 122.355 238.845 122.355 239.577C122.355 240.31 122.128 240.92 121.672 241.408C121.216 241.896 120.549 242.141 119.67 242.141C118.791 242.141 118.124 241.896 117.668 241.408C117.229 240.92 117.009 240.31 117.009 239.577ZM128.044 259.572C128.044 255.52 129.004 252.264 130.925 249.807C132.845 247.333 135.36 246.096 138.469 246.096C141.561 246.096 144.011 247.154 145.817 249.27V235.5H150.334V273H146.184L145.964 270.168C144.157 272.382 141.643 273.488 138.42 273.488C135.36 273.488 132.862 272.235 130.925 269.729C129.004 267.222 128.044 263.951 128.044 259.914V259.572ZM132.561 260.085C132.561 263.08 133.179 265.424 134.416 267.116C135.653 268.809 137.362 269.655 139.543 269.655C142.408 269.655 144.499 268.369 145.817 265.798V253.664C144.466 251.174 142.391 249.929 139.592 249.929C137.378 249.929 135.653 250.783 134.416 252.492C133.179 254.201 132.561 256.732 132.561 260.085ZM162.272 273H157.756V246.584H162.272V273ZM157.39 239.577C157.39 238.845 157.609 238.226 158.049 237.722C158.505 237.217 159.172 236.965 160.051 236.965C160.93 236.965 161.597 237.217 162.053 237.722C162.508 238.226 162.736 238.845 162.736 239.577C162.736 240.31 162.508 240.92 162.053 241.408C161.597 241.896 160.93 242.141 160.051 242.141C159.172 242.141 158.505 241.896 158.049 241.408C157.609 240.92 157.39 240.31 157.39 239.577ZM185.832 270.388C184.074 272.455 181.494 273.488 178.093 273.488C175.277 273.488 173.129 272.674 171.647 271.047C170.183 269.403 169.442 266.978 169.426 263.771V246.584H173.942V263.649C173.942 267.653 175.57 269.655 178.825 269.655C182.276 269.655 184.571 268.369 185.71 265.798V246.584H190.227V273H185.93L185.832 270.388ZM201.359 246.584L201.481 249.514C203.418 247.235 206.031 246.096 209.318 246.096C213.013 246.096 215.528 247.512 216.862 250.344C217.741 249.074 218.881 248.049 220.28 247.268C221.696 246.486 223.365 246.096 225.285 246.096C231.079 246.096 234.025 249.164 234.123 255.3V273H229.606V255.568C229.606 253.68 229.175 252.272 228.312 251.345C227.45 250.401 226.001 249.929 223.967 249.929C222.29 249.929 220.899 250.433 219.792 251.442C218.685 252.435 218.042 253.778 217.863 255.471V273H213.322V255.69C213.322 251.849 211.442 249.929 207.683 249.929C204.72 249.929 202.694 251.19 201.604 253.713V273H197.087V246.584H201.359Z" fill="white"/>
<path d="M124.679 313H121.954V294.938L116.49 296.945V294.484L124.254 291.569H124.679V313ZM143.004 303.625C142.438 304.299 141.759 304.841 140.968 305.251C140.187 305.661 139.327 305.866 138.39 305.866C137.159 305.866 136.085 305.563 135.167 304.958C134.259 304.353 133.556 303.503 133.058 302.409C132.56 301.306 132.311 300.09 132.311 298.762C132.311 297.336 132.579 296.052 133.116 294.909C133.663 293.767 134.435 292.893 135.431 292.287C136.427 291.682 137.589 291.379 138.917 291.379C141.026 291.379 142.687 292.17 143.897 293.752C145.118 295.324 145.729 297.473 145.729 300.197V300.988C145.729 305.139 144.908 308.171 143.268 310.085C141.627 311.989 139.151 312.966 135.841 313.015H135.313V310.729H135.885C138.121 310.69 139.84 310.109 141.041 308.986C142.242 307.854 142.896 306.066 143.004 303.625ZM138.829 303.625C139.737 303.625 140.572 303.347 141.334 302.79C142.105 302.233 142.667 301.545 143.019 300.725V299.641C143.019 297.863 142.633 296.418 141.861 295.305C141.09 294.191 140.113 293.635 138.932 293.635C137.74 293.635 136.783 294.094 136.061 295.012C135.338 295.92 134.977 297.121 134.977 298.615C134.977 300.07 135.323 301.271 136.017 302.219C136.72 303.156 137.657 303.625 138.829 303.625ZM163.438 313H149.464V311.052L156.847 302.849C157.94 301.608 158.692 300.603 159.103 299.831C159.522 299.05 159.732 298.244 159.732 297.414C159.732 296.301 159.396 295.388 158.722 294.675C158.048 293.962 157.149 293.605 156.026 293.605C154.679 293.605 153.629 293.991 152.877 294.763C152.135 295.524 151.764 296.589 151.764 297.956H149.054C149.054 295.993 149.684 294.406 150.943 293.195C152.213 291.984 153.907 291.379 156.026 291.379C158.009 291.379 159.576 291.901 160.729 292.946C161.881 293.981 162.457 295.363 162.457 297.092C162.457 299.191 161.119 301.691 158.443 304.592L152.73 310.788H163.438V313ZM166.646 311.579C166.646 311.11 166.783 310.72 167.057 310.407C167.34 310.095 167.76 309.938 168.316 309.938C168.873 309.938 169.293 310.095 169.576 310.407C169.869 310.72 170.016 311.11 170.016 311.579C170.016 312.028 169.869 312.404 169.576 312.707C169.293 313.01 168.873 313.161 168.316 313.161C167.76 313.161 167.34 313.01 167.057 312.707C166.783 312.404 166.646 312.028 166.646 311.579ZM188.194 313H174.22V311.052L181.603 302.849C182.696 301.608 183.448 300.603 183.858 299.831C184.278 299.05 184.488 298.244 184.488 297.414C184.488 296.301 184.151 295.388 183.478 294.675C182.804 293.962 181.905 293.605 180.782 293.605C179.435 293.605 178.385 293.991 177.633 294.763C176.891 295.524 176.52 296.589 176.52 297.956H173.81C173.81 295.993 174.439 294.406 175.699 293.195C176.969 291.984 178.663 291.379 180.782 291.379C182.765 291.379 184.332 291.901 185.484 292.946C186.637 293.981 187.213 295.363 187.213 297.092C187.213 299.191 185.875 301.691 183.199 304.592L177.486 310.788H188.194V313ZM205.04 313H191.065V311.052L198.448 302.849C199.542 301.608 200.294 300.603 200.704 299.831C201.124 299.05 201.334 298.244 201.334 297.414C201.334 296.301 200.997 295.388 200.323 294.675C199.649 293.962 198.751 293.605 197.628 293.605C196.28 293.605 195.23 293.991 194.479 294.763C193.736 295.524 193.365 296.589 193.365 297.956H190.655C190.655 295.993 191.285 294.406 192.545 293.195C193.814 291.984 195.509 291.379 197.628 291.379C199.61 291.379 201.178 291.901 202.33 292.946C203.482 293.981 204.059 295.363 204.059 297.092C204.059 299.191 202.721 301.691 200.045 304.592L194.332 310.788H205.04V313Z" fill="white"/>
</g>
<defs>
<filter id="filter0_d_40:44" x="0" y="0" width="332" height="346" filterUnits="userSpaceOnUse" color-interpolation-filters="sRGB">
<feFlood flood-opacity="0" result="BackgroundImageFix"/>
<feColorMatrix in="SourceAlpha" type="matrix" values="0 0 0 0 0 0 0 0 0 0 0 0 0 0 0 0 0 0 127 0" result="hardAlpha"/>
<feOffset dx="8" dy="9"/>
<feGaussianBlur stdDeviation="2"/>
<feComposite in2="hardAlpha" operator="out"/>
<feColorMatrix type="matrix" values="0 0 0 0 0 0 0 0 0 0 0 0 0 0 0 0 0 0 0.25 0"/>
<feBlend mode="normal" in2="BackgroundImageFix" result="effect1_dropShadow_40:44"/>
<feBlend mode="normal" in="SourceGraphic" in2="effect1_dropShadow_40:44" result="shape"/>
</filter>
<linearGradient id="paint0_linear_40:44" x1="160" y1="0" x2="160" y2="333" gradientUnits="userSpaceOnUse">
<stop stop-color="#007E58"/>
<stop offset="1" stop-color="#2F4D7A" stop-opacity="0.95"/>
</linearGradient>
</defs>
</svg>
