<svg width="332" height="346" viewBox="0 0 332 346" fill="none" xmlns="http://www.w3.org/2000/svg">
<g filter="url(#filter0_d_17:8)">
<rect width="320" height="333" fill="url(#paint0_linear_17:8)"/>
<path d="M146.922 154.207H87.2539V217H68.5039V74.8125H156.59V90.2422H87.2539V138.875H146.922V154.207ZM217.918 218.953C203.595 218.953 191.941 214.266 182.957 204.891C173.973 195.451 169.48 182.853 169.48 167.098V163.777C169.48 153.296 171.466 143.953 175.438 135.75C179.474 127.482 185.073 121.036 192.234 116.414C199.461 111.727 207.273 109.383 215.672 109.383C229.409 109.383 240.086 113.908 247.703 122.957C255.32 132.007 259.129 144.962 259.129 161.824V169.344H187.547C187.807 179.76 190.835 188.191 196.629 194.637C202.488 201.017 209.91 204.207 218.895 204.207C225.275 204.207 230.678 202.905 235.105 200.301C239.533 197.697 243.406 194.246 246.727 189.949L257.762 198.543C248.908 212.15 235.626 218.953 217.918 218.953ZM215.672 124.227C208.38 124.227 202.26 126.896 197.312 132.234C192.365 137.508 189.305 144.93 188.133 154.5H241.062V153.133C240.542 143.953 238.068 136.857 233.641 131.844C229.214 126.766 223.224 124.227 215.672 124.227Z" fill="white"/>
<path d="M41.9961 55H23.3633V52.4023L33.207 41.4648C34.6654 39.8112 35.668 38.4701 36.2148 37.4414C36.7747 36.3997 37.0547 35.3255 37.0547 34.2188C37.0547 32.7344 36.6055 31.5169 35.707 30.5664C34.8086 29.6159 33.6107 29.1406 32.1133 29.1406C30.3164 29.1406 28.9167 29.6549 27.9141 30.6836C26.9245 31.6992 26.4297 33.1185 26.4297 34.9414H22.8164C22.8164 32.3242 23.6562 30.2083 25.3359 28.5938C27.0286 26.9792 29.2878 26.1719 32.1133 26.1719C34.7565 26.1719 36.8464 26.8685 38.3828 28.2617C39.9193 29.6419 40.6875 31.4844 40.6875 33.7891C40.6875 36.5885 38.9036 39.9219 35.3359 43.7891L27.7188 52.0508H41.9961V55ZM60.0039 26.543V29.6094H59.3398C56.5273 29.6615 54.2878 30.4948 52.6211 32.1094C50.9544 33.724 49.9909 35.9961 49.7305 38.9258C51.2279 37.207 53.2721 36.3477 55.8633 36.3477C58.3372 36.3477 60.3099 37.2201 61.7812 38.9648C63.2656 40.7096 64.0078 42.9622 64.0078 45.7227C64.0078 48.6523 63.207 50.9961 61.6055 52.7539C60.0169 54.5117 57.8815 55.3906 55.1992 55.3906C52.4779 55.3906 50.2708 54.349 48.5781 52.2656C46.8854 50.1693 46.0391 47.474 46.0391 44.1797V42.793C46.0391 37.5586 47.1523 33.5612 49.3789 30.8008C51.6185 28.0273 54.9453 26.6081 59.3594 26.543H60.0039ZM55.2578 39.3555C54.0208 39.3555 52.8815 39.7266 51.8398 40.4688C50.7982 41.2109 50.0755 42.1419 49.6719 43.2617V44.5898C49.6719 46.9336 50.1992 48.8216 51.2539 50.2539C52.3086 51.6862 53.6237 52.4023 55.1992 52.4023C56.8268 52.4023 58.1029 51.8034 59.0273 50.6055C59.9648 49.4076 60.4336 47.8385 60.4336 45.8984C60.4336 43.9453 59.9583 42.3698 59.0078 41.1719C58.0703 39.9609 56.8203 39.3555 55.2578 39.3555ZM68.7344 53.1055C68.7344 52.4805 68.9167 51.9596 69.2812 51.543C69.6589 51.1263 70.2188 50.918 70.9609 50.918C71.7031 50.918 72.263 51.1263 72.6406 51.543C73.0312 51.9596 73.2266 52.4805 73.2266 53.1055C73.2266 53.7044 73.0312 54.2057 72.6406 54.6094C72.263 55.013 71.7031 55.2148 70.9609 55.2148C70.2188 55.2148 69.6589 55.013 69.2812 54.6094C68.9167 54.2057 68.7344 53.7044 68.7344 53.1055Z" fill="white"/>
<path d="M126.155 273H121.468V237.453H126.155V273ZM146.81 250.637C146.126 250.523 145.385 250.466 144.588 250.466C141.626 250.466 139.616 251.727 138.558 254.25V273H134.041V246.584H138.436L138.509 249.636C139.99 247.276 142.09 246.096 144.808 246.096C145.687 246.096 146.354 246.21 146.81 246.438V250.637ZM149.3 259.548C149.3 256.96 149.804 254.632 150.813 252.565C151.839 250.498 153.255 248.903 155.062 247.78C156.884 246.657 158.96 246.096 161.287 246.096C164.884 246.096 167.789 247.341 170.003 249.831C172.233 252.321 173.348 255.633 173.348 259.768V260.085C173.348 262.657 172.851 264.968 171.858 267.019C170.882 269.053 169.474 270.64 167.635 271.779C165.812 272.919 163.712 273.488 161.336 273.488C157.755 273.488 154.85 272.243 152.62 269.753C150.407 267.263 149.3 263.967 149.3 259.865V259.548ZM153.841 260.085C153.841 263.015 154.516 265.367 155.867 267.141C157.234 268.915 159.057 269.802 161.336 269.802C163.631 269.802 165.454 268.907 166.805 267.116C168.156 265.31 168.831 262.787 168.831 259.548C168.831 256.651 168.139 254.307 166.756 252.517C165.389 250.71 163.566 249.807 161.287 249.807C159.057 249.807 157.259 250.694 155.892 252.468C154.524 254.242 153.841 256.781 153.841 260.085ZM183.284 246.584L183.431 249.904C185.449 247.365 188.086 246.096 191.341 246.096C196.924 246.096 199.739 249.245 199.788 255.544V273H195.271V255.52C195.255 253.615 194.816 252.207 193.953 251.296C193.107 250.384 191.78 249.929 189.974 249.929C188.509 249.929 187.223 250.319 186.116 251.101C185.009 251.882 184.147 252.907 183.528 254.177V273H179.012V246.584H183.284Z" fill="white"/>
<path d="M116.018 302.307L117.102 291.672H128.029V294.177H119.401L118.757 299.992C119.802 299.377 120.988 299.069 122.316 299.069C124.26 299.069 125.803 299.714 126.945 301.003C128.088 302.282 128.659 304.016 128.659 306.203C128.659 308.4 128.063 310.134 126.872 311.403C125.69 312.663 124.035 313.293 121.906 313.293C120.021 313.293 118.483 312.771 117.292 311.726C116.101 310.681 115.422 309.235 115.256 307.39H117.819C117.985 308.61 118.42 309.533 119.123 310.158C119.826 310.773 120.754 311.081 121.906 311.081C123.166 311.081 124.152 310.651 124.865 309.792C125.588 308.933 125.949 307.746 125.949 306.232C125.949 304.807 125.559 303.664 124.777 302.805C124.006 301.936 122.976 301.501 121.687 301.501C120.505 301.501 119.577 301.76 118.903 302.277L118.186 302.863L116.018 302.307ZM132.863 302.307L133.947 291.672H144.875V294.177H136.247L135.603 299.992C136.647 299.377 137.834 299.069 139.162 299.069C141.105 299.069 142.648 299.714 143.791 301.003C144.934 302.282 145.505 304.016 145.505 306.203C145.505 308.4 144.909 310.134 143.718 311.403C142.536 312.663 140.881 313.293 138.752 313.293C136.867 313.293 135.329 312.771 134.138 311.726C132.946 310.681 132.268 309.235 132.102 307.39H134.665C134.831 308.61 135.266 309.533 135.969 310.158C136.672 310.773 137.6 311.081 138.752 311.081C140.012 311.081 140.998 310.651 141.711 309.792C142.434 308.933 142.795 307.746 142.795 306.232C142.795 304.807 142.404 303.664 141.623 302.805C140.852 301.936 139.821 301.501 138.532 301.501C137.351 301.501 136.423 301.76 135.749 302.277L135.031 302.863L132.863 302.307ZM148.801 311.579C148.801 311.11 148.938 310.72 149.211 310.407C149.494 310.095 149.914 309.938 150.471 309.938C151.027 309.938 151.447 310.095 151.73 310.407C152.023 310.72 152.17 311.11 152.17 311.579C152.17 312.028 152.023 312.404 151.73 312.707C151.447 313.01 151.027 313.161 150.471 313.161C149.914 313.161 149.494 313.01 149.211 312.707C148.938 312.404 148.801 312.028 148.801 311.579ZM169.309 297.238C169.309 298.303 169.025 299.25 168.459 300.08C167.902 300.91 167.146 301.56 166.188 302.028C167.302 302.507 168.181 303.205 168.825 304.123C169.479 305.041 169.807 306.081 169.807 307.243C169.807 309.089 169.182 310.559 167.932 311.652C166.691 312.746 165.056 313.293 163.024 313.293C160.974 313.293 159.328 312.746 158.088 311.652C156.857 310.549 156.242 309.079 156.242 307.243C156.242 306.091 156.555 305.051 157.18 304.123C157.814 303.195 158.688 302.492 159.802 302.014C158.854 301.545 158.107 300.896 157.561 300.065C157.014 299.235 156.74 298.293 156.74 297.238C156.74 295.441 157.316 294.016 158.469 292.961C159.621 291.906 161.14 291.379 163.024 291.379C164.899 291.379 166.413 291.906 167.565 292.961C168.728 294.016 169.309 295.441 169.309 297.238ZM167.097 307.185C167.097 305.993 166.716 305.021 165.954 304.27C165.202 303.518 164.216 303.142 162.995 303.142C161.774 303.142 160.793 303.513 160.051 304.255C159.318 304.997 158.952 305.974 158.952 307.185C158.952 308.396 159.309 309.348 160.021 310.041C160.744 310.734 161.745 311.081 163.024 311.081C164.294 311.081 165.29 310.734 166.013 310.041C166.735 309.338 167.097 308.386 167.097 307.185ZM163.024 293.605C161.96 293.605 161.096 293.938 160.432 294.602C159.777 295.256 159.45 296.149 159.45 297.282C159.45 298.366 159.772 299.245 160.417 299.919C161.071 300.583 161.94 300.915 163.024 300.915C164.108 300.915 164.973 300.583 165.617 299.919C166.271 299.245 166.599 298.366 166.599 297.282C166.599 296.198 166.262 295.314 165.588 294.631C164.914 293.947 164.06 293.605 163.024 293.605ZM184.66 305.837H187.619V308.049H184.66V313H181.936V308.049H172.224V306.452L181.774 291.672H184.66V305.837ZM175.3 305.837H181.936V295.378L181.613 295.964L175.3 305.837ZM191.311 302.307L192.395 291.672H203.322V294.177H194.694L194.05 299.992C195.095 299.377 196.281 299.069 197.609 299.069C199.553 299.069 201.096 299.714 202.238 301.003C203.381 302.282 203.952 304.016 203.952 306.203C203.952 308.4 203.356 310.134 202.165 311.403C200.983 312.663 199.328 313.293 197.199 313.293C195.314 313.293 193.776 312.771 192.585 311.726C191.394 310.681 190.715 309.235 190.549 307.39H193.112C193.278 308.61 193.713 309.533 194.416 310.158C195.119 310.773 196.047 311.081 197.199 311.081C198.459 311.081 199.445 310.651 200.158 309.792C200.881 308.933 201.242 307.746 201.242 306.232C201.242 304.807 200.852 303.664 200.07 302.805C199.299 301.936 198.269 301.501 196.979 301.501C195.798 301.501 194.87 301.76 194.196 302.277L193.479 302.863L191.311 302.307Z" fill="white"/>
</g>
<defs>
<filter id="filter0_d_17:8" x="0" y="0" width="332" height="346" filterUnits="userSpaceOnUse" color-interpolation-filters="sRGB">
<feFlood flood-opacity="0" result="BackgroundImageFix"/>
<feColorMatrix in="SourceAlpha" type="matrix" values="0 0 0 0 0 0 0 0 0 0 0 0 0 0 0 0 0 0 127 0" result="hardAlpha"/>
<feOffset dx="8" dy="9"/>
<feGaussianBlur stdDeviation="2"/>
<feComposite in2="hardAlpha" operator="out"/>
<feColorMatrix type="matrix" values="0 0 0 0 0 0 0 0 0 0 0 0 0 0 0 0 0 0 0.25 0"/>
<feBlend mode="normal" in2="BackgroundImageFix" result="effect1_dropShadow_17:8"/>
<feBlend mode="normal" in="SourceGraphic" in2="effect1_dropShadow_17:8" result="shape"/>
</filter>
<linearGradient id="paint0_linear_17:8" x1="160" y1="0" x2="160" y2="333" gradientUnits="userSpaceOnUse">
<stop stop-color="#007E58"/>
<stop offset="1" stop-color="#2F4D7A" stop-opacity="0.95"/>
</linearGradient>
</defs>
</svg>
