<svg width="332" height="346" viewBox="0 0 332 346" fill="none" xmlns="http://www.w3.org/2000/svg">
<g filter="url(#filter0_d_41:14)">
<rect width="320" height="333" fill="url(#paint0_linear_41:14)"/>
<path d="M40.6094 33.9844C40.6094 35.4036 40.2318 36.6667 39.4766 37.7734C38.7344 38.8802 37.7253 39.7461 36.4492 40.3711C37.9336 41.0091 39.1055 41.9401 39.9648 43.1641C40.8372 44.388 41.2734 45.7747 41.2734 47.3242C41.2734 49.7852 40.4401 51.7448 38.7734 53.2031C37.1198 54.6615 34.9388 55.3906 32.2305 55.3906C29.4961 55.3906 27.3021 54.6615 25.6484 53.2031C24.0078 51.7318 23.1875 49.7721 23.1875 47.3242C23.1875 45.7878 23.6042 44.401 24.4375 43.1641C25.2839 41.9271 26.4492 40.9896 27.9336 40.3516C26.6706 39.7266 25.6745 38.8607 24.9453 37.7539C24.2161 36.6471 23.8516 35.3906 23.8516 33.9844C23.8516 31.5885 24.6198 29.6875 26.1562 28.2812C27.6927 26.875 29.7174 26.1719 32.2305 26.1719C34.7305 26.1719 36.7487 26.875 38.2852 28.2812C39.8346 29.6875 40.6094 31.5885 40.6094 33.9844ZM37.6602 47.2461C37.6602 45.6576 37.1523 44.362 36.1367 43.3594C35.1341 42.3568 33.819 41.8555 32.1914 41.8555C30.5638 41.8555 29.2552 42.3503 28.2656 43.3398C27.2891 44.3294 26.8008 45.6315 26.8008 47.2461C26.8008 48.8607 27.276 50.1302 28.2266 51.0547C29.1901 51.9792 30.5247 52.4414 32.2305 52.4414C33.9232 52.4414 35.2513 51.9792 36.2148 51.0547C37.1784 50.1172 37.6602 48.8477 37.6602 47.2461ZM32.2305 29.1406C30.8112 29.1406 29.6589 29.5833 28.7734 30.4688C27.901 31.3411 27.4648 32.5326 27.4648 34.043C27.4648 35.4883 27.8945 36.6602 28.7539 37.5586C29.6263 38.444 30.7852 38.8867 32.2305 38.8867C33.6758 38.8867 34.8281 38.444 35.6875 37.5586C36.5599 36.6602 36.9961 35.4883 36.9961 34.043C36.9961 32.5977 36.5469 31.4193 35.6484 30.5078C34.75 29.5964 33.6107 29.1406 32.2305 29.1406ZM64.457 55H45.8242V52.4023L55.668 41.4648C57.1263 39.8112 58.1289 38.4701 58.6758 37.4414C59.2357 36.3997 59.5156 35.3255 59.5156 34.2188C59.5156 32.7344 59.0664 31.5169 58.168 30.5664C57.2695 29.6159 56.0716 29.1406 54.5742 29.1406C52.7773 29.1406 51.3776 29.6549 50.375 30.6836C49.3854 31.6992 48.8906 33.1185 48.8906 34.9414H45.2773C45.2773 32.3242 46.1172 30.2083 47.7969 28.5938C49.4896 26.9792 51.7487 26.1719 54.5742 26.1719C57.2174 26.1719 59.3073 26.8685 60.8438 28.2617C62.3802 29.6419 63.1484 31.4844 63.1484 33.7891C63.1484 36.5885 61.3646 39.9219 57.7969 43.7891L50.1797 52.0508H64.457V55ZM68.7344 53.1055C68.7344 52.4805 68.9167 51.9596 69.2812 51.543C69.6589 51.1263 70.2188 50.918 70.9609 50.918C71.7031 50.918 72.263 51.1263 72.6406 51.543C73.0312 51.9596 73.2266 52.4805 73.2266 53.1055C73.2266 53.7044 73.0312 54.2057 72.6406 54.6094C72.263 55.013 71.7031 55.2148 70.9609 55.2148C70.2188 55.2148 69.6589 55.013 69.2812 54.6094C68.9167 54.2057 68.7344 53.7044 68.7344 53.1055Z" fill="white"/>
<path d="M76.2539 161.336V217H57.5039V74.8125H109.945C125.505 74.8125 137.68 78.7839 146.469 86.7266C155.323 94.6693 159.75 105.184 159.75 118.27C159.75 132.072 155.421 142.716 146.762 150.203C138.168 157.625 125.831 161.336 109.75 161.336H76.2539ZM76.2539 146.004H109.945C119.971 146.004 127.654 143.66 132.992 138.973C138.331 134.22 141 127.384 141 118.465C141 110.001 138.331 103.23 132.992 98.1523C127.654 93.0742 120.329 90.4375 111.02 90.2422H76.2539V146.004ZM270.297 165.34C270.297 181.486 266.586 194.474 259.164 204.305C251.742 214.07 241.781 218.953 229.281 218.953C215.935 218.953 205.616 214.233 198.324 204.793L197.445 217H180.844V67H198.91V122.957C206.202 113.908 216.26 109.383 229.086 109.383C241.911 109.383 251.97 114.233 259.262 123.934C266.618 133.634 270.297 146.915 270.297 163.777V165.34ZM252.23 163.289C252.23 150.984 249.854 141.479 245.102 134.773C240.349 128.068 233.513 124.715 224.594 124.715C212.68 124.715 204.118 130.249 198.91 141.316V187.02C204.444 198.087 213.07 203.621 224.789 203.621C233.448 203.621 240.186 200.268 245.004 193.562C249.822 186.857 252.23 176.766 252.23 163.289Z" fill="white"/>
<path d="M113.838 269.167H130.684V273H109.126V237.453H113.838V269.167ZM146.284 273.488C142.703 273.488 139.79 272.316 137.544 269.973C135.298 267.613 134.175 264.463 134.175 260.524V259.694C134.175 257.074 134.671 254.738 135.664 252.688C136.673 250.62 138.073 249.009 139.863 247.854C141.67 246.682 143.623 246.096 145.723 246.096C149.157 246.096 151.826 247.227 153.73 249.489C155.635 251.752 156.587 254.991 156.587 259.206V261.086H138.691C138.757 263.69 139.513 265.798 140.962 267.409C142.427 269.004 144.282 269.802 146.528 269.802C148.123 269.802 149.474 269.476 150.581 268.825C151.688 268.174 152.656 267.312 153.486 266.237L156.245 268.386C154.032 271.787 150.711 273.488 146.284 273.488ZM145.723 249.807C143.9 249.807 142.37 250.474 141.133 251.809C139.896 253.127 139.131 254.982 138.838 257.375H152.07V257.033C151.94 254.738 151.322 252.964 150.215 251.711C149.108 250.441 147.611 249.807 145.723 249.807ZM178.145 273C177.884 272.479 177.673 271.551 177.51 270.217C175.41 272.398 172.904 273.488 169.99 273.488C167.386 273.488 165.246 272.756 163.569 271.291C161.909 269.81 161.079 267.938 161.079 265.676C161.079 262.925 162.121 260.793 164.204 259.279C166.304 257.749 169.25 256.984 173.042 256.984H177.437V254.909C177.437 253.33 176.965 252.077 176.021 251.149C175.076 250.205 173.685 249.733 171.846 249.733C170.234 249.733 168.883 250.14 167.793 250.954C166.702 251.768 166.157 252.753 166.157 253.908H161.616C161.616 252.59 162.08 251.32 163.008 250.1C163.952 248.863 165.221 247.886 166.816 247.17C168.428 246.454 170.194 246.096 172.114 246.096C175.158 246.096 177.542 246.861 179.268 248.391C180.993 249.904 181.888 251.996 181.953 254.665V266.823C181.953 269.248 182.262 271.177 182.881 272.609V273H178.145ZM170.649 269.558C172.065 269.558 173.408 269.191 174.678 268.459C175.947 267.727 176.867 266.774 177.437 265.603V260.183H173.896C168.363 260.183 165.596 261.802 165.596 265.041C165.596 266.457 166.068 267.564 167.012 268.361C167.956 269.159 169.168 269.558 170.649 269.558ZM187.935 259.572C187.935 255.52 188.895 252.264 190.815 249.807C192.736 247.333 195.251 246.096 198.359 246.096C201.452 246.096 203.901 247.154 205.708 249.27V235.5H210.225V273H206.074L205.854 270.168C204.048 272.382 201.533 273.488 198.311 273.488C195.251 273.488 192.752 272.235 190.815 269.729C188.895 267.222 187.935 263.951 187.935 259.914V259.572ZM192.451 260.085C192.451 263.08 193.07 265.424 194.307 267.116C195.544 268.809 197.253 269.655 199.434 269.655C202.298 269.655 204.39 268.369 205.708 265.798V253.664C204.357 251.174 202.282 249.929 199.482 249.929C197.269 249.929 195.544 250.783 194.307 252.492C193.07 254.201 192.451 256.732 192.451 260.085Z" fill="white"/>
<path d="M137.747 313H123.772V311.052L131.155 302.849C132.249 301.608 133.001 300.603 133.411 299.831C133.831 299.05 134.041 298.244 134.041 297.414C134.041 296.301 133.704 295.388 133.03 294.675C132.356 293.962 131.458 293.605 130.335 293.605C128.987 293.605 127.938 293.991 127.186 294.763C126.443 295.524 126.072 296.589 126.072 297.956H123.362C123.362 295.993 123.992 294.406 125.252 293.195C126.521 291.984 128.216 291.379 130.335 291.379C132.317 291.379 133.885 291.901 135.037 292.946C136.189 293.981 136.766 295.363 136.766 297.092C136.766 299.191 135.428 301.691 132.752 304.592L127.039 310.788H137.747V313ZM153.992 303.903C153.992 307.077 153.45 309.436 152.366 310.979C151.282 312.521 149.588 313.293 147.283 313.293C145.008 313.293 143.323 312.541 142.229 311.037C141.136 309.523 140.569 307.268 140.53 304.27V300.651C140.53 297.517 141.072 295.188 142.156 293.664C143.24 292.141 144.939 291.379 147.254 291.379C149.549 291.379 151.238 292.116 152.322 293.591C153.406 295.056 153.963 297.321 153.992 300.388V303.903ZM151.282 300.197C151.282 297.902 150.96 296.232 150.315 295.188C149.671 294.133 148.65 293.605 147.254 293.605C145.867 293.605 144.856 294.128 144.222 295.173C143.587 296.218 143.26 297.824 143.24 299.992V304.328C143.24 306.633 143.572 308.337 144.236 309.44C144.91 310.534 145.926 311.081 147.283 311.081C148.621 311.081 149.612 310.563 150.257 309.528C150.911 308.493 151.253 306.862 151.282 304.636V300.197ZM171.233 293.195L162.4 313H159.559L168.362 293.898H156.819V291.672H171.233V293.195ZM174.646 311.579C174.646 311.11 174.783 310.72 175.057 310.407C175.34 310.095 175.76 309.938 176.316 309.938C176.873 309.938 177.293 310.095 177.576 310.407C177.869 310.72 178.016 311.11 178.016 311.579C178.016 312.028 177.869 312.404 177.576 312.707C177.293 313.01 176.873 313.161 176.316 313.161C175.76 313.161 175.34 313.01 175.057 312.707C174.783 312.404 174.646 312.028 174.646 311.579ZM196.194 313H182.22V311.052L189.603 302.849C190.696 301.608 191.448 300.603 191.858 299.831C192.278 299.05 192.488 298.244 192.488 297.414C192.488 296.301 192.151 295.388 191.478 294.675C190.804 293.962 189.905 293.605 188.782 293.605C187.435 293.605 186.385 293.991 185.633 294.763C184.891 295.524 184.52 296.589 184.52 297.956H181.81C181.81 295.993 182.439 294.406 183.699 293.195C184.969 291.984 186.663 291.379 188.782 291.379C190.765 291.379 192.332 291.901 193.484 292.946C194.637 293.981 195.213 295.363 195.213 297.092C195.213 299.191 193.875 301.691 191.199 304.592L185.486 310.788H196.194V313Z" fill="white"/>
</g>
<defs>
<filter id="filter0_d_41:14" x="0" y="0" width="332" height="346" filterUnits="userSpaceOnUse" color-interpolation-filters="sRGB">
<feFlood flood-opacity="0" result="BackgroundImageFix"/>
<feColorMatrix in="SourceAlpha" type="matrix" values="0 0 0 0 0 0 0 0 0 0 0 0 0 0 0 0 0 0 127 0" result="hardAlpha"/>
<feOffset dx="8" dy="9"/>
<feGaussianBlur stdDeviation="2"/>
<feComposite in2="hardAlpha" operator="out"/>
<feColorMatrix type="matrix" values="0 0 0 0 0 0 0 0 0 0 0 0 0 0 0 0 0 0 0.25 0"/>
<feBlend mode="normal" in2="BackgroundImageFix" result="effect1_dropShadow_41:14"/>
<feBlend mode="normal" in="SourceGraphic" in2="effect1_dropShadow_41:14" result="shape"/>
</filter>
<linearGradient id="paint0_linear_41:14" x1="160" y1="0" x2="160" y2="333" gradientUnits="userSpaceOnUse">
<stop stop-color="#007E58"/>
<stop offset="1" stop-color="#2F4D7A" stop-opacity="0.95"/>
</linearGradient>
</defs>
</svg>
