<svg width="332" height="346" viewBox="0 0 332 346" fill="none" xmlns="http://www.w3.org/2000/svg">
<g filter="url(#filter0_d)">
<rect width="320" height="333" fill="url(#paint0_linear)"/>
<path d="M116.352 201.668H183.734V217H97.5039V74.8125H116.352V201.668ZM221.918 217H203.852V111.336H221.918V217ZM202.387 83.3086C202.387 80.3789 203.266 77.9049 205.023 75.8867C206.846 73.8685 209.516 72.8594 213.031 72.8594C216.547 72.8594 219.216 73.8685 221.039 75.8867C222.862 77.9049 223.773 80.3789 223.773 83.3086C223.773 86.2383 222.862 88.6797 221.039 90.6328C219.216 92.5859 216.547 93.5625 213.031 93.5625C209.516 93.5625 206.846 92.5859 205.023 90.6328C203.266 88.6797 202.387 86.2383 202.387 83.3086Z" fill="white"/>
<path d="M28.6177 39.0234H31.3325C33.0382 38.9974 34.3794 38.5482 35.356 37.6758C36.3325 36.8034 36.8208 35.625 36.8208 34.1406C36.8208 30.8073 35.1606 29.1406 31.8403 29.1406C30.2778 29.1406 29.0278 29.5898 28.0903 30.4883C27.1659 31.3737 26.7036 32.5521 26.7036 34.0234H23.0903C23.0903 31.7708 23.9106 29.9023 25.5513 28.418C27.2049 26.9206 29.3013 26.1719 31.8403 26.1719C34.5226 26.1719 36.6255 26.8815 38.1489 28.3008C39.6724 29.7201 40.4341 31.6927 40.4341 34.2188C40.4341 35.4557 40.0304 36.6536 39.2231 37.8125C38.4289 38.9714 37.3416 39.8372 35.9614 40.4102C37.5239 40.9049 38.7284 41.7253 39.5747 42.8711C40.4341 44.0169 40.8638 45.4167 40.8638 47.0703C40.8638 49.6224 40.0304 51.6471 38.3638 53.1445C36.6971 54.6419 34.5291 55.3906 31.8599 55.3906C29.1906 55.3906 27.0161 54.668 25.3364 53.2227C23.6698 51.7773 22.8364 49.8698 22.8364 47.5H26.4692C26.4692 48.9974 26.9575 50.1953 27.9341 51.0938C28.9106 51.9922 30.2192 52.4414 31.8599 52.4414C33.6047 52.4414 34.9393 51.9857 35.8638 51.0742C36.7882 50.1628 37.2505 48.8542 37.2505 47.1484C37.2505 45.4948 36.7427 44.2253 35.7271 43.3398C34.7114 42.4544 33.2466 41.9987 31.3325 41.9727H28.6177V39.0234ZM46.2739 53.1055C46.2739 52.4805 46.4562 51.9596 46.8208 51.543C47.1984 51.1263 47.7583 50.918 48.5005 50.918C49.2427 50.918 49.8026 51.1263 50.1802 51.543C50.5708 51.9596 50.7661 52.4805 50.7661 53.1055C50.7661 53.7044 50.5708 54.2057 50.1802 54.6094C49.8026 55.013 49.2427 55.2148 48.5005 55.2148C47.7583 55.2148 47.1984 55.013 46.8208 54.6094C46.4562 54.2057 46.2739 53.7044 46.2739 53.1055Z" fill="white"/>
<path d="M85.8379 269.167H102.684V273H81.126V237.453H85.8379V269.167ZM112.229 273H107.713V246.584H112.229V273ZM107.347 239.577C107.347 238.845 107.566 238.226 108.006 237.722C108.462 237.217 109.129 236.965 110.008 236.965C110.887 236.965 111.554 237.217 112.01 237.722C112.465 238.226 112.693 238.845 112.693 239.577C112.693 240.31 112.465 240.92 112.01 241.408C111.554 241.896 110.887 242.141 110.008 242.141C109.129 242.141 108.462 241.896 108.006 241.408C107.566 240.92 107.347 240.31 107.347 239.577ZM125.608 240.188V246.584H130.54V250.075H125.608V266.457C125.608 267.515 125.828 268.312 126.268 268.85C126.707 269.37 127.456 269.631 128.514 269.631C129.035 269.631 129.751 269.533 130.662 269.338V273C129.474 273.326 128.318 273.488 127.195 273.488C125.177 273.488 123.655 272.878 122.63 271.657C121.604 270.437 121.092 268.703 121.092 266.457V250.075H116.282V246.584H121.092V240.188H125.608ZM140.354 249.782C142.356 247.325 144.961 246.096 148.167 246.096C153.75 246.096 156.565 249.245 156.614 255.544V273H152.098V255.52C152.081 253.615 151.642 252.207 150.779 251.296C149.933 250.384 148.606 249.929 146.8 249.929C145.335 249.929 144.049 250.319 142.942 251.101C141.836 251.882 140.973 252.907 140.354 254.177V273H135.838V235.5H140.354V249.782ZM168.284 273H163.768V246.584H168.284V273ZM163.401 239.577C163.401 238.845 163.621 238.226 164.061 237.722C164.516 237.217 165.184 236.965 166.062 236.965C166.941 236.965 167.609 237.217 168.064 237.722C168.52 238.226 168.748 238.845 168.748 239.577C168.748 240.31 168.52 240.92 168.064 241.408C167.609 241.896 166.941 242.141 166.062 242.141C165.184 242.141 164.516 241.896 164.061 241.408C163.621 240.92 163.401 240.31 163.401 239.577ZM191.844 270.388C190.086 272.455 187.506 273.488 184.104 273.488C181.289 273.488 179.14 272.674 177.659 271.047C176.194 269.403 175.454 266.978 175.438 263.771V246.584H179.954V263.649C179.954 267.653 181.582 269.655 184.837 269.655C188.287 269.655 190.582 268.369 191.722 265.798V246.584H196.238V273H191.941L191.844 270.388ZM207.371 246.584L207.493 249.514C209.43 247.235 212.042 246.096 215.33 246.096C219.025 246.096 221.539 247.512 222.874 250.344C223.753 249.074 224.892 248.049 226.292 247.268C227.708 246.486 229.376 246.096 231.297 246.096C237.091 246.096 240.037 249.164 240.135 255.3V273H235.618V255.568C235.618 253.68 235.187 252.272 234.324 251.345C233.462 250.401 232.013 249.929 229.979 249.929C228.302 249.929 226.91 250.433 225.804 251.442C224.697 252.435 224.054 253.778 223.875 255.471V273H219.334V255.69C219.334 251.849 217.454 249.929 213.694 249.929C210.732 249.929 208.706 251.19 207.615 253.713V273H203.099V246.584H207.371Z" fill="white"/>
<path d="M134.407 291.657V293.957H133.909C131.8 293.996 130.12 294.621 128.87 295.832C127.62 297.043 126.897 298.747 126.702 300.944C127.825 299.655 129.358 299.011 131.302 299.011C133.157 299.011 134.637 299.665 135.74 300.974C136.854 302.282 137.41 303.972 137.41 306.042C137.41 308.239 136.81 309.997 135.608 311.315C134.417 312.634 132.815 313.293 130.804 313.293C128.763 313.293 127.107 312.512 125.838 310.949C124.568 309.377 123.934 307.355 123.934 304.885V303.845C123.934 299.919 124.769 296.921 126.438 294.851C128.118 292.771 130.613 291.706 133.924 291.657H134.407ZM130.848 301.267C129.92 301.267 129.065 301.545 128.284 302.102C127.503 302.658 126.961 303.356 126.658 304.196V305.192C126.658 306.95 127.054 308.366 127.845 309.44C128.636 310.515 129.622 311.052 130.804 311.052C132.024 311.052 132.981 310.603 133.675 309.704C134.378 308.806 134.729 307.629 134.729 306.174C134.729 304.709 134.373 303.527 133.66 302.629C132.957 301.721 132.02 301.267 130.848 301.267ZM140.955 311.579C140.955 311.11 141.092 310.72 141.365 310.407C141.648 310.095 142.068 309.938 142.625 309.938C143.182 309.938 143.602 310.095 143.885 310.407C144.178 310.72 144.324 311.11 144.324 311.579C144.324 312.028 144.178 312.404 143.885 312.707C143.602 313.01 143.182 313.161 142.625 313.161C142.068 313.161 141.648 313.01 141.365 312.707C141.092 312.404 140.955 312.028 140.955 311.579ZM158.914 303.625C158.348 304.299 157.669 304.841 156.878 305.251C156.097 305.661 155.237 305.866 154.3 305.866C153.069 305.866 151.995 305.563 151.077 304.958C150.169 304.353 149.466 303.503 148.968 302.409C148.47 301.306 148.221 300.09 148.221 298.762C148.221 297.336 148.489 296.052 149.026 294.909C149.573 293.767 150.345 292.893 151.341 292.287C152.337 291.682 153.499 291.379 154.827 291.379C156.937 291.379 158.597 292.17 159.808 293.752C161.028 295.324 161.639 297.473 161.639 300.197V300.988C161.639 305.139 160.818 308.171 159.178 310.085C157.537 311.989 155.062 312.966 151.751 313.015H151.224V310.729H151.795C154.031 310.69 155.75 310.109 156.951 308.986C158.152 307.854 158.807 306.066 158.914 303.625ZM154.739 303.625C155.647 303.625 156.482 303.347 157.244 302.79C158.016 302.233 158.577 301.545 158.929 300.725V299.641C158.929 297.863 158.543 296.418 157.771 295.305C157 294.191 156.023 293.635 154.842 293.635C153.65 293.635 152.693 294.094 151.971 295.012C151.248 295.92 150.887 297.121 150.887 298.615C150.887 300.07 151.233 301.271 151.927 302.219C152.63 303.156 153.567 303.625 154.739 303.625ZM176.814 305.837H179.773V308.049H176.814V313H174.09V308.049H164.378V306.452L173.929 291.672H176.814V305.837ZM167.454 305.837H174.09V295.378L173.768 295.964L167.454 305.837ZM191.126 313H188.401V294.938L182.938 296.945V294.484L190.701 291.569H191.126V313Z" fill="white"/>
</g>
<defs>
<filter id="filter0_d" x="0" y="0" width="332" height="346" filterUnits="userSpaceOnUse" color-interpolation-filters="sRGB">
<feFlood flood-opacity="0" result="BackgroundImageFix"/>
<feColorMatrix in="SourceAlpha" type="matrix" values="0 0 0 0 0 0 0 0 0 0 0 0 0 0 0 0 0 0 127 0" result="hardAlpha"/>
<feOffset dx="8" dy="9"/>
<feGaussianBlur stdDeviation="2"/>
<feComposite in2="hardAlpha" operator="out"/>
<feColorMatrix type="matrix" values="0 0 0 0 0 0 0 0 0 0 0 0 0 0 0 0 0 0 0.25 0"/>
<feBlend mode="normal" in2="BackgroundImageFix" result="effect1_dropShadow"/>
<feBlend mode="normal" in="SourceGraphic" in2="effect1_dropShadow" result="shape"/>
</filter>
<linearGradient id="paint0_linear" x1="160" y1="0" x2="160" y2="333" gradientUnits="userSpaceOnUse">
<stop stop-color="#007E58"/>
<stop offset="1" stop-color="#2F4D7A" stop-opacity="0.95"/>
</linearGradient>
</defs>
</svg>
