<svg width="812" height="404" viewBox="0 0 812 404" fill="none" xmlns="http://www.w3.org/2000/svg">
<path d="M320.65 295H311.617V220H320.65V295ZM357.076 295.977C349.915 295.977 344.088 293.633 339.596 288.945C335.104 284.225 332.857 277.926 332.857 270.049V268.389C332.857 263.148 333.85 258.477 335.836 254.375C337.854 250.241 340.654 247.018 344.234 244.707C347.848 242.363 351.754 241.191 355.953 241.191C362.822 241.191 368.16 243.454 371.969 247.978C375.777 252.503 377.682 258.981 377.682 267.412V271.172H341.891C342.021 276.38 343.535 280.596 346.432 283.818C349.361 287.008 353.072 288.603 357.564 288.603C360.755 288.603 363.456 287.952 365.67 286.65C367.883 285.348 369.82 283.623 371.48 281.475L376.998 285.771C372.571 292.575 365.93 295.977 357.076 295.977ZM355.953 248.613C352.307 248.613 349.247 249.948 346.773 252.617C344.299 255.254 342.77 258.965 342.184 263.75H368.648V263.066C368.388 258.477 367.151 254.928 364.938 252.422C362.724 249.883 359.729 248.613 355.953 248.613ZM396.676 242.168L396.92 248.027C400.794 243.47 406.018 241.191 412.594 241.191C419.983 241.191 425.012 244.023 427.682 249.687C429.439 247.148 431.718 245.098 434.518 243.535C437.35 241.973 440.686 241.191 444.527 241.191C456.116 241.191 462.008 247.327 462.203 259.6V295H453.17V260.137C453.17 256.361 452.307 253.545 450.582 251.689C448.857 249.801 445.96 248.857 441.891 248.857C438.538 248.857 435.755 249.867 433.541 251.885C431.327 253.87 430.042 256.556 429.684 259.941V295H420.602V260.381C420.602 252.699 416.842 248.857 409.322 248.857C403.398 248.857 399.345 251.38 397.164 256.426V295H388.131V242.168H396.676ZM497.799 295.977C490.637 295.977 484.811 293.633 480.318 288.945C475.826 284.225 473.58 277.926 473.58 270.049V268.389C473.58 263.148 474.573 258.477 476.559 254.375C478.577 250.241 481.376 247.018 484.957 244.707C488.57 242.363 492.477 241.191 496.676 241.191C503.544 241.191 508.883 243.454 512.691 247.978C516.5 252.503 518.404 258.981 518.404 267.412V271.172H482.613C482.743 276.38 484.257 280.596 487.154 283.818C490.084 287.008 493.795 288.603 498.287 288.603C501.477 288.603 504.179 287.952 506.393 286.65C508.606 285.348 510.543 283.623 512.203 281.475L517.721 285.771C513.294 292.575 506.653 295.977 497.799 295.977ZM496.676 248.613C493.03 248.613 489.97 249.948 487.496 252.617C485.022 255.254 483.492 258.965 482.906 263.75H509.371V263.066C509.111 258.477 507.874 254.928 505.66 252.422C503.447 249.883 500.452 248.613 496.676 248.613ZM537.447 242.168L537.74 248.809C541.777 243.73 547.05 241.191 553.561 241.191C564.726 241.191 570.357 247.49 570.455 260.088V295H561.422V260.039C561.389 256.23 560.51 253.415 558.785 251.592C557.092 249.769 554.439 248.857 550.826 248.857C547.896 248.857 545.325 249.639 543.111 251.201C540.898 252.764 539.173 254.814 537.936 257.353V295H528.902V242.168H537.447ZM596.334 229.375V242.168H606.197V249.15H596.334V281.914C596.334 284.03 596.773 285.625 597.652 286.699C598.531 287.741 600.029 288.262 602.145 288.262C603.186 288.262 604.618 288.066 606.441 287.676V295C604.065 295.651 601.754 295.977 599.508 295.977C595.471 295.977 592.428 294.756 590.377 292.314C588.326 289.873 587.301 286.406 587.301 281.914V249.15H577.682V242.168H587.301V229.375H596.334Z" fill="white"/>
<path d="M286.594 244.394H239.146V283.194H294.264V295H224.708V185.516H293.512V197.396H239.146V232.588H286.594V244.394Z" fill="white"/>
<path d="M732.76 330.977C725.598 330.977 719.771 328.633 715.279 323.945C710.787 319.225 708.541 312.926 708.541 305.049V303.389C708.541 298.148 709.534 293.477 711.52 289.375C713.538 285.241 716.337 282.018 719.918 279.707C723.531 277.363 727.438 276.191 731.637 276.191C738.505 276.191 743.844 278.454 747.652 282.978C751.461 287.503 753.365 293.981 753.365 302.412V306.172H717.574C717.704 311.38 719.218 315.596 722.115 318.818C725.045 322.008 728.756 323.603 733.248 323.603C736.438 323.603 739.14 322.952 741.354 321.65C743.567 320.348 745.504 318.623 747.164 316.475L752.682 320.771C748.255 327.575 741.614 330.977 732.76 330.977ZM731.637 283.613C727.991 283.613 724.931 284.948 722.457 287.617C719.983 290.254 718.453 293.965 717.867 298.75H744.332V298.066C744.072 293.477 742.835 289.928 740.621 287.422C738.408 284.883 735.413 283.613 731.637 283.613ZM796.48 330C795.96 328.958 795.536 327.103 795.211 324.434C791.012 328.796 785.999 330.977 780.172 330.977C774.964 330.977 770.683 329.512 767.33 326.582C764.01 323.62 762.35 319.876 762.35 315.352C762.35 309.85 764.433 305.586 768.6 302.559C772.799 299.499 778.691 297.969 786.275 297.969H795.064V293.818C795.064 290.661 794.12 288.154 792.232 286.299C790.344 284.411 787.561 283.467 783.883 283.467C780.66 283.467 777.958 284.281 775.777 285.908C773.596 287.536 772.506 289.505 772.506 291.816H763.424C763.424 289.18 764.352 286.641 766.207 284.199C768.095 281.725 770.634 279.772 773.824 278.34C777.047 276.908 780.579 276.191 784.42 276.191C790.507 276.191 795.276 277.721 798.727 280.781C802.177 283.809 803.967 287.992 804.098 293.33V317.646C804.098 322.497 804.716 326.354 805.953 329.219V330H796.48ZM781.49 323.115C784.322 323.115 787.008 322.383 789.547 320.918C792.086 319.453 793.925 317.549 795.064 315.205V304.365H787.984C776.917 304.365 771.383 307.604 771.383 314.082C771.383 316.914 772.327 319.128 774.215 320.723C776.103 322.318 778.528 323.115 781.49 323.115Z" fill="white"/>
<path d="M656.967 281.198C644.585 277.639 635.561 273.278 629.896 268.114C624.282 262.901 621.475 256.484 621.475 248.864C621.475 240.242 624.909 233.123 631.776 227.509C638.694 221.844 647.668 219.012 658.696 219.012C666.216 219.012 672.908 220.465 678.773 223.373C684.689 226.281 689.251 230.291 692.459 235.404C695.717 240.518 697.347 246.107 697.347 252.173H682.834C682.834 245.556 680.729 240.367 676.518 236.607C672.307 232.797 666.366 230.893 658.696 230.893C651.578 230.893 646.013 232.472 642.003 235.63C638.043 238.738 636.062 243.074 636.062 248.639C636.062 253.1 637.942 256.885 641.702 259.993C645.512 263.051 651.954 265.858 661.027 268.415C670.151 270.972 677.27 273.804 682.383 276.912C687.546 279.97 691.356 283.554 693.812 287.665C696.319 291.776 697.572 296.613 697.572 302.178C697.572 311.051 694.113 318.169 687.195 323.533C680.277 328.847 671.028 331.504 659.448 331.504C651.929 331.504 644.91 330.075 638.394 327.218C631.877 324.31 626.839 320.35 623.279 315.337C619.77 310.324 618.016 304.634 618.016 298.268H632.528C632.528 304.885 634.96 310.123 639.822 313.983C644.735 317.793 651.277 319.698 659.448 319.698C667.068 319.698 672.908 318.144 676.969 315.036C681.029 311.928 683.06 307.692 683.06 302.328C683.06 296.964 681.18 292.828 677.42 289.921C673.66 286.963 666.842 284.056 656.967 281.198Z" fill="white"/>
<path d="M136.844 228.295C160.384 279.861 102.273 330.372 54.4876 299.881V299.881C40.2711 290.81 30.8118 275.898 28.6626 259.172L9.17894 107.53C4.71663 72.8 31.8124 42.0652 66.828 42.1389L269.416 42.565C324.966 42.6818 347.446 114.157 303.151 147.679V147.679C282.65 163.195 254.092 163.58 233.409 148.307L212.938 133.191C164.778 97.6291 100.861 149.476 125.723 203.936L136.844 228.295Z" fill="url(#paint0_linear_3:16)"/>
<defs>
<linearGradient id="paint0_linear_3:16" x1="220.403" y1="403.463" x2="221.251" y2="0.46356" gradientUnits="userSpaceOnUse">
<stop stop-color="#FD00E4"/>
<stop offset="1" stop-color="#FF0606" stop-opacity="0.69"/>
</linearGradient>
</defs>
</svg>
