<svg width="332" height="346" viewBox="0 0 332 346" fill="none" xmlns="http://www.w3.org/2000/svg">
<g filter="url(#filter0_d_40:8)">
<rect width="320" height="333" fill="url(#paint0_linear_40:8)"/>
<path d="M41.7231 28.5938L29.9458 55H26.1567L37.895 29.5312H22.5044V26.5625H41.7231V28.5938ZM57.6997 55H54.0669V30.918L46.7817 33.5938V30.3125L57.1333 26.4258H57.6997V55ZM68.7349 53.1055C68.7349 52.4805 68.9172 51.9596 69.2817 51.543C69.6593 51.1263 70.2192 50.918 70.9614 50.918C71.7036 50.918 72.2635 51.1263 72.6411 51.543C73.0317 51.9596 73.2271 52.4805 73.2271 53.1055C73.2271 53.7044 73.0317 54.2057 72.6411 54.6094C72.2635 55.013 71.7036 55.2148 70.9614 55.2148C70.2192 55.2148 69.6593 55.013 69.2817 54.6094C68.9172 54.2057 68.7349 53.7044 68.7349 53.1055Z" fill="white"/>
<path d="M88.3516 201.668H155.734V217H69.5039V74.8125H88.3516V201.668ZM235.227 206.551C228.195 214.819 217.876 218.953 204.27 218.953C193.007 218.953 184.413 215.698 178.488 209.188C172.629 202.612 169.667 192.911 169.602 180.086V111.336H187.668V179.598C187.668 195.613 194.178 203.621 207.199 203.621C221.001 203.621 230.181 198.478 234.738 188.191V111.336H252.805V217H235.617L235.227 206.551Z" fill="white"/>
<path d="M70.8379 269.167H87.6836V273H66.126V237.453H70.8379V269.167ZM107.557 270.388C105.799 272.455 103.219 273.488 99.8174 273.488C97.0016 273.488 94.8532 272.674 93.3721 271.047C91.9072 269.403 91.1667 266.978 91.1504 263.771V246.584H95.667V263.649C95.667 267.653 97.2946 269.655 100.55 269.655C104 269.655 106.295 268.369 107.435 265.798V246.584H111.951V273H107.654L107.557 270.388ZM124.964 240.188V246.584H129.896V250.075H124.964V266.457C124.964 267.515 125.184 268.312 125.623 268.85C126.062 269.37 126.811 269.631 127.869 269.631C128.39 269.631 129.106 269.533 130.018 269.338V273C128.829 273.326 127.674 273.488 126.551 273.488C124.533 273.488 123.011 272.878 121.985 271.657C120.96 270.437 120.447 268.703 120.447 266.457V250.075H115.638V246.584H120.447V240.188H124.964ZM146.155 273.488C142.575 273.488 139.661 272.316 137.415 269.973C135.169 267.613 134.046 264.463 134.046 260.524V259.694C134.046 257.074 134.542 254.738 135.535 252.688C136.544 250.62 137.944 249.009 139.734 247.854C141.541 246.682 143.494 246.096 145.594 246.096C149.028 246.096 151.697 247.227 153.602 249.489C155.506 251.752 156.458 254.991 156.458 259.206V261.086H138.562C138.628 263.69 139.384 265.798 140.833 267.409C142.298 269.004 144.153 269.802 146.399 269.802C147.994 269.802 149.345 269.476 150.452 268.825C151.559 268.174 152.527 267.312 153.357 266.237L156.116 268.386C153.903 271.787 150.582 273.488 146.155 273.488ZM145.594 249.807C143.771 249.807 142.241 250.474 141.004 251.809C139.767 253.127 139.002 254.982 138.709 257.375H151.941V257.033C151.811 254.738 151.193 252.964 150.086 251.711C148.979 250.441 147.482 249.807 145.594 249.807ZM167.835 240.188V246.584H172.767V250.075H167.835V266.457C167.835 267.515 168.055 268.312 168.494 268.85C168.934 269.37 169.682 269.631 170.74 269.631C171.261 269.631 171.977 269.533 172.889 269.338V273C171.701 273.326 170.545 273.488 169.422 273.488C167.404 273.488 165.882 272.878 164.856 271.657C163.831 270.437 163.318 268.703 163.318 266.457V250.075H158.509V246.584H163.318V240.188H167.835ZM182.972 273H178.455V246.584H182.972V273ZM178.089 239.577C178.089 238.845 178.309 238.226 178.748 237.722C179.204 237.217 179.871 236.965 180.75 236.965C181.629 236.965 182.296 237.217 182.752 237.722C183.208 238.226 183.436 238.845 183.436 239.577C183.436 240.31 183.208 240.92 182.752 241.408C182.296 241.896 181.629 242.141 180.75 242.141C179.871 242.141 179.204 241.896 178.748 241.408C178.309 240.92 178.089 240.31 178.089 239.577ZM206.531 270.388C204.773 272.455 202.194 273.488 198.792 273.488C195.976 273.488 193.828 272.674 192.347 271.047C190.882 269.403 190.141 266.978 190.125 263.771V246.584H194.642V263.649C194.642 267.653 196.269 269.655 199.524 269.655C202.975 269.655 205.27 268.369 206.409 265.798V246.584H210.926V273H206.629L206.531 270.388ZM222.059 246.584L222.181 249.514C224.118 247.235 226.73 246.096 230.018 246.096C233.712 246.096 236.227 247.512 237.562 250.344C238.44 249.074 239.58 248.049 240.979 247.268C242.396 246.486 244.064 246.096 245.984 246.096C251.779 246.096 254.725 249.164 254.822 255.3V273H250.306V255.568C250.306 253.68 249.874 252.272 249.012 251.345C248.149 250.401 246.701 249.929 244.666 249.929C242.99 249.929 241.598 250.433 240.491 251.442C239.384 252.435 238.742 253.778 238.562 255.471V273H234.021V255.69C234.021 251.849 232.142 249.929 228.382 249.929C225.42 249.929 223.393 251.19 222.303 253.713V273H217.786V246.584H222.059Z" fill="white"/>
<path d="M124.679 313H121.954V294.938L116.49 296.945V294.484L124.254 291.569H124.679V313ZM146.388 293.195L137.555 313H134.713L143.517 293.898H131.974V291.672H146.388V293.195ZM160.904 305.837H163.863V308.049H160.904V313H158.18V308.049H148.468V306.452L158.019 291.672H160.904V305.837ZM151.544 305.837H158.18V295.378L157.857 295.964L151.544 305.837ZM166.646 311.579C166.646 311.11 166.783 310.72 167.057 310.407C167.34 310.095 167.76 309.938 168.316 309.938C168.873 309.938 169.293 310.095 169.576 310.407C169.869 310.72 170.016 311.11 170.016 311.579C170.016 312.028 169.869 312.404 169.576 312.707C169.293 313.01 168.873 313.161 168.316 313.161C167.76 313.161 167.34 313.01 167.057 312.707C166.783 312.404 166.646 312.028 166.646 311.579ZM184.605 303.625C184.039 304.299 183.36 304.841 182.569 305.251C181.788 305.661 180.929 305.866 179.991 305.866C178.761 305.866 177.687 305.563 176.769 304.958C175.86 304.353 175.157 303.503 174.659 302.409C174.161 301.306 173.912 300.09 173.912 298.762C173.912 297.336 174.181 296.052 174.718 294.909C175.265 293.767 176.036 292.893 177.032 292.287C178.028 291.682 179.19 291.379 180.519 291.379C182.628 291.379 184.288 292.17 185.499 293.752C186.72 295.324 187.33 297.473 187.33 300.197V300.988C187.33 305.139 186.51 308.171 184.869 310.085C183.229 311.989 180.753 312.966 177.442 313.015H176.915V310.729H177.486C179.723 310.69 181.441 310.109 182.643 308.986C183.844 307.854 184.498 306.066 184.605 303.625ZM180.431 303.625C181.339 303.625 182.174 303.347 182.936 302.79C183.707 302.233 184.269 301.545 184.62 300.725V299.641C184.62 297.863 184.234 296.418 183.463 295.305C182.691 294.191 181.715 293.635 180.533 293.635C179.342 293.635 178.385 294.094 177.662 295.012C176.939 295.92 176.578 297.121 176.578 298.615C176.578 300.07 176.925 301.271 177.618 302.219C178.321 303.156 179.259 303.625 180.431 303.625ZM204.835 293.195L196.002 313H193.16L201.964 293.898H190.421V291.672H204.835V293.195Z" fill="white"/>
</g>
<defs>
<filter id="filter0_d_40:8" x="0" y="0" width="332" height="346" filterUnits="userSpaceOnUse" color-interpolation-filters="sRGB">
<feFlood flood-opacity="0" result="BackgroundImageFix"/>
<feColorMatrix in="SourceAlpha" type="matrix" values="0 0 0 0 0 0 0 0 0 0 0 0 0 0 0 0 0 0 127 0" result="hardAlpha"/>
<feOffset dx="8" dy="9"/>
<feGaussianBlur stdDeviation="2"/>
<feComposite in2="hardAlpha" operator="out"/>
<feColorMatrix type="matrix" values="0 0 0 0 0 0 0 0 0 0 0 0 0 0 0 0 0 0 0.25 0"/>
<feBlend mode="normal" in2="BackgroundImageFix" result="effect1_dropShadow_40:8"/>
<feBlend mode="normal" in="SourceGraphic" in2="effect1_dropShadow_40:8" result="shape"/>
</filter>
<linearGradient id="paint0_linear_40:8" x1="160" y1="0" x2="160" y2="333" gradientUnits="userSpaceOnUse">
<stop stop-color="#007E58"/>
<stop offset="1" stop-color="#2F4D7A" stop-opacity="0.95"/>
</linearGradient>
</defs>
</svg>
