<svg width="332" height="346" viewBox="0 0 332 346" fill="none" xmlns="http://www.w3.org/2000/svg">
<g filter="url(#filter0_d)">
<rect width="320" height="333" fill="url(#paint0_linear)"/>
<path d="M57.7227 74.8125L104.207 190.828L150.691 74.8125H175.008V217H156.258V161.629L158.016 101.863L111.336 217H96.9805L50.3984 102.156L52.2539 161.629V217H33.5039V74.8125H57.7227ZM200.984 163.289C200.984 146.818 204.793 133.732 212.41 124.031C220.027 114.266 230.118 109.383 242.684 109.383C255.574 109.383 265.633 113.94 272.859 123.055L273.738 111.336H290.242V214.461C290.242 228.133 286.173 238.908 278.035 246.785C269.962 254.663 259.09 258.602 245.418 258.602C237.801 258.602 230.346 256.974 223.055 253.719C215.763 250.464 210.197 246.004 206.355 240.34L215.73 229.5C223.478 239.07 232.951 243.855 244.148 243.855C252.938 243.855 259.773 241.382 264.656 236.434C269.604 231.486 272.078 224.52 272.078 215.535V206.453C264.852 214.786 254.988 218.953 242.488 218.953C230.118 218.953 220.092 213.973 212.41 204.012C204.793 194.051 200.984 180.477 200.984 163.289ZM219.148 165.34C219.148 177.254 221.59 186.629 226.473 193.465C231.355 200.236 238.191 203.621 246.98 203.621C258.374 203.621 266.74 198.445 272.078 188.094V139.852C266.544 129.76 258.243 124.715 247.176 124.715C238.387 124.715 231.518 128.133 226.57 134.969C221.622 141.805 219.148 151.928 219.148 165.34Z" fill="white"/>
<path d="M35.2388 55H31.606V30.918L24.3208 33.5938V30.3125L34.6724 26.4258H35.2388V55ZM64.4575 55H45.8247V52.4023L55.6685 41.4648C57.1268 39.8112 58.1294 38.4701 58.6763 37.4414C59.2362 36.3997 59.5161 35.3255 59.5161 34.2188C59.5161 32.7344 59.0669 31.5169 58.1685 30.5664C57.27 29.6159 56.0721 29.1406 54.5747 29.1406C52.7778 29.1406 51.3781 29.6549 50.3755 30.6836C49.3859 31.6992 48.8911 33.1185 48.8911 34.9414H45.2778C45.2778 32.3242 46.1177 30.2083 47.7974 28.5938C49.4901 26.9792 51.7492 26.1719 54.5747 26.1719C57.2179 26.1719 59.3078 26.8685 60.8442 28.2617C62.3807 29.6419 63.1489 31.4844 63.1489 33.7891C63.1489 36.5885 61.3651 39.9219 57.7974 43.7891L50.1802 52.0508H64.4575V55ZM68.7349 53.1055C68.7349 52.4805 68.9172 51.9596 69.2817 51.543C69.6593 51.1263 70.2192 50.918 70.9614 50.918C71.7036 50.918 72.2635 51.1263 72.6411 51.543C73.0317 51.9596 73.2271 52.4805 73.2271 53.1055C73.2271 53.7044 73.0317 54.2057 72.6411 54.6094C72.2635 55.013 71.7036 55.2148 70.9614 55.2148C70.2192 55.2148 69.6593 55.013 69.2817 54.6094C68.9172 54.2057 68.7349 53.7044 68.7349 53.1055Z" fill="white"/>
<path d="M38.1807 237.453L49.8018 266.457L61.4229 237.453H67.502V273H62.8145V259.157L63.2539 244.216L51.584 273H47.9951L36.3496 244.289L36.8135 259.157V273H32.126V237.453H38.1807ZM91.3789 273C91.1185 272.479 90.9069 271.551 90.7441 270.217C88.6445 272.398 86.138 273.488 83.2246 273.488C80.6204 273.488 78.4801 272.756 76.8037 271.291C75.1436 269.81 74.3135 267.938 74.3135 265.676C74.3135 262.925 75.3551 260.793 77.4385 259.279C79.5381 257.749 82.484 256.984 86.2764 256.984H90.6709V254.909C90.6709 253.33 90.1989 252.077 89.2549 251.149C88.3109 250.205 86.9193 249.733 85.0801 249.733C83.4688 249.733 82.1178 250.14 81.0273 250.954C79.9368 251.768 79.3916 252.753 79.3916 253.908H74.8506C74.8506 252.59 75.3145 251.32 76.2422 250.1C77.1862 248.863 78.4557 247.886 80.0508 247.17C81.6621 246.454 83.4281 246.096 85.3486 246.096C88.3923 246.096 90.7767 246.861 92.502 248.391C94.2272 249.904 95.1224 251.996 95.1875 254.665V266.823C95.1875 269.248 95.4967 271.177 96.1152 272.609V273H91.3789ZM83.8838 269.558C85.2998 269.558 86.6426 269.191 87.9121 268.459C89.1816 267.727 90.1012 266.774 90.6709 265.603V260.183H87.1309C81.597 260.183 78.8301 261.802 78.8301 265.041C78.8301 266.457 79.3021 267.564 80.2461 268.361C81.1901 269.159 82.4027 269.558 83.8838 269.558ZM101.193 259.572C101.193 255.454 102.146 252.183 104.05 249.758C105.954 247.316 108.477 246.096 111.618 246.096C114.841 246.096 117.355 247.235 119.162 249.514L119.382 246.584H123.508V272.365C123.508 275.783 122.491 278.477 120.456 280.446C118.438 282.416 115.72 283.4 112.302 283.4C110.397 283.4 108.534 282.993 106.711 282.18C104.888 281.366 103.496 280.251 102.536 278.835L104.88 276.125C106.817 278.518 109.185 279.714 111.984 279.714C114.182 279.714 115.891 279.095 117.111 277.858C118.348 276.621 118.967 274.88 118.967 272.634V270.363C117.16 272.447 114.694 273.488 111.569 273.488C108.477 273.488 105.97 272.243 104.05 269.753C102.146 267.263 101.193 263.869 101.193 259.572ZM105.734 260.085C105.734 263.063 106.345 265.407 107.565 267.116C108.786 268.809 110.495 269.655 112.692 269.655C115.541 269.655 117.632 268.361 118.967 265.773V253.713C117.583 251.19 115.508 249.929 112.741 249.929C110.544 249.929 108.827 250.783 107.59 252.492C106.353 254.201 105.734 256.732 105.734 260.085ZM134.616 246.584L134.763 249.904C136.781 247.365 139.418 246.096 142.673 246.096C148.256 246.096 151.071 249.245 151.12 255.544V273H146.604V255.52C146.587 253.615 146.148 252.207 145.285 251.296C144.439 250.384 143.112 249.929 141.306 249.929C139.841 249.929 138.555 250.319 137.448 251.101C136.341 251.882 135.479 252.907 134.86 254.177V273H130.344V246.584H134.616ZM168.894 273.488C165.313 273.488 162.399 272.316 160.153 269.973C157.907 267.613 156.784 264.463 156.784 260.524V259.694C156.784 257.074 157.281 254.738 158.273 252.688C159.283 250.62 160.682 249.009 162.473 247.854C164.279 246.682 166.232 246.096 168.332 246.096C171.766 246.096 174.436 247.227 176.34 249.489C178.244 251.752 179.196 254.991 179.196 259.206V261.086H161.301C161.366 263.69 162.123 265.798 163.571 267.409C165.036 269.004 166.892 269.802 169.138 269.802C170.733 269.802 172.084 269.476 173.19 268.825C174.297 268.174 175.266 267.312 176.096 266.237L178.854 268.386C176.641 271.787 173.321 273.488 168.894 273.488ZM168.332 249.807C166.509 249.807 164.979 250.474 163.742 251.809C162.505 253.127 161.74 254.982 161.447 257.375H174.68V257.033C174.549 254.738 173.931 252.964 172.824 251.711C171.717 250.441 170.22 249.807 168.332 249.807ZM199.826 265.993C199.826 264.772 199.362 263.828 198.435 263.161C197.523 262.478 195.92 261.892 193.625 261.403C191.346 260.915 189.532 260.329 188.181 259.646C186.846 258.962 185.853 258.148 185.202 257.204C184.567 256.26 184.25 255.137 184.25 253.835C184.25 251.67 185.161 249.839 186.984 248.342C188.824 246.844 191.167 246.096 194.016 246.096C197.01 246.096 199.436 246.869 201.291 248.415C203.163 249.961 204.099 251.939 204.099 254.348H199.558C199.558 253.111 199.029 252.045 197.971 251.149C196.929 250.254 195.611 249.807 194.016 249.807C192.372 249.807 191.086 250.165 190.158 250.881C189.23 251.597 188.767 252.533 188.767 253.688C188.767 254.779 189.198 255.601 190.061 256.154C190.923 256.708 192.478 257.237 194.724 257.741C196.986 258.246 198.817 258.848 200.217 259.548C201.617 260.248 202.65 261.094 203.317 262.087C204.001 263.063 204.343 264.26 204.343 265.676C204.343 268.036 203.399 269.932 201.511 271.364C199.623 272.78 197.173 273.488 194.162 273.488C192.046 273.488 190.174 273.114 188.547 272.365C186.919 271.617 185.642 270.575 184.714 269.24C183.802 267.889 183.347 266.433 183.347 264.87H187.863C187.945 266.384 188.547 267.588 189.67 268.483C190.809 269.362 192.307 269.802 194.162 269.802C195.871 269.802 197.238 269.46 198.264 268.776C199.305 268.076 199.826 267.149 199.826 265.993ZM215.134 273H210.617V246.584H215.134V273ZM210.251 239.577C210.251 238.845 210.471 238.226 210.91 237.722C211.366 237.217 212.033 236.965 212.912 236.965C213.791 236.965 214.458 237.217 214.914 237.722C215.37 238.226 215.598 238.845 215.598 239.577C215.598 240.31 215.37 240.92 214.914 241.408C214.458 241.896 213.791 242.141 212.912 242.141C212.033 242.141 211.366 241.896 210.91 241.408C210.471 240.92 210.251 240.31 210.251 239.577ZM238.693 270.388C236.936 272.455 234.356 273.488 230.954 273.488C228.138 273.488 225.99 272.674 224.509 271.047C223.044 269.403 222.303 266.978 222.287 263.771V246.584H226.804V263.649C226.804 267.653 228.431 269.655 231.687 269.655C235.137 269.655 237.432 268.369 238.571 265.798V246.584H243.088V273H238.791L238.693 270.388ZM254.221 246.584L254.343 249.514C256.28 247.235 258.892 246.096 262.18 246.096C265.874 246.096 268.389 247.512 269.724 250.344C270.603 249.074 271.742 248.049 273.142 247.268C274.558 246.486 276.226 246.096 278.146 246.096C283.941 246.096 286.887 249.164 286.984 255.3V273H282.468V255.568C282.468 253.68 282.036 252.272 281.174 251.345C280.311 250.401 278.863 249.929 276.828 249.929C275.152 249.929 273.76 250.433 272.653 251.442C271.547 252.435 270.904 253.778 270.725 255.471V273H266.184V255.69C266.184 251.849 264.304 249.929 260.544 249.929C257.582 249.929 255.555 251.19 254.465 253.713V273H249.948V246.584H254.221Z" fill="white"/>
<path d="M128.747 313H114.772V311.052L122.155 302.849C123.249 301.608 124.001 300.603 124.411 299.831C124.831 299.05 125.041 298.244 125.041 297.414C125.041 296.301 124.704 295.388 124.03 294.675C123.356 293.962 122.458 293.605 121.335 293.605C119.987 293.605 118.938 293.991 118.186 294.763C117.443 295.524 117.072 296.589 117.072 297.956H114.362C114.362 295.993 114.992 294.406 116.252 293.195C117.521 291.984 119.216 291.379 121.335 291.379C123.317 291.379 124.885 291.901 126.037 292.946C127.189 293.981 127.766 295.363 127.766 297.092C127.766 299.191 126.428 301.691 123.752 304.592L118.039 310.788H128.747V313ZM143.059 305.837H146.018V308.049H143.059V313H140.334V308.049H130.622V306.452L140.173 291.672H143.059V305.837ZM133.698 305.837H140.334V295.378L140.012 295.964L133.698 305.837ZM148.801 311.579C148.801 311.11 148.938 310.72 149.211 310.407C149.494 310.095 149.914 309.938 150.471 309.938C151.027 309.938 151.447 310.095 151.73 310.407C152.023 310.72 152.17 311.11 152.17 311.579C152.17 312.028 152.023 312.404 151.73 312.707C151.447 313.01 151.027 313.161 150.471 313.161C149.914 313.161 149.494 313.01 149.211 312.707C148.938 312.404 148.801 312.028 148.801 311.579ZM160.314 301.018H162.351C163.63 300.998 164.636 300.661 165.368 300.007C166.101 299.353 166.467 298.469 166.467 297.355C166.467 294.855 165.222 293.605 162.731 293.605C161.56 293.605 160.622 293.942 159.919 294.616C159.226 295.28 158.879 296.164 158.879 297.268H156.169C156.169 295.578 156.784 294.177 158.015 293.063C159.255 291.94 160.827 291.379 162.731 291.379C164.743 291.379 166.32 291.911 167.463 292.976C168.605 294.04 169.177 295.52 169.177 297.414C169.177 298.342 168.874 299.24 168.269 300.109C167.673 300.979 166.857 301.628 165.822 302.058C166.994 302.429 167.897 303.044 168.532 303.903C169.177 304.763 169.499 305.812 169.499 307.053C169.499 308.967 168.874 310.485 167.624 311.608C166.374 312.731 164.748 313.293 162.746 313.293C160.744 313.293 159.113 312.751 157.854 311.667C156.604 310.583 155.979 309.152 155.979 307.375H158.703C158.703 308.498 159.069 309.396 159.802 310.07C160.534 310.744 161.516 311.081 162.746 311.081C164.055 311.081 165.056 310.739 165.749 310.056C166.442 309.372 166.789 308.391 166.789 307.111C166.789 305.871 166.408 304.919 165.646 304.255C164.885 303.591 163.786 303.249 162.351 303.229H160.314V301.018ZM186.594 303.903C186.594 307.077 186.052 309.436 184.968 310.979C183.884 312.521 182.189 313.293 179.885 313.293C177.609 313.293 175.925 312.541 174.831 311.037C173.737 309.523 173.171 307.268 173.132 304.27V300.651C173.132 297.517 173.674 295.188 174.758 293.664C175.842 292.141 177.541 291.379 179.855 291.379C182.15 291.379 183.84 292.116 184.924 293.591C186.008 295.056 186.564 297.321 186.594 300.388V303.903ZM183.884 300.197C183.884 297.902 183.562 296.232 182.917 295.188C182.272 294.133 181.252 293.605 179.855 293.605C178.469 293.605 177.458 294.128 176.823 295.173C176.188 296.218 175.861 297.824 175.842 299.992V304.328C175.842 306.633 176.174 308.337 176.838 309.44C177.512 310.534 178.527 311.081 179.885 311.081C181.223 311.081 182.214 310.563 182.858 309.528C183.513 308.493 183.854 306.862 183.884 304.636V300.197ZM191.311 302.307L192.395 291.672H203.322V294.177H194.694L194.05 299.992C195.095 299.377 196.281 299.069 197.609 299.069C199.553 299.069 201.096 299.714 202.238 301.003C203.381 302.282 203.952 304.016 203.952 306.203C203.952 308.4 203.356 310.134 202.165 311.403C200.983 312.663 199.328 313.293 197.199 313.293C195.314 313.293 193.776 312.771 192.585 311.726C191.394 310.681 190.715 309.235 190.549 307.39H193.112C193.278 308.61 193.713 309.533 194.416 310.158C195.119 310.773 196.047 311.081 197.199 311.081C198.459 311.081 199.445 310.651 200.158 309.792C200.881 308.933 201.242 307.746 201.242 306.232C201.242 304.807 200.852 303.664 200.07 302.805C199.299 301.936 198.269 301.501 196.979 301.501C195.798 301.501 194.87 301.76 194.196 302.277L193.479 302.863L191.311 302.307Z" fill="white"/>
</g>
<defs>
<filter id="filter0_d" x="0" y="0" width="332" height="346" filterUnits="userSpaceOnUse" color-interpolation-filters="sRGB">
<feFlood flood-opacity="0" result="BackgroundImageFix"/>
<feColorMatrix in="SourceAlpha" type="matrix" values="0 0 0 0 0 0 0 0 0 0 0 0 0 0 0 0 0 0 127 0" result="hardAlpha"/>
<feOffset dx="8" dy="9"/>
<feGaussianBlur stdDeviation="2"/>
<feComposite in2="hardAlpha" operator="out"/>
<feColorMatrix type="matrix" values="0 0 0 0 0 0 0 0 0 0 0 0 0 0 0 0 0 0 0.25 0"/>
<feBlend mode="normal" in2="BackgroundImageFix" result="effect1_dropShadow"/>
<feBlend mode="normal" in="SourceGraphic" in2="effect1_dropShadow" result="shape"/>
</filter>
<linearGradient id="paint0_linear" x1="160" y1="0" x2="160" y2="333" gradientUnits="userSpaceOnUse">
<stop stop-color="#007E58"/>
<stop offset="1" stop-color="#2F4D7A" stop-opacity="0.95"/>
</linearGradient>
</defs>
</svg>
