<svg width="332" height="346" viewBox="0 0 332 346" fill="none" xmlns="http://www.w3.org/2000/svg">
<g filter="url(#filter0_d)">
<rect width="320" height="333" fill="url(#paint0_linear)"/>
<path d="M58.7227 74.8125L105.207 190.828L151.691 74.8125H176.008V217H157.258V161.629L159.016 101.863L112.336 217H97.9805L51.3984 102.156L53.2539 161.629V217H34.5039V74.8125H58.7227ZM223.371 111.336L223.957 124.617C232.03 114.461 242.577 109.383 255.598 109.383C277.928 109.383 289.191 121.98 289.387 147.176V217H271.32V147.078C271.255 139.461 269.497 133.829 266.047 130.184C262.661 126.538 257.355 124.715 250.129 124.715C244.27 124.715 239.126 126.277 234.699 129.402C230.272 132.527 226.822 136.629 224.348 141.707V217H206.281V111.336H223.371Z" fill="white"/>
<path d="M41.9961 55H23.3633V52.4023L33.207 41.4648C34.6654 39.8112 35.668 38.4701 36.2148 37.4414C36.7747 36.3997 37.0547 35.3255 37.0547 34.2188C37.0547 32.7344 36.6055 31.5169 35.707 30.5664C34.8086 29.6159 33.6107 29.1406 32.1133 29.1406C30.3164 29.1406 28.9167 29.6549 27.9141 30.6836C26.9245 31.6992 26.4297 33.1185 26.4297 34.9414H22.8164C22.8164 32.3242 23.6562 30.2083 25.3359 28.5938C27.0286 26.9792 29.2878 26.1719 32.1133 26.1719C34.7565 26.1719 36.8464 26.8685 38.3828 28.2617C39.9193 29.6419 40.6875 31.4844 40.6875 33.7891C40.6875 36.5885 38.9036 39.9219 35.3359 43.7891L27.7188 52.0508H41.9961V55ZM47.4844 40.7422L48.9297 26.5625H63.5V29.9023H51.9961L51.1367 37.6562C52.5299 36.8359 54.112 36.4258 55.8828 36.4258C58.474 36.4258 60.5312 37.2852 62.0547 39.0039C63.5781 40.7096 64.3398 43.0208 64.3398 45.9375C64.3398 48.8672 63.5456 51.1784 61.957 52.8711C60.3815 54.5508 58.1745 55.3906 55.3359 55.3906C52.8229 55.3906 50.7721 54.694 49.1836 53.3008C47.5951 51.9076 46.6901 49.9805 46.4688 47.5195H49.8867C50.1081 49.1471 50.6875 50.3776 51.625 51.2109C52.5625 52.0312 53.7995 52.4414 55.3359 52.4414C57.0156 52.4414 58.3307 51.8685 59.2812 50.7227C60.2448 49.5768 60.7266 47.9948 60.7266 45.9766C60.7266 44.0755 60.2057 42.5521 59.1641 41.4062C58.1354 40.2474 56.7617 39.668 55.043 39.668C53.4674 39.668 52.2305 40.013 51.332 40.7031L50.375 41.4844L47.4844 40.7422ZM68.7344 53.1055C68.7344 52.4805 68.9167 51.9596 69.2812 51.543C69.6589 51.1263 70.2188 50.918 70.9609 50.918C71.7031 50.918 72.263 51.1263 72.6406 51.543C73.0312 51.9596 73.2266 52.4805 73.2266 53.1055C73.2266 53.7044 73.0312 54.2057 72.6406 54.6094C72.263 55.013 71.7031 55.2148 70.9609 55.2148C70.2188 55.2148 69.6589 55.013 69.2812 54.6094C68.9167 54.2057 68.7344 53.7044 68.7344 53.1055Z" fill="white"/>
<path d="M40.1807 237.453L51.8018 266.457L63.4229 237.453H69.502V273H64.8145V259.157L65.2539 244.216L53.584 273H49.9951L38.3496 244.289L38.8135 259.157V273H34.126V237.453H40.1807ZM93.3789 273C93.1185 272.479 92.9069 271.551 92.7441 270.217C90.6445 272.398 88.138 273.488 85.2246 273.488C82.6204 273.488 80.4801 272.756 78.8037 271.291C77.1436 269.81 76.3135 267.938 76.3135 265.676C76.3135 262.925 77.3551 260.793 79.4385 259.279C81.5381 257.749 84.484 256.984 88.2764 256.984H92.6709V254.909C92.6709 253.33 92.1989 252.077 91.2549 251.149C90.3109 250.205 88.9193 249.733 87.0801 249.733C85.4688 249.733 84.1178 250.14 83.0273 250.954C81.9368 251.768 81.3916 252.753 81.3916 253.908H76.8506C76.8506 252.59 77.3145 251.32 78.2422 250.1C79.1862 248.863 80.4557 247.886 82.0508 247.17C83.6621 246.454 85.4281 246.096 87.3486 246.096C90.3923 246.096 92.7767 246.861 94.502 248.391C96.2272 249.904 97.1224 251.996 97.1875 254.665V266.823C97.1875 269.248 97.4967 271.177 98.1152 272.609V273H93.3789ZM85.8838 269.558C87.2998 269.558 88.6426 269.191 89.9121 268.459C91.1816 267.727 92.1012 266.774 92.6709 265.603V260.183H89.1309C83.597 260.183 80.8301 261.802 80.8301 265.041C80.8301 266.457 81.3021 267.564 82.2461 268.361C83.1901 269.159 84.4027 269.558 85.8838 269.558ZM108.54 246.584L108.687 249.904C110.705 247.365 113.341 246.096 116.597 246.096C122.179 246.096 124.995 249.245 125.044 255.544V273H120.527V255.52C120.511 253.615 120.072 252.207 119.209 251.296C118.363 250.384 117.036 249.929 115.229 249.929C113.765 249.929 112.479 250.319 111.372 251.101C110.265 251.882 109.403 252.907 108.784 254.177V273H104.268V246.584H108.54ZM130.781 259.572C130.781 255.454 131.733 252.183 133.638 249.758C135.542 247.316 138.065 246.096 141.206 246.096C144.429 246.096 146.943 247.235 148.75 249.514L148.97 246.584H153.096V272.365C153.096 275.783 152.078 278.477 150.044 280.446C148.026 282.416 145.308 283.4 141.89 283.4C139.985 283.4 138.122 282.993 136.299 282.18C134.476 281.366 133.084 280.251 132.124 278.835L134.468 276.125C136.405 278.518 138.773 279.714 141.572 279.714C143.77 279.714 145.479 279.095 146.699 277.858C147.936 276.621 148.555 274.88 148.555 272.634V270.363C146.748 272.447 144.282 273.488 141.157 273.488C138.065 273.488 135.558 272.243 133.638 269.753C131.733 267.263 130.781 263.869 130.781 259.572ZM135.322 260.085C135.322 263.063 135.933 265.407 137.153 267.116C138.374 268.809 140.083 269.655 142.28 269.655C145.129 269.655 147.22 268.361 148.555 265.773V253.713C147.171 251.19 145.096 249.929 142.329 249.929C140.132 249.929 138.415 250.783 137.178 252.492C135.941 254.201 135.322 256.732 135.322 260.085ZM176.24 273C175.98 272.479 175.768 271.551 175.605 270.217C173.506 272.398 170.999 273.488 168.086 273.488C165.482 273.488 163.341 272.756 161.665 271.291C160.005 269.81 159.175 267.938 159.175 265.676C159.175 262.925 160.216 260.793 162.3 259.279C164.399 257.749 167.345 256.984 171.138 256.984H175.532V254.909C175.532 253.33 175.06 252.077 174.116 251.149C173.172 250.205 171.781 249.733 169.941 249.733C168.33 249.733 166.979 250.14 165.889 250.954C164.798 251.768 164.253 252.753 164.253 253.908H159.712C159.712 252.59 160.176 251.32 161.104 250.1C162.048 248.863 163.317 247.886 164.912 247.17C166.523 246.454 168.289 246.096 170.21 246.096C173.254 246.096 175.638 246.861 177.363 248.391C179.089 249.904 179.984 251.996 180.049 254.665V266.823C180.049 269.248 180.358 271.177 180.977 272.609V273H176.24ZM168.745 269.558C170.161 269.558 171.504 269.191 172.773 268.459C174.043 267.727 174.963 266.774 175.532 265.603V260.183H171.992C166.458 260.183 163.691 261.802 163.691 265.041C163.691 266.457 164.163 267.564 165.107 268.361C166.051 269.159 167.264 269.558 168.745 269.558ZM191.401 246.584L191.548 249.904C193.566 247.365 196.203 246.096 199.458 246.096C205.041 246.096 207.856 249.245 207.905 255.544V273H203.389V255.52C203.372 253.615 202.933 252.207 202.07 251.296C201.224 250.384 199.897 249.929 198.091 249.929C196.626 249.929 195.34 250.319 194.233 251.101C193.127 251.882 192.264 252.907 191.646 254.177V273H187.129V246.584H191.401ZM225.679 273.488C222.098 273.488 219.185 272.316 216.938 269.973C214.692 267.613 213.569 264.463 213.569 260.524V259.694C213.569 257.074 214.066 254.738 215.059 252.688C216.068 250.62 217.467 249.009 219.258 247.854C221.064 246.682 223.018 246.096 225.117 246.096C228.551 246.096 231.221 247.227 233.125 249.489C235.029 251.752 235.981 254.991 235.981 259.206V261.086H218.086C218.151 263.69 218.908 265.798 220.356 267.409C221.821 269.004 223.677 269.802 225.923 269.802C227.518 269.802 228.869 269.476 229.976 268.825C231.082 268.174 232.051 267.312 232.881 266.237L235.64 268.386C233.426 271.787 230.106 273.488 225.679 273.488ZM225.117 249.807C223.294 249.807 221.764 250.474 220.527 251.809C219.29 253.127 218.525 254.982 218.232 257.375H231.465V257.033C231.335 254.738 230.716 252.964 229.609 251.711C228.503 250.441 227.005 249.807 225.117 249.807ZM256.611 265.993C256.611 264.772 256.147 263.828 255.22 263.161C254.308 262.478 252.705 261.892 250.41 261.403C248.132 260.915 246.317 260.329 244.966 259.646C243.631 258.962 242.638 258.148 241.987 257.204C241.353 256.26 241.035 255.137 241.035 253.835C241.035 251.67 241.947 249.839 243.77 248.342C245.609 246.844 247.952 246.096 250.801 246.096C253.796 246.096 256.221 246.869 258.076 248.415C259.948 249.961 260.884 251.939 260.884 254.348H256.343C256.343 253.111 255.814 252.045 254.756 251.149C253.714 250.254 252.396 249.807 250.801 249.807C249.157 249.807 247.871 250.165 246.943 250.881C246.016 251.597 245.552 252.533 245.552 253.688C245.552 254.779 245.983 255.601 246.846 256.154C247.708 256.708 249.263 257.237 251.509 257.741C253.771 258.246 255.602 258.848 257.002 259.548C258.402 260.248 259.435 261.094 260.103 262.087C260.786 263.063 261.128 264.26 261.128 265.676C261.128 268.036 260.184 269.932 258.296 271.364C256.408 272.78 253.958 273.488 250.947 273.488C248.831 273.488 246.96 273.114 245.332 272.365C243.704 271.617 242.427 270.575 241.499 269.24C240.588 267.889 240.132 266.433 240.132 264.87H244.648C244.73 266.384 245.332 267.588 246.455 268.483C247.594 269.362 249.092 269.802 250.947 269.802C252.656 269.802 254.023 269.46 255.049 268.776C256.09 268.076 256.611 267.149 256.611 265.993ZM277.974 273.488C274.393 273.488 271.479 272.316 269.233 269.973C266.987 267.613 265.864 264.463 265.864 260.524V259.694C265.864 257.074 266.361 254.738 267.354 252.688C268.363 250.62 269.762 249.009 271.553 247.854C273.359 246.682 275.312 246.096 277.412 246.096C280.846 246.096 283.516 247.227 285.42 249.489C287.324 251.752 288.276 254.991 288.276 259.206V261.086H270.381C270.446 263.69 271.203 265.798 272.651 267.409C274.116 269.004 275.972 269.802 278.218 269.802C279.813 269.802 281.164 269.476 282.271 268.825C283.377 268.174 284.346 267.312 285.176 266.237L287.935 268.386C285.721 271.787 282.401 273.488 277.974 273.488ZM277.412 249.807C275.589 249.807 274.059 250.474 272.822 251.809C271.585 253.127 270.82 254.982 270.527 257.375H283.76V257.033C283.63 254.738 283.011 252.964 281.904 251.711C280.798 250.441 279.3 249.807 277.412 249.807Z" fill="white"/>
<path d="M116.018 302.307L117.102 291.672H128.029V294.177H119.401L118.757 299.992C119.802 299.377 120.988 299.069 122.316 299.069C124.26 299.069 125.803 299.714 126.945 301.003C128.088 302.282 128.659 304.016 128.659 306.203C128.659 308.4 128.063 310.134 126.872 311.403C125.69 312.663 124.035 313.293 121.906 313.293C120.021 313.293 118.483 312.771 117.292 311.726C116.101 310.681 115.422 309.235 115.256 307.39H117.819C117.985 308.61 118.42 309.533 119.123 310.158C119.826 310.773 120.754 311.081 121.906 311.081C123.166 311.081 124.152 310.651 124.865 309.792C125.588 308.933 125.949 307.746 125.949 306.232C125.949 304.807 125.559 303.664 124.777 302.805C124.006 301.936 122.976 301.501 121.687 301.501C120.505 301.501 119.577 301.76 118.903 302.277L118.186 302.863L116.018 302.307ZM143.059 305.837H146.018V308.049H143.059V313H140.334V308.049H130.622V306.452L140.173 291.672H143.059V305.837ZM133.698 305.837H140.334V295.378L140.012 295.964L133.698 305.837ZM148.801 311.579C148.801 311.11 148.938 310.72 149.211 310.407C149.494 310.095 149.914 309.938 150.471 309.938C151.027 309.938 151.447 310.095 151.73 310.407C152.023 310.72 152.17 311.11 152.17 311.579C152.17 312.028 152.023 312.404 151.73 312.707C151.447 313.01 151.027 313.161 150.471 313.161C149.914 313.161 149.494 313.01 149.211 312.707C148.938 312.404 148.801 312.028 148.801 311.579ZM166.76 303.625C166.193 304.299 165.515 304.841 164.724 305.251C163.942 305.661 163.083 305.866 162.146 305.866C160.915 305.866 159.841 305.563 158.923 304.958C158.015 304.353 157.312 303.503 156.813 302.409C156.315 301.306 156.066 300.09 156.066 298.762C156.066 297.336 156.335 296.052 156.872 294.909C157.419 293.767 158.19 292.893 159.187 292.287C160.183 291.682 161.345 291.379 162.673 291.379C164.782 291.379 166.442 292.17 167.653 293.752C168.874 295.324 169.484 297.473 169.484 300.197V300.988C169.484 305.139 168.664 308.171 167.023 310.085C165.383 311.989 162.907 312.966 159.597 313.015H159.069V310.729H159.641C161.877 310.69 163.596 310.109 164.797 308.986C165.998 307.854 166.652 306.066 166.76 303.625ZM162.585 303.625C163.493 303.625 164.328 303.347 165.09 302.79C165.861 302.233 166.423 301.545 166.774 300.725V299.641C166.774 297.863 166.389 296.418 165.617 295.305C164.846 294.191 163.869 293.635 162.688 293.635C161.496 293.635 160.539 294.094 159.816 295.012C159.094 295.92 158.732 297.121 158.732 298.615C158.732 300.07 159.079 301.271 159.772 302.219C160.476 303.156 161.413 303.625 162.585 303.625ZM177.16 301.018H179.196C180.476 300.998 181.481 300.661 182.214 300.007C182.946 299.353 183.312 298.469 183.312 297.355C183.312 294.855 182.067 293.605 179.577 293.605C178.405 293.605 177.468 293.942 176.765 294.616C176.071 295.28 175.725 296.164 175.725 297.268H173.015C173.015 295.578 173.63 294.177 174.86 293.063C176.101 291.94 177.673 291.379 179.577 291.379C181.589 291.379 183.166 291.911 184.309 292.976C185.451 294.04 186.022 295.52 186.022 297.414C186.022 298.342 185.72 299.24 185.114 300.109C184.519 300.979 183.703 301.628 182.668 302.058C183.84 302.429 184.743 303.044 185.378 303.903C186.022 304.763 186.345 305.812 186.345 307.053C186.345 308.967 185.72 310.485 184.47 311.608C183.22 312.731 181.594 313.293 179.592 313.293C177.59 313.293 175.959 312.751 174.699 311.667C173.449 310.583 172.824 309.152 172.824 307.375H175.549C175.549 308.498 175.915 309.396 176.647 310.07C177.38 310.744 178.361 311.081 179.592 311.081C180.9 311.081 181.901 310.739 182.595 310.056C183.288 309.372 183.635 308.391 183.635 307.111C183.635 305.871 183.254 304.919 182.492 304.255C181.73 303.591 180.632 303.249 179.196 303.229H177.16V301.018ZM203 297.238C203 298.303 202.717 299.25 202.15 300.08C201.594 300.91 200.837 301.56 199.88 302.028C200.993 302.507 201.872 303.205 202.517 304.123C203.171 305.041 203.498 306.081 203.498 307.243C203.498 309.089 202.873 310.559 201.623 311.652C200.383 312.746 198.747 313.293 196.716 313.293C194.665 313.293 193.02 312.746 191.779 311.652C190.549 310.549 189.934 309.079 189.934 307.243C189.934 306.091 190.246 305.051 190.871 304.123C191.506 303.195 192.38 302.492 193.493 302.014C192.546 301.545 191.799 300.896 191.252 300.065C190.705 299.235 190.432 298.293 190.432 297.238C190.432 295.441 191.008 294.016 192.16 292.961C193.312 291.906 194.831 291.379 196.716 291.379C198.591 291.379 200.104 291.906 201.257 292.961C202.419 294.016 203 295.441 203 297.238ZM200.788 307.185C200.788 305.993 200.407 305.021 199.646 304.27C198.894 303.518 197.907 303.142 196.687 303.142C195.466 303.142 194.484 303.513 193.742 304.255C193.01 304.997 192.644 305.974 192.644 307.185C192.644 308.396 193 309.348 193.713 310.041C194.436 310.734 195.437 311.081 196.716 311.081C197.985 311.081 198.981 310.734 199.704 310.041C200.427 309.338 200.788 308.386 200.788 307.185ZM196.716 293.605C195.651 293.605 194.787 293.938 194.123 294.602C193.469 295.256 193.142 296.149 193.142 297.282C193.142 298.366 193.464 299.245 194.108 299.919C194.763 300.583 195.632 300.915 196.716 300.915C197.8 300.915 198.664 300.583 199.309 299.919C199.963 299.245 200.29 298.366 200.29 297.282C200.29 296.198 199.953 295.314 199.279 294.631C198.605 293.947 197.751 293.605 196.716 293.605Z" fill="white"/>
</g>
<defs>
<filter id="filter0_d" x="0" y="0" width="332" height="346" filterUnits="userSpaceOnUse" color-interpolation-filters="sRGB">
<feFlood flood-opacity="0" result="BackgroundImageFix"/>
<feColorMatrix in="SourceAlpha" type="matrix" values="0 0 0 0 0 0 0 0 0 0 0 0 0 0 0 0 0 0 127 0" result="hardAlpha"/>
<feOffset dx="8" dy="9"/>
<feGaussianBlur stdDeviation="2"/>
<feComposite in2="hardAlpha" operator="out"/>
<feColorMatrix type="matrix" values="0 0 0 0 0 0 0 0 0 0 0 0 0 0 0 0 0 0 0.25 0"/>
<feBlend mode="normal" in2="BackgroundImageFix" result="effect1_dropShadow"/>
<feBlend mode="normal" in="SourceGraphic" in2="effect1_dropShadow" result="shape"/>
</filter>
<linearGradient id="paint0_linear" x1="160" y1="0" x2="160" y2="333" gradientUnits="userSpaceOnUse">
<stop stop-color="#007E58"/>
<stop offset="1" stop-color="#2F4D7A" stop-opacity="0.95"/>
</linearGradient>
</defs>
</svg>
