<svg width="332" height="346" viewBox="0 0 332 346" fill="none" xmlns="http://www.w3.org/2000/svg">
<g filter="url(#filter0_d_25:14)">
<rect width="320" height="333" fill="url(#paint0_linear_25:14)"/>
<path d="M38.6177 45.4492H42.563V48.3984H38.6177V55H34.9849V48.3984H22.0356V46.2695L34.77 26.5625H38.6177V45.4492ZM26.1372 45.4492H34.9849V31.5039L34.5552 32.2852L26.1372 45.4492ZM64.4575 55H45.8247V52.4023L55.6685 41.4648C57.1268 39.8112 58.1294 38.4701 58.6763 37.4414C59.2362 36.3997 59.5161 35.3255 59.5161 34.2188C59.5161 32.7344 59.0669 31.5169 58.1685 30.5664C57.27 29.6159 56.0721 29.1406 54.5747 29.1406C52.7778 29.1406 51.3781 29.6549 50.3755 30.6836C49.3859 31.6992 48.8911 33.1185 48.8911 34.9414H45.2778C45.2778 32.3242 46.1177 30.2083 47.7974 28.5938C49.4901 26.9792 51.7492 26.1719 54.5747 26.1719C57.2179 26.1719 59.3078 26.8685 60.8442 28.2617C62.3807 29.6419 63.1489 31.4844 63.1489 33.7891C63.1489 36.5885 61.3651 39.9219 57.7974 43.7891L50.1802 52.0508H64.4575V55ZM68.7349 53.1055C68.7349 52.4805 68.9172 51.9596 69.2817 51.543C69.6593 51.1263 70.2192 50.918 70.9614 50.918C71.7036 50.918 72.2635 51.1263 72.6411 51.543C73.0317 51.9596 73.2271 52.4805 73.2271 53.1055C73.2271 53.7044 73.0317 54.2057 72.6411 54.6094C72.2635 55.013 71.7036 55.2148 70.9614 55.2148C70.2192 55.2148 69.6593 55.013 69.2817 54.6094C68.9172 54.2057 68.7349 53.7044 68.7349 53.1055Z" fill="white"/>
<path d="M55.7227 74.8125L102.207 190.828L148.691 74.8125H173.008V217H154.258V161.629L156.016 101.863L109.336 217H94.9805L48.3984 102.156L50.2539 161.629V217H31.5039V74.8125H55.7227ZM198.496 163.191C198.496 152.84 200.514 143.53 204.551 135.262C208.652 126.993 214.316 120.613 221.543 116.121C228.835 111.629 237.135 109.383 246.445 109.383C260.833 109.383 272.454 114.363 281.309 124.324C290.228 134.285 294.688 147.534 294.688 164.07V165.34C294.688 175.626 292.702 184.871 288.73 193.074C284.824 201.212 279.193 207.56 271.836 212.117C264.544 216.674 256.146 218.953 246.641 218.953C232.318 218.953 220.697 213.973 211.777 204.012C202.923 194.051 198.496 180.867 198.496 164.461V163.191ZM216.66 165.34C216.66 177.059 219.362 186.466 224.766 193.562C230.234 200.659 237.526 204.207 246.641 204.207C255.82 204.207 263.112 200.626 268.516 193.465C273.919 186.238 276.621 176.147 276.621 163.191C276.621 151.603 273.854 142.228 268.32 135.066C262.852 127.84 255.56 124.227 246.445 124.227C237.526 124.227 230.332 127.775 224.863 134.871C219.395 141.967 216.66 152.124 216.66 165.34Z" fill="white"/>
<path d="M25.1807 237.453L36.8018 266.457L48.4229 237.453H54.502V273H49.8145V259.157L50.2539 244.216L38.584 273H34.9951L23.3496 244.289L23.8135 259.157V273H19.126V237.453H25.1807ZM60.874 259.548C60.874 256.96 61.3786 254.632 62.3877 252.565C63.4131 250.498 64.8291 248.903 66.6357 247.78C68.4587 246.657 70.5339 246.096 72.8613 246.096C76.4583 246.096 79.3636 247.341 81.5771 249.831C83.807 252.321 84.9219 255.633 84.9219 259.768V260.085C84.9219 262.657 84.4255 264.968 83.4326 267.019C82.4561 269.053 81.0482 270.64 79.209 271.779C77.3861 272.919 75.2865 273.488 72.9102 273.488C69.3294 273.488 66.4242 272.243 64.1943 269.753C61.9808 267.263 60.874 263.967 60.874 259.865V259.548ZM65.415 260.085C65.415 263.015 66.0905 265.367 67.4414 267.141C68.8086 268.915 70.6315 269.802 72.9102 269.802C75.2051 269.802 77.028 268.907 78.3789 267.116C79.7298 265.31 80.4053 262.787 80.4053 259.548C80.4053 256.651 79.7135 254.307 78.3301 252.517C76.9629 250.71 75.14 249.807 72.8613 249.807C70.6315 249.807 68.833 250.694 67.4658 252.468C66.0986 254.242 65.415 256.781 65.415 260.085ZM95.4932 273H90.9766V235.5H95.4932V273ZM111.387 266.384L117.539 246.584H122.373L111.753 277.077C110.109 281.472 107.497 283.669 103.916 283.669L103.062 283.596L101.377 283.278V279.616L102.598 279.714C104.128 279.714 105.316 279.405 106.162 278.786C107.025 278.168 107.733 277.036 108.286 275.393L109.287 272.707L99.8633 246.584H104.795L111.387 266.384ZM148.789 260.085C148.789 264.121 147.861 267.368 146.006 269.826C144.15 272.268 141.66 273.488 138.535 273.488C135.199 273.488 132.619 272.308 130.796 269.948L130.576 273H126.426V235.5H130.942V249.489C132.765 247.227 135.28 246.096 138.486 246.096C141.693 246.096 144.207 247.308 146.03 249.733C147.869 252.159 148.789 255.479 148.789 259.694V260.085ZM144.272 259.572C144.272 256.496 143.678 254.12 142.49 252.443C141.302 250.767 139.593 249.929 137.363 249.929C134.385 249.929 132.244 251.312 130.942 254.079V265.505C132.326 268.272 134.482 269.655 137.412 269.655C139.577 269.655 141.261 268.817 142.466 267.141C143.67 265.464 144.272 262.941 144.272 259.572ZM153.403 259.572C153.403 255.52 154.364 252.264 156.284 249.807C158.205 247.333 160.719 246.096 163.828 246.096C166.921 246.096 169.37 247.154 171.177 249.27V235.5H175.693V273H171.543L171.323 270.168C169.517 272.382 167.002 273.488 163.779 273.488C160.719 273.488 158.221 272.235 156.284 269.729C154.364 267.222 153.403 263.951 153.403 259.914V259.572ZM157.92 260.085C157.92 263.08 158.538 265.424 159.775 267.116C161.012 268.809 162.721 269.655 164.902 269.655C167.767 269.655 169.858 268.369 171.177 265.798V253.664C169.826 251.174 167.751 249.929 164.951 249.929C162.738 249.929 161.012 250.783 159.775 252.492C158.538 254.201 157.92 256.732 157.92 260.085ZM193.687 273.488C190.106 273.488 187.192 272.316 184.946 269.973C182.7 267.613 181.577 264.463 181.577 260.524V259.694C181.577 257.074 182.074 254.738 183.066 252.688C184.076 250.62 185.475 249.009 187.266 247.854C189.072 246.682 191.025 246.096 193.125 246.096C196.559 246.096 199.229 247.227 201.133 249.489C203.037 251.752 203.989 254.991 203.989 259.206V261.086H186.094C186.159 263.69 186.916 265.798 188.364 267.409C189.829 269.004 191.685 269.802 193.931 269.802C195.526 269.802 196.877 269.476 197.983 268.825C199.09 268.174 200.059 267.312 200.889 266.237L203.647 268.386C201.434 271.787 198.114 273.488 193.687 273.488ZM193.125 249.807C191.302 249.807 189.772 250.474 188.535 251.809C187.298 253.127 186.533 254.982 186.24 257.375H199.473V257.033C199.342 254.738 198.724 252.964 197.617 251.711C196.51 250.441 195.013 249.807 193.125 249.807ZM213.511 246.584L213.657 249.904C215.675 247.365 218.312 246.096 221.567 246.096C227.15 246.096 229.966 249.245 230.015 255.544V273H225.498V255.52C225.482 253.615 225.042 252.207 224.18 251.296C223.333 250.384 222.007 249.929 220.2 249.929C218.735 249.929 217.45 250.319 216.343 251.101C215.236 251.882 214.373 252.907 213.755 254.177V273H209.238V246.584H213.511ZM253.135 270.388C251.377 272.455 248.797 273.488 245.396 273.488C242.58 273.488 240.431 272.674 238.95 271.047C237.485 269.403 236.745 266.978 236.729 263.771V246.584H241.245V263.649C241.245 267.653 242.873 269.655 246.128 269.655C249.578 269.655 251.873 268.369 253.013 265.798V246.584H257.529V273H253.232L253.135 270.388ZM268.662 246.584L268.784 249.514C270.721 247.235 273.333 246.096 276.621 246.096C280.316 246.096 282.83 247.512 284.165 250.344C285.044 249.074 286.183 248.049 287.583 247.268C288.999 246.486 290.667 246.096 292.588 246.096C298.382 246.096 301.328 249.164 301.426 255.3V273H296.909V255.568C296.909 253.68 296.478 252.272 295.615 251.345C294.753 250.401 293.304 249.929 291.27 249.929C289.593 249.929 288.201 250.433 287.095 251.442C285.988 252.435 285.345 253.778 285.166 255.471V273H280.625V255.69C280.625 251.849 278.745 249.929 274.985 249.929C272.023 249.929 269.997 251.19 268.906 253.713V273H264.39V246.584H268.662Z" fill="white"/>
<path d="M126.158 303.625C125.592 304.299 124.913 304.841 124.122 305.251C123.341 305.661 122.481 305.866 121.544 305.866C120.313 305.866 119.239 305.563 118.321 304.958C117.413 304.353 116.71 303.503 116.212 302.409C115.714 301.306 115.465 300.09 115.465 298.762C115.465 297.336 115.733 296.052 116.271 294.909C116.817 293.767 117.589 292.893 118.585 292.287C119.581 291.682 120.743 291.379 122.071 291.379C124.181 291.379 125.841 292.17 127.052 293.752C128.272 295.324 128.883 297.473 128.883 300.197V300.988C128.883 305.139 128.062 308.171 126.422 310.085C124.781 311.989 122.306 312.966 118.995 313.015H118.468V310.729H119.039C121.275 310.69 122.994 310.109 124.195 308.986C125.396 307.854 126.051 306.066 126.158 303.625ZM121.983 303.625C122.892 303.625 123.727 303.347 124.488 302.79C125.26 302.233 125.821 301.545 126.173 300.725V299.641C126.173 297.863 125.787 296.418 125.016 295.305C124.244 294.191 123.268 293.635 122.086 293.635C120.895 293.635 119.938 294.094 119.215 295.012C118.492 295.92 118.131 297.121 118.131 298.615C118.131 300.07 118.478 301.271 119.171 302.219C119.874 303.156 120.812 303.625 121.983 303.625ZM133.863 302.307L134.947 291.672H145.875V294.177H137.247L136.603 299.992C137.647 299.377 138.834 299.069 140.162 299.069C142.105 299.069 143.648 299.714 144.791 301.003C145.934 302.282 146.505 304.016 146.505 306.203C146.505 308.4 145.909 310.134 144.718 311.403C143.536 312.663 141.881 313.293 139.752 313.293C137.867 313.293 136.329 312.771 135.138 311.726C133.946 310.681 133.268 309.235 133.102 307.39H135.665C135.831 308.61 136.266 309.533 136.969 310.158C137.672 310.773 138.6 311.081 139.752 311.081C141.012 311.081 141.998 310.651 142.711 309.792C143.434 308.933 143.795 307.746 143.795 306.232C143.795 304.807 143.404 303.664 142.623 302.805C141.852 301.936 140.821 301.501 139.532 301.501C138.351 301.501 137.423 301.76 136.749 302.277L136.031 302.863L133.863 302.307ZM149.801 311.579C149.801 311.11 149.938 310.72 150.211 310.407C150.494 310.095 150.914 309.938 151.471 309.938C152.027 309.938 152.447 310.095 152.73 310.407C153.023 310.72 153.17 311.11 153.17 311.579C153.17 312.028 153.023 312.404 152.73 312.707C152.447 313.01 152.027 313.161 151.471 313.161C150.914 313.161 150.494 313.01 150.211 312.707C149.938 312.404 149.801 312.028 149.801 311.579ZM167.76 303.625C167.193 304.299 166.515 304.841 165.724 305.251C164.942 305.661 164.083 305.866 163.146 305.866C161.915 305.866 160.841 305.563 159.923 304.958C159.015 304.353 158.312 303.503 157.813 302.409C157.315 301.306 157.066 300.09 157.066 298.762C157.066 297.336 157.335 296.052 157.872 294.909C158.419 293.767 159.19 292.893 160.187 292.287C161.183 291.682 162.345 291.379 163.673 291.379C165.782 291.379 167.442 292.17 168.653 293.752C169.874 295.324 170.484 297.473 170.484 300.197V300.988C170.484 305.139 169.664 308.171 168.023 310.085C166.383 311.989 163.907 312.966 160.597 313.015H160.069V310.729H160.641C162.877 310.69 164.596 310.109 165.797 308.986C166.998 307.854 167.652 306.066 167.76 303.625ZM163.585 303.625C164.493 303.625 165.328 303.347 166.09 302.79C166.861 302.233 167.423 301.545 167.774 300.725V299.641C167.774 297.863 167.389 296.418 166.617 295.305C165.846 294.191 164.869 293.635 163.688 293.635C162.496 293.635 161.539 294.094 160.816 295.012C160.094 295.92 159.732 297.121 159.732 298.615C159.732 300.07 160.079 301.271 160.772 302.219C161.476 303.156 162.413 303.625 163.585 303.625ZM175.465 302.307L176.549 291.672H187.477V294.177H178.849L178.204 299.992C179.249 299.377 180.436 299.069 181.764 299.069C183.707 299.069 185.25 299.714 186.393 301.003C187.535 302.282 188.106 304.016 188.106 306.203C188.106 308.4 187.511 310.134 186.319 311.403C185.138 312.663 183.482 313.293 181.354 313.293C179.469 313.293 177.931 312.771 176.739 311.726C175.548 310.681 174.869 309.235 174.703 307.39H177.267C177.433 308.61 177.867 309.533 178.57 310.158C179.273 310.773 180.201 311.081 181.354 311.081C182.613 311.081 183.6 310.651 184.312 309.792C185.035 308.933 185.396 307.746 185.396 306.232C185.396 304.807 185.006 303.664 184.225 302.805C183.453 301.936 182.423 301.501 181.134 301.501C179.952 301.501 179.024 301.76 178.351 302.277L177.633 302.863L175.465 302.307Z" fill="white"/>
</g>
<defs>
<filter id="filter0_d_25:14" x="0" y="0" width="332" height="346" filterUnits="userSpaceOnUse" color-interpolation-filters="sRGB">
<feFlood flood-opacity="0" result="BackgroundImageFix"/>
<feColorMatrix in="SourceAlpha" type="matrix" values="0 0 0 0 0 0 0 0 0 0 0 0 0 0 0 0 0 0 127 0" result="hardAlpha"/>
<feOffset dx="8" dy="9"/>
<feGaussianBlur stdDeviation="2"/>
<feComposite in2="hardAlpha" operator="out"/>
<feColorMatrix type="matrix" values="0 0 0 0 0 0 0 0 0 0 0 0 0 0 0 0 0 0 0.25 0"/>
<feBlend mode="normal" in2="BackgroundImageFix" result="effect1_dropShadow_25:14"/>
<feBlend mode="normal" in="SourceGraphic" in2="effect1_dropShadow_25:14" result="shape"/>
</filter>
<linearGradient id="paint0_linear_25:14" x1="160" y1="0" x2="160" y2="333" gradientUnits="userSpaceOnUse">
<stop stop-color="#007E58"/>
<stop offset="1" stop-color="#2F4D7A" stop-opacity="0.95"/>
</linearGradient>
</defs>
</svg>
