<svg width="332" height="346" viewBox="0 0 332 346" fill="none" xmlns="http://www.w3.org/2000/svg">
<g filter="url(#filter0_d_45:56)">
<rect width="320" height="333" fill="url(#paint0_linear_45:56)"/>
<path d="M35.2388 55H31.606V30.918L24.3208 33.5938V30.3125L34.6724 26.4258H35.2388V55ZM57.6997 55H54.0669V30.918L46.7817 33.5938V30.3125L57.1333 26.4258H57.6997V55ZM69.9458 40.7422L71.3911 26.5625H85.9614V29.9023H74.4575L73.5981 37.6562C74.9914 36.8359 76.5734 36.4258 78.3442 36.4258C80.9354 36.4258 82.9927 37.2852 84.5161 39.0039C86.0396 40.7096 86.8013 43.0208 86.8013 45.9375C86.8013 48.8672 86.007 51.1784 84.4185 52.8711C82.8429 54.5508 80.6359 55.3906 77.7974 55.3906C75.2843 55.3906 73.2336 54.694 71.645 53.3008C70.0565 51.9076 69.1515 49.9805 68.9302 47.5195H72.3481C72.5695 49.1471 73.1489 50.3776 74.0864 51.2109C75.0239 52.0312 76.2609 52.4414 77.7974 52.4414C79.4771 52.4414 80.7922 51.8685 81.7427 50.7227C82.7062 49.5768 83.188 47.9948 83.188 45.9766C83.188 44.0755 82.6672 42.5521 81.6255 41.4062C80.5968 40.2474 79.2231 39.668 77.5044 39.668C75.9289 39.668 74.6919 40.013 73.7935 40.7031L72.8364 41.4844L69.9458 40.7422ZM91.1958 53.1055C91.1958 52.4805 91.3781 51.9596 91.7427 51.543C92.1203 51.1263 92.6802 50.918 93.4224 50.918C94.1646 50.918 94.7244 51.1263 95.1021 51.543C95.4927 51.9596 95.688 52.4805 95.688 53.1055C95.688 53.7044 95.4927 54.2057 95.1021 54.6094C94.7244 55.013 94.1646 55.2148 93.4224 55.2148C92.6802 55.2148 92.1203 55.013 91.7427 54.6094C91.3781 54.2057 91.1958 53.7044 91.1958 53.1055Z" fill="white"/>
<path d="M60.7227 74.8125L107.207 190.828L153.691 74.8125H178.008V217H159.258V161.629L161.016 101.863L114.336 217H99.9805L53.3984 102.156L55.2539 161.629V217H36.5039V74.8125H60.7227ZM250.664 204.207C257.109 204.207 262.741 202.254 267.559 198.348C272.376 194.441 275.046 189.559 275.566 183.699H292.656C292.331 189.754 290.247 195.516 286.406 200.984C282.565 206.453 277.422 210.815 270.977 214.07C264.596 217.326 257.826 218.953 250.664 218.953C236.276 218.953 224.818 214.168 216.289 204.598C207.826 194.962 203.594 181.811 203.594 165.145V162.117C203.594 151.831 205.482 142.684 209.258 134.676C213.034 126.668 218.438 120.451 225.469 116.023C232.565 111.596 240.931 109.383 250.566 109.383C262.415 109.383 272.246 112.931 280.059 120.027C287.936 127.124 292.135 136.336 292.656 147.664H275.566C275.046 140.828 272.441 135.229 267.754 130.867C263.132 126.44 257.402 124.227 250.566 124.227C241.387 124.227 234.258 127.547 229.18 134.188C224.167 140.763 221.66 150.301 221.66 162.801V166.219C221.66 178.393 224.167 187.768 229.18 194.344C234.193 200.919 241.354 204.207 250.664 204.207Z" fill="white"/>
<path d="M39.1807 237.453L50.8018 266.457L62.4229 237.453H68.502V273H63.8145V259.157L64.2539 244.216L52.584 273H48.9951L37.3496 244.289L37.8135 259.157V273H33.126V237.453H39.1807ZM74.874 259.548C74.874 256.96 75.3786 254.632 76.3877 252.565C77.4131 250.498 78.8291 248.903 80.6357 247.78C82.4587 246.657 84.5339 246.096 86.8613 246.096C90.4583 246.096 93.3636 247.341 95.5771 249.831C97.807 252.321 98.9219 255.633 98.9219 259.768V260.085C98.9219 262.657 98.4255 264.968 97.4326 267.019C96.4561 269.053 95.0482 270.64 93.209 271.779C91.3861 272.919 89.2865 273.488 86.9102 273.488C83.3294 273.488 80.4242 272.243 78.1943 269.753C75.9808 267.263 74.874 263.967 74.874 259.865V259.548ZM79.415 260.085C79.415 263.015 80.0905 265.367 81.4414 267.141C82.8086 268.915 84.6315 269.802 86.9102 269.802C89.2051 269.802 91.028 268.907 92.3789 267.116C93.7298 265.31 94.4053 262.787 94.4053 259.548C94.4053 256.651 93.7135 254.307 92.3301 252.517C90.9629 250.71 89.14 249.807 86.8613 249.807C84.6315 249.807 82.833 250.694 81.4658 252.468C80.0986 254.242 79.415 256.781 79.415 260.085ZM119.967 265.993C119.967 264.772 119.503 263.828 118.575 263.161C117.664 262.478 116.061 261.892 113.766 261.403C111.487 260.915 109.672 260.329 108.321 259.646C106.987 258.962 105.994 258.148 105.343 257.204C104.708 256.26 104.391 255.137 104.391 253.835C104.391 251.67 105.302 249.839 107.125 248.342C108.964 246.844 111.308 246.096 114.156 246.096C117.151 246.096 119.576 246.869 121.432 248.415C123.303 249.961 124.239 251.939 124.239 254.348H119.698C119.698 253.111 119.169 252.045 118.111 251.149C117.07 250.254 115.751 249.807 114.156 249.807C112.512 249.807 111.227 250.165 110.299 250.881C109.371 251.597 108.907 252.533 108.907 253.688C108.907 254.779 109.339 255.601 110.201 256.154C111.064 256.708 112.618 257.237 114.864 257.741C117.127 258.246 118.958 258.848 120.357 259.548C121.757 260.248 122.791 261.094 123.458 262.087C124.142 263.063 124.483 264.26 124.483 265.676C124.483 268.036 123.539 269.932 121.651 271.364C119.763 272.78 117.314 273.488 114.303 273.488C112.187 273.488 110.315 273.114 108.688 272.365C107.06 271.617 105.782 270.575 104.854 269.24C103.943 267.889 103.487 266.433 103.487 264.87H108.004C108.085 266.384 108.688 267.588 109.811 268.483C110.95 269.362 112.447 269.802 114.303 269.802C116.012 269.802 117.379 269.46 118.404 268.776C119.446 268.076 119.967 267.149 119.967 265.993ZM140.963 269.802C142.574 269.802 143.982 269.313 145.187 268.337C146.391 267.36 147.058 266.14 147.188 264.675H151.461C151.38 266.188 150.859 267.629 149.898 268.996C148.938 270.363 147.652 271.454 146.041 272.268C144.446 273.081 142.753 273.488 140.963 273.488C137.366 273.488 134.501 272.292 132.369 269.899C130.253 267.491 129.195 264.203 129.195 260.036V259.279C129.195 256.708 129.667 254.421 130.611 252.419C131.555 250.417 132.906 248.863 134.664 247.756C136.438 246.649 138.53 246.096 140.938 246.096C143.901 246.096 146.358 246.983 148.312 248.757C150.281 250.531 151.331 252.834 151.461 255.666H147.188C147.058 253.957 146.407 252.557 145.235 251.467C144.08 250.36 142.647 249.807 140.938 249.807C138.644 249.807 136.861 250.637 135.592 252.297C134.339 253.941 133.712 256.325 133.712 259.45V260.305C133.712 263.348 134.339 265.692 135.592 267.336C136.845 268.98 138.635 269.802 140.963 269.802ZM155.343 259.548C155.343 256.96 155.847 254.632 156.856 252.565C157.882 250.498 159.298 248.903 161.104 247.78C162.927 246.657 165.003 246.096 167.33 246.096C170.927 246.096 173.832 247.341 176.046 249.831C178.276 252.321 179.391 255.633 179.391 259.768V260.085C179.391 262.657 178.894 264.968 177.901 267.019C176.925 269.053 175.517 270.64 173.678 271.779C171.855 272.919 169.755 273.488 167.379 273.488C163.798 273.488 160.893 272.243 158.663 269.753C156.45 267.263 155.343 263.967 155.343 259.865V259.548ZM159.884 260.085C159.884 263.015 160.559 265.367 161.91 267.141C163.277 268.915 165.1 269.802 167.379 269.802C169.674 269.802 171.497 268.907 172.848 267.116C174.199 265.31 174.874 262.787 174.874 259.548C174.874 256.651 174.182 254.307 172.799 252.517C171.432 250.71 169.609 249.807 167.33 249.807C165.1 249.807 163.302 250.694 161.935 252.468C160.567 254.242 159.884 256.781 159.884 260.085ZM193.38 266.872L199.923 246.584H204.537L195.064 273H191.622L182.052 246.584H186.666L193.38 266.872ZM213.79 273H209.273V246.584H213.79V273ZM208.907 239.577C208.907 238.845 209.127 238.226 209.566 237.722C210.022 237.217 210.689 236.965 211.568 236.965C212.447 236.965 213.115 237.217 213.57 237.722C214.026 238.226 214.254 238.845 214.254 239.577C214.254 240.31 214.026 240.92 213.57 241.408C213.115 241.896 212.447 242.141 211.568 242.141C210.689 242.141 210.022 241.896 209.566 241.408C209.127 240.92 208.907 240.31 208.907 239.577ZM237.35 270.388C235.592 272.455 233.012 273.488 229.61 273.488C226.795 273.488 224.646 272.674 223.165 271.047C221.7 269.403 220.96 266.978 220.943 263.771V246.584H225.46V263.649C225.46 267.653 227.088 269.655 230.343 269.655C233.793 269.655 236.088 268.369 237.228 265.798V246.584H241.744V273H237.447L237.35 270.388ZM252.877 246.584L252.999 249.514C254.936 247.235 257.548 246.096 260.836 246.096C264.531 246.096 267.045 247.512 268.38 250.344C269.259 249.074 270.398 248.049 271.798 247.268C273.214 246.486 274.882 246.096 276.803 246.096C282.597 246.096 285.543 249.164 285.641 255.3V273H281.124V255.568C281.124 253.68 280.693 252.272 279.83 251.345C278.967 250.401 277.519 249.929 275.484 249.929C273.808 249.929 272.416 250.433 271.31 251.442C270.203 252.435 269.56 253.778 269.381 255.471V273H264.84V255.69C264.84 251.849 262.96 249.929 259.2 249.929C256.238 249.929 254.212 251.19 253.121 253.713V273H248.604V246.584H252.877Z" fill="white"/>
<path d="M150.747 313H136.772V311.052L144.155 302.849C145.249 301.608 146.001 300.603 146.411 299.831C146.831 299.05 147.041 298.244 147.041 297.414C147.041 296.301 146.704 295.388 146.03 294.675C145.356 293.962 144.458 293.605 143.335 293.605C141.987 293.605 140.938 293.991 140.186 294.763C139.443 295.524 139.072 296.589 139.072 297.956H136.362C136.362 295.993 136.992 294.406 138.252 293.195C139.521 291.984 141.216 291.379 143.335 291.379C145.317 291.379 146.885 291.901 148.037 292.946C149.189 293.981 149.766 295.363 149.766 297.092C149.766 299.191 148.428 301.691 145.752 304.592L140.039 310.788H150.747V313ZM166.553 297.238C166.553 298.303 166.27 299.25 165.703 300.08C165.146 300.91 164.39 301.56 163.433 302.028C164.546 302.507 165.425 303.205 166.069 304.123C166.724 305.041 167.051 306.081 167.051 307.243C167.051 309.089 166.426 310.559 165.176 311.652C163.936 312.746 162.3 313.293 160.269 313.293C158.218 313.293 156.572 312.746 155.332 311.652C154.102 310.549 153.486 309.079 153.486 307.243C153.486 306.091 153.799 305.051 154.424 304.123C155.059 303.195 155.933 302.492 157.046 302.014C156.099 301.545 155.352 300.896 154.805 300.065C154.258 299.235 153.984 298.293 153.984 297.238C153.984 295.441 154.561 294.016 155.713 292.961C156.865 291.906 158.384 291.379 160.269 291.379C162.144 291.379 163.657 291.906 164.81 292.961C165.972 294.016 166.553 295.441 166.553 297.238ZM164.341 307.185C164.341 305.993 163.96 305.021 163.198 304.27C162.446 303.518 161.46 303.142 160.239 303.142C159.019 303.142 158.037 303.513 157.295 304.255C156.562 304.997 156.196 305.974 156.196 307.185C156.196 308.396 156.553 309.348 157.266 310.041C157.988 310.734 158.989 311.081 160.269 311.081C161.538 311.081 162.534 310.734 163.257 310.041C163.979 309.338 164.341 308.386 164.341 307.185ZM160.269 293.605C159.204 293.605 158.34 293.938 157.676 294.602C157.021 295.256 156.694 296.149 156.694 297.282C156.694 298.366 157.017 299.245 157.661 299.919C158.315 300.583 159.185 300.915 160.269 300.915C161.353 300.915 162.217 300.583 162.861 299.919C163.516 299.245 163.843 298.366 163.843 297.282C163.843 296.198 163.506 295.314 162.832 294.631C162.158 293.947 161.304 293.605 160.269 293.605ZM183.398 297.238C183.398 298.303 183.115 299.25 182.549 300.08C181.992 300.91 181.235 301.56 180.278 302.028C181.392 302.507 182.271 303.205 182.915 304.123C183.569 305.041 183.896 306.081 183.896 307.243C183.896 309.089 183.271 310.559 182.021 311.652C180.781 312.746 179.146 313.293 177.114 313.293C175.063 313.293 173.418 312.746 172.178 311.652C170.947 310.549 170.332 309.079 170.332 307.243C170.332 306.091 170.645 305.051 171.27 304.123C171.904 303.195 172.778 302.492 173.892 302.014C172.944 301.545 172.197 300.896 171.65 300.065C171.104 299.235 170.83 298.293 170.83 297.238C170.83 295.441 171.406 294.016 172.559 292.961C173.711 291.906 175.229 291.379 177.114 291.379C178.989 291.379 180.503 291.906 181.655 292.961C182.817 294.016 183.398 295.441 183.398 297.238ZM181.187 307.185C181.187 305.993 180.806 305.021 180.044 304.27C179.292 303.518 178.306 303.142 177.085 303.142C175.864 303.142 174.883 303.513 174.141 304.255C173.408 304.997 173.042 305.974 173.042 307.185C173.042 308.396 173.398 309.348 174.111 310.041C174.834 310.734 175.835 311.081 177.114 311.081C178.384 311.081 179.38 310.734 180.103 310.041C180.825 309.338 181.187 308.386 181.187 307.185ZM177.114 293.605C176.05 293.605 175.186 293.938 174.521 294.602C173.867 295.256 173.54 296.149 173.54 297.282C173.54 298.366 173.862 299.245 174.507 299.919C175.161 300.583 176.03 300.915 177.114 300.915C178.198 300.915 179.062 300.583 179.707 299.919C180.361 299.245 180.688 298.366 180.688 297.282C180.688 296.198 180.352 295.314 179.678 294.631C179.004 293.947 178.149 293.605 177.114 293.605Z" fill="white"/>
</g>
<defs>
<filter id="filter0_d_45:56" x="0" y="0" width="332" height="346" filterUnits="userSpaceOnUse" color-interpolation-filters="sRGB">
<feFlood flood-opacity="0" result="BackgroundImageFix"/>
<feColorMatrix in="SourceAlpha" type="matrix" values="0 0 0 0 0 0 0 0 0 0 0 0 0 0 0 0 0 0 127 0" result="hardAlpha"/>
<feOffset dx="8" dy="9"/>
<feGaussianBlur stdDeviation="2"/>
<feComposite in2="hardAlpha" operator="out"/>
<feColorMatrix type="matrix" values="0 0 0 0 0 0 0 0 0 0 0 0 0 0 0 0 0 0 0.25 0"/>
<feBlend mode="normal" in2="BackgroundImageFix" result="effect1_dropShadow_45:56"/>
<feBlend mode="normal" in="SourceGraphic" in2="effect1_dropShadow_45:56" result="shape"/>
</filter>
<linearGradient id="paint0_linear_45:56" x1="160" y1="0" x2="160" y2="333" gradientUnits="userSpaceOnUse">
<stop stop-color="#007E58"/>
<stop offset="1" stop-color="#2F4D7A" stop-opacity="0.95"/>
</linearGradient>
</defs>
</svg>
