<svg width="332" height="346" viewBox="0 0 332 346" fill="none" xmlns="http://www.w3.org/2000/svg">
<g filter="url(#filter0_d)">
<rect width="320" height="333" fill="url(#paint0_linear)"/>
<path d="M160.781 217H141.934L70.3516 107.43V217H51.5039V74.8125H70.3516L142.129 184.871V74.8125H160.781V217ZM235.098 218.953C220.775 218.953 209.121 214.266 200.137 204.891C191.152 195.451 186.66 182.853 186.66 167.098V163.777C186.66 153.296 188.646 143.953 192.617 135.75C196.654 127.482 202.253 121.036 209.414 116.414C216.641 111.727 224.453 109.383 232.852 109.383C246.589 109.383 257.266 113.908 264.883 122.957C272.5 132.007 276.309 144.962 276.309 161.824V169.344H204.727C204.987 179.76 208.014 188.191 213.809 194.637C219.668 201.017 227.09 204.207 236.074 204.207C242.454 204.207 247.858 202.905 252.285 200.301C256.712 197.697 260.586 194.246 263.906 189.949L274.941 198.543C266.087 212.15 252.806 218.953 235.098 218.953ZM232.852 124.227C225.56 124.227 219.44 126.896 214.492 132.234C209.544 137.508 206.484 144.93 205.312 154.5H258.242V153.133C257.721 143.953 255.247 136.857 250.82 131.844C246.393 126.766 240.404 124.227 232.852 124.227Z" fill="white"/>
<path d="M35.2388 55H31.606V30.918L24.3208 33.5938V30.3125L34.6724 26.4258H35.2388V55ZM63.6567 42.8711C63.6567 47.1029 62.9341 50.2474 61.4888 52.3047C60.0435 54.362 57.7843 55.3906 54.7114 55.3906C51.6776 55.3906 49.4315 54.388 47.9731 52.3828C46.5148 50.3646 45.7596 47.3568 45.7075 43.3594V38.5352C45.7075 34.3555 46.4302 31.25 47.8755 29.2188C49.3208 27.1875 51.5864 26.1719 54.6724 26.1719C57.7323 26.1719 59.9849 27.1549 61.4302 29.1211C62.8755 31.0742 63.6177 34.0951 63.6567 38.1836V42.8711ZM60.0435 37.9297C60.0435 34.8698 59.6138 32.6432 58.7544 31.25C57.895 29.8438 56.5343 29.1406 54.6724 29.1406C52.8234 29.1406 51.4757 29.8372 50.6294 31.2305C49.783 32.6237 49.3468 34.7656 49.3208 37.6562V43.4375C49.3208 46.5104 49.7635 48.7826 50.6489 50.2539C51.5474 51.7122 52.9015 52.4414 54.7114 52.4414C56.4953 52.4414 57.8169 51.7513 58.6763 50.3711C59.5487 48.9909 60.0044 46.8164 60.0435 43.8477V37.9297ZM68.7349 53.1055C68.7349 52.4805 68.9172 51.9596 69.2817 51.543C69.6593 51.1263 70.2192 50.918 70.9614 50.918C71.7036 50.918 72.2635 51.1263 72.6411 51.543C73.0317 51.9596 73.2271 52.4805 73.2271 53.1055C73.2271 53.7044 73.0317 54.2057 72.6411 54.6094C72.2635 55.013 71.7036 55.2148 70.9614 55.2148C70.2192 55.2148 69.6593 55.013 69.2817 54.6094C68.9172 54.2057 68.7349 53.7044 68.7349 53.1055Z" fill="white"/>
<path d="M131.445 273H126.733L108.838 245.607V273H104.126V237.453H108.838L126.782 264.968V237.453H131.445V273ZM150.024 273.488C146.444 273.488 143.53 272.316 141.284 269.973C139.038 267.613 137.915 264.463 137.915 260.524V259.694C137.915 257.074 138.411 254.738 139.404 252.688C140.413 250.62 141.813 249.009 143.604 247.854C145.41 246.682 147.363 246.096 149.463 246.096C152.897 246.096 155.566 247.227 157.471 249.489C159.375 251.752 160.327 254.991 160.327 259.206V261.086H142.432C142.497 263.69 143.254 265.798 144.702 267.409C146.167 269.004 148.022 269.802 150.269 269.802C151.864 269.802 153.215 269.476 154.321 268.825C155.428 268.174 156.396 267.312 157.227 266.237L159.985 268.386C157.772 271.787 154.451 273.488 150.024 273.488ZM149.463 249.807C147.64 249.807 146.11 250.474 144.873 251.809C143.636 253.127 142.871 254.982 142.578 257.375H155.811V257.033C155.68 254.738 155.062 252.964 153.955 251.711C152.848 250.441 151.351 249.807 149.463 249.807ZM164.38 259.548C164.38 256.96 164.884 254.632 165.894 252.565C166.919 250.498 168.335 248.903 170.142 247.78C171.965 246.657 174.04 246.096 176.367 246.096C179.964 246.096 182.869 247.341 185.083 249.831C187.313 252.321 188.428 255.633 188.428 259.768V260.085C188.428 262.657 187.931 264.968 186.938 267.019C185.962 269.053 184.554 270.64 182.715 271.779C180.892 272.919 178.792 273.488 176.416 273.488C172.835 273.488 169.93 272.243 167.7 269.753C165.487 267.263 164.38 263.967 164.38 259.865V259.548ZM168.921 260.085C168.921 263.015 169.596 265.367 170.947 267.141C172.314 268.915 174.137 269.802 176.416 269.802C178.711 269.802 180.534 268.907 181.885 267.116C183.236 265.31 183.911 262.787 183.911 259.548C183.911 256.651 183.219 254.307 181.836 252.517C180.469 250.71 178.646 249.807 176.367 249.807C174.137 249.807 172.339 250.694 170.972 252.468C169.604 254.242 168.921 256.781 168.921 260.085ZM198.364 246.584L198.511 249.904C200.529 247.365 203.166 246.096 206.421 246.096C212.004 246.096 214.819 249.245 214.868 255.544V273H210.352V255.52C210.335 253.615 209.896 252.207 209.033 251.296C208.187 250.384 206.86 249.929 205.054 249.929C203.589 249.929 202.303 250.319 201.196 251.101C200.09 251.882 199.227 252.907 198.608 254.177V273H194.092V246.584H198.364Z" fill="white"/>
<path d="M128.747 313H114.772V311.052L122.155 302.849C123.249 301.608 124.001 300.603 124.411 299.831C124.831 299.05 125.041 298.244 125.041 297.414C125.041 296.301 124.704 295.388 124.03 294.675C123.356 293.962 122.458 293.605 121.335 293.605C119.987 293.605 118.938 293.991 118.186 294.763C117.443 295.524 117.072 296.589 117.072 297.956H114.362C114.362 295.993 114.992 294.406 116.252 293.195C117.521 291.984 119.216 291.379 121.335 291.379C123.317 291.379 124.885 291.901 126.037 292.946C127.189 293.981 127.766 295.363 127.766 297.092C127.766 299.191 126.428 301.691 123.752 304.592L118.039 310.788H128.747V313ZM144.992 303.903C144.992 307.077 144.45 309.436 143.366 310.979C142.282 312.521 140.588 313.293 138.283 313.293C136.008 313.293 134.323 312.541 133.229 311.037C132.136 309.523 131.569 307.268 131.53 304.27V300.651C131.53 297.517 132.072 295.188 133.156 293.664C134.24 292.141 135.939 291.379 138.254 291.379C140.549 291.379 142.238 292.116 143.322 293.591C144.406 295.056 144.963 297.321 144.992 300.388V303.903ZM142.282 300.197C142.282 297.902 141.96 296.232 141.315 295.188C140.671 294.133 139.65 293.605 138.254 293.605C136.867 293.605 135.856 294.128 135.222 295.173C134.587 296.218 134.26 297.824 134.24 299.992V304.328C134.24 306.633 134.572 308.337 135.236 309.44C135.91 310.534 136.926 311.081 138.283 311.081C139.621 311.081 140.612 310.563 141.257 309.528C141.911 308.493 142.253 306.862 142.282 304.636V300.197ZM148.801 311.579C148.801 311.11 148.938 310.72 149.211 310.407C149.494 310.095 149.914 309.938 150.471 309.938C151.027 309.938 151.447 310.095 151.73 310.407C152.023 310.72 152.17 311.11 152.17 311.579C152.17 312.028 152.023 312.404 151.73 312.707C151.447 313.01 151.027 313.161 150.471 313.161C149.914 313.161 149.494 313.01 149.211 312.707C148.938 312.404 148.801 312.028 148.801 311.579ZM165.28 313H162.556V294.938L157.092 296.945V294.484L164.855 291.569H165.28V313ZM186.154 297.238C186.154 298.303 185.871 299.25 185.305 300.08C184.748 300.91 183.991 301.56 183.034 302.028C184.147 302.507 185.026 303.205 185.671 304.123C186.325 305.041 186.652 306.081 186.652 307.243C186.652 309.089 186.027 310.559 184.777 311.652C183.537 312.746 181.901 313.293 179.87 313.293C177.819 313.293 176.174 312.746 174.934 311.652C173.703 310.549 173.088 309.079 173.088 307.243C173.088 306.091 173.4 305.051 174.025 304.123C174.66 303.195 175.534 302.492 176.647 302.014C175.7 301.545 174.953 300.896 174.406 300.065C173.859 299.235 173.586 298.293 173.586 297.238C173.586 295.441 174.162 294.016 175.314 292.961C176.467 291.906 177.985 291.379 179.87 291.379C181.745 291.379 183.259 291.906 184.411 292.961C185.573 294.016 186.154 295.441 186.154 297.238ZM183.942 307.185C183.942 305.993 183.562 305.021 182.8 304.27C182.048 303.518 181.062 303.142 179.841 303.142C178.62 303.142 177.639 303.513 176.896 304.255C176.164 304.997 175.798 305.974 175.798 307.185C175.798 308.396 176.154 309.348 176.867 310.041C177.59 310.734 178.591 311.081 179.87 311.081C181.14 311.081 182.136 310.734 182.858 310.041C183.581 309.338 183.942 308.386 183.942 307.185ZM179.87 293.605C178.806 293.605 177.941 293.938 177.277 294.602C176.623 295.256 176.296 296.149 176.296 297.282C176.296 298.366 176.618 299.245 177.263 299.919C177.917 300.583 178.786 300.915 179.87 300.915C180.954 300.915 181.818 300.583 182.463 299.919C183.117 299.245 183.444 298.366 183.444 297.282C183.444 296.198 183.107 295.314 182.434 294.631C181.76 293.947 180.905 293.605 179.87 293.605ZM203.439 303.903C203.439 307.077 202.897 309.436 201.813 310.979C200.729 312.521 199.035 313.293 196.73 313.293C194.455 313.293 192.771 312.541 191.677 311.037C190.583 309.523 190.017 307.268 189.978 304.27V300.651C189.978 297.517 190.52 295.188 191.604 293.664C192.688 292.141 194.387 291.379 196.701 291.379C198.996 291.379 200.686 292.116 201.77 293.591C202.854 295.056 203.41 297.321 203.439 300.388V303.903ZM200.729 300.197C200.729 297.902 200.407 296.232 199.763 295.188C199.118 294.133 198.098 293.605 196.701 293.605C195.314 293.605 194.304 294.128 193.669 295.173C193.034 296.218 192.707 297.824 192.688 299.992V304.328C192.688 306.633 193.02 308.337 193.684 309.44C194.357 310.534 195.373 311.081 196.73 311.081C198.068 311.081 199.06 310.563 199.704 309.528C200.358 308.493 200.7 306.862 200.729 304.636V300.197Z" fill="white"/>
</g>
<defs>
<filter id="filter0_d" x="0" y="0" width="332" height="346" filterUnits="userSpaceOnUse" color-interpolation-filters="sRGB">
<feFlood flood-opacity="0" result="BackgroundImageFix"/>
<feColorMatrix in="SourceAlpha" type="matrix" values="0 0 0 0 0 0 0 0 0 0 0 0 0 0 0 0 0 0 127 0" result="hardAlpha"/>
<feOffset dx="8" dy="9"/>
<feGaussianBlur stdDeviation="2"/>
<feComposite in2="hardAlpha" operator="out"/>
<feColorMatrix type="matrix" values="0 0 0 0 0 0 0 0 0 0 0 0 0 0 0 0 0 0 0.25 0"/>
<feBlend mode="normal" in2="BackgroundImageFix" result="effect1_dropShadow"/>
<feBlend mode="normal" in="SourceGraphic" in2="effect1_dropShadow" result="shape"/>
</filter>
<linearGradient id="paint0_linear" x1="160" y1="0" x2="160" y2="333" gradientUnits="userSpaceOnUse">
<stop stop-color="#007E58"/>
<stop offset="1" stop-color="#2F4D7A" stop-opacity="0.95"/>
</linearGradient>
</defs>
</svg>
