<svg width="332" height="346" viewBox="0 0 332 346" fill="none" xmlns="http://www.w3.org/2000/svg">
<g filter="url(#filter0_d_25:8)">
<rect width="320" height="333" fill="url(#paint0_linear_25:8)"/>
<path d="M38.6177 45.4492H42.563V48.3984H38.6177V55H34.9849V48.3984H22.0356V46.2695L34.77 26.5625H38.6177V45.4492ZM26.1372 45.4492H34.9849V31.5039L34.5552 32.2852L26.1372 45.4492ZM57.6997 55H54.0669V30.918L46.7817 33.5938V30.3125L57.1333 26.4258H57.6997V55ZM68.7349 53.1055C68.7349 52.4805 68.9172 51.9596 69.2817 51.543C69.6593 51.1263 70.2192 50.918 70.9614 50.918C71.7036 50.918 72.2635 51.1263 72.6411 51.543C73.0317 51.9596 73.2271 52.4805 73.2271 53.1055C73.2271 53.7044 73.0317 54.2057 72.6411 54.6094C72.2635 55.013 71.7036 55.2148 70.9614 55.2148C70.2192 55.2148 69.6593 55.013 69.2817 54.6094C68.9172 54.2057 68.7349 53.7044 68.7349 53.1055Z" fill="white"/>
<path d="M158.781 217H139.934L68.3516 107.43V217H49.5039V74.8125H68.3516L140.129 184.871V74.8125H158.781V217ZM278.703 165.34C278.703 181.486 274.992 194.474 267.57 204.305C260.148 214.07 250.188 218.953 237.688 218.953C224.341 218.953 214.022 214.233 206.73 204.793L205.852 217H189.25V67H207.316V122.957C214.608 113.908 224.667 109.383 237.492 109.383C250.318 109.383 260.376 114.233 267.668 123.934C275.025 133.634 278.703 146.915 278.703 163.777V165.34ZM260.637 163.289C260.637 150.984 258.26 141.479 253.508 134.773C248.755 128.068 241.919 124.715 233 124.715C221.086 124.715 212.525 130.249 207.316 141.316V187.02C212.85 198.087 221.477 203.621 233.195 203.621C241.854 203.621 248.592 200.268 253.41 193.562C258.228 186.857 260.637 176.766 260.637 163.289Z" fill="white"/>
<path d="M97.4453 273H92.7334L74.8379 245.607V273H70.126V237.453H74.8379L92.7822 264.968V237.453H97.4453V273ZM109.97 273H105.453V246.584H109.97V273ZM105.087 239.577C105.087 238.845 105.307 238.226 105.746 237.722C106.202 237.217 106.869 236.965 107.748 236.965C108.627 236.965 109.294 237.217 109.75 237.722C110.206 238.226 110.434 238.845 110.434 239.577C110.434 240.31 110.206 240.92 109.75 241.408C109.294 241.896 108.627 242.141 107.748 242.141C106.869 242.141 106.202 241.896 105.746 241.408C105.307 240.92 105.087 240.31 105.087 239.577ZM116.024 259.548C116.024 256.96 116.529 254.632 117.538 252.565C118.563 250.498 119.979 248.903 121.786 247.78C123.609 246.657 125.684 246.096 128.012 246.096C131.609 246.096 134.514 247.341 136.728 249.831C138.957 252.321 140.072 255.633 140.072 259.768V260.085C140.072 262.657 139.576 264.968 138.583 267.019C137.606 269.053 136.199 270.64 134.359 271.779C132.536 272.919 130.437 273.488 128.061 273.488C124.48 273.488 121.575 272.243 119.345 269.753C117.131 267.263 116.024 263.967 116.024 259.865V259.548ZM120.565 260.085C120.565 263.015 121.241 265.367 122.592 267.141C123.959 268.915 125.782 269.802 128.061 269.802C130.355 269.802 132.178 268.907 133.529 267.116C134.88 265.31 135.556 262.787 135.556 259.548C135.556 256.651 134.864 254.307 133.48 252.517C132.113 250.71 130.29 249.807 128.012 249.807C125.782 249.807 123.983 250.694 122.616 252.468C121.249 254.242 120.565 256.781 120.565 260.085ZM168.1 260.085C168.1 264.121 167.172 267.368 165.316 269.826C163.461 272.268 160.971 273.488 157.846 273.488C154.509 273.488 151.929 272.308 150.106 269.948L149.887 273H145.736V235.5H150.253V249.489C152.076 247.227 154.59 246.096 157.797 246.096C161.003 246.096 163.518 247.308 165.341 249.733C167.18 252.159 168.1 255.479 168.1 259.694V260.085ZM163.583 259.572C163.583 256.496 162.989 254.12 161.801 252.443C160.613 250.767 158.904 249.929 156.674 249.929C153.695 249.929 151.555 251.312 150.253 254.079V265.505C151.636 268.272 153.793 269.655 156.723 269.655C158.887 269.655 160.572 268.817 161.776 267.141C162.981 265.464 163.583 262.941 163.583 259.572ZM178.72 273H174.203V246.584H178.72V273ZM173.837 239.577C173.837 238.845 174.057 238.226 174.496 237.722C174.952 237.217 175.619 236.965 176.498 236.965C177.377 236.965 178.044 237.217 178.5 237.722C178.956 238.226 179.184 238.845 179.184 239.577C179.184 240.31 178.956 240.92 178.5 241.408C178.044 241.896 177.377 242.141 176.498 242.141C175.619 242.141 174.952 241.896 174.496 241.408C174.057 240.92 173.837 240.31 173.837 239.577ZM202.279 270.388C200.521 272.455 197.942 273.488 194.54 273.488C191.724 273.488 189.576 272.674 188.095 271.047C186.63 269.403 185.889 266.978 185.873 263.771V246.584H190.39V263.649C190.39 267.653 192.017 269.655 195.272 269.655C198.723 269.655 201.018 268.369 202.157 265.798V246.584H206.674V273H202.377L202.279 270.388ZM217.807 246.584L217.929 249.514C219.866 247.235 222.478 246.096 225.766 246.096C229.46 246.096 231.975 247.512 233.31 250.344C234.188 249.074 235.328 248.049 236.728 247.268C238.144 246.486 239.812 246.096 241.732 246.096C247.527 246.096 250.473 249.164 250.57 255.3V273H246.054V255.568C246.054 253.68 245.622 252.272 244.76 251.345C243.897 250.401 242.449 249.929 240.414 249.929C238.738 249.929 237.346 250.433 236.239 251.442C235.132 252.435 234.49 253.778 234.311 255.471V273H229.77V255.69C229.77 251.849 227.89 249.929 224.13 249.929C221.168 249.929 219.141 251.19 218.051 253.713V273H213.534V246.584H217.807Z" fill="white"/>
<path d="M126.158 303.625C125.592 304.299 124.913 304.841 124.122 305.251C123.341 305.661 122.481 305.866 121.544 305.866C120.313 305.866 119.239 305.563 118.321 304.958C117.413 304.353 116.71 303.503 116.212 302.409C115.714 301.306 115.465 300.09 115.465 298.762C115.465 297.336 115.733 296.052 116.271 294.909C116.817 293.767 117.589 292.893 118.585 292.287C119.581 291.682 120.743 291.379 122.071 291.379C124.181 291.379 125.841 292.17 127.052 293.752C128.272 295.324 128.883 297.473 128.883 300.197V300.988C128.883 305.139 128.062 308.171 126.422 310.085C124.781 311.989 122.306 312.966 118.995 313.015H118.468V310.729H119.039C121.275 310.69 122.994 310.109 124.195 308.986C125.396 307.854 126.051 306.066 126.158 303.625ZM121.983 303.625C122.892 303.625 123.727 303.347 124.488 302.79C125.26 302.233 125.821 301.545 126.173 300.725V299.641C126.173 297.863 125.787 296.418 125.016 295.305C124.244 294.191 123.268 293.635 122.086 293.635C120.895 293.635 119.938 294.094 119.215 295.012C118.492 295.92 118.131 297.121 118.131 298.615C118.131 300.07 118.478 301.271 119.171 302.219C119.874 303.156 120.812 303.625 121.983 303.625ZM146.593 313H132.618V311.052L140.001 302.849C141.095 301.608 141.847 300.603 142.257 299.831C142.677 299.05 142.887 298.244 142.887 297.414C142.887 296.301 142.55 295.388 141.876 294.675C141.202 293.962 140.304 293.605 139.181 293.605C137.833 293.605 136.783 293.991 136.031 294.763C135.289 295.524 134.918 296.589 134.918 297.956H132.208C132.208 295.993 132.838 294.406 134.098 293.195C135.367 291.984 137.062 291.379 139.181 291.379C141.163 291.379 142.73 291.901 143.883 292.946C145.035 293.981 145.611 295.363 145.611 297.092C145.611 299.191 144.273 301.691 141.598 304.592L135.885 310.788H146.593V313ZM149.801 311.579C149.801 311.11 149.938 310.72 150.211 310.407C150.494 310.095 150.914 309.938 151.471 309.938C152.027 309.938 152.447 310.095 152.73 310.407C153.023 310.72 153.17 311.11 153.17 311.579C153.17 312.028 153.023 312.404 152.73 312.707C152.447 313.01 152.027 313.161 151.471 313.161C150.914 313.161 150.494 313.01 150.211 312.707C149.938 312.404 149.801 312.028 149.801 311.579ZM167.76 303.625C167.193 304.299 166.515 304.841 165.724 305.251C164.942 305.661 164.083 305.866 163.146 305.866C161.915 305.866 160.841 305.563 159.923 304.958C159.015 304.353 158.312 303.503 157.813 302.409C157.315 301.306 157.066 300.09 157.066 298.762C157.066 297.336 157.335 296.052 157.872 294.909C158.419 293.767 159.19 292.893 160.187 292.287C161.183 291.682 162.345 291.379 163.673 291.379C165.782 291.379 167.442 292.17 168.653 293.752C169.874 295.324 170.484 297.473 170.484 300.197V300.988C170.484 305.139 169.664 308.171 168.023 310.085C166.383 311.989 163.907 312.966 160.597 313.015H160.069V310.729H160.641C162.877 310.69 164.596 310.109 165.797 308.986C166.998 307.854 167.652 306.066 167.76 303.625ZM163.585 303.625C164.493 303.625 165.328 303.347 166.09 302.79C166.861 302.233 167.423 301.545 167.774 300.725V299.641C167.774 297.863 167.389 296.418 166.617 295.305C165.846 294.191 164.869 293.635 163.688 293.635C162.496 293.635 161.539 294.094 160.816 295.012C160.094 295.92 159.732 297.121 159.732 298.615C159.732 300.07 160.079 301.271 160.772 302.219C161.476 303.156 162.413 303.625 163.585 303.625ZM187.594 303.903C187.594 307.077 187.052 309.436 185.968 310.979C184.884 312.521 183.189 313.293 180.885 313.293C178.609 313.293 176.925 312.541 175.831 311.037C174.737 309.523 174.171 307.268 174.132 304.27V300.651C174.132 297.517 174.674 295.188 175.758 293.664C176.842 292.141 178.541 291.379 180.855 291.379C183.15 291.379 184.84 292.116 185.924 293.591C187.008 295.056 187.564 297.321 187.594 300.388V303.903ZM184.884 300.197C184.884 297.902 184.562 296.232 183.917 295.188C183.272 294.133 182.252 293.605 180.855 293.605C179.469 293.605 178.458 294.128 177.823 295.173C177.188 296.218 176.861 297.824 176.842 299.992V304.328C176.842 306.633 177.174 308.337 177.838 309.44C178.512 310.534 179.527 311.081 180.885 311.081C182.223 311.081 183.214 310.563 183.858 309.528C184.513 308.493 184.854 306.862 184.884 304.636V300.197ZM201.7 291.657V293.957H201.202C199.093 293.996 197.413 294.621 196.163 295.832C194.913 297.043 194.19 298.747 193.995 300.944C195.118 299.655 196.651 299.011 198.595 299.011C200.45 299.011 201.93 299.665 203.033 300.974C204.146 302.282 204.703 303.972 204.703 306.042C204.703 308.239 204.103 309.997 202.901 311.315C201.71 312.634 200.108 313.293 198.097 313.293C196.056 313.293 194.4 312.512 193.131 310.949C191.861 309.377 191.227 307.355 191.227 304.885V303.845C191.227 299.919 192.062 296.921 193.731 294.851C195.411 292.771 197.906 291.706 201.217 291.657H201.7ZM198.141 301.267C197.213 301.267 196.358 301.545 195.577 302.102C194.796 302.658 194.254 303.356 193.951 304.196V305.192C193.951 306.95 194.347 308.366 195.138 309.44C195.929 310.515 196.915 311.052 198.097 311.052C199.317 311.052 200.274 310.603 200.968 309.704C201.671 308.806 202.022 307.629 202.022 306.174C202.022 304.709 201.666 303.527 200.953 302.629C200.25 301.721 199.312 301.267 198.141 301.267Z" fill="white"/>
</g>
<defs>
<filter id="filter0_d_25:8" x="0" y="0" width="332" height="346" filterUnits="userSpaceOnUse" color-interpolation-filters="sRGB">
<feFlood flood-opacity="0" result="BackgroundImageFix"/>
<feColorMatrix in="SourceAlpha" type="matrix" values="0 0 0 0 0 0 0 0 0 0 0 0 0 0 0 0 0 0 127 0" result="hardAlpha"/>
<feOffset dx="8" dy="9"/>
<feGaussianBlur stdDeviation="2"/>
<feComposite in2="hardAlpha" operator="out"/>
<feColorMatrix type="matrix" values="0 0 0 0 0 0 0 0 0 0 0 0 0 0 0 0 0 0 0.25 0"/>
<feBlend mode="normal" in2="BackgroundImageFix" result="effect1_dropShadow_25:8"/>
<feBlend mode="normal" in="SourceGraphic" in2="effect1_dropShadow_25:8" result="shape"/>
</filter>
<linearGradient id="paint0_linear_25:8" x1="160" y1="0" x2="160" y2="333" gradientUnits="userSpaceOnUse">
<stop stop-color="#007E58"/>
<stop offset="1" stop-color="#2F4D7A" stop-opacity="0.95"/>
</linearGradient>
</defs>
</svg>
