<svg width="332" height="346" viewBox="0 0 332 346" fill="none" xmlns="http://www.w3.org/2000/svg">
<g filter="url(#filter0_d)">
<rect width="320" height="333" fill="url(#paint0_linear)"/>
<path d="M213.781 217H194.934L123.352 107.43V217H104.504V74.8125H123.352L195.129 184.871V74.8125H213.781V217Z" fill="white"/>
<path d="M41.7231 28.5938L29.9458 55H26.1567L37.895 29.5312H22.5044V26.5625H41.7231V28.5938ZM46.2739 53.1055C46.2739 52.4805 46.4562 51.9596 46.8208 51.543C47.1984 51.1263 47.7583 50.918 48.5005 50.918C49.2427 50.918 49.8026 51.1263 50.1802 51.543C50.5708 51.9596 50.7661 52.4805 50.7661 53.1055C50.7661 53.7044 50.5708 54.2057 50.1802 54.6094C49.8026 55.013 49.2427 55.2148 48.5005 55.2148C47.7583 55.2148 47.1984 55.013 46.8208 54.6094C46.4562 54.2057 46.2739 53.7044 46.2739 53.1055Z" fill="white"/>
<path d="M95.4453 273H90.7334L72.8379 245.607V273H68.126V237.453H72.8379L90.7822 264.968V237.453H95.4453V273ZM107.97 273H103.453V246.584H107.97V273ZM103.087 239.577C103.087 238.845 103.307 238.226 103.746 237.722C104.202 237.217 104.869 236.965 105.748 236.965C106.627 236.965 107.294 237.217 107.75 237.722C108.206 238.226 108.434 238.845 108.434 239.577C108.434 240.31 108.206 240.92 107.75 241.408C107.294 241.896 106.627 242.141 105.748 242.141C104.869 242.141 104.202 241.896 103.746 241.408C103.307 240.92 103.087 240.31 103.087 239.577ZM121.349 240.188V246.584H126.28V250.075H121.349V266.457C121.349 267.515 121.568 268.312 122.008 268.85C122.447 269.37 123.196 269.631 124.254 269.631C124.775 269.631 125.491 269.533 126.402 269.338V273C125.214 273.326 124.059 273.488 122.936 273.488C120.917 273.488 119.396 272.878 118.37 271.657C117.345 270.437 116.832 268.703 116.832 266.457V250.075H112.022V246.584H116.832V240.188H121.349ZM144.347 250.637C143.663 250.523 142.923 250.466 142.125 250.466C139.163 250.466 137.153 251.727 136.095 254.25V273H131.578V246.584H135.973L136.046 249.636C137.527 247.276 139.627 246.096 142.345 246.096C143.224 246.096 143.891 246.21 144.347 246.438V250.637ZM146.837 259.548C146.837 256.96 147.341 254.632 148.351 252.565C149.376 250.498 150.792 248.903 152.599 247.78C154.422 246.657 156.497 246.096 158.824 246.096C162.421 246.096 165.326 247.341 167.54 249.831C169.77 252.321 170.885 255.633 170.885 259.768V260.085C170.885 262.657 170.388 264.968 169.396 267.019C168.419 269.053 167.011 270.64 165.172 271.779C163.349 272.919 161.249 273.488 158.873 273.488C155.292 273.488 152.387 272.243 150.157 269.753C147.944 267.263 146.837 263.967 146.837 259.865V259.548ZM151.378 260.085C151.378 263.015 152.053 265.367 153.404 267.141C154.771 268.915 156.594 269.802 158.873 269.802C161.168 269.802 162.991 268.907 164.342 267.116C165.693 265.31 166.368 262.787 166.368 259.548C166.368 256.651 165.676 254.307 164.293 252.517C162.926 250.71 161.103 249.807 158.824 249.807C156.594 249.807 154.796 250.694 153.429 252.468C152.062 254.242 151.378 256.781 151.378 260.085ZM175.475 259.572C175.475 255.454 176.427 252.183 178.331 249.758C180.235 247.316 182.758 246.096 185.899 246.096C189.122 246.096 191.637 247.235 193.443 249.514L193.663 246.584H197.789V272.365C197.789 275.783 196.772 278.477 194.737 280.446C192.719 282.416 190.001 283.4 186.583 283.4C184.679 283.4 182.815 282.993 180.992 282.18C179.169 281.366 177.778 280.251 176.817 278.835L179.161 276.125C181.098 278.518 183.466 279.714 186.266 279.714C188.463 279.714 190.172 279.095 191.393 277.858C192.63 276.621 193.248 274.88 193.248 272.634V270.363C191.441 272.447 188.976 273.488 185.851 273.488C182.758 273.488 180.252 272.243 178.331 269.753C176.427 267.263 175.475 263.869 175.475 259.572ZM180.016 260.085C180.016 263.063 180.626 265.407 181.847 267.116C183.067 268.809 184.776 269.655 186.974 269.655C189.822 269.655 191.913 268.361 193.248 265.773V253.713C191.865 251.19 189.789 249.929 187.022 249.929C184.825 249.929 183.108 250.783 181.871 252.492C180.634 254.201 180.016 256.732 180.016 260.085ZM215.587 273.488C212.006 273.488 209.093 272.316 206.847 269.973C204.601 267.613 203.478 264.463 203.478 260.524V259.694C203.478 257.074 203.974 254.738 204.967 252.688C205.976 250.62 207.376 249.009 209.166 247.854C210.973 246.682 212.926 246.096 215.025 246.096C218.46 246.096 221.129 247.227 223.033 249.489C224.938 251.752 225.89 254.991 225.89 259.206V261.086H207.994C208.059 263.69 208.816 265.798 210.265 267.409C211.729 269.004 213.585 269.802 215.831 269.802C217.426 269.802 218.777 269.476 219.884 268.825C220.991 268.174 221.959 267.312 222.789 266.237L225.548 268.386C223.334 271.787 220.014 273.488 215.587 273.488ZM215.025 249.807C213.202 249.807 211.673 250.474 210.436 251.809C209.199 253.127 208.434 254.982 208.141 257.375H221.373V257.033C221.243 254.738 220.624 252.964 219.518 251.711C218.411 250.441 216.913 249.807 215.025 249.807ZM235.411 246.584L235.558 249.904C237.576 247.365 240.213 246.096 243.468 246.096C249.05 246.096 251.866 249.245 251.915 255.544V273H247.398V255.52C247.382 253.615 246.943 252.207 246.08 251.296C245.234 250.384 243.907 249.929 242.101 249.929C240.636 249.929 239.35 250.319 238.243 251.101C237.136 251.882 236.274 252.907 235.655 254.177V273H231.139V246.584H235.411Z" fill="white"/>
<path d="M123.679 313H120.954V294.938L115.49 296.945V294.484L123.254 291.569H123.679V313ZM143.059 305.837H146.018V308.049H143.059V313H140.334V308.049H130.622V306.452L140.173 291.672H143.059V305.837ZM133.698 305.837H140.334V295.378L140.012 295.964L133.698 305.837ZM148.801 311.579C148.801 311.11 148.938 310.72 149.211 310.407C149.494 310.095 149.914 309.938 150.471 309.938C151.027 309.938 151.447 310.095 151.73 310.407C152.023 310.72 152.17 311.11 152.17 311.579C152.17 312.028 152.023 312.404 151.73 312.707C151.447 313.01 151.027 313.161 150.471 313.161C149.914 313.161 149.494 313.01 149.211 312.707C148.938 312.404 148.801 312.028 148.801 311.579ZM169.748 303.903C169.748 307.077 169.206 309.436 168.122 310.979C167.038 312.521 165.344 313.293 163.039 313.293C160.764 313.293 159.079 312.541 157.985 311.037C156.892 309.523 156.325 307.268 156.286 304.27V300.651C156.286 297.517 156.828 295.188 157.912 293.664C158.996 292.141 160.695 291.379 163.01 291.379C165.305 291.379 166.994 292.116 168.078 293.591C169.162 295.056 169.719 297.321 169.748 300.388V303.903ZM167.038 300.197C167.038 297.902 166.716 296.232 166.071 295.188C165.427 294.133 164.406 293.605 163.01 293.605C161.623 293.605 160.612 294.128 159.978 295.173C159.343 296.218 159.016 297.824 158.996 299.992V304.328C158.996 306.633 159.328 308.337 159.992 309.44C160.666 310.534 161.682 311.081 163.039 311.081C164.377 311.081 165.368 310.563 166.013 309.528C166.667 308.493 167.009 306.862 167.038 304.636V300.197ZM186.594 303.903C186.594 307.077 186.052 309.436 184.968 310.979C183.884 312.521 182.189 313.293 179.885 313.293C177.609 313.293 175.925 312.541 174.831 311.037C173.737 309.523 173.171 307.268 173.132 304.27V300.651C173.132 297.517 173.674 295.188 174.758 293.664C175.842 292.141 177.541 291.379 179.855 291.379C182.15 291.379 183.84 292.116 184.924 293.591C186.008 295.056 186.564 297.321 186.594 300.388V303.903ZM183.884 300.197C183.884 297.902 183.562 296.232 182.917 295.188C182.272 294.133 181.252 293.605 179.855 293.605C178.469 293.605 177.458 294.128 176.823 295.173C176.188 296.218 175.861 297.824 175.842 299.992V304.328C175.842 306.633 176.174 308.337 176.838 309.44C177.512 310.534 178.527 311.081 179.885 311.081C181.223 311.081 182.214 310.563 182.858 309.528C183.513 308.493 183.854 306.862 183.884 304.636V300.197ZM203.835 293.195L195.002 313H192.16L200.964 293.898H189.421V291.672H203.835V293.195Z" fill="white"/>
</g>
<defs>
<filter id="filter0_d" x="0" y="0" width="332" height="346" filterUnits="userSpaceOnUse" color-interpolation-filters="sRGB">
<feFlood flood-opacity="0" result="BackgroundImageFix"/>
<feColorMatrix in="SourceAlpha" type="matrix" values="0 0 0 0 0 0 0 0 0 0 0 0 0 0 0 0 0 0 127 0" result="hardAlpha"/>
<feOffset dx="8" dy="9"/>
<feGaussianBlur stdDeviation="2"/>
<feComposite in2="hardAlpha" operator="out"/>
<feColorMatrix type="matrix" values="0 0 0 0 0 0 0 0 0 0 0 0 0 0 0 0 0 0 0.25 0"/>
<feBlend mode="normal" in2="BackgroundImageFix" result="effect1_dropShadow"/>
<feBlend mode="normal" in="SourceGraphic" in2="effect1_dropShadow" result="shape"/>
</filter>
<linearGradient id="paint0_linear" x1="160" y1="0" x2="160" y2="333" gradientUnits="userSpaceOnUse">
<stop stop-color="#007E58"/>
<stop offset="1" stop-color="#2F4D7A" stop-opacity="0.95"/>
</linearGradient>
</defs>
</svg>
