<svg width="332" height="346" viewBox="0 0 332 346" fill="none" xmlns="http://www.w3.org/2000/svg">
<g filter="url(#filter0_d_40:38)">
<rect width="320" height="333" fill="url(#paint0_linear_40:38)"/>
<path d="M41.7227 28.5938L29.9453 55H26.1562L37.8945 29.5312H22.5039V26.5625H41.7227V28.5938ZM60.0039 26.543V29.6094H59.3398C56.5273 29.6615 54.2878 30.4948 52.6211 32.1094C50.9544 33.724 49.9909 35.9961 49.7305 38.9258C51.2279 37.207 53.2721 36.3477 55.8633 36.3477C58.3372 36.3477 60.3099 37.2201 61.7812 38.9648C63.2656 40.7096 64.0078 42.9622 64.0078 45.7227C64.0078 48.6523 63.207 50.9961 61.6055 52.7539C60.0169 54.5117 57.8815 55.3906 55.1992 55.3906C52.4779 55.3906 50.2708 54.349 48.5781 52.2656C46.8854 50.1693 46.0391 47.474 46.0391 44.1797V42.793C46.0391 37.5586 47.1523 33.5612 49.3789 30.8008C51.6185 28.0273 54.9453 26.6081 59.3594 26.543H60.0039ZM55.2578 39.3555C54.0208 39.3555 52.8815 39.7266 51.8398 40.4688C50.7982 41.2109 50.0755 42.1419 49.6719 43.2617V44.5898C49.6719 46.9336 50.1992 48.8216 51.2539 50.2539C52.3086 51.6862 53.6237 52.4023 55.1992 52.4023C56.8268 52.4023 58.1029 51.8034 59.0273 50.6055C59.9648 49.4076 60.4336 47.8385 60.4336 45.8984C60.4336 43.9453 59.9583 42.3698 59.0078 41.1719C58.0703 39.9609 56.8203 39.3555 55.2578 39.3555ZM68.7344 53.1055C68.7344 52.4805 68.9167 51.9596 69.2812 51.543C69.6589 51.1263 70.2188 50.918 70.9609 50.918C71.7031 50.918 72.263 51.1263 72.6406 51.543C73.0312 51.9596 73.2266 52.4805 73.2266 53.1055C73.2266 53.7044 73.0312 54.2057 72.6406 54.6094C72.263 55.013 71.7031 55.2148 70.9609 55.2148C70.2188 55.2148 69.6589 55.013 69.2812 54.6094C68.9167 54.2057 68.7344 53.7044 68.7344 53.1055Z" fill="white"/>
<path d="M164.879 150.496C164.879 164.428 162.535 176.603 157.848 187.02C153.16 197.371 146.52 205.281 137.926 210.75C129.332 216.219 119.306 218.953 107.848 218.953C96.6497 218.953 86.7214 216.219 78.0625 210.75C69.4036 205.216 62.6654 197.371 57.8477 187.215C53.0951 176.993 50.6536 165.177 50.5234 151.766V141.512C50.5234 127.84 52.8997 115.763 57.6523 105.281C62.4049 94.7995 69.1107 86.7917 77.7695 81.2578C86.4935 75.6589 96.4544 72.8594 107.652 72.8594C119.046 72.8594 129.072 75.6263 137.73 81.1602C146.454 86.6289 153.16 94.6042 157.848 105.086C162.535 115.503 164.879 127.645 164.879 141.512V150.496ZM146.227 141.316C146.227 124.454 142.841 111.531 136.07 102.547C129.299 93.4974 119.827 88.9727 107.652 88.9727C95.8034 88.9727 86.4609 93.4974 79.625 102.547C72.8542 111.531 69.3711 124.031 69.1758 140.047V150.496C69.1758 166.837 72.5938 179.695 79.4297 189.07C86.3307 198.38 95.8034 203.035 107.848 203.035C119.957 203.035 129.332 198.641 135.973 189.852C142.613 180.997 146.031 168.335 146.227 151.863V141.316ZM251.695 188.973C251.695 184.09 249.84 180.314 246.129 177.645C242.483 174.91 236.07 172.566 226.891 170.613C217.776 168.66 210.517 166.316 205.113 163.582C199.775 160.848 195.803 157.592 193.199 153.816C190.66 150.04 189.391 145.548 189.391 140.34C189.391 131.681 193.036 124.357 200.328 118.367C207.685 112.378 217.06 109.383 228.453 109.383C240.432 109.383 250.133 112.475 257.555 118.66C265.042 124.845 268.785 132.755 268.785 142.391H250.621C250.621 137.443 248.505 133.178 244.273 129.598C240.107 126.017 234.833 124.227 228.453 124.227C221.878 124.227 216.734 125.659 213.023 128.523C209.312 131.388 207.457 135.132 207.457 139.754C207.457 144.116 209.182 147.404 212.633 149.617C216.083 151.831 222.301 153.947 231.285 155.965C240.335 157.983 247.659 160.392 253.258 163.191C258.857 165.991 262.991 169.376 265.66 173.348C268.395 177.254 269.762 182.039 269.762 187.703C269.762 197.143 265.986 204.728 258.434 210.457C250.882 216.121 241.083 218.953 229.039 218.953C220.576 218.953 213.089 217.456 206.578 214.461C200.068 211.466 194.957 207.299 191.246 201.961C187.6 196.557 185.777 190.73 185.777 184.48H203.844C204.169 190.535 206.578 195.353 211.07 198.934C215.628 202.449 221.617 204.207 229.039 204.207C235.875 204.207 241.344 202.84 245.445 200.105C249.612 197.306 251.695 193.595 251.695 188.973Z" fill="white"/>
<path d="M97.4697 256.374C97.4697 259.857 96.8838 262.901 95.7119 265.505C94.54 268.093 92.8799 270.07 90.7314 271.438C88.583 272.805 86.0765 273.488 83.2119 273.488C80.4124 273.488 77.9303 272.805 75.7656 271.438C73.6009 270.054 71.9163 268.093 70.7119 265.554C69.5238 262.998 68.9134 260.044 68.8809 256.691V254.128C68.8809 250.71 69.4749 247.691 70.6631 245.07C71.8512 242.45 73.5277 240.448 75.6924 239.064C77.8734 237.665 80.3636 236.965 83.1631 236.965C86.0114 236.965 88.5179 237.657 90.6826 239.04C92.8636 240.407 94.54 242.401 95.7119 245.021C96.8838 247.626 97.4697 250.661 97.4697 254.128V256.374ZM92.8066 254.079C92.8066 249.864 91.9603 246.633 90.2676 244.387C88.5749 242.124 86.2067 240.993 83.1631 240.993C80.2008 240.993 77.8652 242.124 76.1562 244.387C74.4635 246.633 73.5928 249.758 73.5439 253.762V256.374C73.5439 260.459 74.3984 263.674 76.1074 266.018C77.8327 268.345 80.2008 269.509 83.2119 269.509C86.2393 269.509 88.583 268.41 90.2432 266.213C91.9033 263.999 92.7578 260.834 92.8066 256.716V254.079ZM119.174 265.993C119.174 264.772 118.71 263.828 117.782 263.161C116.871 262.478 115.268 261.892 112.973 261.403C110.694 260.915 108.879 260.329 107.528 259.646C106.194 258.962 105.201 258.148 104.55 257.204C103.915 256.26 103.598 255.137 103.598 253.835C103.598 251.67 104.509 249.839 106.332 248.342C108.171 246.844 110.515 246.096 113.363 246.096C116.358 246.096 118.783 246.869 120.639 248.415C122.51 249.961 123.446 251.939 123.446 254.348H118.905C118.905 253.111 118.376 252.045 117.318 251.149C116.277 250.254 114.958 249.807 113.363 249.807C111.719 249.807 110.434 250.165 109.506 250.881C108.578 251.597 108.114 252.533 108.114 253.688C108.114 254.779 108.546 255.601 109.408 256.154C110.271 256.708 111.825 257.237 114.071 257.741C116.334 258.246 118.165 258.848 119.564 259.548C120.964 260.248 121.998 261.094 122.665 262.087C123.349 263.063 123.69 264.26 123.69 265.676C123.69 268.036 122.746 269.932 120.858 271.364C118.97 272.78 116.521 273.488 113.51 273.488C111.394 273.488 109.522 273.114 107.895 272.365C106.267 271.617 104.989 270.575 104.062 269.24C103.15 267.889 102.694 266.433 102.694 264.87H107.211C107.292 266.384 107.895 267.588 109.018 268.483C110.157 269.362 111.654 269.802 113.51 269.802C115.219 269.802 116.586 269.46 117.611 268.776C118.653 268.076 119.174 267.149 119.174 265.993ZM133.822 246.584L133.944 249.514C135.881 247.235 138.493 246.096 141.781 246.096C145.476 246.096 147.991 247.512 149.325 250.344C150.204 249.074 151.343 248.049 152.743 247.268C154.159 246.486 155.827 246.096 157.748 246.096C163.542 246.096 166.488 249.164 166.586 255.3V273H162.069V255.568C162.069 253.68 161.638 252.272 160.775 251.345C159.913 250.401 158.464 249.929 156.43 249.929C154.753 249.929 153.362 250.433 152.255 251.442C151.148 252.435 150.505 253.778 150.326 255.471V273H145.785V255.69C145.785 251.849 143.905 249.929 140.146 249.929C137.183 249.929 135.157 251.19 134.066 253.713V273H129.55V246.584H133.822ZM178.329 273H173.812V246.584H178.329V273ZM173.446 239.577C173.446 238.845 173.666 238.226 174.105 237.722C174.561 237.217 175.229 236.965 176.107 236.965C176.986 236.965 177.654 237.217 178.109 237.722C178.565 238.226 178.793 238.845 178.793 239.577C178.793 240.31 178.565 240.92 178.109 241.408C177.654 241.896 176.986 242.141 176.107 242.141C175.229 242.141 174.561 241.896 174.105 241.408C173.666 240.92 173.446 240.31 173.446 239.577ZM201.889 270.388C200.131 272.455 197.551 273.488 194.149 273.488C191.334 273.488 189.185 272.674 187.704 271.047C186.239 269.403 185.499 266.978 185.482 263.771V246.584H189.999V263.649C189.999 267.653 191.627 269.655 194.882 269.655C198.332 269.655 200.627 268.369 201.767 265.798V246.584H206.283V273H201.986L201.889 270.388ZM217.416 246.584L217.538 249.514C219.475 247.235 222.087 246.096 225.375 246.096C229.07 246.096 231.584 247.512 232.919 250.344C233.798 249.074 234.937 248.049 236.337 247.268C237.753 246.486 239.421 246.096 241.342 246.096C247.136 246.096 250.082 249.164 250.18 255.3V273H245.663V255.568C245.663 253.68 245.232 252.272 244.369 251.345C243.507 250.401 242.058 249.929 240.023 249.929C238.347 249.929 236.955 250.433 235.849 251.442C234.742 252.435 234.099 253.778 233.92 255.471V273H229.379V255.69C229.379 251.849 227.499 249.929 223.739 249.929C220.777 249.929 218.751 251.19 217.66 253.713V273H213.144V246.584H217.416Z" fill="white"/>
<path d="M124.679 313H121.954V294.938L116.49 296.945V294.484L124.254 291.569H124.679V313ZM143.004 303.625C142.438 304.299 141.759 304.841 140.968 305.251C140.187 305.661 139.327 305.866 138.39 305.866C137.159 305.866 136.085 305.563 135.167 304.958C134.259 304.353 133.556 303.503 133.058 302.409C132.56 301.306 132.311 300.09 132.311 298.762C132.311 297.336 132.579 296.052 133.116 294.909C133.663 293.767 134.435 292.893 135.431 292.287C136.427 291.682 137.589 291.379 138.917 291.379C141.026 291.379 142.687 292.17 143.897 293.752C145.118 295.324 145.729 297.473 145.729 300.197V300.988C145.729 305.139 144.908 308.171 143.268 310.085C141.627 311.989 139.151 312.966 135.841 313.015H135.313V310.729H135.885C138.121 310.69 139.84 310.109 141.041 308.986C142.242 307.854 142.896 306.066 143.004 303.625ZM138.829 303.625C139.737 303.625 140.572 303.347 141.334 302.79C142.105 302.233 142.667 301.545 143.019 300.725V299.641C143.019 297.863 142.633 296.418 141.861 295.305C141.09 294.191 140.113 293.635 138.932 293.635C137.74 293.635 136.783 294.094 136.061 295.012C135.338 295.92 134.977 297.121 134.977 298.615C134.977 300.07 135.323 301.271 136.017 302.219C136.72 303.156 137.657 303.625 138.829 303.625ZM162.838 303.903C162.838 307.077 162.296 309.436 161.212 310.979C160.128 312.521 158.434 313.293 156.129 313.293C153.854 313.293 152.169 312.541 151.075 311.037C149.981 309.523 149.415 307.268 149.376 304.27V300.651C149.376 297.517 149.918 295.188 151.002 293.664C152.086 292.141 153.785 291.379 156.1 291.379C158.395 291.379 160.084 292.116 161.168 293.591C162.252 295.056 162.809 297.321 162.838 300.388V303.903ZM160.128 300.197C160.128 297.902 159.806 296.232 159.161 295.188C158.517 294.133 157.496 293.605 156.1 293.605C154.713 293.605 153.702 294.128 153.067 295.173C152.433 296.218 152.105 297.824 152.086 299.992V304.328C152.086 306.633 152.418 308.337 153.082 309.44C153.756 310.534 154.771 311.081 156.129 311.081C157.467 311.081 158.458 310.563 159.103 309.528C159.757 308.493 160.099 306.862 160.128 304.636V300.197ZM166.646 311.579C166.646 311.11 166.783 310.72 167.057 310.407C167.34 310.095 167.76 309.938 168.316 309.938C168.873 309.938 169.293 310.095 169.576 310.407C169.869 310.72 170.016 311.11 170.016 311.579C170.016 312.028 169.869 312.404 169.576 312.707C169.293 313.01 168.873 313.161 168.316 313.161C167.76 313.161 167.34 313.01 167.057 312.707C166.783 312.404 166.646 312.028 166.646 311.579ZM188.194 313H174.22V311.052L181.603 302.849C182.696 301.608 183.448 300.603 183.858 299.831C184.278 299.05 184.488 298.244 184.488 297.414C184.488 296.301 184.151 295.388 183.478 294.675C182.804 293.962 181.905 293.605 180.782 293.605C179.435 293.605 178.385 293.991 177.633 294.763C176.891 295.524 176.52 296.589 176.52 297.956H173.81C173.81 295.993 174.439 294.406 175.699 293.195C176.969 291.984 178.663 291.379 180.782 291.379C182.765 291.379 184.332 291.901 185.484 292.946C186.637 293.981 187.213 295.363 187.213 297.092C187.213 299.191 185.875 301.691 183.199 304.592L177.486 310.788H188.194V313ZM195.006 301.018H197.042C198.321 300.998 199.327 300.661 200.06 300.007C200.792 299.353 201.158 298.469 201.158 297.355C201.158 294.855 199.913 293.605 197.423 293.605C196.251 293.605 195.313 293.942 194.61 294.616C193.917 295.28 193.57 296.164 193.57 297.268H190.86C190.86 295.578 191.476 294.177 192.706 293.063C193.946 291.94 195.519 291.379 197.423 291.379C199.435 291.379 201.012 291.911 202.154 292.976C203.297 294.04 203.868 295.52 203.868 297.414C203.868 298.342 203.565 299.24 202.96 300.109C202.364 300.979 201.549 301.628 200.514 302.058C201.686 302.429 202.589 303.044 203.224 303.903C203.868 304.763 204.19 305.812 204.19 307.053C204.19 308.967 203.565 310.485 202.315 311.608C201.065 312.731 199.439 313.293 197.438 313.293C195.436 313.293 193.805 312.751 192.545 311.667C191.295 310.583 190.67 309.152 190.67 307.375H193.395C193.395 308.498 193.761 309.396 194.493 310.07C195.226 310.744 196.207 311.081 197.438 311.081C198.746 311.081 199.747 310.739 200.44 310.056C201.134 309.372 201.48 308.391 201.48 307.111C201.48 305.871 201.1 304.919 200.338 304.255C199.576 303.591 198.478 303.249 197.042 303.229H195.006V301.018Z" fill="white"/>
</g>
<defs>
<filter id="filter0_d_40:38" x="0" y="0" width="332" height="346" filterUnits="userSpaceOnUse" color-interpolation-filters="sRGB">
<feFlood flood-opacity="0" result="BackgroundImageFix"/>
<feColorMatrix in="SourceAlpha" type="matrix" values="0 0 0 0 0 0 0 0 0 0 0 0 0 0 0 0 0 0 127 0" result="hardAlpha"/>
<feOffset dx="8" dy="9"/>
<feGaussianBlur stdDeviation="2"/>
<feComposite in2="hardAlpha" operator="out"/>
<feColorMatrix type="matrix" values="0 0 0 0 0 0 0 0 0 0 0 0 0 0 0 0 0 0 0.25 0"/>
<feBlend mode="normal" in2="BackgroundImageFix" result="effect1_dropShadow_40:38"/>
<feBlend mode="normal" in="SourceGraphic" in2="effect1_dropShadow_40:38" result="shape"/>
</filter>
<linearGradient id="paint0_linear_40:38" x1="160" y1="0" x2="160" y2="333" gradientUnits="userSpaceOnUse">
<stop stop-color="#007E58"/>
<stop offset="1" stop-color="#2F4D7A" stop-opacity="0.95"/>
</linearGradient>
</defs>
</svg>
