<svg width="332" height="346" viewBox="0 0 332 346" fill="none" xmlns="http://www.w3.org/2000/svg">
<g filter="url(#filter0_d)">
<rect width="320" height="333" fill="url(#paint0_linear)"/>
<path d="M216.879 150.496C216.879 164.428 214.535 176.603 209.848 187.02C205.16 197.371 198.52 205.281 189.926 210.75C181.332 216.219 171.306 218.953 159.848 218.953C148.65 218.953 138.721 216.219 130.062 210.75C121.404 205.216 114.665 197.371 109.848 187.215C105.095 176.993 102.654 165.177 102.523 151.766V141.512C102.523 127.84 104.9 115.763 109.652 105.281C114.405 94.7995 121.111 86.7917 129.77 81.2578C138.493 75.6589 148.454 72.8594 159.652 72.8594C171.046 72.8594 181.072 75.6263 189.73 81.1602C198.454 86.6289 205.16 94.6042 209.848 105.086C214.535 115.503 216.879 127.645 216.879 141.512V150.496ZM198.227 141.316C198.227 124.454 194.841 111.531 188.07 102.547C181.299 93.4974 171.827 88.9727 159.652 88.9727C147.803 88.9727 138.461 93.4974 131.625 102.547C124.854 111.531 121.371 124.031 121.176 140.047V150.496C121.176 166.837 124.594 179.695 131.43 189.07C138.331 198.38 147.803 203.035 159.848 203.035C171.957 203.035 181.332 198.641 187.973 189.852C194.613 180.997 198.031 168.335 198.227 151.863V141.316Z" fill="white"/>
<path d="M40.6099 33.9844C40.6099 35.4036 40.2323 36.6667 39.4771 37.7734C38.7349 38.8802 37.7257 39.7461 36.4497 40.3711C37.9341 41.0091 39.106 41.9401 39.9653 43.1641C40.8377 44.388 41.2739 45.7747 41.2739 47.3242C41.2739 49.7852 40.4406 51.7448 38.7739 53.2031C37.1203 54.6615 34.9393 55.3906 32.231 55.3906C29.4966 55.3906 27.3026 54.6615 25.6489 53.2031C24.0083 51.7318 23.188 49.7721 23.188 47.3242C23.188 45.7878 23.6047 44.401 24.438 43.1641C25.2843 41.9271 26.4497 40.9896 27.9341 40.3516C26.6711 39.7266 25.675 38.8607 24.9458 37.7539C24.2166 36.6471 23.8521 35.3906 23.8521 33.9844C23.8521 31.5885 24.6203 29.6875 26.1567 28.2812C27.6932 26.875 29.7179 26.1719 32.231 26.1719C34.731 26.1719 36.7492 26.875 38.2856 28.2812C39.8351 29.6875 40.6099 31.5885 40.6099 33.9844ZM37.6606 47.2461C37.6606 45.6576 37.1528 44.362 36.1372 43.3594C35.1346 42.3568 33.8195 41.8555 32.1919 41.8555C30.5643 41.8555 29.2557 42.3503 28.2661 43.3398C27.2896 44.3294 26.8013 45.6315 26.8013 47.2461C26.8013 48.8607 27.2765 50.1302 28.2271 51.0547C29.1906 51.9792 30.5252 52.4414 32.231 52.4414C33.9237 52.4414 35.2518 51.9792 36.2153 51.0547C37.1789 50.1172 37.6606 48.8477 37.6606 47.2461ZM32.231 29.1406C30.8117 29.1406 29.6593 29.5833 28.7739 30.4688C27.9015 31.3411 27.4653 32.5326 27.4653 34.043C27.4653 35.4883 27.895 36.6602 28.7544 37.5586C29.6268 38.444 30.7856 38.8867 32.231 38.8867C33.6763 38.8867 34.8286 38.444 35.688 37.5586C36.5604 36.6602 36.9966 35.4883 36.9966 34.043C36.9966 32.5977 36.5474 31.4193 35.6489 30.5078C34.7505 29.5964 33.6112 29.1406 32.231 29.1406ZM46.2739 53.1055C46.2739 52.4805 46.4562 51.9596 46.8208 51.543C47.1984 51.1263 47.7583 50.918 48.5005 50.918C49.2427 50.918 49.8026 51.1263 50.1802 51.543C50.5708 51.9596 50.7661 52.4805 50.7661 53.1055C50.7661 53.7044 50.5708 54.2057 50.1802 54.6094C49.8026 55.013 49.2427 55.2148 48.5005 55.2148C47.7583 55.2148 47.1984 55.013 46.8208 54.6094C46.4562 54.2057 46.2739 53.7044 46.2739 53.1055Z" fill="white"/>
<path d="M109.47 256.374C109.47 259.857 108.884 262.901 107.712 265.505C106.54 268.093 104.88 270.07 102.731 271.438C100.583 272.805 98.0765 273.488 95.2119 273.488C92.4124 273.488 89.9303 272.805 87.7656 271.438C85.6009 270.054 83.9163 268.093 82.7119 265.554C81.5238 262.998 80.9134 260.044 80.8809 256.691V254.128C80.8809 250.71 81.4749 247.691 82.6631 245.07C83.8512 242.45 85.5277 240.448 87.6924 239.064C89.8734 237.665 92.3636 236.965 95.1631 236.965C98.0114 236.965 100.518 237.657 102.683 239.04C104.864 240.407 106.54 242.401 107.712 245.021C108.884 247.626 109.47 250.661 109.47 254.128V256.374ZM104.807 254.079C104.807 249.864 103.96 246.633 102.268 244.387C100.575 242.124 98.2067 240.993 95.1631 240.993C92.2008 240.993 89.8652 242.124 88.1562 244.387C86.4635 246.633 85.5928 249.758 85.5439 253.762V256.374C85.5439 260.459 86.3984 263.674 88.1074 266.018C89.8327 268.345 92.2008 269.509 95.2119 269.509C98.2393 269.509 100.583 268.41 102.243 266.213C103.903 263.999 104.758 260.834 104.807 256.716V254.079ZM124.655 256.228L130.515 246.584H135.788L127.146 259.646L136.057 273H130.832L124.729 263.112L118.625 273H113.376L122.287 259.646L113.645 246.584H118.869L124.655 256.228ZM149.24 266.384L155.393 246.584H160.227L149.606 277.077C147.963 281.472 145.35 283.669 141.77 283.669L140.915 283.596L139.23 283.278V279.616L140.451 279.714C141.981 279.714 143.169 279.405 144.016 278.786C144.878 278.168 145.586 277.036 146.14 275.393L147.141 272.707L137.717 246.584H142.648L149.24 266.384ZM162.863 259.572C162.863 255.454 163.815 252.183 165.72 249.758C167.624 247.316 170.147 246.096 173.288 246.096C176.511 246.096 179.025 247.235 180.832 249.514L181.052 246.584H185.178V272.365C185.178 275.783 184.16 278.477 182.126 280.446C180.108 282.416 177.39 283.4 173.972 283.4C172.067 283.4 170.204 282.993 168.381 282.18C166.558 281.366 165.166 280.251 164.206 278.835L166.55 276.125C168.487 278.518 170.855 279.714 173.654 279.714C175.852 279.714 177.561 279.095 178.781 277.858C180.018 276.621 180.637 274.88 180.637 272.634V270.363C178.83 272.447 176.364 273.488 173.239 273.488C170.147 273.488 167.64 272.243 165.72 269.753C163.815 267.263 162.863 263.869 162.863 259.572ZM167.404 260.085C167.404 263.063 168.015 265.407 169.235 267.116C170.456 268.809 172.165 269.655 174.362 269.655C177.211 269.655 179.302 268.361 180.637 265.773V253.713C179.253 251.19 177.178 249.929 174.411 249.929C172.214 249.929 170.497 250.783 169.26 252.492C168.023 254.201 167.404 256.732 167.404 260.085ZM202.976 273.488C199.395 273.488 196.481 272.316 194.235 269.973C191.989 267.613 190.866 264.463 190.866 260.524V259.694C190.866 257.074 191.363 254.738 192.355 252.688C193.365 250.62 194.764 249.009 196.555 247.854C198.361 246.682 200.314 246.096 202.414 246.096C205.848 246.096 208.518 247.227 210.422 249.489C212.326 251.752 213.278 254.991 213.278 259.206V261.086H195.383C195.448 263.69 196.205 265.798 197.653 267.409C199.118 269.004 200.974 269.802 203.22 269.802C204.815 269.802 206.166 269.476 207.272 268.825C208.379 268.174 209.348 267.312 210.178 266.237L212.937 268.386C210.723 271.787 207.403 273.488 202.976 273.488ZM202.414 249.807C200.591 249.807 199.061 250.474 197.824 251.809C196.587 253.127 195.822 254.982 195.529 257.375H208.762V257.033C208.632 254.738 208.013 252.964 206.906 251.711C205.799 250.441 204.302 249.807 202.414 249.807ZM222.8 246.584L222.946 249.904C224.965 247.365 227.601 246.096 230.856 246.096C236.439 246.096 239.255 249.245 239.304 255.544V273H234.787V255.52C234.771 253.615 234.331 252.207 233.469 251.296C232.622 250.384 231.296 249.929 229.489 249.929C228.024 249.929 226.739 250.319 225.632 251.101C224.525 251.882 223.662 252.907 223.044 254.177V273H218.527V246.584H222.8Z" fill="white"/>
<path d="M123.679 313H120.954V294.938L115.49 296.945V294.484L123.254 291.569H123.679V313ZM132.863 302.307L133.947 291.672H144.875V294.177H136.247L135.603 299.992C136.647 299.377 137.834 299.069 139.162 299.069C141.105 299.069 142.648 299.714 143.791 301.003C144.934 302.282 145.505 304.016 145.505 306.203C145.505 308.4 144.909 310.134 143.718 311.403C142.536 312.663 140.881 313.293 138.752 313.293C136.867 313.293 135.329 312.771 134.138 311.726C132.946 310.681 132.268 309.235 132.102 307.39H134.665C134.831 308.61 135.266 309.533 135.969 310.158C136.672 310.773 137.6 311.081 138.752 311.081C140.012 311.081 140.998 310.651 141.711 309.792C142.434 308.933 142.795 307.746 142.795 306.232C142.795 304.807 142.404 303.664 141.623 302.805C140.852 301.936 139.821 301.501 138.532 301.501C137.351 301.501 136.423 301.76 135.749 302.277L135.031 302.863L132.863 302.307ZM148.801 311.579C148.801 311.11 148.938 310.72 149.211 310.407C149.494 310.095 149.914 309.938 150.471 309.938C151.027 309.938 151.447 310.095 151.73 310.407C152.023 310.72 152.17 311.11 152.17 311.579C152.17 312.028 152.023 312.404 151.73 312.707C151.447 313.01 151.027 313.161 150.471 313.161C149.914 313.161 149.494 313.01 149.211 312.707C148.938 312.404 148.801 312.028 148.801 311.579ZM166.76 303.625C166.193 304.299 165.515 304.841 164.724 305.251C163.942 305.661 163.083 305.866 162.146 305.866C160.915 305.866 159.841 305.563 158.923 304.958C158.015 304.353 157.312 303.503 156.813 302.409C156.315 301.306 156.066 300.09 156.066 298.762C156.066 297.336 156.335 296.052 156.872 294.909C157.419 293.767 158.19 292.893 159.187 292.287C160.183 291.682 161.345 291.379 162.673 291.379C164.782 291.379 166.442 292.17 167.653 293.752C168.874 295.324 169.484 297.473 169.484 300.197V300.988C169.484 305.139 168.664 308.171 167.023 310.085C165.383 311.989 162.907 312.966 159.597 313.015H159.069V310.729H159.641C161.877 310.69 163.596 310.109 164.797 308.986C165.998 307.854 166.652 306.066 166.76 303.625ZM162.585 303.625C163.493 303.625 164.328 303.347 165.09 302.79C165.861 302.233 166.423 301.545 166.774 300.725V299.641C166.774 297.863 166.389 296.418 165.617 295.305C164.846 294.191 163.869 293.635 162.688 293.635C161.496 293.635 160.539 294.094 159.816 295.012C159.094 295.92 158.732 297.121 158.732 298.615C158.732 300.07 159.079 301.271 159.772 302.219C160.476 303.156 161.413 303.625 162.585 303.625ZM183.605 303.625C183.039 304.299 182.36 304.841 181.569 305.251C180.788 305.661 179.929 305.866 178.991 305.866C177.761 305.866 176.687 305.563 175.769 304.958C174.86 304.353 174.157 303.503 173.659 302.409C173.161 301.306 172.912 300.09 172.912 298.762C172.912 297.336 173.181 296.052 173.718 294.909C174.265 293.767 175.036 292.893 176.032 292.287C177.028 291.682 178.19 291.379 179.519 291.379C181.628 291.379 183.288 292.17 184.499 293.752C185.72 295.324 186.33 297.473 186.33 300.197V300.988C186.33 305.139 185.51 308.171 183.869 310.085C182.229 311.989 179.753 312.966 176.442 313.015H175.915V310.729H176.486C178.723 310.69 180.441 310.109 181.643 308.986C182.844 307.854 183.498 306.066 183.605 303.625ZM179.431 303.625C180.339 303.625 181.174 303.347 181.936 302.79C182.707 302.233 183.269 301.545 183.62 300.725V299.641C183.62 297.863 183.234 296.418 182.463 295.305C181.691 294.191 180.715 293.635 179.533 293.635C178.342 293.635 177.385 294.094 176.662 295.012C175.939 295.92 175.578 297.121 175.578 298.615C175.578 300.07 175.925 301.271 176.618 302.219C177.321 303.156 178.259 303.625 179.431 303.625ZM200.451 303.625C199.885 304.299 199.206 304.841 198.415 305.251C197.634 305.661 196.774 305.866 195.837 305.866C194.606 305.866 193.532 305.563 192.614 304.958C191.706 304.353 191.003 303.503 190.505 302.409C190.007 301.306 189.758 300.09 189.758 298.762C189.758 297.336 190.026 296.052 190.563 294.909C191.11 293.767 191.882 292.893 192.878 292.287C193.874 291.682 195.036 291.379 196.364 291.379C198.474 291.379 200.134 292.17 201.345 293.752C202.565 295.324 203.176 297.473 203.176 300.197V300.988C203.176 305.139 202.355 308.171 200.715 310.085C199.074 311.989 196.599 312.966 193.288 313.015H192.761V310.729H193.332C195.568 310.69 197.287 310.109 198.488 308.986C199.689 307.854 200.344 306.066 200.451 303.625ZM196.276 303.625C197.185 303.625 198.02 303.347 198.781 302.79C199.553 302.233 200.114 301.545 200.466 300.725V299.641C200.466 297.863 200.08 296.418 199.309 295.305C198.537 294.191 197.561 293.635 196.379 293.635C195.188 293.635 194.23 294.094 193.508 295.012C192.785 295.92 192.424 297.121 192.424 298.615C192.424 300.07 192.771 301.271 193.464 302.219C194.167 303.156 195.104 303.625 196.276 303.625Z" fill="white"/>
</g>
<defs>
<filter id="filter0_d" x="0" y="0" width="332" height="346" filterUnits="userSpaceOnUse" color-interpolation-filters="sRGB">
<feFlood flood-opacity="0" result="BackgroundImageFix"/>
<feColorMatrix in="SourceAlpha" type="matrix" values="0 0 0 0 0 0 0 0 0 0 0 0 0 0 0 0 0 0 127 0" result="hardAlpha"/>
<feOffset dx="8" dy="9"/>
<feGaussianBlur stdDeviation="2"/>
<feComposite in2="hardAlpha" operator="out"/>
<feColorMatrix type="matrix" values="0 0 0 0 0 0 0 0 0 0 0 0 0 0 0 0 0 0 0.25 0"/>
<feBlend mode="normal" in2="BackgroundImageFix" result="effect1_dropShadow"/>
<feBlend mode="normal" in="SourceGraphic" in2="effect1_dropShadow" result="shape"/>
</filter>
<linearGradient id="paint0_linear" x1="160" y1="0" x2="160" y2="333" gradientUnits="userSpaceOnUse">
<stop stop-color="#007E58"/>
<stop offset="1" stop-color="#2F4D7A" stop-opacity="0.95"/>
</linearGradient>
</defs>
</svg>
