<svg width="332" height="346" viewBox="0 0 332 346" fill="none" xmlns="http://www.w3.org/2000/svg">
<g filter="url(#filter0_d)">
<rect width="320" height="333" fill="url(#paint0_linear)"/>
<path d="M131.254 161.336V217H112.504V74.8125H164.945C180.505 74.8125 192.68 78.7839 201.469 86.7266C210.323 94.6693 214.75 105.184 214.75 118.27C214.75 132.072 210.421 142.716 201.762 150.203C193.168 157.625 180.831 161.336 164.75 161.336H131.254ZM131.254 146.004H164.945C174.971 146.004 182.654 143.66 187.992 138.973C193.331 134.22 196 127.384 196 118.465C196 110.001 193.331 103.23 187.992 98.1523C182.654 93.0742 175.329 90.4375 166.02 90.2422H131.254V146.004Z" fill="white"/>
<path d="M35.2388 55H31.606V30.918L24.3208 33.5938V30.3125L34.6724 26.4258H35.2388V55ZM47.4849 40.7422L48.9302 26.5625H63.5005V29.9023H51.9966L51.1372 37.6562C52.5304 36.8359 54.1125 36.4258 55.8833 36.4258C58.4744 36.4258 60.5317 37.2852 62.0552 39.0039C63.5786 40.7096 64.3403 43.0208 64.3403 45.9375C64.3403 48.8672 63.5461 51.1784 61.9575 52.8711C60.382 54.5508 58.175 55.3906 55.3364 55.3906C52.8234 55.3906 50.7726 54.694 49.1841 53.3008C47.5955 51.9076 46.6906 49.9805 46.4692 47.5195H49.8872C50.1086 49.1471 50.688 50.3776 51.6255 51.2109C52.563 52.0312 53.8 52.4414 55.3364 52.4414C57.0161 52.4414 58.3312 51.8685 59.2817 50.7227C60.2453 49.5768 60.7271 47.9948 60.7271 45.9766C60.7271 44.0755 60.2062 42.5521 59.1646 41.4062C58.1359 40.2474 56.7622 39.668 55.0435 39.668C53.4679 39.668 52.231 40.013 51.3325 40.7031L50.3755 41.4844L47.4849 40.7422ZM68.7349 53.1055C68.7349 52.4805 68.9172 51.9596 69.2817 51.543C69.6593 51.1263 70.2192 50.918 70.9614 50.918C71.7036 50.918 72.2635 51.1263 72.6411 51.543C73.0317 51.9596 73.2271 52.4805 73.2271 53.1055C73.2271 53.7044 73.0317 54.2057 72.6411 54.6094C72.2635 55.013 71.7036 55.2148 70.9614 55.2148C70.2192 55.2148 69.6593 55.013 69.2817 54.6094C68.9172 54.2057 68.7349 53.7044 68.7349 53.1055Z" fill="white"/>
<path d="M34.8135 259.084V273H30.126V237.453H43.2363C47.1263 237.453 50.1699 238.446 52.3672 240.432C54.5807 242.417 55.6875 245.046 55.6875 248.317C55.6875 251.768 54.6051 254.429 52.4404 256.301C50.292 258.156 47.2077 259.084 43.1875 259.084H34.8135ZM34.8135 255.251H43.2363C45.7428 255.251 47.6634 254.665 48.998 253.493C50.3327 252.305 51 250.596 51 248.366C51 246.25 50.3327 244.558 48.998 243.288C47.6634 242.019 45.8324 241.359 43.5049 241.311H34.8135V255.251ZM65.4775 249.782C67.4795 247.325 70.0837 246.096 73.29 246.096C78.8727 246.096 81.6885 249.245 81.7373 255.544V273H77.2207V255.52C77.2044 253.615 76.765 252.207 75.9023 251.296C75.056 250.384 73.7295 249.929 71.9229 249.929C70.458 249.929 69.1722 250.319 68.0654 251.101C66.9587 251.882 66.096 252.907 65.4775 254.177V273H60.9609V235.5H65.4775V249.782ZM87.3037 259.548C87.3037 256.96 87.8083 254.632 88.8174 252.565C89.8428 250.498 91.2588 248.903 93.0654 247.78C94.8883 246.657 96.9635 246.096 99.291 246.096C102.888 246.096 105.793 247.341 108.007 249.831C110.237 252.321 111.352 255.633 111.352 259.768V260.085C111.352 262.657 110.855 264.968 109.862 267.019C108.886 269.053 107.478 270.64 105.639 271.779C103.816 272.919 101.716 273.488 99.3398 273.488C95.7591 273.488 92.8538 272.243 90.624 269.753C88.4105 267.263 87.3037 263.967 87.3037 259.865V259.548ZM91.8447 260.085C91.8447 263.015 92.5202 265.367 93.8711 267.141C95.2383 268.915 97.0612 269.802 99.3398 269.802C101.635 269.802 103.458 268.907 104.809 267.116C106.16 265.31 106.835 262.787 106.835 259.548C106.835 256.651 106.143 254.307 104.76 252.517C103.393 250.71 101.57 249.807 99.291 249.807C97.0612 249.807 95.2627 250.694 93.8955 252.468C92.5283 254.242 91.8447 256.781 91.8447 260.085ZM132.396 265.993C132.396 264.772 131.933 263.828 131.005 263.161C130.093 262.478 128.49 261.892 126.195 261.403C123.917 260.915 122.102 260.329 120.751 259.646C119.416 258.962 118.424 258.148 117.772 257.204C117.138 256.26 116.82 255.137 116.82 253.835C116.82 251.67 117.732 249.839 119.555 248.342C121.394 246.844 123.738 246.096 126.586 246.096C129.581 246.096 132.006 246.869 133.861 248.415C135.733 249.961 136.669 251.939 136.669 254.348H132.128C132.128 253.111 131.599 252.045 130.541 251.149C129.499 250.254 128.181 249.807 126.586 249.807C124.942 249.807 123.656 250.165 122.729 250.881C121.801 251.597 121.337 252.533 121.337 253.688C121.337 254.779 121.768 255.601 122.631 256.154C123.493 256.708 125.048 257.237 127.294 257.741C129.556 258.246 131.387 258.848 132.787 259.548C134.187 260.248 135.22 261.094 135.888 262.087C136.571 263.063 136.913 264.26 136.913 265.676C136.913 268.036 135.969 269.932 134.081 271.364C132.193 272.78 129.743 273.488 126.732 273.488C124.617 273.488 122.745 273.114 121.117 272.365C119.49 271.617 118.212 270.575 117.284 269.24C116.373 267.889 115.917 266.433 115.917 264.87H120.434C120.515 266.384 121.117 267.588 122.24 268.483C123.38 269.362 124.877 269.802 126.732 269.802C128.441 269.802 129.809 269.46 130.834 268.776C131.876 268.076 132.396 267.149 132.396 265.993ZM165.111 260.085C165.111 264.105 164.192 267.344 162.353 269.802C160.513 272.259 158.023 273.488 154.882 273.488C151.675 273.488 149.153 272.471 147.313 270.437V283.156H142.797V246.584H146.923L147.143 249.514C148.982 247.235 151.537 246.096 154.809 246.096C157.982 246.096 160.489 247.292 162.328 249.685C164.184 252.077 165.111 255.406 165.111 259.67V260.085ZM160.595 259.572C160.595 256.594 159.96 254.242 158.69 252.517C157.421 250.791 155.679 249.929 153.466 249.929C150.731 249.929 148.681 251.141 147.313 253.566V266.188C148.664 268.597 150.731 269.802 153.515 269.802C155.679 269.802 157.396 268.947 158.666 267.238C159.952 265.513 160.595 262.958 160.595 259.572ZM175.39 249.782C177.392 247.325 179.996 246.096 183.202 246.096C188.785 246.096 191.601 249.245 191.649 255.544V273H187.133V255.52C187.117 253.615 186.677 252.207 185.814 251.296C184.968 250.384 183.642 249.929 181.835 249.929C180.37 249.929 179.084 250.319 177.978 251.101C176.871 251.882 176.008 252.907 175.39 254.177V273H170.873V235.5H175.39V249.782ZM197.216 259.548C197.216 256.96 197.72 254.632 198.729 252.565C199.755 250.498 201.171 248.903 202.978 247.78C204.8 246.657 206.876 246.096 209.203 246.096C212.8 246.096 215.705 247.341 217.919 249.831C220.149 252.321 221.264 255.633 221.264 259.768V260.085C221.264 262.657 220.767 264.968 219.774 267.019C218.798 269.053 217.39 270.64 215.551 271.779C213.728 272.919 211.628 273.488 209.252 273.488C205.671 273.488 202.766 272.243 200.536 269.753C198.323 267.263 197.216 263.967 197.216 259.865V259.548ZM201.757 260.085C201.757 263.015 202.432 265.367 203.783 267.141C205.15 268.915 206.973 269.802 209.252 269.802C211.547 269.802 213.37 268.907 214.721 267.116C216.072 265.31 216.747 262.787 216.747 259.548C216.747 256.651 216.055 254.307 214.672 252.517C213.305 250.71 211.482 249.807 209.203 249.807C206.973 249.807 205.175 250.694 203.808 252.468C202.44 254.242 201.757 256.781 201.757 260.085ZM239.696 250.637C239.013 250.523 238.272 250.466 237.475 250.466C234.512 250.466 232.502 251.727 231.444 254.25V273H226.928V246.584H231.322L231.396 249.636C232.877 247.276 234.976 246.096 237.694 246.096C238.573 246.096 239.241 246.21 239.696 246.438V250.637ZM260.18 270.388C258.422 272.455 255.842 273.488 252.44 273.488C249.625 273.488 247.476 272.674 245.995 271.047C244.53 269.403 243.79 266.978 243.773 263.771V246.584H248.29V263.649C248.29 267.653 249.918 269.655 253.173 269.655C256.623 269.655 258.918 268.369 260.058 265.798V246.584H264.574V273H260.277L260.18 270.388ZM286.84 265.993C286.84 264.772 286.376 263.828 285.448 263.161C284.537 262.478 282.934 261.892 280.639 261.403C278.36 260.915 276.545 260.329 275.194 259.646C273.86 258.962 272.867 258.148 272.216 257.204C271.581 256.26 271.264 255.137 271.264 253.835C271.264 251.67 272.175 249.839 273.998 248.342C275.837 246.844 278.181 246.096 281.029 246.096C284.024 246.096 286.449 246.869 288.305 248.415C290.176 249.961 291.112 251.939 291.112 254.348H286.571C286.571 253.111 286.042 252.045 284.984 251.149C283.943 250.254 282.624 249.807 281.029 249.807C279.385 249.807 278.1 250.165 277.172 250.881C276.244 251.597 275.78 252.533 275.78 253.688C275.78 254.779 276.212 255.601 277.074 256.154C277.937 256.708 279.491 257.237 281.737 257.741C284 258.246 285.831 258.848 287.23 259.548C288.63 260.248 289.664 261.094 290.331 262.087C291.015 263.063 291.356 264.26 291.356 265.676C291.356 268.036 290.412 269.932 288.524 271.364C286.636 272.78 284.187 273.488 281.176 273.488C279.06 273.488 277.188 273.114 275.561 272.365C273.933 271.617 272.655 270.575 271.728 269.24C270.816 267.889 270.36 266.433 270.36 264.87H274.877C274.958 266.384 275.561 267.588 276.684 268.483C277.823 269.362 279.32 269.802 281.176 269.802C282.885 269.802 284.252 269.46 285.277 268.776C286.319 268.076 286.84 267.149 286.84 265.993Z" fill="white"/>
<path d="M118.713 301.018H120.749C122.028 300.998 123.034 300.661 123.767 300.007C124.499 299.353 124.865 298.469 124.865 297.355C124.865 294.855 123.62 293.605 121.13 293.605C119.958 293.605 119.021 293.942 118.317 294.616C117.624 295.28 117.277 296.164 117.277 297.268H114.567C114.567 295.578 115.183 294.177 116.413 293.063C117.653 291.94 119.226 291.379 121.13 291.379C123.142 291.379 124.719 291.911 125.861 292.976C127.004 294.04 127.575 295.52 127.575 297.414C127.575 298.342 127.272 299.24 126.667 300.109C126.071 300.979 125.256 301.628 124.221 302.058C125.393 302.429 126.296 303.044 126.931 303.903C127.575 304.763 127.897 305.812 127.897 307.053C127.897 308.967 127.272 310.485 126.022 311.608C124.772 312.731 123.146 313.293 121.145 313.293C119.143 313.293 117.512 312.751 116.252 311.667C115.002 310.583 114.377 309.152 114.377 307.375H117.102C117.102 308.498 117.468 309.396 118.2 310.07C118.933 310.744 119.914 311.081 121.145 311.081C122.453 311.081 123.454 310.739 124.147 310.056C124.841 309.372 125.188 308.391 125.188 307.111C125.188 305.871 124.807 304.919 124.045 304.255C123.283 303.591 122.185 303.249 120.749 303.229H118.713V301.018ZM144.992 303.903C144.992 307.077 144.45 309.436 143.366 310.979C142.282 312.521 140.588 313.293 138.283 313.293C136.008 313.293 134.323 312.541 133.229 311.037C132.136 309.523 131.569 307.268 131.53 304.27V300.651C131.53 297.517 132.072 295.188 133.156 293.664C134.24 292.141 135.939 291.379 138.254 291.379C140.549 291.379 142.238 292.116 143.322 293.591C144.406 295.056 144.963 297.321 144.992 300.388V303.903ZM142.282 300.197C142.282 297.902 141.96 296.232 141.315 295.188C140.671 294.133 139.65 293.605 138.254 293.605C136.867 293.605 135.856 294.128 135.222 295.173C134.587 296.218 134.26 297.824 134.24 299.992V304.328C134.24 306.633 134.572 308.337 135.236 309.44C135.91 310.534 136.926 311.081 138.283 311.081C139.621 311.081 140.612 310.563 141.257 309.528C141.911 308.493 142.253 306.862 142.282 304.636V300.197ZM148.801 311.579C148.801 311.11 148.938 310.72 149.211 310.407C149.494 310.095 149.914 309.938 150.471 309.938C151.027 309.938 151.447 310.095 151.73 310.407C152.023 310.72 152.17 311.11 152.17 311.579C152.17 312.028 152.023 312.404 151.73 312.707C151.447 313.01 151.027 313.161 150.471 313.161C149.914 313.161 149.494 313.01 149.211 312.707C148.938 312.404 148.801 312.028 148.801 311.579ZM166.76 303.625C166.193 304.299 165.515 304.841 164.724 305.251C163.942 305.661 163.083 305.866 162.146 305.866C160.915 305.866 159.841 305.563 158.923 304.958C158.015 304.353 157.312 303.503 156.813 302.409C156.315 301.306 156.066 300.09 156.066 298.762C156.066 297.336 156.335 296.052 156.872 294.909C157.419 293.767 158.19 292.893 159.187 292.287C160.183 291.682 161.345 291.379 162.673 291.379C164.782 291.379 166.442 292.17 167.653 293.752C168.874 295.324 169.484 297.473 169.484 300.197V300.988C169.484 305.139 168.664 308.171 167.023 310.085C165.383 311.989 162.907 312.966 159.597 313.015H159.069V310.729H159.641C161.877 310.69 163.596 310.109 164.797 308.986C165.998 307.854 166.652 306.066 166.76 303.625ZM162.585 303.625C163.493 303.625 164.328 303.347 165.09 302.79C165.861 302.233 166.423 301.545 166.774 300.725V299.641C166.774 297.863 166.389 296.418 165.617 295.305C164.846 294.191 163.869 293.635 162.688 293.635C161.496 293.635 160.539 294.094 159.816 295.012C159.094 295.92 158.732 297.121 158.732 298.615C158.732 300.07 159.079 301.271 159.772 302.219C160.476 303.156 161.413 303.625 162.585 303.625ZM186.989 293.195L178.156 313H175.314L184.118 293.898H172.575V291.672H186.989V293.195ZM201.506 305.837H204.465V308.049H201.506V313H198.781V308.049H189.069V306.452L198.62 291.672H201.506V305.837ZM192.146 305.837H198.781V295.378L198.459 295.964L192.146 305.837Z" fill="white"/>
</g>
<defs>
<filter id="filter0_d" x="0" y="0" width="332" height="346" filterUnits="userSpaceOnUse" color-interpolation-filters="sRGB">
<feFlood flood-opacity="0" result="BackgroundImageFix"/>
<feColorMatrix in="SourceAlpha" type="matrix" values="0 0 0 0 0 0 0 0 0 0 0 0 0 0 0 0 0 0 127 0" result="hardAlpha"/>
<feOffset dx="8" dy="9"/>
<feGaussianBlur stdDeviation="2"/>
<feComposite in2="hardAlpha" operator="out"/>
<feColorMatrix type="matrix" values="0 0 0 0 0 0 0 0 0 0 0 0 0 0 0 0 0 0 0.25 0"/>
<feBlend mode="normal" in2="BackgroundImageFix" result="effect1_dropShadow"/>
<feBlend mode="normal" in="SourceGraphic" in2="effect1_dropShadow" result="shape"/>
</filter>
<linearGradient id="paint0_linear" x1="160" y1="0" x2="160" y2="333" gradientUnits="userSpaceOnUse">
<stop stop-color="#007E58"/>
<stop offset="1" stop-color="#2F4D7A" stop-opacity="0.95"/>
</linearGradient>
</defs>
</svg>
