<svg width="332" height="346" viewBox="0 0 332 346" fill="none" xmlns="http://www.w3.org/2000/svg">
<g filter="url(#filter0_d_41:26)">
<rect width="320" height="333" fill="url(#paint0_linear_41:26)"/>
<path d="M40.6094 33.9844C40.6094 35.4036 40.2318 36.6667 39.4766 37.7734C38.7344 38.8802 37.7253 39.7461 36.4492 40.3711C37.9336 41.0091 39.1055 41.9401 39.9648 43.1641C40.8372 44.388 41.2734 45.7747 41.2734 47.3242C41.2734 49.7852 40.4401 51.7448 38.7734 53.2031C37.1198 54.6615 34.9388 55.3906 32.2305 55.3906C29.4961 55.3906 27.3021 54.6615 25.6484 53.2031C24.0078 51.7318 23.1875 49.7721 23.1875 47.3242C23.1875 45.7878 23.6042 44.401 24.4375 43.1641C25.2839 41.9271 26.4492 40.9896 27.9336 40.3516C26.6706 39.7266 25.6745 38.8607 24.9453 37.7539C24.2161 36.6471 23.8516 35.3906 23.8516 33.9844C23.8516 31.5885 24.6198 29.6875 26.1562 28.2812C27.6927 26.875 29.7174 26.1719 32.2305 26.1719C34.7305 26.1719 36.7487 26.875 38.2852 28.2812C39.8346 29.6875 40.6094 31.5885 40.6094 33.9844ZM37.6602 47.2461C37.6602 45.6576 37.1523 44.362 36.1367 43.3594C35.1341 42.3568 33.819 41.8555 32.1914 41.8555C30.5638 41.8555 29.2552 42.3503 28.2656 43.3398C27.2891 44.3294 26.8008 45.6315 26.8008 47.2461C26.8008 48.8607 27.276 50.1302 28.2266 51.0547C29.1901 51.9792 30.5247 52.4414 32.2305 52.4414C33.9232 52.4414 35.2513 51.9792 36.2148 51.0547C37.1784 50.1172 37.6602 48.8477 37.6602 47.2461ZM32.2305 29.1406C30.8112 29.1406 29.6589 29.5833 28.7734 30.4688C27.901 31.3411 27.4648 32.5326 27.4648 34.043C27.4648 35.4883 27.8945 36.6602 28.7539 37.5586C29.6263 38.444 30.7852 38.8867 32.2305 38.8867C33.6758 38.8867 34.8281 38.444 35.6875 37.5586C36.5599 36.6602 36.9961 35.4883 36.9961 34.043C36.9961 32.5977 36.5469 31.4193 35.6484 30.5078C34.75 29.5964 33.6107 29.1406 32.2305 29.1406ZM61.0781 45.4492H65.0234V48.3984H61.0781V55H57.4453V48.3984H44.4961V46.2695L57.2305 26.5625H61.0781V45.4492ZM48.5977 45.4492H57.4453V31.5039L57.0156 32.2852L48.5977 45.4492ZM68.7344 53.1055C68.7344 52.4805 68.9167 51.9596 69.2812 51.543C69.6589 51.1263 70.2188 50.918 70.9609 50.918C71.7031 50.918 72.263 51.1263 72.6406 51.543C73.0312 51.9596 73.2266 52.4805 73.2266 53.1055C73.2266 53.7044 73.0312 54.2057 72.6406 54.6094C72.263 55.013 71.7031 55.2148 70.9609 55.2148C70.2188 55.2148 69.6589 55.013 69.2812 54.6094C68.9167 54.2057 68.7344 53.7044 68.7344 53.1055Z" fill="white"/>
<path d="M75.2539 161.336V217H56.5039V74.8125H108.945C124.505 74.8125 136.68 78.7839 145.469 86.7266C154.323 94.6693 158.75 105.184 158.75 118.27C158.75 132.072 154.421 142.716 145.762 150.203C137.168 157.625 124.831 161.336 108.75 161.336H75.2539ZM75.2539 146.004H108.945C118.971 146.004 126.654 143.66 131.992 138.973C137.331 134.22 140 127.384 140 118.465C140 110.001 137.331 103.23 131.992 98.1523C126.654 93.0742 119.329 90.4375 110.02 90.2422H75.2539V146.004ZM173.691 163.191C173.691 152.84 175.71 143.53 179.746 135.262C183.848 126.993 189.512 120.613 196.738 116.121C204.03 111.629 212.331 109.383 221.641 109.383C236.029 109.383 247.65 114.363 256.504 124.324C265.423 134.285 269.883 147.534 269.883 164.07V165.34C269.883 175.626 267.897 184.871 263.926 193.074C260.02 201.212 254.388 207.56 247.031 212.117C239.74 216.674 231.341 218.953 221.836 218.953C207.513 218.953 195.892 213.973 186.973 204.012C178.118 194.051 173.691 180.867 173.691 164.461V163.191ZM191.855 165.34C191.855 177.059 194.557 186.466 199.961 193.562C205.43 200.659 212.721 204.207 221.836 204.207C231.016 204.207 238.307 200.626 243.711 193.465C249.115 186.238 251.816 176.147 251.816 163.191C251.816 151.603 249.049 142.228 243.516 135.066C238.047 127.84 230.755 124.227 221.641 124.227C212.721 124.227 205.527 127.775 200.059 134.871C194.59 141.967 191.855 152.124 191.855 165.34Z" fill="white"/>
<path d="M62.8135 259.084V273H58.126V237.453H71.2363C75.1263 237.453 78.1699 238.446 80.3672 240.432C82.5807 242.417 83.6875 245.046 83.6875 248.317C83.6875 251.768 82.6051 254.429 80.4404 256.301C78.292 258.156 75.2077 259.084 71.1875 259.084H62.8135ZM62.8135 255.251H71.2363C73.7428 255.251 75.6634 254.665 76.998 253.493C78.3327 252.305 79 250.596 79 248.366C79 246.25 78.3327 244.558 76.998 243.288C75.6634 242.019 73.8324 241.359 71.5049 241.311H62.8135V255.251ZM87.4229 259.548C87.4229 256.96 87.9274 254.632 88.9365 252.565C89.9619 250.498 91.3779 248.903 93.1846 247.78C95.0075 246.657 97.0827 246.096 99.4102 246.096C103.007 246.096 105.912 247.341 108.126 249.831C110.356 252.321 111.471 255.633 111.471 259.768V260.085C111.471 262.657 110.974 264.968 109.981 267.019C109.005 269.053 107.597 270.64 105.758 271.779C103.935 272.919 101.835 273.488 99.459 273.488C95.8783 273.488 92.973 272.243 90.7432 269.753C88.5296 267.263 87.4229 263.967 87.4229 259.865V259.548ZM91.9639 260.085C91.9639 263.015 92.6393 265.367 93.9902 267.141C95.3574 268.915 97.1803 269.802 99.459 269.802C101.754 269.802 103.577 268.907 104.928 267.116C106.279 265.31 106.954 262.787 106.954 259.548C106.954 256.651 106.262 254.307 104.879 252.517C103.512 250.71 101.689 249.807 99.4102 249.807C97.1803 249.807 95.3818 250.694 94.0146 252.468C92.6475 254.242 91.9639 256.781 91.9639 260.085ZM122.042 273H117.525V235.5H122.042V273ZM128.097 259.548C128.097 256.96 128.601 254.632 129.61 252.565C130.636 250.498 132.052 248.903 133.858 247.78C135.681 246.657 137.757 246.096 140.084 246.096C143.681 246.096 146.586 247.341 148.8 249.831C151.03 252.321 152.145 255.633 152.145 259.768V260.085C152.145 262.657 151.648 264.968 150.655 267.019C149.679 269.053 148.271 270.64 146.432 271.779C144.609 272.919 142.509 273.488 140.133 273.488C136.552 273.488 133.647 272.243 131.417 269.753C129.203 267.263 128.097 263.967 128.097 259.865V259.548ZM132.638 260.085C132.638 263.015 133.313 265.367 134.664 267.141C136.031 268.915 137.854 269.802 140.133 269.802C142.428 269.802 144.251 268.907 145.602 267.116C146.952 265.31 147.628 262.787 147.628 259.548C147.628 256.651 146.936 254.307 145.553 252.517C144.186 250.71 142.363 249.807 140.084 249.807C137.854 249.807 136.056 250.694 134.688 252.468C133.321 254.242 132.638 256.781 132.638 260.085ZM162.081 246.584L162.228 249.904C164.246 247.365 166.882 246.096 170.138 246.096C175.72 246.096 178.536 249.245 178.585 255.544V273H174.068V255.52C174.052 253.615 173.613 252.207 172.75 251.296C171.904 250.384 170.577 249.929 168.771 249.929C167.306 249.929 166.02 250.319 164.913 251.101C163.806 251.882 162.944 252.907 162.325 254.177V273H157.809V246.584H162.081ZM190.304 273H185.787V246.584H190.304V273ZM185.421 239.577C185.421 238.845 185.641 238.226 186.08 237.722C186.536 237.217 187.203 236.965 188.082 236.965C188.961 236.965 189.628 237.217 190.084 237.722C190.54 238.226 190.768 238.845 190.768 239.577C190.768 240.31 190.54 240.92 190.084 241.408C189.628 241.896 188.961 242.141 188.082 242.141C187.203 242.141 186.536 241.896 186.08 241.408C185.641 240.92 185.421 240.31 185.421 239.577ZM213.863 270.388C212.105 272.455 209.526 273.488 206.124 273.488C203.308 273.488 201.16 272.674 199.679 271.047C198.214 269.403 197.473 266.978 197.457 263.771V246.584H201.974V263.649C201.974 267.653 203.601 269.655 206.856 269.655C210.307 269.655 212.602 268.369 213.741 265.798V246.584H218.258V273H213.961L213.863 270.388ZM229.391 246.584L229.513 249.514C231.45 247.235 234.062 246.096 237.35 246.096C241.044 246.096 243.559 247.512 244.894 250.344C245.772 249.074 246.912 248.049 248.312 247.268C249.728 246.486 251.396 246.096 253.316 246.096C259.111 246.096 262.057 249.164 262.154 255.3V273H257.638V255.568C257.638 253.68 257.206 252.272 256.344 251.345C255.481 250.401 254.033 249.929 251.998 249.929C250.322 249.929 248.93 250.433 247.823 251.442C246.716 252.435 246.074 253.778 245.895 255.471V273H241.354V255.69C241.354 251.849 239.474 249.929 235.714 249.929C232.752 249.929 230.725 251.19 229.635 253.713V273H225.118V246.584H229.391Z" fill="white"/>
<path d="M149.747 313H135.772V311.052L143.155 302.849C144.249 301.608 145.001 300.603 145.411 299.831C145.831 299.05 146.041 298.244 146.041 297.414C146.041 296.301 145.704 295.388 145.03 294.675C144.356 293.962 143.458 293.605 142.335 293.605C140.987 293.605 139.938 293.991 139.186 294.763C138.443 295.524 138.072 296.589 138.072 297.956H135.362C135.362 295.993 135.992 294.406 137.252 293.195C138.521 291.984 140.216 291.379 142.335 291.379C144.317 291.379 145.885 291.901 147.037 292.946C148.189 293.981 148.766 295.363 148.766 297.092C148.766 299.191 147.428 301.691 144.752 304.592L139.039 310.788H149.747V313ZM161.524 313H158.8V294.938L153.336 296.945V294.484L161.1 291.569H161.524V313ZM182.838 303.903C182.838 307.077 182.296 309.436 181.212 310.979C180.128 312.521 178.434 313.293 176.129 313.293C173.854 313.293 172.169 312.541 171.075 311.037C169.981 309.523 169.415 307.268 169.376 304.27V300.651C169.376 297.517 169.918 295.188 171.002 293.664C172.086 292.141 173.785 291.379 176.1 291.379C178.395 291.379 180.084 292.116 181.168 293.591C182.252 295.056 182.809 297.321 182.838 300.388V303.903ZM180.128 300.197C180.128 297.902 179.806 296.232 179.161 295.188C178.517 294.133 177.496 293.605 176.1 293.605C174.713 293.605 173.702 294.128 173.067 295.173C172.433 296.218 172.105 297.824 172.086 299.992V304.328C172.086 306.633 172.418 308.337 173.082 309.44C173.756 310.534 174.771 311.081 176.129 311.081C177.467 311.081 178.458 310.563 179.103 309.528C179.757 308.493 180.099 306.862 180.128 304.636V300.197Z" fill="white"/>
</g>
<defs>
<filter id="filter0_d_41:26" x="0" y="0" width="332" height="346" filterUnits="userSpaceOnUse" color-interpolation-filters="sRGB">
<feFlood flood-opacity="0" result="BackgroundImageFix"/>
<feColorMatrix in="SourceAlpha" type="matrix" values="0 0 0 0 0 0 0 0 0 0 0 0 0 0 0 0 0 0 127 0" result="hardAlpha"/>
<feOffset dx="8" dy="9"/>
<feGaussianBlur stdDeviation="2"/>
<feComposite in2="hardAlpha" operator="out"/>
<feColorMatrix type="matrix" values="0 0 0 0 0 0 0 0 0 0 0 0 0 0 0 0 0 0 0.25 0"/>
<feBlend mode="normal" in2="BackgroundImageFix" result="effect1_dropShadow_41:26"/>
<feBlend mode="normal" in="SourceGraphic" in2="effect1_dropShadow_41:26" result="shape"/>
</filter>
<linearGradient id="paint0_linear_41:26" x1="160" y1="0" x2="160" y2="333" gradientUnits="userSpaceOnUse">
<stop stop-color="#007E58"/>
<stop offset="1" stop-color="#2F4D7A" stop-opacity="0.95"/>
</linearGradient>
</defs>
</svg>
