<svg width="332" height="346" viewBox="0 0 332 346" fill="none" xmlns="http://www.w3.org/2000/svg">
<g filter="url(#filter0_d)">
<rect width="320" height="333" fill="url(#paint0_linear)"/>
<path d="M149.637 150.887L132.254 168.953V217H113.504V74.8125H132.254V145.125L195.438 74.8125H218.094L162.137 137.605L222.488 217H200.027L149.637 150.887Z" fill="white"/>
<path d="M35.2383 55H31.6055V30.918L24.3203 33.5938V30.3125L34.6719 26.4258H35.2383V55ZM59.6719 42.5C58.9167 43.3984 58.0117 44.1211 56.957 44.668C55.9154 45.2148 54.7695 45.4883 53.5195 45.4883C51.8789 45.4883 50.4466 45.0846 49.2227 44.2773C48.0117 43.4701 47.0742 42.3372 46.4102 40.8789C45.7461 39.4076 45.4141 37.7865 45.4141 36.0156C45.4141 34.1146 45.7721 32.4023 46.4883 30.8789C47.2174 29.3555 48.2461 28.1901 49.5742 27.3828C50.9023 26.5755 52.4518 26.1719 54.2227 26.1719C57.0352 26.1719 59.2487 27.2266 60.8633 29.3359C62.4909 31.4323 63.3047 34.2969 63.3047 37.9297V38.9844C63.3047 44.5182 62.2109 48.5612 60.0234 51.1133C57.8359 53.6523 54.5352 54.9544 50.1211 55.0195H49.418V51.9727H50.1797C53.1615 51.9206 55.4531 51.1458 57.0547 49.6484C58.6562 48.138 59.5286 45.7552 59.6719 42.5ZM54.1055 42.5C55.3164 42.5 56.4297 42.1289 57.4453 41.3867C58.474 40.6445 59.2227 39.7266 59.6914 38.6328V37.1875C59.6914 34.8177 59.1771 32.8906 58.1484 31.4062C57.1198 29.9219 55.8177 29.1797 54.2422 29.1797C52.6536 29.1797 51.3776 29.7917 50.4141 31.0156C49.4505 32.2266 48.9688 33.8281 48.9688 35.8203C48.9688 37.7604 49.431 39.362 50.3555 40.625C51.293 41.875 52.543 42.5 54.1055 42.5ZM68.7344 53.1055C68.7344 52.4805 68.9167 51.9596 69.2812 51.543C69.6589 51.1263 70.2188 50.918 70.9609 50.918C71.7031 50.918 72.263 51.1263 72.6406 51.543C73.0312 51.9596 73.2266 52.4805 73.2266 53.1055C73.2266 53.7044 73.0312 54.2057 72.6406 54.6094C72.263 55.013 71.7031 55.2148 70.9609 55.2148C70.2188 55.2148 69.6589 55.013 69.2812 54.6094C68.9167 54.2057 68.7344 53.7044 68.7344 53.1055Z" fill="white"/>
<path d="M49.8135 259.084V273H45.126V237.453H58.2363C62.1263 237.453 65.1699 238.446 67.3672 240.432C69.5807 242.417 70.6875 245.046 70.6875 248.317C70.6875 251.768 69.6051 254.429 67.4404 256.301C65.292 258.156 62.2077 259.084 58.1875 259.084H49.8135ZM49.8135 255.251H58.2363C60.7428 255.251 62.6634 254.665 63.998 253.493C65.3327 252.305 66 250.596 66 248.366C66 246.25 65.3327 244.558 63.998 243.288C62.6634 242.019 60.8324 241.359 58.5049 241.311H49.8135V255.251ZM74.4229 259.548C74.4229 256.96 74.9274 254.632 75.9365 252.565C76.9619 250.498 78.3779 248.903 80.1846 247.78C82.0075 246.657 84.0827 246.096 86.4102 246.096C90.0072 246.096 92.9124 247.341 95.126 249.831C97.3558 252.321 98.4707 255.633 98.4707 259.768V260.085C98.4707 262.657 97.9743 264.968 96.9814 267.019C96.0049 269.053 94.597 270.64 92.7578 271.779C90.9349 272.919 88.8353 273.488 86.459 273.488C82.8783 273.488 79.973 272.243 77.7432 269.753C75.5296 267.263 74.4229 263.967 74.4229 259.865V259.548ZM78.9639 260.085C78.9639 263.015 79.6393 265.367 80.9902 267.141C82.3574 268.915 84.1803 269.802 86.459 269.802C88.7539 269.802 90.5768 268.907 91.9277 267.116C93.2786 265.31 93.9541 262.787 93.9541 259.548C93.9541 256.651 93.2624 254.307 91.8789 252.517C90.5117 250.71 88.6888 249.807 86.4102 249.807C84.1803 249.807 82.3818 250.694 81.0146 252.468C79.6475 254.242 78.9639 256.781 78.9639 260.085ZM110.263 240.188V246.584H115.194V250.075H110.263V266.457C110.263 267.515 110.482 268.312 110.922 268.85C111.361 269.37 112.11 269.631 113.168 269.631C113.689 269.631 114.405 269.533 115.316 269.338V273C114.128 273.326 112.973 273.488 111.85 273.488C109.831 273.488 108.31 272.878 107.284 271.657C106.259 270.437 105.746 268.703 105.746 266.457V250.075H100.937V246.584H105.746V240.188H110.263ZM136.801 273C136.54 272.479 136.329 271.551 136.166 270.217C134.066 272.398 131.56 273.488 128.646 273.488C126.042 273.488 123.902 272.756 122.226 271.291C120.565 269.81 119.735 267.938 119.735 265.676C119.735 262.925 120.777 260.793 122.86 259.279C124.96 257.749 127.906 256.984 131.698 256.984H136.093V254.909C136.093 253.33 135.621 252.077 134.677 251.149C133.733 250.205 132.341 249.733 130.502 249.733C128.891 249.733 127.54 250.14 126.449 250.954C125.359 251.768 124.813 252.753 124.813 253.908H120.272C120.272 252.59 120.736 251.32 121.664 250.1C122.608 248.863 123.878 247.886 125.473 247.17C127.084 246.454 128.85 246.096 130.771 246.096C133.814 246.096 136.199 246.861 137.924 248.391C139.649 249.904 140.544 251.996 140.609 254.665V266.823C140.609 269.248 140.919 271.177 141.537 272.609V273H136.801ZM129.306 269.558C130.722 269.558 132.064 269.191 133.334 268.459C134.604 267.727 135.523 266.774 136.093 265.603V260.183H132.553C127.019 260.183 124.252 261.802 124.252 265.041C124.252 266.457 124.724 267.564 125.668 268.361C126.612 269.159 127.825 269.558 129.306 269.558ZM163.07 265.993C163.07 264.772 162.606 263.828 161.679 263.161C160.767 262.478 159.164 261.892 156.869 261.403C154.59 260.915 152.776 260.329 151.425 259.646C150.09 258.962 149.097 258.148 148.446 257.204C147.812 256.26 147.494 255.137 147.494 253.835C147.494 251.67 148.406 249.839 150.229 248.342C152.068 246.844 154.411 246.096 157.26 246.096C160.255 246.096 162.68 246.869 164.535 248.415C166.407 249.961 167.343 251.939 167.343 254.348H162.802C162.802 253.111 162.273 252.045 161.215 251.149C160.173 250.254 158.855 249.807 157.26 249.807C155.616 249.807 154.33 250.165 153.402 250.881C152.475 251.597 152.011 252.533 152.011 253.688C152.011 254.779 152.442 255.601 153.305 256.154C154.167 256.708 155.722 257.237 157.968 257.741C160.23 258.246 162.061 258.848 163.461 259.548C164.861 260.248 165.894 261.094 166.562 262.087C167.245 263.063 167.587 264.26 167.587 265.676C167.587 268.036 166.643 269.932 164.755 271.364C162.867 272.78 160.417 273.488 157.406 273.488C155.29 273.488 153.419 273.114 151.791 272.365C150.163 271.617 148.886 270.575 147.958 269.24C147.047 267.889 146.591 266.433 146.591 264.87H151.107C151.189 266.384 151.791 267.588 152.914 268.483C154.053 269.362 155.551 269.802 157.406 269.802C159.115 269.802 160.482 269.46 161.508 268.776C162.549 268.076 163.07 267.149 163.07 265.993ZM188.852 265.993C188.852 264.772 188.388 263.828 187.46 263.161C186.549 262.478 184.945 261.892 182.65 261.403C180.372 260.915 178.557 260.329 177.206 259.646C175.871 258.962 174.879 258.148 174.228 257.204C173.593 256.26 173.275 255.137 173.275 253.835C173.275 251.67 174.187 249.839 176.01 248.342C177.849 246.844 180.193 246.096 183.041 246.096C186.036 246.096 188.461 246.869 190.316 248.415C192.188 249.961 193.124 251.939 193.124 254.348H188.583C188.583 253.111 188.054 252.045 186.996 251.149C185.954 250.254 184.636 249.807 183.041 249.807C181.397 249.807 180.111 250.165 179.184 250.881C178.256 251.597 177.792 252.533 177.792 253.688C177.792 254.779 178.223 255.601 179.086 256.154C179.949 256.708 181.503 257.237 183.749 257.741C186.011 258.246 187.842 258.848 189.242 259.548C190.642 260.248 191.675 261.094 192.343 262.087C193.026 263.063 193.368 264.26 193.368 265.676C193.368 268.036 192.424 269.932 190.536 271.364C188.648 272.78 186.199 273.488 183.188 273.488C181.072 273.488 179.2 273.114 177.572 272.365C175.945 271.617 174.667 270.575 173.739 269.24C172.828 267.889 172.372 266.433 172.372 264.87H176.889C176.97 266.384 177.572 267.588 178.695 268.483C179.835 269.362 181.332 269.802 183.188 269.802C184.896 269.802 186.264 269.46 187.289 268.776C188.331 268.076 188.852 267.149 188.852 265.993ZM204.159 273H199.643V246.584H204.159V273ZM199.276 239.577C199.276 238.845 199.496 238.226 199.936 237.722C200.391 237.217 201.059 236.965 201.938 236.965C202.816 236.965 203.484 237.217 203.939 237.722C204.395 238.226 204.623 238.845 204.623 239.577C204.623 240.31 204.395 240.92 203.939 241.408C203.484 241.896 202.816 242.141 201.938 242.141C201.059 242.141 200.391 241.896 199.936 241.408C199.496 240.92 199.276 240.31 199.276 239.577ZM227.719 270.388C225.961 272.455 223.381 273.488 219.979 273.488C217.164 273.488 215.015 272.674 213.534 271.047C212.069 269.403 211.329 266.978 211.312 263.771V246.584H215.829V263.649C215.829 267.653 217.457 269.655 220.712 269.655C224.162 269.655 226.457 268.369 227.597 265.798V246.584H232.113V273H227.816L227.719 270.388ZM243.246 246.584L243.368 249.514C245.305 247.235 247.917 246.096 251.205 246.096C254.9 246.096 257.414 247.512 258.749 250.344C259.628 249.074 260.767 248.049 262.167 247.268C263.583 246.486 265.251 246.096 267.172 246.096C272.966 246.096 275.912 249.164 276.01 255.3V273H271.493V255.568C271.493 253.68 271.062 252.272 270.199 251.345C269.337 250.401 267.888 249.929 265.854 249.929C264.177 249.929 262.785 250.433 261.679 251.442C260.572 252.435 259.929 253.778 259.75 255.471V273H255.209V255.69C255.209 251.849 253.329 249.929 249.569 249.929C246.607 249.929 244.581 251.19 243.49 253.713V273H238.974V246.584H243.246Z" fill="white"/>
<path d="M118.713 301.018H120.749C122.028 300.998 123.034 300.661 123.767 300.007C124.499 299.353 124.865 298.469 124.865 297.355C124.865 294.855 123.62 293.605 121.13 293.605C119.958 293.605 119.021 293.942 118.317 294.616C117.624 295.28 117.277 296.164 117.277 297.268H114.567C114.567 295.578 115.183 294.177 116.413 293.063C117.653 291.94 119.226 291.379 121.13 291.379C123.142 291.379 124.719 291.911 125.861 292.976C127.004 294.04 127.575 295.52 127.575 297.414C127.575 298.342 127.272 299.24 126.667 300.109C126.071 300.979 125.256 301.628 124.221 302.058C125.393 302.429 126.296 303.044 126.931 303.903C127.575 304.763 127.897 305.812 127.897 307.053C127.897 308.967 127.272 310.485 126.022 311.608C124.772 312.731 123.146 313.293 121.145 313.293C119.143 313.293 117.512 312.751 116.252 311.667C115.002 310.583 114.377 309.152 114.377 307.375H117.102C117.102 308.498 117.468 309.396 118.2 310.07C118.933 310.744 119.914 311.081 121.145 311.081C122.453 311.081 123.454 310.739 124.147 310.056C124.841 309.372 125.188 308.391 125.188 307.111C125.188 305.871 124.807 304.919 124.045 304.255C123.283 303.591 122.185 303.249 120.749 303.229H118.713V301.018ZM142.004 303.625C141.438 304.299 140.759 304.841 139.968 305.251C139.187 305.661 138.327 305.866 137.39 305.866C136.159 305.866 135.085 305.563 134.167 304.958C133.259 304.353 132.556 303.503 132.058 302.409C131.56 301.306 131.311 300.09 131.311 298.762C131.311 297.336 131.579 296.052 132.116 294.909C132.663 293.767 133.435 292.893 134.431 292.287C135.427 291.682 136.589 291.379 137.917 291.379C140.026 291.379 141.687 292.17 142.897 293.752C144.118 295.324 144.729 297.473 144.729 300.197V300.988C144.729 305.139 143.908 308.171 142.268 310.085C140.627 311.989 138.151 312.966 134.841 313.015H134.313V310.729H134.885C137.121 310.69 138.84 310.109 140.041 308.986C141.242 307.854 141.896 306.066 142.004 303.625ZM137.829 303.625C138.737 303.625 139.572 303.347 140.334 302.79C141.105 302.233 141.667 301.545 142.019 300.725V299.641C142.019 297.863 141.633 296.418 140.861 295.305C140.09 294.191 139.113 293.635 137.932 293.635C136.74 293.635 135.783 294.094 135.061 295.012C134.338 295.92 133.977 297.121 133.977 298.615C133.977 300.07 134.323 301.271 135.017 302.219C135.72 303.156 136.657 303.625 137.829 303.625ZM148.801 311.579C148.801 311.11 148.938 310.72 149.211 310.407C149.494 310.095 149.914 309.938 150.471 309.938C151.027 309.938 151.447 310.095 151.73 310.407C152.023 310.72 152.17 311.11 152.17 311.579C152.17 312.028 152.023 312.404 151.73 312.707C151.447 313.01 151.027 313.161 150.471 313.161C149.914 313.161 149.494 313.01 149.211 312.707C148.938 312.404 148.801 312.028 148.801 311.579ZM169.748 303.903C169.748 307.077 169.206 309.436 168.122 310.979C167.038 312.521 165.344 313.293 163.039 313.293C160.764 313.293 159.079 312.541 157.985 311.037C156.892 309.523 156.325 307.268 156.286 304.27V300.651C156.286 297.517 156.828 295.188 157.912 293.664C158.996 292.141 160.695 291.379 163.01 291.379C165.305 291.379 166.994 292.116 168.078 293.591C169.162 295.056 169.719 297.321 169.748 300.388V303.903ZM167.038 300.197C167.038 297.902 166.716 296.232 166.071 295.188C165.427 294.133 164.406 293.605 163.01 293.605C161.623 293.605 160.612 294.128 159.978 295.173C159.343 296.218 159.016 297.824 158.996 299.992V304.328C158.996 306.633 159.328 308.337 159.992 309.44C160.666 310.534 161.682 311.081 163.039 311.081C164.377 311.081 165.368 310.563 166.013 309.528C166.667 308.493 167.009 306.862 167.038 304.636V300.197ZM183.605 303.625C183.039 304.299 182.36 304.841 181.569 305.251C180.788 305.661 179.929 305.866 178.991 305.866C177.761 305.866 176.687 305.563 175.769 304.958C174.86 304.353 174.157 303.503 173.659 302.409C173.161 301.306 172.912 300.09 172.912 298.762C172.912 297.336 173.181 296.052 173.718 294.909C174.265 293.767 175.036 292.893 176.032 292.287C177.028 291.682 178.19 291.379 179.519 291.379C181.628 291.379 183.288 292.17 184.499 293.752C185.72 295.324 186.33 297.473 186.33 300.197V300.988C186.33 305.139 185.51 308.171 183.869 310.085C182.229 311.989 179.753 312.966 176.442 313.015H175.915V310.729H176.486C178.723 310.69 180.441 310.109 181.643 308.986C182.844 307.854 183.498 306.066 183.605 303.625ZM179.431 303.625C180.339 303.625 181.174 303.347 181.936 302.79C182.707 302.233 183.269 301.545 183.62 300.725V299.641C183.62 297.863 183.234 296.418 182.463 295.305C181.691 294.191 180.715 293.635 179.533 293.635C178.342 293.635 177.385 294.094 176.662 295.012C175.939 295.92 175.578 297.121 175.578 298.615C175.578 300.07 175.925 301.271 176.618 302.219C177.321 303.156 178.259 303.625 179.431 303.625ZM203 297.238C203 298.303 202.717 299.25 202.15 300.08C201.594 300.91 200.837 301.56 199.88 302.028C200.993 302.507 201.872 303.205 202.517 304.123C203.171 305.041 203.498 306.081 203.498 307.243C203.498 309.089 202.873 310.559 201.623 311.652C200.383 312.746 198.747 313.293 196.716 313.293C194.665 313.293 193.02 312.746 191.779 311.652C190.549 310.549 189.934 309.079 189.934 307.243C189.934 306.091 190.246 305.051 190.871 304.123C191.506 303.195 192.38 302.492 193.493 302.014C192.546 301.545 191.799 300.896 191.252 300.065C190.705 299.235 190.432 298.293 190.432 297.238C190.432 295.441 191.008 294.016 192.16 292.961C193.312 291.906 194.831 291.379 196.716 291.379C198.591 291.379 200.104 291.906 201.257 292.961C202.419 294.016 203 295.441 203 297.238ZM200.788 307.185C200.788 305.993 200.407 305.021 199.646 304.27C198.894 303.518 197.907 303.142 196.687 303.142C195.466 303.142 194.484 303.513 193.742 304.255C193.01 304.997 192.644 305.974 192.644 307.185C192.644 308.396 193 309.348 193.713 310.041C194.436 310.734 195.437 311.081 196.716 311.081C197.985 311.081 198.981 310.734 199.704 310.041C200.427 309.338 200.788 308.386 200.788 307.185ZM196.716 293.605C195.651 293.605 194.787 293.938 194.123 294.602C193.469 295.256 193.142 296.149 193.142 297.282C193.142 298.366 193.464 299.245 194.108 299.919C194.763 300.583 195.632 300.915 196.716 300.915C197.8 300.915 198.664 300.583 199.309 299.919C199.963 299.245 200.29 298.366 200.29 297.282C200.29 296.198 199.953 295.314 199.279 294.631C198.605 293.947 197.751 293.605 196.716 293.605Z" fill="white"/>
</g>
<defs>
<filter id="filter0_d" x="0" y="0" width="332" height="346" filterUnits="userSpaceOnUse" color-interpolation-filters="sRGB">
<feFlood flood-opacity="0" result="BackgroundImageFix"/>
<feColorMatrix in="SourceAlpha" type="matrix" values="0 0 0 0 0 0 0 0 0 0 0 0 0 0 0 0 0 0 127 0" result="hardAlpha"/>
<feOffset dx="8" dy="9"/>
<feGaussianBlur stdDeviation="2"/>
<feComposite in2="hardAlpha" operator="out"/>
<feColorMatrix type="matrix" values="0 0 0 0 0 0 0 0 0 0 0 0 0 0 0 0 0 0 0.25 0"/>
<feBlend mode="normal" in2="BackgroundImageFix" result="effect1_dropShadow"/>
<feBlend mode="normal" in="SourceGraphic" in2="effect1_dropShadow" result="shape"/>
</filter>
<linearGradient id="paint0_linear" x1="160" y1="0" x2="160" y2="333" gradientUnits="userSpaceOnUse">
<stop stop-color="#007E58"/>
<stop offset="1" stop-color="#2F4D7A" stop-opacity="0.95"/>
</linearGradient>
</defs>
</svg>
