<svg width="332" height="346" viewBox="0 0 332 346" fill="none" xmlns="http://www.w3.org/2000/svg">
<g filter="url(#filter0_d_27:9)">
<rect width="320" height="333" fill="url(#paint0_linear_27:9)"/>
<path d="M37.5435 26.543V29.6094H36.8794C34.0669 29.6615 31.8273 30.4948 30.1606 32.1094C28.494 33.724 27.5304 35.9961 27.27 38.9258C28.7674 37.207 30.8117 36.3477 33.4028 36.3477C35.8768 36.3477 37.8494 37.2201 39.3208 38.9648C40.8052 40.7096 41.5474 42.9622 41.5474 45.7227C41.5474 48.6523 40.7466 50.9961 39.145 52.7539C37.5565 54.5117 35.4211 55.3906 32.7388 55.3906C30.0174 55.3906 27.8104 54.349 26.1177 52.2656C24.425 50.1693 23.5786 47.474 23.5786 44.1797V42.793C23.5786 37.5586 24.6919 33.5612 26.9185 30.8008C29.158 28.0273 32.4849 26.6081 36.8989 26.543H37.5435ZM32.7974 39.3555C31.5604 39.3555 30.4211 39.7266 29.3794 40.4688C28.3377 41.2109 27.6151 42.1419 27.2114 43.2617V44.5898C27.2114 46.9336 27.7388 48.8216 28.7935 50.2539C29.8481 51.6862 31.1632 52.4023 32.7388 52.4023C34.3664 52.4023 35.6424 51.8034 36.5669 50.6055C37.5044 49.4076 37.9731 47.8385 37.9731 45.8984C37.9731 43.9453 37.4979 42.3698 36.5474 41.1719C35.6099 39.9609 34.3599 39.3555 32.7974 39.3555ZM57.6997 55H54.0669V30.918L46.7817 33.5938V30.3125L57.1333 26.4258H57.6997V55ZM68.7349 53.1055C68.7349 52.4805 68.9172 51.9596 69.2817 51.543C69.6593 51.1263 70.2192 50.918 70.9614 50.918C71.7036 50.918 72.2635 51.1263 72.6411 51.543C73.0317 51.9596 73.2271 52.4805 73.2271 53.1055C73.2271 53.7044 73.0317 54.2057 72.6411 54.6094C72.2635 55.013 71.7036 55.2148 70.9614 55.2148C70.2192 55.2148 69.6593 55.013 69.2817 54.6094C68.9172 54.2057 68.7349 53.7044 68.7349 53.1055Z" fill="white"/>
<path d="M44.2539 161.336V217H25.5039V74.8125H77.9453C93.5052 74.8125 105.68 78.7839 114.469 86.7266C123.323 94.6693 127.75 105.184 127.75 118.27C127.75 132.072 123.421 142.716 114.762 150.203C106.168 157.625 93.8307 161.336 77.75 161.336H44.2539ZM44.2539 146.004H77.9453C87.9714 146.004 95.6536 143.66 100.992 138.973C106.331 134.22 109 127.384 109 118.465C109 110.001 106.331 103.23 100.992 98.1523C95.6536 93.0742 88.3294 90.4375 79.0195 90.2422H44.2539V146.004ZM165.836 111.336L166.324 123.055C174.072 113.94 184.521 109.383 197.672 109.383C212.451 109.383 222.509 115.047 227.848 126.375C231.363 121.297 235.921 117.195 241.52 114.07C247.184 110.945 253.857 109.383 261.539 109.383C284.716 109.383 296.5 121.655 296.891 146.199V217H278.824V147.273C278.824 139.721 277.099 134.09 273.648 130.379C270.198 126.603 264.404 124.715 256.266 124.715C249.56 124.715 243.993 126.733 239.566 130.77C235.139 134.741 232.568 140.112 231.852 146.883V217H213.688V147.762C213.688 132.397 206.168 124.715 191.129 124.715C179.28 124.715 171.174 129.76 166.812 139.852V217H148.746V111.336H165.836Z" fill="white"/>
<path d="M30.8135 259.084V273H26.126V237.453H39.2363C43.1263 237.453 46.1699 238.446 48.3672 240.432C50.5807 242.417 51.6875 245.046 51.6875 248.317C51.6875 251.768 50.6051 254.429 48.4404 256.301C46.292 258.156 43.2077 259.084 39.1875 259.084H30.8135ZM30.8135 255.251H39.2363C41.7428 255.251 43.6634 254.665 44.998 253.493C46.3327 252.305 47 250.596 47 248.366C47 246.25 46.3327 244.558 44.998 243.288C43.6634 242.019 41.8324 241.359 39.5049 241.311H30.8135V255.251ZM69.7295 250.637C69.0459 250.523 68.3053 250.466 67.5078 250.466C64.5456 250.466 62.5355 251.727 61.4775 254.25V273H56.9609V246.584H61.3555L61.4287 249.636C62.9098 247.276 65.0094 246.096 67.7275 246.096C68.6064 246.096 69.2738 246.21 69.7295 246.438V250.637ZM72.2197 259.548C72.2197 256.96 72.7243 254.632 73.7334 252.565C74.7588 250.498 76.1748 248.903 77.9814 247.78C79.8044 246.657 81.8796 246.096 84.207 246.096C87.804 246.096 90.7093 247.341 92.9229 249.831C95.1527 252.321 96.2676 255.633 96.2676 259.768V260.085C96.2676 262.657 95.7712 264.968 94.7783 267.019C93.8018 269.053 92.3939 270.64 90.5547 271.779C88.7318 272.919 86.6322 273.488 84.2559 273.488C80.6751 273.488 77.7699 272.243 75.54 269.753C73.3265 267.263 72.2197 263.967 72.2197 259.865V259.548ZM76.7607 260.085C76.7607 263.015 77.4362 265.367 78.7871 267.141C80.1543 268.915 81.9772 269.802 84.2559 269.802C86.5508 269.802 88.3737 268.907 89.7246 267.116C91.0755 265.31 91.751 262.787 91.751 259.548C91.751 256.651 91.0592 254.307 89.6758 252.517C88.3086 250.71 86.4857 249.807 84.207 249.807C81.9772 249.807 80.1787 250.694 78.8115 252.468C77.4443 254.242 76.7607 256.781 76.7607 260.085ZM106.18 246.584L106.302 249.514C108.239 247.235 110.851 246.096 114.139 246.096C117.833 246.096 120.348 247.512 121.683 250.344C122.562 249.074 123.701 248.049 125.101 247.268C126.517 246.486 128.185 246.096 130.105 246.096C135.9 246.096 138.846 249.164 138.943 255.3V273H134.427V255.568C134.427 253.68 133.995 252.272 133.133 251.345C132.27 250.401 130.822 249.929 128.787 249.929C127.111 249.929 125.719 250.433 124.612 251.442C123.506 252.435 122.863 253.778 122.684 255.471V273H118.143V255.69C118.143 251.849 116.263 249.929 112.503 249.929C109.541 249.929 107.514 251.19 106.424 253.713V273H101.907V246.584H106.18ZM156.741 273.488C153.16 273.488 150.247 272.316 148.001 269.973C145.755 267.613 144.632 264.463 144.632 260.524V259.694C144.632 257.074 145.128 254.738 146.121 252.688C147.13 250.62 148.53 249.009 150.32 247.854C152.127 246.682 154.08 246.096 156.18 246.096C159.614 246.096 162.283 247.227 164.188 249.489C166.092 251.752 167.044 254.991 167.044 259.206V261.086H149.148C149.214 263.69 149.97 265.798 151.419 267.409C152.884 269.004 154.739 269.802 156.985 269.802C158.58 269.802 159.931 269.476 161.038 268.825C162.145 268.174 163.113 267.312 163.943 266.237L166.702 268.386C164.489 271.787 161.168 273.488 156.741 273.488ZM156.18 249.807C154.357 249.807 152.827 250.474 151.59 251.809C150.353 253.127 149.588 254.982 149.295 257.375H162.527V257.033C162.397 254.738 161.779 252.964 160.672 251.711C159.565 250.441 158.068 249.807 156.18 249.807ZM178.421 240.188V246.584H183.353V250.075H178.421V266.457C178.421 267.515 178.641 268.312 179.08 268.85C179.52 269.37 180.268 269.631 181.326 269.631C181.847 269.631 182.563 269.533 183.475 269.338V273C182.286 273.326 181.131 273.488 180.008 273.488C177.99 273.488 176.468 272.878 175.442 271.657C174.417 270.437 173.904 268.703 173.904 266.457V250.075H169.095V246.584H173.904V240.188H178.421ZM193.167 249.782C195.169 247.325 197.773 246.096 200.979 246.096C206.562 246.096 209.378 249.245 209.427 255.544V273H204.91V255.52C204.894 253.615 204.454 252.207 203.592 251.296C202.745 250.384 201.419 249.929 199.612 249.929C198.147 249.929 196.862 250.319 195.755 251.101C194.648 251.882 193.785 252.907 193.167 254.177V273H188.65V235.5H193.167V249.782ZM221.097 273H216.58V246.584H221.097V273ZM216.214 239.577C216.214 238.845 216.434 238.226 216.873 237.722C217.329 237.217 217.996 236.965 218.875 236.965C219.754 236.965 220.421 237.217 220.877 237.722C221.333 238.226 221.561 238.845 221.561 239.577C221.561 240.31 221.333 240.92 220.877 241.408C220.421 241.896 219.754 242.141 218.875 242.141C217.996 242.141 217.329 241.896 216.873 241.408C216.434 240.92 216.214 240.31 216.214 239.577ZM244.656 270.388C242.898 272.455 240.319 273.488 236.917 273.488C234.101 273.488 231.953 272.674 230.472 271.047C229.007 269.403 228.266 266.978 228.25 263.771V246.584H232.767V263.649C232.767 267.653 234.394 269.655 237.649 269.655C241.1 269.655 243.395 268.369 244.534 265.798V246.584H249.051V273H244.754L244.656 270.388ZM260.184 246.584L260.306 249.514C262.243 247.235 264.855 246.096 268.143 246.096C271.837 246.096 274.352 247.512 275.687 250.344C276.565 249.074 277.705 248.049 279.104 247.268C280.521 246.486 282.189 246.096 284.109 246.096C289.904 246.096 292.85 249.164 292.947 255.3V273H288.431V255.568C288.431 253.68 287.999 252.272 287.137 251.345C286.274 250.401 284.826 249.929 282.791 249.929C281.115 249.929 279.723 250.433 278.616 251.442C277.509 252.435 276.867 253.778 276.688 255.471V273H272.146V255.69C272.146 251.849 270.267 249.929 266.507 249.929C263.545 249.929 261.518 251.19 260.428 253.713V273H255.911V246.584H260.184Z" fill="white"/>
<path d="M144.679 313H141.954V294.938L136.49 296.945V294.484L144.254 291.569H144.679V313ZM164.059 305.837H167.018V308.049H164.059V313H161.334V308.049H151.622V306.452L161.173 291.672H164.059V305.837ZM154.698 305.837H161.334V295.378L161.012 295.964L154.698 305.837ZM170.709 302.307L171.793 291.672H182.721V294.177H174.093L173.448 299.992C174.493 299.377 175.68 299.069 177.008 299.069C178.951 299.069 180.494 299.714 181.637 301.003C182.779 302.282 183.351 304.016 183.351 306.203C183.351 308.4 182.755 310.134 181.563 311.403C180.382 312.663 178.727 313.293 176.598 313.293C174.713 313.293 173.175 312.771 171.983 311.726C170.792 310.681 170.113 309.235 169.947 307.39H172.511C172.677 308.61 173.111 309.533 173.814 310.158C174.518 310.773 175.445 311.081 176.598 311.081C177.857 311.081 178.844 310.651 179.557 309.792C180.279 308.933 180.641 307.746 180.641 306.232C180.641 304.807 180.25 303.664 179.469 302.805C178.697 301.936 177.667 301.501 176.378 301.501C175.196 301.501 174.269 301.76 173.595 302.277L172.877 302.863L170.709 302.307Z" fill="white"/>
</g>
<defs>
<filter id="filter0_d_27:9" x="0" y="0" width="332" height="346" filterUnits="userSpaceOnUse" color-interpolation-filters="sRGB">
<feFlood flood-opacity="0" result="BackgroundImageFix"/>
<feColorMatrix in="SourceAlpha" type="matrix" values="0 0 0 0 0 0 0 0 0 0 0 0 0 0 0 0 0 0 127 0" result="hardAlpha"/>
<feOffset dx="8" dy="9"/>
<feGaussianBlur stdDeviation="2"/>
<feComposite in2="hardAlpha" operator="out"/>
<feColorMatrix type="matrix" values="0 0 0 0 0 0 0 0 0 0 0 0 0 0 0 0 0 0 0.25 0"/>
<feBlend mode="normal" in2="BackgroundImageFix" result="effect1_dropShadow_27:9"/>
<feBlend mode="normal" in="SourceGraphic" in2="effect1_dropShadow_27:9" result="shape"/>
</filter>
<linearGradient id="paint0_linear_27:9" x1="160" y1="0" x2="160" y2="333" gradientUnits="userSpaceOnUse">
<stop stop-color="#007E58"/>
<stop offset="1" stop-color="#2F4D7A" stop-opacity="0.95"/>
</linearGradient>
</defs>
</svg>
