<svg width="332" height="346" viewBox="0 0 332 346" fill="none" xmlns="http://www.w3.org/2000/svg">
<g filter="url(#filter0_d_25:32)">
<rect width="320" height="333" fill="url(#paint0_linear_25:32)"/>
<path d="M38.6177 45.4492H42.563V48.3984H38.6177V55H34.9849V48.3984H22.0356V46.2695L34.77 26.5625H38.6177V45.4492ZM26.1372 45.4492H34.9849V31.5039L34.5552 32.2852L26.1372 45.4492ZM47.4849 40.7422L48.9302 26.5625H63.5005V29.9023H51.9966L51.1372 37.6562C52.5304 36.8359 54.1125 36.4258 55.8833 36.4258C58.4744 36.4258 60.5317 37.2852 62.0552 39.0039C63.5786 40.7096 64.3403 43.0208 64.3403 45.9375C64.3403 48.8672 63.5461 51.1784 61.9575 52.8711C60.382 54.5508 58.175 55.3906 55.3364 55.3906C52.8234 55.3906 50.7726 54.694 49.1841 53.3008C47.5955 51.9076 46.6906 49.9805 46.4692 47.5195H49.8872C50.1086 49.1471 50.688 50.3776 51.6255 51.2109C52.563 52.0312 53.8 52.4414 55.3364 52.4414C57.0161 52.4414 58.3312 51.8685 59.2817 50.7227C60.2453 49.5768 60.7271 47.9948 60.7271 45.9766C60.7271 44.0755 60.2062 42.5521 59.1646 41.4062C58.1359 40.2474 56.7622 39.668 55.0435 39.668C53.4679 39.668 52.231 40.013 51.3325 40.7031L50.3755 41.4844L47.4849 40.7422ZM68.7349 53.1055C68.7349 52.4805 68.9172 51.9596 69.2817 51.543C69.6593 51.1263 70.2192 50.918 70.9614 50.918C71.7036 50.918 72.2635 51.1263 72.6411 51.543C73.0317 51.9596 73.2271 52.4805 73.2271 53.1055C73.2271 53.7044 73.0317 54.2057 72.6411 54.6094C72.2635 55.013 71.7036 55.2148 70.9614 55.2148C70.2192 55.2148 69.6593 55.013 69.2817 54.6094C68.9172 54.2057 68.7349 53.7044 68.7349 53.1055Z" fill="white"/>
<path d="M111.652 159.48H78.2539V217H59.4062V74.8125H106.477C122.492 74.8125 134.797 78.4583 143.391 85.75C152.049 93.0417 156.379 103.654 156.379 117.586C156.379 126.44 153.97 134.155 149.152 140.73C144.4 147.306 137.759 152.221 129.23 155.477L162.629 215.828V217H142.512L111.652 159.48ZM78.2539 144.148H107.062C116.372 144.148 123.762 141.74 129.23 136.922C134.764 132.104 137.531 125.659 137.531 117.586C137.531 108.797 134.895 102.059 129.621 97.3711C124.413 92.6836 116.861 90.3073 106.965 90.2422H78.2539V144.148ZM197.98 124.129C205.988 114.298 216.405 109.383 229.23 109.383C251.561 109.383 262.824 121.98 263.02 147.176V217H244.953V147.078C244.888 139.461 243.13 133.829 239.68 130.184C236.294 126.538 230.988 124.715 223.762 124.715C217.902 124.715 212.759 126.277 208.332 129.402C203.905 132.527 200.454 136.629 197.98 141.707V217H179.914V67H197.98V124.129Z" fill="white"/>
<path d="M77.1631 258.62H68.8135V273H64.1016V237.453H75.8691C79.873 237.453 82.9492 238.365 85.0977 240.188C87.2624 242.01 88.3447 244.663 88.3447 248.146C88.3447 250.36 87.7425 252.289 86.5381 253.933C85.3499 255.576 83.6898 256.805 81.5576 257.619L89.9072 272.707V273H84.8779L77.1631 258.62ZM68.8135 254.787H76.0156C78.3431 254.787 80.1904 254.185 81.5576 252.98C82.9411 251.776 83.6328 250.165 83.6328 248.146C83.6328 245.949 82.9736 244.265 81.6553 243.093C80.3532 241.921 78.4652 241.327 75.9912 241.311H68.8135V254.787ZM98.7451 249.782C100.747 247.325 103.351 246.096 106.558 246.096C112.14 246.096 114.956 249.245 115.005 255.544V273H110.488V255.52C110.472 253.615 110.033 252.207 109.17 251.296C108.324 250.384 106.997 249.929 105.19 249.929C103.726 249.929 102.44 250.319 101.333 251.101C100.226 251.882 99.3636 252.907 98.7451 254.177V273H94.2285V235.5H98.7451V249.782ZM120.571 259.548C120.571 256.96 121.076 254.632 122.085 252.565C123.11 250.498 124.526 248.903 126.333 247.78C128.156 246.657 130.231 246.096 132.559 246.096C136.156 246.096 139.061 247.341 141.274 249.831C143.504 252.321 144.619 255.633 144.619 259.768V260.085C144.619 262.657 144.123 264.968 143.13 267.019C142.153 269.053 140.745 270.64 138.906 271.779C137.083 272.919 134.984 273.488 132.607 273.488C129.027 273.488 126.121 272.243 123.892 269.753C121.678 267.263 120.571 263.967 120.571 259.865V259.548ZM125.112 260.085C125.112 263.015 125.788 265.367 127.139 267.141C128.506 268.915 130.329 269.802 132.607 269.802C134.902 269.802 136.725 268.907 138.076 267.116C139.427 265.31 140.103 262.787 140.103 259.548C140.103 256.651 139.411 254.307 138.027 252.517C136.66 250.71 134.837 249.807 132.559 249.807C130.329 249.807 128.53 250.694 127.163 252.468C125.796 254.242 125.112 256.781 125.112 260.085ZM149.185 259.572C149.185 255.52 150.145 252.264 152.065 249.807C153.986 247.333 156.501 246.096 159.609 246.096C162.702 246.096 165.151 247.154 166.958 249.27V235.5H171.475V273H167.324L167.104 270.168C165.298 272.382 162.783 273.488 159.561 273.488C156.501 273.488 154.002 272.235 152.065 269.729C150.145 267.222 149.185 263.951 149.185 259.914V259.572ZM153.701 260.085C153.701 263.08 154.32 265.424 155.557 267.116C156.794 268.809 158.503 269.655 160.684 269.655C163.548 269.655 165.64 268.369 166.958 265.798V253.664C165.607 251.174 163.532 249.929 160.732 249.929C158.519 249.929 156.794 250.783 155.557 252.492C154.32 254.201 153.701 256.732 153.701 260.085ZM183.413 273H178.896V246.584H183.413V273ZM178.53 239.577C178.53 238.845 178.75 238.226 179.189 237.722C179.645 237.217 180.312 236.965 181.191 236.965C182.07 236.965 182.738 237.217 183.193 237.722C183.649 238.226 183.877 238.845 183.877 239.577C183.877 240.31 183.649 240.92 183.193 241.408C182.738 241.896 182.07 242.141 181.191 242.141C180.312 242.141 179.645 241.896 179.189 241.408C178.75 240.92 178.53 240.31 178.53 239.577ZM206.973 270.388C205.215 272.455 202.635 273.488 199.233 273.488C196.418 273.488 194.269 272.674 192.788 271.047C191.323 269.403 190.583 266.978 190.566 263.771V246.584H195.083V263.649C195.083 267.653 196.711 269.655 199.966 269.655C203.416 269.655 205.711 268.369 206.851 265.798V246.584H211.367V273H207.07L206.973 270.388ZM222.5 246.584L222.622 249.514C224.559 247.235 227.171 246.096 230.459 246.096C234.154 246.096 236.668 247.512 238.003 250.344C238.882 249.074 240.021 248.049 241.421 247.268C242.837 246.486 244.505 246.096 246.426 246.096C252.22 246.096 255.166 249.164 255.264 255.3V273H250.747V255.568C250.747 253.68 250.316 252.272 249.453 251.345C248.59 250.401 247.142 249.929 245.107 249.929C243.431 249.929 242.039 250.433 240.933 251.442C239.826 252.435 239.183 253.778 239.004 255.471V273H234.463V255.69C234.463 251.849 232.583 249.929 228.823 249.929C225.861 249.929 223.835 251.19 222.744 253.713V273H218.228V246.584H222.5Z" fill="white"/>
<path d="M123.679 313H120.954V294.938L115.49 296.945V294.484L123.254 291.569H123.679V313ZM144.992 303.903C144.992 307.077 144.45 309.436 143.366 310.979C142.282 312.521 140.588 313.293 138.283 313.293C136.008 313.293 134.323 312.541 133.229 311.037C132.136 309.523 131.569 307.268 131.53 304.27V300.651C131.53 297.517 132.072 295.188 133.156 293.664C134.24 292.141 135.939 291.379 138.254 291.379C140.549 291.379 142.238 292.116 143.322 293.591C144.406 295.056 144.963 297.321 144.992 300.388V303.903ZM142.282 300.197C142.282 297.902 141.96 296.232 141.315 295.188C140.671 294.133 139.65 293.605 138.254 293.605C136.867 293.605 135.856 294.128 135.222 295.173C134.587 296.218 134.26 297.824 134.24 299.992V304.328C134.24 306.633 134.572 308.337 135.236 309.44C135.91 310.534 136.926 311.081 138.283 311.081C139.621 311.081 140.612 310.563 141.257 309.528C141.911 308.493 142.253 306.862 142.282 304.636V300.197ZM162.438 313H148.464V311.052L155.847 302.849C156.94 301.608 157.692 300.603 158.103 299.831C158.522 299.05 158.732 298.244 158.732 297.414C158.732 296.301 158.396 295.388 157.722 294.675C157.048 293.962 156.149 293.605 155.026 293.605C153.679 293.605 152.629 293.991 151.877 294.763C151.135 295.524 150.764 296.589 150.764 297.956H148.054C148.054 295.993 148.684 294.406 149.943 293.195C151.213 291.984 152.907 291.379 155.026 291.379C157.009 291.379 158.576 291.901 159.729 292.946C160.881 293.981 161.457 295.363 161.457 297.092C161.457 299.191 160.119 301.691 157.443 304.592L151.73 310.788H162.438V313ZM165.646 311.579C165.646 311.11 165.783 310.72 166.057 310.407C166.34 310.095 166.76 309.938 167.316 309.938C167.873 309.938 168.293 310.095 168.576 310.407C168.869 310.72 169.016 311.11 169.016 311.579C169.016 312.028 168.869 312.404 168.576 312.707C168.293 313.01 167.873 313.161 167.316 313.161C166.76 313.161 166.34 313.01 166.057 312.707C165.783 312.404 165.646 312.028 165.646 311.579ZM183.605 303.625C183.039 304.299 182.36 304.841 181.569 305.251C180.788 305.661 179.929 305.866 178.991 305.866C177.761 305.866 176.687 305.563 175.769 304.958C174.86 304.353 174.157 303.503 173.659 302.409C173.161 301.306 172.912 300.09 172.912 298.762C172.912 297.336 173.181 296.052 173.718 294.909C174.265 293.767 175.036 292.893 176.032 292.287C177.028 291.682 178.19 291.379 179.519 291.379C181.628 291.379 183.288 292.17 184.499 293.752C185.72 295.324 186.33 297.473 186.33 300.197V300.988C186.33 305.139 185.51 308.171 183.869 310.085C182.229 311.989 179.753 312.966 176.442 313.015H175.915V310.729H176.486C178.723 310.69 180.441 310.109 181.643 308.986C182.844 307.854 183.498 306.066 183.605 303.625ZM179.431 303.625C180.339 303.625 181.174 303.347 181.936 302.79C182.707 302.233 183.269 301.545 183.62 300.725V299.641C183.62 297.863 183.234 296.418 182.463 295.305C181.691 294.191 180.715 293.635 179.533 293.635C178.342 293.635 177.385 294.094 176.662 295.012C175.939 295.92 175.578 297.121 175.578 298.615C175.578 300.07 175.925 301.271 176.618 302.219C177.321 303.156 178.259 303.625 179.431 303.625ZM198.972 313H196.247V294.938L190.783 296.945V294.484L198.547 291.569H198.972V313Z" fill="white"/>
</g>
<defs>
<filter id="filter0_d_25:32" x="0" y="0" width="332" height="346" filterUnits="userSpaceOnUse" color-interpolation-filters="sRGB">
<feFlood flood-opacity="0" result="BackgroundImageFix"/>
<feColorMatrix in="SourceAlpha" type="matrix" values="0 0 0 0 0 0 0 0 0 0 0 0 0 0 0 0 0 0 127 0" result="hardAlpha"/>
<feOffset dx="8" dy="9"/>
<feGaussianBlur stdDeviation="2"/>
<feComposite in2="hardAlpha" operator="out"/>
<feColorMatrix type="matrix" values="0 0 0 0 0 0 0 0 0 0 0 0 0 0 0 0 0 0 0.25 0"/>
<feBlend mode="normal" in2="BackgroundImageFix" result="effect1_dropShadow_25:32"/>
<feBlend mode="normal" in="SourceGraphic" in2="effect1_dropShadow_25:32" result="shape"/>
</filter>
<linearGradient id="paint0_linear_25:32" x1="160" y1="0" x2="160" y2="333" gradientUnits="userSpaceOnUse">
<stop stop-color="#007E58"/>
<stop offset="1" stop-color="#2F4D7A" stop-opacity="0.95"/>
</linearGradient>
</defs>
</svg>
