<svg width="332" height="346" viewBox="0 0 332 346" fill="none" xmlns="http://www.w3.org/2000/svg">
<g filter="url(#filter0_d_25:26)">
<rect width="320" height="333" fill="url(#paint0_linear_25:26)"/>
<path d="M38.6177 45.4492H42.563V48.3984H38.6177V55H34.9849V48.3984H22.0356V46.2695L34.77 26.5625H38.6177V45.4492ZM26.1372 45.4492H34.9849V31.5039L34.5552 32.2852L26.1372 45.4492ZM61.0786 45.4492H65.0239V48.3984H61.0786V55H57.4458V48.3984H44.4966V46.2695L57.231 26.5625H61.0786V45.4492ZM48.5981 45.4492H57.4458V31.5039L57.0161 32.2852L48.5981 45.4492ZM68.7349 53.1055C68.7349 52.4805 68.9172 51.9596 69.2817 51.543C69.6593 51.1263 70.2192 50.918 70.9614 50.918C71.7036 50.918 72.2635 51.1263 72.6411 51.543C73.0317 51.9596 73.2271 52.4805 73.2271 53.1055C73.2271 53.7044 73.0317 54.2057 72.6411 54.6094C72.2635 55.013 71.7036 55.2148 70.9614 55.2148C70.2192 55.2148 69.6593 55.013 69.2817 54.6094C68.9172 54.2057 68.7349 53.7044 68.7349 53.1055Z" fill="white"/>
<path d="M111.652 159.48H78.2539V217H59.4062V74.8125H106.477C122.492 74.8125 134.797 78.4583 143.391 85.75C152.049 93.0417 156.379 103.654 156.379 117.586C156.379 126.44 153.97 134.155 149.152 140.73C144.4 147.306 137.759 152.221 129.23 155.477L162.629 215.828V217H142.512L111.652 159.48ZM78.2539 144.148H107.062C116.372 144.148 123.762 141.74 129.23 136.922C134.764 132.104 137.531 125.659 137.531 117.586C137.531 108.797 134.895 102.059 129.621 97.3711C124.413 92.6836 116.861 90.3073 106.965 90.2422H78.2539V144.148ZM245.148 206.551C238.117 214.819 227.798 218.953 214.191 218.953C202.928 218.953 194.335 215.698 188.41 209.188C182.551 202.612 179.589 192.911 179.523 180.086V111.336H197.59V179.598C197.59 195.613 204.1 203.621 217.121 203.621C230.923 203.621 240.103 198.478 244.66 188.191V111.336H262.727V217H245.539L245.148 206.551Z" fill="white"/>
<path d="M57.1631 258.62H48.8135V273H44.1016V237.453H55.8691C59.873 237.453 62.9492 238.365 65.0977 240.188C67.2624 242.01 68.3447 244.663 68.3447 248.146C68.3447 250.36 67.7425 252.289 66.5381 253.933C65.3499 255.576 63.6898 256.805 61.5576 257.619L69.9072 272.707V273H64.8779L57.1631 258.62ZM48.8135 254.787H56.0156C58.3431 254.787 60.1904 254.185 61.5576 252.98C62.9411 251.776 63.6328 250.165 63.6328 248.146C63.6328 245.949 62.9736 244.265 61.6553 243.093C60.3532 241.921 58.4652 241.327 55.9912 241.311H48.8135V254.787ZM90.5371 270.388C88.7793 272.455 86.1995 273.488 82.7979 273.488C79.9821 273.488 77.8337 272.674 76.3525 271.047C74.8877 269.403 74.1471 266.978 74.1309 263.771V246.584H78.6475V263.649C78.6475 267.653 80.2751 269.655 83.5303 269.655C86.9808 269.655 89.2757 268.369 90.415 265.798V246.584H94.9316V273H90.6348L90.5371 270.388ZM107.944 240.188V246.584H112.876V250.075H107.944V266.457C107.944 267.515 108.164 268.312 108.604 268.85C109.043 269.37 109.792 269.631 110.85 269.631C111.37 269.631 112.087 269.533 112.998 269.338V273C111.81 273.326 110.654 273.488 109.531 273.488C107.513 273.488 105.991 272.878 104.966 271.657C103.94 270.437 103.428 268.703 103.428 266.457V250.075H98.6182V246.584H103.428V240.188H107.944ZM122.69 249.782C124.692 247.325 127.297 246.096 130.503 246.096C136.086 246.096 138.901 249.245 138.95 255.544V273H134.434V255.52C134.417 253.615 133.978 252.207 133.115 251.296C132.269 250.384 130.942 249.929 129.136 249.929C127.671 249.929 126.385 250.319 125.278 251.101C124.172 251.882 123.309 252.907 122.69 254.177V273H118.174V235.5H122.69V249.782ZM156.675 273.488C153.094 273.488 150.181 272.316 147.935 269.973C145.688 267.613 144.565 264.463 144.565 260.524V259.694C144.565 257.074 145.062 254.738 146.055 252.688C147.064 250.62 148.464 249.009 150.254 247.854C152.061 246.682 154.014 246.096 156.113 246.096C159.548 246.096 162.217 247.227 164.121 249.489C166.025 251.752 166.978 254.991 166.978 259.206V261.086H149.082C149.147 263.69 149.904 265.798 151.353 267.409C152.817 269.004 154.673 269.802 156.919 269.802C158.514 269.802 159.865 269.476 160.972 268.825C162.078 268.174 163.047 267.312 163.877 266.237L166.636 268.386C164.422 271.787 161.102 273.488 156.675 273.488ZM156.113 249.807C154.29 249.807 152.76 250.474 151.523 251.809C150.286 253.127 149.521 254.982 149.229 257.375H162.461V257.033C162.331 254.738 161.712 252.964 160.605 251.711C159.499 250.441 158.001 249.807 156.113 249.807ZM176.499 246.584L176.646 249.904C178.664 247.365 181.3 246.096 184.556 246.096C190.138 246.096 192.954 249.245 193.003 255.544V273H188.486V255.52C188.47 253.615 188.031 252.207 187.168 251.296C186.322 250.384 184.995 249.929 183.188 249.929C181.724 249.929 180.438 250.319 179.331 251.101C178.224 251.882 177.362 252.907 176.743 254.177V273H172.227V246.584H176.499ZM204.722 273H200.205V246.584H204.722V273ZM199.839 239.577C199.839 238.845 200.059 238.226 200.498 237.722C200.954 237.217 201.621 236.965 202.5 236.965C203.379 236.965 204.046 237.217 204.502 237.722C204.958 238.226 205.186 238.845 205.186 239.577C205.186 240.31 204.958 240.92 204.502 241.408C204.046 241.896 203.379 242.141 202.5 242.141C201.621 242.141 200.954 241.896 200.498 241.408C200.059 240.92 199.839 240.31 199.839 239.577ZM228.281 270.388C226.523 272.455 223.944 273.488 220.542 273.488C217.726 273.488 215.578 272.674 214.097 271.047C212.632 269.403 211.891 266.978 211.875 263.771V246.584H216.392V263.649C216.392 267.653 218.019 269.655 221.274 269.655C224.725 269.655 227.02 268.369 228.159 265.798V246.584H232.676V273H228.379L228.281 270.388ZM243.809 246.584L243.931 249.514C245.868 247.235 248.48 246.096 251.768 246.096C255.462 246.096 257.977 247.512 259.312 250.344C260.19 249.074 261.33 248.049 262.729 247.268C264.146 246.486 265.814 246.096 267.734 246.096C273.529 246.096 276.475 249.164 276.572 255.3V273H272.056V255.568C272.056 253.68 271.624 252.272 270.762 251.345C269.899 250.401 268.451 249.929 266.416 249.929C264.74 249.929 263.348 250.433 262.241 251.442C261.134 252.435 260.492 253.778 260.312 255.471V273H255.771V255.69C255.771 251.849 253.892 249.929 250.132 249.929C247.17 249.929 245.143 251.19 244.053 253.713V273H239.536V246.584H243.809Z" fill="white"/>
<path d="M123.679 313H120.954V294.938L115.49 296.945V294.484L123.254 291.569H123.679V313ZM144.992 303.903C144.992 307.077 144.45 309.436 143.366 310.979C142.282 312.521 140.588 313.293 138.283 313.293C136.008 313.293 134.323 312.541 133.229 311.037C132.136 309.523 131.569 307.268 131.53 304.27V300.651C131.53 297.517 132.072 295.188 133.156 293.664C134.24 292.141 135.939 291.379 138.254 291.379C140.549 291.379 142.238 292.116 143.322 293.591C144.406 295.056 144.963 297.321 144.992 300.388V303.903ZM142.282 300.197C142.282 297.902 141.96 296.232 141.315 295.188C140.671 294.133 139.65 293.605 138.254 293.605C136.867 293.605 135.856 294.128 135.222 295.173C134.587 296.218 134.26 297.824 134.24 299.992V304.328C134.24 306.633 134.572 308.337 135.236 309.44C135.91 310.534 136.926 311.081 138.283 311.081C139.621 311.081 140.612 310.563 141.257 309.528C141.911 308.493 142.253 306.862 142.282 304.636V300.197ZM157.37 313H154.646V294.938L149.182 296.945V294.484L156.945 291.569H157.37V313ZM165.646 311.579C165.646 311.11 165.783 310.72 166.057 310.407C166.34 310.095 166.76 309.938 167.316 309.938C167.873 309.938 168.293 310.095 168.576 310.407C168.869 310.72 169.016 311.11 169.016 311.579C169.016 312.028 168.869 312.404 168.576 312.707C168.293 313.01 167.873 313.161 167.316 313.161C166.76 313.161 166.34 313.01 166.057 312.707C165.783 312.404 165.646 312.028 165.646 311.579ZM186.594 303.903C186.594 307.077 186.052 309.436 184.968 310.979C183.884 312.521 182.189 313.293 179.885 313.293C177.609 313.293 175.925 312.541 174.831 311.037C173.737 309.523 173.171 307.268 173.132 304.27V300.651C173.132 297.517 173.674 295.188 174.758 293.664C175.842 292.141 177.541 291.379 179.855 291.379C182.15 291.379 183.84 292.116 184.924 293.591C186.008 295.056 186.564 297.321 186.594 300.388V303.903ZM183.884 300.197C183.884 297.902 183.562 296.232 182.917 295.188C182.272 294.133 181.252 293.605 179.855 293.605C178.469 293.605 177.458 294.128 176.823 295.173C176.188 296.218 175.861 297.824 175.842 299.992V304.328C175.842 306.633 176.174 308.337 176.838 309.44C177.512 310.534 178.527 311.081 179.885 311.081C181.223 311.081 182.214 310.563 182.858 309.528C183.513 308.493 183.854 306.862 183.884 304.636V300.197ZM203.835 293.195L195.002 313H192.16L200.964 293.898H189.421V291.672H203.835V293.195Z" fill="white"/>
</g>
<defs>
<filter id="filter0_d_25:26" x="0" y="0" width="332" height="346" filterUnits="userSpaceOnUse" color-interpolation-filters="sRGB">
<feFlood flood-opacity="0" result="BackgroundImageFix"/>
<feColorMatrix in="SourceAlpha" type="matrix" values="0 0 0 0 0 0 0 0 0 0 0 0 0 0 0 0 0 0 127 0" result="hardAlpha"/>
<feOffset dx="8" dy="9"/>
<feGaussianBlur stdDeviation="2"/>
<feComposite in2="hardAlpha" operator="out"/>
<feColorMatrix type="matrix" values="0 0 0 0 0 0 0 0 0 0 0 0 0 0 0 0 0 0 0.25 0"/>
<feBlend mode="normal" in2="BackgroundImageFix" result="effect1_dropShadow_25:26"/>
<feBlend mode="normal" in="SourceGraphic" in2="effect1_dropShadow_25:26" result="shape"/>
</filter>
<linearGradient id="paint0_linear_25:26" x1="160" y1="0" x2="160" y2="333" gradientUnits="userSpaceOnUse">
<stop stop-color="#007E58"/>
<stop offset="1" stop-color="#2F4D7A" stop-opacity="0.95"/>
</linearGradient>
</defs>
</svg>
