<svg width="332" height="346" viewBox="0 0 332 346" fill="none" xmlns="http://www.w3.org/2000/svg">
<g filter="url(#filter0_d)">
<rect width="320" height="333" fill="url(#paint0_linear)"/>
<path d="M106.398 153.621C90.3177 148.999 78.599 143.335 71.2422 136.629C63.9505 129.858 60.3047 121.525 60.3047 111.629C60.3047 100.431 64.7643 91.1862 73.6836 83.8945C82.668 76.5378 94.3216 72.8594 108.645 72.8594C118.41 72.8594 127.102 74.7474 134.719 78.5234C142.401 82.2995 148.326 87.5078 152.492 94.1484C156.724 100.789 158.84 108.048 158.84 115.926H139.992C139.992 107.332 137.258 100.594 131.789 95.7109C126.32 90.763 118.605 88.2891 108.645 88.2891C99.3997 88.2891 92.1732 90.3398 86.9648 94.4414C81.8216 98.4779 79.25 104.109 79.25 111.336C79.25 117.13 81.6914 122.046 86.5742 126.082C91.5221 130.053 99.888 133.699 111.672 137.02C123.521 140.34 132.766 144.018 139.406 148.055C146.112 152.026 151.06 156.681 154.25 162.02C157.505 167.358 159.133 173.641 159.133 180.867C159.133 192.391 154.641 201.635 145.656 208.602C136.672 215.503 124.66 218.953 109.621 218.953C99.8555 218.953 90.7409 217.098 82.2773 213.387C73.8138 209.611 67.2708 204.467 62.6484 197.957C58.0911 191.447 55.8125 184.057 55.8125 175.789H74.6602C74.6602 184.383 77.8177 191.186 84.1328 196.199C90.513 201.147 99.0091 203.621 109.621 203.621C119.517 203.621 127.102 201.603 132.375 197.566C137.648 193.53 140.285 188.029 140.285 181.062C140.285 174.096 137.844 168.725 132.961 164.949C128.078 161.108 119.224 157.332 106.398 153.621ZM222.805 204.207C229.25 204.207 234.882 202.254 239.699 198.348C244.517 194.441 247.186 189.559 247.707 183.699H264.797C264.471 189.754 262.388 195.516 258.547 200.984C254.706 206.453 249.562 210.815 243.117 214.07C236.737 217.326 229.966 218.953 222.805 218.953C208.417 218.953 196.958 214.168 188.43 204.598C179.966 194.962 175.734 181.811 175.734 165.145V162.117C175.734 151.831 177.622 142.684 181.398 134.676C185.174 126.668 190.578 120.451 197.609 116.023C204.706 111.596 213.072 109.383 222.707 109.383C234.556 109.383 244.387 112.931 252.199 120.027C260.077 127.124 264.276 136.336 264.797 147.664H247.707C247.186 140.828 244.582 135.229 239.895 130.867C235.272 126.44 229.543 124.227 222.707 124.227C213.527 124.227 206.398 127.547 201.32 134.188C196.307 140.763 193.801 150.301 193.801 162.801V166.219C193.801 178.393 196.307 187.768 201.32 194.344C206.333 200.919 213.495 204.207 222.805 204.207Z" fill="white"/>
<path d="M41.9961 55H23.3633V52.4023L33.207 41.4648C34.6654 39.8112 35.668 38.4701 36.2148 37.4414C36.7747 36.3997 37.0547 35.3255 37.0547 34.2188C37.0547 32.7344 36.6055 31.5169 35.707 30.5664C34.8086 29.6159 33.6107 29.1406 32.1133 29.1406C30.3164 29.1406 28.9167 29.6549 27.9141 30.6836C26.9245 31.6992 26.4297 33.1185 26.4297 34.9414H22.8164C22.8164 32.3242 23.6562 30.2083 25.3359 28.5938C27.0286 26.9792 29.2878 26.1719 32.1133 26.1719C34.7565 26.1719 36.8464 26.8685 38.3828 28.2617C39.9193 29.6419 40.6875 31.4844 40.6875 33.7891C40.6875 36.5885 38.9036 39.9219 35.3359 43.7891L27.7188 52.0508H41.9961V55ZM57.6992 55H54.0664V30.918L46.7812 33.5938V30.3125L57.1328 26.4258H57.6992V55ZM68.7344 53.1055C68.7344 52.4805 68.9167 51.9596 69.2812 51.543C69.6589 51.1263 70.2188 50.918 70.9609 50.918C71.7031 50.918 72.263 51.1263 72.6406 51.543C73.0312 51.9596 73.2266 52.4805 73.2266 53.1055C73.2266 53.7044 73.0312 54.2057 72.6406 54.6094C72.263 55.013 71.7031 55.2148 70.9609 55.2148C70.2188 55.2148 69.6589 55.013 69.2812 54.6094C68.9167 54.2057 68.7344 53.7044 68.7344 53.1055Z" fill="white"/>
<path d="M62.5996 257.155C58.5794 256 55.6497 254.584 53.8105 252.907C51.9876 251.215 51.0762 249.131 51.0762 246.657C51.0762 243.858 52.1911 241.547 54.4209 239.724C56.667 237.884 59.5804 236.965 63.1611 236.965C65.6025 236.965 67.7754 237.437 69.6797 238.381C71.6003 239.325 73.0814 240.627 74.123 242.287C75.181 243.947 75.71 245.762 75.71 247.731H70.998C70.998 245.583 70.3145 243.898 68.9473 242.678C67.5801 241.441 65.6514 240.822 63.1611 240.822C60.8499 240.822 59.0433 241.335 57.7412 242.36C56.4554 243.369 55.8125 244.777 55.8125 246.584C55.8125 248.033 56.4229 249.261 57.6436 250.271C58.8805 251.263 60.972 252.175 63.918 253.005C66.8802 253.835 69.1914 254.755 70.8516 255.764C72.528 256.757 73.765 257.92 74.5625 259.255C75.3763 260.59 75.7832 262.16 75.7832 263.967C75.7832 266.848 74.6602 269.159 72.4141 270.9C70.168 272.626 67.165 273.488 63.4053 273.488C60.9639 273.488 58.6852 273.024 56.5693 272.097C54.4535 271.153 52.8177 269.867 51.6621 268.239C50.5228 266.612 49.9531 264.764 49.9531 262.697H54.665C54.665 264.846 55.4544 266.547 57.0332 267.8C58.6283 269.037 60.7523 269.655 63.4053 269.655C65.8792 269.655 67.7754 269.151 69.0938 268.142C70.4121 267.132 71.0713 265.757 71.0713 264.016C71.0713 262.274 70.4609 260.931 69.2402 259.987C68.0195 259.027 65.806 258.083 62.5996 257.155ZM91.7012 269.802C93.3125 269.802 94.7204 269.313 95.9248 268.337C97.1292 267.36 97.7965 266.14 97.9268 264.675H102.199C102.118 266.188 101.597 267.629 100.637 268.996C99.6764 270.363 98.3906 271.454 96.7793 272.268C95.1842 273.081 93.4915 273.488 91.7012 273.488C88.1042 273.488 85.2396 272.292 83.1074 269.899C80.9915 267.491 79.9336 264.203 79.9336 260.036V259.279C79.9336 256.708 80.4056 254.421 81.3496 252.419C82.2936 250.417 83.6445 248.863 85.4023 247.756C87.1764 246.649 89.2679 246.096 91.6768 246.096C94.639 246.096 97.0967 246.983 99.0498 248.757C101.019 250.531 102.069 252.834 102.199 255.666H97.9268C97.7965 253.957 97.1455 252.557 95.9736 251.467C94.818 250.36 93.3857 249.807 91.6768 249.807C89.3818 249.807 87.5996 250.637 86.3301 252.297C85.0768 253.941 84.4502 256.325 84.4502 259.45V260.305C84.4502 263.348 85.0768 265.692 86.3301 267.336C87.5833 268.98 89.3737 269.802 91.7012 269.802ZM123.586 273C123.326 272.479 123.114 271.551 122.951 270.217C120.852 272.398 118.345 273.488 115.432 273.488C112.827 273.488 110.687 272.756 109.011 271.291C107.351 269.81 106.521 267.938 106.521 265.676C106.521 262.925 107.562 260.793 109.646 259.279C111.745 257.749 114.691 256.984 118.483 256.984H122.878V254.909C122.878 253.33 122.406 252.077 121.462 251.149C120.518 250.205 119.126 249.733 117.287 249.733C115.676 249.733 114.325 250.14 113.234 250.954C112.144 251.768 111.599 252.753 111.599 253.908H107.058C107.058 252.59 107.521 251.32 108.449 250.1C109.393 248.863 110.663 247.886 112.258 247.17C113.869 246.454 115.635 246.096 117.556 246.096C120.599 246.096 122.984 246.861 124.709 248.391C126.434 249.904 127.329 251.996 127.395 254.665V266.823C127.395 269.248 127.704 271.177 128.322 272.609V273H123.586ZM116.091 269.558C117.507 269.558 118.85 269.191 120.119 268.459C121.389 267.727 122.308 266.774 122.878 265.603V260.183H119.338C113.804 260.183 111.037 261.802 111.037 265.041C111.037 266.457 111.509 267.564 112.453 268.361C113.397 269.159 114.61 269.558 116.091 269.558ZM138.747 246.584L138.894 249.904C140.912 247.365 143.549 246.096 146.804 246.096C152.386 246.096 155.202 249.245 155.251 255.544V273H150.734V255.52C150.718 253.615 150.279 252.207 149.416 251.296C148.57 250.384 147.243 249.929 145.437 249.929C143.972 249.929 142.686 250.319 141.579 251.101C140.472 251.882 139.61 252.907 138.991 254.177V273H134.475V246.584H138.747ZM160.964 259.572C160.964 255.52 161.924 252.264 163.845 249.807C165.765 247.333 168.28 246.096 171.389 246.096C174.481 246.096 176.931 247.154 178.737 249.27V235.5H183.254V273H179.104L178.884 270.168C177.077 272.382 174.562 273.488 171.34 273.488C168.28 273.488 165.782 272.235 163.845 269.729C161.924 267.222 160.964 263.951 160.964 259.914V259.572ZM165.48 260.085C165.48 263.08 166.099 265.424 167.336 267.116C168.573 268.809 170.282 269.655 172.463 269.655C175.327 269.655 177.419 268.369 178.737 265.798V253.664C177.386 251.174 175.311 249.929 172.512 249.929C170.298 249.929 168.573 250.783 167.336 252.492C166.099 254.201 165.48 256.732 165.48 260.085ZM195.192 273H190.676V246.584H195.192V273ZM190.31 239.577C190.31 238.845 190.529 238.226 190.969 237.722C191.424 237.217 192.092 236.965 192.971 236.965C193.85 236.965 194.517 237.217 194.973 237.722C195.428 238.226 195.656 238.845 195.656 239.577C195.656 240.31 195.428 240.92 194.973 241.408C194.517 241.896 193.85 242.141 192.971 242.141C192.092 242.141 191.424 241.896 190.969 241.408C190.529 240.92 190.31 240.31 190.31 239.577ZM218.752 270.388C216.994 272.455 214.414 273.488 211.013 273.488C208.197 273.488 206.049 272.674 204.567 271.047C203.103 269.403 202.362 266.978 202.346 263.771V246.584H206.862V263.649C206.862 267.653 208.49 269.655 211.745 269.655C215.196 269.655 217.491 268.369 218.63 265.798V246.584H223.146V273H218.85L218.752 270.388ZM234.279 246.584L234.401 249.514C236.338 247.235 238.951 246.096 242.238 246.096C245.933 246.096 248.448 247.512 249.782 250.344C250.661 249.074 251.8 248.049 253.2 247.268C254.616 246.486 256.285 246.096 258.205 246.096C263.999 246.096 266.945 249.164 267.043 255.3V273H262.526V255.568C262.526 253.68 262.095 252.272 261.232 251.345C260.37 250.401 258.921 249.929 256.887 249.929C255.21 249.929 253.819 250.433 252.712 251.442C251.605 252.435 250.962 253.778 250.783 255.471V273H246.242V255.69C246.242 251.849 244.362 249.929 240.603 249.929C237.64 249.929 235.614 251.19 234.523 253.713V273H230.007V246.584H234.279Z" fill="white"/>
<path d="M126.213 305.837H129.172V308.049H126.213V313H123.488V308.049H113.776V306.452L123.327 291.672H126.213V305.837ZM116.853 305.837H123.488V295.378L123.166 295.964L116.853 305.837ZM143.059 305.837H146.018V308.049H143.059V313H140.334V308.049H130.622V306.452L140.173 291.672H143.059V305.837ZM133.698 305.837H140.334V295.378L140.012 295.964L133.698 305.837ZM148.801 311.579C148.801 311.11 148.938 310.72 149.211 310.407C149.494 310.095 149.914 309.938 150.471 309.938C151.027 309.938 151.447 310.095 151.73 310.407C152.023 310.72 152.17 311.11 152.17 311.579C152.17 312.028 152.023 312.404 151.73 312.707C151.447 313.01 151.027 313.161 150.471 313.161C149.914 313.161 149.494 313.01 149.211 312.707C148.938 312.404 148.801 312.028 148.801 311.579ZM166.76 303.625C166.193 304.299 165.515 304.841 164.724 305.251C163.942 305.661 163.083 305.866 162.146 305.866C160.915 305.866 159.841 305.563 158.923 304.958C158.015 304.353 157.312 303.503 156.813 302.409C156.315 301.306 156.066 300.09 156.066 298.762C156.066 297.336 156.335 296.052 156.872 294.909C157.419 293.767 158.19 292.893 159.187 292.287C160.183 291.682 161.345 291.379 162.673 291.379C164.782 291.379 166.442 292.17 167.653 293.752C168.874 295.324 169.484 297.473 169.484 300.197V300.988C169.484 305.139 168.664 308.171 167.023 310.085C165.383 311.989 162.907 312.966 159.597 313.015H159.069V310.729H159.641C161.877 310.69 163.596 310.109 164.797 308.986C165.998 307.854 166.652 306.066 166.76 303.625ZM162.585 303.625C163.493 303.625 164.328 303.347 165.09 302.79C165.861 302.233 166.423 301.545 166.774 300.725V299.641C166.774 297.863 166.389 296.418 165.617 295.305C164.846 294.191 163.869 293.635 162.688 293.635C161.496 293.635 160.539 294.094 159.816 295.012C159.094 295.92 158.732 297.121 158.732 298.615C158.732 300.07 159.079 301.271 159.772 302.219C160.476 303.156 161.413 303.625 162.585 303.625ZM174.465 302.307L175.549 291.672H186.477V294.177H177.849L177.204 299.992C178.249 299.377 179.436 299.069 180.764 299.069C182.707 299.069 184.25 299.714 185.393 301.003C186.535 302.282 187.106 304.016 187.106 306.203C187.106 308.4 186.511 310.134 185.319 311.403C184.138 312.663 182.482 313.293 180.354 313.293C178.469 313.293 176.931 312.771 175.739 311.726C174.548 310.681 173.869 309.235 173.703 307.39H176.267C176.433 308.61 176.867 309.533 177.57 310.158C178.273 310.773 179.201 311.081 180.354 311.081C181.613 311.081 182.6 310.651 183.312 309.792C184.035 308.933 184.396 307.746 184.396 306.232C184.396 304.807 184.006 303.664 183.225 302.805C182.453 301.936 181.423 301.501 180.134 301.501C178.952 301.501 178.024 301.76 177.351 302.277L176.633 302.863L174.465 302.307ZM200.7 291.657V293.957H200.202C198.093 293.996 196.413 294.621 195.163 295.832C193.913 297.043 193.19 298.747 192.995 300.944C194.118 299.655 195.651 299.011 197.595 299.011C199.45 299.011 200.93 299.665 202.033 300.974C203.146 302.282 203.703 303.972 203.703 306.042C203.703 308.239 203.103 309.997 201.901 311.315C200.71 312.634 199.108 313.293 197.097 313.293C195.056 313.293 193.4 312.512 192.131 310.949C190.861 309.377 190.227 307.355 190.227 304.885V303.845C190.227 299.919 191.062 296.921 192.731 294.851C194.411 292.771 196.906 291.706 200.217 291.657H200.7ZM197.141 301.267C196.213 301.267 195.358 301.545 194.577 302.102C193.796 302.658 193.254 303.356 192.951 304.196V305.192C192.951 306.95 193.347 308.366 194.138 309.44C194.929 310.515 195.915 311.052 197.097 311.052C198.317 311.052 199.274 310.603 199.968 309.704C200.671 308.806 201.022 307.629 201.022 306.174C201.022 304.709 200.666 303.527 199.953 302.629C199.25 301.721 198.312 301.267 197.141 301.267Z" fill="white"/>
</g>
<defs>
<filter id="filter0_d" x="0" y="0" width="332" height="346" filterUnits="userSpaceOnUse" color-interpolation-filters="sRGB">
<feFlood flood-opacity="0" result="BackgroundImageFix"/>
<feColorMatrix in="SourceAlpha" type="matrix" values="0 0 0 0 0 0 0 0 0 0 0 0 0 0 0 0 0 0 127 0" result="hardAlpha"/>
<feOffset dx="8" dy="9"/>
<feGaussianBlur stdDeviation="2"/>
<feComposite in2="hardAlpha" operator="out"/>
<feColorMatrix type="matrix" values="0 0 0 0 0 0 0 0 0 0 0 0 0 0 0 0 0 0 0.25 0"/>
<feBlend mode="normal" in2="BackgroundImageFix" result="effect1_dropShadow"/>
<feBlend mode="normal" in="SourceGraphic" in2="effect1_dropShadow" result="shape"/>
</filter>
<linearGradient id="paint0_linear" x1="160" y1="0" x2="160" y2="333" gradientUnits="userSpaceOnUse">
<stop stop-color="#007E58"/>
<stop offset="1" stop-color="#2F4D7A" stop-opacity="0.95"/>
</linearGradient>
</defs>
</svg>
