<svg width="332" height="346" viewBox="0 0 332 346" fill="none" xmlns="http://www.w3.org/2000/svg">
<g filter="url(#filter0_d_45:2)">
<rect width="320" height="333" fill="url(#paint0_linear_45:2)"/>
<path d="M35.2383 55H31.6055V30.918L24.3203 33.5938V30.3125L34.6719 26.4258H35.2383V55ZM63.6562 42.8711C63.6562 47.1029 62.9336 50.2474 61.4883 52.3047C60.043 54.362 57.7839 55.3906 54.7109 55.3906C51.6771 55.3906 49.431 54.388 47.9727 52.3828C46.5143 50.3646 45.7591 47.3568 45.707 43.3594V38.5352C45.707 34.3555 46.4297 31.25 47.875 29.2188C49.3203 27.1875 51.5859 26.1719 54.6719 26.1719C57.7318 26.1719 59.9844 27.1549 61.4297 29.1211C62.875 31.0742 63.6172 34.0951 63.6562 38.1836V42.8711ZM60.043 37.9297C60.043 34.8698 59.6133 32.6432 58.7539 31.25C57.8945 29.8438 56.5339 29.1406 54.6719 29.1406C52.8229 29.1406 51.4753 29.8372 50.6289 31.2305C49.7826 32.6237 49.3464 34.7656 49.3203 37.6562V43.4375C49.3203 46.5104 49.763 48.7826 50.6484 50.2539C51.5469 51.7122 52.901 52.4414 54.7109 52.4414C56.4948 52.4414 57.8164 51.7513 58.6758 50.3711C59.5482 48.9909 60.0039 46.8164 60.043 43.8477V37.9297ZM82.4648 26.543V29.6094H81.8008C78.9883 29.6615 76.7487 30.4948 75.082 32.1094C73.4154 33.724 72.4518 35.9961 72.1914 38.9258C73.6888 37.207 75.7331 36.3477 78.3242 36.3477C80.7982 36.3477 82.7708 37.2201 84.2422 38.9648C85.7266 40.7096 86.4688 42.9622 86.4688 45.7227C86.4688 48.6523 85.668 50.9961 84.0664 52.7539C82.4779 54.5117 80.3424 55.3906 77.6602 55.3906C74.9388 55.3906 72.7318 54.349 71.0391 52.2656C69.3464 50.1693 68.5 47.474 68.5 44.1797V42.793C68.5 37.5586 69.6133 33.5612 71.8398 30.8008C74.0794 28.0273 77.4062 26.6081 81.8203 26.543H82.4648ZM77.7188 39.3555C76.4818 39.3555 75.3424 39.7266 74.3008 40.4688C73.2591 41.2109 72.5365 42.1419 72.1328 43.2617V44.5898C72.1328 46.9336 72.6602 48.8216 73.7148 50.2539C74.7695 51.6862 76.0846 52.4023 77.6602 52.4023C79.2878 52.4023 80.5638 51.8034 81.4883 50.6055C82.4258 49.4076 82.8945 47.8385 82.8945 45.8984C82.8945 43.9453 82.4193 42.3698 81.4688 41.1719C80.5312 39.9609 79.2812 39.3555 77.7188 39.3555ZM91.1953 53.1055C91.1953 52.4805 91.3776 51.9596 91.7422 51.543C92.1198 51.1263 92.6797 50.918 93.4219 50.918C94.1641 50.918 94.724 51.1263 95.1016 51.543C95.4922 51.9596 95.6875 52.4805 95.6875 53.1055C95.6875 53.7044 95.4922 54.2057 95.1016 54.6094C94.724 55.013 94.1641 55.2148 93.4219 55.2148C92.6797 55.2148 92.1198 55.013 91.7422 54.6094C91.3776 54.2057 91.1953 53.7044 91.1953 53.1055Z" fill="white"/>
<path d="M102.398 153.621C86.3177 148.999 74.599 143.335 67.2422 136.629C59.9505 129.858 56.3047 121.525 56.3047 111.629C56.3047 100.431 60.7643 91.1862 69.6836 83.8945C78.668 76.5378 90.3216 72.8594 104.645 72.8594C114.41 72.8594 123.102 74.7474 130.719 78.5234C138.401 82.2995 144.326 87.5078 148.492 94.1484C152.724 100.789 154.84 108.048 154.84 115.926H135.992C135.992 107.332 133.258 100.594 127.789 95.7109C122.32 90.763 114.605 88.2891 104.645 88.2891C95.3997 88.2891 88.1732 90.3398 82.9648 94.4414C77.8216 98.4779 75.25 104.109 75.25 111.336C75.25 117.13 77.6914 122.046 82.5742 126.082C87.5221 130.053 95.888 133.699 107.672 137.02C119.521 140.34 128.766 144.018 135.406 148.055C142.112 152.026 147.06 156.681 150.25 162.02C153.505 167.358 155.133 173.641 155.133 180.867C155.133 192.391 150.641 201.635 141.656 208.602C132.672 215.503 120.66 218.953 105.621 218.953C95.8555 218.953 86.7409 217.098 78.2773 213.387C69.8138 209.611 63.2708 204.467 58.6484 197.957C54.0911 191.447 51.8125 184.057 51.8125 175.789H70.6602C70.6602 184.383 73.8177 191.186 80.1328 196.199C86.513 201.147 95.0091 203.621 105.621 203.621C115.517 203.621 123.102 201.603 128.375 197.566C133.648 193.53 136.285 188.029 136.285 181.062C136.285 174.096 133.844 168.725 128.961 164.949C124.078 161.108 115.224 157.332 102.398 153.621ZM172.125 163.289C172.125 146.818 175.934 133.732 183.551 124.031C191.168 114.266 201.259 109.383 213.824 109.383C226.715 109.383 236.773 113.94 244 123.055L244.879 111.336H261.383V214.461C261.383 228.133 257.314 238.908 249.176 246.785C241.103 254.663 230.23 258.602 216.559 258.602C208.941 258.602 201.487 256.974 194.195 253.719C186.904 250.464 181.337 246.004 177.496 240.34L186.871 229.5C194.618 239.07 204.091 243.855 215.289 243.855C224.078 243.855 230.914 241.382 235.797 236.434C240.745 231.486 243.219 224.52 243.219 215.535V206.453C235.992 214.786 226.129 218.953 213.629 218.953C201.259 218.953 191.233 213.973 183.551 204.012C175.934 194.051 172.125 180.477 172.125 163.289ZM190.289 165.34C190.289 177.254 192.73 186.629 197.613 193.465C202.496 200.236 209.332 203.621 218.121 203.621C229.514 203.621 237.88 198.445 243.219 188.094V139.852C237.685 129.76 229.384 124.715 218.316 124.715C209.527 124.715 202.659 128.133 197.711 134.969C192.763 141.805 190.289 151.928 190.289 165.34Z" fill="white"/>
<path d="M39.5996 257.155C35.5794 256 32.6497 254.584 30.8105 252.907C28.9876 251.215 28.0762 249.131 28.0762 246.657C28.0762 243.858 29.1911 241.547 31.4209 239.724C33.667 237.884 36.5804 236.965 40.1611 236.965C42.6025 236.965 44.7754 237.437 46.6797 238.381C48.6003 239.325 50.0814 240.627 51.123 242.287C52.181 243.947 52.71 245.762 52.71 247.731H47.998C47.998 245.583 47.3145 243.898 45.9473 242.678C44.5801 241.441 42.6514 240.822 40.1611 240.822C37.8499 240.822 36.0433 241.335 34.7412 242.36C33.4554 243.369 32.8125 244.777 32.8125 246.584C32.8125 248.033 33.4229 249.261 34.6436 250.271C35.8805 251.263 37.972 252.175 40.918 253.005C43.8802 253.835 46.1914 254.755 47.8516 255.764C49.528 256.757 50.765 257.92 51.5625 259.255C52.3763 260.59 52.7832 262.16 52.7832 263.967C52.7832 266.848 51.6602 269.159 49.4141 270.9C47.168 272.626 44.165 273.488 40.4053 273.488C37.9639 273.488 35.6852 273.024 33.5693 272.097C31.4535 271.153 29.8177 269.867 28.6621 268.239C27.5228 266.612 26.9531 264.764 26.9531 262.697H31.665C31.665 264.846 32.4544 266.547 34.0332 267.8C35.6283 269.037 37.7523 269.655 40.4053 269.655C42.8792 269.655 44.7754 269.151 46.0938 268.142C47.4121 267.132 48.0713 265.757 48.0713 264.016C48.0713 262.274 47.4609 260.931 46.2402 259.987C45.0195 259.027 42.806 258.083 39.5996 257.155ZM69.0674 273.488C65.4867 273.488 62.5732 272.316 60.3271 269.973C58.0811 267.613 56.958 264.463 56.958 260.524V259.694C56.958 257.074 57.4544 254.738 58.4473 252.688C59.4564 250.62 60.8561 249.009 62.6465 247.854C64.4531 246.682 66.4062 246.096 68.5059 246.096C71.9401 246.096 74.6094 247.227 76.5137 249.489C78.418 251.752 79.3701 254.991 79.3701 259.206V261.086H61.4746C61.5397 263.69 62.2965 265.798 63.7451 267.409C65.21 269.004 67.0654 269.802 69.3115 269.802C70.9066 269.802 72.2575 269.476 73.3643 268.825C74.471 268.174 75.4395 267.312 76.2695 266.237L79.0283 268.386C76.8148 271.787 73.4945 273.488 69.0674 273.488ZM68.5059 249.807C66.6829 249.807 65.153 250.474 63.916 251.809C62.679 253.127 61.9141 254.982 61.6211 257.375H74.8535V257.033C74.7233 254.738 74.1048 252.964 72.998 251.711C71.8913 250.441 70.3939 249.807 68.5059 249.807ZM100.928 273C100.667 272.479 100.456 271.551 100.293 270.217C98.1934 272.398 95.6868 273.488 92.7734 273.488C90.1693 273.488 88.029 272.756 86.3525 271.291C84.6924 269.81 83.8623 267.938 83.8623 265.676C83.8623 262.925 84.904 260.793 86.9873 259.279C89.0869 257.749 92.0329 256.984 95.8252 256.984H100.22V254.909C100.22 253.33 99.7477 252.077 98.8037 251.149C97.8597 250.205 96.4681 249.733 94.6289 249.733C93.0176 249.733 91.6667 250.14 90.5762 250.954C89.4857 251.768 88.9404 252.753 88.9404 253.908H84.3994C84.3994 252.59 84.8633 251.32 85.791 250.1C86.735 248.863 88.0046 247.886 89.5996 247.17C91.2109 246.454 92.9769 246.096 94.8975 246.096C97.9411 246.096 100.326 246.861 102.051 248.391C103.776 249.904 104.671 251.996 104.736 254.665V266.823C104.736 269.248 105.046 271.177 105.664 272.609V273H100.928ZM93.4326 269.558C94.8486 269.558 96.1914 269.191 97.4609 268.459C98.7305 267.727 99.6501 266.774 100.22 265.603V260.183H96.6797C91.1458 260.183 88.3789 261.802 88.3789 265.041C88.3789 266.457 88.8509 267.564 89.7949 268.361C90.7389 269.159 91.9515 269.558 93.4326 269.558ZM134.18 260.085C134.18 264.121 133.252 267.368 131.396 269.826C129.541 272.268 127.051 273.488 123.926 273.488C120.589 273.488 118.009 272.308 116.187 269.948L115.967 273H111.816V235.5H116.333V249.489C118.156 247.227 120.671 246.096 123.877 246.096C127.083 246.096 129.598 247.308 131.421 249.733C133.26 252.159 134.18 255.479 134.18 259.694V260.085ZM129.663 259.572C129.663 256.496 129.069 254.12 127.881 252.443C126.693 250.767 124.984 249.929 122.754 249.929C119.775 249.929 117.635 251.312 116.333 254.079V265.505C117.716 268.272 119.873 269.655 122.803 269.655C124.967 269.655 126.652 268.817 127.856 267.141C129.061 265.464 129.663 262.941 129.663 259.572ZM138.696 259.548C138.696 256.96 139.201 254.632 140.21 252.565C141.235 250.498 142.651 248.903 144.458 247.78C146.281 246.657 148.356 246.096 150.684 246.096C154.281 246.096 157.186 247.341 159.399 249.831C161.629 252.321 162.744 255.633 162.744 259.768V260.085C162.744 262.657 162.248 264.968 161.255 267.019C160.278 269.053 158.87 270.64 157.031 271.779C155.208 272.919 153.109 273.488 150.732 273.488C147.152 273.488 144.246 272.243 142.017 269.753C139.803 267.263 138.696 263.967 138.696 259.865V259.548ZM143.237 260.085C143.237 263.015 143.913 265.367 145.264 267.141C146.631 268.915 148.454 269.802 150.732 269.802C153.027 269.802 154.85 268.907 156.201 267.116C157.552 265.31 158.228 262.787 158.228 259.548C158.228 256.651 157.536 254.307 156.152 252.517C154.785 250.71 152.962 249.807 150.684 249.807C148.454 249.807 146.655 250.694 145.288 252.468C143.921 254.242 143.237 256.781 143.237 260.085ZM181.177 250.637C180.493 250.523 179.753 250.466 178.955 250.466C175.993 250.466 173.983 251.727 172.925 254.25V273H168.408V246.584H172.803L172.876 249.636C174.357 247.276 176.457 246.096 179.175 246.096C180.054 246.096 180.721 246.21 181.177 246.438V250.637ZM183.789 259.572C183.789 255.454 184.741 252.183 186.646 249.758C188.55 247.316 191.073 246.096 194.214 246.096C197.437 246.096 199.951 247.235 201.758 249.514L201.978 246.584H206.104V272.365C206.104 275.783 205.086 278.477 203.052 280.446C201.034 282.416 198.315 283.4 194.897 283.4C192.993 283.4 191.13 282.993 189.307 282.18C187.484 281.366 186.092 280.251 185.132 278.835L187.476 276.125C189.412 278.518 191.781 279.714 194.58 279.714C196.777 279.714 198.486 279.095 199.707 277.858C200.944 276.621 201.562 274.88 201.562 272.634V270.363C199.756 272.447 197.29 273.488 194.165 273.488C191.073 273.488 188.566 272.243 186.646 269.753C184.741 267.263 183.789 263.869 183.789 259.572ZM188.33 260.085C188.33 263.063 188.94 265.407 190.161 267.116C191.382 268.809 193.091 269.655 195.288 269.655C198.136 269.655 200.228 268.361 201.562 265.773V253.713C200.179 251.19 198.104 249.929 195.337 249.929C193.14 249.929 191.423 250.783 190.186 252.492C188.949 254.201 188.33 256.732 188.33 260.085ZM217.847 273H213.33V246.584H217.847V273ZM212.964 239.577C212.964 238.845 213.184 238.226 213.623 237.722C214.079 237.217 214.746 236.965 215.625 236.965C216.504 236.965 217.171 237.217 217.627 237.722C218.083 238.226 218.311 238.845 218.311 239.577C218.311 240.31 218.083 240.92 217.627 241.408C217.171 241.896 216.504 242.141 215.625 242.141C214.746 242.141 214.079 241.896 213.623 241.408C213.184 240.92 212.964 240.31 212.964 239.577ZM241.406 270.388C239.648 272.455 237.069 273.488 233.667 273.488C230.851 273.488 228.703 272.674 227.222 271.047C225.757 269.403 225.016 266.978 225 263.771V246.584H229.517V263.649C229.517 267.653 231.144 269.655 234.399 269.655C237.85 269.655 240.145 268.369 241.284 265.798V246.584H245.801V273H241.504L241.406 270.388ZM256.934 246.584L257.056 249.514C258.993 247.235 261.605 246.096 264.893 246.096C268.587 246.096 271.102 247.512 272.437 250.344C273.315 249.074 274.455 248.049 275.854 247.268C277.271 246.486 278.939 246.096 280.859 246.096C286.654 246.096 289.6 249.164 289.697 255.3V273H285.181V255.568C285.181 253.68 284.749 252.272 283.887 251.345C283.024 250.401 281.576 249.929 279.541 249.929C277.865 249.929 276.473 250.433 275.366 251.442C274.259 252.435 273.617 253.778 273.438 255.471V273H268.896V255.69C268.896 251.849 267.017 249.929 263.257 249.929C260.295 249.929 258.268 251.19 257.178 253.713V273H252.661V246.584H256.934Z" fill="white"/>
<path d="M150.747 313H136.772V311.052L144.155 302.849C145.249 301.608 146.001 300.603 146.411 299.831C146.831 299.05 147.041 298.244 147.041 297.414C147.041 296.301 146.704 295.388 146.03 294.675C145.356 293.962 144.458 293.605 143.335 293.605C141.987 293.605 140.938 293.991 140.186 294.763C139.443 295.524 139.072 296.589 139.072 297.956H136.362C136.362 295.993 136.992 294.406 138.252 293.195C139.521 291.984 141.216 291.379 143.335 291.379C145.317 291.379 146.885 291.901 148.037 292.946C149.189 293.981 149.766 295.363 149.766 297.092C149.766 299.191 148.428 301.691 145.752 304.592L140.039 310.788H150.747V313ZM164.253 291.657V293.957H163.755C161.646 293.996 159.966 294.621 158.716 295.832C157.466 297.043 156.743 298.747 156.548 300.944C157.671 299.655 159.204 299.011 161.147 299.011C163.003 299.011 164.482 299.665 165.586 300.974C166.699 302.282 167.256 303.972 167.256 306.042C167.256 308.239 166.655 309.997 165.454 311.315C164.263 312.634 162.661 313.293 160.649 313.293C158.608 313.293 156.953 312.512 155.684 310.949C154.414 309.377 153.779 307.355 153.779 304.885V303.845C153.779 299.919 154.614 296.921 156.284 294.851C157.964 292.771 160.459 291.706 163.77 291.657H164.253ZM160.693 301.267C159.766 301.267 158.911 301.545 158.13 302.102C157.349 302.658 156.807 303.356 156.504 304.196V305.192C156.504 306.95 156.899 308.366 157.69 309.44C158.481 310.515 159.468 311.052 160.649 311.052C161.87 311.052 162.827 310.603 163.521 309.704C164.224 308.806 164.575 307.629 164.575 306.174C164.575 304.709 164.219 303.527 163.506 302.629C162.803 301.721 161.865 301.267 160.693 301.267ZM181.099 291.657V293.957H180.601C178.491 293.996 176.812 294.621 175.562 295.832C174.312 297.043 173.589 298.747 173.394 300.944C174.517 299.655 176.05 299.011 177.993 299.011C179.849 299.011 181.328 299.665 182.432 300.974C183.545 302.282 184.102 303.972 184.102 306.042C184.102 308.239 183.501 309.997 182.3 311.315C181.108 312.634 179.507 313.293 177.495 313.293C175.454 313.293 173.799 312.512 172.529 310.949C171.26 309.377 170.625 307.355 170.625 304.885V303.845C170.625 299.919 171.46 296.921 173.13 294.851C174.81 292.771 177.305 291.706 180.615 291.657H181.099ZM177.539 301.267C176.611 301.267 175.757 301.545 174.976 302.102C174.194 302.658 173.652 303.356 173.35 304.196V305.192C173.35 306.95 173.745 308.366 174.536 309.44C175.327 310.515 176.313 311.052 177.495 311.052C178.716 311.052 179.673 310.603 180.366 309.704C181.069 308.806 181.421 307.629 181.421 306.174C181.421 304.709 181.064 303.527 180.352 302.629C179.648 301.721 178.711 301.267 177.539 301.267Z" fill="white"/>
</g>
<defs>
<filter id="filter0_d_45:2" x="0" y="0" width="332" height="346" filterUnits="userSpaceOnUse" color-interpolation-filters="sRGB">
<feFlood flood-opacity="0" result="BackgroundImageFix"/>
<feColorMatrix in="SourceAlpha" type="matrix" values="0 0 0 0 0 0 0 0 0 0 0 0 0 0 0 0 0 0 127 0" result="hardAlpha"/>
<feOffset dx="8" dy="9"/>
<feGaussianBlur stdDeviation="2"/>
<feComposite in2="hardAlpha" operator="out"/>
<feColorMatrix type="matrix" values="0 0 0 0 0 0 0 0 0 0 0 0 0 0 0 0 0 0 0.25 0"/>
<feBlend mode="normal" in2="BackgroundImageFix" result="effect1_dropShadow_45:2"/>
<feBlend mode="normal" in="SourceGraphic" in2="effect1_dropShadow_45:2" result="shape"/>
</filter>
<linearGradient id="paint0_linear_45:2" x1="160" y1="0" x2="160" y2="333" gradientUnits="userSpaceOnUse">
<stop stop-color="#007E58"/>
<stop offset="1" stop-color="#2F4D7A" stop-opacity="0.95"/>
</linearGradient>
</defs>
</svg>
