<svg width="332" height="346" viewBox="0 0 332 346" fill="none" xmlns="http://www.w3.org/2000/svg">
<g filter="url(#filter0_d)">
<rect width="320" height="333" fill="url(#paint0_linear)"/>
<path d="M134.398 153.621C118.318 148.999 106.599 143.335 99.2422 136.629C91.9505 129.858 88.3047 121.525 88.3047 111.629C88.3047 100.431 92.7643 91.1862 101.684 83.8945C110.668 76.5378 122.322 72.8594 136.645 72.8594C146.41 72.8594 155.102 74.7474 162.719 78.5234C170.401 82.2995 176.326 87.5078 180.492 94.1484C184.724 100.789 186.84 108.048 186.84 115.926H167.992C167.992 107.332 165.258 100.594 159.789 95.7109C154.32 90.763 146.605 88.2891 136.645 88.2891C127.4 88.2891 120.173 90.3398 114.965 94.4414C109.822 98.4779 107.25 104.109 107.25 111.336C107.25 117.13 109.691 122.046 114.574 126.082C119.522 130.053 127.888 133.699 139.672 137.02C151.521 140.34 160.766 144.018 167.406 148.055C174.112 152.026 179.06 156.681 182.25 162.02C185.505 167.358 187.133 173.641 187.133 180.867C187.133 192.391 182.641 201.635 173.656 208.602C164.672 215.503 152.66 218.953 137.621 218.953C127.855 218.953 118.741 217.098 110.277 213.387C101.814 209.611 95.2708 204.467 90.6484 197.957C86.0911 191.447 83.8125 184.057 83.8125 175.789H102.66C102.66 184.383 105.818 191.186 112.133 196.199C118.513 201.147 127.009 203.621 137.621 203.621C147.517 203.621 155.102 201.603 160.375 197.566C165.648 193.53 168.285 188.029 168.285 181.062C168.285 174.096 165.844 168.725 160.961 164.949C156.078 161.108 147.224 157.332 134.398 153.621ZM228.051 217H209.984V111.336H228.051V217ZM208.52 83.3086C208.52 80.3789 209.398 77.9049 211.156 75.8867C212.979 73.8685 215.648 72.8594 219.164 72.8594C222.68 72.8594 225.349 73.8685 227.172 75.8867C228.995 77.9049 229.906 80.3789 229.906 83.3086C229.906 86.2383 228.995 88.6797 227.172 90.6328C225.349 92.5859 222.68 93.5625 219.164 93.5625C215.648 93.5625 212.979 92.5859 211.156 90.6328C209.398 88.6797 208.52 86.2383 208.52 83.3086Z" fill="white"/>
<path d="M35.2388 55H31.606V30.918L24.3208 33.5938V30.3125L34.6724 26.4258H35.2388V55ZM61.0786 45.4492H65.0239V48.3984H61.0786V55H57.4458V48.3984H44.4966V46.2695L57.231 26.5625H61.0786V45.4492ZM48.5981 45.4492H57.4458V31.5039L57.0161 32.2852L48.5981 45.4492ZM68.7349 53.1055C68.7349 52.4805 68.9172 51.9596 69.2817 51.543C69.6593 51.1263 70.2192 50.918 70.9614 50.918C71.7036 50.918 72.2635 51.1263 72.6411 51.543C73.0317 51.9596 73.2271 52.4805 73.2271 53.1055C73.2271 53.7044 73.0317 54.2057 72.6411 54.6094C72.2635 55.013 71.7036 55.2148 70.9614 55.2148C70.2192 55.2148 69.6593 55.013 69.2817 54.6094C68.9172 54.2057 68.7349 53.7044 68.7349 53.1055Z" fill="white"/>
<path d="M99.5996 257.155C95.5794 256 92.6497 254.584 90.8105 252.907C88.9876 251.215 88.0762 249.131 88.0762 246.657C88.0762 243.858 89.1911 241.547 91.4209 239.724C93.667 237.884 96.5804 236.965 100.161 236.965C102.603 236.965 104.775 237.437 106.68 238.381C108.6 239.325 110.081 240.627 111.123 242.287C112.181 243.947 112.71 245.762 112.71 247.731H107.998C107.998 245.583 107.314 243.898 105.947 242.678C104.58 241.441 102.651 240.822 100.161 240.822C97.8499 240.822 96.0433 241.335 94.7412 242.36C93.4554 243.369 92.8125 244.777 92.8125 246.584C92.8125 248.033 93.4229 249.261 94.6436 250.271C95.8805 251.263 97.972 252.175 100.918 253.005C103.88 253.835 106.191 254.755 107.852 255.764C109.528 256.757 110.765 257.92 111.562 259.255C112.376 260.59 112.783 262.16 112.783 263.967C112.783 266.848 111.66 269.159 109.414 270.9C107.168 272.626 104.165 273.488 100.405 273.488C97.9639 273.488 95.6852 273.024 93.5693 272.097C91.4535 271.153 89.8177 269.867 88.6621 268.239C87.5228 266.612 86.9531 264.764 86.9531 262.697H91.665C91.665 264.846 92.4544 266.547 94.0332 267.8C95.6283 269.037 97.7523 269.655 100.405 269.655C102.879 269.655 104.775 269.151 106.094 268.142C107.412 267.132 108.071 265.757 108.071 264.016C108.071 262.274 107.461 260.931 106.24 259.987C105.02 259.027 102.806 258.083 99.5996 257.155ZM123.013 273H118.496V246.584H123.013V273ZM118.13 239.577C118.13 238.845 118.35 238.226 118.789 237.722C119.245 237.217 119.912 236.965 120.791 236.965C121.67 236.965 122.337 237.217 122.793 237.722C123.249 238.226 123.477 238.845 123.477 239.577C123.477 240.31 123.249 240.92 122.793 241.408C122.337 241.896 121.67 242.141 120.791 242.141C119.912 242.141 119.245 241.896 118.789 241.408C118.35 240.92 118.13 240.31 118.13 239.577ZM135.171 273H130.654V235.5H135.171V273ZM147.329 273H142.812V246.584H147.329V273ZM142.446 239.577C142.446 238.845 142.666 238.226 143.105 237.722C143.561 237.217 144.229 236.965 145.107 236.965C145.986 236.965 146.654 237.217 147.109 237.722C147.565 238.226 147.793 238.845 147.793 239.577C147.793 240.31 147.565 240.92 147.109 241.408C146.654 241.896 145.986 242.141 145.107 242.141C144.229 242.141 143.561 241.896 143.105 241.408C142.666 240.92 142.446 240.31 142.446 239.577ZM165.176 269.802C166.787 269.802 168.195 269.313 169.399 268.337C170.604 267.36 171.271 266.14 171.401 264.675H175.674C175.592 266.188 175.072 267.629 174.111 268.996C173.151 270.363 171.865 271.454 170.254 272.268C168.659 273.081 166.966 273.488 165.176 273.488C161.579 273.488 158.714 272.292 156.582 269.899C154.466 267.491 153.408 264.203 153.408 260.036V259.279C153.408 256.708 153.88 254.421 154.824 252.419C155.768 250.417 157.119 248.863 158.877 247.756C160.651 246.649 162.743 246.096 165.151 246.096C168.114 246.096 170.571 246.983 172.524 248.757C174.494 250.531 175.544 252.834 175.674 255.666H171.401C171.271 253.957 170.62 252.557 169.448 251.467C168.293 250.36 166.86 249.807 165.151 249.807C162.856 249.807 161.074 250.637 159.805 252.297C158.551 253.941 157.925 256.325 157.925 259.45V260.305C157.925 263.348 158.551 265.692 159.805 267.336C161.058 268.98 162.848 269.802 165.176 269.802ZM179.556 259.548C179.556 256.96 180.06 254.632 181.069 252.565C182.095 250.498 183.511 248.903 185.317 247.78C187.14 246.657 189.215 246.096 191.543 246.096C195.14 246.096 198.045 247.341 200.259 249.831C202.489 252.321 203.604 255.633 203.604 259.768V260.085C203.604 262.657 203.107 264.968 202.114 267.019C201.138 269.053 199.73 270.64 197.891 271.779C196.068 272.919 193.968 273.488 191.592 273.488C188.011 273.488 185.106 272.243 182.876 269.753C180.662 267.263 179.556 263.967 179.556 259.865V259.548ZM184.097 260.085C184.097 263.015 184.772 265.367 186.123 267.141C187.49 268.915 189.313 269.802 191.592 269.802C193.887 269.802 195.71 268.907 197.061 267.116C198.411 265.31 199.087 262.787 199.087 259.548C199.087 256.651 198.395 254.307 197.012 252.517C195.645 250.71 193.822 249.807 191.543 249.807C189.313 249.807 187.515 250.694 186.147 252.468C184.78 254.242 184.097 256.781 184.097 260.085ZM213.54 246.584L213.687 249.904C215.705 247.365 218.341 246.096 221.597 246.096C227.179 246.096 229.995 249.245 230.044 255.544V273H225.527V255.52C225.511 253.615 225.072 252.207 224.209 251.296C223.363 250.384 222.036 249.929 220.229 249.929C218.765 249.929 217.479 250.319 216.372 251.101C215.265 251.882 214.403 252.907 213.784 254.177V273H209.268V246.584H213.54Z" fill="white"/>
<path d="M129.747 313H115.772V311.052L123.155 302.849C124.249 301.608 125.001 300.603 125.411 299.831C125.831 299.05 126.041 298.244 126.041 297.414C126.041 296.301 125.704 295.388 125.03 294.675C124.356 293.962 123.458 293.605 122.335 293.605C120.987 293.605 119.938 293.991 119.186 294.763C118.443 295.524 118.072 296.589 118.072 297.956H115.362C115.362 295.993 115.992 294.406 117.252 293.195C118.521 291.984 120.216 291.379 122.335 291.379C124.317 291.379 125.885 291.901 127.037 292.946C128.189 293.981 128.766 295.363 128.766 297.092C128.766 299.191 127.428 301.691 124.752 304.592L119.039 310.788H129.747V313ZM145.553 297.238C145.553 298.303 145.27 299.25 144.703 300.08C144.146 300.91 143.39 301.56 142.433 302.028C143.546 302.507 144.425 303.205 145.069 304.123C145.724 305.041 146.051 306.081 146.051 307.243C146.051 309.089 145.426 310.559 144.176 311.652C142.936 312.746 141.3 313.293 139.269 313.293C137.218 313.293 135.572 312.746 134.332 311.652C133.102 310.549 132.486 309.079 132.486 307.243C132.486 306.091 132.799 305.051 133.424 304.123C134.059 303.195 134.933 302.492 136.046 302.014C135.099 301.545 134.352 300.896 133.805 300.065C133.258 299.235 132.984 298.293 132.984 297.238C132.984 295.441 133.561 294.016 134.713 292.961C135.865 291.906 137.384 291.379 139.269 291.379C141.144 291.379 142.657 291.906 143.81 292.961C144.972 294.016 145.553 295.441 145.553 297.238ZM143.341 307.185C143.341 305.993 142.96 305.021 142.198 304.27C141.446 303.518 140.46 303.142 139.239 303.142C138.019 303.142 137.037 303.513 136.295 304.255C135.562 304.997 135.196 305.974 135.196 307.185C135.196 308.396 135.553 309.348 136.266 310.041C136.988 310.734 137.989 311.081 139.269 311.081C140.538 311.081 141.534 310.734 142.257 310.041C142.979 309.338 143.341 308.386 143.341 307.185ZM139.269 293.605C138.204 293.605 137.34 293.938 136.676 294.602C136.021 295.256 135.694 296.149 135.694 297.282C135.694 298.366 136.017 299.245 136.661 299.919C137.315 300.583 138.185 300.915 139.269 300.915C140.353 300.915 141.217 300.583 141.861 299.919C142.516 299.245 142.843 298.366 142.843 297.282C142.843 296.198 142.506 295.314 141.832 294.631C141.158 293.947 140.304 293.605 139.269 293.605ZM149.801 311.579C149.801 311.11 149.938 310.72 150.211 310.407C150.494 310.095 150.914 309.938 151.471 309.938C152.027 309.938 152.447 310.095 152.73 310.407C153.023 310.72 153.17 311.11 153.17 311.579C153.17 312.028 153.023 312.404 152.73 312.707C152.447 313.01 152.027 313.161 151.471 313.161C150.914 313.161 150.494 313.01 150.211 312.707C149.938 312.404 149.801 312.028 149.801 311.579ZM170.748 303.903C170.748 307.077 170.206 309.436 169.122 310.979C168.038 312.521 166.344 313.293 164.039 313.293C161.764 313.293 160.079 312.541 158.985 311.037C157.892 309.523 157.325 307.268 157.286 304.27V300.651C157.286 297.517 157.828 295.188 158.912 293.664C159.996 292.141 161.695 291.379 164.01 291.379C166.305 291.379 167.994 292.116 169.078 293.591C170.162 295.056 170.719 297.321 170.748 300.388V303.903ZM168.038 300.197C168.038 297.902 167.716 296.232 167.071 295.188C166.427 294.133 165.406 293.605 164.01 293.605C162.623 293.605 161.612 294.128 160.978 295.173C160.343 296.218 160.016 297.824 159.996 299.992V304.328C159.996 306.633 160.328 308.337 160.992 309.44C161.666 310.534 162.682 311.081 164.039 311.081C165.377 311.081 166.368 310.563 167.013 309.528C167.667 308.493 168.009 306.862 168.038 304.636V300.197ZM187.154 297.238C187.154 298.303 186.871 299.25 186.305 300.08C185.748 300.91 184.991 301.56 184.034 302.028C185.147 302.507 186.026 303.205 186.671 304.123C187.325 305.041 187.652 306.081 187.652 307.243C187.652 309.089 187.027 310.559 185.777 311.652C184.537 312.746 182.901 313.293 180.87 313.293C178.819 313.293 177.174 312.746 175.934 311.652C174.703 310.549 174.088 309.079 174.088 307.243C174.088 306.091 174.4 305.051 175.025 304.123C175.66 303.195 176.534 302.492 177.647 302.014C176.7 301.545 175.953 300.896 175.406 300.065C174.859 299.235 174.586 298.293 174.586 297.238C174.586 295.441 175.162 294.016 176.314 292.961C177.467 291.906 178.985 291.379 180.87 291.379C182.745 291.379 184.259 291.906 185.411 292.961C186.573 294.016 187.154 295.441 187.154 297.238ZM184.942 307.185C184.942 305.993 184.562 305.021 183.8 304.27C183.048 303.518 182.062 303.142 180.841 303.142C179.62 303.142 178.639 303.513 177.896 304.255C177.164 304.997 176.798 305.974 176.798 307.185C176.798 308.396 177.154 309.348 177.867 310.041C178.59 310.734 179.591 311.081 180.87 311.081C182.14 311.081 183.136 310.734 183.858 310.041C184.581 309.338 184.942 308.386 184.942 307.185ZM180.87 293.605C179.806 293.605 178.941 293.938 178.277 294.602C177.623 295.256 177.296 296.149 177.296 297.282C177.296 298.366 177.618 299.245 178.263 299.919C178.917 300.583 179.786 300.915 180.87 300.915C181.954 300.915 182.818 300.583 183.463 299.919C184.117 299.245 184.444 298.366 184.444 297.282C184.444 296.198 184.107 295.314 183.434 294.631C182.76 293.947 181.905 293.605 180.87 293.605ZM192.311 302.307L193.395 291.672H204.322V294.177H195.694L195.05 299.992C196.095 299.377 197.281 299.069 198.609 299.069C200.553 299.069 202.096 299.714 203.238 301.003C204.381 302.282 204.952 304.016 204.952 306.203C204.952 308.4 204.356 310.134 203.165 311.403C201.983 312.663 200.328 313.293 198.199 313.293C196.314 313.293 194.776 312.771 193.585 311.726C192.394 310.681 191.715 309.235 191.549 307.39H194.112C194.278 308.61 194.713 309.533 195.416 310.158C196.119 310.773 197.047 311.081 198.199 311.081C199.459 311.081 200.445 310.651 201.158 309.792C201.881 308.933 202.242 307.746 202.242 306.232C202.242 304.807 201.852 303.664 201.07 302.805C200.299 301.936 199.269 301.501 197.979 301.501C196.798 301.501 195.87 301.76 195.196 302.277L194.479 302.863L192.311 302.307Z" fill="white"/>
</g>
<defs>
<filter id="filter0_d" x="0" y="0" width="332" height="346" filterUnits="userSpaceOnUse" color-interpolation-filters="sRGB">
<feFlood flood-opacity="0" result="BackgroundImageFix"/>
<feColorMatrix in="SourceAlpha" type="matrix" values="0 0 0 0 0 0 0 0 0 0 0 0 0 0 0 0 0 0 127 0" result="hardAlpha"/>
<feOffset dx="8" dy="9"/>
<feGaussianBlur stdDeviation="2"/>
<feComposite in2="hardAlpha" operator="out"/>
<feColorMatrix type="matrix" values="0 0 0 0 0 0 0 0 0 0 0 0 0 0 0 0 0 0 0.25 0"/>
<feBlend mode="normal" in2="BackgroundImageFix" result="effect1_dropShadow"/>
<feBlend mode="normal" in="SourceGraphic" in2="effect1_dropShadow" result="shape"/>
</filter>
<linearGradient id="paint0_linear" x1="160" y1="0" x2="160" y2="333" gradientUnits="userSpaceOnUse">
<stop stop-color="#007E58"/>
<stop offset="1" stop-color="#2F4D7A" stop-opacity="0.95"/>
</linearGradient>
</defs>
</svg>
