<svg width="332" height="346" viewBox="0 0 332 346" fill="none" xmlns="http://www.w3.org/2000/svg">
<g filter="url(#filter0_d)">
<rect width="320" height="333" fill="url(#paint0_linear)"/>
<path d="M159.781 217H140.934L69.3516 107.43V217H50.5039V74.8125H69.3516L141.129 184.871V74.8125H159.781V217ZM255.484 217C254.443 214.917 253.596 211.206 252.945 205.867C244.547 214.591 234.521 218.953 222.867 218.953C212.451 218.953 203.889 216.023 197.184 210.164C190.543 204.24 187.223 196.753 187.223 187.703C187.223 176.701 191.389 168.172 199.723 162.117C208.121 155.997 219.905 152.938 235.074 152.938H252.652V144.637C252.652 138.322 250.764 133.309 246.988 129.598C243.212 125.822 237.646 123.934 230.289 123.934C223.844 123.934 218.44 125.561 214.078 128.816C209.716 132.072 207.535 136.01 207.535 140.633H189.371C189.371 135.359 191.227 130.281 194.938 125.398C198.714 120.451 203.792 116.544 210.172 113.68C216.617 110.815 223.681 109.383 231.363 109.383C243.538 109.383 253.076 112.443 259.977 118.562C266.878 124.617 270.458 132.983 270.719 143.66V192.293C270.719 201.993 271.956 209.708 274.43 215.438V217H255.484ZM225.504 203.23C231.168 203.23 236.539 201.766 241.617 198.836C246.695 195.906 250.374 192.098 252.652 187.41V165.73H238.492C216.357 165.73 205.289 172.208 205.289 185.164C205.289 190.828 207.177 195.255 210.953 198.445C214.729 201.635 219.579 203.23 225.504 203.23Z" fill="white"/>
<path d="M35.2388 55H31.606V30.918L24.3208 33.5938V30.3125L34.6724 26.4258H35.2388V55ZM57.6997 55H54.0669V30.918L46.7817 33.5938V30.3125L57.1333 26.4258H57.6997V55ZM68.7349 53.1055C68.7349 52.4805 68.9172 51.9596 69.2817 51.543C69.6593 51.1263 70.2192 50.918 70.9614 50.918C71.7036 50.918 72.2635 51.1263 72.6411 51.543C73.0317 51.9596 73.2271 52.4805 73.2271 53.1055C73.2271 53.7044 73.0317 54.2057 72.6411 54.6094C72.2635 55.013 71.7036 55.2148 70.9614 55.2148C70.2192 55.2148 69.6593 55.013 69.2817 54.6094C68.9172 54.2057 68.7349 53.7044 68.7349 53.1055Z" fill="white"/>
<path d="M88.5996 257.155C84.5794 256 81.6497 254.584 79.8105 252.907C77.9876 251.215 77.0762 249.131 77.0762 246.657C77.0762 243.858 78.1911 241.547 80.4209 239.724C82.667 237.884 85.5804 236.965 89.1611 236.965C91.6025 236.965 93.7754 237.437 95.6797 238.381C97.6003 239.325 99.0814 240.627 100.123 242.287C101.181 243.947 101.71 245.762 101.71 247.731H96.998C96.998 245.583 96.3145 243.898 94.9473 242.678C93.5801 241.441 91.6514 240.822 89.1611 240.822C86.8499 240.822 85.0433 241.335 83.7412 242.36C82.4554 243.369 81.8125 244.777 81.8125 246.584C81.8125 248.033 82.4229 249.261 83.6436 250.271C84.8805 251.263 86.972 252.175 89.918 253.005C92.8802 253.835 95.1914 254.755 96.8516 255.764C98.528 256.757 99.765 257.92 100.562 259.255C101.376 260.59 101.783 262.16 101.783 263.967C101.783 266.848 100.66 269.159 98.4141 270.9C96.168 272.626 93.165 273.488 89.4053 273.488C86.9639 273.488 84.6852 273.024 82.5693 272.097C80.4535 271.153 78.8177 269.867 77.6621 268.239C76.5228 266.612 75.9531 264.764 75.9531 262.697H80.665C80.665 264.846 81.4544 266.547 83.0332 267.8C84.6283 269.037 86.7523 269.655 89.4053 269.655C91.8792 269.655 93.7754 269.151 95.0938 268.142C96.4121 267.132 97.0713 265.757 97.0713 264.016C97.0713 262.274 96.4609 260.931 95.2402 259.987C94.0195 259.027 91.806 258.083 88.5996 257.155ZM105.909 259.548C105.909 256.96 106.414 254.632 107.423 252.565C108.448 250.498 109.864 248.903 111.671 247.78C113.494 246.657 115.569 246.096 117.896 246.096C121.493 246.096 124.399 247.341 126.612 249.831C128.842 252.321 129.957 255.633 129.957 259.768V260.085C129.957 262.657 129.461 264.968 128.468 267.019C127.491 269.053 126.083 270.64 124.244 271.779C122.421 272.919 120.322 273.488 117.945 273.488C114.365 273.488 111.459 272.243 109.229 269.753C107.016 267.263 105.909 263.967 105.909 259.865V259.548ZM110.45 260.085C110.45 263.015 111.126 265.367 112.477 267.141C113.844 268.915 115.667 269.802 117.945 269.802C120.24 269.802 122.063 268.907 123.414 267.116C124.765 265.31 125.44 262.787 125.44 259.548C125.44 256.651 124.749 254.307 123.365 252.517C121.998 250.71 120.175 249.807 117.896 249.807C115.667 249.807 113.868 250.694 112.501 252.468C111.134 254.242 110.45 256.781 110.45 260.085ZM134.522 259.572C134.522 255.52 135.483 252.264 137.403 249.807C139.324 247.333 141.839 246.096 144.947 246.096C148.04 246.096 150.489 247.154 152.296 249.27V235.5H156.812V273H152.662L152.442 270.168C150.636 272.382 148.121 273.488 144.898 273.488C141.839 273.488 139.34 272.235 137.403 269.729C135.483 267.222 134.522 263.951 134.522 259.914V259.572ZM139.039 260.085C139.039 263.08 139.658 265.424 140.895 267.116C142.132 268.809 143.84 269.655 146.021 269.655C148.886 269.655 150.978 268.369 152.296 265.798V253.664C150.945 251.174 148.87 249.929 146.07 249.929C143.857 249.929 142.132 250.783 140.895 252.492C139.658 254.201 139.039 256.732 139.039 260.085ZM168.751 273H164.234V246.584H168.751V273ZM163.868 239.577C163.868 238.845 164.088 238.226 164.527 237.722C164.983 237.217 165.65 236.965 166.529 236.965C167.408 236.965 168.076 237.217 168.531 237.722C168.987 238.226 169.215 238.845 169.215 239.577C169.215 240.31 168.987 240.92 168.531 241.408C168.076 241.896 167.408 242.141 166.529 242.141C165.65 242.141 164.983 241.896 164.527 241.408C164.088 240.92 163.868 240.31 163.868 239.577ZM192.311 270.388C190.553 272.455 187.973 273.488 184.571 273.488C181.756 273.488 179.607 272.674 178.126 271.047C176.661 269.403 175.921 266.978 175.904 263.771V246.584H180.421V263.649C180.421 267.653 182.049 269.655 185.304 269.655C188.754 269.655 191.049 268.369 192.188 265.798V246.584H196.705V273H192.408L192.311 270.388ZM207.838 246.584L207.96 249.514C209.897 247.235 212.509 246.096 215.797 246.096C219.492 246.096 222.006 247.512 223.341 250.344C224.22 249.074 225.359 248.049 226.759 247.268C228.175 246.486 229.843 246.096 231.764 246.096C237.558 246.096 240.504 249.164 240.602 255.3V273H236.085V255.568C236.085 253.68 235.654 252.272 234.791 251.345C233.928 250.401 232.48 249.929 230.445 249.929C228.769 249.929 227.377 250.433 226.271 251.442C225.164 252.435 224.521 253.778 224.342 255.471V273H219.801V255.69C219.801 251.849 217.921 249.929 214.161 249.929C211.199 249.929 209.173 251.19 208.082 253.713V273H203.565V246.584H207.838Z" fill="white"/>
<path d="M128.747 313H114.772V311.052L122.155 302.849C123.249 301.608 124.001 300.603 124.411 299.831C124.831 299.05 125.041 298.244 125.041 297.414C125.041 296.301 124.704 295.388 124.03 294.675C123.356 293.962 122.458 293.605 121.335 293.605C119.987 293.605 118.938 293.991 118.186 294.763C117.443 295.524 117.072 296.589 117.072 297.956H114.362C114.362 295.993 114.992 294.406 116.252 293.195C117.521 291.984 119.216 291.379 121.335 291.379C123.317 291.379 124.885 291.901 126.037 292.946C127.189 293.981 127.766 295.363 127.766 297.092C127.766 299.191 126.428 301.691 123.752 304.592L118.039 310.788H128.747V313ZM145.593 313H131.618V311.052L139.001 302.849C140.095 301.608 140.847 300.603 141.257 299.831C141.677 299.05 141.887 298.244 141.887 297.414C141.887 296.301 141.55 295.388 140.876 294.675C140.202 293.962 139.304 293.605 138.181 293.605C136.833 293.605 135.783 293.991 135.031 294.763C134.289 295.524 133.918 296.589 133.918 297.956H131.208C131.208 295.993 131.838 294.406 133.098 293.195C134.367 291.984 136.062 291.379 138.181 291.379C140.163 291.379 141.73 291.901 142.883 292.946C144.035 293.981 144.611 295.363 144.611 297.092C144.611 299.191 143.273 301.691 140.598 304.592L134.885 310.788H145.593V313ZM148.801 311.579C148.801 311.11 148.938 310.72 149.211 310.407C149.494 310.095 149.914 309.938 150.471 309.938C151.027 309.938 151.447 310.095 151.73 310.407C152.023 310.72 152.17 311.11 152.17 311.579C152.17 312.028 152.023 312.404 151.73 312.707C151.447 313.01 151.027 313.161 150.471 313.161C149.914 313.161 149.494 313.01 149.211 312.707C148.938 312.404 148.801 312.028 148.801 311.579ZM166.76 303.625C166.193 304.299 165.515 304.841 164.724 305.251C163.942 305.661 163.083 305.866 162.146 305.866C160.915 305.866 159.841 305.563 158.923 304.958C158.015 304.353 157.312 303.503 156.813 302.409C156.315 301.306 156.066 300.09 156.066 298.762C156.066 297.336 156.335 296.052 156.872 294.909C157.419 293.767 158.19 292.893 159.187 292.287C160.183 291.682 161.345 291.379 162.673 291.379C164.782 291.379 166.442 292.17 167.653 293.752C168.874 295.324 169.484 297.473 169.484 300.197V300.988C169.484 305.139 168.664 308.171 167.023 310.085C165.383 311.989 162.907 312.966 159.597 313.015H159.069V310.729H159.641C161.877 310.69 163.596 310.109 164.797 308.986C165.998 307.854 166.652 306.066 166.76 303.625ZM162.585 303.625C163.493 303.625 164.328 303.347 165.09 302.79C165.861 302.233 166.423 301.545 166.774 300.725V299.641C166.774 297.863 166.389 296.418 165.617 295.305C164.846 294.191 163.869 293.635 162.688 293.635C161.496 293.635 160.539 294.094 159.816 295.012C159.094 295.92 158.732 297.121 158.732 298.615C158.732 300.07 159.079 301.271 159.772 302.219C160.476 303.156 161.413 303.625 162.585 303.625ZM183.605 303.625C183.039 304.299 182.36 304.841 181.569 305.251C180.788 305.661 179.929 305.866 178.991 305.866C177.761 305.866 176.687 305.563 175.769 304.958C174.86 304.353 174.157 303.503 173.659 302.409C173.161 301.306 172.912 300.09 172.912 298.762C172.912 297.336 173.181 296.052 173.718 294.909C174.265 293.767 175.036 292.893 176.032 292.287C177.028 291.682 178.19 291.379 179.519 291.379C181.628 291.379 183.288 292.17 184.499 293.752C185.72 295.324 186.33 297.473 186.33 300.197V300.988C186.33 305.139 185.51 308.171 183.869 310.085C182.229 311.989 179.753 312.966 176.442 313.015H175.915V310.729H176.486C178.723 310.69 180.441 310.109 181.643 308.986C182.844 307.854 183.498 306.066 183.605 303.625ZM179.431 303.625C180.339 303.625 181.174 303.347 181.936 302.79C182.707 302.233 183.269 301.545 183.62 300.725V299.641C183.62 297.863 183.234 296.418 182.463 295.305C181.691 294.191 180.715 293.635 179.533 293.635C178.342 293.635 177.385 294.094 176.662 295.012C175.939 295.92 175.578 297.121 175.578 298.615C175.578 300.07 175.925 301.271 176.618 302.219C177.321 303.156 178.259 303.625 179.431 303.625ZM203.439 303.903C203.439 307.077 202.897 309.436 201.813 310.979C200.729 312.521 199.035 313.293 196.73 313.293C194.455 313.293 192.771 312.541 191.677 311.037C190.583 309.523 190.017 307.268 189.978 304.27V300.651C189.978 297.517 190.52 295.188 191.604 293.664C192.688 292.141 194.387 291.379 196.701 291.379C198.996 291.379 200.686 292.116 201.77 293.591C202.854 295.056 203.41 297.321 203.439 300.388V303.903ZM200.729 300.197C200.729 297.902 200.407 296.232 199.763 295.188C199.118 294.133 198.098 293.605 196.701 293.605C195.314 293.605 194.304 294.128 193.669 295.173C193.034 296.218 192.707 297.824 192.688 299.992V304.328C192.688 306.633 193.02 308.337 193.684 309.44C194.357 310.534 195.373 311.081 196.73 311.081C198.068 311.081 199.06 310.563 199.704 309.528C200.358 308.493 200.7 306.862 200.729 304.636V300.197Z" fill="white"/>
</g>
<defs>
<filter id="filter0_d" x="0" y="0" width="332" height="346" filterUnits="userSpaceOnUse" color-interpolation-filters="sRGB">
<feFlood flood-opacity="0" result="BackgroundImageFix"/>
<feColorMatrix in="SourceAlpha" type="matrix" values="0 0 0 0 0 0 0 0 0 0 0 0 0 0 0 0 0 0 127 0" result="hardAlpha"/>
<feOffset dx="8" dy="9"/>
<feGaussianBlur stdDeviation="2"/>
<feComposite in2="hardAlpha" operator="out"/>
<feColorMatrix type="matrix" values="0 0 0 0 0 0 0 0 0 0 0 0 0 0 0 0 0 0 0.25 0"/>
<feBlend mode="normal" in2="BackgroundImageFix" result="effect1_dropShadow"/>
<feBlend mode="normal" in="SourceGraphic" in2="effect1_dropShadow" result="shape"/>
</filter>
<linearGradient id="paint0_linear" x1="160" y1="0" x2="160" y2="333" gradientUnits="userSpaceOnUse">
<stop stop-color="#007E58"/>
<stop offset="1" stop-color="#2F4D7A" stop-opacity="0.95"/>
</linearGradient>
</defs>
</svg>
