<svg width="332" height="346" viewBox="0 0 332 346" fill="none" xmlns="http://www.w3.org/2000/svg">
<g filter="url(#filter0_d_23:50)">
<rect width="320" height="333" fill="url(#paint0_linear_23:50)"/>
<path d="M28.6177 39.0234H31.3325C33.0382 38.9974 34.3794 38.5482 35.356 37.6758C36.3325 36.8034 36.8208 35.625 36.8208 34.1406C36.8208 30.8073 35.1606 29.1406 31.8403 29.1406C30.2778 29.1406 29.0278 29.5898 28.0903 30.4883C27.1659 31.3737 26.7036 32.5521 26.7036 34.0234H23.0903C23.0903 31.7708 23.9106 29.9023 25.5513 28.418C27.2049 26.9206 29.3013 26.1719 31.8403 26.1719C34.5226 26.1719 36.6255 26.8815 38.1489 28.3008C39.6724 29.7201 40.4341 31.6927 40.4341 34.2188C40.4341 35.4557 40.0304 36.6536 39.2231 37.8125C38.4289 38.9714 37.3416 39.8372 35.9614 40.4102C37.5239 40.9049 38.7284 41.7253 39.5747 42.8711C40.4341 44.0169 40.8638 45.4167 40.8638 47.0703C40.8638 49.6224 40.0304 51.6471 38.3638 53.1445C36.6971 54.6419 34.5291 55.3906 31.8599 55.3906C29.1906 55.3906 27.0161 54.668 25.3364 53.2227C23.6698 51.7773 22.8364 49.8698 22.8364 47.5H26.4692C26.4692 48.9974 26.9575 50.1953 27.9341 51.0938C28.9106 51.9922 30.2192 52.4414 31.8599 52.4414C33.6047 52.4414 34.9393 51.9857 35.8638 51.0742C36.7882 50.1628 37.2505 48.8542 37.2505 47.1484C37.2505 45.4948 36.7427 44.2253 35.7271 43.3398C34.7114 42.4544 33.2466 41.9987 31.3325 41.9727H28.6177V39.0234ZM63.0708 33.9844C63.0708 35.4036 62.6932 36.6667 61.938 37.7734C61.1958 38.8802 60.1867 39.7461 58.9106 40.3711C60.395 41.0091 61.5669 41.9401 62.4263 43.1641C63.2987 44.388 63.7349 45.7747 63.7349 47.3242C63.7349 49.7852 62.9015 51.7448 61.2349 53.2031C59.5812 54.6615 57.4002 55.3906 54.6919 55.3906C51.9575 55.3906 49.7635 54.6615 48.1099 53.2031C46.4692 51.7318 45.6489 49.7721 45.6489 47.3242C45.6489 45.7878 46.0656 44.401 46.8989 43.1641C47.7453 41.9271 48.9106 40.9896 50.395 40.3516C49.132 39.7266 48.1359 38.8607 47.4067 37.7539C46.6776 36.6471 46.313 35.3906 46.313 33.9844C46.313 31.5885 47.0812 29.6875 48.6177 28.2812C50.1541 26.875 52.1789 26.1719 54.6919 26.1719C57.1919 26.1719 59.2101 26.875 60.7466 28.2812C62.2961 29.6875 63.0708 31.5885 63.0708 33.9844ZM60.1216 47.2461C60.1216 45.6576 59.6138 44.362 58.5981 43.3594C57.5955 42.3568 56.2804 41.8555 54.6528 41.8555C53.0252 41.8555 51.7166 42.3503 50.7271 43.3398C49.7505 44.3294 49.2622 45.6315 49.2622 47.2461C49.2622 48.8607 49.7375 50.1302 50.688 51.0547C51.6515 51.9792 52.9862 52.4414 54.6919 52.4414C56.3846 52.4414 57.7127 51.9792 58.6763 51.0547C59.6398 50.1172 60.1216 48.8477 60.1216 47.2461ZM54.6919 29.1406C53.2726 29.1406 52.1203 29.5833 51.2349 30.4688C50.3625 31.3411 49.9263 32.5326 49.9263 34.043C49.9263 35.4883 50.356 36.6602 51.2153 37.5586C52.0877 38.444 53.2466 38.8867 54.6919 38.8867C56.1372 38.8867 57.2896 38.444 58.1489 37.5586C59.0213 36.6602 59.4575 35.4883 59.4575 34.043C59.4575 32.5977 59.0083 31.4193 58.1099 30.5078C57.2114 29.5964 56.0721 29.1406 54.6919 29.1406ZM68.7349 53.1055C68.7349 52.4805 68.9172 51.9596 69.2817 51.543C69.6593 51.1263 70.2192 50.918 70.9614 50.918C71.7036 50.918 72.2635 51.1263 72.6411 51.543C73.0317 51.9596 73.2271 52.4805 73.2271 53.1055C73.2271 53.7044 73.0317 54.2057 72.6411 54.6094C72.2635 55.013 71.7036 55.2148 70.9614 55.2148C70.2192 55.2148 69.6593 55.013 69.2817 54.6094C68.9172 54.2057 68.7349 53.7044 68.7349 53.1055Z" fill="white"/>
<path d="M124.398 153.621C108.318 148.999 96.599 143.335 89.2422 136.629C81.9505 129.858 78.3047 121.525 78.3047 111.629C78.3047 100.431 82.7643 91.1862 91.6836 83.8945C100.668 76.5378 112.322 72.8594 126.645 72.8594C136.41 72.8594 145.102 74.7474 152.719 78.5234C160.401 82.2995 166.326 87.5078 170.492 94.1484C174.724 100.789 176.84 108.048 176.84 115.926H157.992C157.992 107.332 155.258 100.594 149.789 95.7109C144.32 90.763 136.605 88.2891 126.645 88.2891C117.4 88.2891 110.173 90.3398 104.965 94.4414C99.8216 98.4779 97.25 104.109 97.25 111.336C97.25 117.13 99.6914 122.046 104.574 126.082C109.522 130.053 117.888 133.699 129.672 137.02C141.521 140.34 150.766 144.018 157.406 148.055C164.112 152.026 169.06 156.681 172.25 162.02C175.505 167.358 177.133 173.641 177.133 180.867C177.133 192.391 172.641 201.635 163.656 208.602C154.672 215.503 142.66 218.953 127.621 218.953C117.855 218.953 108.741 217.098 100.277 213.387C91.8138 209.611 85.2708 204.467 80.6484 197.957C76.0911 191.447 73.8125 184.057 73.8125 175.789H92.6602C92.6602 184.383 95.8177 191.186 102.133 196.199C108.513 201.147 117.009 203.621 127.621 203.621C137.517 203.621 145.102 201.603 150.375 197.566C155.648 193.53 158.285 188.029 158.285 181.062C158.285 174.096 155.844 168.725 150.961 164.949C146.078 161.108 137.224 157.332 124.398 153.621ZM249.496 127.547C246.762 127.091 243.799 126.863 240.609 126.863C228.76 126.863 220.72 131.909 216.488 142V217H198.422V111.336H216L216.293 123.543C222.217 114.103 230.616 109.383 241.488 109.383C245.004 109.383 247.673 109.839 249.496 110.75V127.547Z" fill="white"/>
<path d="M65.5996 257.155C61.5794 256 58.6497 254.584 56.8105 252.907C54.9876 251.215 54.0762 249.131 54.0762 246.657C54.0762 243.858 55.1911 241.547 57.4209 239.724C59.667 237.884 62.5804 236.965 66.1611 236.965C68.6025 236.965 70.7754 237.437 72.6797 238.381C74.6003 239.325 76.0814 240.627 77.123 242.287C78.181 243.947 78.71 245.762 78.71 247.731H73.998C73.998 245.583 73.3145 243.898 71.9473 242.678C70.5801 241.441 68.6514 240.822 66.1611 240.822C63.8499 240.822 62.0433 241.335 60.7412 242.36C59.4554 243.369 58.8125 244.777 58.8125 246.584C58.8125 248.033 59.4229 249.261 60.6436 250.271C61.8805 251.263 63.972 252.175 66.918 253.005C69.8802 253.835 72.1914 254.755 73.8516 255.764C75.528 256.757 76.765 257.92 77.5625 259.255C78.3763 260.59 78.7832 262.16 78.7832 263.967C78.7832 266.848 77.6602 269.159 75.4141 270.9C73.168 272.626 70.165 273.488 66.4053 273.488C63.9639 273.488 61.6852 273.024 59.5693 272.097C57.4535 271.153 55.8177 269.867 54.6621 268.239C53.5228 266.612 52.9531 264.764 52.9531 262.697H57.665C57.665 264.846 58.4544 266.547 60.0332 267.8C61.6283 269.037 63.7523 269.655 66.4053 269.655C68.8792 269.655 70.7754 269.151 72.0938 268.142C73.4121 267.132 74.0713 265.757 74.0713 264.016C74.0713 262.274 73.4609 260.931 72.2402 259.987C71.0195 259.027 68.806 258.083 65.5996 257.155ZM90.2334 240.188V246.584H95.165V250.075H90.2334V266.457C90.2334 267.515 90.4531 268.312 90.8926 268.85C91.332 269.37 92.0807 269.631 93.1387 269.631C93.6595 269.631 94.3757 269.533 95.2871 269.338V273C94.099 273.326 92.9434 273.488 91.8203 273.488C89.8021 273.488 88.2803 272.878 87.2549 271.657C86.2295 270.437 85.7168 268.703 85.7168 266.457V250.075H80.9072V246.584H85.7168V240.188H90.2334ZM113.231 250.637C112.548 250.523 111.807 250.466 111.01 250.466C108.048 250.466 106.037 251.727 104.979 254.25V273H100.463V246.584H104.857L104.931 249.636C106.412 247.276 108.511 246.096 111.229 246.096C112.108 246.096 112.776 246.21 113.231 246.438V250.637ZM115.722 259.548C115.722 256.96 116.226 254.632 117.235 252.565C118.261 250.498 119.677 248.903 121.483 247.78C123.306 246.657 125.382 246.096 127.709 246.096C131.306 246.096 134.211 247.341 136.425 249.831C138.655 252.321 139.77 255.633 139.77 259.768V260.085C139.77 262.657 139.273 264.968 138.28 267.019C137.304 269.053 135.896 270.64 134.057 271.779C132.234 272.919 130.134 273.488 127.758 273.488C124.177 273.488 121.272 272.243 119.042 269.753C116.828 267.263 115.722 263.967 115.722 259.865V259.548ZM120.263 260.085C120.263 263.015 120.938 265.367 122.289 267.141C123.656 268.915 125.479 269.802 127.758 269.802C130.053 269.802 131.876 268.907 133.227 267.116C134.577 265.31 135.253 262.787 135.253 259.548C135.253 256.651 134.561 254.307 133.178 252.517C131.811 250.71 129.988 249.807 127.709 249.807C125.479 249.807 123.681 250.694 122.313 252.468C120.946 254.242 120.263 256.781 120.263 260.085ZM149.706 246.584L149.853 249.904C151.871 247.365 154.507 246.096 157.763 246.096C163.345 246.096 166.161 249.245 166.21 255.544V273H161.693V255.52C161.677 253.615 161.238 252.207 160.375 251.296C159.529 250.384 158.202 249.929 156.396 249.929C154.931 249.929 153.645 250.319 152.538 251.101C151.431 251.882 150.569 252.907 149.95 254.177V273H145.434V246.584H149.706ZM179.149 240.188V246.584H184.081V250.075H179.149V266.457C179.149 267.515 179.369 268.312 179.809 268.85C180.248 269.37 180.997 269.631 182.055 269.631C182.576 269.631 183.292 269.533 184.203 269.338V273C183.015 273.326 181.859 273.488 180.736 273.488C178.718 273.488 177.196 272.878 176.171 271.657C175.146 270.437 174.633 268.703 174.633 266.457V250.075H169.823V246.584H174.633V240.188H179.149ZM194.286 273H189.77V246.584H194.286V273ZM189.403 239.577C189.403 238.845 189.623 238.226 190.062 237.722C190.518 237.217 191.186 236.965 192.064 236.965C192.943 236.965 193.611 237.217 194.066 237.722C194.522 238.226 194.75 238.845 194.75 239.577C194.75 240.31 194.522 240.92 194.066 241.408C193.611 241.896 192.943 242.141 192.064 242.141C191.186 242.141 190.518 241.896 190.062 241.408C189.623 240.92 189.403 240.31 189.403 239.577ZM217.846 270.388C216.088 272.455 213.508 273.488 210.106 273.488C207.291 273.488 205.142 272.674 203.661 271.047C202.196 269.403 201.456 266.978 201.439 263.771V246.584H205.956V263.649C205.956 267.653 207.584 269.655 210.839 269.655C214.289 269.655 216.584 268.369 217.724 265.798V246.584H222.24V273H217.943L217.846 270.388ZM233.373 246.584L233.495 249.514C235.432 247.235 238.044 246.096 241.332 246.096C245.027 246.096 247.541 247.512 248.876 250.344C249.755 249.074 250.894 248.049 252.294 247.268C253.71 246.486 255.378 246.096 257.299 246.096C263.093 246.096 266.039 249.164 266.137 255.3V273H261.62V255.568C261.62 253.68 261.189 252.272 260.326 251.345C259.464 250.401 258.015 249.929 255.98 249.929C254.304 249.929 252.912 250.433 251.806 251.442C250.699 252.435 250.056 253.778 249.877 255.471V273H245.336V255.69C245.336 251.849 243.456 249.929 239.696 249.929C236.734 249.929 234.708 251.19 233.617 253.713V273H229.101V246.584H233.373Z" fill="white"/>
<path d="M136.707 297.238C136.707 298.303 136.424 299.25 135.857 300.08C135.301 300.91 134.544 301.56 133.587 302.028C134.7 302.507 135.579 303.205 136.224 304.123C136.878 305.041 137.205 306.081 137.205 307.243C137.205 309.089 136.58 310.559 135.33 311.652C134.09 312.746 132.454 313.293 130.423 313.293C128.372 313.293 126.727 312.746 125.486 311.652C124.256 310.549 123.641 309.079 123.641 307.243C123.641 306.091 123.953 305.051 124.578 304.123C125.213 303.195 126.087 302.492 127.2 302.014C126.253 301.545 125.506 300.896 124.959 300.065C124.412 299.235 124.139 298.293 124.139 297.238C124.139 295.441 124.715 294.016 125.867 292.961C127.02 291.906 128.538 291.379 130.423 291.379C132.298 291.379 133.812 291.906 134.964 292.961C136.126 294.016 136.707 295.441 136.707 297.238ZM134.495 307.185C134.495 305.993 134.114 305.021 133.353 304.27C132.601 303.518 131.614 303.142 130.394 303.142C129.173 303.142 128.191 303.513 127.449 304.255C126.717 304.997 126.351 305.974 126.351 307.185C126.351 308.396 126.707 309.348 127.42 310.041C128.143 310.734 129.144 311.081 130.423 311.081C131.692 311.081 132.688 310.734 133.411 310.041C134.134 309.338 134.495 308.386 134.495 307.185ZM130.423 293.605C129.358 293.605 128.494 293.938 127.83 294.602C127.176 295.256 126.849 296.149 126.849 297.282C126.849 298.366 127.171 299.245 127.815 299.919C128.47 300.583 129.339 300.915 130.423 300.915C131.507 300.915 132.371 300.583 133.016 299.919C133.67 299.245 133.997 298.366 133.997 297.282C133.997 296.198 133.66 295.314 132.986 294.631C132.312 293.947 131.458 293.605 130.423 293.605ZM154.388 293.195L145.555 313H142.713L151.517 293.898H139.974V291.672H154.388V293.195ZM157.801 311.579C157.801 311.11 157.938 310.72 158.211 310.407C158.494 310.095 158.914 309.938 159.471 309.938C160.027 309.938 160.447 310.095 160.73 310.407C161.023 310.72 161.17 311.11 161.17 311.579C161.17 312.028 161.023 312.404 160.73 312.707C160.447 313.01 160.027 313.161 159.471 313.161C158.914 313.161 158.494 313.01 158.211 312.707C157.938 312.404 157.801 312.028 157.801 311.579ZM176.009 291.657V293.957H175.511C173.401 293.996 171.722 294.621 170.472 295.832C169.222 297.043 168.499 298.747 168.304 300.944C169.427 299.655 170.96 299.011 172.903 299.011C174.759 299.011 176.238 299.665 177.342 300.974C178.455 302.282 179.012 303.972 179.012 306.042C179.012 308.239 178.411 309.997 177.21 311.315C176.019 312.634 174.417 313.293 172.405 313.293C170.364 313.293 168.709 312.512 167.439 310.949C166.17 309.377 165.535 307.355 165.535 304.885V303.845C165.535 299.919 166.37 296.921 168.04 294.851C169.72 292.771 172.215 291.706 175.525 291.657H176.009ZM172.449 301.267C171.521 301.267 170.667 301.545 169.886 302.102C169.104 302.658 168.562 303.356 168.26 304.196V305.192C168.26 306.95 168.655 308.366 169.446 309.44C170.237 310.515 171.224 311.052 172.405 311.052C173.626 311.052 174.583 310.603 175.276 309.704C175.979 308.806 176.331 307.629 176.331 306.174C176.331 304.709 175.975 303.527 175.262 302.629C174.559 301.721 173.621 301.267 172.449 301.267ZM196.194 313H182.22V311.052L189.603 302.849C190.696 301.608 191.448 300.603 191.858 299.831C192.278 299.05 192.488 298.244 192.488 297.414C192.488 296.301 192.151 295.388 191.478 294.675C190.804 293.962 189.905 293.605 188.782 293.605C187.435 293.605 186.385 293.991 185.633 294.763C184.891 295.524 184.52 296.589 184.52 297.956H181.81C181.81 295.993 182.439 294.406 183.699 293.195C184.969 291.984 186.663 291.379 188.782 291.379C190.765 291.379 192.332 291.901 193.484 292.946C194.637 293.981 195.213 295.363 195.213 297.092C195.213 299.191 193.875 301.691 191.199 304.592L185.486 310.788H196.194V313Z" fill="white"/>
</g>
<defs>
<filter id="filter0_d_23:50" x="0" y="0" width="332" height="346" filterUnits="userSpaceOnUse" color-interpolation-filters="sRGB">
<feFlood flood-opacity="0" result="BackgroundImageFix"/>
<feColorMatrix in="SourceAlpha" type="matrix" values="0 0 0 0 0 0 0 0 0 0 0 0 0 0 0 0 0 0 127 0" result="hardAlpha"/>
<feOffset dx="8" dy="9"/>
<feGaussianBlur stdDeviation="2"/>
<feComposite in2="hardAlpha" operator="out"/>
<feColorMatrix type="matrix" values="0 0 0 0 0 0 0 0 0 0 0 0 0 0 0 0 0 0 0.25 0"/>
<feBlend mode="normal" in2="BackgroundImageFix" result="effect1_dropShadow_23:50"/>
<feBlend mode="normal" in="SourceGraphic" in2="effect1_dropShadow_23:50" result="shape"/>
</filter>
<linearGradient id="paint0_linear_23:50" x1="160" y1="0" x2="160" y2="333" gradientUnits="userSpaceOnUse">
<stop stop-color="#007E58"/>
<stop offset="1" stop-color="#2F4D7A" stop-opacity="0.95"/>
</linearGradient>
</defs>
</svg>
