<svg width="332" height="346" viewBox="0 0 332 346" fill="none" xmlns="http://www.w3.org/2000/svg">
<g filter="url(#filter0_d)">
<rect width="320" height="333" fill="url(#paint0_linear)"/>
<path d="M159.398 153.621C143.318 148.999 131.599 143.335 124.242 136.629C116.951 129.858 113.305 121.525 113.305 111.629C113.305 100.431 117.764 91.1862 126.684 83.8945C135.668 76.5378 147.322 72.8594 161.645 72.8594C171.41 72.8594 180.102 74.7474 187.719 78.5234C195.401 82.2995 201.326 87.5078 205.492 94.1484C209.724 100.789 211.84 108.048 211.84 115.926H192.992C192.992 107.332 190.258 100.594 184.789 95.7109C179.32 90.763 171.605 88.2891 161.645 88.2891C152.4 88.2891 145.173 90.3398 139.965 94.4414C134.822 98.4779 132.25 104.109 132.25 111.336C132.25 117.13 134.691 122.046 139.574 126.082C144.522 130.053 152.888 133.699 164.672 137.02C176.521 140.34 185.766 144.018 192.406 148.055C199.112 152.026 204.06 156.681 207.25 162.02C210.505 167.358 212.133 173.641 212.133 180.867C212.133 192.391 207.641 201.635 198.656 208.602C189.672 215.503 177.66 218.953 162.621 218.953C152.855 218.953 143.741 217.098 135.277 213.387C126.814 209.611 120.271 204.467 115.648 197.957C111.091 191.447 108.812 184.057 108.812 175.789H127.66C127.66 184.383 130.818 191.186 137.133 196.199C143.513 201.147 152.009 203.621 162.621 203.621C172.517 203.621 180.102 201.603 185.375 197.566C190.648 193.53 193.285 188.029 193.285 181.062C193.285 174.096 190.844 168.725 185.961 164.949C181.078 161.108 172.224 157.332 159.398 153.621Z" fill="white"/>
<path d="M35.2388 55H31.606V30.918L24.3208 33.5938V30.3125L34.6724 26.4258H35.2388V55ZM60.0044 26.543V29.6094H59.3403C56.5278 29.6615 54.2882 30.4948 52.6216 32.1094C50.9549 33.724 49.9914 35.9961 49.731 38.9258C51.2284 37.207 53.2726 36.3477 55.8638 36.3477C58.3377 36.3477 60.3104 37.2201 61.7817 38.9648C63.2661 40.7096 64.0083 42.9622 64.0083 45.7227C64.0083 48.6523 63.2075 50.9961 61.606 52.7539C60.0174 54.5117 57.882 55.3906 55.1997 55.3906C52.4784 55.3906 50.2713 54.349 48.5786 52.2656C46.8859 50.1693 46.0396 47.474 46.0396 44.1797V42.793C46.0396 37.5586 47.1528 33.5612 49.3794 30.8008C51.619 28.0273 54.9458 26.6081 59.3599 26.543H60.0044ZM55.2583 39.3555C54.0213 39.3555 52.882 39.7266 51.8403 40.4688C50.7987 41.2109 50.076 42.1419 49.6724 43.2617V44.5898C49.6724 46.9336 50.1997 48.8216 51.2544 50.2539C52.3091 51.6862 53.6242 52.4023 55.1997 52.4023C56.8273 52.4023 58.1034 51.8034 59.0278 50.6055C59.9653 49.4076 60.4341 47.8385 60.4341 45.8984C60.4341 43.9453 59.9588 42.3698 59.0083 41.1719C58.0708 39.9609 56.8208 39.3555 55.2583 39.3555ZM68.7349 53.1055C68.7349 52.4805 68.9172 51.9596 69.2817 51.543C69.6593 51.1263 70.2192 50.918 70.9614 50.918C71.7036 50.918 72.2635 51.1263 72.6411 51.543C73.0317 51.9596 73.2271 52.4805 73.2271 53.1055C73.2271 53.7044 73.0317 54.2057 72.6411 54.6094C72.2635 55.013 71.7036 55.2148 70.9614 55.2148C70.2192 55.2148 69.6593 55.013 69.2817 54.6094C68.9172 54.2057 68.7349 53.7044 68.7349 53.1055Z" fill="white"/>
<path d="M108.6 257.155C104.579 256 101.65 254.584 99.8105 252.907C97.9876 251.215 97.0762 249.131 97.0762 246.657C97.0762 243.858 98.1911 241.547 100.421 239.724C102.667 237.884 105.58 236.965 109.161 236.965C111.603 236.965 113.775 237.437 115.68 238.381C117.6 239.325 119.081 240.627 120.123 242.287C121.181 243.947 121.71 245.762 121.71 247.731H116.998C116.998 245.583 116.314 243.898 114.947 242.678C113.58 241.441 111.651 240.822 109.161 240.822C106.85 240.822 105.043 241.335 103.741 242.36C102.455 243.369 101.812 244.777 101.812 246.584C101.812 248.033 102.423 249.261 103.644 250.271C104.881 251.263 106.972 252.175 109.918 253.005C112.88 253.835 115.191 254.755 116.852 255.764C118.528 256.757 119.765 257.92 120.562 259.255C121.376 260.59 121.783 262.16 121.783 263.967C121.783 266.848 120.66 269.159 118.414 270.9C116.168 272.626 113.165 273.488 109.405 273.488C106.964 273.488 104.685 273.024 102.569 272.097C100.453 271.153 98.8177 269.867 97.6621 268.239C96.5228 266.612 95.9531 264.764 95.9531 262.697H100.665C100.665 264.846 101.454 266.547 103.033 267.8C104.628 269.037 106.752 269.655 109.405 269.655C111.879 269.655 113.775 269.151 115.094 268.142C116.412 267.132 117.071 265.757 117.071 264.016C117.071 262.274 116.461 260.931 115.24 259.987C114.02 259.027 111.806 258.083 108.6 257.155ZM143.414 270.388C141.656 272.455 139.076 273.488 135.675 273.488C132.859 273.488 130.711 272.674 129.229 271.047C127.765 269.403 127.024 266.978 127.008 263.771V246.584H131.524V263.649C131.524 267.653 133.152 269.655 136.407 269.655C139.858 269.655 142.153 268.369 143.292 265.798V246.584H147.809V273H143.512L143.414 270.388ZM159.601 273H155.084V235.5H159.601V273ZM169.073 273V250.075H164.898V246.584H169.073V243.874C169.073 241.042 169.83 238.853 171.344 237.307C172.857 235.76 174.998 234.987 177.765 234.987C178.806 234.987 179.84 235.126 180.865 235.402L180.621 239.064C179.856 238.918 179.042 238.845 178.18 238.845C176.715 238.845 175.584 239.276 174.786 240.139C173.989 240.985 173.59 242.206 173.59 243.801V246.584H179.229V250.075H173.59V273H169.073ZM200.543 270.388C198.785 272.455 196.205 273.488 192.804 273.488C189.988 273.488 187.84 272.674 186.358 271.047C184.894 269.403 184.153 266.978 184.137 263.771V246.584H188.653V263.649C188.653 267.653 190.281 269.655 193.536 269.655C196.987 269.655 199.282 268.369 200.421 265.798V246.584H204.938V273H200.641L200.543 270.388ZM224.591 250.637C223.907 250.523 223.167 250.466 222.369 250.466C219.407 250.466 217.397 251.727 216.339 254.25V273H211.822V246.584H216.217L216.29 249.636C217.771 247.276 219.871 246.096 222.589 246.096C223.468 246.096 224.135 246.21 224.591 246.438V250.637Z" fill="white"/>
<path d="M127.713 301.018H129.749C131.028 300.998 132.034 300.661 132.767 300.007C133.499 299.353 133.865 298.469 133.865 297.355C133.865 294.855 132.62 293.605 130.13 293.605C128.958 293.605 128.021 293.942 127.317 294.616C126.624 295.28 126.277 296.164 126.277 297.268H123.567C123.567 295.578 124.183 294.177 125.413 293.063C126.653 291.94 128.226 291.379 130.13 291.379C132.142 291.379 133.719 291.911 134.861 292.976C136.004 294.04 136.575 295.52 136.575 297.414C136.575 298.342 136.272 299.24 135.667 300.109C135.071 300.979 134.256 301.628 133.221 302.058C134.393 302.429 135.296 303.044 135.931 303.903C136.575 304.763 136.897 305.812 136.897 307.053C136.897 308.967 136.272 310.485 135.022 311.608C133.772 312.731 132.146 313.293 130.145 313.293C128.143 313.293 126.512 312.751 125.252 311.667C124.002 310.583 123.377 309.152 123.377 307.375H126.102C126.102 308.498 126.468 309.396 127.2 310.07C127.933 310.744 128.914 311.081 130.145 311.081C131.453 311.081 132.454 310.739 133.147 310.056C133.841 309.372 134.188 308.391 134.188 307.111C134.188 305.871 133.807 304.919 133.045 304.255C132.283 303.591 131.185 303.249 129.749 303.229H127.713V301.018ZM154.593 313H140.618V311.052L148.001 302.849C149.095 301.608 149.847 300.603 150.257 299.831C150.677 299.05 150.887 298.244 150.887 297.414C150.887 296.301 150.55 295.388 149.876 294.675C149.202 293.962 148.304 293.605 147.181 293.605C145.833 293.605 144.783 293.991 144.031 294.763C143.289 295.524 142.918 296.589 142.918 297.956H140.208C140.208 295.993 140.838 294.406 142.098 293.195C143.367 291.984 145.062 291.379 147.181 291.379C149.163 291.379 150.73 291.901 151.883 292.946C153.035 293.981 153.611 295.363 153.611 297.092C153.611 299.191 152.273 301.691 149.598 304.592L143.885 310.788H154.593V313ZM157.801 311.579C157.801 311.11 157.938 310.72 158.211 310.407C158.494 310.095 158.914 309.938 159.471 309.938C160.027 309.938 160.447 310.095 160.73 310.407C161.023 310.72 161.17 311.11 161.17 311.579C161.17 312.028 161.023 312.404 160.73 312.707C160.447 313.01 160.027 313.161 159.471 313.161C158.914 313.161 158.494 313.01 158.211 312.707C157.938 312.404 157.801 312.028 157.801 311.579ZM178.748 303.903C178.748 307.077 178.206 309.436 177.122 310.979C176.038 312.521 174.344 313.293 172.039 313.293C169.764 313.293 168.079 312.541 166.985 311.037C165.892 309.523 165.325 307.268 165.286 304.27V300.651C165.286 297.517 165.828 295.188 166.912 293.664C167.996 292.141 169.695 291.379 172.01 291.379C174.305 291.379 175.994 292.116 177.078 293.591C178.162 295.056 178.719 297.321 178.748 300.388V303.903ZM176.038 300.197C176.038 297.902 175.716 296.232 175.071 295.188C174.427 294.133 173.406 293.605 172.01 293.605C170.623 293.605 169.612 294.128 168.978 295.173C168.343 296.218 168.016 297.824 167.996 299.992V304.328C167.996 306.633 168.328 308.337 168.992 309.44C169.666 310.534 170.682 311.081 172.039 311.081C173.377 311.081 174.368 310.563 175.013 309.528C175.667 308.493 176.009 306.862 176.038 304.636V300.197ZM192.854 291.657V293.957H192.356C190.247 293.996 188.567 294.621 187.317 295.832C186.067 297.043 185.345 298.747 185.149 300.944C186.272 299.655 187.806 299.011 189.749 299.011C191.604 299.011 193.084 299.665 194.188 300.974C195.301 302.282 195.857 303.972 195.857 306.042C195.857 308.239 195.257 309.997 194.056 311.315C192.864 312.634 191.263 313.293 189.251 313.293C187.21 313.293 185.555 312.512 184.285 310.949C183.016 309.377 182.381 307.355 182.381 304.885V303.845C182.381 299.919 183.216 296.921 184.886 294.851C186.565 292.771 189.061 291.706 192.371 291.657H192.854ZM189.295 301.267C188.367 301.267 187.513 301.545 186.731 302.102C185.95 302.658 185.408 303.356 185.105 304.196V305.192C185.105 306.95 185.501 308.366 186.292 309.44C187.083 310.515 188.069 311.052 189.251 311.052C190.472 311.052 191.429 310.603 192.122 309.704C192.825 308.806 193.177 307.629 193.177 306.174C193.177 304.709 192.82 303.527 192.107 302.629C191.404 301.721 190.467 301.267 189.295 301.267Z" fill="white"/>
</g>
<defs>
<filter id="filter0_d" x="0" y="0" width="332" height="346" filterUnits="userSpaceOnUse" color-interpolation-filters="sRGB">
<feFlood flood-opacity="0" result="BackgroundImageFix"/>
<feColorMatrix in="SourceAlpha" type="matrix" values="0 0 0 0 0 0 0 0 0 0 0 0 0 0 0 0 0 0 127 0" result="hardAlpha"/>
<feOffset dx="8" dy="9"/>
<feGaussianBlur stdDeviation="2"/>
<feComposite in2="hardAlpha" operator="out"/>
<feColorMatrix type="matrix" values="0 0 0 0 0 0 0 0 0 0 0 0 0 0 0 0 0 0 0.25 0"/>
<feBlend mode="normal" in2="BackgroundImageFix" result="effect1_dropShadow"/>
<feBlend mode="normal" in="SourceGraphic" in2="effect1_dropShadow" result="shape"/>
</filter>
<linearGradient id="paint0_linear" x1="160" y1="0" x2="160" y2="333" gradientUnits="userSpaceOnUse">
<stop stop-color="#007E58"/>
<stop offset="1" stop-color="#2F4D7A" stop-opacity="0.95"/>
</linearGradient>
</defs>
</svg>
