<svg width="332" height="346" viewBox="0 0 332 346" fill="none" xmlns="http://www.w3.org/2000/svg">
<g filter="url(#filter0_d_40:20)">
<rect width="320" height="333" fill="url(#paint0_linear_40:20)"/>
<path d="M41.7231 28.5938L29.9458 55H26.1567L37.895 29.5312H22.5044V26.5625H41.7231V28.5938ZM51.0786 39.0234H53.7935C55.4992 38.9974 56.8403 38.5482 57.8169 37.6758C58.7935 36.8034 59.2817 35.625 59.2817 34.1406C59.2817 30.8073 57.6216 29.1406 54.3013 29.1406C52.7388 29.1406 51.4888 29.5898 50.5513 30.4883C49.6268 31.3737 49.1646 32.5521 49.1646 34.0234H45.5513C45.5513 31.7708 46.3716 29.9023 48.0122 28.418C49.6659 26.9206 51.7622 26.1719 54.3013 26.1719C56.9836 26.1719 59.0864 26.8815 60.6099 28.3008C62.1333 29.7201 62.895 31.6927 62.895 34.2188C62.895 35.4557 62.4914 36.6536 61.6841 37.8125C60.8898 38.9714 59.8026 39.8372 58.4224 40.4102C59.9849 40.9049 61.1893 41.7253 62.0356 42.8711C62.895 44.0169 63.3247 45.4167 63.3247 47.0703C63.3247 49.6224 62.4914 51.6471 60.8247 53.1445C59.158 54.6419 56.9901 55.3906 54.3208 55.3906C51.6515 55.3906 49.4771 54.668 47.7974 53.2227C46.1307 51.7773 45.2974 49.8698 45.2974 47.5H48.9302C48.9302 48.9974 49.4185 50.1953 50.395 51.0938C51.3716 51.9922 52.6802 52.4414 54.3208 52.4414C56.0656 52.4414 57.4002 51.9857 58.3247 51.0742C59.2492 50.1628 59.7114 48.8542 59.7114 47.1484C59.7114 45.4948 59.2036 44.2253 58.188 43.3398C57.1724 42.4544 55.7075 41.9987 53.7935 41.9727H51.0786V39.0234ZM68.7349 53.1055C68.7349 52.4805 68.9172 51.9596 69.2817 51.543C69.6593 51.1263 70.2192 50.918 70.9614 50.918C71.7036 50.918 72.2635 51.1263 72.6411 51.543C73.0317 51.9596 73.2271 52.4805 73.2271 53.1055C73.2271 53.7044 73.0317 54.2057 72.6411 54.6094C72.2635 55.013 71.7036 55.2148 70.9614 55.2148C70.2192 55.2148 69.6593 55.013 69.2817 54.6094C68.9172 54.2057 68.7349 53.7044 68.7349 53.1055Z" fill="white"/>
<path d="M166.746 90.2422H121.043V217H102.391V90.2422H56.7852V74.8125H166.746V90.2422ZM239.109 217C238.068 214.917 237.221 211.206 236.57 205.867C228.172 214.591 218.146 218.953 206.492 218.953C196.076 218.953 187.514 216.023 180.809 210.164C174.168 204.24 170.848 196.753 170.848 187.703C170.848 176.701 175.014 168.172 183.348 162.117C191.746 155.997 203.53 152.938 218.699 152.938H236.277V144.637C236.277 138.322 234.389 133.309 230.613 129.598C226.837 125.822 221.271 123.934 213.914 123.934C207.469 123.934 202.065 125.561 197.703 128.816C193.341 132.072 191.16 136.01 191.16 140.633H172.996C172.996 135.359 174.852 130.281 178.562 125.398C182.339 120.451 187.417 116.544 193.797 113.68C200.242 110.815 207.306 109.383 214.988 109.383C227.163 109.383 236.701 112.443 243.602 118.562C250.503 124.617 254.083 132.983 254.344 143.66V192.293C254.344 201.993 255.581 209.708 258.055 215.438V217H239.109ZM209.129 203.23C214.793 203.23 220.164 201.766 225.242 198.836C230.32 195.906 233.999 192.098 236.277 187.41V165.73H222.117C199.982 165.73 188.914 172.208 188.914 185.164C188.914 190.828 190.802 195.255 194.578 198.445C198.354 201.635 203.204 203.23 209.129 203.23Z" fill="white"/>
<path d="M83.6865 241.311H72.2607V273H67.5977V241.311H56.1963V237.453H83.6865V241.311ZM101.777 273C101.517 272.479 101.305 271.551 101.143 270.217C99.043 272.398 96.5365 273.488 93.623 273.488C91.0189 273.488 88.8786 272.756 87.2021 271.291C85.542 269.81 84.7119 267.938 84.7119 265.676C84.7119 262.925 85.7536 260.793 87.8369 259.279C89.9365 257.749 92.8825 256.984 96.6748 256.984H101.069V254.909C101.069 253.33 100.597 252.077 99.6533 251.149C98.7093 250.205 97.3177 249.733 95.4785 249.733C93.8672 249.733 92.5163 250.14 91.4258 250.954C90.3353 251.768 89.79 252.753 89.79 253.908H85.249C85.249 252.59 85.7129 251.32 86.6406 250.1C87.5846 248.863 88.8542 247.886 90.4492 247.17C92.0605 246.454 93.8265 246.096 95.7471 246.096C98.7907 246.096 101.175 246.861 102.9 248.391C104.626 249.904 105.521 251.996 105.586 254.665V266.823C105.586 269.248 105.895 271.177 106.514 272.609V273H101.777ZM94.2822 269.558C95.6982 269.558 97.041 269.191 98.3105 268.459C99.5801 267.727 100.5 266.774 101.069 265.603V260.183H97.5293C91.9954 260.183 89.2285 261.802 89.2285 265.041C89.2285 266.457 89.7005 267.564 90.6445 268.361C91.5885 269.159 92.8011 269.558 94.2822 269.558ZM116.938 246.584L117.085 249.904C119.103 247.365 121.74 246.096 124.995 246.096C130.578 246.096 133.394 249.245 133.442 255.544V273H128.926V255.52C128.91 253.615 128.47 252.207 127.607 251.296C126.761 250.384 125.435 249.929 123.628 249.929C122.163 249.929 120.877 250.319 119.771 251.101C118.664 251.882 117.801 252.907 117.183 254.177V273H112.666V246.584H116.938ZM146.382 240.188V246.584H151.313V250.075H146.382V266.457C146.382 267.515 146.602 268.312 147.041 268.85C147.48 269.37 148.229 269.631 149.287 269.631C149.808 269.631 150.524 269.533 151.436 269.338V273C150.247 273.326 149.092 273.488 147.969 273.488C145.951 273.488 144.429 272.878 143.403 271.657C142.378 270.437 141.865 268.703 141.865 266.457V250.075H137.056V246.584H141.865V240.188H146.382ZM172.92 273C172.66 272.479 172.448 271.551 172.285 270.217C170.186 272.398 167.679 273.488 164.766 273.488C162.161 273.488 160.021 272.756 158.345 271.291C156.685 269.81 155.854 267.938 155.854 265.676C155.854 262.925 156.896 260.793 158.979 259.279C161.079 257.749 164.025 256.984 167.817 256.984H172.212V254.909C172.212 253.33 171.74 252.077 170.796 251.149C169.852 250.205 168.46 249.733 166.621 249.733C165.01 249.733 163.659 250.14 162.568 250.954C161.478 251.768 160.933 252.753 160.933 253.908H156.392C156.392 252.59 156.855 251.32 157.783 250.1C158.727 248.863 159.997 247.886 161.592 247.17C163.203 246.454 164.969 246.096 166.89 246.096C169.933 246.096 172.318 246.861 174.043 248.391C175.768 249.904 176.663 251.996 176.729 254.665V266.823C176.729 269.248 177.038 271.177 177.656 272.609V273H172.92ZM165.425 269.558C166.841 269.558 168.184 269.191 169.453 268.459C170.723 267.727 171.642 266.774 172.212 265.603V260.183H168.672C163.138 260.183 160.371 261.802 160.371 265.041C160.371 266.457 160.843 267.564 161.787 268.361C162.731 269.159 163.944 269.558 165.425 269.558ZM188.716 273H184.199V235.5H188.716V273ZM212.275 270.388C210.518 272.455 207.938 273.488 204.536 273.488C201.72 273.488 199.572 272.674 198.091 271.047C196.626 269.403 195.885 266.978 195.869 263.771V246.584H200.386V263.649C200.386 267.653 202.013 269.655 205.269 269.655C208.719 269.655 211.014 268.369 212.153 265.798V246.584H216.67V273H212.373L212.275 270.388ZM227.803 246.584L227.925 249.514C229.862 247.235 232.474 246.096 235.762 246.096C239.456 246.096 241.971 247.512 243.306 250.344C244.185 249.074 245.324 248.049 246.724 247.268C248.14 246.486 249.808 246.096 251.729 246.096C257.523 246.096 260.469 249.164 260.566 255.3V273H256.05V255.568C256.05 253.68 255.618 252.272 254.756 251.345C253.893 250.401 252.445 249.929 250.41 249.929C248.734 249.929 247.342 250.433 246.235 251.442C245.129 252.435 244.486 253.778 244.307 255.471V273H239.766V255.69C239.766 251.849 237.886 249.929 234.126 249.929C231.164 249.929 229.137 251.19 228.047 253.713V273H223.53V246.584H227.803Z" fill="white"/>
<path d="M124.679 313H121.954V294.938L116.49 296.945V294.484L124.254 291.569H124.679V313ZM145.553 297.238C145.553 298.303 145.27 299.25 144.703 300.08C144.146 300.91 143.39 301.56 142.433 302.028C143.546 302.507 144.425 303.205 145.069 304.123C145.724 305.041 146.051 306.081 146.051 307.243C146.051 309.089 145.426 310.559 144.176 311.652C142.936 312.746 141.3 313.293 139.269 313.293C137.218 313.293 135.572 312.746 134.332 311.652C133.102 310.549 132.486 309.079 132.486 307.243C132.486 306.091 132.799 305.051 133.424 304.123C134.059 303.195 134.933 302.492 136.046 302.014C135.099 301.545 134.352 300.896 133.805 300.065C133.258 299.235 132.984 298.293 132.984 297.238C132.984 295.441 133.561 294.016 134.713 292.961C135.865 291.906 137.384 291.379 139.269 291.379C141.144 291.379 142.657 291.906 143.81 292.961C144.972 294.016 145.553 295.441 145.553 297.238ZM143.341 307.185C143.341 305.993 142.96 305.021 142.198 304.27C141.446 303.518 140.46 303.142 139.239 303.142C138.019 303.142 137.037 303.513 136.295 304.255C135.562 304.997 135.196 305.974 135.196 307.185C135.196 308.396 135.553 309.348 136.266 310.041C136.988 310.734 137.989 311.081 139.269 311.081C140.538 311.081 141.534 310.734 142.257 310.041C142.979 309.338 143.341 308.386 143.341 307.185ZM139.269 293.605C138.204 293.605 137.34 293.938 136.676 294.602C136.021 295.256 135.694 296.149 135.694 297.282C135.694 298.366 136.017 299.245 136.661 299.919C137.315 300.583 138.185 300.915 139.269 300.915C140.353 300.915 141.217 300.583 141.861 299.919C142.516 299.245 142.843 298.366 142.843 297.282C142.843 296.198 142.506 295.314 141.832 294.631C141.158 293.947 140.304 293.605 139.269 293.605ZM162.838 303.903C162.838 307.077 162.296 309.436 161.212 310.979C160.128 312.521 158.434 313.293 156.129 313.293C153.854 313.293 152.169 312.541 151.075 311.037C149.981 309.523 149.415 307.268 149.376 304.27V300.651C149.376 297.517 149.918 295.188 151.002 293.664C152.086 292.141 153.785 291.379 156.1 291.379C158.395 291.379 160.084 292.116 161.168 293.591C162.252 295.056 162.809 297.321 162.838 300.388V303.903ZM160.128 300.197C160.128 297.902 159.806 296.232 159.161 295.188C158.517 294.133 157.496 293.605 156.1 293.605C154.713 293.605 153.702 294.128 153.067 295.173C152.433 296.218 152.105 297.824 152.086 299.992V304.328C152.086 306.633 152.418 308.337 153.082 309.44C153.756 310.534 154.771 311.081 156.129 311.081C157.467 311.081 158.458 310.563 159.103 309.528C159.757 308.493 160.099 306.862 160.128 304.636V300.197ZM166.646 311.579C166.646 311.11 166.783 310.72 167.057 310.407C167.34 310.095 167.76 309.938 168.316 309.938C168.873 309.938 169.293 310.095 169.576 310.407C169.869 310.72 170.016 311.11 170.016 311.579C170.016 312.028 169.869 312.404 169.576 312.707C169.293 313.01 168.873 313.161 168.316 313.161C167.76 313.161 167.34 313.01 167.057 312.707C166.783 312.404 166.646 312.028 166.646 311.579ZM184.605 303.625C184.039 304.299 183.36 304.841 182.569 305.251C181.788 305.661 180.929 305.866 179.991 305.866C178.761 305.866 177.687 305.563 176.769 304.958C175.86 304.353 175.157 303.503 174.659 302.409C174.161 301.306 173.912 300.09 173.912 298.762C173.912 297.336 174.181 296.052 174.718 294.909C175.265 293.767 176.036 292.893 177.032 292.287C178.028 291.682 179.19 291.379 180.519 291.379C182.628 291.379 184.288 292.17 185.499 293.752C186.72 295.324 187.33 297.473 187.33 300.197V300.988C187.33 305.139 186.51 308.171 184.869 310.085C183.229 311.989 180.753 312.966 177.442 313.015H176.915V310.729H177.486C179.723 310.69 181.441 310.109 182.643 308.986C183.844 307.854 184.498 306.066 184.605 303.625ZM180.431 303.625C181.339 303.625 182.174 303.347 182.936 302.79C183.707 302.233 184.269 301.545 184.62 300.725V299.641C184.62 297.863 184.234 296.418 183.463 295.305C182.691 294.191 181.715 293.635 180.533 293.635C179.342 293.635 178.385 294.094 177.662 295.012C176.939 295.92 176.578 297.121 176.578 298.615C176.578 300.07 176.925 301.271 177.618 302.219C178.321 303.156 179.259 303.625 180.431 303.625ZM192.311 302.307L193.395 291.672H204.322V294.177H195.694L195.05 299.992C196.095 299.377 197.281 299.069 198.609 299.069C200.553 299.069 202.096 299.714 203.238 301.003C204.381 302.282 204.952 304.016 204.952 306.203C204.952 308.4 204.356 310.134 203.165 311.403C201.983 312.663 200.328 313.293 198.199 313.293C196.314 313.293 194.776 312.771 193.585 311.726C192.394 310.681 191.715 309.235 191.549 307.39H194.112C194.278 308.61 194.713 309.533 195.416 310.158C196.119 310.773 197.047 311.081 198.199 311.081C199.459 311.081 200.445 310.651 201.158 309.792C201.881 308.933 202.242 307.746 202.242 306.232C202.242 304.807 201.852 303.664 201.07 302.805C200.299 301.936 199.269 301.501 197.979 301.501C196.798 301.501 195.87 301.76 195.196 302.277L194.479 302.863L192.311 302.307Z" fill="white"/>
</g>
<defs>
<filter id="filter0_d_40:20" x="0" y="0" width="332" height="346" filterUnits="userSpaceOnUse" color-interpolation-filters="sRGB">
<feFlood flood-opacity="0" result="BackgroundImageFix"/>
<feColorMatrix in="SourceAlpha" type="matrix" values="0 0 0 0 0 0 0 0 0 0 0 0 0 0 0 0 0 0 127 0" result="hardAlpha"/>
<feOffset dx="8" dy="9"/>
<feGaussianBlur stdDeviation="2"/>
<feComposite in2="hardAlpha" operator="out"/>
<feColorMatrix type="matrix" values="0 0 0 0 0 0 0 0 0 0 0 0 0 0 0 0 0 0 0.25 0"/>
<feBlend mode="normal" in2="BackgroundImageFix" result="effect1_dropShadow_40:20"/>
<feBlend mode="normal" in="SourceGraphic" in2="effect1_dropShadow_40:20" result="shape"/>
</filter>
<linearGradient id="paint0_linear_40:20" x1="160" y1="0" x2="160" y2="333" gradientUnits="userSpaceOnUse">
<stop stop-color="#007E58"/>
<stop offset="1" stop-color="#2F4D7A" stop-opacity="0.95"/>
</linearGradient>
</defs>
</svg>
