<svg width="332" height="346" viewBox="0 0 332 346" fill="none" xmlns="http://www.w3.org/2000/svg">
<g filter="url(#filter0_d_25:20)">
<rect width="320" height="333" fill="url(#paint0_linear_25:20)"/>
<path d="M38.6177 45.4492H42.563V48.3984H38.6177V55H34.9849V48.3984H22.0356V46.2695L34.77 26.5625H38.6177V45.4492ZM26.1372 45.4492H34.9849V31.5039L34.5552 32.2852L26.1372 45.4492ZM51.0786 39.0234H53.7935C55.4992 38.9974 56.8403 38.5482 57.8169 37.6758C58.7935 36.8034 59.2817 35.625 59.2817 34.1406C59.2817 30.8073 57.6216 29.1406 54.3013 29.1406C52.7388 29.1406 51.4888 29.5898 50.5513 30.4883C49.6268 31.3737 49.1646 32.5521 49.1646 34.0234H45.5513C45.5513 31.7708 46.3716 29.9023 48.0122 28.418C49.6659 26.9206 51.7622 26.1719 54.3013 26.1719C56.9836 26.1719 59.0864 26.8815 60.6099 28.3008C62.1333 29.7201 62.895 31.6927 62.895 34.2188C62.895 35.4557 62.4914 36.6536 61.6841 37.8125C60.8898 38.9714 59.8026 39.8372 58.4224 40.4102C59.9849 40.9049 61.1893 41.7253 62.0356 42.8711C62.895 44.0169 63.3247 45.4167 63.3247 47.0703C63.3247 49.6224 62.4914 51.6471 60.8247 53.1445C59.158 54.6419 56.9901 55.3906 54.3208 55.3906C51.6515 55.3906 49.4771 54.668 47.7974 53.2227C46.1307 51.7773 45.2974 49.8698 45.2974 47.5H48.9302C48.9302 48.9974 49.4185 50.1953 50.395 51.0938C51.3716 51.9922 52.6802 52.4414 54.3208 52.4414C56.0656 52.4414 57.4002 51.9857 58.3247 51.0742C59.2492 50.1628 59.7114 48.8542 59.7114 47.1484C59.7114 45.4948 59.2036 44.2253 58.188 43.3398C57.1724 42.4544 55.7075 41.9987 53.7935 41.9727H51.0786V39.0234ZM68.7349 53.1055C68.7349 52.4805 68.9172 51.9596 69.2817 51.543C69.6593 51.1263 70.2192 50.918 70.9614 50.918C71.7036 50.918 72.2635 51.1263 72.6411 51.543C73.0317 51.9596 73.2271 52.4805 73.2271 53.1055C73.2271 53.7044 73.0317 54.2057 72.6411 54.6094C72.2635 55.013 71.7036 55.2148 70.9614 55.2148C70.2192 55.2148 69.6593 55.013 69.2817 54.6094C68.9172 54.2057 68.7349 53.7044 68.7349 53.1055Z" fill="white"/>
<path d="M167.746 90.2422H122.043V217H103.391V90.2422H57.7852V74.8125H167.746V90.2422ZM218.625 204.207C225.07 204.207 230.702 202.254 235.52 198.348C240.337 194.441 243.007 189.559 243.527 183.699H260.617C260.292 189.754 258.208 195.516 254.367 200.984C250.526 206.453 245.383 210.815 238.938 214.07C232.557 217.326 225.786 218.953 218.625 218.953C204.237 218.953 192.779 214.168 184.25 204.598C175.786 194.962 171.555 181.811 171.555 165.145V162.117C171.555 151.831 173.443 142.684 177.219 134.676C180.995 126.668 186.398 120.451 193.43 116.023C200.526 111.596 208.892 109.383 218.527 109.383C230.376 109.383 240.207 112.931 248.02 120.027C255.897 127.124 260.096 136.336 260.617 147.664H243.527C243.007 140.828 240.402 135.229 235.715 130.867C231.092 126.44 225.363 124.227 218.527 124.227C209.348 124.227 202.219 127.547 197.141 134.188C192.128 140.763 189.621 150.301 189.621 162.801V166.219C189.621 178.393 192.128 187.768 197.141 194.344C202.154 200.919 209.315 204.207 218.625 204.207Z" fill="white"/>
<path d="M57.6865 241.311H46.2607V273H41.5977V241.311H30.1963V237.453H57.6865V241.311ZM70.7725 273.488C67.1917 273.488 64.2783 272.316 62.0322 269.973C59.7861 267.613 58.6631 264.463 58.6631 260.524V259.694C58.6631 257.074 59.1595 254.738 60.1523 252.688C61.1615 250.62 62.5612 249.009 64.3516 247.854C66.1582 246.682 68.1113 246.096 70.2109 246.096C73.6452 246.096 76.3145 247.227 78.2188 249.489C80.123 251.752 81.0752 254.991 81.0752 259.206V261.086H63.1797C63.2448 263.69 64.0016 265.798 65.4502 267.409C66.915 269.004 68.7705 269.802 71.0166 269.802C72.6117 269.802 73.9626 269.476 75.0693 268.825C76.1761 268.174 77.1445 267.312 77.9746 266.237L80.7334 268.386C78.5199 271.787 75.1995 273.488 70.7725 273.488ZM70.2109 249.807C68.388 249.807 66.8581 250.474 65.6211 251.809C64.3841 253.127 63.6191 254.982 63.3262 257.375H76.5586V257.033C76.4284 254.738 75.8099 252.964 74.7031 251.711C73.5964 250.441 72.099 249.807 70.2109 249.807ZM96.9199 269.802C98.5312 269.802 99.9391 269.313 101.144 268.337C102.348 267.36 103.015 266.14 103.146 264.675H107.418C107.337 266.188 106.816 267.629 105.855 268.996C104.895 270.363 103.609 271.454 101.998 272.268C100.403 273.081 98.7103 273.488 96.9199 273.488C93.3229 273.488 90.4583 272.292 88.3262 269.899C86.2103 267.491 85.1523 264.203 85.1523 260.036V259.279C85.1523 256.708 85.6243 254.421 86.5684 252.419C87.5124 250.417 88.8633 248.863 90.6211 247.756C92.3952 246.649 94.4867 246.096 96.8955 246.096C99.8577 246.096 102.315 246.983 104.269 248.757C106.238 250.531 107.288 252.834 107.418 255.666H103.146C103.015 253.957 102.364 252.557 101.192 251.467C100.037 250.36 98.6045 249.807 96.8955 249.807C94.6006 249.807 92.8184 250.637 91.5488 252.297C90.2956 253.941 89.6689 256.325 89.6689 259.45V260.305C89.6689 263.348 90.2956 265.692 91.5488 267.336C92.8021 268.98 94.5924 269.802 96.9199 269.802ZM117.013 249.782C119.015 247.325 121.619 246.096 124.825 246.096C130.408 246.096 133.224 249.245 133.272 255.544V273H128.756V255.52C128.74 253.615 128.3 252.207 127.438 251.296C126.591 250.384 125.265 249.929 123.458 249.929C121.993 249.929 120.707 250.319 119.601 251.101C118.494 251.882 117.631 252.907 117.013 254.177V273H112.496V235.5H117.013V249.782ZM144.308 246.584L144.454 249.904C146.472 247.365 149.109 246.096 152.364 246.096C157.947 246.096 160.763 249.245 160.812 255.544V273H156.295V255.52C156.279 253.615 155.839 252.207 154.977 251.296C154.13 250.384 152.804 249.929 150.997 249.929C149.532 249.929 148.246 250.319 147.14 251.101C146.033 251.882 145.17 252.907 144.552 254.177V273H140.035V246.584H144.308ZM178.585 273.488C175.004 273.488 172.091 272.316 169.845 269.973C167.599 267.613 166.476 264.463 166.476 260.524V259.694C166.476 257.074 166.972 254.738 167.965 252.688C168.974 250.62 170.374 249.009 172.164 247.854C173.971 246.682 175.924 246.096 178.023 246.096C181.458 246.096 184.127 247.227 186.031 249.489C187.936 251.752 188.888 254.991 188.888 259.206V261.086H170.992C171.057 263.69 171.814 265.798 173.263 267.409C174.728 269.004 176.583 269.802 178.829 269.802C180.424 269.802 181.775 269.476 182.882 268.825C183.989 268.174 184.957 267.312 185.787 266.237L188.546 268.386C186.332 271.787 183.012 273.488 178.585 273.488ZM178.023 249.807C176.201 249.807 174.671 250.474 173.434 251.809C172.197 253.127 171.432 254.982 171.139 257.375H184.371V257.033C184.241 254.738 183.622 252.964 182.516 251.711C181.409 250.441 179.911 249.807 178.023 249.807ZM200.265 240.188V246.584H205.196V250.075H200.265V266.457C200.265 267.515 200.484 268.312 200.924 268.85C201.363 269.37 202.112 269.631 203.17 269.631C203.691 269.631 204.407 269.533 205.318 269.338V273C204.13 273.326 202.975 273.488 201.852 273.488C199.833 273.488 198.312 272.878 197.286 271.657C196.261 270.437 195.748 268.703 195.748 266.457V250.075H190.938V246.584H195.748V240.188H200.265ZM215.401 273H210.885V246.584H215.401V273ZM210.519 239.577C210.519 238.845 210.738 238.226 211.178 237.722C211.633 237.217 212.301 236.965 213.18 236.965C214.059 236.965 214.726 237.217 215.182 237.722C215.637 238.226 215.865 238.845 215.865 239.577C215.865 240.31 215.637 240.92 215.182 241.408C214.726 241.896 214.059 242.141 213.18 242.141C212.301 242.141 211.633 241.896 211.178 241.408C210.738 240.92 210.519 240.31 210.519 239.577ZM238.961 270.388C237.203 272.455 234.623 273.488 231.222 273.488C228.406 273.488 226.257 272.674 224.776 271.047C223.312 269.403 222.571 266.978 222.555 263.771V246.584H227.071V263.649C227.071 267.653 228.699 269.655 231.954 269.655C235.405 269.655 237.7 268.369 238.839 265.798V246.584H243.355V273H239.059L238.961 270.388ZM254.488 246.584L254.61 249.514C256.547 247.235 259.16 246.096 262.447 246.096C266.142 246.096 268.657 247.512 269.991 250.344C270.87 249.074 272.009 248.049 273.409 247.268C274.825 246.486 276.493 246.096 278.414 246.096C284.208 246.096 287.154 249.164 287.252 255.3V273H282.735V255.568C282.735 253.68 282.304 252.272 281.441 251.345C280.579 250.401 279.13 249.929 277.096 249.929C275.419 249.929 274.028 250.433 272.921 251.442C271.814 252.435 271.171 253.778 270.992 255.471V273H266.451V255.69C266.451 251.849 264.571 249.929 260.812 249.929C257.849 249.929 255.823 251.19 254.732 253.713V273H250.216V246.584H254.488Z" fill="white"/>
<path d="M155.158 303.625C154.592 304.299 153.913 304.841 153.122 305.251C152.341 305.661 151.481 305.866 150.544 305.866C149.313 305.866 148.239 305.563 147.321 304.958C146.413 304.353 145.71 303.503 145.212 302.409C144.714 301.306 144.465 300.09 144.465 298.762C144.465 297.336 144.733 296.052 145.271 294.909C145.817 293.767 146.589 292.893 147.585 292.287C148.581 291.682 149.743 291.379 151.071 291.379C153.181 291.379 154.841 292.17 156.052 293.752C157.272 295.324 157.883 297.473 157.883 300.197V300.988C157.883 305.139 157.062 308.171 155.422 310.085C153.781 311.989 151.306 312.966 147.995 313.015H147.468V310.729H148.039C150.275 310.69 151.994 310.109 153.195 308.986C154.396 307.854 155.051 306.066 155.158 303.625ZM150.983 303.625C151.892 303.625 152.727 303.347 153.488 302.79C154.26 302.233 154.821 301.545 155.173 300.725V299.641C155.173 297.863 154.787 296.418 154.016 295.305C153.244 294.191 152.268 293.635 151.086 293.635C149.895 293.635 148.938 294.094 148.215 295.012C147.492 295.92 147.131 297.121 147.131 298.615C147.131 300.07 147.478 301.271 148.171 302.219C148.874 303.156 149.812 303.625 150.983 303.625ZM174.553 297.238C174.553 298.303 174.27 299.25 173.703 300.08C173.146 300.91 172.39 301.56 171.433 302.028C172.546 302.507 173.425 303.205 174.069 304.123C174.724 305.041 175.051 306.081 175.051 307.243C175.051 309.089 174.426 310.559 173.176 311.652C171.936 312.746 170.3 313.293 168.269 313.293C166.218 313.293 164.572 312.746 163.332 311.652C162.102 310.549 161.486 309.079 161.486 307.243C161.486 306.091 161.799 305.051 162.424 304.123C163.059 303.195 163.933 302.492 165.046 302.014C164.099 301.545 163.352 300.896 162.805 300.065C162.258 299.235 161.984 298.293 161.984 297.238C161.984 295.441 162.561 294.016 163.713 292.961C164.865 291.906 166.384 291.379 168.269 291.379C170.144 291.379 171.657 291.906 172.81 292.961C173.972 294.016 174.553 295.441 174.553 297.238ZM172.341 307.185C172.341 305.993 171.96 305.021 171.198 304.27C170.446 303.518 169.46 303.142 168.239 303.142C167.019 303.142 166.037 303.513 165.295 304.255C164.562 304.997 164.196 305.974 164.196 307.185C164.196 308.396 164.553 309.348 165.266 310.041C165.988 310.734 166.989 311.081 168.269 311.081C169.538 311.081 170.534 310.734 171.257 310.041C171.979 309.338 172.341 308.386 172.341 307.185ZM168.269 293.605C167.204 293.605 166.34 293.938 165.676 294.602C165.021 295.256 164.694 296.149 164.694 297.282C164.694 298.366 165.017 299.245 165.661 299.919C166.315 300.583 167.185 300.915 168.269 300.915C169.353 300.915 170.217 300.583 170.861 299.919C171.516 299.245 171.843 298.366 171.843 297.282C171.843 296.198 171.506 295.314 170.832 294.631C170.158 293.947 169.304 293.605 168.269 293.605Z" fill="white"/>
</g>
<defs>
<filter id="filter0_d_25:20" x="0" y="0" width="332" height="346" filterUnits="userSpaceOnUse" color-interpolation-filters="sRGB">
<feFlood flood-opacity="0" result="BackgroundImageFix"/>
<feColorMatrix in="SourceAlpha" type="matrix" values="0 0 0 0 0 0 0 0 0 0 0 0 0 0 0 0 0 0 127 0" result="hardAlpha"/>
<feOffset dx="8" dy="9"/>
<feGaussianBlur stdDeviation="2"/>
<feComposite in2="hardAlpha" operator="out"/>
<feColorMatrix type="matrix" values="0 0 0 0 0 0 0 0 0 0 0 0 0 0 0 0 0 0 0.25 0"/>
<feBlend mode="normal" in2="BackgroundImageFix" result="effect1_dropShadow_25:20"/>
<feBlend mode="normal" in="SourceGraphic" in2="effect1_dropShadow_25:20" result="shape"/>
</filter>
<linearGradient id="paint0_linear_25:20" x1="160" y1="0" x2="160" y2="333" gradientUnits="userSpaceOnUse">
<stop stop-color="#007E58"/>
<stop offset="1" stop-color="#2F4D7A" stop-opacity="0.95"/>
</linearGradient>
</defs>
</svg>
