<svg width="332" height="346" viewBox="0 0 332 346" fill="none" xmlns="http://www.w3.org/2000/svg">
<g filter="url(#filter0_d_45:68)">
<rect width="320" height="333" fill="url(#paint0_linear_45:68)"/>
<path d="M35.2388 55H31.606V30.918L24.3208 33.5938V30.3125L34.6724 26.4258H35.2388V55ZM57.6997 55H54.0669V30.918L46.7817 33.5938V30.3125L57.1333 26.4258H57.6997V55ZM86.645 28.5938L74.8677 55H71.0786L82.8169 29.5312H67.4263V26.5625H86.645V28.5938ZM91.1958 53.1055C91.1958 52.4805 91.3781 51.9596 91.7427 51.543C92.1203 51.1263 92.6802 50.918 93.4224 50.918C94.1646 50.918 94.7244 51.1263 95.1021 51.543C95.4927 51.9596 95.688 52.4805 95.688 53.1055C95.688 53.7044 95.4927 54.2057 95.1021 54.6094C94.7244 55.013 94.1646 55.2148 93.4224 55.2148C92.6802 55.2148 92.1203 55.013 91.7427 54.6094C91.3781 54.2057 91.1958 53.7044 91.1958 53.1055Z" fill="white"/>
<path d="M168.746 90.2422H123.043V217H104.391V90.2422H58.7852V74.8125H168.746V90.2422ZM237.203 188.973C237.203 184.09 235.348 180.314 231.637 177.645C227.991 174.91 221.578 172.566 212.398 170.613C203.284 168.66 196.025 166.316 190.621 163.582C185.283 160.848 181.311 157.592 178.707 153.816C176.168 150.04 174.898 145.548 174.898 140.34C174.898 131.681 178.544 124.357 185.836 118.367C193.193 112.378 202.568 109.383 213.961 109.383C225.94 109.383 235.641 112.475 243.062 118.66C250.549 124.845 254.293 132.755 254.293 142.391H236.129C236.129 137.443 234.013 133.178 229.781 129.598C225.615 126.017 220.341 124.227 213.961 124.227C207.385 124.227 202.242 125.659 198.531 128.523C194.82 131.388 192.965 135.132 192.965 139.754C192.965 144.116 194.69 147.404 198.141 149.617C201.591 151.831 207.809 153.947 216.793 155.965C225.842 157.983 233.167 160.392 238.766 163.191C244.365 165.991 248.499 169.376 251.168 173.348C253.902 177.254 255.27 182.039 255.27 187.703C255.27 197.143 251.493 204.728 243.941 210.457C236.389 216.121 226.591 218.953 214.547 218.953C206.083 218.953 198.596 217.456 192.086 214.461C185.576 211.466 180.465 207.299 176.754 201.961C173.108 196.557 171.285 190.73 171.285 184.48H189.352C189.677 190.535 192.086 195.353 196.578 198.934C201.135 202.449 207.125 204.207 214.547 204.207C221.383 204.207 226.852 202.84 230.953 200.105C235.12 197.306 237.203 193.595 237.203 188.973Z" fill="white"/>
<path d="M61.6865 241.311H50.2607V273H45.5977V241.311H34.1963V237.453H61.6865V241.311ZM74.7725 273.488C71.1917 273.488 68.2783 272.316 66.0322 269.973C63.7861 267.613 62.6631 264.463 62.6631 260.524V259.694C62.6631 257.074 63.1595 254.738 64.1523 252.688C65.1615 250.62 66.5612 249.009 68.3516 247.854C70.1582 246.682 72.1113 246.096 74.2109 246.096C77.6452 246.096 80.3145 247.227 82.2188 249.489C84.123 251.752 85.0752 254.991 85.0752 259.206V261.086H67.1797C67.2448 263.69 68.0016 265.798 69.4502 267.409C70.915 269.004 72.7705 269.802 75.0166 269.802C76.6117 269.802 77.9626 269.476 79.0693 268.825C80.1761 268.174 81.1445 267.312 81.9746 266.237L84.7334 268.386C82.5199 271.787 79.1995 273.488 74.7725 273.488ZM74.2109 249.807C72.388 249.807 70.8581 250.474 69.6211 251.809C68.3841 253.127 67.6191 254.982 67.3262 257.375H80.5586V257.033C80.4284 254.738 79.8099 252.964 78.7031 251.711C77.5964 250.441 76.099 249.807 74.2109 249.807ZM94.5967 246.584L94.7432 249.904C96.7614 247.365 99.3981 246.096 102.653 246.096C108.236 246.096 111.052 249.245 111.101 255.544V273H106.584V255.52C106.568 253.615 106.128 252.207 105.266 251.296C104.419 250.384 103.093 249.929 101.286 249.929C99.8213 249.929 98.5355 250.319 97.4287 251.101C96.3219 251.882 95.4593 252.907 94.8408 254.177V273H90.3242V246.584H94.5967ZM122.185 246.584L122.331 249.904C124.349 247.365 126.986 246.096 130.241 246.096C135.824 246.096 138.64 249.245 138.688 255.544V273H134.172V255.52C134.156 253.615 133.716 252.207 132.854 251.296C132.007 250.384 130.681 249.929 128.874 249.929C127.409 249.929 126.123 250.319 125.017 251.101C123.91 251.882 123.047 252.907 122.429 254.177V273H117.912V246.584H122.185ZM156.462 273.488C152.881 273.488 149.968 272.316 147.722 269.973C145.476 267.613 144.353 264.463 144.353 260.524V259.694C144.353 257.074 144.849 254.738 145.842 252.688C146.851 250.62 148.251 249.009 150.041 247.854C151.848 246.682 153.801 246.096 155.9 246.096C159.335 246.096 162.004 247.227 163.908 249.489C165.812 251.752 166.765 254.991 166.765 259.206V261.086H148.869C148.934 263.69 149.691 265.798 151.14 267.409C152.604 269.004 154.46 269.802 156.706 269.802C158.301 269.802 159.652 269.476 160.759 268.825C161.866 268.174 162.834 267.312 163.664 266.237L166.423 268.386C164.209 271.787 160.889 273.488 156.462 273.488ZM155.9 249.807C154.077 249.807 152.548 250.474 151.311 251.809C150.074 253.127 149.309 254.982 149.016 257.375H162.248V257.033C162.118 254.738 161.499 252.964 160.393 251.711C159.286 250.441 157.788 249.807 155.9 249.807ZM187.395 265.993C187.395 264.772 186.931 263.828 186.003 263.161C185.091 262.478 183.488 261.892 181.193 261.403C178.915 260.915 177.1 260.329 175.749 259.646C174.414 258.962 173.422 258.148 172.771 257.204C172.136 256.26 171.818 255.137 171.818 253.835C171.818 251.67 172.73 249.839 174.553 248.342C176.392 246.844 178.736 246.096 181.584 246.096C184.579 246.096 187.004 246.869 188.859 248.415C190.731 249.961 191.667 251.939 191.667 254.348H187.126C187.126 253.111 186.597 252.045 185.539 251.149C184.497 250.254 183.179 249.807 181.584 249.807C179.94 249.807 178.654 250.165 177.727 250.881C176.799 251.597 176.335 252.533 176.335 253.688C176.335 254.779 176.766 255.601 177.629 256.154C178.492 256.708 180.046 257.237 182.292 257.741C184.554 258.246 186.385 258.848 187.785 259.548C189.185 260.248 190.218 261.094 190.886 262.087C191.569 263.063 191.911 264.26 191.911 265.676C191.911 268.036 190.967 269.932 189.079 271.364C187.191 272.78 184.742 273.488 181.73 273.488C179.615 273.488 177.743 273.114 176.115 272.365C174.488 271.617 173.21 270.575 172.282 269.24C171.371 267.889 170.915 266.433 170.915 264.87H175.432C175.513 266.384 176.115 267.588 177.238 268.483C178.378 269.362 179.875 269.802 181.73 269.802C183.439 269.802 184.807 269.46 185.832 268.776C186.874 268.076 187.395 267.149 187.395 265.993ZM213.176 265.993C213.176 264.772 212.712 263.828 211.784 263.161C210.873 262.478 209.27 261.892 206.975 261.403C204.696 260.915 202.881 260.329 201.53 259.646C200.196 258.962 199.203 258.148 198.552 257.204C197.917 256.26 197.6 255.137 197.6 253.835C197.6 251.67 198.511 249.839 200.334 248.342C202.173 246.844 204.517 246.096 207.365 246.096C210.36 246.096 212.785 246.869 214.641 248.415C216.512 249.961 217.448 251.939 217.448 254.348H212.907C212.907 253.111 212.378 252.045 211.32 251.149C210.279 250.254 208.96 249.807 207.365 249.807C205.721 249.807 204.436 250.165 203.508 250.881C202.58 251.597 202.116 252.533 202.116 253.688C202.116 254.779 202.548 255.601 203.41 256.154C204.273 256.708 205.827 257.237 208.073 257.741C210.336 258.246 212.167 258.848 213.566 259.548C214.966 260.248 216 261.094 216.667 262.087C217.351 263.063 217.692 264.26 217.692 265.676C217.692 268.036 216.748 269.932 214.86 271.364C212.972 272.78 210.523 273.488 207.512 273.488C205.396 273.488 203.524 273.114 201.896 272.365C200.269 271.617 198.991 270.575 198.063 269.24C197.152 267.889 196.696 266.433 196.696 264.87H201.213C201.294 266.384 201.896 267.588 203.02 268.483C204.159 269.362 205.656 269.802 207.512 269.802C209.221 269.802 210.588 269.46 211.613 268.776C212.655 268.076 213.176 267.149 213.176 265.993ZM228.483 273H223.967V246.584H228.483V273ZM223.601 239.577C223.601 238.845 223.82 238.226 224.26 237.722C224.715 237.217 225.383 236.965 226.262 236.965C227.141 236.965 227.808 237.217 228.264 237.722C228.719 238.226 228.947 238.845 228.947 239.577C228.947 240.31 228.719 240.92 228.264 241.408C227.808 241.896 227.141 242.141 226.262 242.141C225.383 242.141 224.715 241.896 224.26 241.408C223.82 240.92 223.601 240.31 223.601 239.577ZM240.007 246.584L240.153 249.904C242.172 247.365 244.808 246.096 248.063 246.096C253.646 246.096 256.462 249.245 256.511 255.544V273H251.994V255.52C251.978 253.615 251.538 252.207 250.676 251.296C249.829 250.384 248.503 249.929 246.696 249.929C245.231 249.929 243.946 250.319 242.839 251.101C241.732 251.882 240.869 252.907 240.251 254.177V273H235.734V246.584H240.007ZM274.284 273.488C270.703 273.488 267.79 272.316 265.544 269.973C263.298 267.613 262.175 264.463 262.175 260.524V259.694C262.175 257.074 262.671 254.738 263.664 252.688C264.673 250.62 266.073 249.009 267.863 247.854C269.67 246.682 271.623 246.096 273.723 246.096C277.157 246.096 279.826 247.227 281.73 249.489C283.635 251.752 284.587 254.991 284.587 259.206V261.086H266.691C266.757 263.69 267.513 265.798 268.962 267.409C270.427 269.004 272.282 269.802 274.528 269.802C276.123 269.802 277.474 269.476 278.581 268.825C279.688 268.174 280.656 267.312 281.486 266.237L284.245 268.386C282.032 271.787 278.711 273.488 274.284 273.488ZM273.723 249.807C271.9 249.807 270.37 250.474 269.133 251.809C267.896 253.127 267.131 254.982 266.838 257.375H280.07V257.033C279.94 254.738 279.322 252.964 278.215 251.711C277.108 250.441 275.611 249.807 273.723 249.807Z" fill="white"/>
<path d="M150.747 313H136.772V311.052L144.155 302.849C145.249 301.608 146.001 300.603 146.411 299.831C146.831 299.05 147.041 298.244 147.041 297.414C147.041 296.301 146.704 295.388 146.03 294.675C145.356 293.962 144.458 293.605 143.335 293.605C141.987 293.605 140.938 293.991 140.186 294.763C139.443 295.524 139.072 296.589 139.072 297.956H136.362C136.362 295.993 136.992 294.406 138.252 293.195C139.521 291.984 141.216 291.379 143.335 291.379C145.317 291.379 146.885 291.901 148.037 292.946C149.189 293.981 149.766 295.363 149.766 297.092C149.766 299.191 148.428 301.691 145.752 304.592L140.039 310.788H150.747V313ZM164.004 303.625C163.438 304.299 162.759 304.841 161.968 305.251C161.187 305.661 160.327 305.866 159.39 305.866C158.159 305.866 157.085 305.563 156.167 304.958C155.259 304.353 154.556 303.503 154.058 302.409C153.56 301.306 153.311 300.09 153.311 298.762C153.311 297.336 153.579 296.052 154.116 294.909C154.663 293.767 155.435 292.893 156.431 292.287C157.427 291.682 158.589 291.379 159.917 291.379C162.026 291.379 163.687 292.17 164.897 293.752C166.118 295.324 166.729 297.473 166.729 300.197V300.988C166.729 305.139 165.908 308.171 164.268 310.085C162.627 311.989 160.151 312.966 156.841 313.015H156.313V310.729H156.885C159.121 310.69 160.84 310.109 162.041 308.986C163.242 307.854 163.896 306.066 164.004 303.625ZM159.829 303.625C160.737 303.625 161.572 303.347 162.334 302.79C163.105 302.233 163.667 301.545 164.019 300.725V299.641C164.019 297.863 163.633 296.418 162.861 295.305C162.09 294.191 161.113 293.635 159.932 293.635C158.74 293.635 157.783 294.094 157.061 295.012C156.338 295.92 155.977 297.121 155.977 298.615C155.977 300.07 156.323 301.271 157.017 302.219C157.72 303.156 158.657 303.625 159.829 303.625ZM181.904 305.837H184.863V308.049H181.904V313H179.18V308.049H169.468V306.452L179.019 291.672H181.904V305.837ZM172.544 305.837H179.18V295.378L178.857 295.964L172.544 305.837Z" fill="white"/>
</g>
<defs>
<filter id="filter0_d_45:68" x="0" y="0" width="332" height="346" filterUnits="userSpaceOnUse" color-interpolation-filters="sRGB">
<feFlood flood-opacity="0" result="BackgroundImageFix"/>
<feColorMatrix in="SourceAlpha" type="matrix" values="0 0 0 0 0 0 0 0 0 0 0 0 0 0 0 0 0 0 127 0" result="hardAlpha"/>
<feOffset dx="8" dy="9"/>
<feGaussianBlur stdDeviation="2"/>
<feComposite in2="hardAlpha" operator="out"/>
<feColorMatrix type="matrix" values="0 0 0 0 0 0 0 0 0 0 0 0 0 0 0 0 0 0 0.25 0"/>
<feBlend mode="normal" in2="BackgroundImageFix" result="effect1_dropShadow_45:68"/>
<feBlend mode="normal" in="SourceGraphic" in2="effect1_dropShadow_45:68" result="shape"/>
</filter>
<linearGradient id="paint0_linear_45:68" x1="160" y1="0" x2="160" y2="333" gradientUnits="userSpaceOnUse">
<stop stop-color="#007E58"/>
<stop offset="1" stop-color="#2F4D7A" stop-opacity="0.95"/>
</linearGradient>
</defs>
</svg>
