<svg width="332" height="346" viewBox="0 0 332 346" fill="none" xmlns="http://www.w3.org/2000/svg">
<g filter="url(#filter0_d_33:33)">
<rect width="320" height="333" fill="url(#paint0_linear_33:33)"/>
<path d="M37.5435 26.543V29.6094H36.8794C34.0669 29.6615 31.8273 30.4948 30.1606 32.1094C28.494 33.724 27.5304 35.9961 27.27 38.9258C28.7674 37.207 30.8117 36.3477 33.4028 36.3477C35.8768 36.3477 37.8494 37.2201 39.3208 38.9648C40.8052 40.7096 41.5474 42.9622 41.5474 45.7227C41.5474 48.6523 40.7466 50.9961 39.145 52.7539C37.5565 54.5117 35.4211 55.3906 32.7388 55.3906C30.0174 55.3906 27.8104 54.349 26.1177 52.2656C24.425 50.1693 23.5786 47.474 23.5786 44.1797V42.793C23.5786 37.5586 24.6919 33.5612 26.9185 30.8008C29.158 28.0273 32.4849 26.6081 36.8989 26.543H37.5435ZM32.7974 39.3555C31.5604 39.3555 30.4211 39.7266 29.3794 40.4688C28.3377 41.2109 27.6151 42.1419 27.2114 43.2617V44.5898C27.2114 46.9336 27.7388 48.8216 28.7935 50.2539C29.8481 51.6862 31.1632 52.4023 32.7388 52.4023C34.3664 52.4023 35.6424 51.8034 36.5669 50.6055C37.5044 49.4076 37.9731 47.8385 37.9731 45.8984C37.9731 43.9453 37.4979 42.3698 36.5474 41.1719C35.6099 39.9609 34.3599 39.3555 32.7974 39.3555ZM47.4849 40.7422L48.9302 26.5625H63.5005V29.9023H51.9966L51.1372 37.6562C52.5304 36.8359 54.1125 36.4258 55.8833 36.4258C58.4744 36.4258 60.5317 37.2852 62.0552 39.0039C63.5786 40.7096 64.3403 43.0208 64.3403 45.9375C64.3403 48.8672 63.5461 51.1784 61.9575 52.8711C60.382 54.5508 58.175 55.3906 55.3364 55.3906C52.8234 55.3906 50.7726 54.694 49.1841 53.3008C47.5955 51.9076 46.6906 49.9805 46.4692 47.5195H49.8872C50.1086 49.1471 50.688 50.3776 51.6255 51.2109C52.563 52.0312 53.8 52.4414 55.3364 52.4414C57.0161 52.4414 58.3312 51.8685 59.2817 50.7227C60.2453 49.5768 60.7271 47.9948 60.7271 45.9766C60.7271 44.0755 60.2062 42.5521 59.1646 41.4062C58.1359 40.2474 56.7622 39.668 55.0435 39.668C53.4679 39.668 52.231 40.013 51.3325 40.7031L50.3755 41.4844L47.4849 40.7422ZM68.7349 53.1055C68.7349 52.4805 68.9172 51.9596 69.2817 51.543C69.6593 51.1263 70.2192 50.918 70.9614 50.918C71.7036 50.918 72.2635 51.1263 72.6411 51.543C73.0317 51.9596 73.2271 52.4805 73.2271 53.1055C73.2271 53.7044 73.0317 54.2057 72.6411 54.6094C72.2635 55.013 71.7036 55.2148 70.9614 55.2148C70.2192 55.2148 69.6593 55.013 69.2817 54.6094C68.9172 54.2057 68.7349 53.7044 68.7349 53.1055Z" fill="white"/>
<path d="M158.746 90.2422H113.043V217H94.3906V90.2422H48.7852V74.8125H158.746V90.2422ZM266.461 165.34C266.461 181.486 262.75 194.474 255.328 204.305C247.906 214.07 237.945 218.953 225.445 218.953C212.099 218.953 201.78 214.233 194.488 204.793L193.609 217H177.008V67H195.074V122.957C202.366 113.908 212.424 109.383 225.25 109.383C238.076 109.383 248.134 114.233 255.426 123.934C262.783 133.634 266.461 146.915 266.461 163.777V165.34ZM248.395 163.289C248.395 150.984 246.018 141.479 241.266 134.773C236.513 128.068 229.677 124.715 220.758 124.715C208.844 124.715 200.283 130.249 195.074 141.316V187.02C200.608 198.087 209.234 203.621 220.953 203.621C229.612 203.621 236.35 200.268 241.168 193.562C245.986 186.857 248.395 176.766 248.395 163.289Z" fill="white"/>
<path d="M97.6865 241.311H86.2607V273H81.5977V241.311H70.1963V237.453H97.6865V241.311ZM110.772 273.488C107.192 273.488 104.278 272.316 102.032 269.973C99.7861 267.613 98.6631 264.463 98.6631 260.524V259.694C98.6631 257.074 99.1595 254.738 100.152 252.688C101.161 250.62 102.561 249.009 104.352 247.854C106.158 246.682 108.111 246.096 110.211 246.096C113.645 246.096 116.314 247.227 118.219 249.489C120.123 251.752 121.075 254.991 121.075 259.206V261.086H103.18C103.245 263.69 104.002 265.798 105.45 267.409C106.915 269.004 108.771 269.802 111.017 269.802C112.612 269.802 113.963 269.476 115.069 268.825C116.176 268.174 117.145 267.312 117.975 266.237L120.733 268.386C118.52 271.787 115.2 273.488 110.772 273.488ZM110.211 249.807C108.388 249.807 106.858 250.474 105.621 251.809C104.384 253.127 103.619 254.982 103.326 257.375H116.559V257.033C116.428 254.738 115.81 252.964 114.703 251.711C113.596 250.441 112.099 249.807 110.211 249.807ZM139.093 250.637C138.409 250.523 137.669 250.466 136.871 250.466C133.909 250.466 131.899 251.727 130.841 254.25V273H126.324V246.584H130.719L130.792 249.636C132.273 247.276 134.373 246.096 137.091 246.096C137.97 246.096 138.637 246.21 139.093 246.438V250.637ZM165.631 260.085C165.631 264.121 164.703 267.368 162.848 269.826C160.992 272.268 158.502 273.488 155.377 273.488C152.04 273.488 149.461 272.308 147.638 269.948L147.418 273H143.268V235.5H147.784V249.489C149.607 247.227 152.122 246.096 155.328 246.096C158.535 246.096 161.049 247.308 162.872 249.733C164.711 252.159 165.631 255.479 165.631 259.694V260.085ZM161.114 259.572C161.114 256.496 160.52 254.12 159.332 252.443C158.144 250.767 156.435 249.929 154.205 249.929C151.227 249.929 149.086 251.312 147.784 254.079V265.505C149.168 268.272 151.324 269.655 154.254 269.655C156.419 269.655 158.103 268.817 159.308 267.141C160.512 265.464 161.114 262.941 161.114 259.572ZM176.251 273H171.734V246.584H176.251V273ZM171.368 239.577C171.368 238.845 171.588 238.226 172.027 237.722C172.483 237.217 173.15 236.965 174.029 236.965C174.908 236.965 175.576 237.217 176.031 237.722C176.487 238.226 176.715 238.845 176.715 239.577C176.715 240.31 176.487 240.92 176.031 241.408C175.576 241.896 174.908 242.141 174.029 242.141C173.15 242.141 172.483 241.896 172.027 241.408C171.588 240.92 171.368 240.31 171.368 239.577ZM199.811 270.388C198.053 272.455 195.473 273.488 192.071 273.488C189.256 273.488 187.107 272.674 185.626 271.047C184.161 269.403 183.421 266.978 183.404 263.771V246.584H187.921V263.649C187.921 267.653 189.549 269.655 192.804 269.655C196.254 269.655 198.549 268.369 199.688 265.798V246.584H204.205V273H199.908L199.811 270.388ZM215.338 246.584L215.46 249.514C217.397 247.235 220.009 246.096 223.297 246.096C226.992 246.096 229.506 247.512 230.841 250.344C231.72 249.074 232.859 248.049 234.259 247.268C235.675 246.486 237.343 246.096 239.264 246.096C245.058 246.096 248.004 249.164 248.102 255.3V273H243.585V255.568C243.585 253.68 243.154 252.272 242.291 251.345C241.428 250.401 239.98 249.929 237.945 249.929C236.269 249.929 234.877 250.433 233.771 251.442C232.664 252.435 232.021 253.778 231.842 255.471V273H227.301V255.69C227.301 251.849 225.421 249.929 221.661 249.929C218.699 249.929 216.673 251.19 215.582 253.713V273H211.065V246.584H215.338Z" fill="white"/>
<path d="M124.679 313H121.954V294.938L116.49 296.945V294.484L124.254 291.569H124.679V313ZM133.863 302.307L134.947 291.672H145.875V294.177H137.247L136.603 299.992C137.647 299.377 138.834 299.069 140.162 299.069C142.105 299.069 143.648 299.714 144.791 301.003C145.934 302.282 146.505 304.016 146.505 306.203C146.505 308.4 145.909 310.134 144.718 311.403C143.536 312.663 141.881 313.293 139.752 313.293C137.867 313.293 136.329 312.771 135.138 311.726C133.946 310.681 133.268 309.235 133.102 307.39H135.665C135.831 308.61 136.266 309.533 136.969 310.158C137.672 310.773 138.6 311.081 139.752 311.081C141.012 311.081 141.998 310.651 142.711 309.792C143.434 308.933 143.795 307.746 143.795 306.232C143.795 304.807 143.404 303.664 142.623 302.805C141.852 301.936 140.821 301.501 139.532 301.501C138.351 301.501 137.423 301.76 136.749 302.277L136.031 302.863L133.863 302.307ZM162.398 297.238C162.398 298.303 162.115 299.25 161.549 300.08C160.992 300.91 160.235 301.56 159.278 302.028C160.392 302.507 161.271 303.205 161.915 304.123C162.569 305.041 162.896 306.081 162.896 307.243C162.896 309.089 162.271 310.559 161.021 311.652C159.781 312.746 158.146 313.293 156.114 313.293C154.063 313.293 152.418 312.746 151.178 311.652C149.947 310.549 149.332 309.079 149.332 307.243C149.332 306.091 149.645 305.051 150.27 304.123C150.904 303.195 151.778 302.492 152.892 302.014C151.944 301.545 151.197 300.896 150.65 300.065C150.104 299.235 149.83 298.293 149.83 297.238C149.83 295.441 150.406 294.016 151.559 292.961C152.711 291.906 154.229 291.379 156.114 291.379C157.989 291.379 159.503 291.906 160.655 292.961C161.817 294.016 162.398 295.441 162.398 297.238ZM160.187 307.185C160.187 305.993 159.806 305.021 159.044 304.27C158.292 303.518 157.306 303.142 156.085 303.142C154.864 303.142 153.883 303.513 153.141 304.255C152.408 304.997 152.042 305.974 152.042 307.185C152.042 308.396 152.398 309.348 153.111 310.041C153.834 310.734 154.835 311.081 156.114 311.081C157.384 311.081 158.38 310.734 159.103 310.041C159.825 309.338 160.187 308.386 160.187 307.185ZM156.114 293.605C155.05 293.605 154.186 293.938 153.521 294.602C152.867 295.256 152.54 296.149 152.54 297.282C152.54 298.366 152.862 299.245 153.507 299.919C154.161 300.583 155.03 300.915 156.114 300.915C157.198 300.915 158.062 300.583 158.707 299.919C159.361 299.245 159.688 298.366 159.688 297.282C159.688 296.198 159.352 295.314 158.678 294.631C158.004 293.947 157.149 293.605 156.114 293.605ZM166.646 311.579C166.646 311.11 166.783 310.72 167.057 310.407C167.34 310.095 167.76 309.938 168.316 309.938C168.873 309.938 169.293 310.095 169.576 310.407C169.869 310.72 170.016 311.11 170.016 311.579C170.016 312.028 169.869 312.404 169.576 312.707C169.293 313.01 168.873 313.161 168.316 313.161C167.76 313.161 167.34 313.01 167.057 312.707C166.783 312.404 166.646 312.028 166.646 311.579ZM184.605 303.625C184.039 304.299 183.36 304.841 182.569 305.251C181.788 305.661 180.929 305.866 179.991 305.866C178.761 305.866 177.687 305.563 176.769 304.958C175.86 304.353 175.157 303.503 174.659 302.409C174.161 301.306 173.912 300.09 173.912 298.762C173.912 297.336 174.181 296.052 174.718 294.909C175.265 293.767 176.036 292.893 177.032 292.287C178.028 291.682 179.19 291.379 180.519 291.379C182.628 291.379 184.288 292.17 185.499 293.752C186.72 295.324 187.33 297.473 187.33 300.197V300.988C187.33 305.139 186.51 308.171 184.869 310.085C183.229 311.989 180.753 312.966 177.442 313.015H176.915V310.729H177.486C179.723 310.69 181.441 310.109 182.643 308.986C183.844 307.854 184.498 306.066 184.605 303.625ZM180.431 303.625C181.339 303.625 182.174 303.347 182.936 302.79C183.707 302.233 184.269 301.545 184.62 300.725V299.641C184.62 297.863 184.234 296.418 183.463 295.305C182.691 294.191 181.715 293.635 180.533 293.635C179.342 293.635 178.385 294.094 177.662 295.012C176.939 295.92 176.578 297.121 176.578 298.615C176.578 300.07 176.925 301.271 177.618 302.219C178.321 303.156 179.259 303.625 180.431 303.625ZM195.006 301.018H197.042C198.321 300.998 199.327 300.661 200.06 300.007C200.792 299.353 201.158 298.469 201.158 297.355C201.158 294.855 199.913 293.605 197.423 293.605C196.251 293.605 195.313 293.942 194.61 294.616C193.917 295.28 193.57 296.164 193.57 297.268H190.86C190.86 295.578 191.476 294.177 192.706 293.063C193.946 291.94 195.519 291.379 197.423 291.379C199.435 291.379 201.012 291.911 202.154 292.976C203.297 294.04 203.868 295.52 203.868 297.414C203.868 298.342 203.565 299.24 202.96 300.109C202.364 300.979 201.549 301.628 200.514 302.058C201.686 302.429 202.589 303.044 203.224 303.903C203.868 304.763 204.19 305.812 204.19 307.053C204.19 308.967 203.565 310.485 202.315 311.608C201.065 312.731 199.439 313.293 197.438 313.293C195.436 313.293 193.805 312.751 192.545 311.667C191.295 310.583 190.67 309.152 190.67 307.375H193.395C193.395 308.498 193.761 309.396 194.493 310.07C195.226 310.744 196.207 311.081 197.438 311.081C198.746 311.081 199.747 310.739 200.44 310.056C201.134 309.372 201.48 308.391 201.48 307.111C201.48 305.871 201.1 304.919 200.338 304.255C199.576 303.591 198.478 303.249 197.042 303.229H195.006V301.018Z" fill="white"/>
</g>
<defs>
<filter id="filter0_d_33:33" x="0" y="0" width="332" height="346" filterUnits="userSpaceOnUse" color-interpolation-filters="sRGB">
<feFlood flood-opacity="0" result="BackgroundImageFix"/>
<feColorMatrix in="SourceAlpha" type="matrix" values="0 0 0 0 0 0 0 0 0 0 0 0 0 0 0 0 0 0 127 0" result="hardAlpha"/>
<feOffset dx="8" dy="9"/>
<feGaussianBlur stdDeviation="2"/>
<feComposite in2="hardAlpha" operator="out"/>
<feColorMatrix type="matrix" values="0 0 0 0 0 0 0 0 0 0 0 0 0 0 0 0 0 0 0.25 0"/>
<feBlend mode="normal" in2="BackgroundImageFix" result="effect1_dropShadow_33:33"/>
<feBlend mode="normal" in="SourceGraphic" in2="effect1_dropShadow_33:33" result="shape"/>
</filter>
<linearGradient id="paint0_linear_33:33" x1="160" y1="0" x2="160" y2="333" gradientUnits="userSpaceOnUse">
<stop stop-color="#007E58"/>
<stop offset="1" stop-color="#2F4D7A" stop-opacity="0.95"/>
</linearGradient>
</defs>
</svg>
