<svg width="332" height="346" viewBox="0 0 332 346" fill="none" xmlns="http://www.w3.org/2000/svg">
<g filter="url(#filter0_d_41:8)">
<rect width="320" height="333" fill="url(#paint0_linear_41:8)"/>
<path d="M40.6094 33.9844C40.6094 35.4036 40.2318 36.6667 39.4766 37.7734C38.7344 38.8802 37.7253 39.7461 36.4492 40.3711C37.9336 41.0091 39.1055 41.9401 39.9648 43.1641C40.8372 44.388 41.2734 45.7747 41.2734 47.3242C41.2734 49.7852 40.4401 51.7448 38.7734 53.2031C37.1198 54.6615 34.9388 55.3906 32.2305 55.3906C29.4961 55.3906 27.3021 54.6615 25.6484 53.2031C24.0078 51.7318 23.1875 49.7721 23.1875 47.3242C23.1875 45.7878 23.6042 44.401 24.4375 43.1641C25.2839 41.9271 26.4492 40.9896 27.9336 40.3516C26.6706 39.7266 25.6745 38.8607 24.9453 37.7539C24.2161 36.6471 23.8516 35.3906 23.8516 33.9844C23.8516 31.5885 24.6198 29.6875 26.1562 28.2812C27.6927 26.875 29.7174 26.1719 32.2305 26.1719C34.7305 26.1719 36.7487 26.875 38.2852 28.2812C39.8346 29.6875 40.6094 31.5885 40.6094 33.9844ZM37.6602 47.2461C37.6602 45.6576 37.1523 44.362 36.1367 43.3594C35.1341 42.3568 33.819 41.8555 32.1914 41.8555C30.5638 41.8555 29.2552 42.3503 28.2656 43.3398C27.2891 44.3294 26.8008 45.6315 26.8008 47.2461C26.8008 48.8607 27.276 50.1302 28.2266 51.0547C29.1901 51.9792 30.5247 52.4414 32.2305 52.4414C33.9232 52.4414 35.2513 51.9792 36.2148 51.0547C37.1784 50.1172 37.6602 48.8477 37.6602 47.2461ZM32.2305 29.1406C30.8112 29.1406 29.6589 29.5833 28.7734 30.4688C27.901 31.3411 27.4648 32.5326 27.4648 34.043C27.4648 35.4883 27.8945 36.6602 28.7539 37.5586C29.6263 38.444 30.7852 38.8867 32.2305 38.8867C33.6758 38.8867 34.8281 38.444 35.6875 37.5586C36.5599 36.6602 36.9961 35.4883 36.9961 34.043C36.9961 32.5977 36.5469 31.4193 35.6484 30.5078C34.75 29.5964 33.6107 29.1406 32.2305 29.1406ZM57.6992 55H54.0664V30.918L46.7812 33.5938V30.3125L57.1328 26.4258H57.6992V55ZM68.7344 53.1055C68.7344 52.4805 68.9167 51.9596 69.2812 51.543C69.6589 51.1263 70.2188 50.918 70.9609 50.918C71.7031 50.918 72.263 51.1263 72.6406 51.543C73.0312 51.9596 73.2266 52.4805 73.2266 53.1055C73.2266 53.7044 73.0312 54.2057 72.6406 54.6094C72.263 55.013 71.7031 55.2148 70.9609 55.2148C70.2188 55.2148 69.6589 55.013 69.2812 54.6094C68.9167 54.2057 68.7344 53.7044 68.7344 53.1055Z" fill="white"/>
<path d="M190.746 90.2422H145.043V217H126.391V90.2422H80.7852V74.8125H190.746V90.2422ZM228.637 217H210.57V67H228.637V217Z" fill="white"/>
<path d="M92.6865 241.311H81.2607V273H76.5977V241.311H65.1963V237.453H92.6865V241.311ZM101.769 249.782C103.771 247.325 106.375 246.096 109.581 246.096C115.164 246.096 117.979 249.245 118.028 255.544V273H113.512V255.52C113.495 253.615 113.056 252.207 112.193 251.296C111.347 250.384 110.021 249.929 108.214 249.929C106.749 249.929 105.463 250.319 104.356 251.101C103.25 251.882 102.387 252.907 101.769 254.177V273H97.252V235.5H101.769V249.782ZM141.1 273C140.839 272.479 140.628 271.551 140.465 270.217C138.365 272.398 135.859 273.488 132.945 273.488C130.341 273.488 128.201 272.756 126.524 271.291C124.864 269.81 124.034 267.938 124.034 265.676C124.034 262.925 125.076 260.793 127.159 259.279C129.259 257.749 132.205 256.984 135.997 256.984H140.392V254.909C140.392 253.33 139.92 252.077 138.976 251.149C138.032 250.205 136.64 249.733 134.801 249.733C133.189 249.733 131.839 250.14 130.748 250.954C129.658 251.768 129.112 252.753 129.112 253.908H124.571C124.571 252.59 125.035 251.32 125.963 250.1C126.907 248.863 128.176 247.886 129.771 247.17C131.383 246.454 133.149 246.096 135.069 246.096C138.113 246.096 140.497 246.861 142.223 248.391C143.948 249.904 144.843 251.996 144.908 254.665V266.823C144.908 269.248 145.217 271.177 145.836 272.609V273H141.1ZM133.604 269.558C135.021 269.558 136.363 269.191 137.633 268.459C138.902 267.727 139.822 266.774 140.392 265.603V260.183H136.852C131.318 260.183 128.551 261.802 128.551 265.041C128.551 266.457 129.023 267.564 129.967 268.361C130.911 269.159 132.123 269.558 133.604 269.558ZM156.896 273H152.379V235.5H156.896V273ZM169.054 273H164.537V235.5H169.054V273ZM181.212 273H176.695V246.584H181.212V273ZM176.329 239.577C176.329 238.845 176.549 238.226 176.988 237.722C177.444 237.217 178.111 236.965 178.99 236.965C179.869 236.965 180.536 237.217 180.992 237.722C181.448 238.226 181.676 238.845 181.676 239.577C181.676 240.31 181.448 240.92 180.992 241.408C180.536 241.896 179.869 242.141 178.99 242.141C178.111 242.141 177.444 241.896 176.988 241.408C176.549 240.92 176.329 240.31 176.329 239.577ZM204.771 270.388C203.014 272.455 200.434 273.488 197.032 273.488C194.216 273.488 192.068 272.674 190.587 271.047C189.122 269.403 188.382 266.978 188.365 263.771V246.584H192.882V263.649C192.882 267.653 194.509 269.655 197.765 269.655C201.215 269.655 203.51 268.369 204.649 265.798V246.584H209.166V273H204.869L204.771 270.388ZM220.299 246.584L220.421 249.514C222.358 247.235 224.97 246.096 228.258 246.096C231.952 246.096 234.467 247.512 235.802 250.344C236.681 249.074 237.82 248.049 239.22 247.268C240.636 246.486 242.304 246.096 244.225 246.096C250.019 246.096 252.965 249.164 253.062 255.3V273H248.546V255.568C248.546 253.68 248.115 252.272 247.252 251.345C246.389 250.401 244.941 249.929 242.906 249.929C241.23 249.929 239.838 250.433 238.731 251.442C237.625 252.435 236.982 253.778 236.803 255.471V273H232.262V255.69C232.262 251.849 230.382 249.929 226.622 249.929C223.66 249.929 221.633 251.19 220.543 253.713V273H216.026V246.584H220.299Z" fill="white"/>
<path d="M129.747 313H115.772V311.052L123.155 302.849C124.249 301.608 125.001 300.603 125.411 299.831C125.831 299.05 126.041 298.244 126.041 297.414C126.041 296.301 125.704 295.388 125.03 294.675C124.356 293.962 123.458 293.605 122.335 293.605C120.987 293.605 119.938 293.991 119.186 294.763C118.443 295.524 118.072 296.589 118.072 297.956H115.362C115.362 295.993 115.992 294.406 117.252 293.195C118.521 291.984 120.216 291.379 122.335 291.379C124.317 291.379 125.885 291.901 127.037 292.946C128.189 293.981 128.766 295.363 128.766 297.092C128.766 299.191 127.428 301.691 124.752 304.592L119.039 310.788H129.747V313ZM145.992 303.903C145.992 307.077 145.45 309.436 144.366 310.979C143.282 312.521 141.588 313.293 139.283 313.293C137.008 313.293 135.323 312.541 134.229 311.037C133.136 309.523 132.569 307.268 132.53 304.27V300.651C132.53 297.517 133.072 295.188 134.156 293.664C135.24 292.141 136.939 291.379 139.254 291.379C141.549 291.379 143.238 292.116 144.322 293.591C145.406 295.056 145.963 297.321 145.992 300.388V303.903ZM143.282 300.197C143.282 297.902 142.96 296.232 142.315 295.188C141.671 294.133 140.65 293.605 139.254 293.605C137.867 293.605 136.856 294.128 136.222 295.173C135.587 296.218 135.26 297.824 135.24 299.992V304.328C135.24 306.633 135.572 308.337 136.236 309.44C136.91 310.534 137.926 311.081 139.283 311.081C140.621 311.081 141.612 310.563 142.257 309.528C142.911 308.493 143.253 306.862 143.282 304.636V300.197ZM160.904 305.837H163.863V308.049H160.904V313H158.18V308.049H148.468V306.452L158.019 291.672H160.904V305.837ZM151.544 305.837H158.18V295.378L157.857 295.964L151.544 305.837ZM166.646 311.579C166.646 311.11 166.783 310.72 167.057 310.407C167.34 310.095 167.76 309.938 168.316 309.938C168.873 309.938 169.293 310.095 169.576 310.407C169.869 310.72 170.016 311.11 170.016 311.579C170.016 312.028 169.869 312.404 169.576 312.707C169.293 313.01 168.873 313.161 168.316 313.161C167.76 313.161 167.34 313.01 167.057 312.707C166.783 312.404 166.646 312.028 166.646 311.579ZM178.16 301.018H180.196C181.476 300.998 182.481 300.661 183.214 300.007C183.946 299.353 184.312 298.469 184.312 297.355C184.312 294.855 183.067 293.605 180.577 293.605C179.405 293.605 178.468 293.942 177.765 294.616C177.071 295.28 176.725 296.164 176.725 297.268H174.015C174.015 295.578 174.63 294.177 175.86 293.063C177.101 291.94 178.673 291.379 180.577 291.379C182.589 291.379 184.166 291.911 185.309 292.976C186.451 294.04 187.022 295.52 187.022 297.414C187.022 298.342 186.72 299.24 186.114 300.109C185.519 300.979 184.703 301.628 183.668 302.058C184.84 302.429 185.743 303.044 186.378 303.903C187.022 304.763 187.345 305.812 187.345 307.053C187.345 308.967 186.72 310.485 185.47 311.608C184.22 312.731 182.594 313.293 180.592 313.293C178.59 313.293 176.959 312.751 175.699 311.667C174.449 310.583 173.824 309.152 173.824 307.375H176.549C176.549 308.498 176.915 309.396 177.647 310.07C178.38 310.744 179.361 311.081 180.592 311.081C181.9 311.081 182.901 310.739 183.595 310.056C184.288 309.372 184.635 308.391 184.635 307.111C184.635 305.871 184.254 304.919 183.492 304.255C182.73 303.591 181.632 303.249 180.196 303.229H178.16V301.018ZM204 297.238C204 298.303 203.717 299.25 203.15 300.08C202.594 300.91 201.837 301.56 200.88 302.028C201.993 302.507 202.872 303.205 203.517 304.123C204.171 305.041 204.498 306.081 204.498 307.243C204.498 309.089 203.873 310.559 202.623 311.652C201.383 312.746 199.747 313.293 197.716 313.293C195.665 313.293 194.02 312.746 192.779 311.652C191.549 310.549 190.934 309.079 190.934 307.243C190.934 306.091 191.246 305.051 191.871 304.123C192.506 303.195 193.38 302.492 194.493 302.014C193.546 301.545 192.799 300.896 192.252 300.065C191.705 299.235 191.432 298.293 191.432 297.238C191.432 295.441 192.008 294.016 193.16 292.961C194.312 291.906 195.831 291.379 197.716 291.379C199.591 291.379 201.104 291.906 202.257 292.961C203.419 294.016 204 295.441 204 297.238ZM201.788 307.185C201.788 305.993 201.407 305.021 200.646 304.27C199.894 303.518 198.907 303.142 197.687 303.142C196.466 303.142 195.484 303.513 194.742 304.255C194.01 304.997 193.644 305.974 193.644 307.185C193.644 308.396 194 309.348 194.713 310.041C195.436 310.734 196.437 311.081 197.716 311.081C198.985 311.081 199.981 310.734 200.704 310.041C201.427 309.338 201.788 308.386 201.788 307.185ZM197.716 293.605C196.651 293.605 195.787 293.938 195.123 294.602C194.469 295.256 194.142 296.149 194.142 297.282C194.142 298.366 194.464 299.245 195.108 299.919C195.763 300.583 196.632 300.915 197.716 300.915C198.8 300.915 199.664 300.583 200.309 299.919C200.963 299.245 201.29 298.366 201.29 297.282C201.29 296.198 200.953 295.314 200.279 294.631C199.605 293.947 198.751 293.605 197.716 293.605Z" fill="white"/>
</g>
<defs>
<filter id="filter0_d_41:8" x="0" y="0" width="332" height="346" filterUnits="userSpaceOnUse" color-interpolation-filters="sRGB">
<feFlood flood-opacity="0" result="BackgroundImageFix"/>
<feColorMatrix in="SourceAlpha" type="matrix" values="0 0 0 0 0 0 0 0 0 0 0 0 0 0 0 0 0 0 127 0" result="hardAlpha"/>
<feOffset dx="8" dy="9"/>
<feGaussianBlur stdDeviation="2"/>
<feComposite in2="hardAlpha" operator="out"/>
<feColorMatrix type="matrix" values="0 0 0 0 0 0 0 0 0 0 0 0 0 0 0 0 0 0 0.25 0"/>
<feBlend mode="normal" in2="BackgroundImageFix" result="effect1_dropShadow_41:8"/>
<feBlend mode="normal" in="SourceGraphic" in2="effect1_dropShadow_41:8" result="shape"/>
</filter>
<linearGradient id="paint0_linear_41:8" x1="160" y1="0" x2="160" y2="333" gradientUnits="userSpaceOnUse">
<stop stop-color="#007E58"/>
<stop offset="1" stop-color="#2F4D7A" stop-opacity="0.95"/>
</linearGradient>
</defs>
</svg>
