<svg width="332" height="346" viewBox="0 0 332 346" fill="none" xmlns="http://www.w3.org/2000/svg">
<g filter="url(#filter0_d_37:8)">
<rect width="320" height="333" fill="url(#paint0_linear_37:8)"/>
<path d="M37.5435 26.543V29.6094H36.8794C34.0669 29.6615 31.8273 30.4948 30.1606 32.1094C28.494 33.724 27.5304 35.9961 27.27 38.9258C28.7674 37.207 30.8117 36.3477 33.4028 36.3477C35.8768 36.3477 37.8494 37.2201 39.3208 38.9648C40.8052 40.7096 41.5474 42.9622 41.5474 45.7227C41.5474 48.6523 40.7466 50.9961 39.145 52.7539C37.5565 54.5117 35.4211 55.3906 32.7388 55.3906C30.0174 55.3906 27.8104 54.349 26.1177 52.2656C24.425 50.1693 23.5786 47.474 23.5786 44.1797V42.793C23.5786 37.5586 24.6919 33.5612 26.9185 30.8008C29.158 28.0273 32.4849 26.6081 36.8989 26.543H37.5435ZM32.7974 39.3555C31.5604 39.3555 30.4211 39.7266 29.3794 40.4688C28.3377 41.2109 27.6151 42.1419 27.2114 43.2617V44.5898C27.2114 46.9336 27.7388 48.8216 28.7935 50.2539C29.8481 51.6862 31.1632 52.4023 32.7388 52.4023C34.3664 52.4023 35.6424 51.8034 36.5669 50.6055C37.5044 49.4076 37.9731 47.8385 37.9731 45.8984C37.9731 43.9453 37.4979 42.3698 36.5474 41.1719C35.6099 39.9609 34.3599 39.3555 32.7974 39.3555ZM59.6724 42.5C58.9172 43.3984 58.0122 44.1211 56.9575 44.668C55.9159 45.2148 54.77 45.4883 53.52 45.4883C51.8794 45.4883 50.4471 45.0846 49.2231 44.2773C48.0122 43.4701 47.0747 42.3372 46.4106 40.8789C45.7466 39.4076 45.4146 37.7865 45.4146 36.0156C45.4146 34.1146 45.7726 32.4023 46.4888 30.8789C47.2179 29.3555 48.2466 28.1901 49.5747 27.3828C50.9028 26.5755 52.4523 26.1719 54.2231 26.1719C57.0356 26.1719 59.2492 27.2266 60.8638 29.3359C62.4914 31.4323 63.3052 34.2969 63.3052 37.9297V38.9844C63.3052 44.5182 62.2114 48.5612 60.0239 51.1133C57.8364 53.6523 54.5356 54.9544 50.1216 55.0195H49.4185V51.9727H50.1802C53.1619 51.9206 55.4536 51.1458 57.0552 49.6484C58.6567 48.138 59.5291 45.7552 59.6724 42.5ZM54.106 42.5C55.3169 42.5 56.4302 42.1289 57.4458 41.3867C58.4744 40.6445 59.2231 39.7266 59.6919 38.6328V37.1875C59.6919 34.8177 59.1776 32.8906 58.1489 31.4062C57.1203 29.9219 55.8182 29.1797 54.2427 29.1797C52.6541 29.1797 51.3781 29.7917 50.4146 31.0156C49.451 32.2266 48.9692 33.8281 48.9692 35.8203C48.9692 37.7604 49.4315 39.362 50.356 40.625C51.2935 41.875 52.5435 42.5 54.106 42.5ZM68.7349 53.1055C68.7349 52.4805 68.9172 51.9596 69.2817 51.543C69.6593 51.1263 70.2192 50.918 70.9614 50.918C71.7036 50.918 72.2635 51.1263 72.6411 51.543C73.0317 51.9596 73.2271 52.4805 73.2271 53.1055C73.2271 53.7044 73.0317 54.2057 72.6411 54.6094C72.2635 55.013 71.7036 55.2148 70.9614 55.2148C70.2192 55.2148 69.6593 55.013 69.2817 54.6094C68.9172 54.2057 68.7349 53.7044 68.7349 53.1055Z" fill="white"/>
<path d="M132.746 90.2422H87.043V217H68.3906V90.2422H22.7852V74.8125H132.746V90.2422ZM157.258 111.336L157.746 123.055C165.493 113.94 175.943 109.383 189.094 109.383C203.872 109.383 213.931 115.047 219.27 126.375C222.785 121.297 227.342 117.195 232.941 114.07C238.605 110.945 245.279 109.383 252.961 109.383C276.138 109.383 287.922 121.655 288.312 146.199V217H270.246V147.273C270.246 139.721 268.521 134.09 265.07 130.379C261.62 126.603 255.826 124.715 247.688 124.715C240.982 124.715 235.415 126.733 230.988 130.77C226.561 134.741 223.99 140.112 223.273 146.883V217H205.109V147.762C205.109 132.397 197.59 124.715 182.551 124.715C170.702 124.715 162.596 129.76 158.234 139.852V217H140.168V111.336H157.258Z" fill="white"/>
<path d="M97.6865 241.311H86.2607V273H81.5977V241.311H70.1963V237.453H97.6865V241.311ZM106.769 249.782C108.771 247.325 111.375 246.096 114.581 246.096C120.164 246.096 122.979 249.245 123.028 255.544V273H118.512V255.52C118.495 253.615 118.056 252.207 117.193 251.296C116.347 250.384 115.021 249.929 113.214 249.929C111.749 249.929 110.463 250.319 109.356 251.101C108.25 251.882 107.387 252.907 106.769 254.177V273H102.252V235.5H106.769V249.782ZM146.1 270.388C144.342 272.455 141.762 273.488 138.36 273.488C135.545 273.488 133.396 272.674 131.915 271.047C130.45 269.403 129.71 266.978 129.693 263.771V246.584H134.21V263.649C134.21 267.653 135.838 269.655 139.093 269.655C142.543 269.655 144.838 268.369 145.978 265.798V246.584H150.494V273H146.197L146.1 270.388ZM162.286 273H157.77V235.5H162.286V273ZM174.444 273H169.928V246.584H174.444V273ZM169.562 239.577C169.562 238.845 169.781 238.226 170.221 237.722C170.676 237.217 171.344 236.965 172.223 236.965C173.102 236.965 173.769 237.217 174.225 237.722C174.68 238.226 174.908 238.845 174.908 239.577C174.908 240.31 174.68 240.92 174.225 241.408C173.769 241.896 173.102 242.141 172.223 242.141C171.344 242.141 170.676 241.896 170.221 241.408C169.781 240.92 169.562 240.31 169.562 239.577ZM198.004 270.388C196.246 272.455 193.666 273.488 190.265 273.488C187.449 273.488 185.3 272.674 183.819 271.047C182.354 269.403 181.614 266.978 181.598 263.771V246.584H186.114V263.649C186.114 267.653 187.742 269.655 190.997 269.655C194.448 269.655 196.743 268.369 197.882 265.798V246.584H202.398V273H198.102L198.004 270.388ZM213.531 246.584L213.653 249.514C215.59 247.235 218.202 246.096 221.49 246.096C225.185 246.096 227.7 247.512 229.034 250.344C229.913 249.074 231.052 248.049 232.452 247.268C233.868 246.486 235.536 246.096 237.457 246.096C243.251 246.096 246.197 249.164 246.295 255.3V273H241.778V255.568C241.778 253.68 241.347 252.272 240.484 251.345C239.622 250.401 238.173 249.929 236.139 249.929C234.462 249.929 233.071 250.433 231.964 251.442C230.857 252.435 230.214 253.778 230.035 255.471V273H225.494V255.69C225.494 251.849 223.614 249.929 219.854 249.929C216.892 249.929 214.866 251.19 213.775 253.713V273H209.259V246.584H213.531Z" fill="white"/>
<path d="M124.679 313H121.954V294.938L116.49 296.945V294.484L124.254 291.569H124.679V313ZM143.253 291.657V293.957H142.755C140.646 293.996 138.966 294.621 137.716 295.832C136.466 297.043 135.743 298.747 135.548 300.944C136.671 299.655 138.204 299.011 140.147 299.011C142.003 299.011 143.482 299.665 144.586 300.974C145.699 302.282 146.256 303.972 146.256 306.042C146.256 308.239 145.655 309.997 144.454 311.315C143.263 312.634 141.661 313.293 139.649 313.293C137.608 313.293 135.953 312.512 134.684 310.949C133.414 309.377 132.779 307.355 132.779 304.885V303.845C132.779 299.919 133.614 296.921 135.284 294.851C136.964 292.771 139.459 291.706 142.77 291.657H143.253ZM139.693 301.267C138.766 301.267 137.911 301.545 137.13 302.102C136.349 302.658 135.807 303.356 135.504 304.196V305.192C135.504 306.95 135.899 308.366 136.69 309.44C137.481 310.515 138.468 311.052 139.649 311.052C140.87 311.052 141.827 310.603 142.521 309.704C143.224 308.806 143.575 307.629 143.575 306.174C143.575 304.709 143.219 303.527 142.506 302.629C141.803 301.721 140.865 301.267 139.693 301.267ZM162.398 297.238C162.398 298.303 162.115 299.25 161.549 300.08C160.992 300.91 160.235 301.56 159.278 302.028C160.392 302.507 161.271 303.205 161.915 304.123C162.569 305.041 162.896 306.081 162.896 307.243C162.896 309.089 162.271 310.559 161.021 311.652C159.781 312.746 158.146 313.293 156.114 313.293C154.063 313.293 152.418 312.746 151.178 311.652C149.947 310.549 149.332 309.079 149.332 307.243C149.332 306.091 149.645 305.051 150.27 304.123C150.904 303.195 151.778 302.492 152.892 302.014C151.944 301.545 151.197 300.896 150.65 300.065C150.104 299.235 149.83 298.293 149.83 297.238C149.83 295.441 150.406 294.016 151.559 292.961C152.711 291.906 154.229 291.379 156.114 291.379C157.989 291.379 159.503 291.906 160.655 292.961C161.817 294.016 162.398 295.441 162.398 297.238ZM160.187 307.185C160.187 305.993 159.806 305.021 159.044 304.27C158.292 303.518 157.306 303.142 156.085 303.142C154.864 303.142 153.883 303.513 153.141 304.255C152.408 304.997 152.042 305.974 152.042 307.185C152.042 308.396 152.398 309.348 153.111 310.041C153.834 310.734 154.835 311.081 156.114 311.081C157.384 311.081 158.38 310.734 159.103 310.041C159.825 309.338 160.187 308.386 160.187 307.185ZM156.114 293.605C155.05 293.605 154.186 293.938 153.521 294.602C152.867 295.256 152.54 296.149 152.54 297.282C152.54 298.366 152.862 299.245 153.507 299.919C154.161 300.583 155.03 300.915 156.114 300.915C157.198 300.915 158.062 300.583 158.707 299.919C159.361 299.245 159.688 298.366 159.688 297.282C159.688 296.198 159.352 295.314 158.678 294.631C158.004 293.947 157.149 293.605 156.114 293.605ZM166.646 311.579C166.646 311.11 166.783 310.72 167.057 310.407C167.34 310.095 167.76 309.938 168.316 309.938C168.873 309.938 169.293 310.095 169.576 310.407C169.869 310.72 170.016 311.11 170.016 311.579C170.016 312.028 169.869 312.404 169.576 312.707C169.293 313.01 168.873 313.161 168.316 313.161C167.76 313.161 167.34 313.01 167.057 312.707C166.783 312.404 166.646 312.028 166.646 311.579ZM184.605 303.625C184.039 304.299 183.36 304.841 182.569 305.251C181.788 305.661 180.929 305.866 179.991 305.866C178.761 305.866 177.687 305.563 176.769 304.958C175.86 304.353 175.157 303.503 174.659 302.409C174.161 301.306 173.912 300.09 173.912 298.762C173.912 297.336 174.181 296.052 174.718 294.909C175.265 293.767 176.036 292.893 177.032 292.287C178.028 291.682 179.19 291.379 180.519 291.379C182.628 291.379 184.288 292.17 185.499 293.752C186.72 295.324 187.33 297.473 187.33 300.197V300.988C187.33 305.139 186.51 308.171 184.869 310.085C183.229 311.989 180.753 312.966 177.442 313.015H176.915V310.729H177.486C179.723 310.69 181.441 310.109 182.643 308.986C183.844 307.854 184.498 306.066 184.605 303.625ZM180.431 303.625C181.339 303.625 182.174 303.347 182.936 302.79C183.707 302.233 184.269 301.545 184.62 300.725V299.641C184.62 297.863 184.234 296.418 183.463 295.305C182.691 294.191 181.715 293.635 180.533 293.635C179.342 293.635 178.385 294.094 177.662 295.012C176.939 295.92 176.578 297.121 176.578 298.615C176.578 300.07 176.925 301.271 177.618 302.219C178.321 303.156 179.259 303.625 180.431 303.625ZM195.006 301.018H197.042C198.321 300.998 199.327 300.661 200.06 300.007C200.792 299.353 201.158 298.469 201.158 297.355C201.158 294.855 199.913 293.605 197.423 293.605C196.251 293.605 195.313 293.942 194.61 294.616C193.917 295.28 193.57 296.164 193.57 297.268H190.86C190.86 295.578 191.476 294.177 192.706 293.063C193.946 291.94 195.519 291.379 197.423 291.379C199.435 291.379 201.012 291.911 202.154 292.976C203.297 294.04 203.868 295.52 203.868 297.414C203.868 298.342 203.565 299.24 202.96 300.109C202.364 300.979 201.549 301.628 200.514 302.058C201.686 302.429 202.589 303.044 203.224 303.903C203.868 304.763 204.19 305.812 204.19 307.053C204.19 308.967 203.565 310.485 202.315 311.608C201.065 312.731 199.439 313.293 197.438 313.293C195.436 313.293 193.805 312.751 192.545 311.667C191.295 310.583 190.67 309.152 190.67 307.375H193.395C193.395 308.498 193.761 309.396 194.493 310.07C195.226 310.744 196.207 311.081 197.438 311.081C198.746 311.081 199.747 310.739 200.44 310.056C201.134 309.372 201.48 308.391 201.48 307.111C201.48 305.871 201.1 304.919 200.338 304.255C199.576 303.591 198.478 303.249 197.042 303.229H195.006V301.018Z" fill="white"/>
</g>
<defs>
<filter id="filter0_d_37:8" x="0" y="0" width="332" height="346" filterUnits="userSpaceOnUse" color-interpolation-filters="sRGB">
<feFlood flood-opacity="0" result="BackgroundImageFix"/>
<feColorMatrix in="SourceAlpha" type="matrix" values="0 0 0 0 0 0 0 0 0 0 0 0 0 0 0 0 0 0 127 0" result="hardAlpha"/>
<feOffset dx="8" dy="9"/>
<feGaussianBlur stdDeviation="2"/>
<feComposite in2="hardAlpha" operator="out"/>
<feColorMatrix type="matrix" values="0 0 0 0 0 0 0 0 0 0 0 0 0 0 0 0 0 0 0.25 0"/>
<feBlend mode="normal" in2="BackgroundImageFix" result="effect1_dropShadow_37:8"/>
<feBlend mode="normal" in="SourceGraphic" in2="effect1_dropShadow_37:8" result="shape"/>
</filter>
<linearGradient id="paint0_linear_37:8" x1="160" y1="0" x2="160" y2="333" gradientUnits="userSpaceOnUse">
<stop stop-color="#007E58"/>
<stop offset="1" stop-color="#2F4D7A" stop-opacity="0.95"/>
</linearGradient>
</defs>
</svg>
