<svg width="332" height="346" viewBox="0 0 332 346" fill="none" xmlns="http://www.w3.org/2000/svg">
<g filter="url(#filter0_d)">
<rect width="320" height="333" fill="url(#paint0_linear)"/>
<path d="M190.746 90.2422H145.043V217H126.391V90.2422H80.7852V74.8125H190.746V90.2422ZM228.637 217H210.57V111.336H228.637V217ZM209.105 83.3086C209.105 80.3789 209.984 77.9049 211.742 75.8867C213.565 73.8685 216.234 72.8594 219.75 72.8594C223.266 72.8594 225.935 73.8685 227.758 75.8867C229.581 77.9049 230.492 80.3789 230.492 83.3086C230.492 86.2383 229.581 88.6797 227.758 90.6328C225.935 92.5859 223.266 93.5625 219.75 93.5625C216.234 93.5625 213.565 92.5859 211.742 90.6328C209.984 88.6797 209.105 86.2383 209.105 83.3086Z" fill="white"/>
<path d="M41.9961 55H23.3633V52.4023L33.207 41.4648C34.6654 39.8112 35.668 38.4701 36.2148 37.4414C36.7747 36.3997 37.0547 35.3255 37.0547 34.2188C37.0547 32.7344 36.6055 31.5169 35.707 30.5664C34.8086 29.6159 33.6107 29.1406 32.1133 29.1406C30.3164 29.1406 28.9167 29.6549 27.9141 30.6836C26.9245 31.6992 26.4297 33.1185 26.4297 34.9414H22.8164C22.8164 32.3242 23.6562 30.2083 25.3359 28.5938C27.0286 26.9792 29.2878 26.1719 32.1133 26.1719C34.7565 26.1719 36.8464 26.8685 38.3828 28.2617C39.9193 29.6419 40.6875 31.4844 40.6875 33.7891C40.6875 36.5885 38.9036 39.9219 35.3359 43.7891L27.7188 52.0508H41.9961V55ZM64.457 55H45.8242V52.4023L55.668 41.4648C57.1263 39.8112 58.1289 38.4701 58.6758 37.4414C59.2357 36.3997 59.5156 35.3255 59.5156 34.2188C59.5156 32.7344 59.0664 31.5169 58.168 30.5664C57.2695 29.6159 56.0716 29.1406 54.5742 29.1406C52.7773 29.1406 51.3776 29.6549 50.375 30.6836C49.3854 31.6992 48.8906 33.1185 48.8906 34.9414H45.2773C45.2773 32.3242 46.1172 30.2083 47.7969 28.5938C49.4896 26.9792 51.7487 26.1719 54.5742 26.1719C57.2174 26.1719 59.3073 26.8685 60.8438 28.2617C62.3802 29.6419 63.1484 31.4844 63.1484 33.7891C63.1484 36.5885 61.3646 39.9219 57.7969 43.7891L50.1797 52.0508H64.457V55ZM68.7344 53.1055C68.7344 52.4805 68.9167 51.9596 69.2812 51.543C69.6589 51.1263 70.2188 50.918 70.9609 50.918C71.7031 50.918 72.263 51.1263 72.6406 51.543C73.0312 51.9596 73.2266 52.4805 73.2266 53.1055C73.2266 53.7044 73.0312 54.2057 72.6406 54.6094C72.263 55.013 71.7031 55.2148 70.9609 55.2148C70.2188 55.2148 69.6589 55.013 69.2812 54.6094C68.9167 54.2057 68.7344 53.7044 68.7344 53.1055Z" fill="white"/>
<path d="M90.6865 241.311H79.2607V273H74.5977V241.311H63.1963V237.453H90.6865V241.311ZM100.159 273H95.6426V246.584H100.159V273ZM95.2764 239.577C95.2764 238.845 95.4961 238.226 95.9355 237.722C96.3913 237.217 97.0586 236.965 97.9375 236.965C98.8164 236.965 99.4837 237.217 99.9395 237.722C100.395 238.226 100.623 238.845 100.623 239.577C100.623 240.31 100.395 240.92 99.9395 241.408C99.4837 241.896 98.8164 242.141 97.9375 242.141C97.0586 242.141 96.3913 241.896 95.9355 241.408C95.4961 240.92 95.2764 240.31 95.2764 239.577ZM113.538 240.188V246.584H118.47V250.075H113.538V266.457C113.538 267.515 113.758 268.312 114.197 268.85C114.637 269.37 115.385 269.631 116.443 269.631C116.964 269.631 117.68 269.533 118.592 269.338V273C117.404 273.326 116.248 273.488 115.125 273.488C113.107 273.488 111.585 272.878 110.56 271.657C109.534 270.437 109.021 268.703 109.021 266.457V250.075H104.212V246.584H109.021V240.188H113.538ZM140.076 273C139.816 272.479 139.604 271.551 139.441 270.217C137.342 272.398 134.835 273.488 131.922 273.488C129.318 273.488 127.177 272.756 125.501 271.291C123.841 269.81 123.011 267.938 123.011 265.676C123.011 262.925 124.052 260.793 126.136 259.279C128.235 257.749 131.181 256.984 134.974 256.984H139.368V254.909C139.368 253.33 138.896 252.077 137.952 251.149C137.008 250.205 135.617 249.733 133.777 249.733C132.166 249.733 130.815 250.14 129.725 250.954C128.634 251.768 128.089 252.753 128.089 253.908H123.548C123.548 252.59 124.012 251.32 124.939 250.1C125.883 248.863 127.153 247.886 128.748 247.17C130.359 246.454 132.125 246.096 134.046 246.096C137.09 246.096 139.474 246.861 141.199 248.391C142.924 249.904 143.82 251.996 143.885 254.665V266.823C143.885 269.248 144.194 271.177 144.812 272.609V273H140.076ZM132.581 269.558C133.997 269.558 135.34 269.191 136.609 268.459C137.879 267.727 138.799 266.774 139.368 265.603V260.183H135.828C130.294 260.183 127.527 261.802 127.527 265.041C127.527 266.457 127.999 267.564 128.943 268.361C129.887 269.159 131.1 269.558 132.581 269.558ZM155.237 246.584L155.384 249.904C157.402 247.365 160.039 246.096 163.294 246.096C168.877 246.096 171.692 249.245 171.741 255.544V273H167.225V255.52C167.208 253.615 166.769 252.207 165.906 251.296C165.06 250.384 163.733 249.929 161.927 249.929C160.462 249.929 159.176 250.319 158.069 251.101C156.963 251.882 156.1 252.907 155.481 254.177V273H150.965V246.584H155.237ZM183.46 273H178.943V246.584H183.46V273ZM178.577 239.577C178.577 238.845 178.797 238.226 179.236 237.722C179.692 237.217 180.359 236.965 181.238 236.965C182.117 236.965 182.785 237.217 183.24 237.722C183.696 238.226 183.924 238.845 183.924 239.577C183.924 240.31 183.696 240.92 183.24 241.408C182.785 241.896 182.117 242.141 181.238 242.141C180.359 242.141 179.692 241.896 179.236 241.408C178.797 240.92 178.577 240.31 178.577 239.577ZM207.02 270.388C205.262 272.455 202.682 273.488 199.28 273.488C196.465 273.488 194.316 272.674 192.835 271.047C191.37 269.403 190.63 266.978 190.613 263.771V246.584H195.13V263.649C195.13 267.653 196.757 269.655 200.013 269.655C203.463 269.655 205.758 268.369 206.897 265.798V246.584H211.414V273H207.117L207.02 270.388ZM222.547 246.584L222.669 249.514C224.606 247.235 227.218 246.096 230.506 246.096C234.201 246.096 236.715 247.512 238.05 250.344C238.929 249.074 240.068 248.049 241.468 247.268C242.884 246.486 244.552 246.096 246.473 246.096C252.267 246.096 255.213 249.164 255.311 255.3V273H250.794V255.568C250.794 253.68 250.363 252.272 249.5 251.345C248.637 250.401 247.189 249.929 245.154 249.929C243.478 249.929 242.086 250.433 240.979 251.442C239.873 252.435 239.23 253.778 239.051 255.471V273H234.51V255.69C234.51 251.849 232.63 249.929 228.87 249.929C225.908 249.929 223.882 251.19 222.791 253.713V273H218.274V246.584H222.547Z" fill="white"/>
<path d="M126.213 305.837H129.172V308.049H126.213V313H123.488V308.049H113.776V306.452L123.327 291.672H126.213V305.837ZM116.853 305.837H123.488V295.378L123.166 295.964L116.853 305.837ZM145.388 293.195L136.555 313H133.713L142.517 293.898H130.974V291.672H145.388V293.195ZM148.801 311.579C148.801 311.11 148.938 310.72 149.211 310.407C149.494 310.095 149.914 309.938 150.471 309.938C151.027 309.938 151.447 310.095 151.73 310.407C152.023 310.72 152.17 311.11 152.17 311.579C152.17 312.028 152.023 312.404 151.73 312.707C151.447 313.01 151.027 313.161 150.471 313.161C149.914 313.161 149.494 313.01 149.211 312.707C148.938 312.404 148.801 312.028 148.801 311.579ZM169.309 297.238C169.309 298.303 169.025 299.25 168.459 300.08C167.902 300.91 167.146 301.56 166.188 302.028C167.302 302.507 168.181 303.205 168.825 304.123C169.479 305.041 169.807 306.081 169.807 307.243C169.807 309.089 169.182 310.559 167.932 311.652C166.691 312.746 165.056 313.293 163.024 313.293C160.974 313.293 159.328 312.746 158.088 311.652C156.857 310.549 156.242 309.079 156.242 307.243C156.242 306.091 156.555 305.051 157.18 304.123C157.814 303.195 158.688 302.492 159.802 302.014C158.854 301.545 158.107 300.896 157.561 300.065C157.014 299.235 156.74 298.293 156.74 297.238C156.74 295.441 157.316 294.016 158.469 292.961C159.621 291.906 161.14 291.379 163.024 291.379C164.899 291.379 166.413 291.906 167.565 292.961C168.728 294.016 169.309 295.441 169.309 297.238ZM167.097 307.185C167.097 305.993 166.716 305.021 165.954 304.27C165.202 303.518 164.216 303.142 162.995 303.142C161.774 303.142 160.793 303.513 160.051 304.255C159.318 304.997 158.952 305.974 158.952 307.185C158.952 308.396 159.309 309.348 160.021 310.041C160.744 310.734 161.745 311.081 163.024 311.081C164.294 311.081 165.29 310.734 166.013 310.041C166.735 309.338 167.097 308.386 167.097 307.185ZM163.024 293.605C161.96 293.605 161.096 293.938 160.432 294.602C159.777 295.256 159.45 296.149 159.45 297.282C159.45 298.366 159.772 299.245 160.417 299.919C161.071 300.583 161.94 300.915 163.024 300.915C164.108 300.915 164.973 300.583 165.617 299.919C166.271 299.245 166.599 298.366 166.599 297.282C166.599 296.198 166.262 295.314 165.588 294.631C164.914 293.947 164.06 293.605 163.024 293.605ZM183.854 291.657V293.957H183.356C181.247 293.996 179.567 294.621 178.317 295.832C177.067 297.043 176.345 298.747 176.149 300.944C177.272 299.655 178.806 299.011 180.749 299.011C182.604 299.011 184.084 299.665 185.188 300.974C186.301 302.282 186.857 303.972 186.857 306.042C186.857 308.239 186.257 309.997 185.056 311.315C183.864 312.634 182.263 313.293 180.251 313.293C178.21 313.293 176.555 312.512 175.285 310.949C174.016 309.377 173.381 307.355 173.381 304.885V303.845C173.381 299.919 174.216 296.921 175.886 294.851C177.565 292.771 180.061 291.706 183.371 291.657H183.854ZM180.295 301.267C179.367 301.267 178.513 301.545 177.731 302.102C176.95 302.658 176.408 303.356 176.105 304.196V305.192C176.105 306.95 176.501 308.366 177.292 309.44C178.083 310.515 179.069 311.052 180.251 311.052C181.472 311.052 182.429 310.603 183.122 309.704C183.825 308.806 184.177 307.629 184.177 306.174C184.177 304.709 183.82 303.527 183.107 302.629C182.404 301.721 181.467 301.267 180.295 301.267ZM203.835 293.195L195.002 313H192.16L200.964 293.898H189.421V291.672H203.835V293.195Z" fill="white"/>
</g>
<defs>
<filter id="filter0_d" x="0" y="0" width="332" height="346" filterUnits="userSpaceOnUse" color-interpolation-filters="sRGB">
<feFlood flood-opacity="0" result="BackgroundImageFix"/>
<feColorMatrix in="SourceAlpha" type="matrix" values="0 0 0 0 0 0 0 0 0 0 0 0 0 0 0 0 0 0 127 0" result="hardAlpha"/>
<feOffset dx="8" dy="9"/>
<feGaussianBlur stdDeviation="2"/>
<feComposite in2="hardAlpha" operator="out"/>
<feColorMatrix type="matrix" values="0 0 0 0 0 0 0 0 0 0 0 0 0 0 0 0 0 0 0.25 0"/>
<feBlend mode="normal" in2="BackgroundImageFix" result="effect1_dropShadow"/>
<feBlend mode="normal" in="SourceGraphic" in2="effect1_dropShadow" result="shape"/>
</filter>
<linearGradient id="paint0_linear" x1="160" y1="0" x2="160" y2="333" gradientUnits="userSpaceOnUse">
<stop stop-color="#007E58"/>
<stop offset="1" stop-color="#2F4D7A" stop-opacity="0.95"/>
</linearGradient>
</defs>
</svg>
