<svg width="332" height="346" viewBox="0 0 332 346" fill="none" xmlns="http://www.w3.org/2000/svg">
<g filter="url(#filter0_d)">
<rect width="320" height="333" fill="url(#paint0_linear)"/>
<path d="M159.574 192.098L200.199 74.8125H220.707L167.973 217H151.371L98.7344 74.8125H119.145L159.574 192.098Z" fill="white"/>
<path d="M41.9961 55H23.3633V52.4023L33.207 41.4648C34.6654 39.8112 35.668 38.4701 36.2148 37.4414C36.7747 36.3997 37.0547 35.3255 37.0547 34.2188C37.0547 32.7344 36.6055 31.5169 35.707 30.5664C34.8086 29.6159 33.6107 29.1406 32.1133 29.1406C30.3164 29.1406 28.9167 29.6549 27.9141 30.6836C26.9245 31.6992 26.4297 33.1185 26.4297 34.9414H22.8164C22.8164 32.3242 23.6562 30.2083 25.3359 28.5938C27.0286 26.9792 29.2878 26.1719 32.1133 26.1719C34.7565 26.1719 36.8464 26.8685 38.3828 28.2617C39.9193 29.6419 40.6875 31.4844 40.6875 33.7891C40.6875 36.5885 38.9036 39.9219 35.3359 43.7891L27.7188 52.0508H41.9961V55ZM51.0781 39.0234H53.793C55.4987 38.9974 56.8398 38.5482 57.8164 37.6758C58.793 36.8034 59.2812 35.625 59.2812 34.1406C59.2812 30.8073 57.6211 29.1406 54.3008 29.1406C52.7383 29.1406 51.4883 29.5898 50.5508 30.4883C49.6263 31.3737 49.1641 32.5521 49.1641 34.0234H45.5508C45.5508 31.7708 46.3711 29.9023 48.0117 28.418C49.6654 26.9206 51.7617 26.1719 54.3008 26.1719C56.9831 26.1719 59.0859 26.8815 60.6094 28.3008C62.1328 29.7201 62.8945 31.6927 62.8945 34.2188C62.8945 35.4557 62.4909 36.6536 61.6836 37.8125C60.8893 38.9714 59.8021 39.8372 58.4219 40.4102C59.9844 40.9049 61.1888 41.7253 62.0352 42.8711C62.8945 44.0169 63.3242 45.4167 63.3242 47.0703C63.3242 49.6224 62.4909 51.6471 60.8242 53.1445C59.1576 54.6419 56.9896 55.3906 54.3203 55.3906C51.651 55.3906 49.4766 54.668 47.7969 53.2227C46.1302 51.7773 45.2969 49.8698 45.2969 47.5H48.9297C48.9297 48.9974 49.418 50.1953 50.3945 51.0938C51.3711 51.9922 52.6797 52.4414 54.3203 52.4414C56.0651 52.4414 57.3997 51.9857 58.3242 51.0742C59.2487 50.1628 59.7109 48.8542 59.7109 47.1484C59.7109 45.4948 59.2031 44.2253 58.1875 43.3398C57.1719 42.4544 55.707 41.9987 53.793 41.9727H51.0781V39.0234ZM68.7344 53.1055C68.7344 52.4805 68.9167 51.9596 69.2812 51.543C69.6589 51.1263 70.2188 50.918 70.9609 50.918C71.7031 50.918 72.263 51.1263 72.6406 51.543C73.0312 51.9596 73.2266 52.4805 73.2266 53.1055C73.2266 53.7044 73.0312 54.2057 72.6406 54.6094C72.263 55.013 71.7031 55.2148 70.9609 55.2148C70.2188 55.2148 69.6589 55.013 69.2812 54.6094C68.9167 54.2057 68.7344 53.7044 68.7344 53.1055Z" fill="white"/>
<path d="M62.8936 266.774L73.0498 237.453H78.1768L64.9932 273H60.8428L47.6836 237.453H52.7861L62.8936 266.774ZM97.4395 273C97.179 272.479 96.9674 271.551 96.8047 270.217C94.7051 272.398 92.1986 273.488 89.2852 273.488C86.681 273.488 84.5407 272.756 82.8643 271.291C81.2041 269.81 80.374 267.938 80.374 265.676C80.374 262.925 81.4157 260.793 83.499 259.279C85.5986 257.749 88.5446 256.984 92.3369 256.984H96.7314V254.909C96.7314 253.33 96.2594 252.077 95.3154 251.149C94.3714 250.205 92.9798 249.733 91.1406 249.733C89.5293 249.733 88.1784 250.14 87.0879 250.954C85.9974 251.768 85.4521 252.753 85.4521 253.908H80.9111C80.9111 252.59 81.375 251.32 82.3027 250.1C83.2467 248.863 84.5163 247.886 86.1113 247.17C87.7227 246.454 89.4886 246.096 91.4092 246.096C94.4528 246.096 96.8372 246.861 98.5625 248.391C100.288 249.904 101.183 251.996 101.248 254.665V266.823C101.248 269.248 101.557 271.177 102.176 272.609V273H97.4395ZM89.9443 269.558C91.3604 269.558 92.7031 269.191 93.9727 268.459C95.2422 267.727 96.1618 266.774 96.7314 265.603V260.183H93.1914C87.6576 260.183 84.8906 261.802 84.8906 265.041C84.8906 266.457 85.3626 267.564 86.3066 268.361C87.2507 269.159 88.4632 269.558 89.9443 269.558ZM112.601 246.584L112.747 249.904C114.765 247.365 117.402 246.096 120.657 246.096C126.24 246.096 129.056 249.245 129.104 255.544V273H124.588V255.52C124.572 253.615 124.132 252.207 123.27 251.296C122.423 250.384 121.097 249.929 119.29 249.929C117.825 249.929 116.539 250.319 115.433 251.101C114.326 251.882 113.463 252.907 112.845 254.177V273H108.328V246.584H112.601ZM152.225 273C151.964 272.479 151.753 271.551 151.59 270.217C149.49 272.398 146.984 273.488 144.07 273.488C141.466 273.488 139.326 272.756 137.649 271.291C135.989 269.81 135.159 267.938 135.159 265.676C135.159 262.925 136.201 260.793 138.284 259.279C140.384 257.749 143.33 256.984 147.122 256.984H151.517V254.909C151.517 253.33 151.045 252.077 150.101 251.149C149.157 250.205 147.765 249.733 145.926 249.733C144.314 249.733 142.964 250.14 141.873 250.954C140.783 251.768 140.237 252.753 140.237 253.908H135.696C135.696 252.59 136.16 251.32 137.088 250.1C138.032 248.863 139.301 247.886 140.896 247.17C142.508 246.454 144.274 246.096 146.194 246.096C149.238 246.096 151.622 246.861 153.348 248.391C155.073 249.904 155.968 251.996 156.033 254.665V266.823C156.033 269.248 156.342 271.177 156.961 272.609V273H152.225ZM144.729 269.558C146.146 269.558 147.488 269.191 148.758 268.459C150.027 267.727 150.947 266.774 151.517 265.603V260.183H147.977C142.443 260.183 139.676 261.802 139.676 265.041C139.676 266.457 140.148 267.564 141.092 268.361C142.036 269.159 143.248 269.558 144.729 269.558ZM162.015 259.572C162.015 255.52 162.975 252.264 164.896 249.807C166.816 247.333 169.331 246.096 172.439 246.096C175.532 246.096 177.981 247.154 179.788 249.27V235.5H184.305V273H180.154L179.935 270.168C178.128 272.382 175.613 273.488 172.391 273.488C169.331 273.488 166.832 272.235 164.896 269.729C162.975 267.222 162.015 263.951 162.015 259.914V259.572ZM166.531 260.085C166.531 263.08 167.15 265.424 168.387 267.116C169.624 268.809 171.333 269.655 173.514 269.655C176.378 269.655 178.47 268.369 179.788 265.798V253.664C178.437 251.174 176.362 249.929 173.562 249.929C171.349 249.929 169.624 250.783 168.387 252.492C167.15 254.201 166.531 256.732 166.531 260.085ZM196.243 273H191.727V246.584H196.243V273ZM191.36 239.577C191.36 238.845 191.58 238.226 192.02 237.722C192.475 237.217 193.143 236.965 194.021 236.965C194.9 236.965 195.568 237.217 196.023 237.722C196.479 238.226 196.707 238.845 196.707 239.577C196.707 240.31 196.479 240.92 196.023 241.408C195.568 241.896 194.9 242.141 194.021 242.141C193.143 242.141 192.475 241.896 192.02 241.408C191.58 240.92 191.36 240.31 191.36 239.577ZM219.803 270.388C218.045 272.455 215.465 273.488 212.063 273.488C209.248 273.488 207.099 272.674 205.618 271.047C204.153 269.403 203.413 266.978 203.396 263.771V246.584H207.913V263.649C207.913 267.653 209.541 269.655 212.796 269.655C216.246 269.655 218.541 268.369 219.681 265.798V246.584H224.197V273H219.9L219.803 270.388ZM235.33 246.584L235.452 249.514C237.389 247.235 240.001 246.096 243.289 246.096C246.984 246.096 249.498 247.512 250.833 250.344C251.712 249.074 252.851 248.049 254.251 247.268C255.667 246.486 257.335 246.096 259.256 246.096C265.05 246.096 267.996 249.164 268.094 255.3V273H263.577V255.568C263.577 253.68 263.146 252.272 262.283 251.345C261.421 250.401 259.972 249.929 257.938 249.929C256.261 249.929 254.869 250.433 253.763 251.442C252.656 252.435 252.013 253.778 251.834 255.471V273H247.293V255.69C247.293 251.849 245.413 249.929 241.653 249.929C238.691 249.929 236.665 251.19 235.574 253.713V273H231.058V246.584H235.33Z" fill="white"/>
<path d="M126.213 305.837H129.172V308.049H126.213V313H123.488V308.049H113.776V306.452L123.327 291.672H126.213V305.837ZM116.853 305.837H123.488V295.378L123.166 295.964L116.853 305.837ZM145.388 293.195L136.555 313H133.713L142.517 293.898H130.974V291.672H145.388V293.195ZM148.801 311.579C148.801 311.11 148.938 310.72 149.211 310.407C149.494 310.095 149.914 309.938 150.471 309.938C151.027 309.938 151.447 310.095 151.73 310.407C152.023 310.72 152.17 311.11 152.17 311.579C152.17 312.028 152.023 312.404 151.73 312.707C151.447 313.01 151.027 313.161 150.471 313.161C149.914 313.161 149.494 313.01 149.211 312.707C148.938 312.404 148.801 312.028 148.801 311.579ZM169.309 297.238C169.309 298.303 169.025 299.25 168.459 300.08C167.902 300.91 167.146 301.56 166.188 302.028C167.302 302.507 168.181 303.205 168.825 304.123C169.479 305.041 169.807 306.081 169.807 307.243C169.807 309.089 169.182 310.559 167.932 311.652C166.691 312.746 165.056 313.293 163.024 313.293C160.974 313.293 159.328 312.746 158.088 311.652C156.857 310.549 156.242 309.079 156.242 307.243C156.242 306.091 156.555 305.051 157.18 304.123C157.814 303.195 158.688 302.492 159.802 302.014C158.854 301.545 158.107 300.896 157.561 300.065C157.014 299.235 156.74 298.293 156.74 297.238C156.74 295.441 157.316 294.016 158.469 292.961C159.621 291.906 161.14 291.379 163.024 291.379C164.899 291.379 166.413 291.906 167.565 292.961C168.728 294.016 169.309 295.441 169.309 297.238ZM167.097 307.185C167.097 305.993 166.716 305.021 165.954 304.27C165.202 303.518 164.216 303.142 162.995 303.142C161.774 303.142 160.793 303.513 160.051 304.255C159.318 304.997 158.952 305.974 158.952 307.185C158.952 308.396 159.309 309.348 160.021 310.041C160.744 310.734 161.745 311.081 163.024 311.081C164.294 311.081 165.29 310.734 166.013 310.041C166.735 309.338 167.097 308.386 167.097 307.185ZM163.024 293.605C161.96 293.605 161.096 293.938 160.432 294.602C159.777 295.256 159.45 296.149 159.45 297.282C159.45 298.366 159.772 299.245 160.417 299.919C161.071 300.583 161.94 300.915 163.024 300.915C164.108 300.915 164.973 300.583 165.617 299.919C166.271 299.245 166.599 298.366 166.599 297.282C166.599 296.198 166.262 295.314 165.588 294.631C164.914 293.947 164.06 293.605 163.024 293.605ZM183.854 291.657V293.957H183.356C181.247 293.996 179.567 294.621 178.317 295.832C177.067 297.043 176.345 298.747 176.149 300.944C177.272 299.655 178.806 299.011 180.749 299.011C182.604 299.011 184.084 299.665 185.188 300.974C186.301 302.282 186.857 303.972 186.857 306.042C186.857 308.239 186.257 309.997 185.056 311.315C183.864 312.634 182.263 313.293 180.251 313.293C178.21 313.293 176.555 312.512 175.285 310.949C174.016 309.377 173.381 307.355 173.381 304.885V303.845C173.381 299.919 174.216 296.921 175.886 294.851C177.565 292.771 180.061 291.706 183.371 291.657H183.854ZM180.295 301.267C179.367 301.267 178.513 301.545 177.731 302.102C176.95 302.658 176.408 303.356 176.105 304.196V305.192C176.105 306.95 176.501 308.366 177.292 309.44C178.083 310.515 179.069 311.052 180.251 311.052C181.472 311.052 182.429 310.603 183.122 309.704C183.825 308.806 184.177 307.629 184.177 306.174C184.177 304.709 183.82 303.527 183.107 302.629C182.404 301.721 181.467 301.267 180.295 301.267ZM203.835 293.195L195.002 313H192.16L200.964 293.898H189.421V291.672H203.835V293.195Z" fill="white"/>
</g>
<defs>
<filter id="filter0_d" x="0" y="0" width="332" height="346" filterUnits="userSpaceOnUse" color-interpolation-filters="sRGB">
<feFlood flood-opacity="0" result="BackgroundImageFix"/>
<feColorMatrix in="SourceAlpha" type="matrix" values="0 0 0 0 0 0 0 0 0 0 0 0 0 0 0 0 0 0 127 0" result="hardAlpha"/>
<feOffset dx="8" dy="9"/>
<feGaussianBlur stdDeviation="2"/>
<feComposite in2="hardAlpha" operator="out"/>
<feColorMatrix type="matrix" values="0 0 0 0 0 0 0 0 0 0 0 0 0 0 0 0 0 0 0.25 0"/>
<feBlend mode="normal" in2="BackgroundImageFix" result="effect1_dropShadow"/>
<feBlend mode="normal" in="SourceGraphic" in2="effect1_dropShadow" result="shape"/>
</filter>
<linearGradient id="paint0_linear" x1="160" y1="0" x2="160" y2="333" gradientUnits="userSpaceOnUse">
<stop stop-color="#007E58"/>
<stop offset="1" stop-color="#2F4D7A" stop-opacity="0.95"/>
</linearGradient>
</defs>
</svg>
