<svg width="332" height="346" viewBox="0 0 332 346" fill="none" xmlns="http://www.w3.org/2000/svg">
<g filter="url(#filter0_d_3:5)">
<rect width="320" height="333" fill="url(#paint0_linear_3:5)"/>
<path d="M38.6177 45.4492H42.563V48.3984H38.6177V55H34.9849V48.3984H22.0356V46.2695L34.77 26.5625H38.6177V45.4492ZM26.1372 45.4492H34.9849V31.5039L34.5552 32.2852L26.1372 45.4492ZM63.6567 42.8711C63.6567 47.1029 62.9341 50.2474 61.4888 52.3047C60.0435 54.362 57.7843 55.3906 54.7114 55.3906C51.6776 55.3906 49.4315 54.388 47.9731 52.3828C46.5148 50.3646 45.7596 47.3568 45.7075 43.3594V38.5352C45.7075 34.3555 46.4302 31.25 47.8755 29.2188C49.3208 27.1875 51.5864 26.1719 54.6724 26.1719C57.7323 26.1719 59.9849 27.1549 61.4302 29.1211C62.8755 31.0742 63.6177 34.0951 63.6567 38.1836V42.8711ZM60.0435 37.9297C60.0435 34.8698 59.6138 32.6432 58.7544 31.25C57.895 29.8438 56.5343 29.1406 54.6724 29.1406C52.8234 29.1406 51.4757 29.8372 50.6294 31.2305C49.783 32.6237 49.3468 34.7656 49.3208 37.6562V43.4375C49.3208 46.5104 49.7635 48.7826 50.6489 50.2539C51.5474 51.7122 52.9015 52.4414 54.7114 52.4414C56.4953 52.4414 57.8169 51.7513 58.6763 50.3711C59.5487 48.9909 60.0044 46.8164 60.0435 43.8477V37.9297ZM68.7349 53.1055C68.7349 52.4805 68.9172 51.9596 69.2817 51.543C69.6593 51.1263 70.2192 50.918 70.9614 50.918C71.7036 50.918 72.2635 51.1263 72.6411 51.543C73.0317 51.9596 73.2271 52.4805 73.2271 53.1055C73.2271 53.7044 73.0317 54.2057 72.6411 54.6094C72.2635 55.013 71.7036 55.2148 70.9614 55.2148C70.2192 55.2148 69.6593 55.013 69.2817 54.6094C68.9172 54.2057 68.7349 53.7044 68.7349 53.1055Z" fill="white"/>
<path d="M96.5664 201.668H177.914V217H74.3984V202.938L152.328 90.2422H75.668V74.8125H174.789V88.582L96.5664 201.668ZM250.473 127.547C247.738 127.091 244.776 126.863 241.586 126.863C229.737 126.863 221.697 131.909 217.465 142V217H199.398V111.336H216.977L217.27 123.543C223.194 114.103 231.592 109.383 242.465 109.383C245.98 109.383 248.65 109.839 250.473 110.75V127.547Z" fill="white"/>
<path d="M55.6416 269.167H75.9785V273H50.0996V269.484L69.582 241.311H50.417V237.453H75.1973V240.896L55.6416 269.167ZM86.2568 273H81.7402V246.584H86.2568V273ZM81.374 239.577C81.374 238.845 81.5938 238.226 82.0332 237.722C82.4889 237.217 83.1562 236.965 84.0352 236.965C84.9141 236.965 85.5814 237.217 86.0371 237.722C86.4928 238.226 86.7207 238.845 86.7207 239.577C86.7207 240.31 86.4928 240.92 86.0371 241.408C85.5814 241.896 84.9141 242.141 84.0352 242.141C83.1562 242.141 82.4889 241.896 82.0332 241.408C81.5938 240.92 81.374 240.31 81.374 239.577ZM106.276 250.637C105.593 250.523 104.852 250.466 104.055 250.466C101.092 250.466 99.0824 251.727 98.0244 254.25V273H93.5078V246.584H97.9023L97.9756 249.636C99.4567 247.276 101.556 246.096 104.274 246.096C105.153 246.096 105.821 246.21 106.276 246.438V250.637ZM120.559 269.802C122.17 269.802 123.578 269.313 124.782 268.337C125.987 267.36 126.654 266.14 126.784 264.675H131.057C130.975 266.188 130.454 267.629 129.494 268.996C128.534 270.363 127.248 271.454 125.637 272.268C124.042 273.081 122.349 273.488 120.559 273.488C116.962 273.488 114.097 272.292 111.965 269.899C109.849 267.491 108.791 264.203 108.791 260.036V259.279C108.791 256.708 109.263 254.421 110.207 252.419C111.151 250.417 112.502 248.863 114.26 247.756C116.034 246.649 118.125 246.096 120.534 246.096C123.496 246.096 125.954 246.983 127.907 248.757C129.877 250.531 130.926 252.834 131.057 255.666H126.784C126.654 253.957 126.003 252.557 124.831 251.467C123.675 250.36 122.243 249.807 120.534 249.807C118.239 249.807 116.457 250.637 115.188 252.297C113.934 253.941 113.308 256.325 113.308 259.45V260.305C113.308 263.348 113.934 265.692 115.188 267.336C116.441 268.98 118.231 269.802 120.559 269.802ZM134.938 259.548C134.938 256.96 135.443 254.632 136.452 252.565C137.478 250.498 138.894 248.903 140.7 247.78C142.523 246.657 144.598 246.096 146.926 246.096C150.523 246.096 153.428 247.341 155.642 249.831C157.871 252.321 158.986 255.633 158.986 259.768V260.085C158.986 262.657 158.49 264.968 157.497 267.019C156.521 269.053 155.113 270.64 153.273 271.779C151.451 272.919 149.351 273.488 146.975 273.488C143.394 273.488 140.489 272.243 138.259 269.753C136.045 267.263 134.938 263.967 134.938 259.865V259.548ZM139.479 260.085C139.479 263.015 140.155 265.367 141.506 267.141C142.873 268.915 144.696 269.802 146.975 269.802C149.27 269.802 151.092 268.907 152.443 267.116C153.794 265.31 154.47 262.787 154.47 259.548C154.47 256.651 153.778 254.307 152.395 252.517C151.027 250.71 149.204 249.807 146.926 249.807C144.696 249.807 142.897 250.694 141.53 252.468C140.163 254.242 139.479 256.781 139.479 260.085ZM168.923 246.584L169.069 249.904C171.088 247.365 173.724 246.096 176.979 246.096C182.562 246.096 185.378 249.245 185.427 255.544V273H180.91V255.52C180.894 253.615 180.454 252.207 179.592 251.296C178.745 250.384 177.419 249.929 175.612 249.929C174.147 249.929 172.862 250.319 171.755 251.101C170.648 251.882 169.785 252.907 169.167 254.177V273H164.65V246.584H168.923ZM197.146 273H192.629V246.584H197.146V273ZM192.263 239.577C192.263 238.845 192.482 238.226 192.922 237.722C193.378 237.217 194.045 236.965 194.924 236.965C195.803 236.965 196.47 237.217 196.926 237.722C197.382 238.226 197.609 238.845 197.609 239.577C197.609 240.31 197.382 240.92 196.926 241.408C196.47 241.896 195.803 242.141 194.924 242.141C194.045 242.141 193.378 241.896 192.922 241.408C192.482 240.92 192.263 240.31 192.263 239.577ZM220.705 270.388C218.947 272.455 216.368 273.488 212.966 273.488C210.15 273.488 208.002 272.674 206.521 271.047C205.056 269.403 204.315 266.978 204.299 263.771V246.584H208.815V263.649C208.815 267.653 210.443 269.655 213.698 269.655C217.149 269.655 219.444 268.369 220.583 265.798V246.584H225.1V273H220.803L220.705 270.388ZM236.232 246.584L236.354 249.514C238.291 247.235 240.904 246.096 244.191 246.096C247.886 246.096 250.401 247.512 251.735 250.344C252.614 249.074 253.754 248.049 255.153 247.268C256.569 246.486 258.238 246.096 260.158 246.096C265.952 246.096 268.898 249.164 268.996 255.3V273H264.479V255.568C264.479 253.68 264.048 252.272 263.186 251.345C262.323 250.401 260.874 249.929 258.84 249.929C257.163 249.929 255.772 250.433 254.665 251.442C253.558 252.435 252.915 253.778 252.736 255.471V273H248.195V255.69C248.195 251.849 246.315 249.929 242.556 249.929C239.593 249.929 237.567 251.19 236.477 253.713V273H231.96V246.584H236.232Z" fill="white"/>
<path d="M126.158 303.625C125.592 304.299 124.913 304.841 124.122 305.251C123.341 305.661 122.481 305.866 121.544 305.866C120.313 305.866 119.239 305.563 118.321 304.958C117.413 304.353 116.71 303.503 116.212 302.409C115.714 301.306 115.465 300.09 115.465 298.762C115.465 297.336 115.733 296.052 116.271 294.909C116.817 293.767 117.589 292.893 118.585 292.287C119.581 291.682 120.743 291.379 122.071 291.379C124.181 291.379 125.841 292.17 127.052 293.752C128.272 295.324 128.883 297.473 128.883 300.197V300.988C128.883 305.139 128.062 308.171 126.422 310.085C124.781 311.989 122.306 312.966 118.995 313.015H118.468V310.729H119.039C121.275 310.69 122.994 310.109 124.195 308.986C125.396 307.854 126.051 306.066 126.158 303.625ZM121.983 303.625C122.892 303.625 123.727 303.347 124.488 302.79C125.26 302.233 125.821 301.545 126.173 300.725V299.641C126.173 297.863 125.787 296.418 125.016 295.305C124.244 294.191 123.268 293.635 122.086 293.635C120.895 293.635 119.938 294.094 119.215 295.012C118.492 295.92 118.131 297.121 118.131 298.615C118.131 300.07 118.478 301.271 119.171 302.219C119.874 303.156 120.812 303.625 121.983 303.625ZM141.524 313H138.8V294.938L133.336 296.945V294.484L141.1 291.569H141.524V313ZM149.801 311.579C149.801 311.11 149.938 310.72 150.211 310.407C150.494 310.095 150.914 309.938 151.471 309.938C152.027 309.938 152.447 310.095 152.73 310.407C153.023 310.72 153.17 311.11 153.17 311.579C153.17 312.028 153.023 312.404 152.73 312.707C152.447 313.01 152.027 313.161 151.471 313.161C150.914 313.161 150.494 313.01 150.211 312.707C149.938 312.404 149.801 312.028 149.801 311.579ZM171.349 313H157.374V311.052L164.757 302.849C165.851 301.608 166.603 300.603 167.013 299.831C167.433 299.05 167.643 298.244 167.643 297.414C167.643 296.301 167.306 295.388 166.632 294.675C165.958 293.962 165.06 293.605 163.937 293.605C162.589 293.605 161.539 293.991 160.787 294.763C160.045 295.524 159.674 296.589 159.674 297.956H156.964C156.964 295.993 157.594 294.406 158.854 293.195C160.123 291.984 161.817 291.379 163.937 291.379C165.919 291.379 167.486 291.901 168.639 292.946C169.791 293.981 170.367 295.363 170.367 297.092C170.367 299.191 169.029 301.691 166.354 304.592L160.641 310.788H171.349V313ZM188.194 313H174.22V311.052L181.603 302.849C182.696 301.608 183.448 300.603 183.858 299.831C184.278 299.05 184.488 298.244 184.488 297.414C184.488 296.301 184.151 295.388 183.478 294.675C182.804 293.962 181.905 293.605 180.782 293.605C179.435 293.605 178.385 293.991 177.633 294.763C176.891 295.524 176.52 296.589 176.52 297.956H173.81C173.81 295.993 174.439 294.406 175.699 293.195C176.969 291.984 178.663 291.379 180.782 291.379C182.765 291.379 184.332 291.901 185.484 292.946C186.637 293.981 187.213 295.363 187.213 297.092C187.213 299.191 185.875 301.691 183.199 304.592L177.486 310.788H188.194V313ZM202.506 305.837H205.465V308.049H202.506V313H199.781V308.049H190.069V306.452L199.62 291.672H202.506V305.837ZM193.146 305.837H199.781V295.378L199.459 295.964L193.146 305.837Z" fill="white"/>
</g>
<defs>
<filter id="filter0_d_3:5" x="0" y="0" width="332" height="346" filterUnits="userSpaceOnUse" color-interpolation-filters="sRGB">
<feFlood flood-opacity="0" result="BackgroundImageFix"/>
<feColorMatrix in="SourceAlpha" type="matrix" values="0 0 0 0 0 0 0 0 0 0 0 0 0 0 0 0 0 0 127 0" result="hardAlpha"/>
<feOffset dx="8" dy="9"/>
<feGaussianBlur stdDeviation="2"/>
<feComposite in2="hardAlpha" operator="out"/>
<feColorMatrix type="matrix" values="0 0 0 0 0 0 0 0 0 0 0 0 0 0 0 0 0 0 0.25 0"/>
<feBlend mode="normal" in2="BackgroundImageFix" result="effect1_dropShadow_3:5"/>
<feBlend mode="normal" in="SourceGraphic" in2="effect1_dropShadow_3:5" result="shape"/>
</filter>
<linearGradient id="paint0_linear_3:5" x1="160" y1="0" x2="160" y2="333" gradientUnits="userSpaceOnUse">
<stop stop-color="#007E58"/>
<stop offset="1" stop-color="#2F4D7A" stop-opacity="0.95"/>
</linearGradient>
</defs>
</svg>
